<svg width="120" height="80" viewBox="0 0 120 80" fill="none" xmlns="http://www.w3.org/2000/svg">
<rect width="120" height="80" rx="4" fill="white"/>
<path fill-rule="evenodd" clip-rule="evenodd" d="M78.3331 35.4738C79.0182 35.4738 79.6693 35.6087 80.2178 35.8788C80.8 36.1489 81.2798 36.5201 81.691 36.9589C82.1026 37.4312 82.4108 37.9714 82.6161 38.5789C82.822 39.1864 82.959 39.8274 82.959 40.5363C82.959 41.4139 82.822 42.2236 82.5821 42.9663C82.3079 43.7087 81.9653 44.3503 81.4511 44.8902C80.9713 45.4301 80.3891 45.8686 79.7036 46.1725C79.0182 46.4764 78.2301 46.6451 77.3737 46.6451C76.9278 46.6451 76.5509 46.6451 76.2424 46.6113C75.9341 46.5778 75.6256 46.5102 75.3173 46.375V50.695H72.028V36.3511C72.028 36.1824 72.096 36.0137 72.1992 35.9126C72.3359 35.7774 72.4732 35.7101 72.6445 35.7101H75.3173V36.5539C75.6942 36.25 76.1397 35.9802 76.6196 35.7774C77.0991 35.5749 77.6816 35.4738 78.3331 35.4738ZM98.8248 35.5076L102.286 42.1563L105.13 35.9126C105.199 35.7774 105.267 35.6763 105.404 35.6087C105.541 35.5411 105.678 35.5076 105.815 35.5076H107.7L102.217 47.5227C100.881 50.7965 97.6942 50.3238 97.1117 50.3238V48.501L97.2956 48.5012C97.8742 48.499 99.1028 48.4526 99.6816 47.7925C99.8185 47.6238 99.9898 47.3202 100.058 47.1174C100.161 46.9152 100.23 46.7465 100.333 46.5778L100.71 45.6999L95.3296 35.5076H98.8248ZM69.3205 35.8788V46.6789H65.8935V36.4193C65.8935 36.2506 65.9281 36.1824 66.0651 36.0475C66.2021 35.9126 66.3737 35.8788 66.545 35.8788H69.3205ZM91.766 35.845C92.9173 36.1689 94.1949 37.0218 94.2952 38.4334L94.3015 38.6127V46.4088H90.9092V46.0038C86.8311 47.7925 84.3639 45.3963 84.3639 42.8314C84.3639 41.3463 85.4262 39.0512 88.4077 39.085C89.0358 39.1132 89.807 39.1881 90.5026 39.2514L90.9092 39.2875V38.7138C90.9092 36.8575 90.0865 36.2838 85.7348 37.0262C85.6322 36.7564 85.5289 36.2838 85.4262 36.0137C88.1677 35.3051 90.1895 35.4062 91.766 35.845ZM63.1523 31.795V46.3077H59.6914V32.4025C59.6914 32.2338 59.7597 32.0986 59.897 31.9637C60.0339 31.8288 60.2052 31.795 60.3765 31.795H63.1523ZM51.5355 31.795L58.3208 46.3077H54.6882L53.5576 43.945H46.567L45.3331 46.3077H42.9001L49.7881 32.2676C49.8564 32.1324 49.9593 32.0313 50.0963 31.9299C50.2061 31.8491 50.3157 31.8113 50.4429 31.7994L50.5418 31.795H51.5355ZM77.579 37.5326C77.3737 37.5326 77.1678 37.5664 76.9621 37.6337C76.7565 37.7013 76.5853 37.8027 76.4137 37.9376C76.2424 38.0725 76.0711 38.2074 75.8998 38.3764C75.7285 38.5451 75.5916 38.7138 75.4543 38.9163V43.7087C75.4543 43.9788 75.4889 44.2151 75.5916 44.4514C75.6942 44.6877 75.8315 44.8902 76.0028 45.0589C76.174 45.2276 76.4136 45.3625 76.6536 45.4639C76.8935 45.565 77.2021 45.5988 77.4763 45.5988C77.7502 45.5988 78.0245 45.4977 78.2644 45.3287C78.5043 45.1265 78.7439 44.8902 78.9152 44.5525C79.0865 44.2151 79.2581 43.8101 79.3611 43.3378C79.4637 42.8652 79.5324 42.3588 79.5324 41.8189C79.5324 41.11 79.498 40.5025 79.3951 39.9626C79.2924 39.4227 79.1551 38.9839 78.9839 38.6127C78.8126 38.2412 78.607 37.9714 78.3671 37.8027C78.1271 37.6337 77.8532 37.5326 77.579 37.5326ZM89.3327 40.6036C88.0991 40.7053 87.1054 41.6837 87.1054 42.9663C87.1054 44.2486 88.0991 45.2952 89.3327 45.3287C89.8881 45.3287 90.3599 45.1373 90.7482 44.804L90.8746 44.6877V40.874C90.6007 40.7053 90.1211 40.5363 89.3327 40.6036ZM50.1649 36.5201L47.0122 42.9325H53.1804L50.1649 36.5201Z" fill="#3E3A39"/>
<path fill-rule="evenodd" clip-rule="evenodd" d="M69.4501 32.6951C69.4501 33.695 68.6579 34.4951 67.6501 34.4951C66.6423 34.4951 65.8501 33.695 65.8501 32.6951C65.8501 31.6951 66.6423 30.8951 67.6501 30.8951C68.6579 30.8951 69.4501 31.6951 69.4501 32.6951Z" fill="#00A0E9"/>
<path fill-rule="evenodd" clip-rule="evenodd" d="M34.0362 26.6349C36.3208 26.6349 38.1685 28.544 38.1685 30.9047V44.6867C38.1685 44.6867 37.3286 44.6171 33.6331 43.3326C32.5916 42.9508 31.2143 42.4299 29.6691 41.8399C30.6096 40.1736 31.3486 38.2642 31.819 36.2161H26.7462V34.3068H32.9614V33.2653H26.7462V30.1063H24.1931C23.7563 30.1063 23.7563 30.5576 23.7563 30.5576V33.2653H17.4741V34.3068H23.7227V36.2161H18.5156V37.2576H28.5939C28.2244 38.5765 27.7204 39.8265 27.1493 40.9375C23.8906 39.8265 20.3966 38.9238 18.213 39.4792C16.8357 39.8265 15.9288 40.4862 15.3911 41.1455C12.9723 44.2005 14.7191 48.8521 19.8592 48.8521C22.8827 48.8521 25.8056 47.0818 28.0898 44.2353C31.4832 45.936 38.1685 48.8176 38.1685 48.8176V49.0951C38.1685 51.4558 36.3208 53.3651 34.0026 53.3651H16.4326C14.148 53.3651 12.3003 51.4558 12.3003 49.0607V30.9047C12.3003 28.544 14.148 26.6349 16.4326 26.6349H34.0362ZM19.421 39.9376C21.8141 39.6769 24.0718 40.645 26.7004 42.0232C24.8471 44.5931 22.4879 46.1951 20.1289 46.1951C16.0511 46.1951 14.8378 42.7683 16.8599 40.9058C17.534 40.2727 18.7472 39.9746 19.421 39.9376Z" fill="#00A0E9"/>
</svg>
