<svg width="120" height="80" viewBox="0 0 120 80" fill="none" xmlns="http://www.w3.org/2000/svg">
<rect width="120" height="80" rx="4" fill="white"/>
<path d="M110.001 42.4599H100.873C99.6666 42.4599 98.5097 41.99 97.6567 41.1536C96.8037 40.3172 96.3245 39.1828 96.3245 38H107.804C108.092 37.9998 108.378 38.0554 108.644 38.1634C108.911 38.2715 109.153 38.43 109.357 38.6298C109.561 38.8297 109.723 39.0669 109.834 39.3281C109.944 39.5893 110.001 39.8693 110.001 40.1521V42.4599Z" fill="#1677FF"/>
<path d="M87.1978 38H94.1123V42.4599H89.3976C88.8152 42.4599 88.2566 42.233 87.8448 41.8292C87.4329 41.4254 87.2016 40.8777 87.2016 40.3066V37.9951L87.1978 38Z" fill="#00B6FF"/>
<path d="M100.871 31.2032V42.4586C100.274 42.4591 99.6822 42.3442 99.13 42.1203C98.5778 41.8965 98.076 41.5681 97.6533 41.1541C97.2306 40.74 96.8952 40.2484 96.6663 39.7072C96.4374 39.166 96.3195 38.5859 96.3193 38V29.0523H98.6767C99.2585 29.0526 99.8163 29.2793 100.227 29.6826C100.639 30.0858 100.87 30.6327 100.871 31.2032Z" fill="#1677FF"/>
<path d="M100.872 44.6472V51.4076H98.5154C97.933 51.4076 97.3744 51.1807 96.9625 50.7769C96.5507 50.3731 96.3193 49.8254 96.3193 49.2543V44.6472H100.872Z" fill="#00B6FF"/>
<path d="M28.47 29.0487V47.2591H32.4899V29.0487H28.47ZM9.99951 47.2591H13.7142L14.7316 43.8163H21.1175L22.084 47.2591H26.8409L21.4227 29.6728H16.0294L9.99951 47.2591ZM15.5715 40.9477L17.9624 32.8406H18.0641L20.3284 40.9477H15.5715ZM48.3139 47.4331C51.9008 47.4331 55.1316 44.8394 55.1316 40.2239C55.1316 36.0876 52.7916 33.6144 49.8908 33.6144C48.4156 33.6144 47.2704 34.163 45.9726 35.2105V33.8881H41.954V51.5H45.9726V47.1338C46.7355 47.3376 47.5232 47.4383 48.3139 47.4331ZM64.6726 47.2591H68.6925L68.2087 43.9161V38.3285C68.2087 35.2871 66.3774 33.6144 63.1453 33.6144C61.0857 33.6144 59.6602 33.9635 57.0658 34.736L57.778 37.8042C60.144 36.7567 61.1875 36.3078 62.2805 36.3078C63.6044 36.3078 64.1888 37.2312 64.1888 38.6533V38.7531C59.5845 39.6046 58.1589 40.0742 57.2693 40.9428C56.608 41.5913 56.3276 42.5146 56.3276 43.5876C56.3276 46.1569 58.3624 47.528 60.2706 47.528C61.6962 47.528 62.8401 47.0049 64.3922 45.8577L64.6726 47.2543V47.2591ZM35.2368 33.8881V47.2591H39.2567V33.8881H35.2368ZM82.5314 33.9136L82.5575 33.8881H78.7671L76.3775 42.0207H76.2534L73.5003 33.8881H68.9977L74.4159 47.309L72.1516 51.4003V51.5H75.6889L82.5314 33.9136ZM48.3647 36.6825C49.866 36.6825 51.0608 37.854 51.0608 40.3492C51.0608 43.5426 49.3064 44.9635 47.3474 44.9635C46.8812 44.9688 46.4172 44.9015 45.9726 44.764V37.5304C46.8126 36.9562 47.5 36.6788 48.3647 36.6788V36.6825ZM60.2197 43.1934C60.2197 42.8187 60.2966 42.4441 60.6019 42.1448C61.0857 41.6715 62.0262 41.3224 64.1888 40.8236V44.0158C63.1205 44.59 62.5101 44.8139 61.7979 44.8139C60.8302 44.8139 60.2197 44.191 60.2197 43.1934Z" fill="#3E3A39"/>
<path d="M34.9377 30.6703C34.9377 31.9672 35.9042 32.8406 37.2528 32.8406C38.6015 32.8406 39.568 31.9672 39.568 30.6703C39.5618 29.3978 38.5953 28.5 37.2466 28.5C35.898 28.5 34.9377 29.3978 34.9377 30.6703Z" fill="#1677FF"/>
</svg>
