<svg width="120" height="80" viewBox="0 0 120 80" fill="none" xmlns="http://www.w3.org/2000/svg">
<g clip-path="url(#clip0_823_535)">
<rect width="120" height="80" rx="4" fill="#333E48"/>
<path fill-rule="evenodd" clip-rule="evenodd" d="M0 76H120C120 78.2091 118.209 80 116 80H4C1.79086 80 0 78.2091 0 76Z" fill="#FF9900"/>
<path d="M93.4449 50.4761C93.0037 50.3625 92.6115 50.4761 92.203 50.6383C85.0295 53.6233 77.5781 55.5376 69.849 56.4461C67.4796 56.7218 65.0938 56.9003 62.7081 56.9652C58.3615 57.0787 54.0149 56.8354 49.7009 56.2676C46.7923 55.8783 43.9 55.3429 41.0404 54.6616C34.9943 53.2177 29.1607 51.1412 23.6049 48.3672C22.1669 47.6534 20.7616 46.8584 19.3399 46.096C18.719 45.7553 18.3268 45.8526 18 46.4367V46.7124C18.1961 46.972 18.3595 47.264 18.6046 47.4911C24.4872 52.7148 31.1216 56.657 38.5402 59.3175C42.1188 60.5991 45.7955 61.54 49.5375 62.1564C51.8252 62.5296 54.1129 62.7729 56.4333 62.8865C56.9235 62.9027 57.4137 62.9189 57.9039 62.9514C58.0183 62.9514 58.1327 62.9838 58.2471 63H61.1394C61.2538 62.9838 61.3682 62.9514 61.4825 62.9514C63.9173 62.8865 66.3521 62.6593 68.7705 62.3024C72.2674 61.7833 75.6989 60.9884 79.0488 59.9177C83.8856 58.3603 88.4773 56.2838 92.6769 53.4124C93.1344 53.1042 93.6083 52.796 93.9841 52.4066C94.6868 51.6928 94.36 50.7194 93.4449 50.4761Z" fill="#FF9900"/>
<path d="M102 45.7292C101.872 45.0524 101.358 44.7945 100.781 44.6012C99.8662 44.295 98.9196 44.15 97.957 44.0694C96.1921 43.9244 94.4273 44.0049 92.6946 44.3272C90.7693 44.6817 88.9403 45.3102 87.3199 46.4382C87.1274 46.5671 86.9348 46.7282 86.8225 46.9216C86.7263 47.0666 86.7102 47.2922 86.7423 47.4695C86.7904 47.679 87.0151 47.7273 87.2236 47.7112C87.3199 47.7112 87.4162 47.7112 87.5124 47.6951L90.641 47.3567C92.1812 47.2117 93.7214 47.115 95.2616 47.2278C95.9194 47.2761 96.5612 47.4212 97.1869 47.5823C97.8767 47.7596 98.1816 48.2913 98.2137 48.9842C98.2618 50.0639 98.0211 51.0952 97.7484 52.1265C97.1869 54.2053 96.4168 56.2195 95.6146 58.2177C95.5664 58.3466 95.5023 58.4916 95.4862 58.6206C95.422 59.0234 95.6467 59.2651 96.0317 59.1846C96.2563 59.1362 96.513 59.0073 96.6735 58.8462C97.2671 58.266 97.8767 57.6859 98.3741 57.0414C100.091 54.8176 101.102 52.2716 101.695 49.5321C101.807 49.0487 101.888 48.5492 101.968 48.0657C102 47.3084 102 46.5188 102 45.7292Z" fill="#FF9900"/>
<path d="M71.4923 18.1483C71.5508 18.3986 71.624 18.6489 71.7265 18.8992C74.1417 24.8765 76.5423 30.8686 78.9721 36.8459C79.177 37.3612 79.221 37.7882 79.0014 38.3034C78.5915 39.2162 78.2841 40.1585 77.8597 41.0565C77.4791 41.8663 76.8789 42.4552 76.0007 42.7055C75.3859 42.8674 74.7565 42.8969 74.1124 42.838C73.805 42.8085 73.4977 42.7349 73.1903 42.7202C72.7804 42.6907 72.5755 42.8821 72.5608 43.3091C72.5462 43.7213 72.5462 44.1336 72.5608 44.5311C72.5755 45.2083 72.795 45.5175 73.4684 45.6352C74.1563 45.753 74.8443 45.8708 75.5469 45.8855C77.6401 45.9297 79.3088 45.0905 80.392 43.2502C80.8164 42.5288 81.2117 41.7632 81.5191 40.9829C84.4173 33.607 87.3009 26.2163 90.1845 18.8256C90.2723 18.6047 90.3455 18.3839 90.3748 18.1483C90.4334 17.795 90.2723 17.6183 89.921 17.6036C89.1013 17.5889 88.2963 17.6036 87.4766 17.6036C87.0228 17.6036 86.7008 17.8097 86.5398 18.2367C86.4812 18.3986 86.408 18.5753 86.3495 18.7372L82.0899 31.06C81.7825 31.958 81.4751 32.8414 81.1385 33.7984C81.0799 33.6658 81.0507 33.5922 81.0214 33.5186C79.4405 29.1166 77.8597 24.6998 76.2788 20.2978C76.03 19.6059 75.7665 18.8992 75.503 18.2072C75.3713 17.8391 75.1078 17.6183 74.7126 17.6183C73.7758 17.6036 72.839 17.5889 71.9021 17.6036C71.5801 17.6036 71.4191 17.8391 71.4923 18.1483Z" fill="white"/>
<path d="M53.0343 33.18C52.8587 31.8845 52.9319 30.6036 53.532 29.3816C54.2785 27.8358 55.552 26.8788 57.1329 26.3193C58.4502 25.863 59.8262 25.7746 61.2167 25.8482C62.5488 25.9218 63.8515 26.1427 65.1396 26.4519C65.1835 26.4666 65.2421 26.4666 65.3006 26.4666C65.3153 26.393 65.3299 26.3488 65.3299 26.2899C65.3153 25.2741 65.3299 24.2435 65.286 23.2276C65.2567 22.5062 65.0957 21.7995 64.6419 21.2106C64.115 20.5334 63.3685 20.2978 62.578 20.1801C61.0557 19.9592 59.5334 20.077 58.0257 20.3567C57.0597 20.5481 56.0936 20.8131 55.1421 21.0634C54.5713 21.2254 54.3224 21.0634 54.3078 20.4598C54.2932 20.0623 54.3224 19.6501 54.3078 19.2378C54.2932 18.752 54.5127 18.4281 54.9518 18.2809C55.6837 18.0306 56.401 17.7508 57.1475 17.5595C58.3039 17.2503 59.4895 17.1031 60.6898 17.0442C60.8215 17.0442 60.9386 17.0147 61.0557 17H62.5195C62.9733 17.0589 63.4124 17.1031 63.8515 17.1619C64.7883 17.2945 65.6958 17.5447 66.5156 18.0306C67.9354 18.8698 68.6087 20.1801 68.8429 21.7701C68.9161 22.3001 68.9454 22.8301 68.9454 23.3601V36.4337C68.9454 36.5368 68.9454 36.6546 68.9308 36.7723C68.9015 37.1109 68.6819 37.3318 68.3453 37.3465C67.6719 37.3612 67.0132 37.3612 66.3399 37.3465C65.9886 37.3318 65.7544 37.0815 65.6812 36.6987C65.5934 36.257 65.5348 35.8154 65.4616 35.3442C65.3738 35.4031 65.3153 35.4473 65.2567 35.4915C63.8076 36.6987 62.1682 37.4937 60.3092 37.7735C58.6991 38.009 57.1182 37.906 55.6691 37.0962C54.1468 36.2423 53.2832 34.9026 53.0343 33.18ZM58.4795 34.7112C59.1528 34.9762 59.8408 35.0056 60.5434 34.932C62.2414 34.7553 63.749 34.0928 65.125 33.0917C65.2567 33.0034 65.3153 32.9003 65.3153 32.7236C65.3006 32.1495 65.3153 31.5606 65.3153 30.9864C65.3153 30.3975 65.3006 29.8086 65.3153 29.2197C65.3153 29.0136 65.2567 28.9252 65.0518 28.8958C64.0272 28.7633 63.0172 28.5719 61.9925 28.4688C60.9679 28.3805 59.9433 28.4247 58.9479 28.7486C57.9672 29.0725 57.2353 29.6614 56.9426 30.6772C56.7084 31.4722 56.7084 32.2672 56.9572 33.0623C57.1914 33.872 57.7184 34.4167 58.4795 34.7112Z" fill="white"/>
<path d="M32 18.59C32 17.7361 32.1464 17.5742 33.01 17.5889H34.4298C35.0007 17.6036 35.2788 17.8392 35.3666 18.4134C35.4252 18.752 35.4691 19.0906 35.5277 19.4292C35.5423 19.4881 35.5716 19.5323 35.5862 19.6059C35.879 19.385 36.1571 19.1495 36.4498 18.9434C37.8404 17.9275 39.392 17.2797 41.1046 17.0736C41.2802 17.0442 41.4559 17.0294 41.6315 17H42.6562C43.0514 17.0589 43.4612 17.0883 43.8565 17.1767C46.462 17.7067 48.1892 19.3114 49.2285 21.7259C50.0774 23.684 50.297 25.7599 50.2238 27.8652C50.1653 29.7644 49.7993 31.6047 48.9503 33.3125C47.8086 35.5651 46.0814 37.1109 43.5783 37.6115C40.8118 38.1562 38.2942 37.5526 36.0985 35.7123C36.0253 35.6534 35.9522 35.5798 35.8204 35.4768V44.4133C35.8204 44.5311 35.8204 44.6636 35.8058 44.7814C35.7911 45.1347 35.5716 45.385 35.2056 45.385C34.342 45.3997 33.4784 45.3997 32.6148 45.385C32.2635 45.3703 32.0439 45.1347 32.0146 44.7667C32 44.6489 32 44.5164 32 44.3986V18.59ZM35.8058 32.5617C35.7911 32.7384 35.8643 32.8561 35.9961 32.9739C37.3866 33.9603 38.8797 34.6228 40.5923 34.6965C43.0807 34.8142 44.9836 33.7984 45.8179 31.1778C46.2131 29.9558 46.3156 28.6897 46.3156 27.4088C46.3156 26.0102 46.1985 24.641 45.7154 23.3307C44.925 21.1665 43.432 20.2684 41.6023 20.1359C39.5384 19.9887 37.694 20.5923 36.0107 21.7701C35.8643 21.8732 35.8058 21.9762 35.8058 22.1676V27.3646C35.8058 29.1019 35.8204 30.8244 35.8058 32.5617Z" fill="white"/>
</g>
<defs>
<clipPath id="clip0_823_535">
<rect width="120" height="80" rx="4" fill="white"/>
</clipPath>
</defs>
</svg>
