<svg width="120" height="80" viewBox="0 0 120 80" fill="none" xmlns="http://www.w3.org/2000/svg">
<rect width="120" height="80" rx="4" fill="white"/>
<path fill-rule="evenodd" clip-rule="evenodd" d="M38 49.4902H15.0848L18.6994 40.3489L15.2059 30.5321L30.6896 30.5098L29.7552 28H14.3052H12L16.4755 40.3489L13.353 49.4902H13.3331L12.494 52H14.091H14.0929H37.0359L38 49.4902Z" fill="#F39200"/>
<path fill-rule="evenodd" clip-rule="evenodd" d="M31.2167 38.8805C31.2167 36.3498 30.2429 33.6955 26.2434 33.6955C24.5945 33.6955 23.0008 34.1442 21.9206 34.8023L22.4607 36.3558C23.4878 35.7251 24.6797 35.3962 25.8935 35.4085C28.5674 35.3826 28.8661 37.305 28.8661 38.3321V38.5953C23.8109 38.5694 21 40.2565 21 43.3375C21 45.1822 22.3523 46.9989 25.0016 46.9989C26.5702 47.0313 28.0589 46.3254 29.0011 45.1024H29.0809L29.2712 46.7098H31.407C31.2677 45.6972 31.2042 44.6762 31.2167 43.6546V38.8805ZM28.9193 42.4102C28.9198 42.66 28.8833 42.9085 28.8109 43.1481C28.3295 44.4664 27.0296 45.3305 25.5949 45.2859C24.4063 45.2859 23.3793 44.5999 23.3793 43.0723C23.3793 40.5955 26.3252 40.1488 28.9193 40.2006V42.4142V42.4102ZM32.0862 33.9527L37.0595 46.7038H39.3303L44.4653 33.9527H41.9797L39.4388 41.098C39.0051 42.2846 38.6205 43.3375 38.3299 44.3925H38.2481C37.9781 43.3375 37.6344 42.2846 37.1945 41.098L34.6271 33.9587L32.0862 33.9527ZM54.9295 38.8805C54.9295 36.3498 53.9557 33.6955 49.9562 33.6955C48.3073 33.6955 46.7136 34.1442 45.6334 34.8023L46.1735 36.3558C47.1983 35.7241 48.3878 35.3932 49.6002 35.4025C52.2741 35.3766 52.5728 37.299 52.5728 38.3261V38.5893C47.5176 38.5634 44.7067 40.2505 44.7067 43.3316C44.7067 45.1762 46.059 46.993 48.7083 46.993C50.2769 47.0253 51.7656 46.3194 52.7078 45.0964H52.7876L52.9779 46.7038H55.1239C54.9847 45.6912 54.9211 44.6702 54.9336 43.6486V38.8805H54.9295ZM52.6321 42.4102C52.6326 42.66 52.5961 42.9085 52.5237 43.1481C52.0424 44.4664 50.7424 45.3305 49.3077 45.2859C48.1191 45.2859 47.0921 44.5999 47.0921 43.0723C47.0921 40.5955 50.038 40.1488 52.6321 40.2006V42.4142V42.4102ZM60.0154 46.7038V33.9527H57.6382V46.7038H60.0154ZM58.8268 28.9552C58.4291 28.9447 58.0445 29.094 57.7632 29.3682C57.4819 29.6425 57.3287 30.0174 57.3395 30.405C57.323 30.7823 57.4676 31.1494 57.739 31.4189C58.0104 31.6883 58.3843 31.8361 58.7716 31.8269C59.7167 31.8269 60.2834 31.1947 60.2834 30.405C60.2987 30.021 60.1509 29.6479 59.8748 29.3735C59.5988 29.0991 59.2189 28.9478 58.8247 28.9552H58.8268ZM62.8325 46.7038H65.2097V28H62.8325V46.7038ZM77.8097 38.8805C77.8097 36.3498 76.838 33.6955 72.8364 33.6955C71.1895 33.6955 69.5938 34.1442 68.5136 34.8023L69.0537 36.3558C70.0809 35.7251 71.2727 35.3962 72.4866 35.4085C75.1727 35.3766 75.4591 37.309 75.4591 38.3261V38.5893C70.404 38.5634 67.5951 40.2505 67.5951 43.3316C67.5951 45.1762 68.9453 46.993 71.5946 46.993C73.1633 47.0253 74.6519 46.3194 75.5941 45.0964H75.676L75.8642 46.7038H78C77.8618 45.6911 77.7982 44.6702 77.8097 43.6486V38.8805ZM75.5123 42.4102C75.5128 42.66 75.4763 42.9085 75.4039 43.1481C74.9231 44.4668 73.6228 45.3311 72.1879 45.2859C70.9993 45.2859 69.9723 44.5999 69.9723 43.0723C69.9723 40.5955 72.9182 40.1488 75.5123 40.2006V42.4102Z" fill="#1D1D1B"/>
<path fill-rule="evenodd" clip-rule="evenodd" d="M80.1074 43.4171C80.1074 44.5502 80.0527 45.8409 80 46.7107H82.0085L82.1423 44.628H82.195C83.1861 46.2898 84.6859 47 86.5607 47C89.4509 47 92.3978 44.7337 92.3978 40.1752C92.3978 36.327 90.1481 33.6916 86.9073 33.6916C84.8197 33.6916 83.3199 34.5874 82.4909 36.0118H82.4362V28H80.1074V43.4171ZM82.4362 39.3314C82.4364 39.0018 82.4814 38.6737 82.57 38.3558C83.0523 36.6162 84.5522 35.511 86.131 35.511C88.6746 35.511 90.0143 37.7055 90.0143 40.255C90.0143 43.1797 88.5672 45.1567 86.0783 45.1567C84.4029 45.1682 82.9394 44.044 82.5436 42.4415C82.4663 42.1669 82.4302 41.8826 82.4362 41.5976V39.3314ZM97.1142 46.7127V33.955H94.759V46.7107L97.1142 46.7127ZM95.9366 28.9576C95.5426 28.947 95.1616 29.0964 94.8829 29.3707C94.6042 29.6451 94.4524 30.0201 94.4631 30.4079C94.4467 30.7853 94.59 31.1526 94.8589 31.4221C95.1278 31.6917 95.4982 31.8395 95.8819 31.8303C96.8182 31.8303 97.3797 31.1979 97.3797 30.4079C97.3948 30.0238 97.2484 29.6505 96.9749 29.376C96.7014 29.1015 96.3251 28.9502 95.9346 28.9576H95.9366ZM100.173 46.7127H102.528V28H100.173V46.7107V46.7127ZM105.645 46.7127H108V28H105.641L105.645 46.7127Z" fill="#F39200"/>
</svg>
