<svg width="120" height="80" viewBox="0 0 120 80" fill="none" xmlns="http://www.w3.org/2000/svg">
<rect width="120" height="80" rx="4" fill="white"/>
<path d="M15.5 67.7753V54.7492H19.4669C22.3503 54.7492 24.2052 55.8471 24.2052 58.1174C24.2052 59.4014 23.6175 60.2946 22.7911 60.8156C23.9848 61.3738 24.6827 62.4532 24.6827 63.9233C24.6827 66.5472 22.7911 67.7753 19.8526 67.7753H15.5ZM18.0528 60.1643H19.9445C21.1014 60.1643 21.5974 59.5874 21.5974 58.5268C21.5974 57.3916 20.6974 57.0195 19.4853 57.0195H18.0528V60.1643ZM18.0528 65.505H19.6322C21.1749 65.505 22.0748 65.1142 22.0748 63.8861C22.0748 62.6765 21.3035 62.1741 19.8526 62.1741H18.0528V65.505ZM29.6333 67.9986C27.1172 67.9986 25.8499 66.7518 25.8499 65.077C25.8499 63.2347 27.3376 62.1554 29.5414 62.1368C30.0891 62.147 30.6353 62.1967 31.1759 62.2857V61.8391C31.1759 60.704 30.5331 60.1643 29.3027 60.1643C28.4737 60.1538 27.6506 60.3054 26.8784 60.6109L26.4193 58.6012C27.209 58.2662 28.4762 58.0429 29.5965 58.0429C32.2962 58.0429 33.6369 59.4944 33.6369 62.0066V67.1798C32.8839 67.5706 31.4698 67.9986 29.6333 67.9986ZM31.1759 65.8958V63.9047C30.7477 63.8082 30.3106 63.7583 29.872 63.7558C29.0272 63.7558 28.366 64.0908 28.366 64.9654C28.366 65.747 28.917 66.1564 29.8903 66.1564C30.333 66.171 30.7729 66.0818 31.1759 65.8958ZM35.4212 67.7753V58.8617C36.741 58.3246 38.1496 58.0467 39.5718 58.0429C42.2532 58.0429 43.7959 59.3827 43.7959 61.8577V67.7753H41.2614V62.0438C41.2614 60.7598 40.6737 60.1643 39.5534 60.1643C38.9972 60.1564 38.4458 60.2707 37.9373 60.4993V67.7753H35.4212ZM52.6528 58.6012L52.1753 60.6295C51.5192 60.3415 50.8148 60.1836 50.1 60.1643C48.6124 60.1643 47.8043 61.225 47.8043 62.9743C47.8043 64.8909 48.6491 65.8772 50.2286 65.8772C50.9335 65.8577 51.627 65.693 52.2671 65.3934L52.6712 67.459C51.8396 67.8339 50.9365 68.0182 50.0265 67.9986C46.9779 67.9986 45.2148 66.0819 45.2148 63.0486C45.2148 60.0341 46.9595 58.0429 49.8797 58.0429C50.8317 58.0382 51.7749 58.2281 52.6528 58.6012ZM58.128 67.9986C55.2997 67.9986 53.5366 66.0074 53.5366 63.0114C53.5366 60.0341 55.2997 58.0429 58.128 58.0429C60.9746 58.0429 62.701 60.0341 62.701 63.0114C62.701 66.0074 60.9746 67.9986 58.128 67.9986ZM58.128 65.8772C59.432 65.8772 60.1115 64.7793 60.1115 63.0115C60.1115 61.2622 59.432 60.1643 58.128 60.1643C56.8424 60.1643 56.1262 61.2622 56.1262 63.0115C56.1262 64.7793 56.8424 65.8772 58.128 65.8772ZM64.1676 67.7753V58.8617C65.4874 58.3246 66.896 58.0467 68.3182 58.0429C70.9996 58.0429 72.5423 59.3827 72.5423 61.8577V67.7753H70.0078V62.0438C70.0078 60.7598 69.4201 60.1643 68.2998 60.1643C67.7436 60.1564 67.1922 60.2707 66.6837 60.4993V67.7753H64.1676ZM78.258 67.9986C76.0725 67.9986 74.9523 66.789 74.9523 64.3326V60.3132H73.7034V58.2662H74.9523V56.2006L77.4866 56.0704V58.2662H79.5252V60.3132H77.4866V64.2955C77.4866 65.3748 77.9275 65.8772 78.7539 65.8772C79.0814 65.8764 79.4078 65.8389 79.7272 65.7656L79.8558 67.8312C79.3313 67.9489 78.7952 68.005 78.258 67.9986ZM84.6551 67.9986C82.139 67.9986 80.8718 66.7518 80.8718 65.077C80.8718 63.2347 82.3594 62.1554 84.5633 62.1368C85.1109 62.147 85.6571 62.1967 86.1978 62.2857V61.8391C86.1978 60.704 85.555 60.1643 84.3245 60.1643C83.4956 60.1538 82.6725 60.3054 81.9003 60.6109L81.4411 58.6012C82.2308 58.2662 83.4981 58.0429 84.6184 58.0429C87.3181 58.0429 88.6587 59.4944 88.6587 62.0066V67.1798C87.9058 67.5706 86.4916 67.9986 84.6551 67.9986ZM86.1978 65.8958V63.9047C85.7696 63.8082 85.3325 63.7583 84.8938 63.7558C84.049 63.7558 83.3879 64.0908 83.3879 64.9654C83.3879 65.747 83.9388 66.1564 84.9122 66.1564C85.3548 66.171 85.7948 66.0818 86.1978 65.8958ZM97.3299 58.6012L96.8524 60.6295C96.1964 60.3415 95.4919 60.1836 94.7771 60.1643C93.2896 60.1643 92.4814 61.225 92.4814 62.9743C92.4814 64.8909 93.3262 65.8772 94.9057 65.8772C95.6106 65.8577 96.3041 65.693 96.9442 65.3934L97.3483 67.459C96.5167 67.8339 95.6137 68.0182 94.7037 67.9986C91.655 67.9986 89.8919 66.0819 89.8919 63.0486C89.8919 60.0341 91.6367 58.0429 94.5567 58.0429C95.5088 58.0382 96.452 58.2281 97.3299 58.6012ZM102.902 67.9986C100.717 67.9986 99.5964 66.789 99.5964 64.3326V60.3132H98.3475V58.2662H99.5964V56.2006L102.131 56.0704V58.2662H104.169V60.3132H102.131V64.2955C102.131 65.3748 102.572 65.8772 103.398 65.8772C103.726 65.8764 104.052 65.8389 104.371 65.7656L104.5 67.8312C103.975 67.9489 103.439 68.005 102.902 67.9986Z" fill="#1E3764"/>
<path d="M33.1782 48.2362C46.5891 48.2362 53.2945 39.1772 60 30.1181H15.5V48.2362H33.1782Z" fill="url(#paint0_linear_823_627)"/>
<path d="M86.8218 12C73.4109 12 66.7054 21.059 60 30.1181H104.5V12H86.8218Z" fill="url(#paint1_linear_823_627)"/>
<defs>
<linearGradient id="paint0_linear_823_627" x1="24.5009" y1="40.0136" x2="57.1574" y2="28.0426" gradientUnits="userSpaceOnUse">
<stop stop-color="#005AB9"/>
<stop offset="1" stop-color="#1E3764"/>
</linearGradient>
<linearGradient id="paint1_linear_823_627" x1="62.6944" y1="31.6895" x2="97.3534" y2="20.0193" gradientUnits="userSpaceOnUse">
<stop stop-color="#FBA900"/>
<stop offset="1" stop-color="#FFD800"/>
</linearGradient>
</defs>
</svg>
