<svg width="120" height="80" viewBox="0 0 120 80" fill="none" xmlns="http://www.w3.org/2000/svg">
<rect width="120" height="80" rx="4" fill="white"/>
<path fill-rule="evenodd" clip-rule="evenodd" d="M19.7574 33.777C20.4245 33.9558 21.0466 33.7969 21.147 33.4223C21.2474 33.0476 20.788 32.599 20.1209 32.4202C19.4539 32.2415 18.8317 32.4003 18.7313 32.775C18.6309 33.1496 19.0903 33.5983 19.7574 33.777ZM22.613 34.1667C23.211 34.4584 23.8281 34.4237 23.9912 34.0893C24.1543 33.7548 23.8017 33.2472 23.2037 32.9555C22.6056 32.6639 21.9886 32.6985 21.8255 33.033C21.6623 33.3674 22.0149 33.875 22.613 34.1667ZM25.1649 34.6596C25.6594 35.0459 26.2208 35.1537 26.4189 34.9002C26.6169 34.6467 26.3766 34.128 25.8821 33.7417C25.3875 33.3553 24.8261 33.2476 24.6281 33.5011C24.43 33.7545 24.6704 34.2732 25.1649 34.6596ZM28.5211 40.0016C28.8275 40.6029 29.3264 40.9627 29.6355 40.8052C29.9446 40.6477 29.9468 40.0326 29.6404 39.4313C29.334 38.83 28.8351 38.4702 28.526 38.6277C28.217 38.7852 28.2148 39.4003 28.5211 40.0016ZM27.3534 35.2771C27.7749 35.6985 28.2738 35.8829 28.4678 35.6889C28.6618 35.4949 28.4774 34.996 28.0559 34.5745C27.6345 34.1531 27.1356 33.9687 26.9416 34.1627C26.7476 34.3567 26.932 34.8556 27.3534 35.2771ZM25.7396 36.8794C26.228 37.3678 26.839 37.5485 27.1043 37.2832C27.3697 37.0178 27.1889 36.4068 26.7006 35.9185C26.2122 35.4302 25.6012 35.2494 25.3359 35.5147C25.0705 35.7801 25.2513 36.3911 25.7396 36.8794ZM27.9901 37.4779C28.3765 37.9724 28.8891 38.2174 29.1351 38.0252C29.3811 37.833 29.2674 37.2763 28.881 36.7818C28.4946 36.2873 27.982 36.0422 27.736 36.2344C27.49 36.4266 27.6037 36.9833 27.9901 37.4779ZM26.1891 39.5637C26.5735 40.1788 27.1929 40.485 27.5727 40.2477C27.9524 40.0104 27.9487 39.3194 27.5643 38.7044C27.18 38.0893 26.5606 37.783 26.1808 38.0203C25.801 38.2576 25.8048 38.9486 26.1891 39.5637ZM28.8563 42.8797C29.0218 43.5437 29.4636 44.0053 29.843 43.9107C30.2225 43.8161 30.3958 43.2011 30.2303 42.5371C30.0647 41.8732 29.6229 41.4116 29.2435 41.5062C28.8641 41.6008 28.6907 42.2157 28.8563 42.8797ZM23.0316 36.4373C23.6382 36.8465 24.3329 36.8772 24.5833 36.5059C24.8337 36.1347 24.545 35.5021 23.9384 35.093C23.3319 34.6838 22.6372 34.6531 22.3868 35.0244C22.1364 35.3956 22.4251 36.0282 23.0316 36.4373Z" fill="url(#paint0_linear_823_657)"/>
<path fill-rule="evenodd" clip-rule="evenodd" d="M16.7472 47.6532C17.7122 47.6532 18.4945 46.8709 18.4945 45.906C18.4945 44.941 17.7122 44.1587 16.7472 44.1587C15.7823 44.1587 15 44.941 15 45.906C15 46.8709 15.7823 47.6532 16.7472 47.6532ZM16.7358 43.1766C17.6693 43.1766 18.426 42.471 18.426 41.6007C18.426 40.7303 17.6693 40.0247 16.7358 40.0247C15.8024 40.0247 15.0457 40.7303 15.0457 41.6007C15.0457 42.471 15.8024 43.1766 16.7358 43.1766ZM16.7415 39.1911C17.6087 39.1911 18.3118 38.6287 18.3118 37.9349C18.3118 37.2411 17.6087 36.6787 16.7415 36.6787C15.8743 36.6787 15.1713 37.2411 15.1713 37.9349C15.1713 38.6287 15.8743 39.1911 16.7415 39.1911ZM16.7301 36.0506C17.509 36.0506 18.1405 35.6186 18.1405 35.0856C18.1405 34.5527 17.509 34.1207 16.7301 34.1207C15.9512 34.1207 15.3198 34.5527 15.3198 35.0856C15.3198 35.6186 15.9512 36.0506 16.7301 36.0506ZM19.9031 42.7387C20.5475 43.3832 21.5309 43.4446 22.0995 42.876C22.6681 42.3074 22.6066 41.324 21.9622 40.6796C21.3178 40.0352 20.3344 39.9737 19.7658 40.5423C19.1972 41.1109 19.2586 42.0943 19.9031 42.7387ZM20.019 39.1446C20.7509 39.5672 21.6127 39.4448 21.9438 38.8713C22.2749 38.2978 21.95 37.4903 21.2181 37.0678C20.4862 36.6452 19.6244 36.7676 19.2933 37.3411C18.9622 37.9146 19.2871 38.7221 20.019 39.1446ZM23.4857 42.5999C23.9083 43.3318 24.7158 43.6567 25.2893 43.3256C25.8628 42.9945 25.9852 42.1327 25.5626 41.4008C25.14 40.6689 24.3326 40.344 23.759 40.6751C23.1855 41.0062 23.0632 41.868 23.4857 42.5999ZM21.0297 47.6075C21.9064 47.6075 22.6171 46.8457 22.6171 45.906C22.6171 44.9662 21.9064 44.2044 21.0297 44.2044C20.153 44.2044 19.4423 44.9662 19.4423 45.906C19.4423 46.8457 20.153 47.6075 21.0297 47.6075ZM24.6955 47.4591C25.3892 47.4591 25.9517 46.7561 25.9517 45.8888C25.9517 45.0216 25.3892 44.3186 24.6955 44.3186C24.0017 44.3186 23.4393 45.0216 23.4393 45.8888C23.4393 46.7561 24.0017 47.4591 24.6955 47.4591ZM27.5447 47.322C28.0777 47.322 28.5097 46.6829 28.5097 45.8946C28.5097 45.1062 28.0777 44.4671 27.5447 44.4671C27.0118 44.4671 26.5797 45.1062 26.5797 45.8946C26.5797 46.6829 27.0118 47.322 27.5447 47.322Z" fill="url(#paint1_linear_823_657)"/>
<path fill-rule="evenodd" clip-rule="evenodd" d="M91.7642 33.4697L94.9731 41.7834L94.0824 46.6483L97.6682 46.6711L98.5818 41.8519L105 33.4697L100.797 33.4469L98.0337 37.4895C98.0337 37.4895 97.4855 38.4488 97.3028 38.8599C97.2 38.8656 97.1829 38.8599 97.1829 38.8599C97.1829 38.8599 97.0801 37.8321 96.8346 37.0784C96.5891 36.3247 95.6583 33.4869 95.6583 33.4869L91.7642 33.4697Z" fill="url(#paint2_linear_823_657)"/>
<path fill-rule="evenodd" clip-rule="evenodd" d="M84.9696 33.4698L77.5466 46.6712H81.3609L82.7998 43.9532H87.619L87.9616 46.6712H91.5931L89.5375 33.4926L84.9696 33.4698ZM86.7282 36.1649H86.6368C86.6368 36.1649 85.5862 38.643 85.335 39.0769C85.0837 39.5109 84.2044 41.3838 84.2044 41.3838L87.2878 41.3952L86.8538 37.9578C86.8538 37.9578 86.7511 36.9757 86.7511 36.7245L86.7282 36.1649Z" fill="url(#paint3_linear_823_657)"/>
<path fill-rule="evenodd" clip-rule="evenodd" d="M71.4028 33.4698L68.8904 46.6483L72.4305 46.6712L73.2985 42.2174C73.2985 42.2174 75.4454 42.2174 76.1991 42.1946C76.9528 42.1717 78.5973 41.7378 79.3053 41.0983C80.0133 40.4587 80.9041 39.3168 81.0183 37.5809C81.0411 37.1241 81.2924 35.4797 80.0133 34.4519C78.7343 33.4241 77.067 33.4926 77.067 33.4926L71.4028 33.4698ZM74.4519 36.1649L73.8123 39.4995L75.708 39.5109C75.708 39.5109 76.7929 39.5566 77.2497 38.7572C77.7065 37.9578 77.5238 37.1584 77.5238 37.1584C77.5238 37.1584 77.4439 36.576 76.9528 36.3248C76.4618 36.0735 75.2284 36.1649 75.2284 36.1649H74.4519Z" fill="url(#paint4_linear_823_657)"/>
<path fill-rule="evenodd" clip-rule="evenodd" d="M65.8756 43.8847V33.4698H62.1755V45.3008V46.7168H67.817L68.3651 43.8847H65.8756Z" fill="url(#paint5_linear_823_657)"/>
<path fill-rule="evenodd" clip-rule="evenodd" d="M56.6937 43.8847V33.4698H52.9937V45.3008V46.7168H61.5357V43.8847H56.6937Z" fill="url(#paint6_linear_823_657)"/>
<path d="M51.2464 33.4698H47.5464V46.7168H51.2464V33.4698Z" fill="url(#paint7_linear_823_657)"/>
<path fill-rule="evenodd" clip-rule="evenodd" d="M35.5901 33.4698V46.7172H41.4371C41.4371 46.7172 44.0865 46.6825 45.2285 45.5862C46.3704 44.4899 46.2106 43.0168 46.2106 43.0168C46.2106 43.0168 46.1877 41.6693 45.4569 40.8927C44.726 40.1162 43.4013 39.9106 43.4013 39.9106L43.4127 39.8249C43.4127 39.8249 45.3427 39.4481 45.6567 37.9978C45.8565 37.4039 45.828 36.8101 45.828 36.8101C45.828 36.8101 45.9022 35.4968 45.0629 34.6289C44.2235 33.761 43.0758 33.6354 42.8246 33.584C42.5733 33.5326 41.7854 33.4812 41.4884 33.4755C41.1915 33.4698 35.5901 33.4698 35.5901 33.4698ZM39.0731 36.0621L39.0617 38.6201L41.0031 38.6316C41.0031 38.6316 42.088 38.6487 42.2993 37.9178C42.5105 37.187 42.265 36.5817 42.265 36.5817C42.265 36.5817 42.1108 36.2562 41.7054 36.1535C41.3 36.0507 40.9517 36.0735 40.9517 36.0735L39.0731 36.0621ZM39.063 41.2467L39.0503 44.1003L41.1246 44.1131C41.1246 44.1131 42.3349 44.1322 42.5705 43.3169C42.6467 43.0534 42.699 42.994 42.7001 42.5771C42.7012 42.1603 42.5323 41.8264 42.5323 41.8264C42.5323 41.8264 42.3603 41.4633 41.9081 41.3486C41.4559 41.234 41.0673 41.2595 41.0673 41.2595L39.063 41.2467Z" fill="url(#paint8_linear_823_657)"/>
<defs>
<linearGradient id="paint0_linear_823_657" x1="143.343" y1="120.661" x2="1120.94" y2="1084.44" gradientUnits="userSpaceOnUse">
<stop stop-color="#4B8BD2"/>
<stop offset="1" stop-color="#3765BA"/>
</linearGradient>
<linearGradient id="paint1_linear_823_657" x1="177.519" y1="127.764" x2="1275.71" y2="1240.49" gradientUnits="userSpaceOnUse">
<stop stop-color="#7B797A"/>
<stop offset="1" stop-color="#4E4C4D"/>
</linearGradient>
<linearGradient id="paint2_linear_823_657" x1="753.546" y1="33.4469" x2="753.546" y2="1355.87" gradientUnits="userSpaceOnUse">
<stop stop-color="#4A8AD1"/>
<stop offset="1" stop-color="#3C62AD"/>
</linearGradient>
<linearGradient id="paint3_linear_823_657" x1="779.869" y1="33.4698" x2="779.869" y2="1353.61" gradientUnits="userSpaceOnUse">
<stop stop-color="#4A8AD1"/>
<stop offset="1" stop-color="#3C62AD"/>
</linearGradient>
<linearGradient id="paint4_linear_823_657" x1="677.023" y1="33.4698" x2="677.023" y2="1353.61" gradientUnits="userSpaceOnUse">
<stop stop-color="#4A8AD1"/>
<stop offset="1" stop-color="#3C62AD"/>
</linearGradient>
<linearGradient id="paint5_linear_823_657" x1="371.654" y1="33.4698" x2="371.654" y2="1358.17" gradientUnits="userSpaceOnUse">
<stop stop-color="#7A7879"/>
<stop offset="1" stop-color="#4E4C4D"/>
</linearGradient>
<linearGradient id="paint6_linear_823_657" x1="480.097" y1="33.4698" x2="480.097" y2="1358.17" gradientUnits="userSpaceOnUse">
<stop stop-color="#7A7879"/>
<stop offset="1" stop-color="#4E4C4D"/>
</linearGradient>
<linearGradient id="paint7_linear_823_657" x1="232.548" y1="33.4698" x2="232.548" y2="1358.17" gradientUnits="userSpaceOnUse">
<stop stop-color="#7A7879"/>
<stop offset="1" stop-color="#4E4C4D"/>
</linearGradient>
<linearGradient id="paint8_linear_823_657" x1="566.997" y1="33.4698" x2="566.997" y2="1358.21" gradientUnits="userSpaceOnUse">
<stop stop-color="#7A7879"/>
<stop offset="1" stop-color="#4E4C4D"/>
</linearGradient>
</defs>
</svg>
