<svg width="120" height="80" viewBox="0 0 120 80" fill="none" xmlns="http://www.w3.org/2000/svg">
<rect width="120" height="80" rx="4" fill="white"/>
<path fill-rule="evenodd" clip-rule="evenodd" d="M104.409 46.7718C104.409 43.6772 102.069 41.3935 99.0217 41.3935C96.0602 41.3935 93.6348 43.5921 93.6348 46.7718C93.6563 49.3327 95.4162 52.1501 99.086 52.1501C102.22 52.1501 104.409 49.6957 104.409 46.7718ZM104.945 52.4274H104.344V49.61H104.301C103.314 51.5313 101.426 52.7046 99.0217 52.7046C95.2877 52.7046 93.0337 49.8236 93.0337 46.7718C93.0337 43.6557 95.3519 40.839 99.0217 40.839C101.769 40.839 103.743 42.5246 104.301 43.9973H104.344V36.6346H104.945V52.4274Z" fill="#EB4D1F"/>
<path fill-rule="evenodd" clip-rule="evenodd" d="M88.3727 43.1654H88.4155C89.4465 41.0311 91.3992 40.9032 92.3866 40.8389V41.4155C91.699 41.4369 90.9272 41.4791 89.897 42.2051C88.5447 43.4212 88.3727 44.7445 88.3727 46.3022V52.4273H87.7722V41.1168H88.3727V43.1654Z" fill="#EB4D1F"/>
<path fill-rule="evenodd" clip-rule="evenodd" d="M83.4596 46.7718C83.4596 43.6771 81.12 41.3935 78.0727 41.3935C75.1112 41.3935 72.6859 43.5921 72.6859 46.7718C72.7073 49.3327 74.4672 52.1501 78.137 52.1501C81.2706 52.1501 83.4596 49.6957 83.4596 46.7718ZM83.9965 52.4274H83.3953V49.61H83.3518C82.3651 51.5313 80.4767 52.7046 78.0727 52.7046C74.3387 52.7046 72.0847 49.8236 72.0847 46.7718C72.0847 43.6557 74.403 40.839 78.0727 40.839C80.8201 40.839 82.7942 42.5246 83.3518 43.9973H83.3953V41.1162H83.9965V52.4274Z" fill="#EB4D1F"/>
<path fill-rule="evenodd" clip-rule="evenodd" d="M70.0042 48.8636C69.2103 51.1687 67.0641 52.6621 64.3596 52.7049C61.0547 52.7049 58.3716 50.3148 58.3716 46.7721V46.7936C58.3716 43.4424 60.9047 40.8393 64.3596 40.8393C66.6778 40.8393 69.1246 42.1198 70.0256 44.7871H69.3602C68.4799 42.2905 66.0981 41.3724 64.381 41.3938C62.7717 41.4152 61.7201 41.8632 60.5399 42.9093C59.6167 43.7418 58.9727 45.2352 58.9727 46.7721C58.9727 49.9733 61.4623 52.1504 64.3596 52.1504C66.9356 52.129 68.7805 50.5492 69.3388 48.8636H70.0042Z" fill="#EB4D1F"/>
<path fill-rule="evenodd" clip-rule="evenodd" d="M45.3395 43.1056H45.383C46.1058 41.4283 48.2084 40.5571 50.0478 40.6007C51.5368 40.6007 52.7633 40.9927 53.6837 41.7553C54.8225 42.7136 55.3697 44.2602 55.3697 46.3289V52.4276H54.7568V46.3289C54.7568 44.3252 54.2089 43.0406 53.3334 42.2559C52.4351 41.4504 51.2307 41.1669 50.0478 41.1669C47.1353 41.2105 45.3395 42.8878 45.3395 45.7847V52.4276H44.7266V40.8841H45.3395V43.1056Z" fill="#EB4D1F"/>
<path fill-rule="evenodd" clip-rule="evenodd" d="M35.552 52.1444C38.6835 52.1444 41.0487 49.7923 41.0487 46.6555C41.0487 43.5193 38.6835 41.1672 35.552 41.1672C32.4205 41.1672 30.0552 43.5193 30.0552 46.6555C30.0552 49.7923 32.4205 52.1444 35.552 52.1444ZM35.552 40.601C39.0338 40.601 41.6623 43.2144 41.6623 46.6555C41.6623 50.1186 39.0338 52.7107 35.552 52.7107C32.0701 52.7107 29.4417 50.1186 29.4417 46.6555C29.4417 43.2144 32.0701 40.601 35.552 40.601Z" fill="#EB4D1F"/>
<path fill-rule="evenodd" clip-rule="evenodd" d="M26.5964 46.6558C26.5964 43.4104 24.1213 41.1675 21.0996 41.1675C17.9895 41.1675 15.6022 43.4975 15.6022 46.6558C15.6022 49.6398 17.8361 52.1447 21.034 52.1447C24.7784 52.1447 26.5742 49.2692 26.5964 46.6558ZM15.0549 36.3105H15.6678V43.8245H15.7121C16.5226 42.1472 18.2963 40.6441 21.0996 40.6006C24.844 40.6006 27.2093 43.4761 27.2093 46.6558C27.2093 49.7705 24.9097 52.711 21.0996 52.711C18.6466 52.711 16.7195 51.5128 15.7121 49.5527H15.6678V52.4275H15.0549V36.3105Z" fill="#EB4D1F"/>
<path fill-rule="evenodd" clip-rule="evenodd" d="M33.824 33.4747C33.6589 33.3399 33.531 32.2883 34.3084 31.7262C35.0844 31.1641 36.1229 31.2996 36.8609 31.1122C37.5995 30.9249 39.3228 30.1636 40.0504 29.9106C41.7129 29.3326 43.553 29.2081 43.553 29.2081C43.553 29.2081 41.4773 29.4681 40.2232 29.9569C38.9684 30.4457 37.4275 31.0811 36.7469 31.8776C36.0656 32.6734 36.702 34.4219 36.1927 35.9208C35.6834 37.4191 34.2193 39.0425 32.563 39.4331C32.563 39.4331 33.8841 38.8192 34.2635 38.2315C34.8937 37.2525 34.7029 36.6178 34.5502 35.7646C34.3968 34.9107 34.989 33.9849 34.989 33.9849C34.989 33.9849 34.5115 34.0161 34.1108 34.7185C33.9408 33.6178 35.0084 33.1318 35.3711 33.0011C35.7346 32.8711 36.1678 32.345 35.9059 31.955C35.4789 31.3203 33.6962 31.9758 33.824 33.4747Z" fill="#272525"/>
<path fill-rule="evenodd" clip-rule="evenodd" d="M32.3334 38.0528C32.3334 38.0528 33.2096 37.3138 32.9871 35.9137C32.6637 33.8789 30.2584 33.0285 30.9563 32.8584C31.8276 32.6448 33.1957 34.7618 33.4037 34.0455C33.8231 32.6081 30.957 30.7773 29.5819 30.1233C27.6106 29.1865 22.0544 27.1344 22.1048 27.2983C22.44 28.3768 24.1322 28.513 27.0951 29.5418C27.9726 29.8467 29.9778 30.6446 30.0608 30.7379C30.1437 30.8313 28.2691 30.0376 27.0723 29.6234C25.4188 29.0502 23.7853 28.5435 23.8454 28.7135C24.1418 29.5584 25.682 29.8958 27.8482 30.4842C28.5157 30.6653 29.944 31.0428 30.0103 31.1217C30.0773 31.2005 28.4922 30.7303 27.8579 30.5582C26.1229 30.086 25.0657 29.7776 25.1686 30.0583C25.4941 30.9481 26.8671 31.0421 28.6532 31.4196C29.0671 31.5068 29.8942 31.6644 29.9516 31.7411C30.0089 31.8172 29.1376 31.5994 28.6297 31.4992C27.7563 31.327 26.9064 31.1949 27.2257 31.6139C27.7301 32.2735 28.0016 32.4429 28.846 32.7554C32.321 34.0407 32.721 35.2472 32.8744 36.007C33.1128 37.1948 32.3334 38.0528 32.3334 38.0528Z" fill="#272525"/>
<path fill-rule="evenodd" clip-rule="evenodd" d="M34.8494 32.3742C34.8494 32.5677 35.0062 32.7247 35.1997 32.7247C35.3932 32.7247 35.55 32.5677 35.55 32.3742C35.55 32.1806 35.3932 32.0236 35.1997 32.0236C35.0062 32.0236 34.8494 32.1806 34.8494 32.3742Z" fill="#272525"/>
<path fill-rule="evenodd" clip-rule="evenodd" d="M34.9131 32.2851C34.9131 32.366 34.9787 32.4316 35.0596 32.4316C35.1404 32.4316 35.2054 32.366 35.2054 32.2851C35.2054 32.2042 35.1404 32.1385 35.0596 32.1385C34.9787 32.1385 34.9131 32.2042 34.9131 32.2851Z" fill="white"/>
<path fill-rule="evenodd" clip-rule="evenodd" d="M34.9131 32.2851C34.9131 32.366 34.9787 32.4316 35.0596 32.4316C35.1404 32.4316 35.2054 32.366 35.2054 32.2851C35.2054 32.2042 35.1404 32.1385 35.0596 32.1385C34.9787 32.1385 34.9131 32.2042 34.9131 32.2851Z" stroke="#272525" stroke-width="0.45"/>
<path fill-rule="evenodd" clip-rule="evenodd" d="M33.0587 37.4807C33.0587 37.4807 32.9758 38.58 32.2019 39.5776C31.6222 40.325 31.0832 40.3534 30.444 41.1091C29.8049 41.8655 29.7088 42.6571 29.7088 42.6571C29.6736 42.0791 29.9472 41.0793 30.4827 40.2469C30.9277 39.5534 31.4114 39.3156 31.4114 39.3156C31.0106 39.2257 30.5587 39.5403 30.5587 39.5403C30.5587 39.5403 30.6133 39.1089 31.3389 38.7722C32.1231 38.4078 32.5273 38.5288 33.0587 37.4807Z" fill="#272525"/>
</svg>
