<svg width="120" height="80" viewBox="0 0 120 80" fill="none" xmlns="http://www.w3.org/2000/svg">
<rect width="120" height="80" rx="4" fill="white"/>
<path d="M15 54.8717V38.5639H15.6171V46.1677H15.6612C16.7185 44.074 18.6583 42.9061 21.0823 42.9061C24.6744 42.9061 27.2307 45.6396 27.2307 49.0325C27.2307 52.4703 24.6083 55.159 21.0823 55.159C18.592 55.159 16.6968 53.9689 15.6612 51.9636H15.6171V54.8725L15 54.8717ZM21.0602 43.4783C18.019 43.4783 15.5506 45.8142 15.5506 49.0317C15.5506 52.0951 17.8867 54.5852 21.0161 54.5852C24.4098 54.5852 26.6136 52.0729 26.6136 49.0317C26.6139 45.7701 24.1235 43.4783 21.0602 43.4783Z" fill="black"/>
<path d="M35.2964 55.1582C31.7923 55.1582 29.1481 52.5136 29.1481 49.0317C29.1481 45.5277 31.8364 42.9053 35.2964 42.9053C38.8224 42.9053 41.445 45.594 41.445 49.0317C41.445 52.5358 38.8005 55.1582 35.2964 55.1582ZM40.8279 49.0317C40.8279 45.8805 38.4699 43.4783 35.2745 43.4783C32.1451 43.4783 29.7652 45.8805 29.7652 49.0317C29.7652 52.1611 32.1229 54.5852 35.2964 54.5852C38.4699 54.5852 40.8279 52.183 40.8279 49.0317Z" fill="black"/>
<path d="M54.2926 54.8717V48.5918C54.2926 45.2652 52.6164 43.4791 49.5546 43.4791C46.5794 43.4791 44.8163 45.286 44.8163 48.107V54.8725H44.1995V43.1918H44.8163V45.4397H44.8604C45.6317 43.7648 47.571 42.9053 49.4883 42.9053C53.0806 42.9053 54.9097 45.0199 54.9097 48.5028V54.8725L54.2926 54.8717Z" fill="black"/>
<path d="M69.5645 51.1915C68.6828 53.7257 66.413 55.1582 63.7684 55.1582C60.287 55.1582 57.62 52.5794 57.62 49.0537C57.62 45.594 60.2424 42.9053 63.7684 42.9053C66.2807 42.9053 68.7491 44.4038 69.5864 46.9824H68.9033C68.0657 44.713 66.0604 43.4783 63.7457 43.4783C60.6604 43.4783 58.2364 45.8142 58.2364 49.0317C58.2364 52.2271 60.7045 54.5852 63.7676 54.5852C66.1038 54.5852 68.1753 53.2184 68.8803 51.1915H69.5645Z" fill="black"/>
<path d="M82.9848 54.8717V51.9628H82.9407C81.8834 53.9903 80.0099 55.1582 77.5196 55.1582C73.9276 55.1582 71.3712 52.4247 71.3712 49.0317C71.3712 45.6388 73.95 42.9053 77.5196 42.9053C79.8335 42.9053 82.1475 44.2055 82.9407 46.167H82.9848V43.1918H83.6019V54.8717H82.9848ZM83.0511 49.0317C83.0511 45.9024 80.693 43.4783 77.4976 43.4783C74.4565 43.4783 71.9883 45.7923 71.9883 49.0317C71.9883 52.051 74.17 54.5852 77.5858 54.5852C80.715 54.5852 83.0511 52.117 83.0511 49.0317Z" fill="black"/>
<path d="M87.1498 54.8717V43.1918H87.7669V45.3064H87.811C88.4942 43.8739 89.7503 42.9925 91.8878 42.9043V43.4992C89.0452 43.5433 87.7669 45.6138 87.7669 48.1926V54.8699L87.1498 54.8717Z" fill="black"/>
<path d="M104.383 54.8717V51.9628H104.339C103.303 53.9681 101.408 55.1582 98.9176 55.1582C95.3256 55.1582 92.769 52.4476 92.769 49.0317C92.769 45.638 95.3256 42.9053 98.9176 42.9053C101.276 42.9053 103.546 44.2277 104.339 46.167H104.383V38.5639H105V54.8717H104.383ZM104.449 49.0317C104.449 45.9024 102.091 43.4783 98.8955 43.4783C95.8984 43.4783 93.3861 45.7476 93.3861 49.0317C93.3861 52.0729 95.59 54.5852 98.9837 54.5852C102.113 54.5852 104.449 52.117 104.449 49.0317Z" fill="black"/>
<path d="M46.1003 27.7502C45.1536 27.8967 43.9124 28.1453 42.7344 28.5546C42.2187 28.7338 41.3499 29.0933 40.4795 29.4409C39.6092 29.7885 38.7363 30.1245 38.2128 30.2566C37.6893 30.3886 37.0601 30.4077 36.4236 30.4923C35.7872 30.5768 35.1443 30.7285 34.5927 31.1264C34.0411 31.5243 33.8118 32.0958 33.7486 32.5917C33.6854 33.0876 33.7894 33.5079 33.9067 33.6036C33.8162 32.5419 34.4029 31.7788 35.0875 31.3936C35.7722 31.0083 36.5554 31.0011 36.8579 31.4508C37.0436 31.727 36.9827 32.0511 36.8112 32.3297C36.6397 32.6082 36.3573 32.8405 36.1002 32.9326C35.8431 33.0246 35.3369 33.2441 34.9243 33.6348C34.5117 34.0255 34.1937 34.5869 34.3152 35.3664C34.5989 34.869 34.9106 34.6091 35.1507 34.4734C35.3908 34.3378 35.5602 34.3267 35.5602 34.3267C35.4043 34.5831 35.2724 34.8534 35.1662 35.1341C34.9834 35.6132 34.8278 36.243 34.9362 36.8482C35.0445 37.4535 35.1662 37.9795 35.1492 38.5288C35.1321 39.0781 34.9764 39.6496 34.5303 40.3427C34.2615 40.7595 33.6591 41.185 33.1238 41.5066C32.5884 41.8281 32.1204 42.0453 32.1204 42.0453C33.294 41.7688 34.3995 41.0558 35.3023 40.1462C36.2052 39.2367 36.9046 38.1307 37.2656 37.0692C37.6266 36.0078 37.5815 34.8576 37.5668 33.8318C37.5521 32.806 37.5668 31.9049 38.0508 31.3412C38.5349 30.7775 39.3206 30.27 40.2098 29.8182C41.099 29.3664 42.0892 28.9672 42.9789 28.6213C43.8686 28.2755 45.0476 28.0097 46.0054 27.8307C46.9631 27.6517 47.6986 27.5599 47.6986 27.5599C47.6986 27.5599 47.0464 27.6038 46.1003 27.7502Z" fill="black"/>
<path d="M31.7947 40.0898C31.7947 40.0898 32.1041 39.8283 32.3762 39.3185C32.6483 38.8086 32.8788 38.0515 32.7212 37.0597C32.4922 35.6181 31.5249 34.5964 30.7389 33.9048C29.9529 33.2131 29.3464 32.8513 29.842 32.7304C30.4609 32.5795 31.2534 33.2539 31.9308 33.8393C32.6083 34.4247 33.1658 34.9203 33.3136 34.4128C33.6109 33.3947 32.7437 32.2373 31.5585 31.2185C30.3732 30.1996 28.8688 29.3192 27.894 28.856C26.497 28.1935 23.8293 27.1339 21.52 26.2703C19.2107 25.4066 17.2595 24.7379 17.2951 24.8542C17.5324 25.6178 18.2506 26.0482 19.4355 26.4696C20.6205 26.891 22.2691 27.3038 24.369 28.0321C24.9913 28.2479 26.0128 28.6389 26.8937 28.9919C27.7746 29.345 28.5144 29.6611 28.5732 29.7274C28.632 29.7937 27.9969 29.5453 27.135 29.2072C26.2732 28.8692 25.1862 28.4413 24.3365 28.1476C23.1647 27.742 21.9999 27.3595 21.1388 27.1086C20.2778 26.8577 19.7205 26.7383 19.7625 26.8585C19.973 27.4573 20.6238 27.8763 21.6061 28.2495C22.5884 28.6226 23.9012 28.9504 25.4372 29.3669C25.9101 29.4958 26.6526 29.6934 27.2887 29.8731C27.9249 30.0528 28.4544 30.2145 28.5008 30.2702C28.5472 30.3259 28.0108 30.1877 27.3483 30.0049C26.6858 29.822 25.8995 29.5943 25.4495 29.4721C24.2197 29.1368 23.2305 28.8612 22.5667 28.718C21.9029 28.5749 21.5648 28.5651 21.6383 28.7637C21.8691 29.3942 22.4713 29.7436 23.3318 30.0015C24.1924 30.2594 25.3118 30.4252 26.5788 30.6926C26.872 30.7545 27.3119 30.8414 27.6877 30.926C28.0634 31.0106 28.378 31.0936 28.4188 31.148C28.4595 31.2025 28.1707 31.1519 27.7821 31.0707C27.3934 30.9895 26.9053 30.877 26.5442 30.8058C25.9253 30.6836 25.3139 30.5758 24.9144 30.5738C24.515 30.5717 24.3272 30.6723 24.5534 30.9691C24.9116 31.4353 25.1862 31.7288 25.5215 31.9609C25.8567 32.193 26.2521 32.3637 26.8503 32.5852C29.3139 33.4955 30.6873 34.378 31.4718 35.1676C32.2563 35.9572 32.4517 36.6535 32.5608 37.192C32.7303 38.0332 32.5387 38.7578 32.3045 39.272C32.0703 39.7862 31.7947 40.0898 31.7947 40.0898Z" fill="black"/>
<path d="M36.2085 31.6942C36.1273 31.6131 36.0205 31.5626 35.9063 31.5514C35.7921 31.5402 35.6775 31.5689 35.5821 31.6327C35.4866 31.6965 35.4163 31.7914 35.383 31.9013C35.3497 32.0111 35.3555 32.1291 35.3995 32.2351C35.4434 32.3412 35.5227 32.4287 35.624 32.4828C35.7252 32.5369 35.8421 32.5542 35.9546 32.5318C36.0672 32.5094 36.1685 32.4487 36.2414 32.36C36.3142 32.2712 36.354 32.16 36.354 32.0452C36.3541 31.98 36.3413 31.9154 36.3163 31.8552C36.2914 31.795 36.2547 31.7403 36.2085 31.6942ZM35.8661 31.9186C35.8661 31.9735 35.8442 32.0263 35.8054 32.0651C35.7665 32.104 35.7138 32.1258 35.6589 32.1258C35.6039 32.1258 35.5512 32.104 35.5123 32.0651C35.4735 32.0263 35.4517 31.9735 35.4517 31.9186C35.4516 31.9067 35.4527 31.8949 35.4548 31.8833C35.4526 31.8748 35.4516 31.8662 35.4517 31.8575C35.4528 31.8367 35.4589 31.8165 35.4694 31.7985C35.48 31.7806 35.4947 31.7654 35.5123 31.7543C35.548 31.7305 35.5893 31.7164 35.6322 31.7133C35.6499 31.7106 35.6679 31.7106 35.6856 31.7133C35.7285 31.7163 35.7699 31.7305 35.8057 31.7543C35.8234 31.7654 35.8381 31.7805 35.8486 31.7985C35.8591 31.8164 35.8651 31.8367 35.8661 31.8575C35.8661 31.8662 35.8651 31.8748 35.863 31.8833C35.8651 31.8949 35.8661 31.9067 35.8661 31.9186Z" fill="black"/>
<path d="M35.6322 31.7133C35.5893 31.7164 35.548 31.7305 35.5123 31.7543C35.4947 31.7654 35.48 31.7803 35.4694 31.7983C35.4589 31.8162 35.4528 31.8367 35.4517 31.8575C35.4516 31.8662 35.4526 31.8748 35.4548 31.8833C35.4621 31.8396 35.4834 31.7992 35.5153 31.7686C35.5473 31.7379 35.5883 31.7184 35.6322 31.7128L35.6322 31.7133Z" fill="black"/>
<path d="M35.8057 31.7543C35.7699 31.7305 35.7285 31.7163 35.6856 31.7133C35.731 31.719 35.7733 31.7395 35.8057 31.7719C35.8358 31.8023 35.8557 31.8411 35.863 31.8833C35.8651 31.8748 35.8661 31.8662 35.8661 31.8575C35.8651 31.8367 35.8591 31.8164 35.8486 31.7985C35.8381 31.7805 35.8234 31.7654 35.8057 31.7543Z" fill="black"/>
<path d="M32.8223 39.2793C32.8223 39.2793 32.7929 39.6687 32.6263 40.235C32.4597 40.8013 32.1562 41.544 31.6074 42.2505C31.1966 42.78 30.8 43.0546 30.3931 43.3308C29.9862 43.607 29.5679 43.8847 29.1158 44.4201C28.7414 44.8636 28.4498 45.3708 28.255 45.9176C28.1075 46.332 28.0745 46.6123 28.0745 46.6123C28.0487 46.2031 28.1341 45.6442 28.32 45.0393C28.52 44.3897 28.8062 43.7699 29.171 43.1964C29.4861 42.7065 29.8157 42.3761 30.0656 42.1691C30.3155 41.962 30.4872 41.8776 30.4872 41.8776C30.2036 41.8142 29.9013 41.8936 29.67 41.9891C29.5332 42.0451 29.4021 42.1141 29.2785 42.1954C29.2785 42.1954 29.2981 42.0427 29.4462 41.8305C29.5942 41.6182 29.8706 41.3459 30.3843 41.1084C30.9403 40.8505 31.3614 40.7641 31.7379 40.5568C32.1144 40.3495 32.4456 40.0217 32.8223 39.2793Z" fill="black"/>
</svg>
