<svg width="120" height="80" viewBox="0 0 120 80" fill="none" xmlns="http://www.w3.org/2000/svg">
<rect width="120" height="80" rx="4" fill="white"/>
<path d="M22.4125 32.7087V36.6082C22.4125 38.6957 22.9101 38.774 24.0582 38.774C25.4363 38.774 26.5844 37.7107 26.5844 35.8203C26.5844 33.5364 25.0154 32.7087 23.5225 32.7087H22.4125ZM25.513 39.562H15.0254V38.8137C16.2507 38.774 17.0539 38.6167 17.1306 38.3414C17.2454 38.1444 17.2454 37.7896 17.2454 37.4745V28.0615C17.2454 27.7465 17.2454 27.4314 17.1306 27.1952C17.0539 26.9591 16.2507 26.7621 15.0254 26.7223V25.9741H25.6277C28.4982 25.9741 30.9477 26.8802 30.9477 28.9278C30.9477 30.8183 29.34 31.8032 26.661 32.1183V32.1575C30.0291 32.3153 32.0957 33.6539 32.0957 35.7022C32.0957 38.2228 29.4934 39.562 25.513 39.562ZM22.4125 26.7621V31.9605H23.7906C24.9387 31.9605 25.972 31.2123 25.972 29.2429C25.972 27.4314 25.2449 26.7621 23.6372 26.7621H22.4125ZM42.3549 39.8027C39.4979 39.8027 33.8763 38.4532 33.8763 32.7652C33.8763 29.2942 37.7644 26.0162 43.2455 26.0162C47.6956 26.0162 51.7241 28.6675 51.7241 32.7168C51.7241 37.6819 46.29 39.8027 42.3549 39.8027ZM42.9175 38.9837C44.4165 38.9837 46.4775 38.2124 46.4775 33.1027C46.4775 28.8121 44.3695 26.8358 42.3549 26.8358C40.7624 26.8358 39.1229 28.0892 39.1229 32.2347C39.1229 36.5731 40.8094 38.9837 42.9175 38.9837ZM69.5725 39.6103H66.0125C64.5599 37.6819 60.3438 33.1027 57.2523 30.0654H57.2053V36.4285C57.2053 37.0074 57.1582 37.5857 57.2523 38.0678C57.3457 38.5977 57.7678 38.8391 60.0628 38.8869V39.6103H53.6917V38.8869C55.1912 38.8391 55.5657 38.5977 55.6592 38.0678C55.7532 37.5857 55.7532 37.0074 55.7532 36.4285V28.9088C55.0502 27.7038 53.8322 26.9804 52.2867 26.9804V26.2575H59.7818C61.7494 28.6675 65.4969 32.5722 68.1205 35.1273H68.1675V29.4388C68.1675 28.8605 68.1205 28.2822 68.0735 27.8C67.98 27.2695 67.605 27.0288 65.2629 26.9804V26.2575H71.6805V26.9804C70.1345 27.0288 69.76 27.2695 69.666 27.8C69.5255 28.2822 69.5725 28.8605 69.5725 29.4388V39.6103ZM80.3943 28.2822V35.0306C80.3943 36.8628 81.2373 38.164 83.7203 38.164C86.0624 38.164 87.6078 37.5373 87.6078 34.5485V29.4388C87.6078 28.8605 87.6078 28.2822 87.5144 27.8C87.4209 27.2695 87.0458 27.0288 85.5004 26.9804V26.2575H91.075V26.9804C88.7324 27.0288 89.0134 27.5587 89.0134 29.4388V34.9344C89.0134 38.3086 86.0624 39.8027 82.8298 39.8027C76.9742 39.8027 75.2876 37.7781 75.2876 34.5485V28.2822C75.2876 27.993 75.2876 27.6555 75.1941 27.4625C75.1001 27.2217 74.3506 27.0288 73.1331 26.9804V26.2575H82.5017V26.9804C81.3307 27.0288 80.5812 27.2217 80.4877 27.4625C80.3943 27.6555 80.3943 27.993 80.3943 28.2822ZM103.553 29.5436H102.842C102.094 28.5431 101.234 27.0029 99.3628 27.0029C98.8014 27.0029 97.5671 27.3876 97.5671 28.7735C97.5671 30.1213 99.0258 30.5447 101.944 32.3539C104.301 33.7783 104.974 34.9718 104.974 36.2039C104.974 38.6674 102.056 39.8995 97.9785 39.8995C95.0605 39.8995 93.7507 39.6685 92.5164 39.2838C92.4039 39.2452 92.3295 39.168 92.3295 39.0528V35.9343H93.0779C93.6387 37.0506 94.3871 39.0908 96.7062 39.0908C98.128 39.0908 99.5123 38.2055 99.5123 36.8196C99.5123 35.5876 99.0633 34.9332 96.0334 33.4702C93.4518 32.2001 92.1425 30.6599 92.1425 29.6208C92.1425 27.5034 94.1996 26.1942 98.9514 26.1942C100.71 26.1942 102.206 26.2327 103.328 26.4637C103.515 26.5409 103.553 26.6561 103.553 26.7333V29.5436ZM39.6468 50.5722H40.3381L39.7952 52.8578C39.6966 53.1625 39.3015 53.2639 38.5609 53.4672C37.9687 53.5691 36.192 54.0259 34.4148 54.0259C28.9851 54.0259 25.8259 51.893 25.8259 48.1847C25.8259 45.6958 27.6524 42.4448 34.7602 42.4448C36.7344 42.4448 37.7711 42.6989 38.8077 42.9529C39.4498 43.1055 39.6966 43.3595 39.6966 43.6135V45.6451H39.0053C38.2155 44.477 37.0803 43.0548 34.9085 43.0548C32.2429 43.0548 30.614 45.1371 30.614 48.032C30.5648 50.9783 31.7492 53.4165 34.7602 53.4165C36.6852 53.4165 38.5116 52.2484 39.6468 50.5722ZM50.805 50.4702H45.8198L45.1285 51.9943C44.7831 52.7564 44.9807 53.2132 46.0174 53.2132V53.8231H41.2785V53.2132C41.9698 53.2132 43.0059 52.9591 43.6972 51.9437C44.2894 51.1309 47.1526 45.9498 48.9791 42.4448H50.7557C51.8417 44.2736 55.1493 50.0642 55.9883 51.6896C56.383 52.4511 57.5187 53.2132 58.4563 53.2132V53.8231H50.7065V53.2132C51.6939 53.2132 51.99 52.8071 51.6446 52.0957L50.805 50.4702ZM46.3135 49.6068H50.3119L48.3869 45.7465L46.3135 49.6068ZM66.2582 43.4102V48.1847H67.2949C69.3184 48.1847 69.6145 46.7118 69.6145 45.6958C69.6145 43.9689 68.9232 43.4102 67.5411 43.4102H66.2582ZM59.6435 43.2069V42.5975H69.516C72.4284 42.5975 74.6002 43.5116 74.6002 45.5944C74.6002 46.8132 73.4152 48.0833 71.0956 48.5401C72.6254 50.0642 74.551 51.791 76.4267 53.4165V53.8231H71.7863C70.355 53.8231 68.8247 50.6736 67.1958 48.9467H66.2582V52.1464C66.2582 52.4004 66.2582 52.6544 66.3567 52.8578C66.4558 53.0611 67.1465 53.2132 68.2324 53.2132V53.8231H59.6435V53.2132C60.7295 53.2132 61.47 53.0611 61.5685 52.8578C61.6178 52.6544 61.6178 52.4004 61.6178 52.1464V44.3243C61.6178 44.0703 61.6178 43.8163 61.5685 43.6135C61.47 43.4102 60.7787 43.2576 59.6435 43.2069ZM78.2554 42.5975H87.3873C91.8793 42.5975 95.384 44.629 95.384 47.9307C95.384 52.7051 90.4967 53.8231 86.2521 53.8231H78.2554V53.2132C79.3414 53.2132 80.0327 53.0611 80.1312 52.8578C80.2297 52.6544 80.2297 52.4004 80.2297 52.1464V44.3243C80.2297 44.0703 80.2297 43.8163 80.1312 43.6135C80.0327 43.4102 79.3414 43.2576 78.2554 43.2069V42.5975ZM84.8695 43.2576V51.537C84.8695 52.9085 84.771 53.2132 85.8569 53.2132C88.424 53.2132 90.7436 51.9437 90.7436 47.9307C90.7436 44.883 88.8679 43.2576 85.2647 43.2576H84.8695Z" fill="#484847"/>
</svg>
