<svg width="120" height="80" viewBox="0 0 120 80" fill="none" xmlns="http://www.w3.org/2000/svg">
<rect width="120" height="80" rx="4" fill="white"/>
<path fill-rule="evenodd" clip-rule="evenodd" d="M39.057 49.8637H39.8991C39.1323 51.3226 37.9753 52.0521 36.4281 52.0521C35.3053 52.0521 34.364 51.675 33.604 50.9209C32.8578 50.1104 32.471 49.1484 32.4436 48.0348C32.4436 46.8719 32.8133 45.9029 33.5527 45.1276C34.2989 44.3594 35.2403 43.9718 36.3767 43.9647C37.4721 43.9647 38.3792 44.3171 39.0981 45.0219C39.4267 45.339 39.6834 45.709 39.8683 46.1319H39.0159C38.7626 45.7231 38.4956 45.4236 38.2149 45.2333C38.2081 45.2263 38.1978 45.2192 38.1841 45.2122C37.6775 44.8598 37.0853 44.6836 36.4075 44.6836C35.4765 44.6836 34.7028 45.0184 34.0867 45.6879C33.5048 46.3152 33.2138 47.0869 33.2138 48.0031C33.2138 48.9123 33.5253 49.6946 34.1483 50.35C34.7713 50.9984 35.5278 51.3262 36.4178 51.3332C37.1435 51.3332 37.7699 51.1182 38.2971 50.6883C38.5025 50.5262 38.7558 50.2514 39.057 49.8637ZM40.4665 51.9146L43.7219 44.1022H44.5743L47.8399 51.9146H47.0081L45.9093 49.2823H42.3766L41.2675 51.9146H40.4665ZM42.6642 48.574H45.6115L44.1532 44.9902L42.6642 48.574ZM51.7589 48.9969L53.8847 51.9146H52.9399L50.3829 48.3731C51.1633 48.3731 51.7281 48.3273 52.0773 48.2357C52.8441 48.0243 53.2274 47.4745 53.2274 46.5865C53.2274 45.8606 52.9604 45.3637 52.4264 45.0959C52.0362 44.9056 51.4543 44.8105 50.6807 44.8105H49.6127V51.9146H48.8527V44.1022H50.732C51.6973 44.1022 52.4059 44.229 52.8578 44.4827C53.6177 44.9056 53.9976 45.6174 53.9976 46.6182C53.9976 47.767 53.4945 48.507 52.4881 48.8383C52.269 48.9158 52.0259 48.9687 51.7589 48.9969ZM55.6832 51.9146V44.1022H57.4701C58.6203 44.1022 59.5 44.2572 60.1093 44.5673C60.1983 44.6166 60.2839 44.666 60.366 44.7153C61.4135 45.3567 61.9852 46.3433 62.081 47.6754C62.0879 47.7952 62.0913 47.915 62.0913 48.0348C62.0913 49.4867 61.5299 50.5685 60.4071 51.2803L60.3352 51.3332C59.6917 51.7208 58.8222 51.9146 57.7268 51.9146H55.6832ZM56.4432 51.2063H57.5009C58.6374 51.2063 59.476 51.0266 60.0169 50.6672C60.0922 50.6178 60.1641 50.565 60.2325 50.5086C60.9035 49.9518 61.2629 49.1836 61.3108 48.204C61.3177 48.1405 61.3211 48.0736 61.3211 48.0031C61.3211 47.0094 60.9993 46.2165 60.3558 45.6245C60.2257 45.5117 60.0888 45.4095 59.945 45.3179C59.4041 44.9796 58.5895 44.8105 57.5009 44.8105H56.4432V51.2063Z" fill="#B1B3B2"/>
<path fill-rule="evenodd" clip-rule="evenodd" d="M33.7827 30.965V29.9108H35.5911C36.8852 29.9108 37.8379 30.1363 38.4493 30.5874C39.1218 31.1014 39.458 31.8828 39.458 32.9318C39.458 34.0542 39.0403 34.8567 38.2047 35.3392C39.3358 35.8113 39.9573 36.6085 40.0694 37.7309C40.0898 37.8777 40.1 38.0351 40.1 38.2029C40.1 39.2834 39.779 40.1173 39.1371 40.7047L38.8314 40.925C38.0875 41.3236 37.0584 41.5282 35.7439 41.5387H33.7827V40.4844H35.6216C36.7425 40.4844 37.5577 40.3428 38.0672 40.0596C38.5359 39.8183 38.8212 39.3568 38.9231 38.675C38.9435 38.5386 38.9537 38.4022 38.9537 38.2659C38.9537 37.3218 38.6021 36.6662 37.899 36.299C37.4609 36.0787 36.6355 35.9686 35.4229 35.9686H33.7827V34.9144H35.4535C36.3502 34.9144 37.0125 34.8147 37.4405 34.6154C38.0213 34.3427 38.3117 33.7867 38.3117 32.9476C38.3117 32.2762 38.1283 31.7779 37.7615 31.4528C37.7207 31.4213 37.685 31.3951 37.6545 31.3741C37.2673 31.1014 36.5285 30.965 35.4382 30.965H33.7827ZM42.3172 29.9108H43.4483V37.1644C43.4483 38.2239 43.6215 39.0264 43.9679 39.5718C44.3551 40.1802 44.9563 40.5369 45.7715 40.6418C45.904 40.6628 46.0364 40.6733 46.1689 40.6733C47.0045 40.6733 47.6668 40.39 48.1559 39.8236C48.2272 39.7502 48.2935 39.6662 48.3546 39.5718C48.701 39.0264 48.8743 38.2239 48.8743 37.1644V29.9108H50.0053V37.1644C50.0053 38.4652 49.7761 39.4617 49.3175 40.154C49.2869 40.2065 49.2513 40.2589 49.2105 40.3114C48.5991 41.1296 47.733 41.5964 46.6122 41.7117C46.4593 41.7327 46.3065 41.7432 46.1536 41.7432C45.0226 41.7432 44.0953 41.3708 43.3718 40.6261C43.2801 40.5212 43.1935 40.4163 43.112 40.3114C42.6127 39.64 42.3478 38.7064 42.3172 37.5106V29.9108ZM54.4541 41.5387V30.965H51.871V29.9108H58.1682V30.965H55.5851V41.5387H54.4541ZM62.3982 41.5387V30.965H59.8151V29.9108H66.1123V30.965H63.5293V41.5387H62.3982ZM67.978 41.5387V29.9108H74.153V30.965H69.1091V35.1347H73.9848V36.1889H69.1091V40.4844H74.153V41.5387H67.978ZM80.7349 37.1959L83.8988 41.5387H82.4926L78.6867 36.2676C79.8484 36.2676 80.689 36.1994 81.2087 36.063C82.3499 35.7483 82.9205 34.9301 82.9205 33.6084C82.9205 32.528 82.5231 31.7884 81.7283 31.3898C81.1475 31.1066 80.2814 30.965 79.13 30.965H77.5404V41.5387H76.4093V29.9108H79.2064C80.6432 29.9108 81.6978 30.0996 82.3703 30.4772C83.5014 31.1066 84.0669 32.1661 84.0669 33.6556C84.0669 35.3654 83.3179 36.4669 81.8201 36.9599C81.494 37.0753 81.1323 37.1539 80.7349 37.1959ZM86.1647 41.5387V29.9108H91.8964V30.965H87.2957V35.1661H91.7282V36.2204H87.2957V41.5387H86.1647ZM94.0553 41.5387V29.9108H95.1864V40.4844H99.8634V41.5387H94.0553ZM103.063 41.5387V37.6522L99.1498 29.9108H100.403L103.613 36.4249L106.899 29.9108H108.137L104.194 37.6522V41.5387H103.063Z" fill="#6F6F6F"/>
<path fill-rule="evenodd" clip-rule="evenodd" d="M13.0061 33.6469L19.3317 29.5803C20.4877 28.8372 22.0272 29.1718 22.7704 30.3278C22.7851 30.3508 22.7995 30.3739 22.8134 30.3973L31.0672 44.2136C31.753 45.3616 31.4087 46.8465 30.2877 47.5756L24.0182 51.6533C22.8661 52.4026 21.3248 52.0761 20.5755 50.9241C20.5595 50.8994 20.5438 50.8744 20.5287 50.8491L12.2189 37.0218C11.5261 35.8689 11.8747 34.3742 13.0061 33.6469Z" fill="#5FBBEA"/>
<path fill-rule="evenodd" clip-rule="evenodd" d="M21.9954 32.7745L28.7931 28.3226C29.6834 27.7395 30.7671 27.7493 31.4306 28.9263C31.6192 29.2608 31.7292 29.6081 31.7292 29.9821C31.816 30.8283 31.8594 31.56 31.8594 32.177C31.8594 33.1026 31.3514 38.3093 31.3134 40.6626C31.288 42.2315 31.399 43.7983 31.6462 45.363C31.6973 46.0844 31.3597 46.7764 30.7671 47.165L23.9052 51.6642C23.0152 52.2478 21.8342 51.9781 21.2673 51.0619C21.0728 50.7475 21.0474 50.4617 20.9682 49.9467C20.8891 49.4317 20.8329 48.8646 20.9682 46.4107C21.1035 43.9568 21.4403 40.8726 21.4403 39.5719C21.4403 38.4748 21.2784 37.1377 21.186 36.065C21.1376 35.5017 21.0858 35.4412 21.1207 34.6386C21.1556 33.836 21.384 33.1749 21.9954 32.7745Z" fill="#2CA9E1"/>
<path fill-rule="evenodd" clip-rule="evenodd" d="M23.657 31.7547L30.9978 44.0428C31.7171 45.2469 31.362 46.8225 30.2012 47.5775L23.997 51.6127C23.5444 51.9071 23.0353 52.0339 22.5383 52.0091C22.0326 51.9147 21.5652 51.6118 21.2673 51.1303C21.0728 50.8159 21.0474 50.5302 20.9682 50.0152C20.8891 49.5002 20.8329 48.9331 20.9682 46.4792C21.1035 44.0253 21.4403 40.9411 21.4403 39.6403C21.4403 38.5432 21.2784 37.2062 21.186 36.1334C21.1376 35.5701 21.0858 35.5096 21.1207 34.707C21.1556 33.9045 21.384 33.2433 21.9954 32.8429L23.657 31.7547Z" fill="#008AD2"/>
</svg>
