<svg width="120" height="80" viewBox="0 0 120 80" fill="none" xmlns="http://www.w3.org/2000/svg">
<rect width="120" height="80" rx="4" fill="white"/>
<path fill-rule="evenodd" clip-rule="evenodd" d="M31.2653 27.5217H36.6695L40.5032 36.7697L43.3845 27.5217H45.6327L40.3207 43.0659C39.7508 44.8975 38.643 46.4959 36.9974 47.8609C34.529 49.9084 31.8872 48.472 31.7068 47.6922C31.5264 46.9124 31.8108 45.5082 33.1166 45.7381C34.4225 45.968 33.7379 45.8998 34.8005 46.0281C35.863 46.1564 37.9537 45.4518 38.1366 44.0182C38.3196 42.5846 37.6036 41.3572 36.6695 38.8929C36.0468 37.2501 34.2454 33.4597 31.2653 27.5217ZM54.1633 27.5217H59.235C59.2607 33.9096 59.2801 37.1838 59.293 37.3442C59.3125 37.5848 59.5462 39.2471 61.2232 39.2471C62.9001 39.2471 63.4458 37.6166 63.4458 37.4157C63.4458 37.2817 63.4458 33.9837 63.4458 27.5217H68.5306V41.6454H63.4458V40.0905C61.4522 41.3289 59.8238 41.8875 58.5608 41.7664C56.6663 41.5848 54.5694 41.7664 54.2746 38.2553C54.2251 36.0964 54.188 32.5185 54.1633 27.5217ZM71.2245 27.7559H76.3387V29.1663C77.8949 28.1884 79.5001 27.6455 81.1542 27.5375C83.6353 27.3754 85.4524 28.4676 85.5454 30.7685C85.6073 32.3025 85.6073 35.9738 85.5454 41.7826H80.5783C80.5411 35.3742 80.5224 32.1132 80.5224 31.9995C80.5224 31.829 80.0506 30.1561 78.4341 30.2424C76.8176 30.3286 76.4647 31.6831 76.3387 32.0465C76.2546 32.2888 76.2546 35.5342 76.3387 41.7826H71.2763L71.2245 27.7559ZM46.8741 27.5217H51.8823C51.9304 36.662 51.9304 41.7401 51.8823 42.7562C51.8102 44.2804 51.0405 49.6035 44.7347 49.8043C45.5725 48.3003 46.5078 47.4237 46.7501 44.036C46.9115 41.7776 46.9529 36.2728 46.8741 27.5217ZM95.9694 27.5905C99.0542 27.0918 104.308 29.284 103.986 34.8929C103.663 40.5017 100.197 42.1927 95.9063 42.6367C91.6156 43.0806 86.9799 39.5166 87.9724 34.0266C88.965 28.5365 92.8845 28.0892 95.9694 27.5905ZM95.8941 29.1987C95.2072 29.2734 93.4187 29.2967 93.1964 32.973C92.9742 36.6493 93.868 40.8754 96.3165 40.7491C98.765 40.6228 98.841 37.4537 98.7755 34.8036C98.7099 32.1535 97.6605 29.1987 95.8941 29.1987Z" fill="#64B439"/>
<path fill-rule="evenodd" clip-rule="evenodd" d="M16 19.5H21.0318V28.9243C22.8853 27.688 24.4882 27.1309 25.8407 27.253C27.8693 27.4362 30.6569 27.7035 31.2243 33.6934C31.7917 39.6832 26.3184 41.7277 24.4029 41.7781C22.4874 41.8285 18.6251 41.4427 18.1895 41.4512C17.8992 41.4569 17.1693 41.454 16 41.4427V19.5ZM23.1696 29.7503C22.1121 29.8498 20.6543 29.7229 20.6905 34.5533C20.7267 39.3836 21.4022 40.1374 22.9348 40.2543C24.4674 40.3711 25.8934 39.1987 25.9707 35.091C26.0479 30.9833 24.2272 29.6507 23.1696 29.7503ZM55.5102 50.4571C55.5102 50.3044 55.5633 50.1765 55.6696 50.0735C55.7758 49.9704 55.9076 49.9189 56.065 49.9189H57.93C58.6461 49.9189 59.2244 50.1326 59.6651 50.5601C60.1137 50.9953 60.3379 51.5679 60.3379 52.2779C60.3379 52.9649 60.1255 53.5146 59.7005 53.9269C59.252 54.3468 58.6618 54.5567 57.93 54.5567H56.3365V57.6715C56.3365 57.7784 56.2952 57.87 56.2125 57.9463C56.1299 58.0227 56.0335 58.0608 55.9233 58.0608C55.8132 58.0608 55.7168 58.0227 55.6341 57.9463C55.5515 57.87 55.5102 57.7784 55.5102 57.6715V50.4571ZM57.9064 53.7895C58.41 53.7895 58.8113 53.652 59.1103 53.3772C59.3779 53.1176 59.5117 52.7512 59.5117 52.2779C59.5117 51.7816 59.3661 51.3923 59.0749 51.1098C58.7838 50.8273 58.3942 50.6861 57.9064 50.6861H56.3365V53.7895H57.9064ZM65.2914 57.2707C65.2914 57.3852 65.256 57.4883 65.1852 57.5799C65.1144 57.6715 65.0239 57.7364 64.9137 57.7746C64.6304 57.8662 64.3412 57.9368 64.0461 57.9864C63.751 58.036 63.4501 58.0608 63.1432 58.0608C62.4271 58.0608 61.8802 57.8967 61.5024 57.5684C61.1562 57.2707 60.9831 56.847 60.9831 56.2973C60.9831 55.7629 61.1562 55.3392 61.5024 55.0262C61.6834 54.8659 61.9116 54.7495 62.1871 54.6769C62.4625 54.6044 62.7812 54.5681 63.1432 54.5681H64.4888V53.8467C64.4888 53.5032 64.3747 53.2455 64.1465 53.0737C63.9183 52.902 63.6153 52.8161 63.2376 52.8161C63.0015 52.8161 62.7733 52.8485 62.553 52.9134C62.3326 52.9783 62.1084 53.0756 61.8802 53.2054C61.8172 53.2436 61.7543 53.2627 61.6913 53.2627C61.5811 53.2627 61.4867 53.2302 61.408 53.1653C61.3293 53.1005 61.29 53.0108 61.29 52.8962C61.29 52.7512 61.3569 52.6367 61.4906 52.5527C61.7661 52.3847 62.0533 52.2664 62.3523 52.1977C62.6513 52.129 62.9464 52.0946 63.2376 52.0946C63.513 52.0946 63.7747 52.1309 64.0225 52.2034C64.2704 52.276 64.4888 52.3847 64.6776 52.5298C64.8665 52.6748 65.016 52.8562 65.1262 53.0737C65.2363 53.2913 65.2914 53.5452 65.2914 53.8353V57.2707ZM64.4888 55.2896H63.1432C62.8441 55.2896 62.6041 55.3201 62.4231 55.3812C62.2421 55.4423 62.1044 55.5224 62.01 55.6217C61.9156 55.7209 61.8546 55.8297 61.827 55.948C61.7995 56.0664 61.7857 56.1828 61.7857 56.2973C61.7857 56.4118 61.7995 56.5302 61.827 56.6523C61.8546 56.7745 61.9156 56.8871 62.01 56.9901C62.1044 57.0932 62.2421 57.1772 62.4231 57.2421C62.6041 57.307 62.8441 57.3394 63.1432 57.3394C63.5996 57.3394 64.0481 57.2745 64.4888 57.1447V55.2896ZM68.1464 57.9463L66.1752 52.6214C66.1674 52.5985 66.1615 52.5775 66.1575 52.5584C66.1536 52.5393 66.1516 52.5183 66.1516 52.4954C66.1516 52.3962 66.187 52.3065 66.2578 52.2263C66.3287 52.1462 66.427 52.1061 66.5529 52.1061C66.6395 52.1061 66.7162 52.1271 66.7831 52.1691C66.85 52.2111 66.8992 52.274 66.9307 52.358L68.5478 56.8355L69.9406 52.3695C69.9642 52.2855 70.0114 52.2187 70.0822 52.1691C70.1531 52.1194 70.2318 52.0946 70.3183 52.0946C70.4285 52.0946 70.5249 52.1309 70.6075 52.2034C70.6901 52.276 70.7314 52.3695 70.7314 52.484C70.7314 52.5069 70.7295 52.5279 70.7255 52.547C70.7216 52.5661 70.7157 52.587 70.7078 52.61L68.6068 59.0686C68.4651 59.5037 68.2133 59.8511 67.8513 60.1106C67.4894 60.3702 67.0487 60.5 66.5293 60.5C66.4192 60.5 66.3267 60.4656 66.2519 60.3969C66.1772 60.3282 66.1398 60.2366 66.1398 60.1221C66.1398 60.0229 66.1772 59.9389 66.2519 59.8702C66.3267 59.8015 66.4192 59.7633 66.5293 59.7557C67.2297 59.7175 67.6743 59.4121 67.8632 58.8395L68.1464 57.9463ZM74.4886 52.484C74.4886 52.3771 74.528 52.2855 74.6067 52.2092C74.6854 52.1328 74.7798 52.0946 74.89 52.0946C75.0001 52.0946 75.0946 52.1328 75.1733 52.2092C75.252 52.2855 75.2913 52.3771 75.2913 52.484V57.6715C75.2913 57.7784 75.252 57.87 75.1733 57.9463C75.0946 58.0227 75.0001 58.0608 74.89 58.0608C74.7798 58.0608 74.6854 58.0227 74.6067 57.9463C74.528 57.87 74.4886 57.7784 74.4886 57.6715V52.484ZM74.89 50.8464C74.7405 50.8464 74.6146 50.7949 74.5123 50.6918C74.41 50.5888 74.3588 50.4647 74.3588 50.3197C74.3588 50.1746 74.41 50.0525 74.5123 49.9532C74.6146 49.854 74.7405 49.8043 74.89 49.8043C75.0395 49.8043 75.1654 49.854 75.2677 49.9532C75.37 50.0525 75.4211 50.1746 75.4211 50.3197C75.4211 50.4647 75.37 50.5888 75.2677 50.6918C75.1654 50.7949 75.0395 50.8464 74.89 50.8464ZM77.0824 50.1937C77.0824 50.0868 77.1217 49.9952 77.2004 49.9189C77.2791 49.8425 77.3736 49.8043 77.4837 49.8043C77.5939 49.8043 77.6883 49.8425 77.767 49.9189C77.8457 49.9952 77.8851 50.0868 77.8851 50.1937V52.2092H79.2425C79.3526 52.2092 79.4451 52.2454 79.5199 52.3179C79.5946 52.3905 79.632 52.4802 79.632 52.5871C79.632 52.6939 79.5946 52.7817 79.5199 52.8504C79.4451 52.9191 79.3526 52.9535 79.2425 52.9535H77.8851V56.5149C77.8851 56.7592 77.9578 56.952 78.1034 57.0932C78.249 57.2344 78.4241 57.305 78.6287 57.305C78.7152 57.305 78.8254 57.2974 78.9592 57.2821C79.093 57.2669 79.1913 57.2592 79.2543 57.2592C79.3408 57.2592 79.4254 57.2917 79.5081 57.3566C79.5907 57.4215 79.632 57.5112 79.632 57.6257C79.632 57.7173 79.6025 57.7994 79.5435 57.8719C79.4845 57.9444 79.4038 57.9883 79.3015 58.0036C79.1913 58.0189 79.0792 58.0322 78.9651 58.0437C78.851 58.0551 78.7389 58.0608 78.6287 58.0608C78.4162 58.0608 78.2156 58.0227 78.0267 57.9463C77.8378 57.87 77.6746 57.7631 77.5368 57.6257C77.3991 57.4883 77.289 57.3222 77.2063 57.1275C77.1237 56.9329 77.0824 56.721 77.0824 56.492V50.1937ZM84.062 55.3239V55.9652C84.062 56.3775 84.182 56.7096 84.422 56.9615C84.662 57.2134 84.9945 57.3394 85.4194 57.3394C85.6555 57.3394 85.8857 57.3089 86.11 57.2478C86.3342 57.1867 86.5526 57.1104 86.7651 57.0188C86.8201 56.9959 86.8752 56.9844 86.9303 56.9844C87.0405 56.9844 87.1349 57.0188 87.2136 57.0875C87.2923 57.1562 87.3316 57.244 87.3316 57.3509C87.3316 57.5112 87.2569 57.6257 87.1074 57.6944C86.8398 57.8242 86.5664 57.9177 86.287 57.975C86.0077 58.0322 85.7185 58.0608 85.4194 58.0608C85.0968 58.0608 84.8017 58.0093 84.5342 57.9062C84.2666 57.8032 84.0384 57.66 83.8495 57.4768C83.6607 57.2936 83.5151 57.0741 83.4128 56.8184C83.3105 56.5626 83.2594 56.2782 83.2594 55.9652V54.1903C83.2594 53.8772 83.3105 53.5929 83.4128 53.3371C83.5151 53.0814 83.6607 52.8619 83.8495 52.6787C84.0384 52.4954 84.2666 52.3523 84.5342 52.2492C84.8017 52.1462 85.0968 52.0946 85.4194 52.0946C85.7421 52.0946 86.0352 52.1462 86.2988 52.2492C86.5624 52.3523 86.7887 52.4954 86.9775 52.6787C87.1664 52.8619 87.312 53.0814 87.4143 53.3371C87.5166 53.5929 87.5677 53.8772 87.5677 54.1903V54.7857C87.5677 54.9384 87.5146 55.0663 87.4084 55.1693C87.3021 55.2724 87.1703 55.3239 87.0129 55.3239H84.062ZM86.7651 54.133C86.7651 53.7207 86.647 53.3982 86.4109 53.1653C86.1749 52.9325 85.8444 52.8161 85.4194 52.8161C84.9945 52.8161 84.662 52.9325 84.422 53.1653C84.182 53.3982 84.062 53.7207 84.062 54.133V54.6025H86.7651V54.133ZM92.826 57.2707C92.826 57.3852 92.7906 57.4883 92.7198 57.5799C92.649 57.6715 92.5585 57.7364 92.4483 57.7746C92.165 57.8662 91.8759 57.9368 91.5808 57.9864C91.2857 58.036 90.9847 58.0608 90.6778 58.0608C89.9617 58.0608 89.4148 57.8967 89.0371 57.5684C88.6908 57.2707 88.5177 56.847 88.5177 56.2973C88.5177 55.7629 88.6908 55.3392 89.0371 55.0262C89.2181 54.8659 89.4463 54.7495 89.7217 54.6769C89.9971 54.6044 90.3158 54.5681 90.6778 54.5681H92.0234V53.8467C92.0234 53.5032 91.9093 53.2455 91.6811 53.0737C91.4529 52.902 91.1499 52.8161 90.7722 52.8161C90.5361 52.8161 90.3079 52.8485 90.0876 52.9134C89.8673 52.9783 89.643 53.0756 89.4148 53.2054C89.3518 53.2436 89.2889 53.2627 89.2259 53.2627C89.1158 53.2627 89.0213 53.2302 88.9426 53.1653C88.8639 53.1005 88.8246 53.0108 88.8246 52.8962C88.8246 52.7512 88.8915 52.6367 89.0253 52.5527C89.3007 52.3847 89.5879 52.2664 89.8869 52.1977C90.186 52.129 90.481 52.0946 90.7722 52.0946C91.0476 52.0946 91.3093 52.1309 91.5572 52.2034C91.805 52.276 92.0234 52.3847 92.2123 52.5298C92.4011 52.6748 92.5506 52.8562 92.6608 53.0737C92.771 53.2913 92.826 53.5452 92.826 53.8353V57.2707ZM92.0234 55.2896H90.6778C90.3788 55.2896 90.1387 55.3201 89.9578 55.3812C89.7768 55.4423 89.6391 55.5224 89.5446 55.6217C89.4502 55.7209 89.3892 55.8297 89.3617 55.948C89.3341 56.0664 89.3204 56.1828 89.3204 56.2973C89.3204 56.4118 89.3341 56.5302 89.3617 56.6523C89.3892 56.7745 89.4502 56.8871 89.5446 56.9901C89.6391 57.0932 89.7768 57.1772 89.9578 57.2421C90.1387 57.307 90.3788 57.3394 90.6778 57.3394C91.1342 57.3394 91.5827 57.2745 92.0234 57.1447V55.2896ZM95.1078 55.1064C94.8324 54.9919 94.5924 54.822 94.3878 54.5968C94.1832 54.3716 94.0809 54.0567 94.0809 53.652C94.0809 53.4154 94.132 53.2016 94.2343 53.0108C94.3366 52.8199 94.4743 52.6558 94.6475 52.5183C94.8206 52.3809 95.0232 52.276 95.2553 52.2034C95.4875 52.1309 95.7334 52.0946 95.9931 52.0946C96.2842 52.0946 96.5459 52.1214 96.778 52.1748C97.0102 52.2282 97.2285 52.2969 97.4331 52.3809C97.5984 52.4573 97.681 52.5794 97.681 52.7474C97.681 52.8543 97.6417 52.9401 97.563 53.005C97.4843 53.0699 97.3898 53.1024 97.2797 53.1024C97.2325 53.1024 97.1813 53.0909 97.1262 53.068C96.7564 52.9001 96.3472 52.8161 95.8986 52.8161C95.7806 52.8161 95.6626 52.8313 95.5445 52.8619C95.4265 52.8924 95.3183 52.9382 95.2199 52.9993C95.1216 53.0604 95.0409 53.1424 94.978 53.2455C94.915 53.3486 94.8835 53.4726 94.8835 53.6177C94.8835 53.8467 94.9484 54.0223 95.0783 54.1444C95.2081 54.2666 95.3399 54.3544 95.4737 54.4078L96.5833 54.843C96.9374 54.9804 97.2226 55.1808 97.439 55.4442C97.6554 55.7076 97.7636 56.0148 97.7636 56.366C97.7636 56.6027 97.7164 56.8241 97.622 57.0302C97.5276 57.2363 97.3957 57.4157 97.2266 57.5684C97.0574 57.7211 96.8567 57.8414 96.6246 57.9291C96.3924 58.0169 96.1426 58.0608 95.875 58.0608C95.5681 58.0608 95.2888 58.0322 95.037 57.975C94.7852 57.9177 94.5452 57.8356 94.3169 57.7287C94.1596 57.66 94.0809 57.5417 94.0809 57.3738C94.0809 57.2669 94.1183 57.1791 94.193 57.1104C94.2678 57.0417 94.3642 57.0073 94.4822 57.0073C94.5137 57.0073 94.5412 57.0111 94.5648 57.0188C94.5884 57.0264 94.616 57.0378 94.6475 57.0531C94.8363 57.1371 95.035 57.2058 95.2435 57.2592C95.4521 57.3127 95.6744 57.3394 95.9104 57.3394C96.1859 57.3394 96.4298 57.265 96.6423 57.1161C96.8547 56.9672 96.961 56.7592 96.961 56.492C96.961 56.2477 96.9 56.0568 96.778 55.9194C96.6561 55.782 96.4692 55.6599 96.2173 55.553L95.1078 55.1064ZM100.517 57.9463L98.5458 52.6214C98.5379 52.5985 98.532 52.5775 98.5281 52.5584C98.5242 52.5393 98.5222 52.5183 98.5222 52.4954C98.5222 52.3962 98.5576 52.3065 98.6284 52.2263C98.6993 52.1462 98.7976 52.1061 98.9235 52.1061C99.0101 52.1061 99.0868 52.1271 99.1537 52.1691C99.2206 52.2111 99.2698 52.274 99.3012 52.358L100.918 56.8355L102.311 52.3695C102.335 52.2855 102.382 52.2187 102.453 52.1691C102.524 52.1194 102.602 52.0946 102.689 52.0946C102.799 52.0946 102.895 52.1309 102.978 52.2034C103.061 52.276 103.102 52.3695 103.102 52.484C103.102 52.5069 103.1 52.5279 103.096 52.547C103.092 52.5661 103.086 52.587 103.078 52.61L100.977 59.0686C100.836 59.5037 100.584 59.8511 100.222 60.1106C99.86 60.3702 99.4193 60.5 98.8999 60.5C98.7898 60.5 98.6973 60.4656 98.6225 60.3969C98.5478 60.3282 98.5104 60.2366 98.5104 60.1221C98.5104 60.0229 98.5478 59.9389 98.6225 59.8702C98.6973 59.8015 98.7898 59.7633 98.8999 59.7557C99.6003 59.7175 100.045 59.4121 100.234 58.8395L100.517 57.9463Z" fill="#64B439"/>
</svg>
