<svg width="120" height="80" viewBox="0 0 120 80" fill="none" xmlns="http://www.w3.org/2000/svg">
<rect width="120" height="80" rx="4" fill="white"/>
<path d="M55.1211 36.8404C53.0376 38.0434 50.4351 36.5404 50.4351 34.1343V21.7726C50.4351 19.3681 53.0391 17.8635 55.1211 19.0666L68.0064 26.5052L55.1211 36.8389V36.8404Z" fill="#BAEC9F"/>
<path d="M67.5774 26.3057L55.9972 22.0906C54.0322 21.3751 52.0296 23.0551 52.3926 25.1162L54.5332 37.2529C54.8962 39.3124 57.3532 40.2064 58.9552 38.8624L68.3964 30.9408C69.9984 29.5968 69.5439 27.0212 67.5789 26.3057H67.5774ZM97.0544 60.0353C97.6934 59.9228 98.2049 59.7623 98.5874 59.5523C98.9729 59.3408 99.2804 59.0692 99.5114 58.7407C99.7289 58.4302 99.9824 57.9847 100.176 57.4717H99.7124C98.5349 54.6667 97.2629 50.9631 96.4019 47.7831C96.7949 47.7081 97.4114 47.6526 97.8239 47.6526L100.321 55.3267C100.441 55.7062 100.581 56.1457 100.641 56.5657H100.72C100.8 56.1457 100.92 55.7062 101.061 55.3072L103.578 47.6541C103.951 47.6541 104.607 47.6916 105 47.7846C105 47.7846 102.157 56.1502 101.65 57.4732C101.143 58.7962 100.726 59.5148 100.035 60.1808C99.3824 60.8093 98.4644 61.1993 97.2854 61.3568C97.1564 60.9203 97.0559 60.4118 97.0529 60.0383L97.0544 60.0353ZM87.1032 48.3771C87.1032 45.59 84.8772 44.2025 82.5956 44.2025C81.3986 44.2025 80.5196 44.2955 79.1546 44.465V57.4717H80.7071V52.7031H82.5026C84.7287 52.7031 87.1032 51.2031 87.1032 48.3786V48.3771ZM85.5132 48.3771C85.5132 50.3406 84.0177 51.3921 82.2776 51.3921H80.7071V45.587C81.4736 45.512 82.1096 45.4745 82.5581 45.4745C83.9982 45.4745 85.5132 46.4315 85.5132 48.3771ZM96.1784 56.1982H95.1493C94.7188 56.1982 94.5883 56.0302 94.5883 55.5817V48.4371C93.7843 47.8011 92.3818 47.5206 91.1278 47.5206C90.1738 47.5206 89.4252 47.6511 88.6032 47.8941C88.6032 48.3246 88.6782 48.8856 88.7907 49.2411C89.3337 48.9981 90.2683 48.8301 91.0918 48.8301C91.8583 48.8301 92.7193 49.0176 93.1858 49.2786V51.9906L91.1278 52.0836C88.8267 52.1766 87.6492 52.9821 87.6492 55.0192C87.6492 56.8147 88.8087 57.6562 90.4738 57.6562C91.4458 57.6562 92.3248 57.3937 93.2413 56.6467H93.3163C93.6343 57.4132 94.2883 57.6562 95.0368 57.6562C95.7854 57.6562 96.1784 57.3577 96.1784 56.6272V56.1967V56.1982ZM93.1858 55.6192C92.5498 56.0872 91.5778 56.4232 90.7363 56.4232C89.6322 56.4232 89.1837 55.9927 89.1837 54.9277C89.1837 53.7112 89.6323 53.2447 91.0723 53.1877L93.1858 53.0946V55.6192ZM20.8636 57.6652C17.0445 57.6652 15 55.3267 15 50.8851C15 46.19 17.5125 44.144 20.6701 44.144C21.8971 44.144 23.5141 44.3975 24.2552 44.768C24.2162 45.509 24.0407 46.502 23.8651 47.3406C22.9696 46.9115 21.8386 46.6775 20.8261 46.6775C19.3066 46.6775 18.0991 47.5536 18.0991 50.8671C18.0991 54.1807 19.0351 55.1347 20.9431 55.1347C22.0531 55.1347 23.3596 54.7252 24.1187 54.2197C24.3137 54.9997 24.4697 55.8757 24.5282 56.7907C23.5546 57.3757 22.0141 57.6682 20.8651 57.6682L20.8636 57.6652ZM33.5388 53.1651H27.9272V53.2821C27.9272 54.5677 28.4342 55.1917 30.1683 55.1917C31.0653 55.1917 32.2923 54.9187 32.9148 54.5677C33.1488 55.2502 33.3633 56.2237 33.4803 57.0427C32.5848 57.4522 31.0443 57.6667 30.1293 57.6667C26.9147 57.6667 25.1027 55.9132 25.1027 52.5231C25.1027 48.9381 26.9732 47.1065 29.5832 47.1065C32.4273 47.1065 33.6168 48.9186 33.6168 51.6261C33.6168 52.0551 33.5973 52.6971 33.5388 53.1651ZM30.9663 50.8851C30.9663 49.6776 30.5373 49.0731 29.5442 49.0731C28.5512 49.0731 27.9467 49.7751 27.9467 51.4116H30.9468C30.9663 51.2946 30.9663 50.9826 30.9663 50.8851ZM45.9725 57.4702V50.5536C45.9725 49.8321 45.7385 49.4046 44.7845 49.4046C44.18 49.4046 43.6355 49.5996 43.2065 49.9311V57.4702H40.5754V50.5731C40.5754 49.8141 40.3609 49.4046 39.4654 49.4046C38.8999 49.4046 38.2969 49.5996 37.8094 49.9311V57.4702H35.1798V47.3976C35.9404 47.3001 36.9724 47.2416 37.8094 47.2416V48.2541H37.9459C38.8999 47.3961 39.5824 47.105 40.5364 47.105C41.4904 47.105 42.3095 47.4366 42.7385 48.3906C43.733 47.3781 44.57 47.105 45.6215 47.105C47.336 47.105 48.6021 48.0396 48.6021 50.2611V57.4702H45.9725ZM54.6622 57.6652C53.0451 57.6652 51.5061 57.2752 50.4336 56.4187V43.151C51.1941 43.0535 52.2261 42.9755 53.0646 42.9755V48.1776H53.2011C53.9602 47.3391 54.6817 47.1065 55.5787 47.1065C57.6442 47.1065 59.2807 48.4701 59.2807 51.9771C59.2807 55.4842 57.5857 57.6667 54.6637 57.6667L54.6622 57.6652ZM54.7402 49.4046C54.0967 49.4046 53.4741 49.6191 53.0646 50.0091V55.0357C53.4156 55.2892 53.9797 55.4062 54.5062 55.4062C55.9867 55.4062 56.4742 54.4912 56.4742 52.2111C56.4742 49.9311 55.8892 49.4061 54.7402 49.4061V49.4046ZM66.2349 49.9506C66.0009 49.8921 65.5913 49.8336 65.2808 49.8336C64.5593 49.8336 64.0148 49.9701 63.3908 50.3991V57.4717H60.7613V47.3991C61.5218 47.3016 62.5538 47.2431 63.3908 47.2431V48.5481H63.5273C64.4813 47.2236 65.1053 47.1065 65.7488 47.1065C65.9243 47.1065 66.2559 47.1456 66.4704 47.2236C66.4704 48.1386 66.3729 49.0551 66.2364 49.9506H66.2349ZM74.3665 57.6652C73.4905 57.6652 72.8275 57.4312 72.4765 56.6137H72.3595C71.5614 57.3157 70.7034 57.6652 69.6909 57.6652C67.9179 57.6652 66.6324 56.7682 66.6324 54.7237C66.6324 52.4826 68.0154 51.7236 70.4514 51.6261L72.049 51.5676V49.8336C71.5614 49.5411 70.8609 49.4436 70.1589 49.4436C69.3414 49.4436 68.4444 49.6191 67.8594 49.8726C67.7034 49.2291 67.5279 48.3531 67.4889 47.5146C68.3859 47.2611 69.3594 47.105 70.3719 47.105C71.8914 47.105 73.5475 47.4756 74.56 48.2931V54.3517C74.56 54.8587 74.6965 55.0342 75.1645 55.0342H76.216V55.9102C76.216 57.2542 75.418 57.6637 74.365 57.6637L74.3665 57.6652ZM72.0475 53.3017L70.4499 53.3602C69.5919 53.3992 69.2619 53.6332 69.2619 54.5482C69.2619 55.3282 69.5934 55.6387 70.3329 55.6387C70.8984 55.6387 71.6184 55.5022 72.0475 55.1707V53.3002V53.3017Z" fill="#004D8C"/>
</svg>
