<svg width="120" height="80" viewBox="0 0 120 80" fill="none" xmlns="http://www.w3.org/2000/svg">
<rect width="120" height="80" rx="4" fill="white"/>
<path fill-rule="evenodd" clip-rule="evenodd" d="M48.1938 43.8068H54.0473L46.7217 55.0169H40.5408L48.1938 43.8068Z" fill="#003B79"/>
<path fill-rule="evenodd" clip-rule="evenodd" d="M51.1698 39.5702H63.7291L63.8598 39.6027L64.0231 39.6677L64.1872 39.7652L64.3505 39.8967L64.4811 40.0592L64.5791 40.1891L64.6436 40.3516L64.6763 40.4831L64.709 40.7106V40.9055L64.6763 41.0371L64.5791 41.232L64.3178 41.7534L63.9251 42.3398L63.5658 42.8288L63.3691 42.9912L63.1723 43.1878L62.9437 43.351L62.7151 43.481L62.2562 43.6759L61.9296 43.8067L61.7002 43.84L61.4715 43.8724H55.6507L57.972 55.0175H63.9578L62.5183 47.9449L63.009 47.8149L63.5324 47.6524L64.2199 47.4234L65.0037 47.0985L65.7892 46.7395L66.2138 46.5121L66.6065 46.2506L66.9992 45.9907L67.3593 45.6967L67.6206 45.4367L67.9153 45.1103L68.2101 44.7188L68.4698 44.2956L69.0593 43.3835L69.5826 42.4048L70.0733 41.4919L70.4334 40.7431L70.7927 40.0267L70.9568 39.3745L71.0874 38.7548L71.1854 38.0376V37.6469L71.1528 37.2887L71.0548 36.9298L70.9241 36.5724L70.7927 36.2459L70.4661 35.5945L70.3028 35.398L70.1387 35.2355L69.9746 35.1055L69.8113 35.0081L69.452 34.844L69.1246 34.7466L68.8625 34.6816H68.6012L68.4044 34.7141H54.4072L51.1698 39.5702Z" fill="#003B79"/>
<path fill-rule="evenodd" clip-rule="evenodd" d="M78.5111 34.6491H84.4961L81.1272 39.6027H75.1757L78.5111 34.6491Z" fill="#003B79"/>
<path fill-rule="evenodd" clip-rule="evenodd" d="M72.4599 43.8069H78.217L70.662 55.0169H64.8069L72.4599 43.8069Z" fill="#003B79"/>
<path fill-rule="evenodd" clip-rule="evenodd" d="M86.981 34.6492L83.6448 39.6028H102.679L106.212 34.6492H86.981Z" fill="#003B79"/>
<path fill-rule="evenodd" clip-rule="evenodd" d="M93.9155 43.8068L90.2853 48.8579H83.2855L79.0674 55.0169H73.1797L80.8327 43.8068H93.9155Z" fill="#003B79"/>
<path fill-rule="evenodd" clip-rule="evenodd" d="M25.8889 43.7093L21.212 50.0315L21.0813 50.2589L20.7866 50.8786L20.6233 51.3018L20.4927 51.7258L20.362 52.2147L20.3293 52.6712V53.1268L20.3947 53.355L20.46 53.5508L20.656 53.9422L20.7866 54.1372L20.918 54.3004L21.0813 54.4304L21.2447 54.5612L21.4414 54.6911L21.6374 54.7894L21.8333 54.8869L22.0301 54.9526L22.2587 55.0176L22.4874 55.0501L23.5341 55.0826H30.7952L38.1208 55.0501L41.2929 50.4547H28.4723L28.309 50.4222L28.1783 50.3572L28.0796 50.2914L27.9489 50.0315L27.9163 49.8358L27.8836 49.7042L27.9163 49.5742L27.9489 49.4768L28.0469 49.3143L28.0796 49.2818L32.0371 43.7093H25.8889Z" fill="#003B79"/>
<path fill-rule="evenodd" clip-rule="evenodd" d="M52.1509 34.6817L48.7494 39.6353H29.1918L29.3886 39.3421L29.6498 39.0164L30.0099 38.5924L30.468 38.1027L30.9913 37.5821L31.6446 36.9949L32.3966 36.4084L32.7893 36.1485L33.2147 35.887L33.6074 35.6596L34.0001 35.4646L34.7521 35.1706L35.438 34.9432L36.0267 34.7792L36.4848 34.6817L36.9101 34.6167L52.1509 34.6817Z" fill="#003B79"/>
<path fill-rule="evenodd" clip-rule="evenodd" d="M24.4497 30.8037L25.6597 30.4122L26.1831 30.2823L26.6085 30.2173H26.8052L27.0012 30.2498L27.198 30.2823L27.3939 30.3472L27.5572 30.4447L27.7524 30.5755L27.9165 30.7387L28.1125 30.9336L28.4726 31.3251L28.7992 31.7816L29.0612 32.2055L29.2899 32.5629L29.552 33.1818L29.6499 33.4109L29.5193 33.5733L29.0612 33.9323L28.7012 34.1597L28.3085 34.3887L27.8504 34.617L27.3613 34.8119L26.6411 35.0401L25.9545 35.2034L25.267 35.3333L25.4311 34.7144L25.8238 33.5083L26.1504 32.7595L26.5432 31.8466L27.0012 30.8037L26.1178 30.7062L25.9218 30.9661L25.4638 31.6516L25.169 32.139L24.8751 32.727L24.5485 33.3459L24.221 34.0623L23.9916 34.617L23.7957 35.1709L23.469 36.2138L23.2723 36.9301L23.207 37.2241L23.763 37.1592L25.1037 36.9626L25.9218 36.8327L26.8052 36.6377L27.6218 36.4412L28.4064 36.2463L29.7479 35.7898L30.8273 35.3658L31.2535 35.1709L31.612 35.0076L31.9059 34.8119L32.1019 34.6819L32.2333 34.4862L32.3967 34.2572L32.5934 33.9323L32.7894 33.5408L33.018 33.0194L33.2148 32.433L33.3781 31.6841L33.5748 30.8362L33.6402 30.4447L33.6728 30.0873V29.3686L33.6402 28.7829L33.5748 28.2615L33.4769 27.8383L33.3781 27.5118L33.2801 27.2519L33.2148 27.2194L33.0515 27.2519L32.6587 27.3169L32.0692 27.5768L31.5467 27.8383L31.2862 28.0008L31.0241 28.2282L30.7947 28.4897L30.5987 28.7179L30.8273 29.2711L30.9261 29.5984L30.9914 29.9558L31.0241 30.2823L31.0568 30.6404L31.0241 30.9986L30.9588 31.3576L30.566 30.7712L30.1733 30.2498L29.7806 29.7933L29.4213 29.4351L29.0612 29.1086L28.7012 28.8479L28.3411 28.6522L28.0145 28.5222L27.5572 28.3923L27.0992 28.3273H26.6738L26.1831 28.3923L25.6597 28.5547L25.0384 28.7829L24.2864 29.0761L23.3711 29.4676L22.4223 29.9233L21.3429 30.4772L20.1982 31.0977L18.9881 31.7816L16.6333 33.1169L14.7039 34.2897L13.7878 34.8769L18.3668 33.0844L21.9642 31.7491L24.4497 30.8037Z" fill="#EE7D11"/>
<path fill-rule="evenodd" clip-rule="evenodd" d="M34.8586 24.9174L34.7518 24.9364L33.7712 25.2312L33.0845 25.4262L32.2982 25.7194L31.3821 26.0776L30.4023 26.5015L30.0104 26.7306L29.6169 26.958L28.8649 27.4794L28.3088 27.8709L28.1121 28.0658L28.7342 28.2608L28.8649 28.1308L29.2902 27.7734L29.9769 27.252L30.435 26.958L30.9583 26.664L31.6116 26.3391L32.2982 26.0126L33.6732 25.4262L34.6865 25.0355L34.9932 24.9174H34.8586Z" fill="#EE7D11"/>
</svg>
