<svg width="120" height="80" viewBox="0 0 120 80" fill="none" xmlns="http://www.w3.org/2000/svg">
<rect width="120" height="80" rx="4" fill="white"/>
<rect x="73.2" y="25.2" width="29.6" height="29.6" rx="14.8" fill="#FADC4A"/>
<path d="M92.9487 46.1936H83.2815L84.094 42.7099L82.5142 43.6828L82.898 41.7765L84.5504 40.7548L86.1713 33.8065H89.1892L88.0732 38.5775L92.0023 36.149L91.5419 38.1243L87.6134 40.543L86.8362 43.8664H93.4856L92.9487 46.1936Z" fill="#213D62"/>
<rect x="73.2" y="25.2" width="29.6" height="29.6" rx="14.8" stroke="#F7C544" stroke-width="2.4"/>
<rect x="17.2" y="25.2" width="29.6" height="29.6" rx="14.8" fill="#FADC4A"/>
<path d="M31.9984 43.7221L27.5427 40.9462L31.9977 47.5699L36.457 40.9462L31.9965 43.7221H31.9984ZM32.0005 32.4301L27.5427 40.1049L31.9999 42.8387L36.457 40.1074L32.0005 32.4301Z" fill="#213D62"/>
<rect x="17.2" y="25.2" width="29.6" height="29.6" rx="14.8" stroke="#F7C544" stroke-width="2.4"/>
<rect x="41.2" y="21.2" width="37.6" height="37.6" rx="18.8" fill="#FADC4A"/>
<path d="M64.9676 39.1822C66.1348 38.5824 66.8651 37.526 66.6945 35.7662C66.4647 33.3612 64.4063 32.5548 61.8077 32.3251L61.8072 28.9893H59.7938L59.7932 32.2374C59.2635 32.2374 58.7235 32.2479 58.1859 32.2588L58.1855 28.9897L56.1739 28.9895L56.1735 32.3246C55.7375 32.3335 55.3094 32.3421 54.8914 32.3421V32.3322L52.1143 32.3311L52.1146 34.4994C52.1146 34.4994 53.6015 34.4712 53.577 34.4986C54.3922 34.4992 54.6584 34.9767 54.7349 35.3889L54.7356 39.1892V44.5273C54.6997 44.786 54.5486 45.1993 53.9786 45.2001C54.0046 45.2231 52.514 45.1998 52.514 45.1998L52.1146 47.6245H54.7343C55.2225 47.6251 55.7021 47.6328 56.1726 47.6366L56.1744 51.0102L58.1855 51.0108L58.1849 47.6725C58.7382 47.6839 59.2722 47.6888 59.7939 47.6881L59.7933 51.0108H61.8067L61.8078 47.6428C65.1921 47.4467 67.5614 46.5867 67.8559 43.3806C68.0934 40.7995 66.8891 39.6473 64.9676 39.1822ZM58.2857 34.5148C59.4436 34.5148 63.0852 34.1459 63.0857 36.5654C63.0852 38.8849 59.4447 38.6139 58.2857 38.6139V34.5148ZM58.2857 45.4953L58.2865 40.7111C59.6124 40.7106 63.7709 40.2872 63.7714 43.1021C63.772 45.8016 59.6124 45.4942 58.2857 45.4953Z" fill="#213D62"/>
<rect x="41.2" y="21.2" width="37.6" height="37.6" rx="18.8" stroke="#F7C544" stroke-width="2.4"/>
</svg>
