<svg width="120" height="80" viewBox="0 0 120 80" fill="none" xmlns="http://www.w3.org/2000/svg">
<rect width="120" height="80" rx="4" fill="#25B9D4"/>
<path d="M75.0179 24.7331C74.7846 24.7198 74.5547 24.7946 74.3739 24.9428C74.1932 25.091 74.0747 25.3017 74.0419 25.5331L73.3939 29.0011C73.3774 29.1041 73.3843 29.2094 73.4143 29.3093C73.4442 29.4092 73.4962 29.5011 73.5666 29.578C73.637 29.6549 73.7239 29.7149 73.8207 29.7536C73.9176 29.7922 74.0219 29.8085 74.1259 29.8011H78.0539C78.2772 29.794 78.4913 29.7107 78.6608 29.5653C78.8303 29.4198 78.945 29.2207 78.9859 29.0011L79.6379 25.5331C79.669 25.432 79.6739 25.3247 79.6521 25.2212C79.6303 25.1178 79.5826 25.0215 79.5134 24.9415C79.4442 24.8616 79.3559 24.8005 79.2566 24.764C79.1573 24.7276 79.0504 24.7169 78.9459 24.7331H75.0179ZM40.0899 40.5171C40.0899 35.9051 37.5339 32.4371 32.1459 32.4371C25.9459 32.4371 21.9339 35.1571 20.5979 42.5251L20.1539 44.9691C20.0097 45.7487 19.9414 46.5404 19.9499 47.3331C19.9499 53.2851 24.3259 55.2571 27.9299 55.2571C30.6616 55.3081 33.3915 55.083 36.0779 54.5851C36.8459 54.4691 36.9699 54.1851 37.0899 53.5611L37.5779 50.9611C37.6579 50.4491 37.3339 50.3291 36.8059 50.3691C35.0619 50.5251 32.2699 50.8051 29.3099 50.8051C26.3499 50.8051 25.1739 49.3851 25.1739 47.2571C25.2027 46.7129 25.2709 46.1715 25.3779 45.6371H38.5779C39.1459 45.6371 39.4299 45.2851 39.5499 44.6531L39.8779 42.7651C40.0001 42.0218 40.067 41.2704 40.0779 40.5171M34.8099 40.4371C34.8059 40.9387 34.7604 41.4391 34.6739 41.9331H26.0699C26.5939 39.0531 28.0939 36.9251 31.3339 36.9251C33.5659 36.9251 34.8219 38.1491 34.8219 40.4331M67.7019 32.6731C67.7019 27.5491 63.7699 25.3451 56.4739 25.3451C54.201 25.3322 51.9297 25.4659 49.6739 25.7451C48.3379 25.9411 47.6739 26.4531 47.4459 27.8731L42.9499 52.7051C42.9027 52.9114 42.8746 53.1217 42.8659 53.3331C42.8659 54.2771 43.4339 54.6331 44.5259 54.8291C46.8203 55.168 49.1391 55.3138 51.4579 55.2651C60.1699 55.2651 65.5179 52.5051 65.5179 44.9771C65.5179 43.0051 64.5859 40.9971 62.5619 40.0931C66.4139 38.6331 67.7099 35.6371 67.7099 32.6811M50.5099 41.9851H55.6539C58.9379 41.9851 59.9539 43.4411 59.9539 45.2531C59.9539 49.4731 57.4379 50.7331 52.2539 50.7331C51.4019 50.7331 50.9939 50.6931 48.9299 50.6531L50.5099 41.9851ZM62.0579 32.8771C62.0579 35.6371 60.8579 37.9651 56.3859 37.9651H51.2459L52.7059 29.9651C53.5579 29.9251 54.7059 29.8891 55.6619 29.8891C60.3259 29.8891 62.0619 30.7171 62.0619 32.8811M73.0739 33.8571C72.8459 33.8467 72.6225 33.9236 72.4493 34.0723C72.2761 34.221 72.1661 34.4302 72.1419 34.6571L68.6219 54.1251C68.5379 54.6371 68.7819 54.9531 69.2699 54.9531H72.9979C73.1167 54.9658 73.2368 54.9541 73.351 54.9189C73.4651 54.8836 73.5709 54.8254 73.6618 54.748C73.7528 54.6705 73.827 54.5753 73.88 54.4682C73.9329 54.3612 73.9635 54.2444 73.9699 54.1251L77.4739 34.6451C77.5939 34.0131 77.2299 33.8451 76.7819 33.8451L73.0739 33.8571ZM85.1779 24.9491C85.0641 24.9399 84.9495 24.9532 84.8409 24.9885C84.7323 25.0238 84.6317 25.0803 84.545 25.1547C84.4583 25.2291 84.3873 25.3199 84.3359 25.4219C84.2846 25.524 84.254 25.6352 84.2459 25.7491L79.1019 54.1251C79.0179 54.6771 79.2619 54.9531 79.7459 54.9531H83.5179C84.2059 54.9531 84.3659 54.5531 84.4499 54.1251L89.5939 25.7491C89.7179 25.1571 89.4339 24.9491 88.9459 24.9491H85.1779ZM95.6059 24.9491C95.4921 24.9399 95.3775 24.9532 95.2689 24.9885C95.1603 25.0238 95.0597 25.0803 94.973 25.1547C94.8863 25.2291 94.8153 25.3199 94.7639 25.4219C94.7126 25.524 94.682 25.6352 94.6739 25.7491L89.5259 54.1251C89.4459 54.6771 89.6899 54.9531 90.1739 54.9531H93.9459C94.6339 54.9531 94.7939 54.5531 94.8779 54.1251L100.022 25.7491C100.146 25.1571 99.8619 24.9491 99.3739 24.9491H95.6059Z" fill="white"/>
</svg>
