<svg width="120" height="80" viewBox="0 0 120 80" fill="none" xmlns="http://www.w3.org/2000/svg">
<rect width="120" height="80" rx="4" fill="white"/>
<path fill-rule="evenodd" clip-rule="evenodd" d="M62.3999 56.7246C62.3999 56.9251 62.5535 57.0167 62.7185 57.0167C62.8948 57.0167 63.1281 56.8735 63.1281 56.6099C63.1281 56.4209 62.9914 56.3177 62.8379 56.3177C62.6331 56.3177 62.3999 56.4494 62.3999 56.7246ZM61.0345 56.7303C61.0345 56.9251 61.1825 57.0167 61.3418 57.0167C61.5409 57.0167 61.7571 56.8735 61.7571 56.6041C61.7571 56.415 61.6318 56.3177 61.4669 56.3177C61.2622 56.3177 61.0345 56.4494 61.0345 56.7303ZM63.5148 57.4619L63.1053 59.7987C62.9005 60.9798 62.1324 61.5207 61.0914 61.5207C60.2097 61.5207 59.527 60.9416 59.7262 59.8006L60.1357 57.4619H60.7673L60.3575 59.7987C60.2324 60.527 60.5567 60.9417 61.1711 60.9417C61.8025 60.9417 62.343 60.5632 62.4738 59.8006L62.8834 57.4619H63.5148Z" fill="#71706F"/>
<path fill-rule="evenodd" clip-rule="evenodd" d="M64.5973 60.1869C64.5746 60.6569 64.876 60.9607 65.3141 60.9607C65.8659 60.9607 66.4006 60.5307 66.4347 59.8774C66.4574 59.4015 66.1504 59.1206 65.7236 59.1206C65.1774 59.1206 64.6313 59.5621 64.5973 60.1869ZM65.0411 57.4619L64.7566 59.0766C65.0011 58.7443 65.4904 58.5685 65.8317 58.5685C66.5371 58.5685 67.0264 58.9851 67.0264 59.7588C67.0264 60.8537 66.2697 61.5121 65.3027 61.5121C64.9272 61.5121 64.6086 61.3715 64.4153 61.0162L64.3072 61.4376H63.7553L64.455 57.4619H65.0411Z" fill="#71706F"/>
<path fill-rule="evenodd" clip-rule="evenodd" d="M69.9744 59.7892C70.0198 59.3043 69.7354 59.107 69.2632 59.107C68.8367 59.107 68.4441 59.3043 68.2733 59.7892H69.9744ZM68.1767 60.274C68.1539 60.6619 68.4554 60.9786 68.9675 60.9786C69.2519 60.9786 69.6272 60.8665 69.832 60.6717L70.1507 61.0427C69.8037 61.3635 69.2917 61.5232 68.8594 61.5232C68.0516 61.5232 67.5794 61.0357 67.5794 60.2905C67.5794 59.2988 68.353 58.5598 69.3429 58.5598C70.2475 58.5598 70.7594 59.1104 70.4523 60.274H68.1767Z" fill="#71706F"/>
<path fill-rule="evenodd" clip-rule="evenodd" d="M72.0176 58.6255L71.9891 58.9993C72.2623 58.6378 72.5922 58.5641 72.8936 58.5641C73.1667 58.5641 73.4112 58.6618 73.5421 58.805L73.1895 59.321C73.0643 59.2067 72.9392 59.1493 72.723 59.1493C72.319 59.1493 71.9209 59.3934 71.8298 59.9151L71.5626 61.4376H70.9765L71.4714 58.6255H72.0176Z" fill="#71706F"/>
<path fill-rule="evenodd" clip-rule="evenodd" d="M76.3647 58.6255L76.6604 60.8494L77.7299 58.6255H78.3841L76.9165 61.4376H76.2281L75.9494 59.5825L75.4999 60.5041L75.0108 61.4376H74.3281L73.8331 58.6255H74.493L74.7833 60.8494L75.8583 58.6255H76.3647Z" fill="#71706F"/>
<path fill-rule="evenodd" clip-rule="evenodd" d="M80.9342 59.7892C80.9796 59.3043 80.6953 59.107 80.223 59.107C79.7965 59.107 79.404 59.3043 79.2332 59.7892H80.9342ZM79.1366 60.274C79.1138 60.6619 79.4153 60.9786 79.9273 60.9786C80.2118 60.9786 80.5871 60.8665 80.7919 60.6717L81.1105 61.0427C80.7636 61.3635 80.2515 61.5232 79.8192 61.5232C79.0115 61.5232 78.5392 61.0357 78.5392 60.2905C78.5392 59.2988 79.3129 58.5598 80.3027 58.5598C81.2073 58.5598 81.7193 59.1104 81.4121 60.274H79.1366Z" fill="#71706F"/>
<path fill-rule="evenodd" clip-rule="evenodd" d="M82.4997 57.8594C82.4997 58.06 82.6477 58.1635 82.807 58.1635C83.0345 58.1635 83.245 58.0142 83.245 57.7336C83.245 57.5442 83.1027 57.4352 82.9492 57.4352C82.7386 57.4352 82.4997 57.573 82.4997 57.8594ZM83.0173 58.6255L82.5226 61.4376H81.9365L82.4314 58.6255H83.0173Z" fill="#71706F"/>
<path fill-rule="evenodd" clip-rule="evenodd" d="M85.6176 59.3211C85.4355 59.1148 85.2023 59.0575 84.9236 59.0575C84.5366 59.0575 84.2637 59.1895 84.2637 59.4359C84.2637 59.6422 84.4854 59.7284 84.8155 59.7569C85.3274 59.8027 85.9816 59.9748 85.8451 60.7028C85.7485 61.2301 85.2251 61.5396 84.4969 61.5396C84.0419 61.5396 83.6037 61.4364 83.308 61.018L83.6891 60.5996C83.8995 60.8918 84.2694 61.0123 84.5992 61.018C84.8779 61.018 85.208 60.9148 85.2592 60.6512C85.3104 60.399 85.0885 60.3016 84.6789 60.2613C84.201 60.2154 83.6778 60.0379 83.6778 59.5047C83.6778 58.7995 84.4342 58.5531 85.0032 58.5531C85.4355 58.5531 85.7541 58.6505 86.0159 58.9315L85.6176 59.3211Z" fill="#71706F"/>
<path fill-rule="evenodd" clip-rule="evenodd" d="M87.4671 58.6255L87.1999 60.1399C87.1145 60.6215 87.3308 60.9543 87.8199 60.9543C88.2807 60.9543 88.6732 60.5697 88.7527 60.0997L89.0087 58.6255H89.5947L89.0999 61.4376H88.5708L88.6106 61.0302C88.2807 61.3454 87.9563 61.4941 87.5639 61.4941C86.8756 61.4941 86.466 60.9968 86.6138 60.143L86.8813 58.6255H87.4671Z" fill="#71706F"/>
<path fill-rule="evenodd" clip-rule="evenodd" d="M92.1672 61.4376L92.4346 59.9325C92.5198 59.4451 92.3551 59.1223 91.8203 59.1223C91.3538 59.1223 90.9611 59.5004 90.8816 59.9647L90.6256 61.4376H90.0397L90.5347 58.6255H91.0693L91.0295 59.0365C91.3538 58.7327 91.6893 58.5829 92.0534 58.5829C92.736 58.5829 93.18 59.0614 93.0264 59.9271L92.7589 61.4376H92.1672Z" fill="#71706F"/>
<path fill-rule="evenodd" clip-rule="evenodd" d="M94.3184 60.2042C94.3184 60.6855 94.6312 60.978 95.0809 60.978C96.2923 60.978 96.6167 59.1036 95.4048 59.1036C94.8303 59.1036 94.3184 59.5333 94.3184 60.2042ZM94.1533 61.8255C94.1136 62.2134 94.4093 62.3703 94.9044 62.3703C95.3368 62.3703 95.8033 62.127 95.9114 61.5081L95.9967 61.0251C95.7407 61.3863 95.2741 61.5288 94.9273 61.5288C94.2103 61.5288 93.7098 61.0987 93.7098 60.3189C93.7098 59.2071 94.5288 58.5648 95.456 58.5648C95.8488 58.5648 96.2015 58.7527 96.3267 59.0737L96.4234 58.6255H96.9922L96.5029 61.5212C96.321 62.5933 95.5301 62.926 94.8077 62.926C93.9428 62.926 93.4652 62.5043 93.5845 61.8255H94.1533Z" fill="#71706F"/>
<path fill-rule="evenodd" clip-rule="evenodd" d="M81.0363 40.0073H75.1418C74.4862 40.0073 73.9528 39.4809 73.9528 38.822C73.9528 38.1631 74.4862 37.583 75.1418 37.583H84.1158V33.1224H75.1418C72.0096 33.1224 69.4613 35.6954 69.4613 38.8436C69.4613 41.9919 72.0096 44.5649 75.1418 44.5649H80.9562C81.6119 44.5649 82.1453 45.0891 82.1453 45.748C82.1453 46.4069 81.6119 46.8921 80.9562 46.8921H68.488C67.4294 48.9285 66.4001 50.674 64.3105 51.5467H81.0363C84.1158 51.502 86.6348 48.8759 86.6348 45.7556C86.6348 42.6354 84.1158 40.052 81.0363 40.0073Z" fill="#71706F"/>
<path fill-rule="evenodd" clip-rule="evenodd" d="M58.4404 46.8921H53.8985V42.2991C53.8985 39.7325 55.9264 37.6443 58.4404 37.6443C60.9544 37.6443 62.9997 39.7325 62.9997 42.2991C62.9997 44.8658 60.9544 46.8921 58.4404 46.8921ZM58.4404 33.1224C53.4445 33.1224 49.3755 37.247 49.3755 42.3152V42.5091V61.4376H53.8985V51.5467H58.431C63.427 51.5467 67.4817 47.3672 67.4817 42.2991C67.4817 37.2309 63.4364 33.1224 58.4404 33.1224Z" fill="#71706F"/>
<path fill-rule="evenodd" clip-rule="evenodd" d="M35.0367 37.4237C33.2063 37.4237 31.6145 38.5528 30.8234 40.0073H39.2501C38.459 38.5528 36.8673 37.4237 35.0367 37.4237Z" fill="#C8036F"/>
<path fill-rule="evenodd" clip-rule="evenodd" d="M35.0561 51.5467C30.7795 51.5467 27.184 48.476 26.211 44.4643C26.211 44.4643 25.9299 43.138 25.9299 42.2646C25.9299 41.3912 26.196 40.0511 26.196 40.0511C27.176 36.0494 30.767 33.0695 35.0367 33.0695C40.0582 33.0695 44.1788 37.1828 44.1788 42.2427V44.4679H30.8374C31.6253 46.0194 33.2186 46.8922 35.0561 46.8922H47.0493L47.0658 33.7703C47.0658 31.814 45.4774 30.2134 43.5359 30.2134H26.5374C24.5959 30.2134 23.0073 31.7655 23.0073 33.7218V50.8504C23.0073 52.8067 24.5959 54.4558 26.5374 54.4558H43.5359C45.2782 54.4558 46.7317 53.1952 47.0125 51.5467H35.0561Z" fill="#C8036F"/>
<path fill-rule="evenodd" clip-rule="evenodd" d="M42.7353 24.6433C42.7353 20.4629 39.2874 17.074 35.0344 17.074C30.8518 17.074 27.45 20.352 27.3383 24.4367C27.3364 24.454 27.3379 24.4707 27.3379 24.4885V26.7632C27.3379 27.0353 27.5578 27.3043 27.8345 27.3043H30.6678C30.9445 27.3043 31.1872 27.0353 31.1872 26.7632V24.6433C31.1872 22.5558 32.9127 20.8573 35.0366 20.8573C37.1605 20.8573 38.8859 22.5558 38.8859 24.6433V26.7632C38.8859 27.0353 39.1105 27.3043 39.3872 27.3043H42.2205C42.4973 27.3043 42.7353 27.0353 42.7353 26.7632V24.6433Z" fill="#C8036F"/>
</svg>
