<svg width="120" height="80" viewBox="0 0 120 80" fill="none" xmlns="http://www.w3.org/2000/svg">
<rect width="120" height="80" rx="4" fill="white"/>
<path fill-rule="evenodd" clip-rule="evenodd" d="M15.5591 27.8525C15.5591 24.0978 18.6452 21.0536 22.4501 21.0536H97.5503C101.357 21.0536 104.441 24.0978 104.441 27.8525V52.1492C104.441 55.9016 101.357 58.9464 97.5503 58.9464H22.4501C18.6452 58.9464 15.5591 55.9016 15.5591 52.1492V27.8525Z" fill="#000268"/>
<path fill-rule="evenodd" clip-rule="evenodd" d="M18.3872 28.0851V51.9188C18.3872 54.2646 20.3162 56.1672 22.6957 56.1672H62.0413V23.8367H22.6957C20.3162 23.8367 18.3872 25.7392 18.3872 28.0851ZM72.2076 39.8829C72.2076 41.4003 71.4505 42.4432 70.1972 42.4432C69.0899 42.4432 68.1669 41.4003 68.1669 40.0107C68.1669 38.5843 68.9787 37.5239 70.1972 37.5239C71.4893 37.5239 72.2076 38.6211 72.2076 39.8829ZM64.8484 48.586H68.1669V43.4109H68.204C68.8326 44.5449 70.0876 44.9651 71.2491 44.9651C74.1072 44.9651 75.6378 42.6253 75.6378 39.8093C75.6378 37.5063 74.1814 34.9997 71.5247 34.9997C70.0135 34.9997 68.6118 35.6037 67.9461 36.939H67.909V35.2208H64.8484V48.586ZM80.1703 41.7289C80.1703 40.8155 81.0546 40.4693 82.1813 40.4693C82.6787 40.4693 83.1591 40.5039 83.5829 40.5236C83.5829 41.6384 82.79 42.7724 81.5349 42.7724C80.7602 42.7724 80.1703 42.3889 80.1703 41.7289ZM86.8643 44.7463C86.7177 43.9974 86.6806 43.2464 86.6806 42.4975V38.9502C86.6806 36.0432 84.5607 34.9997 82.1071 34.9997C80.6877 34.9997 79.4521 35.201 78.2712 35.6772L78.3277 37.909C79.2468 37.396 80.3186 37.1947 81.3883 37.1947C82.5852 37.1947 83.563 37.5431 83.5829 38.8416C83.1591 38.7681 82.5675 38.7121 82.033 38.7121C80.2639 38.7121 77.0727 39.0605 77.0727 41.967C77.0727 44.0342 78.7687 44.9651 80.6684 44.9651C82.033 44.9651 82.9559 44.4369 83.7118 43.2464H83.7489C83.7489 43.7418 83.8031 44.2333 83.8231 44.7463H86.8643ZM88.3578 48.586C89.0407 48.733 89.7224 48.8071 90.423 48.8071C93.4665 48.8071 94.1847 46.4842 95.1254 44.0885L98.6492 35.2208H95.3285L93.3552 41.4371H93.3181L91.2524 35.2208H87.6761L91.5668 44.9651C91.3266 45.8067 90.7002 46.2829 89.8879 46.2829C89.4253 46.2829 89.0213 46.2269 88.5781 46.0816L88.3578 48.586Z" fill="white"/>
<path fill-rule="evenodd" clip-rule="evenodd" d="M26.4947 39.9021C26.4947 38.6035 27.141 37.5239 28.3766 37.5239C29.8702 37.5239 30.4966 38.7121 30.4966 39.7726C30.4966 41.2358 29.5558 42.2227 28.3766 42.2227C27.3811 42.2227 26.4947 41.3828 26.4947 39.9021ZM33.706 35.2208H30.6996V36.939H30.6648C29.962 35.7683 28.8177 34.9997 27.3988 34.9997C24.4118 34.9997 23.0649 37.1228 23.0649 39.9564C23.0649 42.7724 24.7067 44.7463 27.3419 44.7463C28.6716 44.7463 29.7783 44.2333 30.5707 43.1186H30.6078V43.6315C30.6078 45.4957 29.5752 46.3916 27.6584 46.3916C26.2744 46.3916 25.425 46.0991 24.4118 45.606L24.2458 48.203C25.0189 48.4779 26.3287 48.8071 27.9162 48.8071C31.7892 48.8071 33.706 47.5447 33.706 43.6315V35.2208ZM39.3165 31.2533H35.9964V33.6666H39.3165V31.2533ZM35.9981 44.7463H39.3165V35.2208H35.9981V44.7463ZM48.5599 35.11C48.2278 35.0562 47.8217 34.9997 47.4354 34.9997C45.9967 34.9997 45.1672 35.7683 44.595 36.9758H44.558V35.2208H41.5339V44.7463H44.8529V40.725C44.8529 38.8592 45.7211 37.7444 47.2694 37.7444C47.6579 37.7444 48.0248 37.7444 48.3939 37.8525L48.5599 35.11ZM54.2756 42.6621C52.745 42.6621 52.1186 41.4003 52.1186 39.9931C52.1186 38.5668 52.745 37.305 54.2756 37.305C55.8078 37.305 56.4348 38.5668 56.4348 39.9931C56.4348 41.4003 55.8078 42.6621 54.2756 42.6621ZM54.2756 44.9652C57.4479 44.9652 59.8645 43.1383 59.8645 39.9931C59.8645 36.8288 57.4479 34.9997 54.2756 34.9997C51.1037 34.9997 48.6888 36.8288 48.6888 39.9931C48.6888 43.1383 51.1037 44.9652 54.2756 44.9652Z" fill="#FF0007"/>
</svg>
