<svg width="120" height="80" viewBox="0 0 120 80" fill="none" xmlns="http://www.w3.org/2000/svg">
<rect width="120" height="80" rx="4" fill="#2B337B"/>
<path d="M35 48.3796H43.5211C44.9563 48.3796 46.0846 48.468 46.9079 48.6468C47.7311 48.8255 48.4749 49.1396 49.1392 49.5927C50.9788 50.8258 51.8977 52.6834 51.8977 55.1676C51.8977 57.3718 51.1377 59.1049 49.6158 60.3669C48.9713 60.9067 48.2348 61.293 47.4061 61.5295C46.5775 61.766 45.5575 61.8833 44.3443 61.8833H39.6072V69.4945H35V48.3796ZM39.6072 52.2791V58.2583H43.7233C44.9455 58.2583 45.8265 58.0416 46.3663 57.6083C47.0306 57.0686 47.3628 56.2742 47.3628 55.2253C47.3628 54.1656 46.9783 53.3767 46.2074 52.8568C45.6496 52.4722 44.7397 52.2791 43.4778 52.2791H39.6072Z" fill="white"/>
<path d="M69.3732 65.5951V69.4945H54.4396V48.3796H59.0468V65.5951H69.3732Z" fill="white"/>
<path d="M89.4339 48.3796V60.8579C89.4339 62.6578 89.2696 64.0497 88.9428 65.0318C87.8362 68.3446 85.0054 70 80.4506 70C77.9954 70 76.0655 69.5523 74.6592 68.6569C73.186 67.7127 72.213 66.375 71.7418 64.6418C71.5017 63.7266 71.3807 62.4466 71.3807 60.8001V48.3796H75.9879V61.1034C75.9879 62.712 76.2244 63.862 76.6955 64.5552C77.4087 65.6239 78.6886 66.1583 80.5373 66.1583C82.088 66.1583 83.1893 65.7738 83.8446 65.0029C84.4999 64.232 84.8267 62.9322 84.8267 61.1034V48.3796H89.4339Z" fill="white"/>
<path d="M109.177 54.6332H104.786C104.7 53.6023 104.317 52.8152 103.638 52.2718C102.959 51.7284 102.008 51.4558 100.786 51.4558C99.6971 51.4558 98.8522 51.6707 98.251 52.0985C97.6498 52.5264 97.3484 53.1257 97.3484 53.8966C97.3484 54.5899 97.6372 55.0899 98.2149 55.3986C98.7727 55.7073 100.188 56.1406 102.461 56.6985C104.858 57.296 106.519 57.8972 107.444 58.5038C109.148 59.6213 110 61.1756 110 63.1687C110 65.3549 109.142 67.0772 107.429 68.3391C105.918 69.4458 103.871 70 101.291 70C98.4225 70 96.193 69.3447 94.6043 68.0358C93.0156 66.727 92.1924 64.8639 92.1346 62.4466H96.7273C96.7941 63.6218 97.0974 64.492 97.6372 65.0607C98.4839 65.9651 99.7603 66.4183 101.464 66.4183C102.62 66.4183 103.535 66.1926 104.209 65.7395C104.969 65.2196 105.35 64.5119 105.35 63.6164C105.35 62.721 104.815 62.0657 103.746 61.6522C103.16 61.4212 101.773 61.0023 99.5869 60.3957C98.2203 60.0202 97.1516 59.6646 96.3807 59.327C95.6098 58.9894 94.9942 58.6139 94.5321 58.2005C93.4543 57.2383 92.9145 55.9095 92.9145 54.2144C92.9145 52.1834 93.7576 50.5748 95.4419 49.3905C96.8772 48.3796 98.7402 47.8741 101.031 47.8741C103.044 47.8741 104.728 48.2731 106.086 49.0728C108.041 50.2192 109.07 52.0714 109.177 54.6332Z" fill="white"/>
<path d="M17.607 10V25.6115H13.9571V15.5833H12.891H11.6985H10.524H10V13.0898C11.5413 13.0536 12.6977 12.7645 13.4692 12.2225C14.0601 11.8132 14.4757 11.0724 14.716 10H17.607ZM34.0135 10.1265L19.5765 36.1818H16.4867L30.996 10.1265H34.0135ZM42 33.2185V36.1818H29.5505C29.574 34.3027 30.1595 32.8029 31.3032 31.6827C31.7242 31.2608 32.1886 30.8723 32.6945 30.5172C33.2005 30.1622 34.3388 29.4241 36.1095 28.3038C36.9046 27.7979 37.4557 27.3434 37.7628 26.9396C38.07 26.5357 38.2236 26.0569 38.2236 25.5031C38.2236 24.877 38.0194 24.3738 37.6093 23.9944C37.1991 23.6149 36.6643 23.4252 36.0011 23.4252C34.3388 23.4252 33.4841 24.5391 33.4353 26.7679H29.93C29.93 26.599 29.93 26.4427 29.93 26.2981C29.93 24.4434 30.5208 22.9979 31.7007 21.9616C32.8445 20.9615 34.3207 20.4619 36.1276 20.4619C37.7303 20.4619 39.0674 20.8657 40.1389 21.6725C41.3315 22.5759 41.9277 23.7802 41.9277 25.2863C41.9277 26.599 41.4579 27.7319 40.5184 28.6832C40.0847 29.1051 39.1036 29.7918 37.5731 30.7431C35.9957 31.7188 34.8682 32.5436 34.1942 33.2185H42Z" fill="white"/>
</svg>
