<svg width="120" height="80" viewBox="0 0 120 80" fill="none" xmlns="http://www.w3.org/2000/svg">
<rect width="120" height="80" rx="4" fill="white"/>
<path fill-rule="evenodd" clip-rule="evenodd" d="M23.6001 12.7443V67.2557C23.6001 69.8651 25.7406 72 28.3567 72H61.0109C85.6977 72 96.4001 58.2179 96.4001 39.9288C96.4001 21.7346 85.6977 8 61.0109 8H28.3567C25.7406 8 23.6001 10.1349 23.6001 12.7443Z" fill="white"/>
<path fill-rule="evenodd" clip-rule="evenodd" d="M45.2002 21.4283V61.6H62.5782C78.3572 61.6 85.2002 52.6335 85.2002 39.9527C85.2002 27.816 78.3572 18.4 62.5782 18.4H48.2102C46.5406 18.4 45.2002 19.7722 45.2002 21.4283Z" fill="#CC0066"/>
<path fill-rule="evenodd" clip-rule="evenodd" d="M60.6001 12C87.5763 12 91.6001 29.2633 91.6001 39.5408C91.6001 57.3725 80.5763 67.2 60.6001 67.2H32.1715C29.6477 67.2 27.6001 65.1637 27.6001 62.6533V16.5467C27.6001 14.0366 29.6477 12 32.1715 12H60.6001ZM60.6001 13.5156H32.1715C30.4811 13.5156 29.1239 14.8654 29.1239 16.5467V62.6533C29.1239 64.3349 30.4811 65.6844 32.1715 65.6844H60.6001C79.6001 65.6844 90.0763 56.4018 90.0763 39.5408C90.0763 16.9019 71.6001 13.5156 60.6001 13.5156Z" fill="black"/>
<path fill-rule="evenodd" clip-rule="evenodd" d="M51.8526 34.4V34.4234C52.4917 34.4234 53.0817 34.5183 53.647 34.7074C54.2124 34.8964 54.6794 35.204 55.0973 35.5823C55.4906 35.9843 55.8102 36.4809 56.056 37.0484C56.2772 37.6395 56.4001 38.325 56.4001 39.1292C56.4001 39.8386 56.3018 40.477 56.1297 41.0682C55.9331 41.6593 55.6627 42.1793 55.294 42.6052C54.9252 43.0308 54.4582 43.3616 53.8928 43.6219C53.3275 43.8584 52.6638 44 51.9018 44H47.6001V34.4H51.8526ZM51.3364 36.2208H49.7632V42.2741H51.7051V42.2505C52.0247 42.2505 52.3196 42.2032 52.6392 42.1084C52.9342 42.014 53.2046 41.8485 53.4258 41.612C53.647 41.3756 53.8437 41.0918 53.9912 40.7135C54.1386 40.3349 54.2124 39.9095 54.2124 39.3657C54.2124 38.8927 54.1632 38.4432 54.0649 38.0651C53.9666 37.6868 53.7945 37.3321 53.5733 37.072C53.3521 36.8119 53.0571 36.5754 52.6884 36.4333C52.3197 36.2917 51.8772 36.2208 51.3364 36.2208Z" fill="white"/>
<path fill-rule="evenodd" clip-rule="evenodd" d="M71.9338 34.4L75.6001 44H73.3569L72.6094 41.8719H68.9431L68.171 44H66.0001L69.6905 34.4H71.9338ZM70.8242 36.7646H70.8003L69.5217 40.2877H72.0544L70.8242 36.7646Z" fill="white"/>
<path fill-rule="evenodd" clip-rule="evenodd" d="M64.2832 36.1971H59.2806V38.2542H63.8858V39.8857H59.2806V42.2266H64.4001V44H57.2001V34.4H64.2832V36.1971Z" fill="white"/>
<path fill-rule="evenodd" clip-rule="evenodd" d="M78.6327 34.4V42.2267H83.6001V44H76.4001V34.4H78.6327Z" fill="white"/>
<path fill-rule="evenodd" clip-rule="evenodd" d="M37.2002 46.4C38.9579 46.4 40.4002 47.8826 40.4002 49.7414V61.6H40.3777C36.8396 61.6 34.0002 58.6118 34.0002 54.9413V49.7414C34.0002 47.9061 35.4199 46.4 37.2002 46.4ZM37.6002 35.2C40.0303 35.2 42.0002 37.1701 42.0002 39.6C42.0002 42.0301 40.0303 44 37.6002 44C35.1701 44 33.2002 42.0301 33.2002 39.6C33.2002 37.1701 35.1701 35.2 37.6002 35.2Z" fill="black"/>
</svg>
