<svg xmlns="http://www.w3.org/2000/svg" xmlns:xlink="http://www.w3.org/1999/xlink" width="120" height="80"><defs><linearGradient id="a" x1="87.55" x2="82.31" y1="15.45" y2="21.86" gradientTransform="translate(0 24)" gradientUnits="userSpaceOnUse"><stop offset=".02" stop-color="#1d1c1c" stop-opacity="0"/><stop offset=".68" stop-color="#1d1c1c"/></linearGradient><linearGradient xlink:href="#a" id="b" x1="78.41" x2="83.78" y1="16.81" y2="11.5"/></defs><rect width="120" height="80" fill="#fff48d" rx="4" ry="4"/><path fill="#fff" d="M8.05 24.13v31.73c0 1.52 1.25 2.76 2.78 2.76h19.05c14.4 0 20.65-8.02 20.65-18.67s-6.24-18.59-20.65-18.59H10.83c-1.53 0-2.78 1.24-2.78 2.76Z"/><path fill="#c06" d="M20.8 29.16v23.45h10.25c9.31 0 13.35-5.23 13.35-12.64s-4.04-12.58-13.35-12.58h-8.48c-.98 0-1.78.8-1.78 1.77Z"/><path fill="#232323" fill-rule="evenodd" d="M13.31 56.1h16.57c11.64 0 18.07-5.73 18.07-16.13 0-5.99-2.35-16.06-18.07-16.06H13.31c-1.47 0-2.66 1.19-2.66 2.65v26.89c0 1.46 1.19 2.65 2.66 2.65m-1.78-29.54c0-.98.79-1.77 1.78-1.77h16.57c6.41 0 17.18 1.98 17.18 15.18 0 9.83-6.1 15.25-17.18 15.25H13.31c-.98 0-1.78-.79-1.78-1.77z"/><path fill="#fff" fill-rule="evenodd" d="M25.85 36.56a3 3 0 0 0-.99-.17s-2.35-.01-2.35-.01v5.66h2.38c.42 0 .79-.08 1.1-.22.31-.15.57-.35.77-.6s.35-.56.46-.91q.15-.525.15-1.14c0-.47-.07-.88-.19-1.23-.13-.34-.31-.63-.53-.87-.23-.22-.49-.4-.8-.52Zm-.56 4.37c-.18.06-.34.08-.52.08s-1.07.01-1.07.01v-3.57h.87c.3 0 .54.04.75.13s.37.22.49.38.22.36.27.59c.05.22.08.49.08.77 0 .32-.04.57-.12.8-.08.22-.19.39-.31.53s-.27.24-.44.29Z"/><path fill="#fff" d="M32.27 36.4v1.05h-2.91v1.21h2.67v.96h-2.67V41h2.97v1.05h-4.18v-5.66h4.11Z"/><path fill="#fff" fill-rule="evenodd" d="m38.49 42.06-2.06-5.66h-1.26l-2.08 5.66h1.22l.44-1.26h2.06l.42 1.26zm-2.69-4.27.69 2.08h-1.42l.72-2.08z"/><path fill="#fff" d="M40.45 36.4v4.62h2.69v1.05h-3.89v-5.66h1.21Z"/><path fill="#232323" d="M16.04 42.15c1.47 0 2.66-1.19 2.66-2.66s-1.19-2.66-2.66-2.66-2.66 1.19-2.66 2.66 1.19 2.66 2.66 2.66m1.58 10.65c-2.06 0-3.71-1.78-3.71-3.97v-3.1c0-1.09.83-1.99 1.86-1.99s1.86.88 1.86 1.99v7.06h-.01Z"/><path fill="#1d1c1c" d="M99.85 40.13c0-3.11 2.21-5.95 6.04-5.95s6.06 2.84 6.06 5.95-2.21 5.95-6.06 5.95-6.04-2.84-6.04-5.95m8.74 0c0-1.5-.99-2.88-2.69-2.88s-2.69 1.39-2.69 2.88 1.01 2.89 2.69 2.89 2.69-1.39 2.69-2.89M97.5 42.34c1.27-.73 2.04-2.11 2.04-3.64 0-2.27-1.64-4.21-4.19-4.21H90v11.29h3.32V42.9h.62l1.9 2.88h3.9l-2.23-3.43Zm-2.82-2.05h-1.37V37.1h1.39c.89 0 1.47.73 1.47 1.6s-.59 1.6-1.48 1.6Zm-19.82-5.82-1.99 6.73-1.94-6.73h-2.64l-1.96 6.73-1.97-6.73h-3.5l4.01 11.27h2.88l1.86-6.13 1.84 6.13h2.89l4.01-11.27h-3.5Zm8.52 8.52c-1.24 0-2.11-.75-2.48-1.74h8.42c.07-.37.1-.75.1-1.14 0-3.1-2.21-5.94-6.04-5.94v3.06c1.25 0 2.11.75 2.48 1.74h-8.41c-.07.37-.1.75-.1 1.14 0 3.11 2.21 5.94 6.03 5.94z"/><path fill="url(#a)" d="M83.37 46.04h.38c.77-.04 1.48-.2 2.11-.45s1.18-.6 1.65-1.03c.47-.42.86-.92 1.16-1.47.27-.5.47-1.04.6-1.6h-3.51c-.07.15-.16.29-.25.43-.13.18-.28.35-.46.49a2.46 2.46 0 0 1-1.28.55c-.12.02-.25.03-.38.03-.79 0-1.43-.3-1.89-.78l-2.28 2.31c1.01.94 2.42 1.53 4.17 1.53Z"/><path fill="url(#b)" d="M83.37 34.17c-3.24 0-5.32 2.04-5.88 4.55h3.5c.42-.87 1.24-1.49 2.38-1.49.91 0 1.61.39 2.07.98l2.3-2.33c-1.03-1.04-2.51-1.71-4.37-1.71"/><path fill="#1d1c1c" d="M55.65 52.55a.47.47 0 0 1-.47-.47v-24.2a.47.47 0 1 1 .94 0v24.2c0 .26-.21.47-.47.47"/></svg>