<svg width="120" height="80" viewBox="0 0 120 80" fill="none" xmlns="http://www.w3.org/2000/svg">
<rect width="120" height="80" rx="4" fill="#FEB3C7"/>
<path fill-rule="evenodd" clip-rule="evenodd" d="M34.8156 49.53H39.0558V30.111H34.8156V49.53ZM61.6651 38.301V36.5641H61.6117L57.9111 36.5634L57.7033 36.5641V49.53H61.7135V42.7348C61.7135 40.7631 63.9927 39.8983 65.5569 40.3355C65.5724 40.34 65.588 40.3372 65.6042 40.3372V36.5645C63.9623 36.5645 62.4529 37.2607 61.6651 38.301ZM48.0247 46.5269C45.9474 46.5269 44.2637 44.969 44.2637 43.0469C44.2637 41.1248 45.9474 39.5669 48.0247 39.5669C50.1018 39.5669 51.7858 41.1248 51.7858 43.0469C51.7858 44.969 50.1018 46.5269 48.0247 46.5269ZM51.748 37.4624C50.604 36.6714 49.2076 36.2048 47.6989 36.2048C43.8262 36.2048 40.6868 39.2683 40.6868 43.0469C40.6868 46.8255 43.8262 49.889 47.6989 49.889C49.2076 49.889 50.604 49.4224 51.748 48.6317V49.53H55.2118V36.5641H51.748V37.4624ZM75.52 36.2148C73.9303 36.2148 72.4262 36.6962 71.4207 38.0245V36.5641H71.3674L67.6668 36.5634L67.459 36.5641V49.53H71.4691V42.4379C71.4691 40.4662 72.8245 39.5007 74.4562 39.5007C76.2049 39.5007 77.21 40.52 77.21 42.411V49.53H81.1841V41.2845C81.1841 38.2665 78.7251 36.2148 75.52 36.2148ZM101.339 44.9307C99.9599 44.9307 98.8417 46.0217 98.8417 47.3676C98.8417 48.7131 99.9599 49.8041 101.339 49.8041C102.718 49.8041 103.837 48.7131 103.837 47.3676C103.837 46.0217 102.718 44.9307 101.339 44.9307ZM89.9279 46.5269C87.8506 46.5269 86.1669 44.969 86.1669 43.0469C86.1669 41.1248 87.8506 39.5669 89.9279 39.5669C92.005 39.5669 93.6886 41.1248 93.6886 43.0469C93.6886 44.969 92.005 46.5269 89.9279 46.5269ZM93.6512 37.4624C92.5072 36.6714 91.1108 36.2048 89.6021 36.2048C85.7294 36.2048 82.5897 39.2683 82.5897 43.0469C82.5897 46.8255 85.7294 49.889 89.6021 49.889C91.1108 49.889 92.5072 49.4224 93.6512 48.6317V49.53H97.1146V36.5641H93.6512V37.4624ZM99.633 36.8007H99.8263C99.9476 36.8007 99.9992 36.8583 99.9992 36.9465C99.9992 37.0345 99.9656 37.1 99.8263 37.1H99.633V36.8007ZM99.6359 37.2583H99.8288L99.9914 37.6203H100.185L100.004 37.2279C100.12 37.1779 100.179 37.0796 100.179 36.9465C100.179 36.7627 100.035 36.6396 99.8263 36.6396H99.4577V37.6179H99.6359V37.2583ZM16.1631 49.53H20.5829V30.111H16.1631V49.53ZM31.9267 30.1127H27.6356C27.548 34.4965 24.9525 38.2807 21.1897 40.1534L27.7833 49.53H33.1672L27.1737 41.001C30.1664 38.1365 31.8663 34.2752 31.9267 30.1127ZM99.7825 36.3931C100.203 36.3931 100.543 36.7303 100.543 37.1452C100.543 37.56 100.203 37.8969 99.7825 37.8969C99.3627 37.8969 99.0223 37.56 99.0223 37.1452C99.0223 36.7303 99.3627 36.3931 99.7825 36.3931ZM99.7825 38.0755C100.303 38.0755 100.726 37.6579 100.726 37.1452C100.726 36.6321 100.303 36.2148 99.7825 36.2148C99.2619 36.2148 98.8417 36.6321 98.8417 37.1452C98.8417 37.6579 99.2619 38.0755 99.7825 38.0755Z" fill="black"/>
</svg>
