<svg width="120" height="80" viewBox="0 0 120 80" fill="none" xmlns="http://www.w3.org/2000/svg">
<rect width="120" height="80" rx="4" fill="#FFA8CD"/>
<path d="M87.6968 45.2654C86.1156 45.2654 84.8831 43.9578 84.8831 42.37C84.8831 40.7822 86.1156 39.4746 87.6968 39.4746C89.2781 39.4746 90.5105 40.7822 90.5105 42.37C90.5105 43.9578 89.2781 45.2654 87.6968 45.2654ZM86.9059 48.3243C88.2548 48.3243 89.9757 47.8106 90.9295 45.8025L91.0222 45.8492C90.6039 46.9466 90.6038 47.6005 90.6038 47.7639V48.0207H93.9987V36.7193H90.6038V36.9762C90.6038 37.1396 90.6039 37.7934 91.0222 38.8908L90.9295 38.9375C89.9757 36.9294 88.2548 36.4157 86.9059 36.4157C83.6739 36.4157 81.395 38.9843 81.395 42.37C81.395 45.7557 83.6739 48.3243 86.9059 48.3243ZM75.488 36.4157C73.9532 36.4157 72.7439 36.9528 71.7672 38.9375L71.6742 38.8908C72.0928 37.7934 72.0928 37.1396 72.0928 36.9762V36.7193H68.6976V48.0207H72.1858V42.0664C72.1858 40.502 73.0928 39.5213 74.5578 39.5213C76.0229 39.5213 76.7438 40.3619 76.7438 42.0431V48.0207H80.232V40.8289C80.232 38.2604 78.2318 36.4157 75.488 36.4157ZM63.6513 38.9375L63.5582 38.8908C63.9768 37.7934 63.9768 37.1396 63.9768 36.9762V36.7193H60.5816V48.0207H64.0698L64.0931 42.5801C64.0931 40.9924 64.9302 40.035 66.3023 40.035C66.6744 40.035 66.9767 40.0817 67.3255 40.1751V36.7193C65.7907 36.3924 64.4187 36.9762 63.6513 38.9375ZM52.5587 45.2654C50.9773 45.2654 49.7448 43.9578 49.7448 42.37C49.7448 40.7822 50.9773 39.4746 52.5587 39.4746C54.14 39.4746 55.3725 40.7822 55.3725 42.37C55.3725 43.9578 54.14 45.2654 52.5587 45.2654ZM51.768 48.3243C53.1168 48.3243 54.8376 47.8106 55.7911 45.8025L55.8841 45.8492C55.4655 46.9466 55.4655 47.6005 55.4655 47.7639V48.0207H58.8607V36.7193H55.4655V36.9762C55.4655 37.1396 55.4655 37.7934 55.8841 38.8908L55.7911 38.9375C54.8376 36.9294 53.1168 36.4157 51.768 36.4157C48.5355 36.4157 46.2565 38.9843 46.2565 42.37C46.2565 45.7557 48.5355 48.3243 51.768 48.3243ZM41.3962 48.0207H44.8845V31.6757H41.3962V48.0207ZM38.8382 31.6757H35.2802C35.2802 34.5944 33.4896 37.2096 30.7687 39.0776L29.699 39.8249V31.6757H26.0015V48.0207H29.699V39.9182L35.815 48.0207H40.3265L34.443 40.2685C37.1173 38.3305 38.8614 35.3183 38.8382 31.6757Z" fill="#0B051D"/>
</svg>
