<svg width="120" height="80" viewBox="0 0 120 80" fill="none" xmlns="http://www.w3.org/2000/svg">
<rect width="120" height="80" rx="4" fill="#FFA8CD"/>
<path d="M92.5714 46.1922C90.7118 46.1922 89.2625 44.6544 89.2625 42.7872C89.2625 40.9199 90.7118 39.3822 92.5714 39.3822C94.4309 39.3822 95.8803 40.9199 95.8803 42.7872C95.8803 44.6544 94.4309 46.1922 92.5714 46.1922ZM91.6412 49.7894C93.2276 49.7894 95.2514 49.1853 96.373 46.8237L96.482 46.8787C95.99 48.1692 95.99 48.9382 95.99 49.1304V49.4324H99.9824V36.1419H95.99V36.444C95.99 36.6362 95.99 37.4051 96.482 38.6957L96.373 38.7506C95.2514 36.3891 93.2276 35.7849 91.6412 35.7849C87.8404 35.7849 85.1604 38.8055 85.1604 42.7872C85.1604 46.7688 87.8404 49.7894 91.6412 49.7894ZM78.2138 35.7849C76.4088 35.7849 74.9867 36.4165 73.8381 38.7506L73.7288 38.6957C74.221 37.4051 74.221 36.6362 74.221 36.444V36.1419H70.2282V49.4324H74.3304V42.4302C74.3304 40.5904 75.397 39.4371 77.1199 39.4371C78.8428 39.4371 79.6906 40.4256 79.6906 42.4027V49.4324H83.7928V40.9748C83.7928 37.9543 81.4405 35.7849 78.2138 35.7849ZM64.2938 38.7506L64.1843 38.6957C64.6766 37.4051 64.6766 36.6362 64.6766 36.444V36.1419H60.6839V49.4324H64.786L64.8133 43.0343C64.8133 41.1671 65.7979 40.0412 67.4114 40.0412C67.849 40.0412 68.2045 40.0961 68.6147 40.206V36.1419C66.8097 35.7575 65.1962 36.444 64.2938 38.7506ZM51.2489 46.1922C49.3892 46.1922 47.9397 44.6544 47.9397 42.7872C47.9397 40.9199 49.3892 39.3822 51.2489 39.3822C53.1085 39.3822 54.5579 40.9199 54.5579 42.7872C54.5579 44.6544 53.1085 46.1922 51.2489 46.1922ZM50.319 49.7894C51.9052 49.7894 53.9289 49.1853 55.0502 46.8237L55.1595 46.8787C54.6673 48.1692 54.6673 48.9382 54.6673 49.1304V49.4324H58.6601V36.1419H54.6673V36.444C54.6673 36.6362 54.6673 37.4051 55.1595 38.6957L55.0502 38.7506C53.9289 36.3891 51.9052 35.7849 50.319 35.7849C46.5176 35.7849 43.8376 38.8055 43.8376 42.7872C43.8376 46.7688 46.5176 49.7894 50.319 49.7894ZM38.1219 49.4324H42.2241V30.2106H38.1219V49.4324ZM35.1136 30.2106H30.9294C30.9294 33.6431 28.8236 36.7186 25.6239 38.9153L24.3659 39.7941V30.2106H20.0176V49.4324H24.3659V39.9039L31.5584 49.4324H36.8639L29.9449 40.3158C33.0898 38.0367 35.141 34.4943 35.1136 30.2106Z" fill="#0B051D"/>
</svg>
