<svg width="120" height="80" viewBox="0 0 120 80" fill="none" xmlns="http://www.w3.org/2000/svg">
<rect width="120" height="80" rx="4" fill="white"/>
<path d="M88.6427 62.9833H81.6572V70.0935H88.6427V62.9833Z" fill="#E83C3A"/>
<path d="M85.836 64.1684H84.5262V68.8773H85.836V64.1684Z" fill="white"/>
<path d="M87.52 65.8836H82.811V67.1933H87.52V65.8836Z" fill="white"/>
<path d="M31.2002 63.9189V69.1268H34.4123L34.4434 68.2537H32.1669V63.9189H31.2002Z" fill="black"/>
<path d="M39.1212 63.9189H38.1545V67.2557C38.1545 68.0042 37.8114 68.3472 37.063 68.3472C36.3145 68.3472 35.9715 68.0042 35.9715 67.2557V63.9189H35.036V67.2557C35.036 68.5967 35.7532 69.2204 37.0942 69.2204C38.4351 69.2204 39.1212 68.5967 39.1212 67.2557V63.9189Z" fill="black"/>
<path d="M44.2355 69.1268V63.9189H43.3935V67.4428L43.0817 66.9751L40.9923 63.9189H40.1815V69.1268H41.0235V65.4782L41.3353 65.946L43.5806 69.1268H44.2355Z" fill="black"/>
<path d="M48.7262 64.0749C48.4455 63.9501 47.9465 63.8566 47.51 63.8566C45.8883 63.8566 45.1711 64.7297 45.1711 66.5073C45.1711 68.3784 45.9195 69.2516 47.4788 69.2516C47.9154 69.2516 48.4143 69.1268 48.7574 68.9709L48.6326 68.1601C48.3208 68.2848 47.9777 68.3784 47.5723 68.3784C46.5432 68.3784 46.169 67.9418 46.169 66.5073C46.169 65.1663 46.5432 64.7297 47.5723 64.7297C47.9777 64.7297 48.3519 64.8233 48.6326 64.9169L48.7262 64.0749Z" fill="black"/>
<path d="M53.591 69.1268V63.9189H52.6243V66.0083H50.5037V63.9189H49.5682V69.1268H50.5037V66.8815H52.6243V69.1268H53.591Z" fill="black"/>
<path d="M56.5224 66.4449H54.5889V67.0998H56.5224V66.4449Z" fill="black"/>
<path d="M60.8259 64.0749C60.5453 63.9501 60.0463 63.8566 59.6097 63.8566C57.9881 63.8566 57.2709 64.7297 57.2709 66.5073C57.2709 68.3784 58.0193 69.2516 59.5785 69.2516C60.0151 69.2516 60.5141 69.1268 60.8571 68.9709L60.7324 68.1601C60.4205 68.2848 60.0775 68.3784 59.6721 68.3784C58.643 68.3784 58.2688 67.9418 58.2688 66.5073C58.2688 65.1663 58.643 64.7297 59.6721 64.7297C60.0775 64.7297 60.4517 64.8233 60.7324 64.9169L60.8259 64.0749Z" fill="black"/>
<path d="M65.6908 69.1268V63.9189H64.7241V66.0083H62.6347V63.9189H61.6679V69.1268H62.6347V66.8815H64.7241V69.1268H65.6908Z" fill="black"/>
<path d="M67.8114 68.2848V66.8191H69.8384V66.0395H67.8114V64.7921H70.1814V63.9189H66.8447V69.1268H70.275L70.3062 68.2848H67.8114Z" fill="black"/>
<path d="M74.3914 64.0749C74.1108 63.9501 73.6118 63.8566 73.1752 63.8566C71.5536 63.8566 70.8363 64.7297 70.8363 66.5073C70.8363 68.3784 71.5848 69.2516 73.144 69.2516C73.5806 69.2516 74.0796 69.1268 74.4226 68.9709L74.2979 68.1601C73.986 68.2848 73.643 68.3784 73.2376 68.3784C72.2085 68.3784 71.8343 67.9418 71.8343 66.5073C71.8343 65.1663 72.2085 64.7297 73.2376 64.7297C73.643 64.7297 74.0172 64.8233 74.2979 64.9169L74.3914 64.0749Z" fill="black"/>
<path d="M79.4746 69.1268L77.697 66.3826L79.381 63.9189H78.2584L76.855 66.0395H76.2002V63.9189H75.2334V69.1268H76.2002V66.8503H76.8239L78.2895 69.1268H79.4746Z" fill="black"/>
<path d="M31.2634 20.9772C31.2634 20.6029 31.201 20.1975 31.201 19.7921C31.201 16.736 31.201 13.6799 31.201 10.5926C31.201 10.3743 31.1699 10.1248 31.1387 9.90649C50.1615 9.90649 69.1844 9.90649 88.2072 9.90649C88.675 9.90649 88.7686 10 88.7686 10.4678C88.7374 19.2308 88.7686 28.025 88.7686 36.788C88.5191 36.8815 88.3008 37.0063 88.2072 37.2869C88.176 37.3493 88.1137 37.3805 88.0513 37.3805C87.5835 37.4428 87.1157 37.2557 86.648 37.2557C86.2426 37.474 86.3673 37.7859 86.4297 38.1289C86.5856 38.7838 86.3985 39.158 85.7124 39.3139C85.2446 39.4387 84.7769 39.501 84.3091 39.5946C83.28 39.7505 82.2821 40.0312 81.4089 40.6549C80.754 41.1539 80.0056 41.3721 79.1948 41.3098C77.885 41.341 76.5752 41.185 75.2966 41.4345C75.2343 41.4345 75.1407 41.4033 75.1095 41.4657C74.9848 41.6216 75.1719 41.5593 75.2343 41.6216C75.4837 41.7152 75.7332 41.8711 76.0139 41.8711C76.2634 41.9335 76.5128 41.9958 76.7623 41.9958C78.4151 42.2453 80.0056 42.1518 81.3153 40.9356C81.9702 40.3119 82.7498 39.9376 83.623 39.7505C84.2467 39.5946 84.3715 39.7505 84.3403 40.3742C84.3091 40.6549 84.3091 40.9356 84.4962 41.1539C84.9328 41.6216 84.9328 42.2453 85.1511 42.8067C85.1823 42.9002 85.2135 43.025 85.1823 43.1185C84.7457 43.9605 85.2758 44.8025 85.1511 45.6133C85.1511 45.7069 85.1511 45.8316 85.2135 45.9252C85.8995 47.2661 85.5877 48.7942 85.9619 50.1975C86.0243 50.447 85.9307 50.6965 85.8372 50.9148C85.5565 51.4137 85.6189 51.9439 85.7124 52.474C85.806 52.9418 85.9619 53.3784 86.0243 53.8461C86.0243 53.9085 86.0243 53.9709 86.0243 54.0333C85.7436 54.5634 85.307 54.6258 84.8081 54.3763C83.6854 53.8773 82.5316 53.3472 81.5336 52.5987C80.9723 52.1933 80.3174 51.8815 79.7561 51.4137C79.07 50.8212 78.5711 50.1663 78.6646 49.2308C78.727 48.5447 78.2904 48.0457 77.9785 47.5468C76.3257 45.0208 74.3299 42.8067 71.6168 41.3721C71.3361 41.2162 70.9931 41.0915 70.8684 40.7484C70.8372 40.6237 70.8372 40.499 70.8684 40.343C71.1178 39.7505 71.2738 39.158 71.3361 38.5031C71.3985 37.7547 71.6792 37.0686 71.991 36.3826C72.1158 36.1643 72.2093 35.9148 72.2717 35.6653C72.5212 34.8857 72.6771 34.0749 72.7083 33.2329C72.7083 33.1393 72.7395 33.0458 72.8018 32.9522C73.3632 32.4844 73.5503 31.9855 73.3632 31.237C73.2072 30.5821 73.3943 29.8961 73.5191 29.21C73.6438 28.9293 74.1116 28.8358 73.8933 28.3992C73.8621 27.9938 74.0492 27.6819 74.3299 27.4325C74.9536 26.9959 74.9848 26.8711 74.517 26.1539C74.2675 25.499 74.0804 24.8753 74.2363 24.158C74.4235 23.815 74.3611 23.4408 74.2987 23.0666C74.3299 21.8503 74.6729 20.6965 75.1095 19.5738C75.2654 19.2308 75.2343 18.8878 74.8289 18.7318C73.6438 18.3264 72.833 17.3909 71.8663 16.6736C69.8081 15.1144 67.5004 14.3348 64.9432 14.1165C64.8497 14.1165 64.9744 14.1165 64.8808 14.1165C62.6979 14.3971 60.6085 14.9273 58.7998 16.2994C58.1449 16.7984 57.7707 17.4844 57.3964 18.2017C56.8975 19.1373 56.4609 20.104 55.9931 21.0395C55.3382 22.3805 55.0264 23.815 55.2759 25.3119C55.4942 26.5281 55.2759 27.7443 55.3694 28.9917C55.4318 29.9896 55.9619 30.8628 56.1179 31.8295C56.1179 31.8919 56.1802 31.9543 56.2114 31.9855C57.4588 33.3888 57.3341 34.9792 56.8975 36.6008C56.7727 37.0998 56.4609 37.2869 55.9307 37.2557C55.5565 37.2245 55.0888 37.0374 54.8393 37.5676C54.4339 38.0665 53.9661 38.4719 53.4048 38.7838C53.1865 38.7214 53.0617 38.8462 52.9682 39.0333C52.7811 39.4075 52.4692 39.6882 52.2197 40.0312C51.752 40.6861 51.1594 41.1227 50.3798 41.341C50.0368 41.4345 49.7249 41.5593 49.3819 41.7152C49.1012 41.8087 48.8518 41.9335 48.6023 42.0582C48.2281 42.2141 47.8538 42.3701 47.4796 42.526C47.2925 42.5884 47.1054 42.5884 46.9183 42.6819C46.7935 42.7443 46.7 42.869 46.6064 42.9626C46.4817 43.0561 46.357 43.0873 46.201 43.0873C45.6085 42.9626 45.2967 42.3701 44.7665 42.183C44.6418 42.0894 44.517 42.027 44.4235 41.9335C44.1116 41.7152 44.1428 41.4969 44.4547 41.3098C45.1719 40.8732 45.6709 40.1871 46.3258 39.6882C46.4817 39.5946 46.5129 39.4075 46.5441 39.2516C46.5752 39.0956 46.6376 38.9397 46.7312 38.815C47.1054 37.9418 47.3861 37.8171 48.0098 38.2536C47.9474 38.6279 47.9474 38.6279 47.7291 38.9085C47.8538 38.815 47.9474 38.6591 48.0409 38.5343C48.2904 38.2848 48.3528 37.973 48.4152 37.63C48.4775 37.3181 48.5399 37.0063 48.8518 36.8503C48.9765 36.788 49.1012 36.7568 49.226 36.7256C49.8185 36.4137 49.912 35.9148 49.8185 35.3534C49.7249 34.6986 49.7561 34.0749 49.6937 33.42C49.6002 32.5468 50.068 32.0478 50.754 31.736C52.2197 31.0187 52.937 29.7401 53.4983 28.3368C53.5919 28.1185 53.5919 27.9002 53.5607 27.6508C53.3424 26.6528 53.4359 25.499 53.6542 24.3763C53.9973 22.7547 53.9349 21.1955 53.4048 19.6362C53.3736 19.5738 53.3736 19.5115 53.3736 19.4491C53.2177 18.2641 52.9682 17.1414 51.9391 16.393C51.6896 16.2059 51.5337 15.9564 51.4713 15.6757C51.2842 14.4283 50.411 13.867 49.3507 13.4928C48.6335 13.2433 47.9474 12.9938 47.2925 12.6196C46.7312 12.3077 46.0451 12.3389 45.4526 12.0894C45.1096 11.9335 44.7041 11.84 44.3299 11.7152C43.6439 11.4969 42.989 11.5593 42.3653 11.9647C42.3029 11.9959 42.2717 11.9959 42.2093 11.9959C41.9599 11.9335 41.6792 11.7464 41.5545 12.1518C41.4921 12.2142 41.4297 12.2766 41.3362 12.3077C40.3071 12.4637 39.4339 12.8379 38.6231 13.524C38.1865 13.867 37.5628 13.9605 36.9703 13.9605C36.1906 13.9605 35.5046 14.1477 35.1615 14.9896C35.0992 15.2079 34.9121 15.3015 34.7249 15.4262C34.4443 15.6445 34.1948 15.8628 34.1012 16.237C34.0389 16.5489 33.7894 16.6736 33.4775 16.7984C32.5108 17.2038 32.0742 17.9834 32.1678 19.0125C32.199 19.2308 32.1366 19.4803 32.1678 19.6986C32.1678 19.8857 32.199 20.0416 32.1054 20.1975C32.0119 20.3223 31.9183 20.4782 31.8247 20.6029C31.6688 20.7901 31.5441 21.0084 31.2634 20.9772Z" fill="#0092D8"/>
<path d="M31.1387 61.58C31.1387 54.2516 31.1387 46.9231 31.1387 39.5946C31.1387 34.2308 31.1699 28.867 31.1699 23.5032C31.1699 23.3161 31.201 23.1601 31.201 23.0042C31.5129 23.1913 31.4505 23.5032 31.4505 23.7838C31.4505 27.0894 31.4505 30.3951 31.4505 33.7007C31.4505 35.0416 31.4505 36.4138 31.4505 37.7547C31.4505 38.1601 31.5753 38.3784 32.0119 38.4096C32.3549 38.4096 32.6667 38.5031 32.9786 38.6279C33.1969 38.7214 33.384 38.8462 33.6023 38.9397C33.7894 39.0333 33.9765 39.1268 34.1636 39.1892C34.4755 39.3451 34.7873 39.4699 35.0368 39.7194C35.1927 39.8753 35.3486 40.0312 35.5358 40.1248C35.8476 40.3742 36.0659 40.7173 36.4089 40.9356C36.596 41.0915 36.8143 41.2162 37.0326 41.3098C37.095 41.341 37.1262 41.3722 37.1574 41.4034C37.4069 41.7464 37.7187 42.0271 38.0306 42.3389C38.1553 42.4948 38.3112 42.6196 38.436 42.7755C38.6231 43.0873 38.8102 43.3992 39.1532 43.6175C39.4339 43.9293 39.621 44.2412 39.8393 44.6154C39.9017 44.8025 39.9952 44.9584 40.12 45.1144C40.2759 45.3638 40.463 45.6133 40.6189 45.8628C40.8372 46.0811 40.9308 46.4241 41.2426 46.5489C41.4921 46.8295 41.7104 47.1102 41.7728 47.5156C41.8351 47.8586 42.0846 48.1081 42.3341 48.3264C42.9578 49.106 43.6127 49.8545 43.9557 50.79C44.0493 50.946 44.1428 51.1019 44.3299 51.0395C44.4859 50.9771 44.4235 50.79 44.4235 50.6653C44.3923 49.605 44.2987 48.5759 44.1428 47.5156C44.0493 46.8919 44.0493 46.2682 43.8622 45.6757C43.7686 44.6154 43.5815 43.5863 43.3632 42.5572C43.3008 42.2765 43.1137 41.9023 43.4567 41.7152C43.7374 41.5281 43.9869 41.7776 44.2364 41.9335C44.3611 42.0271 44.517 42.1206 44.673 42.183C45.5773 42.7131 46.2946 43.4616 47.2301 43.9605C47.3237 44.0229 47.4172 44.0853 47.5108 44.1476C47.6355 44.3036 47.6667 44.4907 47.8226 44.6154C47.9786 44.7713 48.0721 44.9896 48.3216 45.0208C48.4463 45.0832 48.4775 45.1767 48.5087 45.3015C48.5711 45.6133 48.727 45.8628 48.9141 46.1123C48.9765 46.2058 49.0389 46.2994 49.0389 46.4241C49.0389 46.5801 49.1012 46.736 49.1948 46.8607C49.3195 46.9855 49.3819 47.1414 49.4131 47.2973C49.4131 47.5156 49.4755 47.7339 49.5378 47.921C49.569 48.0458 49.6314 48.1705 49.6626 48.2952C49.6937 48.42 49.7561 48.5447 49.7873 48.6695C49.8497 48.8254 49.8809 48.9813 49.9432 49.1372C50.068 49.4803 50.1303 49.8233 50.3486 50.104C50.3798 50.1663 50.3798 50.1975 50.411 50.2599C50.4734 50.7277 50.5669 51.1954 50.7852 51.6008C50.8788 51.8191 50.91 52.0686 51.0659 52.2869C51.1283 52.3805 51.1594 52.474 51.1594 52.5988C51.1283 52.8171 51.253 53.0354 51.3154 53.2225C51.6584 54.3139 52.1262 55.343 52.5316 56.4033C52.6563 56.8087 52.5316 57.1518 52.3757 57.526C52.3445 57.869 52.1885 58.1497 51.9391 58.3992C51.4089 59.0229 51.0035 59.7089 50.5669 60.395C50.3174 60.8004 50.0992 61.237 49.6626 61.4865H31.1387V61.58Z" fill="#E83C3A"/>
<path d="M71.0546 40.7485C71.6471 41.341 72.4579 41.5905 73.1128 42.0895C74.2667 42.9939 75.4205 43.867 76.3249 45.0521C77.1357 46.1124 77.9777 47.1103 78.6326 48.2641C78.7885 48.5136 78.9132 48.7319 78.882 49.0126C78.7573 50.1976 79.3186 50.9772 80.2542 51.5697C81.7823 52.5676 83.2791 53.5656 84.9943 54.2828C85.4621 54.4699 85.7427 54.4076 85.961 53.971C86.3664 54.2828 86.4288 54.7506 86.3041 55.1872C86.1482 55.8421 86.117 56.5281 86.0858 57.2142C86.0546 57.8691 86.3976 58.4304 86.6783 58.9917C87.0213 59.6154 87.3956 60.2392 87.8945 60.9252C87.3956 60.208 86.9901 59.5531 86.6159 58.867C86.2417 58.0562 85.9299 57.2142 86.1482 56.3098C86.2105 56.0915 86.1793 55.8109 86.46 55.7485C86.7407 55.7173 86.803 56.0292 86.8654 56.2163C87.1773 56.9335 87.5203 57.6508 87.9257 58.3057C87.9881 58.4304 88.144 58.5863 88.0504 58.7111C87.6762 59.1477 88.0816 59.3972 88.2999 59.6466C88.487 59.8649 88.6118 60.1144 88.7365 60.3951C88.7365 60.7693 88.8924 61.2994 88.7053 61.4865C88.5182 61.6737 87.9881 61.5177 87.6138 61.5177H86.9901C86.959 61.4866 86.8966 61.4242 86.8654 61.393C86.6159 60.7693 86.2417 60.208 85.961 59.5843C85.8363 59.1789 85.7116 58.7735 85.4933 58.3992C85.4309 58.2745 85.4309 58.1498 85.3997 58.025C85.2126 57.5572 85.3685 57.0583 85.3373 56.5593C85.3062 56.9024 85.3685 57.2454 85.1814 57.5572C84.8696 57.9626 84.3706 58.1809 83.9964 58.524C83.591 58.8982 82.9985 58.3992 82.5931 58.8046C83.591 58.9606 83.7157 59.3972 83.0608 60.8317C83.4039 60.0832 83.7469 59.8026 84.1211 59.9585C84.3706 60.052 84.5265 60.8317 84.3706 61.3306C84.3394 61.4242 84.2771 61.4554 84.2147 61.5177H78.7261C78.1648 60.894 78.2272 60.6446 79.0692 60.3015C78.539 60.3015 78.3519 60.052 78.6638 59.6778C79.0068 59.2412 78.9444 58.9294 78.6638 58.524C78.4455 58.2121 78.3207 57.9003 78.4455 57.4637C78.539 57.0583 78.2583 56.6841 78.196 56.2787C78.1648 56.1227 78.1336 55.998 78.1336 55.9044C78.2583 56.5593 78.0712 57.3078 78.2895 58.025C78.3207 58.9918 78.4766 59.9273 78.3207 60.894C78.2895 61.1123 78.2895 61.3618 78.1336 61.5489H74.3914C74.2979 61.2371 74.2979 60.894 74.2355 60.5822C74.2043 60.3639 74.2043 60.1456 74.1107 59.9585C74.0796 59.8649 74.0796 59.8026 74.0796 59.709C74.0484 59.8026 74.0796 59.8961 74.1107 59.9585C74.2355 60.2392 74.2043 60.551 74.2667 60.8628C74.2979 61.0811 74.3914 61.2994 74.2667 61.5177H68.5286C68.092 60.4574 67.9049 59.3348 67.6243 58.2433C67.5619 57.9938 67.5307 57.7132 67.4372 57.4637C67.406 57.4013 67.406 57.3389 67.3748 57.2766C67.3436 56.9959 67.3436 56.7464 67.25 56.4658C67.0941 55.6861 66.8758 54.9377 66.564 54.1893C66.2521 53.4408 66.3769 52.63 66.564 51.8504C67.1253 49.5427 67.406 47.235 67.3124 44.865C67.2812 43.9918 67.4683 43.1186 67.5931 42.2766C67.6866 41.6529 68.4974 40.9356 69.1211 40.998C69.8072 41.0604 70.3997 40.8733 71.0546 40.7485Z" fill="white"/>
<path d="M49.7871 61.58C50.5667 60.4574 51.1904 59.1788 52.126 58.1497C52.2819 57.9626 52.2507 57.7754 52.2819 57.5572C53.2175 56.9023 53.6852 55.842 54.3713 54.9688C54.9326 54.3139 55.3692 53.5655 55.9929 52.973C56.4295 52.5364 56.9597 52.2557 57.5834 52.1621C57.8952 52.0998 57.9576 52.0062 57.8328 51.7256C57.4586 50.79 57.6457 49.9792 58.4877 49.3867C58.6125 49.2931 58.7372 49.1684 58.8931 49.0436C58.9243 49.0125 58.9867 48.9813 59.0179 48.9501C59.3921 48.7006 59.8911 48.5759 60.1717 48.1393C60.3588 47.9522 60.6083 47.8898 60.7954 47.7027C61.0761 47.5156 61.2944 47.2349 61.6686 47.2349C61.9493 47.3597 61.6998 47.0478 61.8245 47.0166C61.9493 46.8607 62.0116 46.7048 62.1676 46.58C62.3859 46.4553 62.6041 46.3306 62.8224 46.2058C62.8848 46.1746 62.916 46.1746 62.9784 46.1434C63.2278 46.0811 63.4461 45.894 63.6644 45.8004C64.101 45.7069 64.4752 45.5509 64.8807 45.395C65.3172 45.2079 65.6915 45.2391 66.0033 45.6133C66.2216 45.8628 66.3463 46.1434 66.0657 46.4241C65.8786 46.4865 65.9098 46.6736 65.9098 46.7983C65.5979 47.4532 64.8807 47.578 64.3505 47.921C63.3838 48.5447 62.2923 49.0125 61.4815 49.8545C61.3567 49.9792 61.3256 50.1039 61.4503 50.2599C61.575 50.5093 61.7622 50.6029 62.0116 50.4782C62.8848 50.0416 63.7892 49.6673 64.3193 48.7942C64.8495 48.6071 65.2237 48.7006 65.5044 49.1372C65.8162 49.605 65.7538 50.1351 65.3172 50.5405C64.9118 50.9147 64.4441 51.2266 63.9139 51.4761C63.259 51.7879 62.6041 52.131 61.9804 52.474C61.9493 52.5052 61.9181 52.5052 61.8869 52.5364C61.9181 52.5364 61.9493 52.5364 62.0116 52.5052C62.2299 52.474 62.417 52.5364 62.6353 52.5364C63.0096 52.5987 63.3214 52.3493 63.6956 52.3493C63.7892 52.3493 63.8515 52.3804 63.9451 52.4116C64.0075 52.4428 64.0387 52.474 64.0698 52.5052C64.0698 52.4116 63.9763 52.3804 63.9763 52.3181C64.1322 51.7567 64.7559 51.4137 65.2861 51.6008C65.8474 51.7879 66.0969 52.3804 65.8474 52.9418C65.7538 53.1289 65.6291 53.2848 65.5044 53.4407C65.4732 53.4719 65.4108 53.5343 65.3484 53.5655C64.8183 53.5967 64.8183 53.5967 64.6624 53.1601C64.6624 53.8149 64.257 54.158 63.758 54.4387C63.4773 54.5946 63.2278 54.7505 63.0096 54.9688C62.7601 55.1247 62.5106 55.2806 62.2611 55.4678C61.2008 55.7796 60.4212 55.2495 60.3588 54.1892C60.3588 54.0956 60.4212 53.9397 60.2965 53.9085C59.7975 53.7526 59.548 53.3784 59.4233 52.8794C59.3609 52.6299 59.0179 52.5364 58.7996 52.5987C58.5813 52.6611 58.7372 52.9418 58.7684 53.0977C58.8619 53.659 59.0179 54.1268 59.6416 54.4075C60.2029 54.6258 60.1405 55.2806 60.1717 55.7796C60.2341 56.3098 60.2965 56.7152 60.889 56.9335C61.3256 57.0894 61.3567 57.526 61.1696 57.9002C60.7954 58.711 60.2965 59.4594 59.3921 59.8025C58.4877 60.1455 57.8017 60.8316 57.1468 61.5176H49.7871V61.58Z" fill="white"/>
<path d="M65.4119 53.5032C66.098 53.0978 66.1292 53.129 66.3475 53.8462C66.8153 55.2496 66.8776 56.7776 67.4078 58.1498C67.439 59.0853 67.6885 59.9897 68.0003 60.8629C68.0939 61.0812 68.2186 61.2995 68.125 61.5801H58.3953C58.1147 61.4242 58.177 61.2059 58.3018 60.9876C58.3953 60.8317 58.5201 60.7381 58.6448 60.6446C60.0481 59.7402 61.4515 58.8047 62.6677 57.682C62.8236 57.7132 62.73 57.5573 62.73 57.6508C62.73 57.682 62.73 57.682 62.6677 57.682C62.1687 57.6196 61.8257 57.3078 61.545 56.9336C61.2332 56.5593 61.3891 56.0292 61.7945 55.7485C61.9504 55.6238 62.1375 55.6238 62.2934 55.5302C62.5117 55.2808 62.8236 55.156 63.1354 55.0313C63.7591 55.0936 64.2269 54.8442 64.4764 54.2516C64.6947 53.8151 65.1625 53.7839 65.4119 53.5032Z" fill="white"/>
<path d="M85.7751 50.9148C85.8998 50.5717 85.8998 50.2287 85.8375 49.8233C85.6815 49.106 85.6192 48.3888 85.5568 47.6715C85.5256 47.1414 85.4944 46.58 85.1514 46.1434C84.9955 45.9563 85.0267 45.7069 85.0267 45.4886C85.0578 45.052 85.0578 44.6154 84.9019 44.21C84.8395 44.0852 84.8084 43.9293 84.8395 43.8669C85.1826 43.3368 84.9955 42.8067 84.8707 42.2453C84.8084 41.9647 84.7772 41.7464 84.5589 41.5593C84.247 41.2162 84.1223 40.8108 84.2782 40.343C84.403 39.9688 84.2782 39.8753 83.8728 39.9688C83.062 40.1559 82.2512 40.4366 81.6587 41.0291C80.2865 42.4324 78.6025 42.526 76.7938 42.2453C76.7314 42.2141 76.7314 42.1518 76.7314 42.0894C76.9186 41.8087 77.2304 41.9647 77.4799 41.9335C77.6982 41.9023 77.9165 41.8711 78.166 41.8087C78.0412 41.4969 77.5423 41.8087 77.5423 41.3721C78.0724 41.2474 78.6337 41.2474 79.1639 41.3721C79.2574 41.4033 79.3198 41.4345 79.4134 41.4969C79.3822 41.4345 79.3198 41.4345 79.2886 41.4033C79.2574 41.341 79.2574 41.3098 79.3198 41.2786C80.1618 41.3098 80.8791 41.0291 81.5651 40.5302C82.6254 39.7817 83.904 39.5946 85.1514 39.4075C85.4009 39.3763 85.6504 39.3451 85.8998 39.2828C86.3988 39.158 86.5547 38.815 86.3676 38.316C86.2117 37.8794 86.1493 37.4428 86.7106 37.1934C86.8978 37.4117 86.8042 37.8171 87.2408 37.9418C87.2408 37.4428 87.4903 37.4117 87.8645 37.5988C88.0516 37.7235 88.2387 37.8794 88.2699 38.1289C88.3011 38.6279 88.6129 39.0021 88.8624 39.4387V41.185C88.457 41.3098 88.3011 40.9356 88.0204 40.7796C87.7397 40.6237 87.4591 40.2807 87.1784 40.7173C86.9289 41.0603 87.1161 41.4033 87.4279 41.6216C87.7086 41.8399 88.0204 41.9958 88.3635 42.1206C88.5506 42.183 88.7689 42.2453 88.8624 42.4324V42.6819C88.5506 42.9314 88.2699 42.6507 87.9892 42.5884C87.8333 42.5572 87.6774 42.4636 87.5215 42.4324C87.2408 42.4013 86.9601 42.1206 86.7106 42.4636C86.5235 42.7131 86.6795 43.3368 86.9913 43.5239C87.3655 43.7734 87.7709 44.0229 88.2387 44.0852C88.4882 44.1164 88.7377 44.1476 88.8624 44.4283V45.052C88.2075 45.1143 87.615 44.8025 86.9913 44.6778C86.773 44.6154 86.4924 44.3971 86.3364 44.6778C86.1805 44.9584 86.3988 45.1767 86.5859 45.395C87.2096 46.0499 87.9892 46.3929 88.8624 46.58V47.8274C88.6753 48.2017 88.3323 48.3888 87.9892 48.5759C87.4903 48.8565 87.1472 49.2308 87.1472 49.8545C87.2408 49.8233 87.3655 49.7921 87.4903 49.8545C87.5838 49.8857 87.6462 49.948 87.6462 50.0728C87.1472 50.5405 86.4923 50.8524 85.931 51.2578C85.7751 51.0707 85.7127 51.0083 85.7751 50.9148Z" fill="#0B0B0B"/>
<path d="M85.9311 51.0707C86.243 50.3846 87.0226 50.2911 87.5528 49.9169C87.8958 49.5738 88.3012 49.3243 88.8002 49.3243V59.4595C88.4883 59.4906 88.4571 59.21 88.3636 59.0229C87.4592 57.3389 86.5548 55.6237 86.0871 53.7526C86.0247 53.4096 85.8688 52.973 86.5237 53.1913C86.6796 53.2536 86.7419 53.1601 86.8043 53.0354C86.8979 52.8794 86.8667 52.7235 86.7731 52.5676C86.6484 52.3805 86.4301 52.3493 86.243 52.2557C85.5569 51.9751 85.4945 51.6632 85.9311 51.0707Z" fill="white"/>
<path d="M62.4178 55.5925C62.1059 55.842 61.5758 55.842 61.607 56.4033C61.6382 57.027 62.4802 57.6195 63.1662 57.4324C62.6049 57.9625 62.0436 58.4303 61.4822 58.8669C60.8897 59.3035 60.2972 59.7713 59.6423 60.1455C59.2993 60.3638 58.9563 60.6133 58.6132 60.8627C58.3637 61.0498 58.2702 61.2681 58.4261 61.5488H57.1787C57.1787 61.1746 57.4594 60.9563 57.6777 60.8004C58.239 60.3326 58.8003 59.8336 59.5488 59.6153C60.4531 59.3035 60.8585 58.4303 61.2016 57.6195C61.2951 57.4012 61.1392 57.1205 60.7962 57.0582C60.2348 56.9334 59.9854 56.3097 60.1101 55.7484C60.1413 55.5613 59.7671 55.3118 60.1101 55.0623C59.923 54.844 59.8294 54.5322 59.4552 54.4698C58.7068 54.3763 58.8315 53.659 58.7068 53.1912C58.6444 52.9729 58.5508 52.7546 58.5508 52.5052C59.2993 52.3804 59.424 52.5052 59.7671 53.316C59.923 53.6902 60.3284 53.8149 60.8585 53.7837C60.3596 54.3139 60.6091 54.7193 60.9521 55.0935C61.3263 55.5301 61.8253 55.5925 62.3554 55.4054C62.3866 55.3742 62.449 55.4365 62.4178 55.5925Z" fill="#0D0D0D"/>
<path d="M84.2784 61.58C84.2784 61.2681 84.3095 60.9563 84.2784 60.6444C84.2784 60.4261 84.4031 60.1455 84.0913 60.0831C83.7794 60.0207 83.5923 60.2079 83.4676 60.4885C83.3116 60.8004 83.1557 61.1434 82.8127 61.2993C82.9998 60.8627 83.2181 60.4573 83.3116 60.0207C83.4987 59.2099 83.2181 58.9293 82.3761 59.0852C82.3137 59.0852 82.2513 59.0852 82.189 59.054C82.3449 58.6174 82.8127 58.4615 83.0621 58.5239C83.873 58.7422 84.2472 58.1185 84.7773 57.8066C84.9021 57.7442 84.9956 57.6507 85.1204 57.5571C85.5258 57.5883 85.3386 57.9313 85.4322 58.1496C85.4322 58.212 85.4322 58.3056 85.4322 58.3679C85.4634 59.3347 85.2451 60.2702 85.3698 61.237C85.401 61.3617 85.3387 61.4864 85.2451 61.58H84.2784Z" fill="#191918"/>
<path d="M86.1487 53.6902C86.7101 55.499 87.5521 57.2142 88.4252 58.8981C88.5188 59.0853 88.5812 59.3035 88.7683 59.4595V60.4574C88.3005 59.9896 87.9263 59.4283 87.5209 58.9293C87.6768 58.6487 87.8639 59.0853 87.9887 58.8981C88.1134 58.711 87.8639 58.5863 87.7704 58.4304C87.3961 57.7755 87.0843 57.1206 86.8036 56.4033C86.7412 56.2162 86.7101 55.9668 86.4294 55.8108C86.1176 56.9023 86.367 57.9314 86.7724 58.8981C86.8036 59.0229 86.866 59.1476 86.6477 59.1788C85.7121 58.0873 85.8369 56.7776 86.0864 55.5302C86.2111 54.9376 86.0864 54.5011 85.9616 54.0021L85.9928 53.9709C85.9928 53.8462 85.8993 53.6902 86.1487 53.6902Z" fill="#1E1E1E"/>
<path d="M88.7999 46.4553C87.9267 46.5488 87.2718 46.1746 86.6481 45.5509C86.3363 45.2391 85.9621 45.0831 86.0556 44.553C86.0868 44.2412 86.2116 44.1476 86.4922 44.2412C87.2718 44.4906 88.0203 44.7089 88.7999 44.9584V46.4553Z" fill="#FEFEFE"/>
<path d="M88.8002 44.3036C88.2389 44.0853 87.584 44.0541 87.0226 43.6799C86.5237 43.3681 86.2118 42.682 86.4301 42.1518C86.5237 41.9336 86.6796 41.9647 86.8979 41.9647C87.5528 42.0271 88.1141 42.4637 88.8002 42.5261V44.3036Z" fill="#FEFEFE"/>
<path d="M78.384 56.3098C78.5088 56.8088 78.7583 57.2454 78.54 57.8067C78.4152 58.0562 78.6647 58.368 78.9142 58.5863C79.1948 58.867 79.4755 59.21 79.0077 59.6154C78.8518 59.7402 78.5712 59.9273 78.6959 60.1767C78.8206 60.395 79.0701 60.1767 79.2572 60.2079C79.3196 60.2391 79.4131 60.2079 79.5067 60.2079C78.4152 60.9252 78.4152 60.9252 78.7583 61.5801H78.1346C78.2905 60.395 78.1034 59.1788 78.1346 57.9938C78.041 57.526 78.1034 57.0271 78.1034 56.5593C78.1034 56.341 78.1657 56.2163 78.384 56.3098Z" fill="#1E1D1D"/>
<path d="M85.2769 61.5801C85.0898 60.5198 85.2769 59.4595 85.3081 58.368C85.4952 58.1497 85.5575 58.3369 85.6199 58.4928C85.807 58.867 85.8694 59.3036 86.0877 59.6778C86.3684 60.2703 86.5866 60.9252 87.0232 61.4242C87.0232 61.4865 87.0232 61.5177 87.0232 61.5801H85.2769Z" fill="#FCFCFC"/>
<path d="M88.7996 42.3077C88.2071 42.1518 87.6145 41.9335 87.1468 41.5281C86.7414 41.1851 86.7102 40.6861 87.0532 40.2807C87.2715 40.0312 87.4898 40.156 87.6457 40.2807C88.0511 40.5302 88.4254 40.7797 88.7996 41.0603V42.3077Z" fill="#FDFDFD"/>
<path d="M68.1544 61.58C67.6867 60.4886 67.2812 59.3971 67.2812 58.2121C67.4372 57.9626 67.1253 57.5572 67.5619 57.4324C67.9361 58.8046 68.3415 60.1767 68.5287 61.6112H68.1544V61.58Z" fill="#222221"/>
<path d="M87.3968 49.8233C86.8978 49.9792 86.8667 49.6674 86.9602 49.3555C87.0538 49.0125 87.2097 48.7006 87.6151 48.5447C88.0517 48.3576 88.3947 48.0146 88.8001 47.7339V49.106C88.3947 49.4802 87.8958 49.6674 87.3968 49.8233Z" fill="#FBFBFB"/>
<path d="M88.7998 39.314C88.3632 39.158 88.1761 38.7214 88.1449 38.3472C88.1138 38.0042 87.9266 37.8171 87.8019 37.5676C87.7395 37.2246 88.1138 37.474 88.1761 37.2869C88.1761 37.2558 88.1761 37.2246 88.2073 37.1622C88.4568 37.0063 88.6439 37.1622 88.831 37.2869V39.314H88.7998Z" fill="#FBFBFB"/>
<path d="M87.3975 49.8233C87.8341 49.5427 88.2706 49.2308 88.7696 49.0749V49.3244C88.3642 49.5739 87.9588 49.7921 87.5222 49.9169C87.491 49.8857 87.4286 49.8545 87.3975 49.8233Z" fill="#3E3D3C"/>
<path d="M88.8005 37.3182C88.5822 37.3805 88.3951 37.2246 88.1768 37.1934C88.2079 36.7568 88.4262 36.6945 88.8005 36.8192V37.3182Z" fill="#3B4449"/>
<path d="M74.2679 61.5801C74.2367 61.3618 74.2055 61.1435 74.1743 60.9564C74.2679 60.8316 74.1431 60.6445 74.2991 60.551C74.4238 60.894 74.3926 61.237 74.3926 61.6113H74.2679V61.5801Z" fill="#7A7A79"/>
<path d="M33.1655 38.815C32.6665 38.659 32.1364 38.5655 31.6374 38.6279C31.3256 38.659 31.232 38.5343 31.2632 38.2536C31.2632 38.1289 31.2632 38.0042 31.2632 37.8794C31.2632 33.1393 31.2632 28.4304 31.2632 23.6902C31.2632 23.472 31.232 23.2225 31.232 23.0042C31.3879 22.63 31.7933 22.5988 32.074 22.4428C32.2923 22.3181 32.6042 22.2246 32.5106 21.9439C32.3547 21.5697 32.1052 21.9127 31.8869 21.9439C31.6686 21.9751 31.4815 22.3181 31.2944 22.131C31.1073 21.9127 31.3568 21.6944 31.4503 21.4449C31.4191 21.1019 31.7933 20.8836 31.7933 20.5717C31.8245 20.4158 31.8869 20.2599 32.0428 20.1663C32.2299 20.0728 32.2923 19.9792 32.074 19.8545C31.9805 18.8878 31.8869 17.921 32.6977 17.1414C32.9784 16.8607 33.2902 16.6736 33.6333 16.5801C33.8204 16.5177 34.0075 16.393 34.0075 16.237C33.9451 15.6757 34.3817 15.5198 34.7247 15.2391C34.943 15.0832 35.1301 14.9585 35.1613 14.6466C35.2237 14.2412 36.3775 13.6175 36.7829 13.7422C37.1883 13.867 37.5314 13.6799 37.9056 13.5863C38.2486 13.5239 38.6852 13.6175 38.7164 13.0562C38.7164 13.025 38.7788 12.9626 38.81 12.9626C39.7143 12.8691 40.3692 11.9959 41.3671 12.183C41.6166 12.1518 41.8973 12.2454 42.1468 12.0894C42.2091 12.0582 42.1468 12.1206 42.1779 12.0582C42.2091 11.9959 42.521 12.0582 42.2715 11.8711C42.8016 11.4034 44.049 11.3722 44.7039 11.6217C45.3588 11.8711 45.9825 12.2454 46.731 12.183C47.0116 12.1518 47.3235 12.3389 47.5106 12.4637C48.1343 12.9314 48.9139 13.025 49.6 13.3056C50.6291 13.7422 51.5334 14.3348 51.627 15.6133C51.6582 15.9252 51.8453 16.1747 52.0948 16.3306C53.2174 17.079 53.4357 18.2641 53.4981 19.4803C52.9991 19.5426 52.9368 19.0749 52.6873 18.8254C52.5937 18.6071 52.6873 18.3888 52.5937 18.077C52.4378 18.4824 52.5937 18.7318 52.7808 18.9501C52.9991 19.1684 53.1239 19.5115 53.5293 19.5115C54.1218 20.8524 54.1842 22.2557 53.9659 23.6591C53.7476 25.0312 53.4669 26.4033 53.7788 27.8067C53.9659 28.6487 53.3734 29.3035 52.9991 29.9584C52.7497 30.395 52.5002 30.9252 52.0324 31.2058C51.627 31.4553 51.3775 31.9855 50.785 31.9543C50.7226 31.9543 50.5979 32.0166 50.5979 32.079C50.442 32.5156 49.6935 32.6092 49.8806 33.3264C50.0678 34.0749 49.8806 34.8545 50.0678 35.6341C50.1925 36.1642 49.8806 36.8503 49.2569 36.9751C49.0386 36.6944 49.3193 36.3825 49.1322 36.0083C48.9763 36.4137 49.1322 36.7879 48.9139 37.0686C48.5397 37.2869 48.6332 37.6923 48.5709 38.0042C48.5085 38.3472 48.4149 38.5655 48.1343 38.7526C47.8848 38.7526 47.9784 38.6279 48.0095 38.5031C47.9472 38.0042 47.573 38.3784 47.3858 38.2848C47.1675 38.1913 47.1987 38.4096 47.1675 38.5343C47.1364 38.7526 47.0428 38.9397 46.8869 39.0644C46.7933 39.1892 46.6374 38.9085 46.575 39.1268C46.4815 39.3763 46.6998 39.3139 46.7621 39.4075C46.731 39.5322 46.731 39.7505 46.6374 39.8129C45.7642 40.343 45.2964 41.341 44.2362 41.684C44.4856 41.8711 44.6727 42.027 44.891 42.1829C44.9222 42.3077 44.891 42.3701 44.7663 42.3077C44.7351 42.2765 44.7039 42.2765 44.6727 42.2453C44.2673 42.1206 43.8931 41.5592 43.5813 41.8087C43.3006 42.027 43.6436 42.6195 43.706 43.0249C43.8619 43.8981 44.049 44.7713 44.049 45.6445C44.1114 45.8004 44.1738 45.9563 43.9555 46.0811C43.6436 45.9563 43.6436 45.6757 43.6125 45.395C43.4565 44.2723 43.2694 43.1497 43.0199 41.9958C42.7393 42.1206 42.7705 42.4012 42.6769 42.5884C42.6145 42.7131 42.5834 42.8378 42.4274 42.8378C42.2403 42.8378 42.1779 42.6507 42.2091 42.526C42.4274 41.5904 42.1779 40.6237 42.2091 39.6881C42.2403 39.0333 42.8328 38.5031 42.9576 37.7859C43.0199 37.4428 43.1135 37.131 43.0511 36.7879C42.9888 36.3202 42.5522 36.1019 42.2403 36.4137C41.5231 37.1933 40.6187 37.2557 39.7143 37.3493C39.4649 37.3805 39.2154 37.4428 38.9971 37.5364C38.2798 37.8482 37.6561 37.7547 36.9077 37.5052C35.9721 37.1933 34.9742 37.3493 34.1322 37.9418C33.8516 38.1289 33.4461 38.1601 33.3838 38.5967C33.2902 38.7838 33.2902 38.8773 33.1655 38.815Z" fill="#0A0A0A"/>
<path d="M31.7628 20.5406C32.0123 20.9772 31.5757 21.1331 31.4198 21.4138C31.1703 21.3202 31.2327 21.1331 31.2638 20.9772C31.451 20.8524 31.6069 20.6965 31.7628 20.5406Z" fill="#454A4D"/>
<path d="M67.5629 57.4013C67.3446 57.6196 67.5318 57.9626 67.2823 58.1809C66.9392 57.2142 66.6586 56.2162 66.565 55.1871C66.5027 54.5946 66.222 54.0957 66.1284 53.5343C66.0349 53.0666 65.6607 53.5655 65.4112 53.5031C65.5359 53.2225 65.8166 53.0666 65.879 52.7547C65.9413 52.4117 65.8166 52.131 65.5983 51.9127C65.3488 51.6944 64.9746 51.632 64.7251 51.8503C64.538 52.0375 64.039 51.9439 64.1638 52.4429C64.195 52.5676 64.1326 52.63 64.0079 52.5988C63.8831 52.5676 63.7896 52.5676 63.6648 52.5364C63.3218 52.4117 63.0099 52.5052 62.6981 52.6612C62.511 52.9106 62.2615 52.5988 62.0744 52.7235C61.9185 52.7859 61.8873 52.6923 61.9185 52.5676C62.4174 52.0998 63.0411 51.8503 63.6648 51.5697C64.195 51.3202 64.7251 51.0083 65.1929 50.6653C65.6295 50.3535 65.8478 49.8857 65.5047 49.3555C65.2553 48.9501 64.881 48.763 64.4133 49.0125C63.9767 48.8254 63.6336 48.8878 63.2594 49.1996C62.9164 49.4803 62.4798 49.6674 62.1679 49.9792C62.012 50.1352 61.7937 50.2287 61.5442 50.1352C61.4507 50.0728 61.3883 50.0416 61.4507 49.9169C62.2615 49.0125 63.353 48.5136 64.3821 47.8899C64.9434 47.5468 65.5983 47.3597 66.0037 46.8296C66.0661 46.7048 65.879 46.5801 65.9725 46.4553C66.2844 46.393 66.2532 46.1747 66.1596 45.9876C66.0349 45.6757 65.8166 45.4574 65.4424 45.4886C65.2241 45.4886 65.037 45.5822 64.8498 45.6133C64.5068 45.4574 64.6316 45.1768 64.6316 44.9273C64.6316 44.1165 64.9122 43.368 64.8187 42.5572C64.7563 42.4013 64.6316 42.2766 64.6939 42.0894C65.0058 41.5905 65.0058 41.0292 65.0681 40.4678C65.1305 40.0624 64.8187 40 64.5068 39.9689C63.9143 39.9377 63.353 39.9065 62.7605 39.8753C61.5754 39.8129 60.4216 39.7194 59.2365 39.6882C58.8 39.6882 58.5817 39.8441 58.6128 40.3119C58.644 40.8109 58.6128 41.3098 58.6128 41.8088C58.6128 42.0894 58.6752 42.3077 58.9871 42.3701C59.1118 42.4325 59.2677 42.4948 59.1742 42.682C58.9871 42.8691 58.7376 42.9938 58.7376 43.3368C58.7688 45.2703 58.4569 47.1726 58.644 49.1061C58.6752 49.1996 58.7064 49.2932 58.6752 49.4179C57.8332 50.1352 57.5526 50.6965 58.1763 51.8503C58.3322 52.131 58.301 52.2869 57.8956 52.2869C56.617 52.3181 55.9309 53.1913 55.2761 54.1268C54.5588 55.1248 53.8104 56.0915 53.0619 57.0582C52.8748 57.2765 52.6565 57.526 52.3135 57.5572C52.4694 57.2142 52.6877 56.8711 52.5318 56.4657C52.4694 56.3722 52.5318 56.2786 52.563 56.2162C53.249 54.8441 54.4029 53.7838 55.1513 52.4429C55.432 51.9127 55.4943 51.289 55.9933 50.8836C56.0869 50.8524 56.1492 50.8212 56.2428 50.7901C56.6482 50.7277 56.8353 50.447 56.9912 50.1352C56.7417 50.2911 56.7106 50.6653 56.3675 50.7277C56.274 50.6965 56.2116 50.6341 56.1804 50.5406C56.1492 50.1664 56.3363 49.8233 56.4611 49.4803C56.5858 49.1684 56.6794 48.8566 56.8041 48.5447C57.0848 47.7651 56.8665 47.1414 56.2428 46.6113C56.2116 46.4242 56.3675 46.3618 56.5235 46.2994C57.7709 45.052 58.3634 43.5551 58.0827 41.7776C58.0203 41.4346 57.8644 41.2163 57.6461 40.9668C56.8353 40.0936 55.9309 39.314 55.1825 38.3784C55.0266 38.1601 54.8395 37.973 54.8083 37.6924C54.7147 37.4117 54.7459 37.1934 55.1201 37.1934C55.4008 37.1934 55.7126 37.131 55.9933 37.2246C56.5546 37.3805 56.6794 37.0998 56.8353 36.6633C57.3343 35.3535 56.9912 34.1061 56.7729 32.8275C56.7729 32.7963 56.7417 32.7339 56.7106 32.7339C55.6191 32.2038 55.8686 31.0188 55.4943 30.1456C55.0889 29.2412 55.2137 28.2121 55.2761 27.2142C55.3072 26.5593 55.2449 25.9044 55.1201 25.2495C54.933 24.1269 55.1201 23.0666 55.5255 22.0687C56.0245 20.7901 56.6482 19.5427 57.2719 18.2953C58.2074 16.4242 59.8291 15.3951 61.7625 14.8649C62.2303 14.7402 62.6669 14.5531 63.1347 14.4284C65.3176 13.8358 67.407 14.366 69.4029 15.2392C71.0245 15.9564 72.5214 16.9855 73.7999 18.2641C74.1118 18.576 74.5172 18.6695 74.9226 18.7943C75.2656 18.919 75.5463 19.1373 75.4216 19.4491C75.2656 19.8857 75.2968 20.3847 74.9538 20.7589C74.6419 21.1019 74.7979 21.5697 74.6731 21.9751C74.5484 22.3805 74.5172 22.8483 74.4548 23.2849C74.5172 23.4096 74.4548 23.4408 74.3613 23.472C74.0806 23.4096 74.0806 23.129 73.9871 22.9419C73.8311 22.63 73.6128 22.5053 73.2698 22.6612C72.4902 22.973 71.7417 22.973 70.9309 22.6924C69.5588 22.2246 68.249 21.5697 66.8457 21.2267C66.1284 21.0396 65.7542 21.1643 65.4735 21.7256C65.4424 21.8192 65.38 21.9128 65.4112 22.0063C65.6607 22.6924 65.2864 23.3473 65.2864 24.0021C65.2864 24.2516 65.0681 24.4387 64.881 24.5947C64.195 25.0624 63.9143 25.8109 63.8519 26.5905C63.8207 27.1206 63.7584 27.6508 63.696 28.2121C63.6336 28.6487 63.696 29.0229 63.9143 29.4283C64.6939 30.8317 64.7251 32.2662 64.1326 33.7319C63.9455 34.2308 63.8519 34.7298 63.7896 35.2599C63.696 35.8836 64.3509 37.0375 64.9122 37.287C65.0993 37.3493 65.2241 37.4117 65.2864 37.131C65.3488 36.8504 65.5047 36.6944 65.7542 36.6009C66.0972 36.5073 66.3467 36.3826 66.4715 36.9439C66.565 37.4429 66.7521 37.973 67.2823 38.2849C67.5318 38.4408 67.6877 38.815 67.8436 39.0957C68.1866 39.7194 68.7792 40.0936 69.3093 40.499C69.6523 40.7797 70.0889 40.7173 70.5255 40.6237C70.7126 40.5926 70.8997 40.4366 71.118 40.5926C71.118 40.6861 71.118 40.8109 71.118 40.9044C70.4943 41.4657 69.7147 41.341 68.9975 41.3722C68.7792 41.3722 68.4985 41.2474 68.5297 41.6529C68.5297 41.684 68.4673 41.7152 68.4361 41.7464C67.5941 42.4325 67.6565 43.4616 67.6565 44.3659C67.6253 47.0479 67.4694 49.6986 66.7833 52.3493C66.565 53.1913 66.5338 54.158 67.0952 54.9688C67.4382 55.499 67.3758 56.1227 67.4694 56.7152C67.6253 56.9335 67.4382 57.2453 67.5941 57.4636C67.5629 57.3389 67.5629 57.3701 67.5629 57.4013Z" fill="#0A0A0A"/>
<path d="M71.0559 40.4367C70.6193 40.5302 70.1827 40.8109 69.6837 40.655C69.4966 40.5926 69.2783 40.5614 69.1224 40.4367C68.3428 39.8442 67.6255 39.2205 67.2201 38.3161C67.1889 38.2537 67.2201 38.1913 67.1265 38.1602C66.4405 37.9731 66.4717 37.3182 66.2534 36.8504C66.191 36.7257 66.4093 36.4138 66.0663 36.5074C65.8168 36.5697 65.4114 36.4762 65.349 36.9439C65.3178 37.1622 65.3178 37.3494 65.2866 37.5676C64.5382 37.2246 64.0704 36.6009 63.6338 35.9772C63.3843 35.6342 63.5091 35.1976 63.6026 34.8234C63.7274 34.1997 63.8209 33.5448 64.0704 32.9523C64.5382 31.7672 64.3511 30.6758 63.7897 29.6155C63.4779 28.9918 63.322 28.3681 63.5715 27.682C63.7897 26.9648 63.4779 26.1851 63.8833 25.4991C64.1328 25.0313 64.2263 24.5011 64.85 24.314C65.0683 24.2517 65.1931 23.971 65.1307 23.8151C65.0371 23.472 65.1931 23.2537 65.2866 22.9731C65.3802 22.6612 65.1931 22.287 65.0995 21.944C65.0683 21.788 65.5049 21.0708 65.692 20.9461C65.9727 20.8213 66.2534 20.7901 66.534 20.8837C67.3137 21.102 68.0933 21.2891 68.8105 21.6321C69.4966 21.9752 70.245 22.0999 70.8999 22.4117C71.5548 22.7236 72.1785 22.6612 72.8646 22.5365C73.1141 22.4741 73.1452 22.1311 73.5195 22.2558C74.1743 22.4117 74.0184 22.9731 74.2679 23.3473C74.4238 23.6591 74.4862 24.0022 74.3926 24.3452C74.1432 25.0625 74.5486 25.7174 74.6421 26.3722C74.6421 26.7153 74.4238 26.8712 74.1744 26.9336C73.6442 27.0583 73.3324 27.4325 72.9893 27.8067C72.6151 28.5552 72.8646 29.1165 73.6442 29.2724C73.613 30.2392 73.3635 31.1747 73.6754 32.1415C73.8313 32.6404 73.1764 32.8275 72.927 33.1706C72.085 32.9523 71.929 32.2662 71.929 31.4554C71.7419 31.6425 71.7731 31.7984 71.7731 31.9544C71.7731 32.2974 71.6795 32.6404 71.3365 32.7652C70.9623 32.8587 70.8064 32.5469 70.6504 32.2662C70.6193 32.2038 70.5881 32.1415 70.5257 32.1415C70.1515 32.5781 70.2139 32.9211 70.6816 33.077C71.1806 33.2329 71.6795 33.2641 72.1785 33.4824C72.3968 33.576 72.6151 33.2641 72.8958 33.3577C72.9269 34.2309 72.771 35.104 72.3968 35.9148C72.085 36.1331 71.7731 36.0396 71.4613 35.8837C71.243 35.7901 71.0247 35.6342 70.8064 35.6965C70.0579 35.8525 69.3095 35.946 68.4051 35.9148C68.7793 36.2579 69.0912 36.4138 69.4342 36.445C70.2762 36.5385 71.1182 36.788 71.9602 36.4138C72.0538 36.3826 72.1161 36.4138 72.1785 36.4762C71.586 37.5988 71.6172 38.9086 71.2118 40.0936C71.1806 40.1872 71.1182 40.3119 71.0559 40.4367Z" fill="white"/>
<path d="M56.025 50.946C55.4949 51.9751 55.0894 53.0665 54.3098 53.9397C53.6861 54.6881 53.156 55.4678 52.6258 56.3098C52.4699 56.2474 52.3764 56.0915 52.3452 55.9356C52.0021 55 51.5967 54.0956 51.3161 53.1601C51.2849 52.973 51.1601 52.8482 51.1601 52.6611C51.1913 52.5676 51.1601 52.474 51.0354 52.4428C50.9107 52.2245 50.9418 51.9439 50.8171 51.7256C50.5364 51.289 50.5053 50.7588 50.3805 50.2911L50.4117 50.2287L50.3805 50.1663C50.1622 49.8545 50.0999 49.4491 49.9751 49.106C49.8816 48.9501 49.8504 48.7942 49.788 48.6071C49.7256 48.4823 49.6944 48.3264 49.6633 48.2017C49.6009 48.0457 49.5697 47.8898 49.445 47.7339C49.4762 47.5468 49.289 47.422 49.3826 47.2349C49.3202 47.1102 49.2579 47.0166 49.1955 46.8919C48.9772 46.7672 49.0396 46.5489 49.0084 46.3618C49.0084 46.2682 48.9772 46.2058 48.8836 46.2058C48.7589 45.8628 48.5406 45.5821 48.3847 45.2391C48.3535 45.1767 48.3223 45.1144 48.2599 45.0832C48.0728 44.9584 47.9481 44.8025 47.8233 44.6154C47.6674 44.4907 47.6051 44.3035 47.4803 44.1788C47.3868 44.1476 47.3244 44.1164 47.2308 44.0853C46.9814 43.6798 46.3888 43.6175 46.2329 43.0873C46.3888 43.025 46.5759 43.0873 46.6383 42.869C46.8254 42.8067 47.0125 42.7131 47.1685 42.6507C47.2932 42.6196 47.3868 42.5884 47.5115 42.5572C47.9169 42.3701 48.3223 42.2765 48.6965 42.0582C48.946 41.9023 49.2267 41.8087 49.5073 41.7152C50.3181 41.4033 51.1601 41.2162 51.8774 40.6861C52.0333 40.5613 52.2516 40.499 52.4387 40.6237C52.5011 40.6549 52.5323 40.7173 52.5635 40.7485C52.6258 40.9044 52.657 41.0915 52.7194 41.2474C52.8441 41.5281 52.8753 41.8087 52.9377 42.0894C53.4366 43.3368 54.341 44.3035 55.183 45.3015C55.526 45.6757 55.9626 45.9875 56.2121 46.4553C57.1477 47.2661 57.21 47.6403 56.7423 48.8254C56.524 49.3555 56.368 49.8857 56.1809 50.447C56.2433 50.6965 56.1497 50.8212 56.025 50.946Z" fill="white"/>
<path d="M54.8074 37.6611C55.6494 38.7526 56.6473 39.6882 57.6141 40.6549C58.0195 41.0603 58.2066 41.4969 58.269 42.1206C58.4249 43.711 57.8635 44.9896 56.8656 46.1123C56.8033 46.2058 56.7409 46.3306 56.6785 46.4241C56.5226 46.3306 56.3355 46.2682 56.2107 46.1434C54.9322 44.8337 53.7471 43.4615 52.9363 41.8087C52.9051 41.6216 52.7804 41.4345 52.718 41.2786C52.6245 41.1539 52.6557 40.9667 52.5309 40.842C52.2191 40.499 52.2191 40.1247 52.5621 39.8129C52.8739 39.501 52.9363 39.0021 53.4041 38.815C53.5288 38.8462 53.6848 38.815 53.7159 38.7214C53.9342 38.1913 54.4956 38.0665 54.8074 37.6611Z" fill="white"/>
<path d="M72.2092 36.4449C70.7435 37.0374 69.3714 36.6944 68.0928 35.8524C69.5273 35.7277 70.993 35.2911 72.4275 35.8524C72.3651 36.0395 72.4899 36.3202 72.2092 36.4449Z" fill="#131212"/>
<path d="M72.8955 33.2953C72.4901 33.5448 72.1471 33.7942 71.6481 33.3576C71.461 33.2017 71.0868 33.2641 70.8061 33.2329C70.4631 33.2017 70.2136 33.077 70.12 32.7339C70.0265 32.3597 70.2448 32.0791 70.4319 31.8296C70.5566 31.7048 70.7126 31.6425 70.7437 31.9543C70.7437 32.0167 70.7749 32.0791 70.8061 32.1414C70.8997 32.4221 70.962 32.7651 71.3362 32.6404C71.6481 32.5468 71.6793 32.2038 71.5857 31.9231C71.5234 31.736 71.6169 31.6113 71.6481 31.4554C71.6793 31.2994 71.804 31.1123 71.9599 31.1435C72.0847 31.1747 72.1782 31.3618 72.1159 31.5489C71.9911 32.2662 72.3654 32.7651 72.9267 33.1394C72.9267 33.1705 72.9267 33.2329 72.8955 33.2953Z" fill="#191919"/>
<path d="M86.1492 53.6903C86.118 53.7839 86.0556 53.8774 86.0244 53.971C85.775 53.1914 85.4943 52.3806 85.5567 51.5386C85.5878 51.3203 85.6502 51.102 85.775 50.9149C85.8373 50.9772 85.8685 51.0396 85.9309 51.0708C85.7438 51.6009 85.6814 52.0375 86.461 52.1623C87.0535 52.2558 87.1783 52.7236 86.8664 53.2537C86.8041 53.3473 86.8041 53.472 86.7417 53.6279C86.5234 53.4408 86.4298 53.0978 86.1492 53.2225C85.8997 53.3161 86.2427 53.5344 86.1492 53.6903Z" fill="#272929"/>
<path d="M53.4053 38.7838C53.1246 39.1581 52.9375 39.6258 52.5945 39.9689C52.345 40.2184 52.4697 40.5302 52.5321 40.842C52.3138 40.6238 52.1267 40.7797 51.9396 40.9044C51.1911 41.3722 50.3803 41.684 49.5383 41.84C49.4136 41.9023 49.3824 41.84 49.4136 41.7152C49.5695 41.6529 49.6943 41.5281 49.8502 41.4969C51.3782 41.1851 52.2514 40.1248 52.9999 38.8774C53.0934 38.7215 53.187 38.3784 53.4053 38.7838Z" fill="#2F3234"/>
<path d="M72.8958 27.682C73.2077 27.2766 73.5195 26.84 74.112 26.8088C74.3615 26.7776 74.4862 26.5281 74.6734 26.341C75.2659 26.9023 75.1723 27.3389 74.4551 27.5572C73.9561 27.5572 73.5195 27.8067 73.0206 27.9003C72.927 27.8379 72.8646 27.8067 72.8958 27.682Z" fill="#202121"/>
<path d="M72.895 27.682C72.9262 27.7132 72.9886 27.7756 73.0198 27.8067C73.3316 28.0874 73.6123 28.3993 74.0177 28.5552C74.3607 29.023 74.0489 29.1165 73.6746 29.2101C73.3316 29.5219 73.0821 29.4596 72.9262 29.023C72.7703 28.5864 72.4272 28.1186 72.895 27.682Z" fill="#242728"/>
<path d="M74.0184 28.5552C73.4259 28.6488 73.2076 28.2745 73.0205 27.8068C73.4883 27.6197 73.8937 27.2454 74.455 27.5573C74.3615 27.9003 73.9561 28.1498 74.0184 28.5552Z" fill="#F4F5F6"/>
<path d="M79.2888 41.1851C79.2888 41.2162 79.2888 41.2474 79.2888 41.3098C79.3199 41.3722 79.3199 41.4034 79.2576 41.4345C78.6962 41.2786 78.1349 41.2162 77.5424 41.4345C77.2617 41.7152 76.9187 41.5905 76.6068 41.6216C76.2326 41.6528 75.8272 41.5281 75.453 41.7152C75.4218 41.7464 75.3594 41.7776 75.3283 41.8399C75.0164 41.8711 74.8605 41.5905 74.4551 41.3722C76.1391 41.1851 77.7295 41.2162 79.2888 41.1851Z" fill="#3B3A3A"/>
<path d="M88.1444 37.287C88.0196 37.3805 87.8949 37.4741 87.7701 37.5676C87.6142 37.5676 87.4895 37.3805 87.2712 37.4741C87.2712 37.6612 87.5518 37.8483 87.3335 38.0666C87.24 38.1601 87.1464 38.1601 87.0841 38.0666C86.897 37.8483 86.4916 37.7236 86.5851 37.3181C86.5851 37.2246 86.6163 37.1622 86.6475 37.0999C87.1464 37.1622 87.6454 37.3493 88.1444 37.287Z" fill="#F6F7F8"/>
<path d="M46.2635 43.1186C46.5441 43.4928 47.1055 43.6176 47.2614 44.1165C46.7313 43.8047 46.2323 43.4928 45.7645 43.0874C45.4527 42.8067 45.1096 42.5573 44.7666 42.3078C44.7978 42.2766 44.8602 42.2142 44.8913 42.183C45.4527 42.3702 45.7957 42.8691 46.2635 43.1186Z" fill="#3B3432"/>
<path d="M48.915 37.131C48.915 36.788 48.915 36.445 48.9462 36.0708C48.9462 35.946 48.8839 35.6965 49.1333 35.6965C49.3204 35.6965 49.3516 35.8836 49.414 36.0708C49.5076 36.4138 49.1957 36.6945 49.2581 37.0375C49.1333 37.0687 49.0398 37.0999 48.915 37.131Z" fill="#E6E8EB"/>
<path d="M48.759 42.183C48.3848 42.4636 47.9794 42.6507 47.5116 42.6819C47.4804 42.6507 47.4492 42.6507 47.4492 42.6196C47.4492 42.5884 47.4804 42.5884 47.4804 42.5884C47.8234 42.3077 48.1977 42.183 48.6031 42.0894C48.759 41.9959 48.7902 42.0582 48.759 42.183Z" fill="#484D50"/>
<path d="M46.7626 39.4387C46.6378 39.5011 46.4819 39.5946 46.326 39.6882C46.2636 39.314 46.4195 39.0645 46.6066 38.8462C46.7314 38.7526 46.6378 39.158 46.8873 39.0957C46.8249 39.2204 46.7938 39.314 46.7626 39.4387Z" fill="#D0D5D8"/>
<path d="M41.5233 12.0894C41.461 12.0271 41.3674 11.9023 41.4922 11.84C41.7104 11.7152 41.9599 11.684 42.1782 11.9023C42.2094 11.9647 42.2094 12.0583 42.147 12.1206C41.9287 12.2142 41.7416 12.2142 41.5233 12.0894Z" fill="#0F3B4C"/>
<path d="M52.7812 18.7943C52.9995 19.0438 53.1866 19.3556 53.4985 19.4804C53.4985 19.5116 53.4985 19.5428 53.4985 19.5428C53.0307 19.761 52.9371 19.3556 52.75 19.075C52.6876 18.9814 52.6876 18.8879 52.7812 18.7943Z" fill="#EEEEEE"/>
<path d="M48.7585 42.183C48.7273 42.1519 48.665 42.1207 48.6338 42.0583C48.8521 41.8712 49.1016 41.7465 49.4134 41.6841C49.4446 41.7153 49.507 41.7776 49.5382 41.8088C49.3199 42.0271 49.0392 42.0895 48.7585 42.183Z" fill="#555C60"/>
<path d="M48.0107 38.5344C48.0419 38.6279 48.0107 38.7527 48.1354 38.7838C48.0419 39.0645 47.7924 39.2516 47.5117 39.5323C47.5429 39.0333 47.9171 38.8462 48.0107 38.5344Z" fill="#414D54"/>
<path d="M74.4236 24.314C74.3924 23.971 74.33 23.6591 74.2988 23.3161C74.33 23.2537 74.3924 23.2225 74.4236 23.1602C74.5483 23.5344 74.7042 23.9086 74.4236 24.314Z" fill="#5A6064"/>
<path d="M41.523 12.0895C41.7413 12.0895 41.9285 12.1207 42.1467 12.0271C42.2091 12.0895 42.2403 12.183 42.1779 12.2454C41.8973 12.4325 41.6166 12.3701 41.3359 12.2142C41.3983 12.1518 41.4607 12.1207 41.523 12.0895Z" fill="#EAECED"/>
<path d="M75.2656 41.8088C75.2656 41.7464 75.2968 41.7152 75.2968 41.6529C75.6087 41.5593 75.8581 41.6217 76.0764 41.8712C76.1076 41.9335 76.0764 41.9959 76.0453 42.0583C75.7334 42.0895 75.5151 41.9647 75.2656 41.8088Z" fill="#596871"/>
<path d="M76.0449 42.0582C76.0449 42.027 76.0449 41.9647 76.0449 41.9335C76.3256 41.7464 76.5751 41.7776 76.7934 42.0582C76.7934 42.0894 76.7934 42.1518 76.8245 42.183C76.5127 42.2453 76.2944 42.0894 76.0449 42.0582Z" fill="#404649"/>
<path d="M47.2615 42.8067C47.0744 42.9626 46.8872 42.9626 46.6689 42.9314C46.7313 42.8378 46.7313 42.7131 46.8872 42.7131C47.0432 42.6507 47.1991 42.526 47.2615 42.8067Z" fill="#1F201F"/>
<path d="M47.2609 42.8067C47.1674 42.6819 47.0115 42.7131 46.8867 42.6819C47.0738 42.526 47.2921 42.6196 47.5104 42.5572C47.5104 42.5884 47.5104 42.6196 47.5104 42.6819C47.448 42.7131 47.3545 42.7443 47.2609 42.8067Z" fill="#353535"/>
<path d="M32.0751 19.8546C32.2311 19.8546 32.387 19.8546 32.3246 20.0728C32.2622 20.26 32.1375 20.1976 32.0439 20.1664C32.1063 20.0728 32.1375 19.9793 32.0751 19.8546Z" fill="#C3CBD1"/>
<path d="M42.1786 12.2142C42.1786 12.1518 42.1475 12.0583 42.1475 11.9959C42.1475 11.9647 42.1786 11.9335 42.1786 11.8712C42.2098 11.8712 42.241 11.8712 42.2722 11.8712C42.2722 11.9647 42.6152 11.8088 42.4281 12.0583C42.3658 12.1518 42.2722 12.183 42.1786 12.2142Z" fill="#D1D2D2"/>
<path d="M33.2598 38.7215C33.135 38.6591 33.0103 38.5655 32.792 38.4408C33.4157 38.3472 33.7899 37.9418 34.2889 37.6924C34.7255 37.4741 35.2556 37.4741 35.661 37.3493C36.4406 37.131 36.9396 37.4741 37.5633 37.6612C37.844 37.7547 38.1558 37.7547 38.4053 37.63C39.1849 37.2246 40.0581 37.1622 40.9313 37.131C41.3991 37.0998 41.7733 36.6944 42.0539 36.3514C42.3346 36.0084 42.5529 36.1643 42.8024 36.2267C43.083 36.289 43.1454 36.4761 43.1766 36.788C43.1766 37.6612 42.9895 38.4408 42.4905 39.1892C42.241 39.5323 42.1163 40 42.3346 40.4366C42.5841 40.9668 42.5529 41.4969 42.3658 41.9959C42.241 42.3077 42.397 42.5572 42.397 42.8379C42.5217 42.4013 42.7088 42.0271 42.9895 41.4657C43.5196 43.0562 43.582 44.6154 43.925 46.0811C44.2681 46.5801 44.1433 47.2038 44.2369 47.7651C44.424 48.6695 44.4552 49.605 44.4552 50.5406C44.4552 50.7589 44.4864 50.9772 44.2681 51.0707C44.081 51.1643 43.9562 50.9148 43.8003 50.8212C43.6132 50.0416 43.0519 49.4803 42.6153 48.8254C42.4905 48.6695 42.3346 48.5135 42.2722 48.3264C42.0539 48.1081 41.8668 47.7963 41.6797 47.5468C41.6173 47.1726 41.3679 46.9231 41.1808 46.6113C40.9625 46.3618 40.7754 46.1435 40.6194 45.8628C40.4947 45.6133 40.3076 45.395 40.1205 45.2079C40.0581 44.9896 39.871 44.8649 39.7774 44.6778C39.5591 44.3348 39.3408 44.0229 39.1225 43.6799C38.8107 43.3992 38.6236 43.0562 38.4053 42.7443C38.2494 42.6196 38.1246 42.4637 37.9999 42.3389C37.7192 42.0582 37.4386 41.8088 37.1891 41.4969C37.1267 41.4657 37.0955 41.4345 37.0332 41.4034C36.8149 41.3098 36.6901 41.1227 36.503 40.998C36.1912 40.7485 35.9105 40.499 35.661 40.2183C35.4427 40.0936 35.2868 39.9377 35.0685 39.8441C34.7878 39.657 34.476 39.4699 34.1953 39.314C34.0082 39.2204 33.8835 39.0957 33.6964 39.0021C33.5092 38.9398 33.3533 38.8462 33.2598 38.7215Z" fill="white"/>
<path d="M45.5152 53.0665C45.7023 54.0333 45.8583 55.0312 46.0454 55.9979C46.2325 57.027 46.4508 58.0249 46.6691 59.054C46.7315 59.21 46.7315 59.3347 46.6379 59.4906C46.3884 59.4594 46.0766 59.4594 46.1078 59.1164C46.1389 58.711 45.7335 58.6798 45.5776 58.3992C44.6421 56.8087 44.1743 55.0624 43.7689 53.2848C43.6441 52.7235 43.4258 52.1933 43.2387 51.632C43.1764 51.4761 43.1452 51.3513 43.2387 51.1019C43.8001 51.8815 44.3302 52.5987 45.2969 52.6923C44.9851 53.0665 45.4529 52.9418 45.5152 53.0665Z" fill="white"/>
<path d="M39.9021 50.8212C40.0581 50.8836 40.2764 50.5406 40.4011 50.946C40.9001 52.2869 41.4614 53.6279 41.9915 54.9688C42.0227 55.0312 41.9915 55.1248 41.9915 55.2495C41.1495 54.9065 40.5882 54.2516 39.9645 53.6591C39.9333 53.6279 39.9021 53.5343 39.9333 53.5031C40.0269 53.1289 39.8398 52.5052 39.5279 52.3181C39.3408 52.1934 39.3096 52.0686 39.2161 51.9127C39.1537 51.8191 39.029 51.788 39.1225 51.632C39.2161 51.4761 39.3096 51.5697 39.4344 51.5697C39.9645 51.6632 40.0269 51.5385 39.7774 50.9771C39.7462 50.8212 39.7774 50.7589 39.9021 50.8212Z" fill="#FFFEFD"/>
<path d="M43.8008 50.8212C44.2374 51.0084 44.3309 50.9148 44.3309 50.4158C44.2997 48.9501 43.9879 47.5468 43.9255 46.0811C44.0503 45.9876 44.0191 45.8316 44.0503 45.6757C44.3933 46.6736 44.3621 47.7651 44.518 48.7942C44.6116 49.4803 44.6116 50.1664 44.6428 50.8212C44.6428 51.0084 44.7363 51.2266 44.518 51.3202C44.2997 51.4138 44.1438 51.1955 43.9879 51.1019C43.8943 51.0395 43.8008 50.946 43.8008 50.8212Z" fill="#2E2825"/>
<path d="M49.2573 53.6902C49.5691 54.5634 50.0369 55.3742 50.2864 56.2786C50.3488 56.4033 50.2864 56.4345 50.1617 56.4345C49.7563 55.5613 49.0078 54.8441 49.0078 53.815C49.1014 53.7526 49.1326 53.6278 49.2573 53.6902Z" fill="#FEF5F2"/>
<path d="M42.6465 58.0249C42.8959 57.7443 42.5217 57.4636 42.6776 57.1517C42.74 57.027 42.7712 56.9023 42.8648 56.7775C43.1766 57.3077 43.3325 57.9002 43.5508 58.5239C43.1766 58.5239 42.9895 58.1185 42.6776 58.1497C42.6153 58.1185 42.6153 58.0873 42.6465 58.0249Z" fill="#FEF3F0"/>
<path d="M51.409 53.0665C51.8144 54.158 52.251 55.2183 52.6564 56.3098C52.594 56.3722 52.5628 56.4033 52.5005 56.4657C51.9703 55.4366 51.5649 54.3451 51.2531 53.1913C51.2219 53.0665 51.2842 53.0354 51.409 53.0665Z" fill="#433833"/>
<path d="M49.2572 53.6903C49.1637 53.7214 49.1013 53.7838 49.0077 53.815C48.883 53.4096 48.7582 52.973 48.6023 52.5988C48.5088 52.3805 48.4776 52.2246 48.5711 51.9127C48.8518 52.5676 49.0701 53.1289 49.2572 53.6903Z" fill="#FDF0EC"/>
<path d="M41.6165 57.3078C41.0864 57.2142 40.7434 56.84 40.3691 56.4969C40.8681 56.6217 41.2423 56.9959 41.6165 57.3078Z" fill="#FCE4DC"/>
<path d="M46.6382 59.4595C46.6382 59.3036 46.6694 59.1789 46.6694 59.0229C46.7629 59.6466 46.8877 60.2703 46.9812 60.894C46.6694 60.4575 46.6694 59.9585 46.6382 59.4595Z" fill="#FBDAD0"/>
<path d="M50.4117 50.2911C50.6924 50.7277 50.7236 51.2266 50.9107 51.6944C50.8795 51.7568 50.8171 51.7568 50.7548 51.6944C50.4741 51.289 50.3494 50.79 50.4117 50.2911Z" fill="#363433"/>
<path d="M35.6608 40.1871C35.9415 40.4366 36.2845 40.6237 36.534 40.9356C36.5652 41.0291 36.534 41.0915 36.4404 41.0603C36.0038 40.9044 35.7855 40.5302 35.5049 40.2183C35.5361 40.1248 35.5984 40.1248 35.6608 40.1871Z" fill="#423733"/>
<path d="M50.0368 49.0436C50.2551 49.3867 50.3799 49.7609 50.4111 50.1663C50.0057 49.948 50.068 49.5114 49.9121 49.1684C49.9433 49.1372 49.9433 49.0748 50.0368 49.0436Z" fill="#524641"/>
<path d="M38.4052 42.682C38.7482 42.9627 38.9665 43.2745 39.1224 43.6799C38.6547 43.6176 38.5923 43.1498 38.374 42.8379C38.3428 42.8067 38.3428 42.7444 38.4052 42.682Z" fill="#433B38"/>
<path d="M37.1582 41.4969C37.5324 41.6841 37.7819 41.9959 38.0314 42.3078C38.0938 42.3701 38.0938 42.4325 38.0314 42.4637C37.7195 42.1518 37.3141 41.9335 37.1582 41.4969Z" fill="#63514B"/>
<path d="M45.1406 51.5385C45.2654 52.131 45.2654 52.131 44.6729 51.9751C44.86 51.788 44.9847 51.6633 45.1406 51.5385Z" fill="#FACDC1"/>
<path d="M36.2849 43.4304C36.0354 43.3057 35.7859 43.1809 35.8171 42.7755C36.129 42.9626 36.3784 43.1185 36.472 43.4304C36.3784 43.4928 36.3472 43.4928 36.2849 43.4304Z" fill="#FEF3EF"/>
<path d="M40.1823 45.1768C40.3694 45.3639 40.5565 45.5198 40.6501 45.8005C40.7124 45.9252 40.6501 45.9564 40.5253 45.9564C40.3694 45.7069 40.1823 45.4574 40.0264 45.2079C40.0887 45.1456 40.1511 45.1144 40.1823 45.1768Z" fill="#514844"/>
<path d="M40.5566 45.9252C40.5878 45.8628 40.619 45.8317 40.6814 45.7693C40.8997 46.0188 41.118 46.2682 41.2115 46.5801C40.7749 46.5489 40.7749 46.1747 40.5566 45.9252Z" fill="#5C433B"/>
<path d="M40.3703 56.3098C39.8713 56.2786 39.7154 56.0291 39.4971 55.6549C39.9025 55.8108 40.0896 56.0291 40.3703 56.3098Z" fill="#FCE4DC"/>
<path d="M41.6797 47.5468C42.0227 47.7027 42.1475 48.0145 42.2722 48.3264C41.8668 48.2016 41.7421 47.8898 41.6797 47.5468Z" fill="#53443F"/>
<path d="M48.416 45.3015C48.6967 45.551 48.9462 45.8317 48.915 46.2682C48.6655 45.9876 48.4472 45.6757 48.416 45.3015Z" fill="#695048"/>
<path d="M40.5577 47.7028C40.776 47.9211 40.9319 48.1082 40.8071 48.5136C40.62 48.2017 40.5265 48.0146 40.5577 47.7028Z" fill="#FACCBF"/>
<path d="M36.2847 43.4304C36.347 43.4304 36.4094 43.4304 36.4718 43.4304C36.6589 43.524 36.8148 43.6487 36.846 43.8982C36.4718 43.9294 36.3782 43.6487 36.2847 43.4304Z" fill="#FBDCD2"/>
<path d="M39.9022 58.212C39.5591 58.2432 39.4032 58.0561 39.3408 57.7443C39.5279 57.9002 39.715 58.0561 39.9022 58.212Z" fill="#FAD1C5"/>
<path d="M45.5145 53.0665C45.3273 52.973 45.1402 53.1601 44.9531 53.0354C45.0155 52.8794 45.2962 52.9418 45.2962 52.6923C45.4521 52.7547 45.5456 52.8794 45.5145 53.0665Z" fill="#E83C3A"/>
<path d="M47.9158 44.553C48.1029 44.709 48.2276 44.8961 48.3212 45.1144C48.0093 45.1144 47.9158 44.8649 47.791 44.6466C47.791 44.5842 47.791 44.4907 47.9158 44.553Z" fill="#61514B"/>
<path d="M50.1626 56.4345C50.1938 56.3721 50.2562 56.3409 50.2873 56.2786C50.3809 56.4657 50.4433 56.6528 50.5992 56.9335C50.2873 56.8087 50.1626 56.684 50.1626 56.4345Z" fill="#FCE4DC"/>
<path d="M50.7539 51.6944C50.8163 51.6944 50.8475 51.6944 50.9098 51.6944C51.0969 51.9127 51.0346 52.1934 51.0658 52.4428C50.8163 52.2557 50.8163 51.9439 50.7539 51.6944Z" fill="#141110"/>
<path d="M36.4404 41.0603C36.4716 41.0291 36.5028 40.9667 36.534 40.9355C36.7523 41.0291 36.9394 41.1538 37.0018 41.4033C36.7523 41.4033 36.5652 41.2474 36.4404 41.0603Z" fill="#593B32"/>
<path d="M35.6608 40.1872C35.5984 40.1872 35.5361 40.1872 35.4737 40.2184C35.2554 40.1872 35.1307 40.0313 35.0371 39.8442C35.3178 39.813 35.4737 40.0001 35.6608 40.1872Z" fill="#574E4A"/>
<path d="M47.9167 44.5531C47.8855 44.5842 47.8544 44.6154 47.792 44.6466C47.5425 44.6154 47.4801 44.4283 47.5113 44.21C47.6984 44.3036 47.8232 44.3971 47.9167 44.5531Z" fill="#62534D"/>
<path d="M33.665 38.9398C33.9145 38.9398 34.0392 39.1269 34.1639 39.2828C33.9456 39.2516 33.7273 39.2204 33.665 38.9398Z" fill="#372A24"/>
<path d="M33.665 38.9398C33.4467 39.1581 33.3219 38.9398 33.166 38.815C33.1972 38.7839 33.2596 38.7527 33.2908 38.6903C33.4467 38.7215 33.5714 38.7839 33.665 38.9398Z" fill="#57423B"/>
<path d="M50.037 49.0437C50.0058 49.0749 49.9747 49.1373 49.9123 49.1685C49.8499 49.0125 49.7564 48.8566 49.7564 48.6695C49.7252 48.5448 49.7564 48.5136 49.8811 48.5448C49.9435 48.7319 49.9747 48.8878 50.037 49.0437Z" fill="#26201D"/>
<path d="M51.41 53.0666C51.3476 53.0978 51.3164 53.1602 51.2541 53.1913C51.1605 53.0042 51.0046 52.8483 51.1605 52.63C51.2852 52.7547 51.41 52.8795 51.41 53.0666Z" fill="#61524D"/>
<path d="M38.0303 42.4637C38.0303 42.4013 38.0303 42.3701 38.0303 42.3077C38.2174 42.4013 38.3109 42.526 38.4045 42.7131C38.4045 42.7755 38.3733 42.8379 38.3733 42.8691C38.2486 42.7131 38.1238 42.5884 38.0303 42.4637Z" fill="#60514B"/>
<path d="M49.3821 47.2973C49.4756 47.4532 49.538 47.6092 49.538 47.7651C49.6004 47.8274 49.5692 47.921 49.5068 47.9522C49.4132 47.7339 49.195 47.5468 49.3821 47.2973Z" fill="#895F54"/>
<path d="M49.0396 46.4241C49.2267 46.5488 49.1955 46.7671 49.2267 46.9542C48.946 46.8295 48.8837 46.6736 49.0396 46.4241Z" fill="#694B42"/>
<path d="M40.1829 45.1768C40.1206 45.1768 40.0894 45.1768 40.027 45.1768C39.9023 45.0208 39.7152 44.8961 39.7775 44.6778C40.027 44.7714 40.1517 44.9585 40.1829 45.1768Z" fill="#3F312C"/>
<path d="M39.9022 50.8212C39.8398 50.8836 39.8087 50.9148 39.7463 50.9771C39.6215 50.8836 39.528 50.7588 39.3721 50.6341C39.6527 50.5717 39.7775 50.6653 39.9022 50.8212Z" fill="#FBDBD1"/>
<path d="M41.8047 57.5572C41.8359 57.526 41.8671 57.4636 41.8982 57.4636C41.9606 57.4636 42.023 57.4948 42.0854 57.526C42.0542 57.5884 42.023 57.6195 41.9918 57.6507C41.9294 57.7131 41.8671 57.6507 41.8047 57.5572Z" fill="#FDEDE8"/>
<path d="M49.5073 47.9522C49.5073 47.8898 49.5385 47.8274 49.5385 47.7651C49.6944 47.8586 49.6944 48.0457 49.7256 48.2017C49.7256 48.264 49.6944 48.2952 49.6321 48.3264C49.5385 48.2328 49.5073 48.1081 49.5073 47.9522Z" fill="#7B5D54"/>
<path d="M42.6458 58.0249C42.6458 58.0873 42.6458 58.1185 42.6458 58.1809C42.4898 58.1497 42.3963 58.0249 42.3027 57.869C42.4898 57.8067 42.5522 57.9314 42.6458 58.0249Z" fill="#F8BFB1"/>
<path d="M49.6309 48.3264C49.662 48.2952 49.6932 48.2328 49.7244 48.2017C49.7556 48.3264 49.818 48.4511 49.8492 48.5759C49.818 48.6071 49.7868 48.6694 49.7244 48.7006C49.662 48.6071 49.6309 48.4511 49.6309 48.3264Z" fill="#57504D"/>
<path d="M37.5002 44.6778C37.2819 44.6778 37.1572 44.5842 37.1883 44.4595C37.2507 44.2412 37.3131 44.4595 37.3754 44.4907C37.4066 44.5219 37.4378 44.5842 37.5002 44.6778Z" fill="#F8BFB0"/>
<path d="M69.5272 45.3015C69.2465 44.7714 69.0906 44.366 68.8411 43.9918C68.5916 43.6487 68.9035 43.3369 69.0282 43.3057C69.3713 43.181 69.4025 43.524 69.496 43.7735C69.5896 44.2413 69.5584 44.709 69.5272 45.3015Z" fill="#353534"/>
<path d="M77.2928 50.0728C76.9497 49.262 76.7626 48.42 76.7314 47.5468C77.3551 48.2953 77.2304 49.1996 77.2928 50.0728Z" fill="#3C3C3B"/>
<path d="M86.6797 59.1788C86.7109 59.0852 86.7732 58.9917 86.8044 58.8981C87.2722 59.6778 87.7712 60.4574 88.2389 61.2058C87.5217 60.7069 87.0227 59.9896 86.6797 59.1788Z" fill="#464645"/>
<path d="M87.0229 61.4241C86.7735 61.4865 86.6799 61.2682 86.6175 61.1123C86.4304 60.6445 86.0874 60.2391 85.9938 59.7402C85.9315 59.6154 86.025 59.5842 86.1186 59.5842C86.4928 60.1767 86.8358 60.7693 87.0229 61.4241Z" fill="#4F4F4E"/>
<path d="M78.3846 56.3098C78.0727 56.3721 78.1663 56.5904 78.1351 56.8087C78.1351 57.2141 78.1351 57.5883 78.1039 57.9938C77.948 57.1518 78.0104 56.3098 78.0104 55.4366C78.2598 55.7172 78.3846 55.9979 78.3846 56.3098Z" fill="#383837"/>
<path d="M86.1501 59.5842C86.1189 59.6466 86.0566 59.6778 86.0254 59.7401C85.8071 59.3659 85.62 58.9917 85.5576 58.5863C85.5888 58.5239 85.62 58.4304 85.6824 58.4304C85.9942 58.7422 86.0254 59.1788 86.1501 59.5842Z" fill="#515150"/>
<path d="M85.277 58.2121C85.2146 57.9938 85.3706 57.7443 85.1211 57.5572C85.1835 57.183 85.2146 56.8088 85.277 56.4345C85.3394 56.4034 85.4018 56.4034 85.4329 56.4969C85.4641 56.9959 85.4018 57.4948 85.4641 57.9938C85.4641 58.1185 85.4329 58.2121 85.277 58.2121Z" fill="#3D3C3C"/>
<path d="M78.3219 52.2869C78.2595 51.9751 78.2283 51.6944 78.1348 51.2578C78.5402 51.632 78.5402 51.9439 78.3219 52.2869Z" fill="#5B5B5A"/>
<path d="M85.3701 58.1496C85.4013 57.5883 85.4013 56.9958 85.4325 56.4344C85.3701 56.3097 85.4325 56.2785 85.5572 56.3097C85.6196 56.9022 85.4325 57.4947 85.682 58.0561C85.5884 58.1496 85.4949 58.1808 85.3701 58.1496Z" fill="#FCFCFC"/>
<path d="M73.6761 57.5572C73.832 57.8067 73.9255 58.0873 73.832 58.3992C73.6137 58.1497 73.5201 57.869 73.6761 57.5572Z" fill="#7F7F7E"/>
<path d="M77.6353 53.7214C77.5106 53.3784 77.5106 53.0353 77.5417 52.5676C77.76 52.8482 77.8224 53.0665 77.76 53.316C77.6665 53.4407 77.8224 53.6279 77.6353 53.7214Z" fill="#6F6F6F"/>
<path d="M73.3945 56.9646C73.3009 56.6528 73.2386 56.3721 73.145 56.0603C73.1762 56.0291 73.2386 56.0291 73.2698 56.0603C73.4257 56.2785 73.4569 56.5592 73.5192 56.8087C73.4881 56.8711 73.4881 56.9646 73.3945 56.9646Z" fill="#5C5C5B"/>
<path d="M74.2983 60.5198C74.2671 60.6445 74.2983 60.8316 74.1736 60.9252C74.1424 60.5822 74.08 60.2703 74.0488 59.9273C74.08 59.8649 74.1424 59.8649 74.1736 59.9273C74.3607 60.1144 74.2983 60.3327 74.2983 60.5198Z" fill="#696968"/>
<path d="M75.4524 55.1871C75.2653 55.2183 75.047 55.2495 74.8599 55.2807C75.0158 55.0312 75.2341 54.9689 75.4212 55.0312C75.4212 55.0624 75.4524 55.1248 75.4524 55.1871Z" fill="#8A8A89"/>
<path d="M73.2691 56.0603C73.2379 56.0603 73.1755 56.0603 73.1444 56.0603C73.0196 55.5925 73.0196 55.5613 73.5498 55.5613C73.425 55.7173 73.1755 55.8108 73.2691 56.0603Z" fill="#808080"/>
<path d="M77.7927 53.4408C77.9486 53.6903 77.8863 53.9398 77.8863 54.2204C77.8551 54.314 77.7927 54.3763 77.668 54.3452C77.668 54.2204 77.668 54.0957 77.668 53.9709C77.7927 53.7838 77.6368 53.5655 77.7927 53.4408Z" fill="#575656"/>
<path d="M77.6673 54.3139C77.7296 54.2828 77.792 54.2204 77.8855 54.1892C77.9167 54.3763 77.9167 54.5322 77.9479 54.7505C77.6673 54.657 77.5113 54.5634 77.6673 54.3139Z" fill="#4A4A49"/>
<path d="M75.7344 55.0313C76.015 54.7506 76.2645 54.8754 76.4828 54.813C76.2957 55.0001 76.0774 54.9689 75.7344 55.0313Z" fill="#757575"/>
<path d="M85.369 58.1497C85.4626 58.1185 85.5561 58.0873 85.6497 58.0562C85.6497 58.1497 85.6809 58.2744 85.6809 58.368C85.6497 58.4304 85.5873 58.4927 85.5561 58.5239C85.5249 58.368 85.4938 58.2745 85.3066 58.3368C85.3066 58.2745 85.3066 58.2121 85.3066 58.1809C85.3066 58.2121 85.3378 58.1809 85.369 58.1497Z" fill="#373636"/>
<path d="M74.1742 59.9273H74.1118H74.0494C73.987 59.7402 73.9559 59.5531 73.8623 59.21C74.2365 59.4907 74.143 59.7402 74.1742 59.9273Z" fill="#5C5B5B"/>
<path d="M73.3945 56.9647C73.4257 56.9023 73.4881 56.8711 73.5193 56.8088C73.5505 56.84 73.5505 56.8711 73.5816 56.9023C73.6128 57.0583 73.7376 57.2454 73.5193 57.3077C73.3633 57.3389 73.4257 57.0894 73.3945 56.9647Z" fill="#464545"/>
<path d="M67.532 57.3076C67.3137 57.0893 67.4384 56.8087 67.4072 56.5592C67.5631 56.8087 67.532 57.0582 67.532 57.3076Z" fill="#222221"/>
<path d="M73.5508 55.5614C73.6755 55.3431 73.925 55.4366 74.2057 55.2807C73.9562 55.6549 73.7379 55.5614 73.5508 55.5614Z" fill="#848483"/>
<path d="M85.5259 56.3098C85.4947 56.341 85.4324 56.4033 85.4012 56.4345C85.37 56.4345 85.3388 56.4345 85.2764 56.4345C85.2452 56.3098 85.2141 56.1538 85.3388 56.1227C85.5259 56.0603 85.5259 56.2162 85.5259 56.3098Z" fill="#6A6969"/>
<path d="M77.7917 53.4408C77.7293 53.5967 77.8229 53.815 77.6669 53.9397C77.6669 53.8774 77.6357 53.7838 77.6357 53.7214C77.6981 53.5967 77.6046 53.4408 77.7605 53.3472C77.7917 53.3472 77.7917 53.3784 77.7917 53.4408Z" fill="#0F0F0F"/>
<path d="M73.9565 59.1476C73.8942 59.0229 73.863 58.9605 73.8318 58.867C73.8006 58.8046 73.8006 58.6798 73.9253 58.7422C73.9877 58.7734 74.0189 58.867 74.0189 58.9293C74.0189 58.9605 73.9877 59.0229 73.9565 59.1476Z" fill="#797978"/>
<path d="M58.4884 49.2932C58.2701 48.2329 58.426 47.1726 58.426 46.0811C58.426 45.1767 58.5196 44.2724 58.5196 43.368C58.5196 42.8691 58.6443 42.6196 59.1745 42.6819C59.2992 42.5884 59.4551 42.5884 59.5799 42.6819C59.8605 43.3368 59.7358 44.0229 59.6734 44.709C59.6422 45.1456 59.6111 45.551 59.5799 45.9876C60.3595 45.7693 60.3595 45.7693 60.3595 44.9896C60.3907 44.1788 60.3907 43.3368 60.609 42.526C60.6713 42.4637 60.7337 42.4325 60.7961 42.4013C62.0123 42.4013 63.2285 42.1518 64.4447 42.2454C64.6007 42.3077 64.7254 42.3389 64.8813 42.3701C65.0996 42.526 64.9749 42.7443 64.9437 42.9314C64.8501 43.7111 64.7254 44.4907 64.6318 45.2391C64.6007 45.3639 64.6318 45.4886 64.7566 45.5822C64.4135 45.8004 64.0393 45.9252 63.6339 45.9252C63.3844 46.0499 63.135 46.1435 62.9167 46.2994C62.6048 46.2682 62.4177 46.5177 62.2306 46.6736C62.1059 46.7984 62.137 47.079 61.8564 47.0167C61.7628 47.0478 61.6693 47.1102 61.5757 47.1414C61.295 47.3285 60.952 47.4532 60.8273 47.8275C60.7025 48.0769 60.3907 48.0146 60.2348 48.1705C59.8917 48.5759 59.3616 48.6695 58.9874 49.0125C58.8626 49.1684 58.7067 49.262 58.4884 49.2932Z" fill="#E83C3A"/>
<path d="M61.5441 50.0729C62.2302 49.8234 62.6979 49.262 63.3528 48.919C64.0077 48.576 63.9765 48.5448 64.3819 48.9814C64.4443 49.4492 64.0077 49.5739 63.7894 49.7298C63.2905 50.104 62.7291 50.3847 62.199 50.6654C61.7936 50.8837 61.4817 50.8525 61.4194 50.2911C61.3258 50.1664 61.4505 50.1352 61.5441 50.0729Z" fill="#E83C3A"/>
<path d="M65.4109 53.5031C64.9119 54.0644 64.413 54.6258 63.8828 55.1559C63.6957 55.343 63.415 55.0312 63.1967 55.0624C63.0408 55.1247 63.0096 55.0312 62.9473 54.9376C63.1032 54.7193 63.3527 54.657 63.571 54.501C64.413 53.9397 64.413 53.9397 64.6313 53.0353C64.8184 53.3472 64.9431 53.7838 65.4109 53.5031Z" fill="#272726"/>
<path d="M62.6982 52.6611C62.9477 52.1934 63.2596 52.0686 63.665 52.5364C63.3531 52.6299 63.0725 52.973 62.6982 52.6611Z" fill="#E83C3A"/>
<path d="M59.0186 49.0749C59.3304 48.6383 59.8294 48.4512 60.266 48.2329C60.0477 48.7942 59.4551 48.8254 59.0186 49.0749Z" fill="#5C4942"/>
<path d="M60.8896 47.8587C60.952 47.3909 61.2951 47.2038 61.6693 47.0479C61.8876 47.0479 61.8564 47.1726 61.794 47.2973C61.4822 47.4844 61.1703 47.6716 60.8896 47.8587Z" fill="#4C3A33"/>
<path d="M62.9156 54.9376C63.0092 54.9688 63.0716 55.0312 63.1651 55.0624C62.9156 55.2183 62.6661 55.4054 62.4167 55.5613C62.3543 55.499 62.2919 55.4366 62.2607 55.4054C62.4167 55.1871 62.6973 55.1247 62.9156 54.9376Z" fill="#545453"/>
<path d="M62.293 46.7048C62.3865 46.3618 62.6048 46.1747 62.979 46.3306C62.7607 46.4554 62.5113 46.5801 62.293 46.7048Z" fill="#5A4C46"/>
<path d="M64.0078 52.5988C64.0702 52.5364 64.1014 52.5052 64.1637 52.4429C64.382 52.5052 64.5068 52.6612 64.5068 52.9106C64.2261 52.9106 64.1014 52.7547 64.0078 52.5988Z" fill="#5D5C5C"/>
<path d="M62.9775 46.3306C63.1335 46.0187 63.3829 45.9875 63.6948 45.9564C63.5389 46.2682 63.227 46.2682 62.9775 46.3306Z" fill="#635E5B"/>
<path d="M61.7927 47.2973C61.7615 47.2037 61.6992 47.1413 61.668 47.0478C61.7615 46.9542 61.8551 46.923 61.9174 47.0478C61.7615 47.2973 62.1046 47.3285 62.1046 47.5467C61.8863 47.6091 61.8551 47.422 61.7927 47.2973Z" fill="#5D5D5C"/>
<path d="M58.4873 49.2931C58.6432 49.1372 58.7992 49.0124 59.0174 49.0748C58.9551 49.2619 58.7992 49.3555 58.6432 49.449C58.612 49.3867 58.5497 49.3555 58.4873 49.2931Z" fill="#4F3128"/>
<path d="M62.5117 48.264C62.6365 48.2017 62.6988 48.1393 62.7612 48.1393C62.8548 48.1393 62.9795 48.1705 62.9483 48.3264C62.9483 48.3576 62.8548 48.4511 62.8236 48.4511C62.73 48.3888 62.6676 48.3264 62.5117 48.264Z" fill="#898888"/>
<path d="M61.5446 50.0728C61.4823 50.1664 61.4511 50.2287 61.3887 50.3223C61.2952 50.3223 61.1704 50.3846 61.1704 50.2287C61.1704 50.0728 61.2952 49.9792 61.4199 49.9169C61.4511 49.9792 61.5134 50.0416 61.5446 50.0728Z" fill="#494847"/>
<path d="M65.9102 46.4553C65.9414 46.5801 66.1597 46.6736 65.9414 46.8295C65.9414 46.6424 65.5984 46.7048 65.6919 46.4865C65.6919 46.4553 65.8479 46.4553 65.9102 46.4553Z" fill="#787777"/>
<path d="M61.9182 52.5675C61.9806 52.6299 62.0118 52.6611 62.0742 52.7234C61.9494 52.7858 61.7935 52.9729 61.6999 52.8482C61.5752 52.6922 61.7623 52.5987 61.9182 52.5675Z" fill="#494948"/>
<path d="M64.5379 56.3097C64.8809 56.0291 65.2863 55.7796 65.2551 55.2183C65.567 55.5925 65.4111 55.9355 65.0992 56.185C64.9121 56.3721 64.6314 56.4657 64.4131 56.5904C64.3508 56.4345 64.4131 56.3721 64.5379 56.3097Z" fill="#525251"/>
<path d="M64.5381 56.3098C64.5069 56.4033 64.4445 56.4969 64.4133 56.5904C64.2886 56.8711 64.0703 56.9335 63.8208 56.8087C64.3198 55.9667 64.3198 55.9667 64.5381 56.3098Z" fill="#424241"/>
<path d="M63.291 57.3388C63.3222 57.0582 63.4781 57.0893 63.6341 57.0893C63.5405 57.1517 63.4469 57.2141 63.291 57.3388Z" fill="#8B8B8B"/>
<path d="M76.7629 42.0583C76.5134 42.0271 76.2639 41.9647 76.0144 41.9335C75.7649 41.84 75.5154 41.7464 75.2972 41.6841C75.1412 41.4034 75.3907 41.4969 75.4843 41.4969C76.1703 41.4658 76.8564 41.4658 77.5425 41.4658C77.7296 41.4658 77.9167 41.4969 78.1038 41.4969C78.2597 41.5281 78.4468 41.4658 78.4468 41.7152C78.4468 41.9335 78.3221 41.9959 78.135 41.9959C77.6672 41.9959 77.2306 42.0271 76.7629 42.0583Z" fill="#F4F4F4"/>
<path d="M85.4631 39.7194C85.3383 39.7506 85.2448 39.7817 85.12 39.7817C85.12 39.7194 85.0889 39.657 85.0889 39.5946C85.4943 39.5323 85.9309 39.5011 86.3674 39.5946V39.6258C86.3674 39.657 86.3363 39.657 86.3363 39.6882C86.0556 39.7817 85.7749 39.7817 85.4631 39.7194Z" fill="#C8C8C7"/>
<path d="M79.2266 41.4345C79.2266 41.4033 79.2577 41.3409 79.2577 41.3098C79.4449 41.3409 79.6632 41.2474 79.9126 41.4033C79.6943 41.528 79.476 41.7152 79.2266 41.4345Z" fill="#BABAB9"/>
<path d="M85.4639 39.7194C85.7445 39.7194 86.0564 39.7194 86.337 39.7194C86.0564 39.8129 85.7757 39.8441 85.4639 39.7194Z" fill="#C3C2C2"/>
<path d="M88.5199 54.5011C88.3328 54.4699 88.2704 54.3763 88.2393 54.2516C88.2393 54.2516 88.3016 54.2204 88.3328 54.2204C88.4264 54.2516 88.4887 54.3451 88.5199 54.5011Z" fill="#C4C4C4"/>
<path d="M84.964 58.1185C85.1199 58.9605 84.8392 59.709 84.2779 59.8337C83.9972 59.8961 83.7477 59.9584 83.8413 59.4595C84.0284 58.7734 84.1843 58.5239 84.964 58.1185Z" fill="#FBFBFB"/>
<path d="M47.5108 18.4199C47.6979 18.3576 47.8226 18.2328 47.9785 18.1081C48.0721 17.9833 48.1968 17.8898 48.3527 18.0145C48.6958 18.3576 49.2571 18.3576 49.5378 18.7942C49.6313 18.9501 49.7249 19.0436 49.8496 18.763C49.9432 18.5447 50.1615 18.7006 50.255 18.7942C51.0347 19.4802 51.8767 20.0727 52.0638 21.1954C52.1573 21.8191 52.3132 22.4116 52.2821 23.0353C52.2509 23.5343 52.0638 23.7526 51.5336 23.6278C50.9099 23.4719 50.2862 23.5343 49.6937 23.7526C49.2571 23.9397 48.8829 24.2203 48.727 24.6569C48.6334 24.9064 48.4151 25.3118 48.9764 25.3742C49.0076 25.3742 49.07 25.4054 49.07 25.4054C49.2883 26.3721 50.1615 26.3721 50.8787 26.5904C51.2841 26.7151 51.4089 26.8711 51.3777 27.3388C51.2218 28.9605 50.6916 30.3638 49.7561 31.7047C48.7893 33.0457 47.6355 34.2619 46.8559 35.7276C46.6064 36.1954 46.2322 36.4449 45.5461 36.2577C43.675 35.7276 42.0222 34.7297 40.4006 33.7006C39.6521 33.2016 39.2467 32.3596 38.8101 31.58C38.6854 31.3617 38.5607 31.1434 38.4047 30.9875C37.5316 29.9896 37.5316 28.9293 37.9993 27.7754C38.3424 26.9334 38.5918 26.0603 38.4983 25.0623C38.3112 23.6278 38.7166 22.9106 40.0264 22.3804C40.6501 22.131 41.2738 21.8503 41.8975 21.6008C41.991 21.5696 42.5835 21.5696 42.0534 21.1954C41.9598 21.133 42.0846 21.0395 42.1469 21.0083C42.6771 20.7588 42.8954 20.1663 43.332 19.8544C44.2051 19.2307 45.1095 18.5759 46.2945 18.9501C46.4193 18.9813 46.4816 18.9813 46.544 18.8565C46.7311 18.4511 47.043 18.6694 47.2925 18.7318C47.6979 18.9189 47.3236 18.4823 47.5108 18.4199Z" fill="white"/>
<path d="M50.1299 24.4076C50.66 24.4699 50.9407 24.0957 51.3773 24.0957C52.1569 24.0645 52.3128 24.1893 52.1881 24.9689C52.1569 25.1248 52.1569 25.2495 52.001 25.3743C51.502 24.9065 50.7848 24.8753 50.1299 24.4076Z" fill="#F9F9F9"/>
<path d="M37.0631 22.4117C37.375 22.63 37.3126 22.9418 37.3438 23.1913C37.4061 23.5343 37.2502 24.0333 37.0319 24.0021C36.6889 24.0021 36.9072 23.5655 36.876 23.2849C36.876 23.0042 36.8448 22.6923 37.0631 22.4117Z" fill="#F0F0F0"/>
<path d="M32.4793 28.711C32.7911 28.7734 32.7911 29.0228 32.8223 29.21C32.8847 29.4594 32.7911 29.6465 32.604 29.8025C32.5105 29.6154 32.1986 29.6154 32.1674 29.3659C32.0739 29.0228 32.4169 28.9605 32.4793 28.711Z" fill="#EDEDED"/>
<path d="M52.7809 18.7943C52.7809 18.8879 52.7809 18.9814 52.7497 19.1062C52.2508 18.6384 52.1572 18.233 52.5314 17.9835C52.625 17.9211 52.6562 17.8276 52.7809 17.89C52.9056 17.9835 52.9368 18.0771 52.8433 18.2018C52.7185 18.3889 52.8121 18.6072 52.7809 18.7943Z" fill="#EFEFEF"/>
<path d="M33.5717 22.9418C33.4158 23.316 33.1975 23.6278 32.7609 23.6278C32.6361 23.6278 32.5114 23.7838 32.449 23.5967C32.3866 23.4407 32.5114 23.3472 32.6673 23.2848C32.9792 23.1913 33.2598 23.0665 33.5717 22.9418Z" fill="#E5E5E5"/>
<path d="M32.4482 19.2932C32.2923 18.919 32.1676 18.6384 32.3547 18.3577C32.3859 18.2953 32.6353 18.1082 32.6977 18.2953C32.7913 18.6072 32.6042 18.8878 32.4482 19.2932Z" fill="#D6D6D6"/>
<path d="M34.3519 16.5178C34.6014 17.2662 33.9777 17.1103 33.5723 17.3598C33.7282 16.8608 34.0089 16.6425 34.3519 16.5178Z" fill="#CECECE"/>
<path d="M50.5053 25.499C50.786 25.6861 50.8172 25.9044 50.7236 26.1539C50.6924 26.2163 50.4741 26.2163 50.4429 26.1851C50.3182 25.9668 50.4117 25.7485 50.5053 25.499Z" fill="#E6E6E6"/>
<path d="M43.5508 37.2245C43.7379 37.3493 43.9562 37.474 43.7691 37.6923C43.7067 37.7547 43.5196 37.7859 43.4884 37.7859C43.3637 37.5988 43.4884 37.4428 43.5508 37.2245Z" fill="#F6F6F6"/>
<path d="M32.3558 25.5926C32.2311 25.2495 32.4182 25.0936 32.6053 24.9377C32.6053 24.9377 32.73 25.0001 32.73 25.0312C32.7612 25.3431 32.5117 25.4055 32.3558 25.5926Z" fill="#E7E7E7"/>
<path d="M35.3796 34.3868C35.3484 34.5427 35.2548 34.5739 35.1613 34.6051C34.943 34.6362 35.0365 34.4803 35.0365 34.3556C35.0365 34.262 35.0677 34.1373 35.2236 34.1996C35.3172 34.262 35.3796 34.3244 35.3796 34.3868Z" fill="#E9E9E9"/>
<path d="M47.5117 18.42C47.3869 18.6695 47.5741 18.8254 47.6364 19.0437C47.3869 19.1373 47.3246 18.9502 47.2622 18.7943C47.4493 18.7631 47.3246 18.4824 47.5117 18.42Z" fill="#595858"/>
<path d="M42.7089 15.8316C42.6777 15.8005 42.5842 15.7693 42.553 15.7381C42.5218 15.6445 42.6154 15.6133 42.7089 15.6133C42.8025 15.6133 42.9272 15.6445 42.9272 15.7381C42.9272 15.8316 42.8337 15.8005 42.7089 15.8316Z" fill="#686767"/>
<path d="M31.9191 34.1373C31.8567 34.1997 31.7943 34.2309 31.732 34.2309C31.6384 34.2621 31.5449 34.2309 31.5137 34.1061C31.5137 34.0749 31.576 33.9814 31.576 33.9814C31.6696 34.0126 31.7632 34.0749 31.9191 34.1373Z" fill="#B2B1B1"/>
<path d="M58.8931 42.5572C58.6124 42.5884 58.4253 42.6196 58.4565 42.2142C58.4877 41.4969 58.4565 40.7485 58.4565 40.0312C58.4565 39.6882 58.5501 39.5323 58.8931 39.5635C60.8889 39.6882 62.8536 39.7818 64.8494 39.8753C65.2237 39.9065 65.3796 40.0312 65.286 40.4055C65.1925 40.8421 65.0989 41.3098 65.0677 41.7464C65.0365 41.9959 64.943 42.183 64.6935 42.2142C64.1322 42.4637 63.5085 42.183 62.9472 42.4013C62.2611 42.5572 61.5438 42.3701 60.8578 42.526C60.5771 42.5884 60.2964 42.682 59.9846 42.6508C59.5792 42.6196 59.2361 42.4949 58.8931 42.5572Z" fill="white"/>
<path d="M53 41.684C53.9355 43.4928 55.2765 44.9896 56.6798 46.4241C56.5551 46.4553 56.3991 46.4241 56.2744 46.5177C54.8087 45.3327 53.6548 43.9293 52.8752 42.2142C52.8752 42.0582 52.7193 41.8088 53 41.684Z" fill="#201F1F"/>
<path d="M58.426 30.8005C58.8938 30.8628 58.9874 30.4574 59.2057 30.1768C59.5175 30.4886 60.1412 30.6133 59.8294 31.2682C59.767 31.3618 59.9229 31.5177 59.9541 31.5177C60.4842 31.237 60.3283 31.7048 60.2659 31.8607C60.1412 32.1102 60.0165 32.3597 59.5799 32.2662C59.0185 32.1102 58.925 31.6113 58.5508 31.2994C58.4572 31.2059 58.3637 31.0811 58.3013 30.9564C58.2701 30.8005 58.3013 30.7693 58.426 30.8005Z" fill="#FDFDFD"/>
<path d="M58.0201 29.4595C57.8018 28.7735 57.9265 28.0562 57.8018 27.339C57.8018 27.2454 57.8018 27.1207 57.9265 27.0895C58.0824 27.0583 58.176 27.1207 58.2072 27.2454C58.3319 27.5261 58.519 27.8067 58.2383 28.1498C58.0201 28.4304 57.9577 28.8047 58.0824 29.1789C58.0824 29.2724 58.1136 29.3972 58.0201 29.4595Z" fill="#F1F1F1"/>
<path d="M58.0205 29.4595C58.0517 29.3659 58.0829 29.3036 58.1141 29.21C58.1452 29.2412 58.1764 29.2724 58.2076 29.3036C58.4883 29.4283 58.2388 28.8046 58.5507 29.0229C58.8001 29.21 58.8001 29.5219 58.8001 29.8337C58.8001 30.0208 58.7066 30.1767 58.5507 30.3327C58.3324 30.0208 58.0517 29.8337 58.0205 29.4595Z" fill="#F8F8F8"/>
<path d="M58.1132 44.7402C58.1755 45.2703 58.1755 45.6757 58.1132 46.1123C57.4583 45.8628 57.3335 46.0188 58.1132 44.7402Z" fill="#F0F0F0"/>
<path d="M57.0845 28.8359C56.7415 28.2745 56.7415 27.7444 56.8662 27.1831C56.8974 27.0271 57.0845 26.9648 57.2093 27.0271C57.4276 27.1207 57.3028 27.2766 57.2093 27.3702C56.9598 27.682 56.9598 27.9939 57.0845 28.3369C57.1781 28.4928 57.2093 28.6488 57.0845 28.8359Z" fill="#E0E0E0"/>
<path d="M56.3989 50.6965C56.5548 50.4782 56.7731 50.2911 56.8043 50.0104C56.8355 49.7298 57.0226 49.7921 57.1473 49.8545C57.3345 49.9481 57.3656 50.1352 57.2097 50.2599C56.9291 50.5094 56.7419 50.9148 56.3054 50.946C56.2118 50.8213 56.3054 50.7589 56.3989 50.6965Z" fill="#E1E1E1"/>
<path d="M66.6894 44.9272C66.5647 44.4282 66.7518 43.9916 66.8142 43.5239C67.0948 44.0852 67.0636 44.397 66.6894 44.9272Z" fill="#E0DFDF"/>
<path d="M58.4262 30.8005C58.3638 30.8316 58.3326 30.894 58.2702 30.9252C57.9584 30.7693 57.8025 30.4574 57.6465 30.2079C57.5842 30.0832 57.6465 30.052 57.7713 30.0832C57.9272 30.3639 58.395 30.3639 58.4262 30.8005Z" fill="#E0E0E0"/>
<path d="M62.8848 42.3077C63.4773 42.183 64.0698 42.183 64.6623 42.2142C64.7559 42.2765 64.8182 42.3389 64.9118 42.4325C64.7871 42.4325 64.6623 42.4325 64.5376 42.4325C63.9762 42.2765 63.4149 42.4948 62.8848 42.3077Z" fill="#4B4644"/>
<path d="M58.8936 42.5572C59.2366 42.4325 59.5796 42.4325 59.9227 42.4637C59.9538 42.526 59.985 42.5884 59.9538 42.6508C59.8291 42.8067 59.7044 42.8067 59.5484 42.7132C59.4237 42.7132 59.299 42.682 59.1742 42.682C59.0807 42.6196 58.9871 42.5884 58.8936 42.5572Z" fill="#87807E"/>
<path d="M56.3987 50.6964C56.3675 50.7899 56.3363 50.8523 56.3051 50.9459C56.2116 50.9459 56.1492 50.9459 56.0557 50.9459C56.0557 50.7588 56.1492 50.634 56.274 50.5405C56.3051 50.5717 56.3363 50.634 56.3987 50.6964Z" fill="#3F3F3E"/>
<path d="M57.7708 30.0833C57.7396 30.1144 57.7084 30.1768 57.646 30.208C57.5525 30.0521 57.4277 29.9273 57.4277 29.709C57.6148 29.7714 57.7396 29.8962 57.7708 30.0833Z" fill="#D1D1D1"/>
<path d="M74.4237 19.1685C74.5796 19.1997 74.6732 19.2621 74.642 19.3556C74.642 19.3868 74.5796 19.4492 74.5173 19.4492C74.4237 19.4492 74.3613 19.3868 74.3613 19.2933C74.3613 19.2309 74.4237 19.1685 74.4237 19.1685Z" fill="#B3B2B2"/>
<path d="M71.4614 27.8379C71.3679 27.9938 71.4926 28.1186 71.5238 28.2433C71.5862 28.4304 71.4614 28.524 71.3055 28.6175C71.1184 28.7423 71.056 28.6487 70.9936 28.4928C70.8377 28.1186 70.4011 28.3369 70.1516 28.1186C70.0581 28.0562 70.0581 28.2433 70.0269 28.3369C69.7151 29.1789 68.2494 29.4595 67.6568 28.7734C67.345 28.3992 66.8772 28.1497 67.0331 27.526C67.0643 27.3701 66.8148 27.183 66.6277 27.2766C66.2535 27.4637 65.9105 27.2142 65.5363 27.3078C65.3492 27.3701 65.2244 27.183 65.1309 27.0583C65.0373 26.8712 65.162 26.7464 65.318 26.6529C66.2847 26.1227 67.2203 25.8109 68.3741 26.1851C68.8107 26.3098 69.372 26.3098 69.871 26.2475C70.8689 26.1851 71.555 26.8712 71.4614 27.8379Z" fill="#0E0E0E"/>
<path d="M71.2104 37.8483C70.1501 38.6903 70.1501 38.6903 68.5908 37.0375C69.6199 37.1622 70.2436 38.0666 71.2104 37.8483Z" fill="#292929"/>
<path d="M71.586 29.2412C71.4613 29.0229 71.4301 28.867 71.586 28.7111C71.7732 28.867 71.6796 29.0229 71.586 29.2412Z" fill="#201F1F"/>
<path d="M52.9993 41.684C52.8434 41.8399 52.9369 42.0582 52.8745 42.2142C52.781 41.9335 52.7186 41.6216 52.6251 41.341C52.5627 41.1851 52.6251 41.1851 52.7498 41.1851C52.8433 41.3722 52.9369 41.5281 52.9993 41.684Z" fill="#454544"/>
<path d="M52.7819 41.1851C52.7507 41.2474 52.6884 41.2786 52.6572 41.341C52.4701 41.1851 52.5324 40.998 52.5324 40.8109C52.6884 40.8732 52.7507 41.0291 52.7819 41.1851Z" fill="#595958"/>
<path d="M86.5551 52.5052C86.7422 52.5987 86.7733 52.7235 86.7422 52.9106C86.7422 52.9418 86.6174 53.0041 86.5862 52.973C86.4303 52.817 86.5551 52.6611 86.5551 52.5052Z" fill="#B5B5B4"/>
<path d="M59.5172 42.7131C59.642 42.6819 59.7979 42.7131 59.8914 42.5884C60.1409 42.4948 60.3904 42.4636 60.6399 42.5884C60.5775 43.6175 60.5151 44.6466 60.484 45.6757C60.484 45.9564 60.3904 46.0811 60.0786 46.0499C59.8291 46.0187 59.5796 46.0499 59.4237 46.5177C59.3301 45.1144 59.6108 43.9293 59.5172 42.7131Z" fill="#FFFEFD"/>
<path d="M62.8859 42.3077C63.4161 42.4013 64.0086 42.2142 64.5387 42.4325C63.2913 42.4948 62.0439 42.6508 60.7965 42.5572C60.7654 42.526 60.7342 42.4948 60.7654 42.4636C60.7654 42.4325 60.7965 42.4325 60.7965 42.4325C61.4826 42.2765 62.1687 42.3077 62.8859 42.3077Z" fill="#4A413D"/>
<path d="M60.7653 42.4325C60.7653 42.4637 60.7653 42.526 60.7653 42.5572C60.7341 42.5572 60.6717 42.5884 60.6405 42.5884C60.3911 42.5884 60.1416 42.5884 59.8921 42.5884C59.8921 42.5572 59.8921 42.526 59.8921 42.4637C60.2039 42.4637 60.4846 42.4325 60.7653 42.4325Z" fill="#585654"/>
<path d="M43.799 31.2994C43.3936 31.1435 43.1441 30.8005 42.8635 30.4886C42.7699 30.3951 42.614 30.3015 42.7076 30.1144C42.8011 29.9585 42.9259 29.9897 43.0818 29.9897C44.0797 30.0209 45.0152 30.1768 45.9508 30.4886C46.4186 30.6446 46.8863 30.7693 47.3853 30.8317C47.666 30.8628 48.1649 30.7693 48.1026 31.3306C48.1026 31.4554 48.1961 31.393 48.2897 31.4242C48.352 31.4242 48.4768 31.4242 48.508 31.4865C48.5703 31.6425 48.4768 31.7984 48.352 31.8608C48.0714 32.0791 48.0402 32.6716 47.6036 32.5468C46.9175 32.3597 46.1691 32.3285 45.5142 32.0167C45.483 31.8296 45.6389 31.8296 45.7325 31.7672C46.0755 31.7048 46.4186 31.8608 46.7928 31.8608C46.8863 31.8608 47.0111 31.8608 47.0423 31.736C47.0423 31.6425 46.9799 31.5801 46.9175 31.5489C46.1691 31.1747 45.3895 30.9564 44.5163 30.9252C44.2668 30.9252 44.2044 31.0811 44.1109 31.2371C44.0173 31.3618 43.9238 31.4242 43.799 31.2994Z" fill="#141414"/>
<path d="M43.8942 22.7235C44.5179 22.7859 45.0792 22.8171 45.6406 23.0665C45.9524 23.1913 46.1395 23.4408 46.2643 23.7214C46.3578 24.0021 45.89 24.1892 46.0772 24.5322C45.7965 24.5946 45.4846 24.7817 45.2663 24.6882C44.2996 24.3763 43.2705 24.158 42.5221 23.3784C42.3661 23.2225 42.3038 23.2225 42.4909 23.0977C42.8963 22.8171 43.3952 22.7235 43.8942 22.7235Z" fill="#121211"/>
<path d="M48.79 30.894C48.3535 30.3015 47.5738 30.5822 47.3244 29.9585C47.0125 29.21 46.4824 28.7111 45.7027 28.4928C45.6404 28.4616 45.6092 28.3368 45.5156 28.1809C46.077 28.2433 46.5447 28.3056 47.0437 28.3992C47.3244 28.4304 47.5738 28.5551 47.7298 28.8046C47.9792 29.1476 48.2599 29.3036 48.6965 29.1165C48.946 29.0229 49.1019 29.0853 49.0395 29.3971C48.9148 29.8337 48.8836 30.3015 48.79 30.894Z" fill="#151514"/>
<path d="M45.2976 21.4138C45.9213 21.6009 46.545 21.8192 47.0128 22.3493C47.2623 22.63 47.4182 22.9418 47.0752 23.316C46.6386 22.474 45.9213 21.9751 45.1729 21.5385C45.1417 21.4137 45.1729 21.3514 45.2976 21.4138Z" fill="#353433"/>
<path d="M45.5461 32.9211C46.1387 33.0458 46.7 33.2017 47.2925 32.9523C47.3549 32.9211 47.4484 32.9211 47.5108 33.0146C47.542 33.1394 47.4796 33.2017 47.3861 33.2641C46.9495 33.6071 46.4505 33.576 45.9827 33.3888C45.7644 33.3265 45.6085 33.1706 45.4214 33.0458C45.3902 32.9523 45.4214 32.8587 45.5461 32.9211Z" fill="#393938"/>
<path d="M45.8278 31.9231C45.7343 31.9543 45.6407 32.0166 45.5471 32.0478C44.9234 31.8919 44.3309 31.6736 43.8008 31.2994C43.8943 31.2682 43.9567 31.237 44.0503 31.2058C44.7675 31.0811 45.2977 31.4865 45.8278 31.9231Z" fill="#3E3D3D"/>
<path d="M43.8942 28.5552C43.4576 28.8982 42.9898 29.1789 42.335 29.2413C42.7404 28.6488 43.3329 28.6488 43.7695 28.4305C43.8942 28.3681 43.9254 28.4305 43.8942 28.5552Z" fill="#3B3B3A"/>
<path d="M43.8938 28.5552C43.8626 28.524 43.8002 28.4616 43.769 28.4304C43.8938 28.3057 44.0497 28.1809 44.268 28.2121C44.2368 28.4304 44.0497 28.4928 43.8938 28.5552Z" fill="#767675"/>
<path d="M45.5463 32.9211C45.484 32.9834 45.4528 33.0146 45.3904 33.077C45.2968 33.0146 45.2033 32.9211 45.0474 32.8275C45.2968 32.7651 45.4528 32.7963 45.5463 32.9211Z" fill="#727271"/>
<path d="M43.8934 21.4139C43.831 21.3515 43.7686 21.3515 43.7374 21.2891C43.6751 21.1956 43.7998 21.1956 43.831 21.1956C43.8934 21.1956 43.9245 21.2267 43.9869 21.2579C43.9557 21.3203 43.9245 21.3515 43.8934 21.4139Z" fill="#646363"/>
<path d="M45.2972 21.4138C45.2348 21.4449 45.2036 21.5073 45.1412 21.5385C45.0165 21.5385 44.8606 21.5073 44.7358 21.3514C44.9853 21.289 45.1412 21.2578 45.2972 21.4138Z" fill="#555554"/>
<path d="M68.2489 27.6507C67.937 27.5572 67.5628 27.5572 67.251 27.3077C68.0618 27.0894 68.8726 27.0582 69.6522 27.1206C69.9329 27.1518 70.2136 27.2765 69.8081 27.7131C69.2156 28.368 69.1844 28.4616 68.3425 28.1497C68.2489 28.1185 68.0618 28.1497 68.0618 27.9938C68.0618 27.8067 68.2801 27.8379 68.4048 27.8067C68.5296 27.6819 68.7167 27.7131 68.8414 27.6819C68.6543 27.7443 68.4672 27.6196 68.2489 27.6507Z" fill="#FBFBFB"/>
<path d="M68.248 27.6508C68.5287 27.4637 68.8094 27.5261 69.2148 27.5884C68.9029 27.8067 68.6535 27.7755 68.404 27.7755C68.3416 27.7444 68.3104 27.7132 68.248 27.6508Z" fill="#7B7B7A"/>
<path d="M45.8266 31.9232C45.2029 31.7361 44.6727 31.2995 44.0178 31.2059C43.9555 30.8629 44.0178 30.6446 44.4232 30.7382C45.2029 30.8941 45.9825 30.9565 46.6997 31.2995C46.8245 31.3619 46.9804 31.4242 47.074 31.5178C47.1987 31.6113 47.4482 31.6737 47.3235 31.9544C47.2299 32.1727 47.0116 32.1415 46.8245 32.1103C46.5126 32.0479 46.1696 31.9856 45.8266 31.9232Z" fill="#FBFBFB"/>
<path d="M45.0479 24.4076C44.892 24.2829 44.5489 24.4388 44.5801 24.1581C44.6113 23.971 44.6737 23.5968 44.9543 23.5968C45.1726 23.628 45.3286 23.9087 45.3909 24.1581C45.4533 24.4388 45.1726 24.3452 45.0479 24.4076Z" fill="#ECECEC"/>
</svg>
