<svg width="120" height="80" viewBox="0 0 120 80" fill="none" xmlns="http://www.w3.org/2000/svg">
<g clip-path="url(#clip0_434_53)">
<path d="M116 0H4C1.79086 0 0 1.79086 0 4V76C0 78.2091 1.79086 80 4 80H116C118.209 80 120 78.2091 120 76V4C120 1.79086 118.209 0 116 0Z" fill="white"/>
<g clip-path="url(#clip1_434_53)">
<path d="M18.501 56.1358L18.3501 57.3174C18.3343 57.4441 18.3438 57.5728 18.378 57.6959C18.4121 57.819 18.4703 57.9341 18.5492 58.0346C18.6281 58.1351 18.7261 58.219 18.8375 58.2814C18.949 58.3438 19.0717 58.3836 19.1986 58.3984H57.6057C57.7345 58.4 57.8623 58.3763 57.9819 58.3286C58.1015 58.2808 58.2105 58.21 58.3027 58.1201C58.3949 58.0302 58.4685 57.9231 58.5193 57.8048C58.5701 57.6864 58.5971 57.5593 58.5987 57.4305C58.602 57.3908 58.602 57.3508 58.5987 57.3111L58.4416 56.1295C58.3976 55.6873 58.5301 55.2457 58.8103 54.9007C59.0905 54.5558 59.4956 54.3356 59.9374 54.288C60.1541 54.2645 60.3732 54.2838 60.5824 54.345C60.7916 54.4062 60.9867 54.5079 61.1565 54.6445C61.3264 54.7811 61.4676 54.9498 61.5723 55.141C61.6769 55.3321 61.7428 55.542 61.7663 55.7587L61.9172 56.9089C62.2125 59.4668 60.7607 61.7168 58.1462 61.7168H18.7775C16.1881 61.7168 14.7426 59.4668 15.038 56.9089L15.1888 55.7587C15.2108 55.5432 15.2751 55.3341 15.378 55.1434C15.4809 54.9528 15.6204 54.7843 15.7886 54.6477C15.9567 54.5111 16.1502 54.409 16.3579 54.3473C16.5656 54.2856 16.7834 54.2654 16.9989 54.288C17.4412 54.3371 17.8463 54.5587 18.1264 54.9046C18.4064 55.2505 18.5387 55.6929 18.4947 56.1358" fill="#FF0000"/>
<path d="M53.8904 47.2567C54.721 47.3013 55.5355 47.0148 56.1552 46.4599C56.7748 45.905 57.1492 45.127 57.1963 44.2965C57.1993 44.2421 57.1993 44.1876 57.1963 44.1331C57.1586 42.3042 55.4931 41.1226 53.639 41.1164H49.8869C49.4702 41.1164 49.0706 40.9508 48.7759 40.6562C48.4812 40.3615 48.3157 39.9619 48.3157 39.5451C48.3157 39.1284 48.4812 38.7288 48.7759 38.4341C49.0706 38.1394 49.4702 37.9739 49.8869 37.9739H52.4009C54.0915 37.9048 55.3925 36.8803 55.4742 35.2902C55.5559 33.5745 54.0853 32.2923 52.2941 32.2923H46.2103V47.2316H53.8904M58.4973 35.2902C58.5 35.9458 58.3719 36.5953 58.1204 37.2008C57.869 37.8062 57.4993 38.3554 57.0329 38.8161L56.9386 38.9229L57.0643 38.9983C57.9834 39.5094 58.7554 40.2485 59.3058 41.1446C59.8562 42.0407 60.1665 43.0634 60.2068 44.1143C60.2287 45.7737 59.5934 47.3744 58.4395 48.5671C57.2856 49.7599 55.7068 50.4478 54.0476 50.4809H44.6202C44.184 50.4743 43.7681 50.2955 43.4632 49.9835C43.1582 49.6715 42.989 49.2516 42.9924 48.8154V30.8845C42.989 30.6646 43.0297 30.4462 43.1122 30.2422C43.1946 30.0383 43.317 29.8529 43.4723 29.6971C43.6275 29.5413 43.8124 29.4181 44.0161 29.3349C44.2197 29.2517 44.4379 29.2102 44.6579 29.2127H52.2941C53.894 29.1688 55.4459 29.7616 56.609 30.8611C57.7721 31.9606 58.4512 33.4767 58.4973 35.0766V35.284" fill="#1D1D1B"/>
<path d="M28.6635 44.3461L28.7074 44.4718L28.7514 44.3461C29.1788 43.1646 29.7005 41.8322 30.2473 40.4306C30.794 39.0291 31.3785 37.4956 31.9379 36.1254C32.4973 34.7553 33.044 33.4984 33.5594 32.4173C33.8987 31.6196 34.3199 30.8592 34.8164 30.1485C35.0583 29.8481 35.3661 29.6074 35.7159 29.445C36.0658 29.2826 36.4483 29.2029 36.8338 29.212H37.2172C37.6531 29.1939 38.081 29.3321 38.4239 29.6017C38.6872 29.82 38.8578 30.1299 38.9016 30.469L41.2961 49.0095C41.3059 49.2148 41.2748 49.4199 41.2047 49.613C41.1345 49.8061 41.0268 49.9834 40.8876 50.1345C40.5634 50.4059 40.1467 50.5411 39.7249 50.5116C39.2943 50.5358 38.8683 50.4116 38.5182 50.1597C38.3635 50.054 38.2334 49.9162 38.1369 49.7557C38.0403 49.5952 37.9796 49.4157 37.9588 49.2295C37.8771 48.601 37.808 47.9285 37.7326 47.1743C37.6572 46.4201 37.2549 43.196 37.1481 42.3727C37.0412 41.5493 36.3813 36.3014 36.1488 34.3971V34.2337L35.382 35.8426C35.1243 36.3957 34.8415 37.0556 34.5336 37.8287C34.2256 38.6017 33.9051 39.4187 33.6097 40.2861C33.3143 41.1534 31.7933 45.3517 31.7933 45.3517C31.6551 45.7351 31.3911 46.5081 31.1648 47.2372C30.9386 47.9662 30.7061 48.5884 30.6495 48.7079C30.3902 49.2153 29.94 49.599 29.3978 49.7746C28.8557 49.9502 28.266 49.9033 27.7584 49.6443C27.3453 49.4381 27.0085 49.1057 26.7968 48.6953C26.734 48.5759 26.5203 47.9348 26.2752 47.2246C26.0301 46.5144 25.7912 45.7477 25.6467 45.3391C25.6467 45.3391 24.1697 41.1031 23.8366 40.2735C23.5035 39.4439 23.2081 38.5954 22.9128 37.8161C22.6174 37.0368 22.3157 36.3831 22.0643 35.8301L21.2912 34.24V34.4034C21.0587 36.2889 20.3925 41.543 20.2857 42.3789C20.1788 43.2148 19.7892 46.4076 19.7012 47.1555C19.6132 47.9034 19.544 48.5947 19.4686 49.2106C19.4478 49.3968 19.3871 49.5763 19.2906 49.7369C19.194 49.8974 19.064 50.0352 18.9093 50.1408C18.5608 50.3913 18.1374 50.5155 17.7088 50.4928C17.2911 50.5209 16.8787 50.3857 16.5587 50.1157C16.4196 49.9645 16.3118 49.7872 16.2417 49.5941C16.1715 49.401 16.1404 49.1959 16.1502 48.9907L18.5133 30.469C18.5681 30.1428 18.7402 29.8477 18.9973 29.6394C19.334 29.3547 19.7631 29.2028 20.204 29.212H20.5873C20.9693 29.2026 21.3483 29.2803 21.6957 29.4393C22.0431 29.5983 22.3497 29.8344 22.5922 30.1296C23.091 30.8389 23.5124 31.5995 23.8492 32.3985C24.3646 33.4795 24.9051 34.7155 25.4707 36.1066C26.0364 37.4977 26.602 38.9327 27.1676 40.4118C27.7144 41.8322 28.2298 43.1457 28.6572 44.3273" fill="#1D1D1B"/>
<path d="M23.9986 17.9993H53.0726C55.8128 17.9993 57.1766 20.0545 57.472 22.7696L57.5977 23.6369C57.6472 24.0859 57.517 24.5362 57.2356 24.8895C56.9541 25.2428 56.5443 25.4703 56.0956 25.5224C55.6553 25.5573 55.219 25.4172 54.8813 25.1324C54.5436 24.8477 54.3318 24.4413 54.2919 24.0014L54.1662 23.1655C54.0467 22.1348 53.6131 21.3366 52.5635 21.3366H24.5139C23.4643 21.3366 23.0307 22.1348 22.905 23.1655L22.7919 23.9888C22.752 24.4294 22.539 24.8362 22.1998 25.1201C21.8605 25.4041 21.4225 25.5419 20.9818 25.5035C20.7593 25.4785 20.5439 25.4099 20.348 25.3016C20.152 25.1932 19.9793 25.0474 19.8398 24.8722C19.7003 24.6971 19.5967 24.4962 19.5349 24.281C19.4731 24.0658 19.4544 23.8405 19.4797 23.618L19.5991 22.7507C19.9259 20.0419 21.2835 17.9805 23.9986 17.9805" fill="#FF0000"/>
<path d="M76.2784 37.5465C76.0773 38.3196 75.8699 39.1492 75.6499 40.0605C75.4299 40.9718 75.21 41.7888 75.0214 42.5744C74.8329 43.3601 74.6129 44.0765 74.3929 44.6862C74.2753 45.1198 74.1154 45.5409 73.9153 45.9432C73.7921 46.1426 73.6155 46.3036 73.4056 46.408C73.1957 46.5124 72.9608 46.556 72.7274 46.5339C72.5148 46.5286 72.3037 46.497 72.0989 46.4397C71.9623 46.3983 71.8358 46.3289 71.7276 46.2358C71.6193 46.1427 71.5318 46.0281 71.4704 45.8992C71.2715 45.479 71.1116 45.0414 70.9928 44.5919C70.8042 43.9634 70.6031 43.1966 70.3643 42.3482C70.1255 41.4997 69.9432 40.6073 69.7358 39.6582C69.5284 38.7092 69.3273 37.8293 69.1639 37.0186C69.0005 36.2078 68.8496 35.5102 68.7365 34.9446C68.6234 34.3789 68.5605 34.0332 68.5417 33.9138C68.5382 33.8657 68.5382 33.8174 68.5417 33.7693V33.6876C68.5382 33.5752 68.5615 33.4636 68.6096 33.362C68.6576 33.2604 68.7291 33.1717 68.8182 33.1031C69.0108 32.9508 69.2517 32.8727 69.497 32.8831C69.7181 32.8735 69.937 32.9304 70.1255 33.0465C70.3068 33.182 70.4284 33.3825 70.4648 33.6059C70.4648 33.6059 70.5026 33.8384 70.578 34.2344C70.6534 34.6303 70.7602 35.1017 70.8797 35.6862C70.9991 36.2707 71.1373 36.9432 71.2819 37.6785C71.4264 38.4138 71.5836 39.1617 71.7533 39.9159C71.9229 40.6701 72.0801 41.3929 72.2435 42.1031C72.4069 42.8133 72.5514 43.4166 72.696 43.9257C72.8343 43.448 72.9914 42.9013 73.1611 42.2853C73.3308 41.6694 73.5067 41.0284 73.6764 40.3999C73.8461 39.7714 74.0033 39.0863 74.1604 38.4327C74.3175 37.779 74.4621 37.1757 74.6003 36.5975C74.7386 36.0193 74.8454 35.5353 74.946 35.0954C75.0465 34.6554 75.122 34.3349 75.1785 34.1212C75.242 33.8741 75.383 33.6539 75.5808 33.4927C75.7728 33.3184 76.0194 33.2162 76.2784 33.2036C76.5551 33.1909 76.8272 33.2778 77.0452 33.4487C77.2406 33.6076 77.3741 33.83 77.4222 34.0772C77.5919 34.7623 77.7553 35.5416 77.9376 36.3964C78.1199 37.2511 78.3147 38.1122 78.5095 38.9858C78.7044 39.8594 78.9181 40.7204 79.138 41.5626C79.358 42.4047 79.5591 43.1464 79.7665 43.7937C79.9048 43.2846 80.0619 42.6813 80.2253 41.9774C80.3887 41.2735 80.5459 40.5444 80.7155 39.7902C80.8852 39.036 81.0549 38.307 81.2058 37.5716C81.3566 36.8363 81.5074 36.1764 81.6331 35.5919C81.7588 35.0074 81.8657 34.5297 81.9348 34.1652C82.004 33.8007 82.0542 33.5996 82.0542 33.587C82.0978 33.3681 82.2182 33.172 82.3936 33.0339C82.5814 32.9163 82.8008 32.8593 83.0221 32.8705C83.2691 32.8619 83.5114 32.9397 83.7072 33.0905C83.7951 33.1601 83.8658 33.249 83.9138 33.3504C83.9617 33.4518 83.9857 33.5629 83.9837 33.675V33.7567C83.9867 33.8069 83.9867 33.8573 83.9837 33.9075C83.9837 34.0207 83.902 34.3601 83.7826 34.9383C83.6632 35.5165 83.5186 36.1953 83.3489 37.006C83.1792 37.8168 82.9844 38.6966 82.777 39.6331C82.5696 40.5696 82.3496 41.462 82.1485 42.3105C81.9474 43.1589 81.7463 43.9068 81.52 44.5479C81.4022 44.9936 81.2423 45.4271 81.0424 45.8426C80.9155 46.1065 80.6897 46.3098 80.4139 46.4082C80.2111 46.4768 79.9993 46.5149 79.7854 46.5214C79.6996 46.5276 79.6135 46.5276 79.5277 46.5214C79.4042 46.5038 79.2823 46.4765 79.1632 46.4397C79.0282 46.3916 78.9012 46.3238 78.7861 46.2385C78.6543 46.1414 78.5503 46.0114 78.4844 45.8615C78.3008 45.4291 78.1496 44.9838 78.0319 44.529C77.8496 43.9006 77.6611 43.2092 77.4537 42.4299C77.2463 41.6506 77.0514 40.8209 76.8252 39.9662C76.5989 39.1115 76.4418 38.3133 76.2721 37.5716" fill="#1D1D1B"/>
<path d="M87.4042 42.599C87.1905 43.2778 87.0019 43.9063 86.8448 44.4845C86.6877 45.0627 86.5243 45.5341 86.386 45.9049C86.3527 46.1549 86.2214 46.3814 86.021 46.5347C85.8206 46.6879 85.5676 46.7552 85.3176 46.7219C85.0675 46.6886 84.841 46.5573 84.6878 46.3569C84.5345 46.1565 84.4672 45.9035 84.5005 45.6535C84.4993 45.5594 84.5142 45.4659 84.5445 45.3769L84.8085 44.5033C84.9593 44.0131 85.1542 43.4035 85.393 42.6618C85.6318 41.9202 85.9021 41.1283 86.1912 40.2547C86.4803 39.3811 86.782 38.5138 87.0899 37.659C87.3979 36.8043 87.7184 36.0061 88.0075 35.2708C88.2489 34.6529 88.5324 34.0523 88.856 33.4733C88.9477 33.2633 89.11 33.0921 89.3148 32.9894C89.5633 32.8949 89.8285 32.8521 90.0941 32.8637C90.3672 32.858 90.6386 32.9072 90.8923 33.0082C90.9978 33.0587 91.0921 33.1298 91.1698 33.2172C91.2475 33.3046 91.307 33.4066 91.3448 33.5173C91.5459 33.9384 91.7847 34.5103 92.055 35.2205C92.3253 35.9307 92.6269 36.7037 92.9286 37.5334C93.2303 38.363 93.5571 39.2051 93.8336 40.0473C94.1102 40.8895 94.4056 41.7065 94.6507 42.4482C94.8958 43.1898 95.1095 43.8246 95.2792 44.3336C95.4489 44.8427 95.5683 45.1947 95.606 45.3518C95.6363 45.4408 95.6512 45.5343 95.65 45.6283C95.6563 45.7456 95.6365 45.8629 95.5919 45.9716C95.5474 46.0803 95.4792 46.1777 95.3923 46.2568C95.2928 46.3455 95.1763 46.413 95.0499 46.4551C94.9234 46.4973 94.7897 46.5132 94.657 46.5019C94.4614 46.5203 94.2661 46.4642 94.1102 46.3448C93.9783 46.221 93.8808 46.0651 93.8274 45.8923C93.6828 45.5215 93.5194 45.0501 93.3246 44.4719C93.1297 43.8937 92.9286 43.2652 92.6961 42.5864H87.3853M92.099 40.7449C91.7973 39.8273 91.5208 38.9852 91.2505 38.231C90.9803 37.4768 90.7415 36.754 90.4398 36.0375C90.3706 35.8804 90.2952 35.7044 90.2198 35.4908C90.1444 35.2771 90.0941 35.1702 90.0815 35.1325C90.0226 35.24 89.9762 35.3539 89.9433 35.4719C89.8616 35.6982 89.7924 35.8804 89.717 36.0375C89.4342 36.7289 89.1639 37.4579 88.9 38.231C88.636 39.004 88.3595 39.8399 88.0641 40.7449H92.099Z" fill="#1D1D1B"/>
<path d="M99.2975 41.1856C99.2238 41.1119 99.1565 41.032 99.0963 40.9468L98.8889 40.6577C98.6878 40.3749 98.4804 40.0292 98.2604 39.627C98.0405 39.2247 97.7891 38.7974 97.5565 38.37C97.324 37.9426 97.0977 37.4587 96.8841 36.9999C96.6704 36.5411 96.4567 36.1137 96.287 35.7429C96.1173 35.3721 95.9539 35.0013 95.8282 34.7122C95.7338 34.5093 95.656 34.2991 95.5956 34.0837C95.5712 34.0313 95.5523 33.9765 95.5391 33.9203C95.5391 33.9203 95.5391 33.8386 95.5391 33.7631C95.5383 33.646 95.5614 33.5299 95.6067 33.4219C95.6521 33.3139 95.7189 33.2162 95.803 33.1347C95.9019 33.0443 96.018 32.975 96.1444 32.9307C96.2708 32.8864 96.4048 32.8681 96.5384 32.877C96.6524 32.8641 96.7679 32.8766 96.8765 32.9136C96.9852 32.9505 97.0843 33.011 97.1669 33.0907C97.2773 33.2144 97.3646 33.3571 97.4246 33.5117L97.632 33.9768C97.7388 34.2157 97.8708 34.511 98.0216 34.863C98.1725 35.215 98.3547 35.6046 98.5558 36.032C98.757 36.4594 98.9518 36.8679 99.1843 37.289L99.7814 38.4643C99.9433 38.7805 100.124 39.0869 100.322 39.3819C100.642 38.8814 100.934 38.3631 101.196 37.8295C101.503 37.201 101.824 36.6039 102.082 35.9943C102.339 35.3847 102.61 34.8504 102.823 34.3916L103.194 33.518C103.256 33.3631 103.346 33.2205 103.458 33.0969C103.538 33.0141 103.637 32.9516 103.747 32.9144C103.856 32.8773 103.972 32.8666 104.087 32.8833C104.22 32.8737 104.354 32.8916 104.481 32.9359C104.607 32.9802 104.723 33.05 104.822 33.1409C104.908 33.2208 104.976 33.3182 105.022 33.4266C105.068 33.535 105.089 33.6519 105.086 33.7694C105.092 33.8216 105.092 33.8744 105.086 33.9266L105.036 34.09L104.79 34.7185C104.671 35.0138 104.52 35.3469 104.338 35.7492C104.156 36.1514 103.967 36.5725 103.753 37.0062C103.54 37.4398 103.301 37.9175 103.068 38.3763C102.836 38.8351 102.603 39.2562 102.371 39.6333C102.138 40.0104 101.918 40.3937 101.742 40.6703C101.622 40.8462 101.485 41.0103 101.334 41.1605V45.5599C101.34 45.6881 101.32 45.8162 101.274 45.9362C101.229 46.0562 101.159 46.1656 101.07 46.2576C100.89 46.4353 100.647 46.5349 100.394 46.5349C100.141 46.5349 99.8985 46.4353 99.7186 46.2576C99.6221 46.164 99.5461 46.0514 99.4953 45.9271C99.4444 45.8027 99.4199 45.6691 99.4232 45.5348V41.1354" fill="#1D1D1B"/>
</g>
</g>
<defs>
<clipPath id="clip0_434_53">
<rect width="120" height="80" fill="white"/>
</clipPath>
<clipPath id="clip1_434_53">
<rect width="90" height="43.7242" fill="white" transform="translate(15 18)"/>
</clipPath>
</defs>
</svg>
