<svg width="120" height="80" viewBox="0 0 120 80" fill="none" xmlns="http://www.w3.org/2000/svg">
<rect width="120" height="80" rx="4" fill="white"/>
<rect width="120" height="54" transform="translate(0 26)" fill="#DF0000"/>
<g clip-path="url(#clip0_829_5089)">
<path fill-rule="evenodd" clip-rule="evenodd" d="M147.44 99.5941C145.531 80.5291 136.469 59.7824 136.469 59.7824C121.612 29.3123 88.8805 19.0101 69.5136 35.3555C68.4259 35.7284 67.3921 36.2049 66.4219 36.8064C81.0975 16.5308 114.999 18.1963 137.054 43.5675C137.054 43.5675 147.143 55.6871 154.323 73.726C156.241 67.3702 157.403 60.7655 157.745 54.04C145.926 38.0321 132.599 28.6483 132.599 28.6483C104.927 9.96915 71.9972 16.9102 62.8194 39.9207C61.8503 41.059 61.0569 42.3601 60.4726 43.7583C63.0285 18.8732 93.2225 3.36117 124.996 14.3058C124.996 14.3058 140.394 19.9641 155.95 32.4902C155.727 31.4844 155.524 30.4873 155.268 29.5031C153.589 22.8887 151.126 16.6095 147.992 10.7453C129.869 2.88362 113.773 1.44237 113.773 1.44237C79.5032 -0.960434 53.9994 22.8908 59.3483 48.2049C59.3062 48.6728 59.2879 49.1557 59.2879 49.6311C59.2879 50.3857 59.3397 51.1413 59.4474 51.8614C47.9552 28.8186 66.4155 -0.646744 100.021 -7.17388C100.021 -7.17388 115.768 -9.92595 135.164 -7.02404C130.247 -12.2156 124.641 -16.7732 118.412 -20.6098C98.9498 -18.3201 84.478 -11.6044 84.478 -11.6044C53.5876 3.44201 43.4244 36.8894 60.7496 56.1334C61.2994 57.2955 61.9936 58.3551 62.8043 59.3221C41.1639 45.2017 42.3594 10.3195 68.261 -12.1897C68.261 -12.1897 80.4518 -22.3625 98.6016 -29.5526C91.1086 -31.8024 83.3515 -32.9472 75.5265 -33C60.3713 -21.4624 51.4974 -8.90295 51.4974 -8.90295C32.151 19.7927 40.3123 54.1101 65.3537 61.7939C66.5243 62.542 67.3037 62.9829 68.137 63.3537C42.3626 61.8887 26.0076 31.1147 37.1679 -1.30323C37.1679 -1.30323 42.3562 -15.4128 53.7881 -30.2555C47.2523 -28.5437 41.0507 -26.0891 35.2426 -22.9511C27.8574 -5.33917 26.4754 10.0166 26.4754 10.0166C24.1007 44.0008 47.5337 69.3709 72.6235 64.5589C75.0414 64.6419 75.907 64.5589 76.7457 64.4058C53.7309 75.7515 24.3712 57.2944 17.8635 23.7597C17.8635 23.7597 15.2225 8.58719 17.8635 -10.3248C12.355 -5.10417 7.51817 0.904461 3.52643 7.59976C6.00577 26.239 12.3313 39.9164 12.3313 39.9164C27.5038 71.0224 61.3048 81.1112 80.4777 63.2664C81.8542 62.5032 82.6498 61.9804 83.4054 61.3713C69.3551 83.2391 34.3274 82.1191 11.7535 56.1216C11.7535 56.1216 0.716147 41.4557 -5.35824 24.5358C-5.55443 23.8998 -5.98454 22.8962 -6.55479 22.3497C-7.24793 21.6846 -8.24398 21.4216 -9.22062 21.4216L-10 46.8391C1.05032 59.9333 15.4618 71.1086 15.4618 71.1086C43.2918 89.8891 76.4169 82.7605 85.39 59.4579C86.2696 58.4252 87.0102 57.2858 87.588 56.045C84.9804 80.9064 54.8143 96.3872 23.0626 85.4457C23.0626 85.4457 8.93355 80.2553 -5.90801 68.8104C-5.78835 69.3559 -5.68163 69.911 -5.53611 70.464C-3.78548 77.3232 -1.22421 83.8072 2.07655 89.8482C19.3748 96.9617 34.2961 98.3006 34.2961 98.3006C68.303 100.692 93.685 77.2078 88.8244 52.0824C88.9527 51.2868 89.0195 50.4611 89.0195 49.6149C89.0195 49.3034 89.0098 48.9961 88.9958 48.69C99.6721 71.6056 81.256 100.471 48.0328 106.914C48.0328 106.914 33.1934 109.513 14.5897 107.006C19.0352 111.691 24.0629 115.903 29.6026 119.496C48.8887 117.169 63.1848 110.524 63.1848 110.524C93.4414 95.7813 103.813 63.3968 87.9308 43.9857C87.381 42.593 86.62 41.3134 85.6897 40.1557C106.465 54.6426 104.957 88.8995 79.3986 111.128C79.3986 111.128 66.9696 121.472 48.547 128.681C55.7705 131.105 63.2656 132.549 70.8535 132.896C86.8043 121.091 96.1546 107.824 96.1546 107.824C115.469 79.1956 107.373 44.971 82.4762 37.1869C81.5071 36.5272 80.4582 35.9688 79.3458 35.5549C105.224 36.912 121.685 67.74 110.491 100.247C110.491 100.247 104.872 115.556 92.3925 131.063C93.3896 130.841 94.363 130.637 95.3548 130.381C101.681 128.776 107.631 126.442 113.173 123.572C120.903 105.577 122.319 89.6843 122.319 89.6843C124.681 56.1733 101.935 31.0533 77.2545 34.9404C76.2552 34.7302 75.2171 34.6192 74.1575 34.6192C96.2495 24.6964 124.573 43.0716 130.942 75.9294C130.942 75.9294 134.78 91.5309 131.928 110.006C131.371 112.669 130.253 116.541 128.1 120.67C127.441 121.832 126.632 123.161 125.648 124.744C125.179 125.594 125.106 126.582 125.436 127.31C125.838 128.185 126.694 128.746 127.652 128.746L147.44 99.5941Z" fill="url(#paint0_radial_829_5089)"/>
<path opacity="0.3" d="M53 60H9C8.44772 60 8 60.4477 8 61V63C8 63.5523 8.44772 64 9 64H53C53.5523 64 54 63.5523 54 63V61C54 60.4477 53.5523 60 53 60Z" fill="white"/>
<path opacity="0.3" d="M110 51H9C8.44772 51 8 51.4477 8 52V54C8 54.5523 8.44772 55 9 55H110C110.552 55 111 54.5523 111 54V52C111 51.4477 110.552 51 110 51Z" fill="white"/>
<path fill-rule="evenodd" clip-rule="evenodd" d="M57.6261 31.6365L57.2899 33.4547C57.2899 33.4547 56.0237 33.182 55.9396 33.4092C55.8556 33.6365 55.9817 34.6365 56.3179 35.2729C56.6541 35.9092 56.8642 37.0456 56.6961 37.5456C56.528 38.0456 56.2759 38.7729 55.6454 39.0456C55.015 39.3183 53.5861 39.2274 53.0398 39.0456C52.9978 38.1365 53.1247 37.1323 53.1247 37.1323C53.1247 37.1323 54.5115 37.4959 54.6797 37.405C54.8478 37.3141 54.5938 36.1323 54.3837 35.6777C54.1735 35.2232 53.6272 34.0868 53.8373 33.3595C54.0474 32.6323 54.2576 31.7232 54.972 31.5868C55.6865 31.4504 56.0227 31.2232 56.527 31.3141C57.0314 31.405 57.6261 31.6365 57.6261 31.6365ZM58.2922 31.405L57.0322 39.0868L58.8814 39.1323L59.5958 35.0414C59.5958 35.0414 60.3103 34.6777 60.4364 34.7686C60.5624 34.8595 60.4364 35.5868 60.4364 35.5868L59.7638 39.1344H61.655L62.6218 34.1777C62.6218 34.1777 62.4116 33.0868 62.0754 32.9504C61.7392 32.8141 60.6885 32.9504 60.4364 33.0868C60.1842 33.2232 59.89 33.4504 59.89 33.4504L60.2262 31.1323L58.2922 31.405ZM62.7058 37.7727C62.6206 37.2664 62.7272 36.3547 62.8319 35.7727C63.1261 34.1363 64.095 32.9091 65.3955 32.9091C66.0331 32.9091 66.8828 33.1575 67.2447 33.6818C67.621 34.227 67.4548 35.2008 67.4548 36.0454C67.4548 36.8992 67.1272 37.9523 66.4882 38.5454C65.8872 39.1033 64.9914 39.2273 64.4289 39.2273C63.6879 39.2273 62.8563 38.6668 62.7058 37.7727ZM65.7716 34.5472C65.7716 34.5472 65.1412 34.5472 64.9731 35.0472C64.805 35.5472 64.721 36.229 64.6789 36.5018C64.6369 36.7745 64.3864 37.5018 64.763 37.5018C65.1396 37.5018 65.5599 36.4581 65.6439 35.9581C65.728 35.4581 65.7716 34.5472 65.7716 34.5472ZM68.6758 33.1363L70.5249 32.9545L70.609 33.3636C70.609 33.3636 71.5756 32.8636 71.9539 32.8636C72.3321 32.8636 72.7944 33.4545 72.8784 34.1818C72.9625 34.9091 72.7103 36.1818 72.4582 37.3182C72.206 38.4545 71.0713 39.0454 70.8612 39.0909C70.651 39.1363 69.4743 39.1363 69.4743 39.1363L69.2221 40.6363L67.2889 40.8182L68.6758 33.1363ZM70.983 34.729C70.983 34.729 70.3526 34.729 70.1845 35.229C70.0164 35.729 69.9323 36.4108 69.8903 36.6836C69.8482 36.9563 69.5977 37.6836 69.9743 37.6836C70.3509 37.6836 70.7712 36.6399 70.8552 36.1399C70.9393 35.6399 70.983 34.729 70.983 34.729ZM73.8871 33.1363L75.7363 32.9545L75.8203 33.3636C75.8203 33.3636 76.7869 32.8636 77.1652 32.8636C77.5434 32.8636 78.0057 33.4545 78.0898 34.1818C78.1738 34.9091 77.9217 36.1818 77.6695 37.3182C77.4174 38.4545 76.2826 39.0454 76.0725 39.0909C75.8624 39.1363 74.6856 39.1363 74.6856 39.1363L74.4334 40.6363L72.5002 40.8182L73.8871 33.1363ZM76.1943 34.729C76.1943 34.729 75.5639 34.729 75.3958 35.229C75.2277 35.729 75.1436 36.4108 75.1016 36.6836C75.0596 36.9563 74.8091 37.6836 75.1857 37.6836C75.5623 37.6836 75.9825 36.6399 76.0666 36.1399C76.1506 35.6399 76.1943 34.729 76.1943 34.729Z" fill="white"/>
<path fill-rule="evenodd" clip-rule="evenodd" d="M79.1409 33.046L78.0909 39.001L79.9819 39.092L81.0329 33.001L79.1409 33.046Z" fill="white"/>
<path fill-rule="evenodd" clip-rule="evenodd" d="M79.3939 31.228L79.1829 32.546L81.1589 32.41L81.3689 31.092L79.3939 31.228Z" fill="white"/>
<path fill-rule="evenodd" clip-rule="evenodd" d="M81.7469 33.0454L80.7383 39.0454H82.6707L83.3011 35.0909C83.3011 35.0909 84.3098 34.5 84.2677 34.8182C84.2257 35.1363 83.5953 39.0454 83.5953 39.0454H85.4445L86.243 34.5454C86.243 34.5454 86.3691 32.9091 85.6967 32.9091C85.0242 32.9091 83.5113 33.5909 83.5113 33.5909L83.5953 32.9091L81.7469 33.0454ZM89.5211 32.9545L89.8573 31.5454L91.8746 31.4091L90.8239 33.2273C90.8239 33.2273 91.1181 33.3182 91.2862 33.6363C91.4543 33.9545 91.3283 34.9545 91.3283 35.3182C91.3283 35.6818 90.4037 36.8182 89.8993 36.9545C89.395 37.0909 88.1762 36.9545 88.1762 36.9545L88.0081 37.5454C88.0081 37.5454 89.353 37.6363 89.9834 37.5909C90.6138 37.5454 90.6558 38.2273 90.6979 38.5454C90.7399 38.8636 90.5297 39.6818 90.3616 39.9545C90.1935 40.2273 88.8487 40.9091 87.4198 40.9091C85.9908 40.9091 85.9908 40.1363 85.9908 39.5909C85.9908 39.0454 86.1169 38.8182 86.7894 38.5C86.4531 38.0909 86.5372 37.8182 86.5792 37.6363C86.6212 37.4545 86.8314 36.7727 86.9575 36.5C86.6633 36.3182 86.6633 36 86.6212 35.6363C86.5792 35.2727 86.7473 34.5909 86.9575 34.0909C87.1676 33.5909 87.5458 33.3182 87.798 33.0454C88.0502 32.7727 89.5211 32.9545 89.5211 32.9545ZM89.3891 34.9126C89.3891 34.9126 89.8514 34.2308 89.221 34.1853C88.5906 34.1399 88.6326 35.1853 88.6326 35.1853C88.6326 35.1853 88.4645 35.7763 88.8428 35.8217C89.221 35.8672 89.3891 34.9126 89.3891 34.9126ZM88.5906 38.9091C88.5906 38.9091 88.2964 38.8182 88.1283 38.9091C87.9602 39 87.8761 39.1363 87.8341 39.3182C87.7921 39.5 88.0863 39.5463 88.4225 39.5C88.7587 39.4536 88.9688 39.3173 89.0109 39.1355C89.0529 38.9536 88.5906 38.9091 88.5906 38.9091ZM97.5482 31.5454C97.5482 31.5454 94.8165 30.9091 94.102 32.4091C93.3876 33.9091 93.2615 34.8182 93.1774 35.6818C93.0934 36.5454 92.9253 37.5454 93.0514 38.0454C93.1774 38.5454 93.7658 39.1363 94.3542 39.1818C94.9426 39.2273 96.2454 38.9545 96.2454 38.9545L96.5816 37.1363L94.983 37.3182C94.983 37.3182 94.8989 37.0454 94.9409 36.5454C94.983 36.0454 95.2771 34.3636 95.4032 34.0454C95.5293 33.7273 95.9496 33.3182 96.4119 33.3636C96.8742 33.4091 97.2104 33.4091 97.2104 33.4091L97.5482 31.5454ZM97.8408 33.1818C97.8408 33.1818 99.3958 32.8182 100.068 32.8636C100.741 32.9091 101.833 33.3182 101.791 34.0454C101.749 34.7727 101.077 39.0454 101.077 39.0454L99.3538 39.1363L99.3117 38.7727C99.3117 38.7727 98.5973 39.1818 98.177 39.2273C97.7567 39.2727 97.0002 38.8182 97.0002 37.9091C97.0002 37 97.0843 36.1363 97.6727 35.8636C98.2611 35.5909 99.3538 35.3636 99.69 35.3636C100.026 35.3636 99.9001 34.6818 99.9001 34.6818C99.9001 34.6818 98.3031 34.6363 97.8828 34.8636C97.7988 34.0454 97.8408 33.1818 97.8408 33.1818ZM99.5176 36.9545C99.5176 36.9545 99.7277 36.6818 99.5596 36.5454C99.3915 36.4091 99.1814 36.5 98.9712 36.7727C98.7611 37.0454 98.6771 37.6363 98.9712 37.6363C99.2654 37.6363 99.5176 36.9545 99.5176 36.9545ZM102.758 33.0909L101.707 39.0454L103.598 39.0909L104.229 35.4091C104.229 35.4091 105.28 35 105.574 35C105.868 35 106.036 32.9091 106.036 32.9091C106.036 32.9091 105.069 32.8636 104.397 33.7727C104.397 33.3182 104.481 32.8636 104.481 32.8636L102.758 33.0909ZM109.062 32.9545L109.355 31.3654L111.331 31.1381L109.944 39.1381L108.221 39.0472V38.4108C108.221 38.4108 107.843 39.2745 106.835 39.229C105.826 39.1836 105.784 38 105.784 38C105.784 38 105.574 37.2273 106.036 35.0454C106.498 32.8636 109.062 32.9545 109.062 32.9545ZM108.764 34.9545C108.764 34.9545 108.764 34.5 108.511 34.5C108.259 34.5 107.965 34.9545 107.839 35.4545C107.713 35.9545 107.629 36.4091 107.671 36.6818C107.713 36.9545 107.713 37.1363 108.091 37.1363C108.469 37.1363 108.557 36.7253 108.557 36.4526C108.557 36.1798 108.764 34.9545 108.764 34.9545Z" fill="white"/>
</g>
<path fill-rule="evenodd" clip-rule="evenodd" d="M111.432 10.639C111.512 10.639 111.587 10.6745 111.639 10.7358C111.681 10.7847 111.703 10.8472 111.704 10.9128C111.704 10.9278 111.703 10.9432 111.7 10.9592L111.462 12.3329C111.439 12.4629 111.326 12.5584 111.194 12.5584C111.194 12.5584 109.852 12.5603 109.493 12.5603C109.42 12.9836 108.227 19.4135 108.227 19.4135C108.204 19.5431 108.093 19.6342 107.961 19.6355H106.191C106.148 19.6355 106.106 19.6064 106.068 19.5871C106.038 19.5978 106.006 19.6355 105.973 19.6355L104.276 19.6342C104.185 19.6342 104.099 19.5907 104.049 19.5147C104.049 19.5147 102.4 16.7732 101.838 15.9178C101.619 17.1876 101.221 19.2986 101.174 19.4479C101.139 19.5619 101.034 19.6335 100.914 19.6335H99.3923C99.3116 19.6335 99.2365 19.5984 99.1845 19.5374C99.1327 19.4764 99.1112 19.4013 99.1248 19.3229C99.1348 19.261 99.7513 15.5816 100.275 12.4723C100.243 12.4928 100.087 12.4908 100.048 12.4968C99.2861 12.6086 98.4249 12.9948 98.0815 14.2942L97.0445 19.421C97.0192 19.5481 96.9096 19.6334 96.7803 19.6334H95.4253C95.3437 19.6343 95.2616 19.605 95.2091 19.543C95.1564 19.4804 95.1302 19.4098 95.1445 19.3295L96.6562 11.0676L96.695 10.8532C96.7213 10.7242 96.8352 10.6465 96.966 10.6472H98.3804C98.4617 10.6472 98.5378 10.669 98.5887 10.7308C98.64 10.7934 98.662 10.8744 98.647 10.9551L98.6142 11.151C99.1258 10.8215 99.8379 10.5557 100.486 10.5372C100.567 10.5352 100.646 10.5871 100.707 10.6602C100.917 9.4122 101.13 8.41134 101.167 8.20179C101.189 8.07127 101.302 7.97643 101.435 7.9777L102.983 7.97978C103.063 7.98113 103.139 8.0169 103.19 8.07705C103.232 8.12673 103.254 8.18878 103.254 8.25282C103.254 8.26754 103.254 8.28263 103.251 8.29843C103.251 8.29843 102.58 11.8637 102.361 13.1464C103.107 12.3364 104.38 10.7274 104.38 10.7274C104.432 10.6709 104.504 10.6449 104.58 10.6449H106.39C106.481 10.6449 106.564 10.6876 106.613 10.7629C106.662 10.684 106.75 10.6428 106.848 10.6449L107.101 10.6465L107.338 10.6456C107.338 10.6456 107.583 10.6484 107.722 10.6449C107.786 10.2748 108.173 8.20622 108.173 8.20622C108.196 8.07453 108.31 7.98077 108.441 7.98077H110.016C110.095 7.98077 110.172 8.01645 110.224 8.07669C110.265 8.12637 110.287 8.18842 110.287 8.25255C110.287 8.26754 110.287 8.28389 110.283 8.29898C110.283 8.29898 109.928 10.15 109.843 10.6385C110.303 10.6385 111.432 10.639 111.432 10.639ZM106.195 18.8852C106.428 17.4627 107.276 13.0385 107.355 12.5571H106.584C106.503 12.5571 106.426 12.5205 106.375 12.4586C106.323 12.3961 106.301 12.3137 106.317 12.234L106.514 11.1821C106.064 11.7134 103.834 14.4294 103.623 14.6788C103.785 14.9374 105.567 17.8769 106.195 18.8852ZM112.212 8.02475V8.38365H112.537C112.611 8.38365 112.67 8.36838 112.715 8.33936C112.758 8.31034 112.781 8.26453 112.781 8.20191C112.781 8.14388 112.758 8.09959 112.715 8.06904C112.67 8.04003 112.611 8.02475 112.537 8.02475H112.212ZM112.54 7.77276C112.71 7.77276 112.84 7.81094 112.932 7.8873C113.025 7.96519 113.069 8.06904 113.069 8.20191C113.069 8.3134 113.034 8.40656 112.96 8.47833C112.887 8.55011 112.784 8.5944 112.647 8.6112L113.08 9.11976H112.742L112.342 8.61578H112.212V9.11976H111.931V7.77276H112.54ZM112.456 9.58251C112.61 9.58251 112.752 9.55349 112.885 9.49393C113.019 9.43437 113.134 9.35343 113.234 9.25263C113.334 9.15031 113.412 9.02966 113.469 8.89221C113.526 8.75476 113.554 8.60815 113.554 8.45085C113.554 8.29507 113.526 8.14846 113.469 8.01101C113.412 7.87356 113.334 7.75291 113.234 7.65059C113.134 7.54979 113.019 7.47038 112.885 7.41082C112.752 7.35278 112.61 7.32376 112.456 7.32376C112.3 7.32376 112.155 7.35278 112.019 7.41082C111.883 7.47038 111.766 7.54979 111.666 7.65059C111.565 7.75291 111.488 7.87356 111.431 8.01101C111.374 8.14846 111.345 8.29507 111.345 8.45085C111.345 8.60815 111.374 8.75476 111.431 8.89221C111.488 9.02966 111.565 9.15031 111.666 9.25263C111.766 9.35343 111.883 9.43437 112.019 9.49393C112.155 9.55349 112.3 9.58251 112.456 9.58251ZM112.456 7C112.656 7 112.843 7.03818 113.02 7.11454C113.195 7.1909 113.348 7.29322 113.479 7.42609C113.61 7.55743 113.714 7.71168 113.789 7.8873C113.864 8.06446 113.903 8.25231 113.903 8.45085C113.903 8.65091 113.864 8.83876 113.789 9.01439C113.714 9.18849 113.61 9.34274 113.479 9.47408C113.348 9.60542 113.195 9.70927 113.02 9.78715C112.843 9.86351 112.656 9.90322 112.456 9.90322C112.252 9.90322 112.061 9.86351 111.883 9.78715C111.706 9.70927 111.552 9.60542 111.422 9.47408C111.292 9.34274 111.188 9.18849 111.113 9.01439C111.037 8.83876 111 8.65091 111 8.45085C111 8.25231 111.037 8.06446 111.113 7.8873C111.188 7.71168 111.292 7.55743 111.422 7.42609C111.552 7.29322 111.706 7.1909 111.883 7.11454C112.061 7.03818 112.252 7 112.456 7ZM8.07617 19.4202V19.4047C8.07807 19.3592 8.09541 19.3144 8.12684 19.2789L19.4565 6.22282C19.4956 6.17793 19.5519 6.14668 19.6111 6.14668L21.3957 6.14478C21.4575 6.14478 21.5156 6.17188 21.5542 6.22002C21.584 6.25624 21.6004 6.30836 21.6004 6.35433C21.6004 6.36779 21.5987 6.38251 21.5962 6.39606C21.5962 6.39606 20.3817 13.392 20.1178 14.6589C21.0119 13.65 26.7215 6.22111 26.7215 6.22111C26.7604 6.17694 26.8161 6.1465 26.8744 6.1465H28.7141C28.776 6.1465 28.8356 6.17504 28.8746 6.22553C28.9129 6.27449 28.9272 6.34431 28.9121 6.40554L27.5698 13.7406C27.5832 13.7154 27.596 13.6883 27.6104 13.6627C28.4714 11.9894 30.2435 10.8146 32.0122 10.5973C32.0186 10.5962 32.025 10.5955 32.0323 10.5955C33.6309 10.5153 34.8668 11.1198 35.6067 12.3437C35.6106 12.35 35.6143 12.3562 35.618 12.3633C35.8832 12.8976 36.0822 13.6146 36.1173 14.3538C36.4202 13.4719 36.9554 12.6574 37.703 11.9704C38.9658 10.7946 40.5077 10.3324 42.0428 10.6681C42.06 10.6731 42.0787 10.6782 42.0943 10.6861L42.2373 10.747C42.5778 10.8927 42.9483 11.0558 43.2626 11.3376C43.4283 10.5552 43.9152 8.19899 43.9152 8.19899C43.9415 8.07254 44.0539 7.97923 44.1824 7.97923H45.5954C45.6766 7.97923 45.754 8.01771 45.8057 8.08003C45.8577 8.14263 45.8793 8.22536 45.8642 8.30494L43.8049 19.4517C43.7806 19.5818 43.6666 19.6316 43.5351 19.6309L42.1332 19.6336C42.0512 19.6317 41.9744 19.6372 41.9224 19.5748C41.881 19.526 41.8593 19.4647 41.8593 19.4007C41.8593 19.3848 41.8606 19.3681 41.864 19.351C41.864 19.351 41.8987 19.1653 41.9223 19.0416C40.7795 19.7478 39.6217 20.021 38.5395 19.8244C37.3002 19.5782 36.1468 18.368 35.9139 17.0682C35.8507 16.7207 35.8216 16.3726 35.8259 16.0289C35.7766 16.0735 35.7114 16.1006 35.6416 16.1006C35.6416 16.1006 29.4429 16.1038 29.1358 16.1038C29.13 16.1279 29.125 16.1537 29.125 16.1829C29.125 16.283 29.159 16.409 29.203 16.5583C29.203 16.5583 29.2224 16.6253 29.2313 16.6548C29.5408 17.4127 30.2818 17.8891 31.1216 17.8687C31.9586 17.8491 32.7315 17.4497 33.4199 16.6806C33.4709 16.6223 33.5456 16.5893 33.6231 16.5893H35.073C35.1677 16.5893 35.2547 16.6374 35.3051 16.7163C35.3548 16.7954 35.3603 16.8949 35.3206 16.9803C34.4981 18.7119 32.6506 19.8742 30.712 19.8742C29.3644 19.8218 28.2319 19.1668 27.6028 18.0686C27.2882 17.4837 27.1398 16.7564 27.1482 16.016L26.5004 19.4722C26.4785 19.5643 26.3958 19.631 26.3021 19.631L24.6088 19.633C24.5463 19.633 24.4873 19.6038 24.4483 19.5548C24.4199 19.5176 24.4048 19.4738 24.4048 19.4283C24.4048 19.4117 24.4062 19.3964 24.4104 19.3796C25.1265 16.396 25.6892 12.0687 26.0546 10.3904C25.1765 11.4189 19.2028 19.5549 19.2028 19.5549C19.1643 19.6002 19.1083 19.6306 19.049 19.6315H17.303C17.2402 19.6335 17.182 19.6012 17.142 19.553C17.1131 19.5165 17.0969 19.4703 17.0969 19.4236C17.0969 19.41 17.0982 19.3958 17.1015 19.3804C17.7564 16.3611 18.4279 12.0754 18.7514 10.4019C17.9056 11.4125 10.7177 19.5552 10.7177 19.5552C10.6775 19.6038 10.6173 19.6303 10.5539 19.631C10.0286 19.6364 8.28003 19.6337 8.28003 19.6337C8.19955 19.6337 8.12766 19.5696 8.09514 19.4972C8.08304 19.4729 8.07689 19.4464 8.07617 19.4202ZM42.8508 14.7603C42.8624 14.341 42.7643 13.9307 42.5711 13.6173C42.2165 13.0388 41.743 12.783 41.3587 12.6941C40.6781 12.5368 39.9009 12.6887 39.3289 13.0876C38.335 13.8343 37.7647 14.8102 37.7643 15.8205C37.7643 15.9821 37.7687 16.1149 37.8123 16.3108C37.9131 16.7957 38.1896 17.2728 38.6121 17.5626C39.0117 17.822 39.6269 17.9243 40.4185 17.7706C41.4443 17.5202 42.472 16.4892 42.7649 15.3685C42.8174 15.1689 42.8441 15.0313 42.8508 14.7603ZM29.7529 14.0822C30.4033 14.0764 33.5153 14.0892 33.9632 14.085C33.9312 13.7826 33.7722 13.4706 33.4385 13.1365C33.0717 12.8206 32.6917 12.6181 31.8505 12.6767C31.0746 12.7841 30.1765 13.2764 29.7529 14.0822ZM96.2296 10.9092L95.929 12.7237L94.6623 19.4516C94.6383 19.5817 94.5245 19.6339 94.3921 19.632H92.9897C92.9089 19.6314 92.8312 19.6372 92.7792 19.5736C92.7385 19.5248 92.7166 19.4642 92.7165 19.4001C92.7165 19.384 92.7178 19.3675 92.7205 19.3507C92.7205 19.3507 92.7565 19.1648 92.7791 19.0406C91.637 19.7469 90.4791 20.0193 89.3969 19.8236C88.1577 19.5777 87.0034 18.3676 86.7707 17.0673C86.708 16.7193 86.8272 16.3717 86.8314 16.0277C86.8314 16.0277 86.8366 15.9259 86.8344 15.7969L86.1992 19.472C86.1772 19.5634 86.0956 19.6334 86.0009 19.6334H84.2796C84.2176 19.6334 84.158 19.599 84.1198 19.549C84.0905 19.5137 84.0755 19.468 84.0755 19.4227C84.0755 19.4076 84.0774 19.3906 84.0811 19.3755C84.6836 16.4011 85.302 12.3317 85.6672 10.6538C84.7881 11.6815 78.8717 19.5591 78.8717 19.5591C78.8332 19.6048 78.778 19.63 78.7178 19.6308H76.9715C76.9094 19.6316 76.8509 19.6039 76.8108 19.5555C76.7815 19.5186 76.7655 19.4724 76.7655 19.426C76.7655 19.4124 76.7675 19.3983 76.7697 19.3835C77.3727 16.3605 78.0199 12.3238 78.3438 10.6508C77.4972 11.6609 70.1491 19.5582 70.1491 19.5582C70.1088 19.6066 70.0487 19.6332 69.9857 19.6307H67.7564C67.6761 19.6307 67.6044 19.5837 67.5707 19.5104C67.543 19.4494 67.5492 19.3666 67.5826 19.3104C67.5832 19.3073 67.5818 19.3058 67.5832 19.3039C67.5866 19.2993 67.5885 19.2961 67.5912 19.2925L67.5885 19.2954C67.6709 19.1627 67.7387 19.0513 67.7939 18.954C67.9743 18.608 68.068 18.2836 68.1147 18.0605C68.3536 16.5125 68.032 15.2052 68.032 15.2052C67.4984 12.4521 65.1252 10.9125 63.2157 11.7453C63.2347 11.7444 63.254 11.7439 63.2741 11.7439C63.3629 11.7439 63.4499 11.7532 63.5336 11.7708C65.6015 11.4451 67.5074 13.5499 67.3095 16.3577C67.3095 16.3577 67.1909 17.6894 66.5432 19.1971C66.0788 19.4376 65.5803 19.6332 65.0502 19.7677C64.9671 19.7891 64.8856 19.8063 64.802 19.8249C65.8477 18.5255 66.3184 17.2428 66.3184 17.2428C67.2564 14.519 65.8771 11.936 63.7088 11.8223C63.802 11.857 63.8899 11.9038 63.9711 11.959C66.0572 12.6112 66.7355 15.4789 65.1172 17.8777C65.1172 17.8777 64.3338 18.9893 62.9973 19.9784C62.3615 19.9493 61.7335 19.8284 61.1282 19.6252C62.6718 19.0212 63.7133 18.1545 63.7133 18.1545C65.8548 16.292 65.9812 13.4216 64.2404 12.2078C64.3183 12.3048 64.3821 12.412 64.4282 12.5287C65.7589 14.1551 64.8899 16.8686 62.3547 18.1039C62.3547 18.1039 61.1569 18.6607 59.5409 18.8556C59.0767 18.5546 58.6555 18.2017 58.283 17.8091C59.8418 18.0191 61.0851 17.8014 61.0851 17.8014C63.8689 17.2615 65.412 14.8429 64.5174 12.9229C64.5186 12.9485 64.5194 12.9743 64.5194 13.0004C64.5194 13.0713 64.5138 13.1404 64.503 13.2071C64.9103 15.3123 62.7836 17.28 59.9342 17.0797C59.9342 17.0797 58.6839 16.9675 57.2345 16.3715C56.9579 15.8653 56.7433 15.322 56.5966 14.7473C56.5845 14.701 56.5755 14.6544 56.5655 14.6087C57.809 15.5677 58.9929 16.0026 58.9929 16.0026C61.6534 16.9194 64.1809 15.6222 64.3994 13.5391C64.351 13.6431 64.289 13.7386 64.2153 13.8251C63.4634 15.7776 60.6879 16.3749 58.356 14.8013C58.356 14.8013 57.1485 13.8649 56.2226 12.7678L54.9927 19.4513C54.9685 19.5813 54.8546 19.6309 54.7232 19.6303L53.3206 19.6274C53.239 19.6274 53.152 19.6079 53.0994 19.5456C53.0588 19.4964 53.0467 19.4637 53.0467 19.3998C53.0467 19.3835 53.048 19.3669 53.0509 19.3502C53.0509 19.3502 53.0866 19.1641 53.1104 19.04C51.9673 19.7466 50.8095 20.0188 49.7273 19.8231C48.488 19.5772 47.3344 18.3671 47.1012 17.0668C47.0386 16.7193 47.0087 16.0145 47.0025 15.9912L46.3785 19.4474C46.3563 19.5787 46.2418 19.6308 46.1082 19.6299L44.5439 19.6315C44.4627 19.6309 44.386 19.6366 44.334 19.5731C44.2818 19.5114 44.2608 19.4294 44.2751 19.3503L45.8324 10.8584C45.8559 10.7283 45.9689 10.6335 46.1014 10.6321H47.6685C47.7487 10.6311 47.8257 10.6671 47.8777 10.7289C47.9301 10.7906 47.9518 10.8699 47.9386 10.9499L47.2936 14.409C47.31 14.3728 47.3207 14.3528 47.3207 14.3528C47.6243 13.4708 48.1427 12.6557 48.8901 11.969C50.1529 10.7933 51.7063 10.3091 53.2338 10.6804C53.2516 10.6853 53.4342 10.7483 53.4342 10.7483C53.7748 10.8948 54.1355 11.0547 54.4497 11.3369C54.4991 11.0121 54.5753 10.847 54.5753 10.847C54.6424 10.7063 54.7461 10.6381 54.8758 10.6381H56.2879C56.3698 10.6381 56.4532 10.6601 56.5113 10.7158C56.5591 10.7616 56.5951 10.8457 56.6116 10.899C57.1205 12.3167 58.0453 13.5455 58.0453 13.5455C59.9368 15.7239 62.8717 15.8177 64.049 13.9854C63.9857 14.0364 63.919 14.0803 63.8479 14.1184L63.815 14.142L63.8037 14.1442C62.1972 15.6394 59.365 14.7941 58.0937 12.1877C58.0937 12.1877 57.5637 11.0417 57.356 9.47994C57.6905 8.91895 58.0957 8.41549 58.5573 7.97806C58.336 9.56268 58.5573 10.834 58.5573 10.834C59.1026 13.6438 61.5626 15.1903 63.491 14.2397C63.4207 14.2525 63.3482 14.2595 63.2742 14.2595C63.2306 14.2595 63.1882 14.257 63.1456 14.2525C61.0433 14.6557 59.0799 12.53 59.2789 9.68245C59.2789 9.68245 59.3947 8.3958 60.0135 6.92011C60.5001 6.65718 61.0197 6.45152 61.5674 6.30809C60.6095 7.55174 60.1748 8.73397 60.1748 8.73397C59.2397 11.4502 60.61 14.0288 62.7697 14.1515C62.6998 14.1204 62.6345 14.0835 62.5729 14.0417L62.5449 14.0289L62.5364 14.0208C60.4382 13.377 59.7544 10.5016 61.3754 8.0972C61.3754 8.0972 62.119 7.04485 63.3888 6.07812C64.0445 6.08255 64.6944 6.17847 65.3223 6.36698C63.8015 6.96943 62.78 7.8218 62.78 7.8218C60.6098 9.70783 60.5096 12.6306 62.3228 13.8137C62.2549 13.7327 62.1967 13.6439 62.1507 13.5465C60.699 11.9341 61.5506 9.13157 64.1389 7.87085C64.1389 7.87085 65.3514 7.30814 66.9821 7.11629C67.5041 7.43775 67.9738 7.81963 68.3858 8.25463C66.7606 8.01148 65.4412 8.24207 65.4412 8.24207C62.6254 8.78898 61.0786 11.2579 62.0416 13.1886C62.0325 13.1283 62.0282 13.0649 62.0282 13.0017C62.0282 12.9619 62.0297 12.9214 62.0333 12.8822C61.5851 10.7612 63.722 8.76269 66.5935 8.96402C66.5935 8.96402 67.9422 9.08478 69.4607 9.74351C69.7232 10.2349 69.9296 10.761 70.0703 11.3152C70.0917 11.3977 70.1087 11.4812 70.1274 11.5655C68.824 10.5159 67.5338 10.0418 67.5338 10.0418C64.8716 9.1248 62.3416 10.4245 62.1275 12.5096C62.1764 12.3925 62.2429 12.2835 62.3241 12.1881C63.0931 10.2601 65.8523 9.67847 68.1709 11.2436C68.1709 11.2436 69.2875 12.0298 70.2778 13.3711C70.2492 13.9347 70.1518 14.4881 69.9911 15.0206C69.3895 13.5091 68.5442 12.4936 68.5442 12.4936C66.6962 10.3678 63.8556 10.2283 62.626 11.9271C62.7072 11.8767 62.7939 11.8368 62.885 11.8056C64.5077 10.436 67.2503 11.2992 68.4951 13.8523C68.4951 13.8523 69.2545 15.5906 69.4144 17.1881L78.9104 6.22219C78.9484 6.17766 79.0059 6.14514 79.0646 6.14514H81.0455C81.1063 6.14514 81.165 6.17378 81.2041 6.22074C81.2336 6.25751 81.2495 6.3192 81.2495 6.36634C81.2495 6.38062 81.2489 6.39443 81.2453 6.40843C81.2453 6.40843 80.0696 13.4314 79.7468 14.673C80.6407 13.664 86.3078 6.22102 86.3078 6.22102C86.3463 6.17757 86.4015 6.14505 86.4608 6.14505L88.3475 6.14298C88.4098 6.14298 88.4697 6.17116 88.5082 6.22102C88.5471 6.27042 88.5616 6.34214 88.5465 6.40338L87.1404 13.9468C87.4575 13.2217 87.9278 12.5504 88.5589 11.9703C89.8219 10.7947 91.3631 10.3325 92.8986 10.668C92.9165 10.6723 92.9341 10.6777 92.9504 10.685L93.0936 10.7469C93.541 10.9213 93.8544 11.1011 94.1687 11.3843L94.2768 10.8481C94.304 10.7215 94.4156 10.6412 94.5449 10.6412H95.9574C96.0383 10.6412 96.1157 10.6678 96.1674 10.7301C96.2103 10.7814 96.2313 10.8444 96.2296 10.9092ZM53.975 15.3687C54.0354 15.1707 54.0648 14.9539 54.0645 14.735C54.0645 14.3369 53.9674 13.9268 53.7842 13.605C53.4555 13.0116 52.9288 12.782 52.5448 12.6941C51.8643 12.5368 51.0871 12.6887 50.5153 13.0877C49.521 13.8344 48.9798 14.8073 48.9798 15.8176C48.9798 15.98 48.9786 16.0839 49.0306 16.3043C49.165 16.7851 49.399 17.2639 49.8214 17.554C50.2211 17.8129 50.9003 17.8985 51.6668 17.7538C52.6926 17.5035 53.6571 16.4773 53.975 15.3687ZM93.6456 15.3687C93.7065 15.1707 93.7272 14.9539 93.727 14.7349C93.727 14.3369 93.6379 13.9268 93.4547 13.605C93.1262 13.0116 92.5993 12.782 92.2154 12.6941C91.534 12.5369 90.7572 12.6886 90.185 13.0877C89.1918 13.8344 88.6504 14.8073 88.6504 15.8176C88.6504 15.98 88.6658 16.1415 88.6934 16.3043C88.814 16.7728 89.0693 17.2639 89.4918 17.554C89.8914 17.8129 90.467 17.913 91.2512 17.7829C92.2774 17.5338 93.3033 16.4716 93.6456 15.3687Z" fill="#DF0000"/>
<path fill-rule="evenodd" clip-rule="evenodd" d="M46.2547 10.3871H47.8163C47.9485 10.3871 48.0615 10.2546 48.0851 10.1245L48.4242 8.30413C48.4383 8.22365 48.4171 8.14191 48.366 8.08004C48.314 8.01808 48.238 7.97843 48.1569 7.97743L46.5838 7.97888C46.4523 7.97806 46.3389 8.08203 46.3133 8.21046L45.9856 10.0234C45.9697 10.1037 45.9912 10.2238 46.0431 10.287C46.0952 10.35 46.1728 10.3871 46.2547 10.3871Z" fill="#DF0000"/>
<defs>
<radialGradient id="paint0_radial_829_5089" cx="0" cy="0" r="1" gradientUnits="userSpaceOnUse" gradientTransform="translate(74 48) rotate(90) scale(32.5 31.7876)">
<stop stop-color="#DF0000"/>
<stop offset="1" stop-color="#C20000"/>
</radialGradient>
<clipPath id="clip0_829_5089">
<rect width="120" height="54" fill="white" transform="translate(0 26)"/>
</clipPath>
</defs>
</svg>
