<svg width="120" height="80" viewBox="0 0 120 80" fill="none" xmlns="http://www.w3.org/2000/svg">
<rect width="120" height="80" rx="4" fill="white"/>
<path fill-rule="evenodd" clip-rule="evenodd" d="M18.6462 53.8364C18.439 53.9341 18.2127 54.0192 17.9673 54.0915C17.7219 54.1639 17.4845 54.2001 17.2553 54.2001C16.9597 54.2001 16.6889 54.1582 16.4426 54.0745C16.1963 53.9908 15.9866 53.8652 15.8133 53.6978C15.6384 53.5286 15.5034 53.3171 15.4083 53.0633C15.3132 52.8096 15.2656 52.5126 15.2656 52.1725C15.2656 51.5498 15.4427 51.0584 15.7968 50.6982C16.1509 50.338 16.6371 50.158 17.2553 50.158C17.471 50.158 17.6913 50.1846 17.9164 50.2378C18.1414 50.291 18.3838 50.3812 18.6437 50.5085V51.1234H18.5978C18.5452 51.0815 18.4688 51.0266 18.3685 50.9585C18.2683 50.8905 18.1698 50.8338 18.073 50.7885C17.9558 50.7344 17.8229 50.6895 17.6743 50.6537C17.5257 50.618 17.3572 50.6001 17.1686 50.6001C16.7441 50.6001 16.4082 50.7401 16.1611 51.02C15.914 51.3 15.7904 51.6789 15.7904 52.1568C15.7904 52.6609 15.9195 53.0529 16.1776 53.3328C16.4358 53.6128 16.7874 53.7527 17.2323 53.7527C17.3954 53.7527 17.558 53.7362 17.7202 53.703C17.8824 53.6699 18.0246 53.6271 18.1469 53.5748V52.6199H17.1304V52.1646H18.6462V53.8364ZM25.6138 54.1242H23.1146V50.2286H25.6138V50.6891H23.6191V51.7565H25.6138V52.217H23.6191V53.6638H25.6138V54.1242ZM32.7571 53.0123C32.7571 53.1641 32.7227 53.3141 32.654 53.4623C32.5852 53.6106 32.4888 53.7362 32.3648 53.8391C32.2289 53.9507 32.0706 54.0379 31.8897 54.1007C31.7088 54.1635 31.491 54.1949 31.2362 54.1949C30.9628 54.1949 30.717 54.1687 30.4987 54.1164C30.2805 54.0641 30.0584 53.9864 29.8325 53.8835V53.2347H29.8682C30.0601 53.3987 30.2818 53.5251 30.5331 53.6141C30.7845 53.703 31.0205 53.7475 31.2413 53.7475C31.5538 53.7475 31.7971 53.6873 31.9712 53.567C32.1453 53.4466 32.2323 53.2862 32.2323 53.0856C32.2323 52.9129 32.1912 52.7856 32.1088 52.7036C32.0264 52.6216 31.9012 52.558 31.733 52.5126C31.6056 52.4777 31.4676 52.4489 31.319 52.4263C31.1704 52.4036 31.0129 52.3748 30.8465 52.3399C30.5102 52.2667 30.261 52.1415 30.0988 51.9645C29.9366 51.7875 29.8555 51.5568 29.8555 51.2725C29.8555 50.9463 29.9896 50.679 30.258 50.4706C30.5263 50.2622 30.8668 50.158 31.2796 50.158C31.5462 50.158 31.7908 50.1841 32.0132 50.2364C32.2357 50.2888 32.4327 50.3533 32.6043 50.4301V51.0423H32.5686C32.4243 50.9167 32.2345 50.8125 31.9992 50.7296C31.764 50.6468 31.5233 50.6053 31.277 50.6053C31.007 50.6053 30.79 50.6629 30.6261 50.778C30.4622 50.8931 30.3803 51.0414 30.3803 51.2228C30.3803 51.385 30.421 51.5123 30.5025 51.6048C30.5841 51.6972 30.7276 51.7678 30.9331 51.8167C31.0418 51.8411 31.1963 51.8707 31.3967 51.9056C31.5971 51.9405 31.767 51.9763 31.9062 52.0129C32.1882 52.0896 32.4005 52.2056 32.5431 52.3609C32.6858 52.5161 32.7571 52.7332 32.7571 53.0123ZM40.0839 53.8417C39.9905 53.8835 39.906 53.9228 39.8304 53.9594C39.7548 53.996 39.6559 54.0344 39.5336 54.0745C39.43 54.1077 39.3175 54.136 39.1961 54.1596C39.0746 54.1831 38.9409 54.1949 38.7948 54.1949C38.5197 54.1949 38.2696 54.1552 38.0446 54.0758C37.8195 53.9965 37.6238 53.8722 37.4574 53.703C37.2943 53.5373 37.167 53.3267 37.0752 53.0712C36.9835 52.8157 36.9377 52.5187 36.9377 52.1803C36.9377 51.8594 36.9818 51.5725 37.0701 51.3196C37.1585 51.0667 37.2858 50.853 37.4523 50.6786C37.6136 50.5094 37.8085 50.3803 38.0369 50.2914C38.2654 50.2024 38.5189 50.158 38.7974 50.158C39.0012 50.158 39.2046 50.1832 39.4075 50.2338C39.6105 50.2844 39.8359 50.3734 40.0839 50.5007V51.1155H40.0457C39.8368 50.9359 39.6296 50.8051 39.4241 50.7231C39.2186 50.6411 38.9986 50.6001 38.7643 50.6001C38.5723 50.6001 38.3995 50.6319 38.2458 50.6956C38.0921 50.7593 37.955 50.8582 37.8344 50.9926C37.7172 51.1234 37.6259 51.2886 37.5605 51.4883C37.4952 51.688 37.4625 51.9187 37.4625 52.1803C37.4625 52.4542 37.4986 52.6896 37.5707 52.8867C37.6429 53.0838 37.7359 53.2443 37.8497 53.3681C37.9686 53.4972 38.1074 53.5927 38.2662 53.6546C38.425 53.7165 38.5927 53.7475 38.7694 53.7475C39.0122 53.7475 39.2398 53.7048 39.4521 53.6193C39.6644 53.5338 39.8631 53.4056 40.0482 53.2347H40.0839V53.8417ZM47.2858 54.1242H46.7814V52.217H44.8886V54.1242H44.3842V50.2286H44.8886V51.7565H46.7814V50.2286H47.2858V54.1242ZM54.391 54.1242H51.8918V50.2286H54.391V50.6891H52.3962V51.7565H54.391V52.217H52.3962V53.6638H54.391V54.1242ZM61.6719 54.1242H61.0477L59.2492 50.6394V54.1242H58.7779V50.2286H59.56L61.2006 53.41V50.2286H61.6719V54.1242ZM69.3171 54.1242H68.6624L67.1619 52.3896L66.7848 52.803V54.1242H66.2804V50.2286H66.7848V52.2614L68.6267 50.2286H69.2381L67.544 52.06L69.3171 54.1242ZM76.519 54.1242H75.8643L74.3638 52.3896L73.9868 52.803V54.1242H73.4823V50.2286H73.9868V52.2614L75.8286 50.2286H76.44L74.7459 52.06L76.519 54.1242ZM83.6624 54.1242H83.1248L82.7529 53.0385H81.1123L80.7403 54.1242H80.2283L81.609 50.2286H82.2816L83.6624 54.1242ZM82.5975 52.5937L81.9326 50.6812L81.2651 52.5937H82.5975ZM90.9637 54.1242H90.3089L89.0402 52.5754H88.3295V54.1242H87.8251V50.2286H88.8874C89.1167 50.2286 89.3077 50.2439 89.4606 50.2744C89.6135 50.3049 89.751 50.3594 89.8733 50.4379C90.0109 50.5269 90.1183 50.6389 90.1956 50.7741C90.2728 50.9093 90.3115 51.0806 90.3115 51.2882C90.3115 51.569 90.2427 51.804 90.1051 51.9933C89.9676 52.1825 89.7782 52.3251 89.537 52.421L90.9637 54.1242ZM89.7841 51.3248C89.7841 51.2132 89.765 51.1142 89.7268 51.0279C89.6886 50.9415 89.6253 50.8687 89.537 50.8094C89.464 50.7588 89.3774 50.7235 89.2772 50.7035C89.177 50.6834 89.0589 50.6734 88.9231 50.6734H88.3295V52.1437H88.839C88.9986 52.1437 89.1379 52.1293 89.2568 52.1005C89.3757 52.0718 89.4767 52.0181 89.56 51.9396C89.6364 51.8664 89.6929 51.7822 89.7294 51.6872C89.7659 51.5921 89.7841 51.4713 89.7841 51.3248ZM97.5924 50.6891H96.2371V54.1242H95.7327V50.6891H94.3774V50.2286H97.5924V50.6891ZM104.188 54.1242H101.689V50.2286H104.188V50.6891H102.193V51.7565H104.188V52.217H102.193V53.6638H104.188V54.1242Z" fill="#010101"/>
<path fill-rule="evenodd" clip-rule="evenodd" d="M97.9687 42.9016C95.3036 42.9016 92.8267 41.904 91.7227 41.1115L93.5202 37.7828C94.523 38.416 96.4729 39.3908 98.2717 39.3908C99.2899 39.3908 100.576 39.1852 100.576 38.005C100.576 36.8964 99.1388 36.557 97.2541 35.9941C94.9783 35.3127 92.3296 34.3668 92.3296 31.1701C92.3296 27.7255 95.2605 25.7997 99.0743 25.7997C101.593 25.7997 103.544 26.7306 104.539 27.7255L102.351 30.3284C101.268 29.6532 100.161 29.1275 98.9214 29.1275C97.4269 29.1275 96.5817 29.7192 96.5817 30.5814C96.5817 31.436 97.6657 31.872 99.0306 32.3001C101.442 33.0768 104.735 33.8723 104.735 37.1704C104.735 40.5684 102.134 42.9016 97.9687 42.9016Z" fill="#FF6616"/>
<path fill-rule="evenodd" clip-rule="evenodd" d="M82.6327 42.9016C77.4694 42.9016 74.7383 39.0945 74.7383 34.3283C74.7383 29.6065 77.4694 25.7997 82.6327 25.7997C87.4691 25.7997 90.2037 29.6065 90.2037 34.3283C90.2037 39.0945 87.4691 42.9016 82.6327 42.9016ZM82.6327 29.2901C80.5057 29.2901 78.9923 30.8764 78.9923 34.3283C78.9923 37.8311 80.5057 39.4122 82.6327 39.4122C84.4567 39.4122 85.95 37.8311 85.95 34.3283C85.95 30.8764 84.4567 29.2901 82.6327 29.2901Z" fill="#FF6616"/>
<path fill-rule="evenodd" clip-rule="evenodd" d="M69.6212 42.5835L67.7507 38.0506C67.3684 37.1273 67.1019 36.67 66.291 36.67H64.6511V42.5835H60.6875V26.7752C60.6875 26.4339 61.0471 26.1171 61.3045 26.1171H66.9008C69.9403 26.1171 72.5465 26.7752 72.5465 30.8764C72.5465 32.7118 71.5727 34.5915 69.7493 34.9713C70.6574 35.2933 71.5727 36.5113 72.0698 37.8311L73.8721 42.5835H69.6212ZM66.6346 29.2901H64.6511V33.4192H66.6346C67.8189 33.4192 68.7512 32.7591 68.7512 31.1941C68.7512 29.6065 67.8189 29.2901 66.6346 29.2901Z" fill="#FF6616"/>
<path fill-rule="evenodd" clip-rule="evenodd" d="M51.8782 33.1024H57.0034C57.4084 33.1024 57.6384 33.4478 57.6384 33.8525V42.3601C56.1954 42.6962 53.9425 42.9016 52.2671 42.9016C46.3863 42.9016 43.2861 39.9767 43.2861 34.3283C43.2861 29.2901 46.3863 25.7997 51.5547 25.7997C53.8305 25.7997 55.8257 26.4339 57.1107 27.3397L55.5214 30.1723C54.412 29.6532 52.9146 29.2901 51.8564 29.2901C48.8856 29.2901 47.4967 31.3489 47.4967 34.3283C47.4967 37.5124 49.1042 39.4782 52.0713 39.4782C52.6163 39.4782 53.2903 39.4559 53.8305 39.3692V36.4666H51.8782V33.1024Z" fill="#FF6616"/>
<path fill-rule="evenodd" clip-rule="evenodd" d="M36.6289 42.5835V26.1171H40.0784C40.3826 26.1171 40.6825 26.4339 40.6825 26.7752V42.5835H36.6289Z" fill="#FF6616"/>
<path fill-rule="evenodd" clip-rule="evenodd" d="M29.4912 42.5835V33.0768L25.5868 42.5835H23.4189L19.5793 33.0768V42.5835H15.5439V26.1171H20.9451L24.6554 35.4152L28.5379 26.1171H33.5256V42.5835H29.4912Z" fill="#FF6616"/>
</svg>
