<svg width="120" height="80" viewBox="0 0 120 80" fill="none" xmlns="http://www.w3.org/2000/svg">
<rect width="120" height="80" rx="4" fill="white"/>
<path d="M66.3653 61.202L70.2486 66.594H67.1771L63.8961 61.9939V66.594H61.2932V56.9074C61.3034 56.7946 61.3576 56.6905 61.4441 56.6181C61.5305 56.5457 61.6421 56.5109 61.754 56.5215H63.8961V60.8082L67.2249 56.5215H70.117L66.3653 61.202ZM56.8335 62.7575C56.2651 61.7185 52.8186 56.5276 52.8186 56.5276H50.0881V66.6H52.6191V60.2374L56.8076 66.594H59.3267V56.5215H56.8335V62.7575ZM45.8637 56.5276L48.8814 66.6H46.2147L45.7201 64.9039H42.2775L41.8009 66.6H39.1222L42.0941 56.8672C42.1519 56.6449 42.3618 56.4982 42.5887 56.5215L45.8637 56.5276ZM45.2773 62.9585L44.0547 58.4508H43.933L42.7104 62.9585H45.2773ZM38.5757 63.8086C38.5757 65.8524 36.8924 66.594 34.6086 66.594H30.5498V56.9737C30.5503 56.8522 30.5991 56.7359 30.6853 56.651C30.7716 56.566 30.888 56.5194 31.0085 56.5215H34.6625C36.5094 56.5215 38.1788 57.1023 38.1788 59.0236C38.1788 60.2294 37.7061 61.0774 36.6889 61.3568C37.754 61.5658 38.5837 62.3536 38.5837 63.8066L38.5757 63.8086ZM32.9372 60.567H34.3334C35.3566 60.567 35.8073 60.2354 35.8073 59.4476C35.8073 58.6598 35.3247 58.3584 34.3952 58.3584H32.9392L32.9372 60.567ZM36.1285 63.5493C36.1285 62.7033 35.6338 62.3435 34.5807 62.3435H32.9372V64.7551H34.4969C35.5341 64.7471 36.1344 64.4135 36.1344 63.5493H36.1285ZM60.8824 31.6498C60.8824 28.7479 62.6216 26.3745 65.9125 26.3745C68.9941 26.3745 70.7353 28.7479 70.7353 31.6498C70.7704 32.9584 70.3371 34.2359 69.5146 35.2492L71.2598 36.5776L69.8298 38.0788L67.8472 36.5856C67.2307 36.8285 66.5745 36.9532 65.9125 36.9534C62.837 36.9534 60.8824 34.797 60.8824 31.6498ZM63.5929 31.6498C63.5929 33.8042 64.5563 34.807 65.9125 34.807C67.0734 34.807 68.0247 33.8022 68.0247 31.6498C68.0247 29.5276 67.0734 28.5208 65.9125 28.5208C64.5563 28.5208 63.5929 29.5276 63.5929 31.6498ZM72.295 26.6558V32.7652C72.295 35.4984 73.759 36.9112 76.7128 36.9112C79.7485 36.9112 80.9193 35.0824 80.9193 32.522V26.6558H78.3543V32.5843C78.3543 33.8163 77.7879 34.7789 76.6291 34.7789C75.3765 34.7789 74.8639 33.8464 74.8639 32.4778V26.6558H72.295ZM85.3012 34.7226V32.4638H88.9193V30.5968H85.3012V28.6193H89.3421V26.6558H83.3227C83.0955 26.6522 82.9057 26.8292 82.8918 27.0577V36.7182H89.4498V34.7086L85.3012 34.7226ZM52.6191 30.3777L56.8076 36.7363H59.3267V26.6558H56.8335V32.8858C56.2651 31.8468 52.8186 26.6558 52.8186 26.6558H50.0881V36.7283H52.6191V30.3777ZM41.8009 36.7363H39.1222L42.0941 27.0075C42.1534 26.7865 42.3626 26.6412 42.5887 26.6638H45.8737L48.8914 36.7363H46.2147L45.7201 35.0381H42.2775L41.8009 36.7363ZM42.7183 33.0988H45.2853L44.0626 28.5891H43.941L42.7183 33.0988ZM34.6166 36.7343H30.5498V27.116C30.5503 26.9945 30.5991 26.8783 30.6853 26.7933C30.7716 26.7083 30.888 26.6617 31.0085 26.6638H34.6625C36.5094 26.6638 38.1788 27.2426 38.1788 29.1659C38.1788 30.3717 37.7061 31.2178 36.6889 31.4971C37.754 31.6981 38.5837 32.5019 38.5837 33.9489C38.5837 35.9927 36.9083 36.7343 34.6166 36.7343ZM32.9372 30.7053H34.3334C35.3566 30.7053 35.8073 30.3757 35.8073 29.5879C35.8073 28.8001 35.3247 28.4987 34.3952 28.4987H32.9392L32.9372 30.7053ZM34.4969 34.8955C35.5341 34.8955 36.1344 34.5598 36.1344 33.6897C36.1344 32.8195 35.6398 32.4839 34.5867 32.4839H32.9372V34.8955H34.4969ZM65.9086 23.8845C67.3865 23.8845 68.5892 23.3821 69.2354 22.8796L68.2381 20.9664C67.7395 21.3322 67.3047 21.6899 66.2177 21.6899C64.4067 21.6899 63.561 20.3937 63.561 18.5689C63.561 16.7903 64.4486 15.5805 66.1698 15.5805C66.9075 15.5971 67.6303 15.7936 68.276 16.1533L69.2733 14.2923C68.4755 13.7598 67.2668 13.4 65.9524 13.4C62.4541 13.4 60.8824 15.8779 60.8824 18.6252C60.8824 21.3724 62.3922 23.8845 65.9086 23.8845ZM52.6191 17.3309L56.8076 23.6895H59.3267V13.6171H56.8335V19.847C56.2651 18.8101 52.8186 13.6171 52.8186 13.6171H50.0881V23.6895H52.6191V17.3309ZM41.8009 23.6895H39.1222L42.0941 13.9607C42.1527 13.7392 42.3624 13.5935 42.5887 13.6171H45.8737L48.8914 23.6895H46.2147L45.7201 21.9914H42.2775L41.8009 23.6895ZM42.7183 20.052H45.2853L44.0626 15.5423H43.941L42.7183 20.052ZM34.6166 23.6875H30.5498V14.0672C30.5503 13.9459 30.5992 13.8299 30.6855 13.7452C30.7717 13.6605 30.8881 13.6144 31.0085 13.6171H34.6625C36.5094 13.6171 38.1788 14.1959 38.1788 16.1191C38.1788 17.3249 37.7061 18.171 36.6889 18.4503C37.754 18.6513 38.5837 19.4552 38.5837 20.9021C38.5837 22.946 36.9083 23.6875 34.6166 23.6875ZM32.9372 17.6585H34.3334C35.3566 17.6585 35.8073 17.3269 35.8073 16.5391C35.8073 15.7513 35.3247 15.4499 34.3952 15.4499H32.9392L32.9372 17.6585ZM34.4969 21.8326C35.5341 21.8326 36.1344 21.499 36.1344 20.6268C36.1344 19.7546 35.6398 19.421 34.5867 19.421H32.9372V21.8326H34.4969ZM72.646 23.6815H69.9674L72.9392 13.9527C72.997 13.7315 73.2061 13.5857 73.4319 13.609H76.7168L79.7345 23.6815H77.0599L76.5652 21.9833H73.1247L72.646 23.6815ZM73.5655 20.044H76.1324L74.9098 15.5423H74.7881L73.5655 20.044ZM41.9485 51.7767H30.5498V54.3531H41.9485V51.7767ZM59.556 39.7187H63.1043C65.031 39.7187 66.6824 40.1206 66.6824 42.6307C66.6824 43.7541 66.0661 44.9036 64.9093 45.1367C65.4857 45.3377 66.0661 46.0773 66.3813 46.8852L67.5241 49.7911H64.8315L63.6468 47.0198C63.4034 46.4551 63.2339 46.1757 62.7213 46.1757H61.6802V49.7931H59.1671V40.1206C59.1885 39.9119 59.3495 39.7455 59.556 39.7187ZM61.6782 44.1862H62.9347C63.6867 44.1862 64.277 43.7842 64.277 42.8256C64.277 41.867 63.6787 41.66 62.9347 41.66H61.6782V44.1862ZM43.915 39.7187V49.7911H46.482V40.1206C46.4745 39.9079 46.3096 39.7349 46.099 39.7187H43.915ZM57.2344 49.6545V44.4434C57.2455 44.3285 57.2089 44.2141 57.1334 44.1273C57.0578 44.0405 56.95 43.9891 56.8355 43.9852H53.5825V46.0431H54.8191V47.8176C54.4494 47.8658 54.0768 47.888 53.7041 47.884C51.8233 47.884 50.8041 46.6782 50.8041 44.7348C50.8041 42.912 51.6837 41.652 53.5685 41.652C54.3693 41.6832 55.1569 41.8666 55.8901 42.1926L56.8993 40.4602C56.0836 39.9056 54.8191 39.5177 53.377 39.5177C50.1 39.5177 48.1354 41.652 48.1354 44.7428C48.1354 48.1975 50.1 49.9861 53.8278 49.9861C54.9715 49.9829 56.1123 49.8692 57.2344 49.6464V49.6545ZM77.8776 44.7428C77.8776 47.6589 76.1424 49.9861 73.0768 49.9861C69.8038 49.9861 68.0726 47.6589 68.0726 44.7428C68.0726 41.8268 69.8038 39.5177 73.0768 39.5177C76.1424 39.5177 77.8776 41.8469 77.8776 44.7428ZM75.1811 44.7428C75.1811 42.6307 74.2337 41.66 73.0768 41.66C71.7285 41.66 70.7692 42.6307 70.7692 44.7428C70.7692 46.855 71.7285 47.8518 73.0768 47.8518C74.2337 47.8438 75.1811 46.8771 75.1811 44.7428ZM83.4703 43.5009C82.6066 43.2396 81.9185 42.9743 81.9185 42.4518C81.9185 41.9293 82.455 41.5615 83.4024 41.5615C84.1883 41.5615 84.8903 41.8831 85.5765 42.2951L86.9626 40.7034C86.3324 40.1005 85.0958 39.5257 83.4982 39.5257C81.0808 39.5257 79.2239 40.7034 79.2239 42.8116C79.2239 44.767 80.9033 45.3457 82.3453 45.7618C83.5421 46.1054 84.4516 46.3144 84.4516 46.9917C84.4516 47.7131 83.6358 47.8397 82.9896 47.8397C81.8507 47.8397 80.6141 47.2368 79.9779 46.855L78.839 48.8908C79.5391 49.3771 81.1088 49.9861 82.7981 49.9861C85.4388 49.9861 87.0863 48.5592 87.0863 46.4812C87.0863 44.4555 85 43.9691 83.4703 43.4928V43.5009ZM33.1068 43.9691L35.5421 49.7831H36.9083L39.3815 43.9691V49.7831H41.9405V39.7187H38.7852L36.3239 45.4L33.9724 39.7187H30.5498V49.7911H33.1068V43.9691Z" fill="#144B3C"/>
</svg>
