<svg width="120" height="80" viewBox="0 0 120 80" fill="none" xmlns="http://www.w3.org/2000/svg">
<rect width="120" height="80" rx="4" fill="white"/>
<path d="M48.1336 43.3747L50.5066 35.8737C50.5315 35.7698 50.6203 35.6937 50.7268 35.6849H51.9178C52.0246 35.6999 52.1144 35.7725 52.1515 35.8737L53.9987 40.6062C54.0346 40.7006 54.129 40.7096 54.1605 40.6062L55.9942 35.8737C56.0313 35.7725 56.1211 35.6999 56.2279 35.6849H57.4189C57.5254 35.6937 57.6142 35.7698 57.6391 35.8737L59.9851 43.3747C60.0124 43.4325 60.0071 43.5004 59.971 43.5531C59.9349 43.6058 59.8736 43.6355 59.8099 43.6309H58.3941C58.2938 43.6355 58.2046 43.5672 58.1829 43.4691L56.6773 38.5973C56.6548 38.5029 56.547 38.5029 56.5155 38.5973L54.7178 43.4332C54.6872 43.5496 54.582 43.6308 54.4616 43.6309H53.6301C53.4998 43.6309 53.4324 43.559 53.383 43.4332L51.5493 38.5973C51.5133 38.5029 51.4189 38.5029 51.3965 38.5973L49.8549 43.4691C49.831 43.5697 49.7378 43.6381 49.6347 43.6309H48.2864C48.2256 43.63 48.1697 43.5976 48.1385 43.5455C48.1074 43.4933 48.1055 43.4287 48.1336 43.3747ZM60.4346 40.6781C60.409 39.4003 61.1591 38.234 62.3324 37.7271C63.5058 37.2203 64.8691 37.4737 65.782 38.3683C66.6948 39.2629 66.9757 40.6208 66.4927 41.8042C66.0097 42.9875 64.8587 43.761 63.5806 43.7613C62.7488 43.7896 61.9417 43.476 61.3473 42.8935C60.7529 42.3109 60.423 41.5103 60.4346 40.6781ZM65.1087 40.6781C65.0523 39.8377 64.3336 39.1971 63.4923 39.2373C62.6509 39.2775 61.9966 39.9838 62.0207 40.8258C62.0447 41.6677 62.7383 42.3355 63.5806 42.3276C64.4553 42.2911 65.1352 41.5529 65.0997 40.6781H65.1087ZM69.4951 43.1455C69.3783 43.0512 69.2749 43.0871 69.2749 43.2489V43.4017C69.275 43.5199 69.1818 43.6171 69.0637 43.6219H67.9671C67.8474 43.6173 67.7514 43.5214 67.7468 43.4017V35.9007C67.7514 35.781 67.8474 35.6851 67.9671 35.6804H69.1221C69.2402 35.6853 69.3334 35.7825 69.3333 35.9007V38.04C69.3333 38.1928 69.4367 38.2377 69.603 38.1209C70.0454 37.7895 70.5829 37.6098 71.1356 37.6085C72.7355 37.6085 73.9625 38.9568 73.9625 40.6916C73.999 41.4843 73.7144 42.2583 73.1731 42.8385C72.6318 43.4187 71.8794 43.7562 71.0861 43.7747C70.4963 43.7684 69.9297 43.5443 69.4951 43.1455ZM72.3715 40.6916C72.4157 40.1128 72.132 39.5579 71.6368 39.255C71.1415 38.952 70.5184 38.952 70.0231 39.255C69.5279 39.5579 69.2442 40.1128 69.2884 40.6916C69.2726 41.1111 69.4261 41.5192 69.7143 41.8243C70.0026 42.1295 70.4013 42.3059 70.821 42.3141C71.2442 42.3047 71.6461 42.1266 71.9373 41.8193C72.2285 41.5121 72.3848 41.1012 72.3715 40.6781V40.6916ZM74.9288 36.2288C74.9288 35.7323 75.3312 35.3299 75.8277 35.3299C76.3241 35.3299 76.7265 35.7323 76.7265 36.2288C76.7265 36.7252 76.3241 37.1276 75.8277 37.1276C75.3312 37.1276 74.9288 36.7252 74.9288 36.2288ZM75.0097 43.4197V37.9815C75.0096 37.8633 75.1028 37.7661 75.2209 37.7613H76.376C76.4368 37.7589 76.496 37.7807 76.5407 37.822C76.5854 37.8634 76.6118 37.9207 76.6142 37.9815V43.4017C76.6096 43.5214 76.5136 43.6173 76.3939 43.6219H75.2209C75.1028 43.6171 75.0096 43.5199 75.0097 43.4017V43.4197ZM77.8995 41.6399V35.9007C77.8994 35.7825 77.9927 35.6853 78.1108 35.6804H79.2658C79.3855 35.6851 79.4814 35.781 79.486 35.9007V41.6759C79.486 42.0489 79.6478 42.2961 80.0568 42.2961C80.1152 42.2961 80.1712 42.3193 80.2125 42.3606C80.2538 42.4019 80.277 42.4579 80.277 42.5163V43.4736C80.2722 43.5917 80.175 43.6849 80.0568 43.6849C78.5198 43.6849 77.8995 43.1815 77.8995 41.6399ZM80.7085 40.7141C80.7125 39.6287 81.2953 38.6278 82.2373 38.0886C83.1793 37.5493 84.3375 37.5536 85.2755 38.0998C86.2135 38.646 86.7888 39.6511 86.7848 40.7366C86.7848 40.9478 86.7264 41.1231 86.5152 41.1231H82.4972C82.3939 41.1231 82.3579 41.1815 82.3669 41.2759C82.4667 41.9799 83.0961 42.4854 83.8051 42.4309C84.2317 42.4373 84.6388 42.2526 84.9152 41.9276C85.0009 41.8071 85.1404 41.7365 85.2882 41.7388H86.3624C86.5511 41.7388 86.632 41.8691 86.5601 42.0534C85.93 43.338 84.498 44.0192 83.1038 43.6974C81.7097 43.3757 80.7209 42.1359 80.7175 40.7051L80.7085 40.7141ZM84.9736 40.1748C85.0545 40.1748 85.0905 40.1388 85.077 40.0444C84.9545 39.3994 84.3852 38.9363 83.7287 38.9478C83.0866 38.9472 82.5284 39.3882 82.3804 40.013C82.3579 40.0939 82.3804 40.1748 82.4748 40.1748H84.9736ZM87.7556 43.4017V35.9007C87.7555 35.7825 87.8487 35.6853 87.9668 35.6804H91.6477C93.3286 35.6804 94.4746 36.6602 94.4746 38.3096C94.4746 39.9591 93.1758 40.9748 91.5668 40.9748H89.6163C89.5569 40.9686 89.4981 40.9902 89.4568 41.0332C89.4155 41.0763 89.3964 41.136 89.405 41.195V43.4017C89.4004 43.5214 89.3045 43.6173 89.1848 43.6219H87.9713C87.8515 43.6195 87.7556 43.5216 87.7556 43.4017ZM91.5668 39.6175C92.2633 39.5955 92.8114 39.0153 92.7938 38.3186C92.8038 37.9886 92.6774 37.6691 92.4444 37.4353C92.2114 37.2014 91.8923 37.0739 91.5623 37.0827H89.5983C89.459 37.0827 89.4005 37.1546 89.4005 37.2939V39.4197C89.4005 39.5591 89.459 39.631 89.5983 39.631L91.5668 39.6175ZM95.0409 40.6781C95.0106 39.8833 95.3003 39.1095 95.8452 38.53C96.3901 37.9505 97.1446 37.6137 97.9398 37.595C98.5136 37.5982 99.0666 37.8107 99.4948 38.1928C99.5982 38.2872 99.715 38.2737 99.715 38.1344V37.9815C99.715 37.8649 99.8096 37.7703 99.9263 37.7703H101.023C101.143 37.7749 101.239 37.8709 101.243 37.9905V41.8467C101.243 42.1388 101.347 42.2691 101.549 42.2961C101.654 42.2982 101.74 42.3802 101.747 42.4849V43.5006C101.747 43.6098 101.658 43.6983 101.549 43.6983C100.776 43.6983 100.322 43.4781 100.066 43.0332C99.9937 42.9163 99.9128 42.8938 99.7959 43.0107C99.3022 43.5189 98.6213 43.8017 97.9128 43.7927C97.1158 43.7696 96.3618 43.4261 95.8213 42.8399C95.2808 42.2538 94.9994 41.4744 95.0409 40.6781ZM99.715 40.6781C99.7592 40.1009 99.4763 39.5477 98.9825 39.2455C98.4887 38.9434 97.8673 38.9434 97.3734 39.2455C96.8797 39.5477 96.5967 40.1009 96.6409 40.6781C96.5967 41.2553 96.8797 41.8086 97.3734 42.1107C97.8673 42.4129 98.4887 42.4129 98.9825 42.1107C99.4763 41.8086 99.7592 41.2553 99.715 40.6781ZM102.29 45.6803V44.723C102.295 44.6049 102.392 44.5117 102.511 44.5118C103.263 44.5681 103.956 44.1046 104.192 43.3882C104.231 43.2379 104.215 43.0783 104.147 42.9388L101.998 38.0759C101.961 38.0098 101.962 37.9289 102.001 37.8638C102.04 37.7988 102.111 37.7597 102.187 37.7613H103.342C103.459 37.7613 103.531 37.8557 103.576 37.9726L104.924 41.0826C105.019 41.3298 105.171 41.3163 105.275 41.0826L106.56 37.9636C106.605 37.8467 106.663 37.7748 106.78 37.7748H107.89C107.96 37.7712 108.026 37.8032 108.066 37.8597C108.106 37.9162 108.114 37.9893 108.088 38.0535L105.877 43.2849C105.072 45.1905 104.219 45.9006 102.511 45.9006C102.391 45.896 102.295 45.8 102.29 45.6803Z" fill="#5A78FF"/>
<path style="mix-blend-mode:multiply" opacity="0.7" d="M27.0067 27.5565L25.7041 28.0961L29.2857 36.7427L30.5882 36.2031L27.0067 27.5565Z" fill="url(#paint0_linear_829_5373)"/>
<path style="mix-blend-mode:multiply" opacity="0.7" d="M33.5508 47.0418L34.8533 46.5023L30.7992 36.7146L29.4966 37.2542L33.5508 47.0418Z" fill="url(#paint1_linear_829_5373)"/>
<path d="M31.906 40.5541C29.1964 41.6777 26.9339 43.2264 25.4526 45.0934L21.6333 35.8692C23.3754 33.8452 25.5929 32.2854 28.0867 31.3299C30.7963 30.2064 33.5338 29.6625 35.8597 29.9794L39.6798 39.2031C37.0167 39.0025 34.3454 39.4668 31.906 40.5541Z" fill="#5A78FF"/>
<path d="M23.5656 55.5C22.5052 55.5001 21.549 54.8616 21.1427 53.882L12.097 32.045C11.5435 30.7088 12.178 29.177 13.514 28.6234L22.9885 24.6994C23.6301 24.4336 24.351 24.4335 24.9926 24.6993C25.6342 24.965 26.144 25.4749 26.4096 26.1165L35.4554 47.9545C36.0079 49.2902 35.3736 50.8211 34.0383 51.3747L24.5638 55.3005C24.2474 55.4319 23.9082 55.4997 23.5656 55.5ZM23.9908 25.9089C23.832 25.9091 23.6748 25.9407 23.5283 26.0019L14.0533 29.9259C13.7572 30.0486 13.5219 30.2839 13.3992 30.5801C13.2766 30.8763 13.2767 31.2091 13.3994 31.5052L22.4452 53.3436C22.7012 53.9598 23.4077 54.2525 24.0245 53.998L33.499 50.0713C33.7951 49.9486 34.0304 49.7133 34.1531 49.4171C34.2757 49.1209 34.2757 48.7881 34.1529 48.492L25.1072 26.6558C24.9199 26.2043 24.4796 25.9097 23.9908 25.9089Z" fill="#5A78FF"/>
<g style="mix-blend-mode:multiply" opacity="0.4">
<path opacity="0.9" d="M31.906 40.5541C29.1964 41.6777 26.9339 43.2264 25.4526 45.0934L21.6333 35.8692C23.3754 33.8452 25.5929 32.2854 28.0867 31.3299C30.7963 30.2064 33.5338 29.6625 35.8597 29.9794L39.6798 39.2031C37.0167 39.0025 34.3454 39.4668 31.906 40.5541Z" fill="url(#paint2_linear_829_5373)"/>
<path opacity="0.7" d="M31.906 40.5541C29.1964 41.6777 26.9339 43.2264 25.4526 45.0934L21.6333 35.8692C23.3754 33.8452 25.5929 32.2854 28.0867 31.3299C30.7963 30.2064 33.5338 29.6625 35.8597 29.9794L39.6798 39.2031C37.0167 39.0025 34.3454 39.4668 31.906 40.5541Z" fill="url(#paint3_linear_829_5373)"/>
</g>
<path d="M25.4517 45.0898C27.5326 43.9329 30.2175 43.3662 33.1505 43.3662C35.8199 43.295 38.4652 43.888 40.8488 45.092V35.7654C38.821 34.5834 36.0835 34.0396 33.1505 34.0396C30.4811 33.9679 27.8357 34.5601 25.4517 35.7631V45.0898Z" fill="#5A78FF"/>
<defs>
<linearGradient id="paint0_linear_829_5373" x1="29.0611" y1="34.4047" x2="28.4763" y2="27.582" gradientUnits="userSpaceOnUse">
<stop stop-color="#504678"/>
<stop offset="0.302" stop-color="#504678" stop-opacity="0.616"/>
<stop offset="0.608" stop-color="#504678" stop-opacity="0.283"/>
<stop offset="0.852" stop-color="#504678" stop-opacity="0.076"/>
<stop offset="1" stop-color="#504678" stop-opacity="0"/>
</linearGradient>
<linearGradient id="paint1_linear_829_5373" x1="31.1372" y1="39.3265" x2="31.5039" y2="46.9711" gradientUnits="userSpaceOnUse">
<stop stop-color="#504678"/>
<stop offset="0.302" stop-color="#504678" stop-opacity="0.616"/>
<stop offset="0.608" stop-color="#504678" stop-opacity="0.283"/>
<stop offset="0.852" stop-color="#504678" stop-opacity="0.076"/>
<stop offset="1" stop-color="#504678" stop-opacity="0"/>
</linearGradient>
<linearGradient id="paint2_linear_829_5373" x1="24.106" y1="39.9761" x2="31.2628" y2="35.0972" gradientUnits="userSpaceOnUse">
<stop stop-color="#504678"/>
<stop offset="0.179" stop-color="#504678" stop-opacity="0.872"/>
<stop offset="0.526" stop-color="#504678" stop-opacity="0.536"/>
<stop offset="1" stop-color="#504678" stop-opacity="0"/>
</linearGradient>
<linearGradient id="paint3_linear_829_5373" x1="30.2458" y1="35.2068" x2="29.9284" y2="32.6678" gradientUnits="userSpaceOnUse">
<stop stop-color="#504678"/>
<stop offset="0.643" stop-color="#504678" stop-opacity="0.332"/>
<stop offset="1" stop-color="#504678" stop-opacity="0"/>
</linearGradient>
</defs>
</svg>
