<svg width="120" height="80" viewBox="0 0 120 80" fill="none" xmlns="http://www.w3.org/2000/svg">
<g clip-path="url(#clip0_434_111)">
<path d="M116 0H4C1.79086 0 0 1.79086 0 4V76C0 78.2091 1.79086 80 4 80H116C118.209 80 120 78.2091 120 76V4C120 1.79086 118.209 0 116 0Z" fill="white"/>
<g clip-path="url(#clip1_434_111)">
<path d="M45.7048 40.7115C45.7046 43.7479 44.8042 46.716 43.1172 49.2406C41.4303 51.7652 39.0326 53.7328 36.2274 54.8948C33.4222 56.0568 30.3354 56.3608 27.3574 55.7685C24.3794 55.1762 21.6439 53.7142 19.4968 51.5673C17.7115 49.782 16.3941 47.5841 15.6611 45.1681C14.9282 42.752 14.8024 40.1926 15.295 37.7163C15.7875 35.2401 16.8831 32.9236 18.4848 30.9719C20.0864 29.0202 22.1447 27.4937 24.4773 26.5275C26.8098 25.5613 29.3447 25.1853 31.8572 25.4328C34.3698 25.6803 36.7826 26.5436 38.8818 27.9463C40.9811 29.349 42.702 31.2478 43.8921 33.4744C45.0822 35.701 45.7048 38.1868 45.7048 40.7115ZM32.9202 33.4959V41.2142L27.5468 33.4959H23.1369V47.9464H27.7809V40.2049L33.1543 47.927H37.5796V33.4959H32.9202ZM101.382 32.694L97.0986 42.4547L92.2529 32.694H88.5272L95.3896 46.2359L92.5608 52.5813H96.1788L105 32.713L101.382 32.694ZM86.1461 47.7875H82.6052V46.3782C81.3173 47.5072 79.6568 48.119 77.9443 48.0955C73.7105 48.0955 70.3968 44.6301 70.3968 40.2407C70.3968 35.8512 73.7067 32.3859 77.9443 32.3859C79.6563 32.3614 81.3168 32.9718 82.6052 34.0993V32.694H86.1461V47.7875ZM83.0208 40.2599C83.0208 37.4145 81.0349 35.2545 78.4025 35.2545C75.7697 35.2545 73.7836 37.4145 73.7836 40.2599C73.7836 43.1054 75.7659 45.2654 78.4023 45.2654C81.0388 45.2654 83.0208 43.0862 83.0208 40.2599ZM52.8856 52.581H56.5805V46.5054C57.8446 47.5569 59.4434 48.121 61.0875 48.0955C65.3211 48.0955 68.6388 44.6301 68.6388 40.2407C68.6388 35.8512 65.325 32.3859 61.0875 32.3859C59.3709 32.3551 57.7047 32.9661 56.4149 34.0993V32.694H52.8742L52.8856 52.581ZM60.6487 35.2543C63.2814 35.2543 65.2673 37.4144 65.2673 40.2598C65.2673 43.1052 63.2814 45.2653 60.6487 45.2653C58.0162 45.2653 56.0303 43.1052 56.0303 40.2598C56.0303 37.4144 57.993 35.2543 60.6487 35.2543Z" fill="#00DE5A"/>
</g>
</g>
<defs>
<clipPath id="clip0_434_111">
<rect width="120" height="80" fill="white"/>
</clipPath>
<clipPath id="clip1_434_111">
<rect width="90" height="30.7046" fill="white" transform="translate(15 25)"/>
</clipPath>
</defs>
</svg>
