<svg width="120" height="80" viewBox="0 0 120 80" fill="none" xmlns="http://www.w3.org/2000/svg">
<rect width="120" height="80" rx="4" fill="white"/>
<path d="M97.2388 37.0006H90.5194L90.3475 37.6881H96.3351C96.6289 37.4553 96.9283 37.2224 97.2332 37.0006H97.2388Z" fill="#1D1D1B"/>
<path d="M101.563 34.4171H91.1625L90.9906 35.1046H100.221C100.659 34.8662 101.109 34.6333 101.563 34.4171Z" fill="#1D1D1B"/>
<path d="M104.79 33.1254H91.4841L91.3122 33.8128H102.916C103.531 33.5578 104.158 33.3305 104.784 33.1254H104.79Z" fill="#1D1D1B"/>
<path d="M95.6088 38.2924H90.1978L90.026 38.9799H94.8437C95.0932 38.747 95.3483 38.5197 95.6088 38.2924Z" fill="#1D1D1B"/>
<path d="M99.1792 35.7089H90.8465L90.6746 36.3963H98.0981C98.4529 36.158 98.8133 35.9307 99.1792 35.7089Z" fill="#1D1D1B"/>
<path d="M91.229 43.4539H88.9116L88.7397 44.1414H90.852C90.9684 43.9085 91.096 43.6812 91.229 43.4539Z" fill="#1D1D1B"/>
<path d="M92.0551 42.1621H89.2332L89.0613 42.8496H91.5894C91.7391 42.6168 91.8888 42.3895 92.0495 42.1621H92.0551Z" fill="#1D1D1B"/>
<path d="M94.2283 39.5842H89.8818L89.71 40.2716H93.5797C93.7904 40.0388 94.0066 39.8115 94.2283 39.5842Z" fill="#1D1D1B"/>
<path d="M93.053 40.8704H89.5603L89.3884 41.5578H92.4986C92.676 41.325 92.859 41.0977 93.053 40.8704Z" fill="#1D1D1B"/>
<path d="M81.7052 44.3022C81.1009 44.3022 80.5797 44.2079 80.1473 44.0194C79.7149 43.8309 79.3601 43.5759 79.0773 43.2432C78.8001 42.9161 78.595 42.5281 78.4619 42.079C78.3289 41.6355 78.2623 41.1531 78.2623 40.6375C78.2623 40.1219 78.3399 39.6341 78.4952 39.1407C78.6504 38.6472 78.8944 38.1649 79.2215 37.6937C79.5486 37.2224 79.9588 36.8288 80.4467 36.5128C80.9346 36.1968 81.428 35.9805 81.9325 35.8641C82.437 35.7477 82.947 35.6867 83.4737 35.6867C84.0004 35.6867 84.4717 35.7532 84.8875 35.8974C85.2977 36.036 85.6137 36.1912 85.8355 36.3575C86.0573 36.5239 86.2014 36.6569 86.279 36.7567L87.1771 33.1254H90.0601L87.3157 44.1414H84.5881L84.8597 43.1046C84.4938 43.4872 84.0392 43.781 83.4848 43.9861C82.936 44.1968 82.3372 44.2966 81.7052 44.2966V44.3022ZM83.1023 42.1677C83.6678 42.1677 84.1612 42.0236 84.5825 41.7408C85.0039 41.4525 85.2977 41.1032 85.4585 40.693C85.6193 40.2827 85.7024 39.8835 85.7024 39.5065C85.7024 39.1074 85.6082 38.7747 85.4252 38.5142C85.2423 38.2536 85.0039 38.0706 84.7101 37.9709C84.4162 37.8711 84.1335 37.8212 83.8618 37.8212C83.2852 37.8212 82.7863 37.9598 82.3705 38.237C81.9547 38.5142 81.6775 38.8413 81.5278 39.2238C81.3781 39.6063 81.306 39.9778 81.306 40.3326C81.306 40.6098 81.3393 40.8648 81.4169 41.0922C81.489 41.3195 81.5998 41.5135 81.744 41.6743C81.8937 41.835 82.0766 41.957 82.3039 42.0457C82.5312 42.1289 82.7918 42.1732 83.0967 42.1732L83.1023 42.1677Z" fill="#1D1D1B"/>
<path d="M15.21 46.8746L17.9543 35.8586H20.7318L20.5211 36.9119C20.8593 36.5405 21.2751 36.2467 21.7686 36.0249C22.262 35.8031 22.8607 35.6923 23.5648 35.6923C24.2689 35.6923 24.9342 35.8752 25.4942 36.2356C26.0541 36.6015 26.4477 37.0505 26.675 37.5883C26.9023 38.1261 27.0188 38.6472 27.0188 39.1573C27.0188 39.9556 26.8857 40.6708 26.614 41.3084C26.3424 41.9459 25.9765 42.4893 25.5052 42.9328C25.0395 43.3818 24.4907 43.7256 23.8642 43.964C23.2377 44.2024 22.5669 44.3243 21.8573 44.3243C21.2696 44.3243 20.7651 44.2356 20.3493 44.0582C19.9335 43.8808 19.6341 43.6868 19.4511 43.4872C19.2682 43.2876 19.1351 43.1213 19.0409 42.9938L18.0929 46.8746H15.21ZM21.4193 42.201C21.7741 42.201 22.1067 42.1344 22.4228 42.0014C22.7388 41.8683 23.016 41.6854 23.2599 41.447C23.5038 41.2086 23.6923 40.9258 23.8309 40.5987C23.9695 40.2716 24.0416 39.9168 24.0416 39.5232C24.0416 39.1628 23.9418 38.8468 23.7478 38.5752C23.5537 38.2979 23.3153 38.1095 23.0326 37.9986C22.7499 37.8877 22.4727 37.8323 22.201 37.8323C21.8018 37.8323 21.4359 37.9043 21.1088 38.054C20.7817 38.2037 20.5045 38.4033 20.2772 38.6583C20.0499 38.9133 19.8725 39.2072 19.7505 39.5398C19.6286 39.8725 19.5676 40.2273 19.5676 40.5932C19.5676 40.8371 19.6175 41.0533 19.7117 41.2529C19.806 41.4525 19.939 41.6188 20.1053 41.7574C20.2717 41.896 20.4713 42.0069 20.693 42.0845C20.9203 42.1622 21.1587 42.201 21.4137 42.201H21.4193Z" fill="#1D1D1B"/>
<path d="M30.1954 44.3909C29.8628 44.3909 29.5357 44.352 29.2086 44.28C28.8815 44.2079 28.5876 44.0859 28.3215 43.9196C28.0554 43.7533 27.8392 43.526 27.6784 43.2432C27.5176 42.9605 27.4345 42.6112 27.4345 42.1954C27.4345 41.6299 27.5343 41.1587 27.7394 40.7872C27.9445 40.4158 28.2162 40.1109 28.5544 39.878C28.8981 39.6452 29.2862 39.4677 29.7297 39.3513C30.1732 39.2349 30.6278 39.1517 31.1046 39.1018C31.6479 39.0409 32.1635 38.991 32.6514 38.9466C33.1393 38.9023 33.5994 38.8468 34.043 38.7914C34.3035 38.7581 34.4809 38.6971 34.5641 38.6029C34.6473 38.5086 34.6861 38.3589 34.6861 38.1593C34.6861 37.8877 34.5419 37.7047 34.2592 37.6105C33.9764 37.5162 33.5828 37.4719 33.0783 37.4719C32.5793 37.4608 32.1691 37.5273 31.8475 37.6715C31.526 37.8156 31.2876 38.0208 31.1323 38.2924L28.9258 37.555C29.3194 36.9286 29.9016 36.4462 30.6611 36.1136C31.4206 35.7754 32.4075 35.6091 33.6161 35.6091C34.1927 35.6091 34.7138 35.6645 35.1739 35.7754C35.6341 35.8863 36.0222 36.0415 36.3382 36.2467C36.6542 36.4518 36.8981 36.7068 37.0645 37.0117C37.2308 37.3111 37.3195 37.6604 37.3195 38.0429C37.3195 38.1649 37.2973 38.3756 37.2585 38.6749C37.2197 38.9688 37.1754 39.2127 37.1365 39.3901L36.5211 41.9737C36.5101 42.0457 36.5045 42.1012 36.5045 42.1511C36.5045 42.2398 36.5322 42.3007 36.5877 42.334C36.6431 42.3673 36.7097 42.3839 36.7928 42.3839C37.0035 42.3839 37.1864 42.3229 37.3528 42.201L37.6189 43.6535C37.386 43.8032 37.1199 43.9252 36.8261 44.0194C36.5322 44.1137 36.255 44.1857 35.9889 44.2301C35.7228 44.28 35.4733 44.3022 35.2516 44.3022C35.0132 44.3022 34.8025 44.2855 34.6029 44.2523C34.4089 44.219 34.237 44.158 34.0984 44.0693C33.9598 43.9806 33.8434 43.8697 33.7602 43.7256C33.6771 43.5814 33.6327 43.404 33.6216 43.1878C33.1559 43.6091 32.6459 43.9141 32.097 44.1081C31.5481 44.2966 30.9161 44.3909 30.2009 44.3909H30.1954ZM31.4816 42.4615C31.8752 42.4615 32.2578 42.3839 32.6403 42.2287C33.0229 42.0734 33.3167 41.8794 33.5329 41.6466C33.7436 41.4137 33.8822 41.1864 33.9487 40.9702L34.1483 40.3104C33.7491 40.3881 33.35 40.449 32.9619 40.4989C32.5738 40.5433 32.1802 40.5987 31.781 40.6597C31.4816 40.7096 31.2377 40.7761 31.0492 40.8704C30.8607 40.9591 30.7221 41.0866 30.6389 41.2418C30.5558 41.3971 30.517 41.5634 30.517 41.7463C30.517 41.9459 30.5724 42.1012 30.6833 42.2176C30.7942 42.334 30.9272 42.4061 31.0824 42.4283C31.2377 42.456 31.3707 42.4671 31.4872 42.4671L31.4816 42.4615Z" fill="#1D1D1B"/>
<path d="M40.0362 46.8745C39.5927 46.8745 39.1437 46.8191 38.6946 46.7082C38.24 46.5974 37.8297 46.4144 37.4638 46.1483L38.5782 44.4684C38.7445 44.6015 38.933 44.7235 39.1492 44.8288C39.3599 44.9341 39.5761 44.9896 39.7923 44.9896C40.0972 44.9896 40.3744 44.9009 40.6295 44.729C40.8845 44.5571 41.1229 44.2633 41.3557 43.8586L38.9718 35.853H42.0765L43.3793 40.9812L46.5949 35.853H49.8381L43.5235 44.7456C43.0855 45.361 42.6641 45.8267 42.265 46.1483C41.8658 46.4698 41.4777 46.6694 41.1063 46.747C40.7293 46.8247 40.3744 46.8635 40.0362 46.8635V46.8745Z" fill="#1D1D1B"/>
<path d="M53.3475 44.3908C52.9539 44.3908 52.5769 44.3631 52.211 44.3077C51.8395 44.2522 51.4958 44.158 51.1687 44.036C50.8416 43.9085 50.5422 43.7477 50.2706 43.5481C49.9989 43.3486 49.766 43.0991 49.572 42.8108C49.378 42.517 49.2283 42.1788 49.1174 41.7962C49.0121 41.4081 48.9566 40.9702 48.9566 40.4767C48.9566 39.6174 49.1229 38.8634 49.4611 38.2203C49.7993 37.5772 50.2373 37.0561 50.7806 36.6625C51.3239 36.2633 51.8894 35.9861 52.4715 35.8308C53.0592 35.6756 53.6192 35.598 54.1625 35.598C55.1715 35.598 56.0197 35.7809 56.6906 36.1468C57.3669 36.5127 57.8271 36.9452 58.0821 37.4442C58.3371 37.9487 58.5035 38.4199 58.5811 38.8579L55.6261 39.3624C55.5817 39.0575 55.4986 38.7914 55.3711 38.5696C55.2436 38.3478 55.0606 38.1815 54.8278 38.0706C54.5949 37.9597 54.3454 37.9043 54.0793 37.9043C53.7688 37.9043 53.4861 37.9597 53.2255 38.0762C52.965 38.1926 52.7432 38.3589 52.5602 38.5751C52.3773 38.7969 52.2331 39.063 52.1278 39.379C52.0225 39.695 51.9726 40.0499 51.9726 40.449C51.9726 40.7484 52.0114 41.0034 52.0945 41.2197C52.1722 41.4359 52.2886 41.6133 52.4327 41.7519C52.5769 41.8905 52.7487 41.9958 52.9483 42.0623C53.1479 42.1344 53.3641 42.1677 53.6081 42.1677C54.0627 42.1677 54.4397 42.0679 54.7391 41.8738C55.0384 41.6798 55.2824 41.3527 55.4598 40.9036L58.2041 41.5356C58.0156 42.0623 57.7605 42.5003 57.4334 42.8662C57.1008 43.2266 56.7238 43.5204 56.3025 43.7477C55.8756 43.975 55.4099 44.1358 54.9054 44.2356C54.4009 44.3354 53.8797 44.3853 53.3419 44.3853L53.3475 44.3908Z" fill="#1D1D1B"/>
<path d="M61.6524 44.3909C61.3198 44.3909 60.9927 44.352 60.6656 44.28C60.3385 44.2079 60.0446 44.0859 59.7785 43.9196C59.5124 43.7533 59.2962 43.526 59.1354 43.2432C58.9746 42.9605 58.8915 42.6112 58.8915 42.1954C58.8915 41.6299 58.9913 41.1587 59.1964 40.7872C59.4015 40.4158 59.6732 40.1109 60.0114 39.878C60.3496 39.6452 60.7432 39.4677 61.1812 39.3513C61.6247 39.2349 62.0793 39.1517 62.5561 39.1018C63.0994 39.0409 63.615 38.991 64.1029 38.9466C64.5852 38.9023 65.0509 38.8468 65.4944 38.7914C65.755 38.7581 65.9324 38.6971 66.01 38.6029C66.0932 38.5086 66.132 38.3589 66.132 38.1593C66.132 37.8877 65.9879 37.7047 65.7051 37.6105C65.4224 37.5162 65.0287 37.4719 64.5242 37.4719C64.0253 37.4608 63.615 37.5273 63.299 37.6715C62.9775 37.8156 62.7391 38.0208 62.5838 38.2924L60.3773 37.555C60.7709 36.9286 61.353 36.4462 62.1126 36.1136C62.8721 35.7754 63.859 35.6091 65.0676 35.6091C65.6441 35.6091 66.1653 35.6645 66.6254 35.7754C67.0856 35.8863 67.4737 36.0415 67.7897 36.2467C68.1057 36.4518 68.3496 36.7068 68.5159 37.0117C68.6823 37.3111 68.7654 37.6604 68.7654 38.0429C68.7654 38.1649 68.7433 38.3756 68.7044 38.6749C68.6656 38.9688 68.6213 39.2127 68.5825 39.3901L67.9671 41.9737C67.956 42.0457 67.9504 42.1012 67.9504 42.1511C67.9504 42.2398 67.9782 42.3007 68.0336 42.334C68.089 42.3673 68.1556 42.3839 68.2387 42.3839C68.4494 42.3839 68.6379 42.3229 68.8042 42.201L69.0703 43.6535C68.8375 43.8032 68.5714 43.9252 68.2831 44.0194C67.9893 44.1137 67.7121 44.1857 67.4459 44.2301C67.1798 44.28 66.9303 44.3022 66.7086 44.3022C66.4702 44.3022 66.2595 44.2855 66.0599 44.2523C65.8659 44.219 65.694 44.158 65.5554 44.0693C65.4113 43.9861 65.3004 43.8697 65.2172 43.7256C65.1341 43.5814 65.0897 43.404 65.0786 43.1878C64.6129 43.6091 64.1029 43.9141 63.554 44.1081C63.0052 44.2966 62.3731 44.3909 61.658 44.3909H61.6524ZM62.9386 42.4615C63.3323 42.4615 63.7148 42.3839 64.0973 42.2287C64.4799 42.0734 64.7737 41.8794 64.9899 41.6466C65.2006 41.4137 65.3392 41.1864 65.4057 40.9702L65.6053 40.3104C65.2061 40.3881 64.807 40.449 64.4189 40.4989C64.0253 40.5433 63.6372 40.5987 63.238 40.6597C62.9386 40.7096 62.6947 40.7761 62.5007 40.8704C62.3122 40.9591 62.1736 41.0866 62.0904 41.2418C62.0072 41.3971 61.9684 41.5634 61.9684 41.7463C61.9684 41.9459 62.0239 42.1012 62.1348 42.2176C62.2512 42.334 62.3787 42.4061 62.5339 42.4283C62.6892 42.456 62.8222 42.4671 62.9386 42.4671V42.4615Z" fill="#1D1D1B"/>
<path d="M69.9298 44.1414L72.0032 35.8586H74.7642L74.4371 37.2889C74.7143 36.9064 75.0414 36.5904 75.4184 36.3354C75.7954 36.0803 76.1502 35.9085 76.4828 35.8198C76.8155 35.7311 77.1093 35.6867 77.3643 35.6867C77.7912 35.6867 78.146 35.7311 78.4232 35.8198C78.7004 35.9085 78.9222 36.0194 79.0885 36.1524L77.6582 38.6971C77.5362 38.5807 77.3477 38.4754 77.0982 38.3811C76.8487 38.2869 76.5604 38.2425 76.2333 38.2425C74.9416 38.2425 74.1044 38.9799 73.7274 40.4601L72.8126 44.1469H69.9298V44.1414Z" fill="#1D1D1B"/>
</svg>
