<svg width="120" height="80" viewBox="0 0 120 80" fill="none" xmlns="http://www.w3.org/2000/svg">
<rect width="120" height="80" rx="4" fill="url(#paint0_linear_829_5533)"/>
<path fill-rule="evenodd" clip-rule="evenodd" d="M84.5018 45.4658C84.1591 45.4658 83.8465 45.4336 83.5626 45.3749C83.2659 45.3256 82.9696 45.1843 82.6666 44.9476C82.3557 44.6725 82.1414 44.3635 82.024 44.0218C81.8998 43.6861 81.8401 43.3068 81.8401 42.8787V38.4594C81.8269 38.099 81.8625 37.7821 81.9451 37.5086C82.0218 37.2335 82.181 36.966 82.4226 36.7042C82.6977 36.4275 82.979 36.2448 83.2757 36.1548C83.5613 36.0819 83.8826 36.0448 84.2434 36.0448H87.7103V36.5985H84.323C83.7259 36.5985 83.2554 36.7239 82.9118 36.9747C82.56 37.2484 82.3812 37.7195 82.3812 38.3834V42.8058C82.3812 43.117 82.4275 43.4187 82.5201 43.7112C82.6159 43.9989 82.7735 44.2498 83.0012 44.4703C83.2472 44.6615 83.4929 44.7798 83.7321 44.8291C83.982 44.884 84.2492 44.9107 84.5328 44.9107H87.7645V45.4658H84.5018Z" fill="white"/>
<path fill-rule="evenodd" clip-rule="evenodd" d="M97.1676 42.9163C97.1676 43.2716 97.1419 43.585 97.0968 43.8587C97.0225 44.1582 96.8728 44.4467 96.6443 44.7203C96.1694 45.2297 95.5811 45.4784 94.8791 45.4653H92.1756C91.4737 45.4653 90.9044 45.2517 90.4632 44.8261C90.013 44.4052 89.7843 43.8212 89.7843 43.0708V41.6473C89.8077 40.0393 90.594 39.2159 92.1419 39.1791H96.6443V38.5552C96.6443 38.0417 96.4986 37.5916 96.2081 37.2044C96.0234 36.9535 95.8053 36.7865 95.5578 36.6988C95.3076 36.632 95.0264 36.5985 94.7127 36.5985H89.8009V36.0448H94.4574C94.8835 36.0448 95.2687 36.0755 95.6172 36.1357C95.7963 36.172 95.9592 36.2425 96.1105 36.3453C96.2686 36.4431 96.4175 36.5874 96.5555 36.7748C96.9728 37.3235 97.1772 37.957 97.1676 38.6702V42.9163ZM96.628 39.7318H92.0819C91.5376 39.7445 91.1121 39.9162 90.8039 40.2462C90.4864 40.5809 90.3293 41.0418 90.3293 41.626V43.0364C90.3293 43.3106 90.3572 43.56 90.4148 43.7851C90.4725 44.0218 90.615 44.2334 90.8405 44.416C91.2337 44.7476 91.6677 44.9112 92.1428 44.9112H94.8972C96.0482 44.8992 96.628 44.2814 96.628 43.0544V39.7318Z" fill="white"/>
<path fill-rule="evenodd" clip-rule="evenodd" d="M102.252 36.5985C100.99 36.6227 100.369 37.3235 100.393 38.7034V45.4653H99.8507V38.7057C99.8257 36.9307 100.654 36.0457 102.338 36.0457H102.94V36.5985H102.252Z" fill="white"/>
<path fill-rule="evenodd" clip-rule="evenodd" d="M111.949 42.8474C111.902 44.6316 110.974 45.5056 109.169 45.4687H107.161C106.736 45.4687 106.357 45.4315 106.021 45.3599C105.676 45.268 105.346 45.0541 105.028 44.7193C104.788 44.4194 104.635 44.1158 104.573 43.8044C104.49 43.4944 104.454 43.1483 104.467 42.7713V38.7472C104.49 36.9348 105.387 36.034 107.157 36.048H111.408V32.9929H111.949V42.8474ZM111.408 36.6014H107.124C106.815 36.6014 106.538 36.6369 106.289 36.7035C106.028 36.7637 105.775 36.9254 105.54 37.188C105.314 37.4269 105.172 37.6639 105.111 37.9007C105.033 38.1396 104.997 38.4274 105.01 38.7613V43.0732C105.01 43.7897 105.213 44.2781 105.627 44.5392C105.83 44.6615 106.054 44.7525 106.305 44.8136C106.556 44.8812 106.834 44.9147 107.141 44.9147H109.014C109.713 44.9147 110.286 44.7508 110.726 44.4194C111.168 44.1095 111.393 43.5731 111.408 42.8097V36.6014Z" fill="white"/>
<path fill-rule="evenodd" clip-rule="evenodd" d="M21.5879 38.585C21.5998 37.7776 21.7765 37.1628 22.1188 36.7433C22.2977 36.5671 22.5231 36.4197 22.7958 36.298C23.0794 36.1687 23.3544 36.1069 23.6213 36.1069H26.8547C28.2816 36.1187 29.0063 36.9137 29.0302 38.4925V43.353C29.0192 43.9135 28.804 44.4003 28.3861 44.8073C27.9741 45.2347 27.4818 45.4526 26.9082 45.4653H23.85V48.9692H21.5879V38.585ZM26.766 39.043C26.7547 38.6766 26.5847 38.4862 26.2542 38.4736H24.4927C24.0754 38.4996 23.8611 38.7332 23.85 39.1714V42.4006C23.8611 42.8527 24.0981 43.0832 24.5619 43.0974H26.1765C26.3441 43.0974 26.4835 43.034 26.5948 42.9038C26.7105 42.8067 26.766 42.6819 26.766 42.5275V39.043Z" fill="white"/>
<path fill-rule="evenodd" clip-rule="evenodd" d="M36.0503 38.9864C36.0614 38.6319 35.8597 38.4628 35.4411 38.4744H30.8852V36.1069H36.0155C37.5093 36.131 38.2679 36.8674 38.2932 38.3192V43.2722C38.2808 43.8993 38.0925 44.4152 37.7275 44.8261C37.3454 45.2518 36.853 45.4659 36.2494 45.4659H33.1476C31.6392 45.4526 30.8739 44.7509 30.8503 43.3546V41.4433C30.8621 39.9851 31.5934 39.2442 33.0405 39.2185H36.0503V38.9864ZM33.113 42.6288C33.113 42.7636 33.1737 42.871 33.2942 42.9502C33.4007 43.0472 33.5346 43.0974 33.7038 43.0974H35.4419C35.8351 43.0974 36.0386 42.9423 36.0503 42.6288V41.9671C36.0503 41.6063 35.8432 41.4245 35.4255 41.4245H33.7038C33.478 41.4245 33.322 41.463 33.2346 41.535C33.1541 41.6213 33.113 41.7898 33.113 42.0399V42.6288Z" fill="white"/>
<path fill-rule="evenodd" clip-rule="evenodd" d="M44.6476 46.602C44.8274 46.5898 44.9816 46.5242 45.1085 46.4067C45.2296 46.2968 45.2905 46.1706 45.2905 46.0274V45.4659H42.3941C42.016 45.4659 41.7135 45.4163 41.4881 45.3185C41.2512 45.2297 41.013 45.0643 40.7753 44.8291C40.5484 44.5791 40.386 44.3182 40.2876 44.0452C40.1845 43.7967 40.1314 43.4784 40.1314 43.0974V36.1061H42.3941V42.3464C42.3941 42.8475 42.5946 43.0974 43.0001 43.0974H44.5973C44.7869 43.0974 44.9524 43.034 45.0903 42.9038C45.2235 42.7948 45.2905 42.6649 45.2905 42.5109V36.1061H47.5334V46.4199C47.5208 47.1826 47.3286 47.7941 46.9582 48.2573C46.5815 48.721 46.0679 48.9576 45.4125 48.9692H40.1314V46.602H44.6476Z" fill="white"/>
<path fill-rule="evenodd" clip-rule="evenodd" d="M49.3098 43.0974H53.341C53.7099 43.084 53.9015 42.9338 53.9122 42.6451V42.4328C53.9122 42.3707 53.8943 42.3026 53.8596 42.2288C53.7692 42.0501 53.6587 41.9614 53.5273 41.9614H51.5283C50.9359 41.949 50.4292 41.7413 50.0038 41.3389C49.5737 40.9682 49.3528 40.5111 49.3413 39.975V38.2094C49.364 36.8314 50.0982 36.1304 51.5456 36.1069H56.221V38.4736H52.2605C51.7945 38.4736 51.5607 38.6194 51.5607 38.9087V39.1385C51.5607 39.4387 51.8004 39.5893 52.2771 39.5893H54.2693C54.8001 39.6016 55.2524 39.8087 55.6299 40.2124C56.0112 40.6199 56.2081 41.1031 56.221 41.665V43.3925C56.2081 43.8783 55.9885 44.362 55.5645 44.8457C55.3572 45.0824 55.1462 45.2454 54.9352 45.3382C54.7159 45.423 54.419 45.4653 54.0393 45.4653H49.3098V43.0974Z" fill="white"/>
<path fill-rule="evenodd" clip-rule="evenodd" d="M63.0314 38.9864C63.0411 38.6319 62.8383 38.4628 62.421 38.4736H57.8653V36.1069H62.9962C64.49 36.1304 65.2476 36.8665 65.2713 38.3192V43.2722C65.2597 43.8993 65.0696 44.4152 64.7065 44.8261C64.3267 45.2518 63.8334 45.4653 63.2292 45.4653H60.1267C58.6179 45.4526 57.8523 44.7509 57.8309 43.3546V41.4433C57.8411 39.9851 58.5714 39.2434 60.0213 39.2185H63.0314V38.9864ZM60.0919 42.6288C60.0919 42.7636 60.1529 42.871 60.2756 42.9502C60.3804 43.0472 60.5162 43.0974 60.683 43.0974H62.4232C62.8173 43.0974 63.0193 42.9423 63.0314 42.6288V41.9671C63.0314 41.6063 62.8209 41.4245 62.4049 41.4245H60.683C60.4567 41.4245 60.3017 41.463 60.2148 41.535C60.1347 41.6213 60.0919 41.7898 60.0919 42.0399V42.6288Z" fill="white"/>
<path fill-rule="evenodd" clip-rule="evenodd" d="M67.1103 34.763C67.1248 34.1241 67.3555 33.6108 67.8094 33.2259C68.2488 32.8353 68.8254 32.6348 69.5399 32.6229H70.9767V34.9115H70.1065C69.6281 34.9215 69.3839 35.155 69.3745 35.6059V36.1069H70.9767V38.4767H69.3745V45.4668H67.1103V34.763Z" fill="white"/>
<path fill-rule="evenodd" clip-rule="evenodd" d="M74.6097 42.29V42.4364C74.6097 42.627 74.6578 42.7768 74.7563 42.8858C74.8277 43.0261 74.9232 43.0974 75.0503 43.0974H79.6977V45.4653H74.7563C74.3057 45.4653 73.9542 45.4219 73.706 45.3366C73.4342 45.2454 73.1909 45.0961 72.9781 44.8896C72.7292 44.6388 72.5596 44.384 72.4747 44.1214C72.3816 43.8478 72.3352 43.484 72.3352 43.0317L72.3165 38.2917C72.3415 36.8594 73.0753 36.1304 74.5187 36.1061H77.5671C78.9768 36.1304 79.691 36.8854 79.7133 38.3717V40.2446L74.6097 42.29ZM77.4107 38.9417V38.8868C77.4107 38.7651 77.3628 38.6617 77.2647 38.585C77.1594 38.5104 77.0301 38.4736 76.8755 38.4736H75.3004C75.099 38.4736 74.9359 38.5315 74.8099 38.6501C74.6533 38.7592 74.5736 38.9025 74.5736 39.0806V40.0304L77.4107 38.9417Z" fill="white"/>
<path fill-rule="evenodd" clip-rule="evenodd" d="M15.6092 36.1062H10.0838C9.81763 36.1062 9.54255 36.1687 9.25911 36.2981C8.9855 36.4206 8.76049 36.5672 8.58158 36.7427C8.2381 37.1629 8.06225 37.777 8.05029 38.5844V42.9863C8.06225 43.7953 8.2381 44.4083 8.58158 44.827C8.76049 45.0047 8.9855 45.1526 9.25911 45.2747C9.54255 45.4016 9.81763 45.4659 10.0838 45.4659H15.6092C17.036 45.4527 17.7623 44.6553 17.785 43.0787V38.4933C17.7623 36.9138 17.036 36.1195 15.6092 36.1062Z" fill="#E2011B"/>
<path fill-rule="evenodd" clip-rule="evenodd" d="M9.02198 35.7502C9.1993 35.6702 9.37755 35.6082 9.55433 35.5691C9.88147 33.9809 11.2618 32.7885 12.9178 32.7885C14.574 32.7885 15.9558 33.9824 16.2813 35.5706C16.7902 35.6687 17.2102 35.8789 17.538 36.1898C17.5514 35.8849 17.5396 35.5911 17.5042 35.3144C17.2938 32.9138 15.3187 31.0307 12.9109 31.0307C10.4308 31.0307 8.41299 33.0329 8.30793 35.5364C8.29332 35.7524 8.2892 35.9775 8.2965 36.2128C8.50411 36.0348 8.74226 35.8741 9.02198 35.7502Z" fill="#E2011B"/>
<defs>
<linearGradient id="paint0_linear_829_5533" x1="1.5" y1="1.5" x2="74.6006" y2="110.459" gradientUnits="userSpaceOnUse">
<stop stop-color="#8AC9E8"/>
<stop offset="1" stop-color="#0289CA"/>
</linearGradient>
</defs>
</svg>
