<svg width="120" height="80" viewBox="0 0 120 80" fill="none" xmlns="http://www.w3.org/2000/svg">
<g clip-path="url(#clip0_434_13)">
<path d="M116 0H4C1.79086 0 0 1.79086 0 4V76C0 78.2091 1.79086 80 4 80H116C118.209 80 120 78.2091 120 76V4C120 1.79086 118.209 0 116 0Z" fill="white"/>
<g clip-path="url(#clip1_434_13)">
<path d="M52.0156 53.7825V35.4906C52.0156 32.1249 54.744 29.3965 58.1096 29.3965L63.5104 29.4046C66.8663 29.4113 69.5834 32.1337 69.5834 35.4897V39.3832C69.5834 42.7489 66.8548 45.4773 63.4892 45.4773H55.8576" stroke="#939598" stroke-width="1.12664" stroke-miterlimit="10" stroke-linecap="round" stroke-linejoin="round"/>
<path d="M71.1016 29.394H73.4443C74.8256 29.394 75.9452 30.5137 75.9452 31.895V45.5591" stroke="#939598" stroke-width="1.12664" stroke-miterlimit="10" stroke-linecap="round" stroke-linejoin="round"/>
<path d="M75.4555 27.2771L74.3931 26.2145C74.1294 25.9509 74.1294 25.5235 74.3931 25.2599L75.4548 24.198C75.719 23.934 76.147 23.934 76.4108 24.198L77.4726 25.2599C77.7363 25.5235 77.7363 25.9509 77.4726 26.2145L76.4102 27.2771C76.1466 27.5406 75.7193 27.5406 75.4555 27.2771Z" fill="#32BCAD"/>
<path d="M80.4453 29.3813H82.7687C83.964 29.3813 85.1102 29.8562 85.9552 30.7012L91.3896 36.1356C92.0934 36.8396 93.2348 36.8396 93.9388 36.1356L99.3532 30.7211C100.198 29.8761 101.344 29.4012 102.54 29.4012H104.429" stroke="#939598" stroke-width="1.12664" stroke-miterlimit="10" stroke-linecap="round" stroke-linejoin="round"/>
<path d="M80.4453 45.4404H82.7687C83.964 45.4404 85.1102 44.9656 85.9552 44.1205L91.3896 38.6862C92.0934 37.9822 93.2348 37.9822 93.9388 38.6862L99.3532 44.1006C100.198 44.9457 101.344 45.4205 102.54 45.4205H104.429" stroke="#939598" stroke-width="1.12664" stroke-miterlimit="10" stroke-linecap="round" stroke-linejoin="round"/>
<path d="M38.1721 48.9111C37.0061 48.9111 35.9093 48.4571 35.0847 47.6329L30.6269 43.1749C30.3139 42.8611 29.7684 42.8621 29.4556 43.1749L24.9815 47.6492C24.1569 48.4734 23.0602 48.9274 21.8941 48.9274H21.0156L26.6616 54.5732C28.4248 56.3364 31.2837 56.3364 33.047 54.5732L38.709 48.9111H38.1721Z" fill="#32BCAD"/>
<path d="M21.8939 33.1425C23.0599 33.1425 24.1566 33.5965 24.9812 34.4207L29.4553 38.8956C29.7775 39.218 30.3037 39.2192 30.6267 38.8952L35.0845 34.437C35.9091 33.6129 37.0058 33.1588 38.1718 33.1588H38.7087L33.0469 27.4968C31.2834 25.7335 28.4246 25.7335 26.6614 27.4968L21.0156 33.1425L21.8939 33.1425Z" fill="#32BCAD"/>
<path d="M43.3986 37.8429L39.977 34.4213C39.9017 34.4515 39.8201 34.4703 39.734 34.4703H38.1783C37.374 34.4703 36.5867 34.7966 36.0184 35.3653L31.5607 39.8231C31.1435 40.2403 30.5954 40.449 30.0478 40.449C29.4996 40.449 28.9519 40.2403 28.5348 39.8235L24.0603 35.349C23.492 34.7801 22.7047 34.4541 21.9004 34.4541H19.9875C19.9059 34.4541 19.8297 34.4348 19.7577 34.4077L16.3225 37.8429C14.5592 39.6062 14.5592 42.465 16.3225 44.2283L19.7575 47.6633C19.8297 47.6362 19.9059 47.617 19.9875 47.617H21.9004C22.7047 47.617 23.492 47.2909 24.0603 46.7222L28.5344 42.2481C29.3431 41.4401 30.7528 41.4398 31.5607 42.2485L36.0184 46.7059C36.5867 47.2746 37.374 47.6008 38.1783 47.6008H39.734C39.8201 47.6008 39.9017 47.6196 39.977 47.6498L43.3986 44.2283C45.1618 42.4649 45.1618 39.6062 43.3986 37.8429Z" fill="#32BCAD"/>
<path d="M56.6741 52.2283C56.4216 52.2283 56.1277 52.289 55.837 52.356V53.4707C56.0384 53.5442 56.2683 53.5796 56.4888 53.5796C57.0478 53.5796 57.3128 53.3911 57.3128 52.8987C57.3128 52.4359 57.0957 52.2283 56.6741 52.2283ZM55.6484 54.2983V52.0939H55.8019L55.8179 52.1899C56.0765 52.1292 56.4343 52.0493 56.6899 52.0493C56.8978 52.0493 57.0957 52.081 57.2617 52.2153C57.4536 52.3721 57.5142 52.6242 57.5142 52.8987C57.5142 53.1868 57.4182 53.4581 57.1563 53.6081C56.9743 53.7104 56.7283 53.7519 56.5079 53.7519C56.281 53.7519 56.0639 53.7166 55.837 53.6497V54.2983H55.6484Z" fill="#939598"/>
<path d="M58.9237 52.2217C58.3646 52.2217 58.1154 52.3976 58.1154 52.8895C58.1154 53.3654 58.3614 53.5796 58.9237 53.5796C59.4795 53.5796 59.7287 53.407 59.7287 52.915C59.7287 52.4391 59.4828 52.2217 58.9237 52.2217ZM59.6424 53.5796C59.4571 53.7136 59.208 53.752 58.9237 53.752C58.633 53.752 58.3837 53.7105 58.2017 53.5796C57.9973 53.4359 57.9141 53.1993 57.9141 52.9025C57.9141 52.6083 57.9973 52.369 58.2017 52.2217C58.3837 52.091 58.633 52.0493 58.9237 52.0493C59.2111 52.0493 59.4571 52.091 59.6424 52.2217C59.8502 52.369 59.9299 52.6083 59.9299 52.8989C59.9299 53.1962 59.8469 53.4359 59.6424 53.5796Z" fill="#939598"/>
<path d="M62.2938 53.7071L61.6709 52.3688H61.6579L61.0447 53.7071H60.8754L60.2109 52.0938H60.4186L60.9713 53.4482H60.9841L61.5845 52.0938H61.757L62.3737 53.4482H62.3865L62.9264 52.0938H63.1275L62.4632 53.7071H62.2938Z" fill="#939598"/>
<path d="M64.3203 52.2185C63.8029 52.2185 63.6271 52.4485 63.5951 52.781H65.0455C65.0296 52.4136 64.841 52.2185 64.3203 52.2185ZM64.314 53.7519C64.0039 53.7519 63.8029 53.7073 63.6431 53.573C63.4546 53.41 63.3906 53.1738 63.3906 52.9023C63.3906 52.6435 63.477 52.3689 63.6911 52.2122C63.8699 52.0878 64.0904 52.0493 64.3203 52.0493C64.5281 52.0493 64.7676 52.0716 64.9655 52.206C65.1988 52.3623 65.2437 52.6373 65.2437 52.9501H63.5888C63.5951 53.2822 63.7038 53.5764 64.3298 53.5764C64.627 53.5764 64.9049 53.5284 65.1637 53.4836V53.6528C64.8953 53.701 64.5982 53.7519 64.314 53.7519Z" fill="#939598"/>
<path d="M65.7891 53.7073V52.0939H65.9424L65.9585 52.1899C66.3002 52.1038 66.46 52.0493 66.7603 52.0493H66.7827V52.2283H66.7378C66.4856 52.2283 66.3323 52.2632 65.9778 52.356V53.7073H65.7891Z" fill="#939598"/>
<path d="M67.8672 52.2185C67.3497 52.2185 67.174 52.4485 67.142 52.781H68.5924C68.5765 52.4136 68.3878 52.2185 67.8672 52.2185ZM67.8609 53.7519C67.5508 53.7519 67.3497 53.7073 67.19 53.573C67.0013 53.41 66.9375 53.1738 66.9375 52.9023C66.9375 52.6435 67.0239 52.3689 67.238 52.2122C67.4168 52.0878 67.6372 52.0493 67.8672 52.0493C68.075 52.0493 68.3145 52.0716 68.5124 52.206C68.7457 52.3623 68.7906 52.6373 68.7906 52.9501H67.1357C67.142 53.2822 67.2506 53.5764 67.8766 53.5764C68.1738 53.5764 68.4517 53.5284 68.7106 53.4836V53.6528C68.4422 53.701 68.1451 53.7519 67.8609 53.7519Z" fill="#939598"/>
<path d="M70.8647 52.3295C70.6635 52.2559 70.4335 52.2206 70.2131 52.2206C69.6541 52.2206 69.3887 52.4094 69.3887 52.9012C69.3887 53.3674 69.606 53.5719 70.0276 53.5719C70.2801 53.5719 70.574 53.5111 70.8647 53.4473V52.3295ZM70.8999 53.7062L70.8839 53.6102C70.6251 53.6709 70.2673 53.7509 70.0117 53.7509C69.8043 53.7509 69.606 53.7222 69.4399 53.5848C69.2483 53.4282 69.1875 53.1758 69.1875 52.9012C69.1875 52.6137 69.2834 52.342 69.5452 52.1951C69.7274 52.0898 69.9733 52.0482 70.197 52.0482C70.4207 52.0482 70.638 52.0867 70.8647 52.1505V51.4126H71.0533V53.7062H70.8999Z" fill="#939598"/>
<path d="M73.8148 52.2273C73.5622 52.2273 73.2683 52.2881 72.9776 52.3551V53.4666C73.1822 53.5433 73.4089 53.5787 73.6294 53.5787C74.1884 53.5787 74.4534 53.3901 74.4534 52.8978C74.4534 52.4349 74.2363 52.2273 73.8148 52.2273ZM74.2971 53.6071C74.1149 53.7094 73.869 53.7509 73.6485 53.7509C73.4089 53.7509 73.1694 53.7094 72.9266 53.6295L72.917 53.7063H72.7891V51.4126H72.9776V52.1823C73.2364 52.1251 73.5845 52.0484 73.8305 52.0484C74.0384 52.0484 74.2363 52.08 74.4023 52.2143C74.5942 52.3711 74.6548 52.6232 74.6548 52.8978C74.6548 53.1858 74.5588 53.4572 74.2971 53.6071Z" fill="#939598"/>
<path d="M74.9054 54.3267V54.1513C74.9979 54.1606 75.0844 54.1673 75.1451 54.1673C75.3784 54.1673 75.5187 54.1 75.6497 53.8348L75.7105 53.7071L74.8672 52.0938H75.0845L75.8065 53.4865H75.8192L76.5059 52.0938H76.72L75.8128 53.9053C75.6466 54.2343 75.4677 54.3428 75.1387 54.3428C75.0651 54.3428 74.9854 54.3365 74.9054 54.3267Z" fill="#939598"/>
<path d="M79.3102 52.7867H78.6842V53.3524H79.3133C79.7446 53.3524 79.9076 53.3042 79.9076 53.068C79.9076 52.8153 79.6841 52.7867 79.3102 52.7867ZM79.1953 51.8699H78.6842V52.4448H79.1984C79.6233 52.4448 79.7925 52.3939 79.7925 52.1542C79.7925 51.8989 79.5786 51.8699 79.1953 51.8699ZM80.1664 53.5536C79.9362 53.7005 79.6583 53.7068 79.1505 53.7068H78.1953V51.5186H79.1282C79.5658 51.5186 79.834 51.5248 80.0577 51.6592C80.2176 51.755 80.2813 51.9019 80.2813 52.0936C80.2813 52.3234 80.1856 52.4769 79.9362 52.5792V52.5918C80.2176 52.656 80.3996 52.7997 80.3996 53.1095C80.3996 53.3202 80.3229 53.4576 80.1664 53.5536Z" fill="#939598"/>
<path d="M82.3038 53.0301C82.1152 53.014 81.9237 53.0046 81.7224 53.0046C81.3934 53.0046 81.2782 53.0717 81.2782 53.2216C81.2782 53.3622 81.3741 53.439 81.6264 53.439C81.8373 53.439 82.0896 53.3912 82.3038 53.343V53.0301ZM82.3996 53.7073L82.3868 53.6114C82.1119 53.6787 81.7927 53.752 81.5114 53.752C81.3388 53.752 81.1537 53.7296 81.0225 53.6337C80.9014 53.5476 80.8438 53.407 80.8438 53.2441C80.8438 53.0618 80.9237 52.8926 81.1152 52.8065C81.2845 52.7266 81.5114 52.7203 81.7192 52.7203C81.8884 52.7203 82.1151 52.7297 82.3038 52.7426V52.7137C82.3038 52.4614 82.1376 52.3784 81.6839 52.3784C81.5082 52.3784 81.2942 52.3877 81.0897 52.407V52.0811C81.3165 52.0623 81.5722 52.0493 81.783 52.0493C82.064 52.0493 82.355 52.0718 82.5338 52.1994C82.7188 52.3305 82.7542 52.5127 82.7542 52.752V53.7073L82.3996 53.7073Z" fill="#939598"/>
<path d="M84.8785 53.7073V52.8158C84.8785 52.5222 84.7286 52.4167 84.46 52.4167C84.2621 52.4167 84.013 52.4677 83.802 52.519V53.7073H83.3516V52.0939H83.7189L83.7349 52.1962C84.0191 52.1229 84.3356 52.0493 84.5976 52.0493C84.7955 52.0493 84.9968 52.0779 85.1501 52.2154C85.2778 52.3305 85.3259 52.49 85.3259 52.7202V53.7073H84.8785Z" fill="#939598"/>
<path d="M86.5906 53.7519C86.383 53.7519 86.156 53.7233 85.99 53.5827C85.7919 53.4229 85.7344 53.1706 85.7344 52.8987C85.7344 52.6434 85.8174 52.3654 86.0634 52.209C86.2648 52.0779 86.5138 52.0493 86.7726 52.0493C86.958 52.0493 87.1401 52.0621 87.3412 52.081V52.426C87.1782 52.4104 86.9833 52.3974 86.827 52.3974C86.3987 52.3974 86.1976 52.5318 86.1976 52.9023C86.1976 53.2506 86.3477 53.4006 86.699 53.4006C86.9035 53.4006 87.1433 53.3622 87.3765 53.3175V53.6496C87.124 53.701 86.8493 53.7519 86.5906 53.7519Z" fill="#939598"/>
<path d="M88.7205 52.3877C88.2924 52.3877 88.1039 52.522 88.1039 52.8894C88.1039 53.2569 88.2892 53.4135 88.7205 53.4135C89.1453 53.4135 89.3305 53.2822 89.3305 52.9149C89.3305 52.5475 89.1487 52.3877 88.7205 52.3877ZM89.4936 53.5827C89.2955 53.7166 89.0368 53.7519 88.7205 53.7519C88.3978 53.7519 88.1391 53.7136 87.9443 53.5827C87.7206 53.4358 87.6406 53.193 87.6406 52.9023C87.6406 52.6114 87.7206 52.3654 87.9443 52.2185C88.1391 52.0876 88.3978 52.0493 88.7205 52.0493C89.0401 52.0493 89.2955 52.0876 89.4936 52.2185C89.7172 52.3654 89.7939 52.6114 89.7939 52.8989C89.7939 53.1898 89.714 53.4358 89.4936 53.5827Z" fill="#939598"/>
<path d="M92.3932 53.7522C92.1218 53.7522 91.8279 53.7076 91.6073 53.5254C91.3455 53.308 91.2656 52.9727 91.2656 52.6115C91.2656 52.2892 91.3678 51.9058 91.7096 51.6823C91.9747 51.5099 92.3037 51.4746 92.636 51.4746C92.879 51.4746 93.128 51.4906 93.3997 51.5129V51.9058C93.1664 51.8866 92.879 51.8706 92.6553 51.8706C92.0322 51.8706 91.7672 52.1072 91.7672 52.6115C91.7672 53.1263 92.013 53.3563 92.4732 53.3563C92.7734 53.3563 93.1088 53.2955 93.4475 53.225V53.6147C93.1088 53.6821 92.7541 53.7522 92.3932 53.7522Z" fill="#939598"/>
<path d="M94.7675 52.3368C94.3936 52.3368 94.2497 52.4712 94.221 52.7171H95.3074C95.2944 52.4551 95.1411 52.3368 94.7675 52.3368ZM94.7002 53.752C94.4351 53.752 94.1955 53.7202 94.0166 53.573C93.825 53.4135 93.7578 53.1738 93.7578 52.8989C93.7578 52.6529 93.8378 52.3783 94.0615 52.2185C94.2594 52.078 94.5119 52.0493 94.7675 52.0493C94.9974 52.0493 95.269 52.0748 95.4669 52.2122C95.7259 52.3944 95.7481 52.6756 95.7512 53.0077H94.218C94.2274 53.2538 94.3584 53.4135 94.8121 53.4135C95.0932 53.4135 95.4062 53.372 95.6715 53.3305V53.6467C95.3616 53.6979 95.0229 53.752 94.7002 53.752Z" fill="#939598"/>
<path d="M97.7379 53.7073V52.8158C97.7379 52.5222 97.5879 52.4167 97.3194 52.4167C97.1214 52.4167 96.8723 52.4677 96.6614 52.519V53.7073H96.2109V52.0939H96.5783L96.5943 52.1962C96.8785 52.1229 97.1949 52.0493 97.4569 52.0493C97.6548 52.0493 97.8562 52.0779 98.0095 52.2154C98.1372 52.3305 98.1853 52.49 98.1853 52.7202V53.7073H97.7379Z" fill="#939598"/>
<path d="M99.4758 53.7518C99.2587 53.7518 99.0605 53.6911 98.952 53.5219C98.8721 53.4068 98.8336 53.2505 98.8336 53.0331V52.4292H98.5078V52.0939H98.8336L98.8817 51.605H99.281V52.0939H99.9166V52.4292H99.281V52.9469C99.281 53.0715 99.2905 53.1768 99.3256 53.2536C99.3735 53.3622 99.4789 53.4036 99.6195 53.4036C99.7249 53.4036 99.8528 53.3876 99.9421 53.3719V53.6943C99.7952 53.7233 99.6258 53.7518 99.4758 53.7518Z" fill="#939598"/>
<path d="M100.367 53.7073V52.0939H100.735L100.751 52.1962C101.048 52.1131 101.268 52.0493 101.549 52.0493C101.562 52.0493 101.581 52.0493 101.607 52.0523V52.4359C101.556 52.4328 101.495 52.4328 101.45 52.4328C101.23 52.4328 101.064 52.4582 100.818 52.5159V53.7073L100.367 53.7073Z" fill="#939598"/>
<path d="M103.249 53.0301C103.061 53.014 102.869 53.0046 102.668 53.0046C102.339 53.0046 102.223 53.0717 102.223 53.2216C102.223 53.3622 102.319 53.439 102.572 53.439C102.783 53.439 103.035 53.3912 103.249 53.343V53.0301ZM103.345 53.7073L103.332 53.6114C103.057 53.6787 102.738 53.752 102.457 53.752C102.284 53.752 102.099 53.7296 101.968 53.6337C101.847 53.5476 101.789 53.407 101.789 53.2441C101.789 53.0618 101.869 52.8926 102.061 52.8065C102.23 52.7266 102.457 52.7203 102.665 52.7203C102.834 52.7203 103.061 52.7297 103.249 52.7426V52.7137C103.249 52.4614 103.083 52.3784 102.629 52.3784C102.454 52.3784 102.239 52.3877 102.035 52.407V52.0811C102.262 52.0623 102.518 52.0493 102.728 52.0493C103.009 52.0493 103.3 52.0718 103.479 52.1994C103.664 52.3305 103.7 52.5127 103.7 52.752V53.7073L103.345 53.7073Z" fill="#939598"/>
<path d="M104.266 51.4126H104.716V53.7062H104.266V51.4126Z" fill="#939598"/>
</g>
</g>
<defs>
<clipPath id="clip0_434_13">
<rect width="120" height="80" fill="white"/>
</clipPath>
<clipPath id="clip1_434_13">
<rect width="90" height="31.8958" fill="white" transform="translate(15 24)"/>
</clipPath>
</defs>
</svg>
