<svg width="120" height="80" viewBox="0 0 120 80" fill="none" xmlns="http://www.w3.org/2000/svg">
<rect width="120" height="80" rx="4" fill="white"/>
<path d="M24.9073 34.056C27.6277 34.0564 29.8601 36.3824 29.8601 39.3971C29.8601 42.4109 27.6277 44.7369 24.9073 44.7369C23.4252 44.7369 22.3494 44.1915 21.6186 43.2609V48.5H19V34.3397H21.6186V35.5328C22.3494 34.6021 23.4252 34.056 24.9073 34.056ZM80.8268 34.056C83.5471 34.0564 85.7801 36.3824 85.7801 39.3971C85.7801 42.4109 83.5471 44.7369 80.8268 44.7369C79.3456 44.7369 78.2697 44.1915 77.5385 43.2609V48.5H74.9199V34.3397H77.5385V35.5328C78.2697 34.6021 79.3456 34.056 80.8268 34.056ZM101.304 34.3531L103.943 41.1375L106.197 34.3531H109L105.304 44.4508C104.248 47.3587 102.522 48.6306 99.9425 48.4894V46.0654C101.384 46.0854 102.116 45.4795 102.603 44.126L98.4399 34.3531H101.304ZM36.1201 34.0556C39.1052 34.0556 41.5002 36.3733 41.5002 39.3762C41.5002 42.3792 39.1057 44.696 36.1201 44.696C33.135 44.696 30.7602 42.3783 30.7602 39.3762C30.7602 36.3733 33.1355 34.0556 36.1201 34.0556ZM69.8425 34.0556C71.4862 34.0556 72.9067 34.8015 73.6973 36.1916L71.4661 37.4003C71.1608 36.7561 70.5929 36.3725 69.8425 36.3725C69.193 36.3725 68.6658 36.6549 68.6658 37.1989C68.6653 38.6919 73.8999 37.7652 73.8999 41.4725C73.8999 43.6485 71.9929 44.696 69.8216 44.696C67.7926 44.696 66.2918 43.8499 65.5597 42.299L67.8332 41.0292C68.118 41.8552 68.8077 42.336 69.822 42.336C70.6537 42.336 71.2219 42.054 71.2219 41.4699C71.2219 39.9996 65.9873 40.8056 65.9873 37.2595C65.9873 35.2043 67.7524 34.0556 69.8425 34.0556ZM91.6122 34.0558C93.0938 34.0558 94.1901 34.6203 94.9209 35.527V34.3387L97.54 34.3374V44.4137H94.9209V43.225C94.1901 44.1321 93.0938 44.6958 91.6122 44.6958C88.9127 44.6958 86.6803 42.3785 86.6803 39.376C86.6803 36.374 88.9127 34.0558 91.6122 34.0558ZM62.1956 31.5V34.3164H64.4787V36.8119H62.1929V40.9961C62.1929 42.082 62.9827 42.102 64.48 42.0218V44.3761C60.8166 44.778 59.5813 43.7118 59.5813 40.9948V36.8119H57.8201V34.3164H59.5844V32.2846L62.1956 31.5ZM45.5802 34.3533V44.3987H42.9402V34.3533H45.5802ZM53.0831 34.0559C55.2353 34.0554 56.92 35.5445 56.92 38.2209V44.3985H54.3014V38.5426C54.3014 37.1743 53.4693 36.4699 52.2921 36.4699C51.0132 36.4699 50.0587 37.2148 50.0587 38.9654V44.3985H47.4401V34.337H50.0587V35.4643C50.6676 34.5589 51.7234 34.0559 53.0831 34.0559ZM24.4198 36.545C22.8163 36.545 21.6186 37.6979 21.6186 39.3971C21.6186 41.0962 22.8159 42.2492 24.4198 42.2492C26.0438 42.2492 27.2415 41.0962 27.2415 39.3971C27.2415 37.6979 26.0443 36.545 24.4198 36.545ZM80.3397 36.545C78.7362 36.545 77.5385 37.6979 77.5385 39.3971C77.5385 41.0962 78.7358 42.2492 80.3397 42.2492C81.9637 42.2492 83.1614 41.0962 83.1614 39.3971C83.1614 37.6979 81.9646 36.545 80.3397 36.545ZM92.0992 36.5339C90.4957 36.5339 89.298 37.6825 89.298 39.3756C89.298 41.0686 90.4953 42.2172 92.0992 42.2172C93.7245 42.2172 94.9209 41.0686 94.9209 39.3756C94.9209 37.6825 93.7245 36.5339 92.0992 36.5339ZM36.1201 36.5947C34.5769 36.5947 33.3792 37.7438 33.3792 39.3762C33.3792 41.0087 34.5765 42.1568 36.1201 42.1568C37.6834 42.1568 38.8811 41.0087 38.8811 39.3762C38.8811 37.7438 37.6839 36.5947 36.1201 36.5947Z" fill="#192451"/>
<path d="M17 39.5C17 37.7124 15.7226 36.5 13.9893 36.5C12.2779 36.5 11 37.7124 11 39.5C11 41.2876 12.2774 42.5 13.9893 42.5C15.7226 42.5 17 41.2876 17 39.5Z" fill="#A78FFF"/>
</svg>
