<svg width="120" height="80" viewBox="0 0 120 80" fill="none" xmlns="http://www.w3.org/2000/svg">
<rect width="120" height="80" rx="4" fill="#FFCC00"/>
<path d="M61.2349 38.2953C62.2869 38.2953 63.1123 37.9929 63.7233 37.3755C64.3345 36.7581 64.6495 35.9329 64.6747 34.8871C64.6495 33.8413 64.3345 33.0097 63.7233 32.3985C63.1123 31.7875 62.2807 31.4787 61.2349 31.4787H56.8123V38.2953H61.2349ZM65.4811 28.9083C66.5205 29.5509 67.3143 30.4077 67.8751 31.4661C68.4295 32.5245 68.7129 33.6649 68.7129 34.8933C68.7129 36.1219 68.4357 37.2559 67.8751 38.3205C67.3207 39.3789 66.5205 40.2357 65.4811 40.8783C64.4415 41.5209 63.2257 41.8485 61.8271 41.8485H56.8123V49.7489H52.8495V27.9381H61.8271C63.2257 27.9381 64.4415 28.2594 65.4811 28.902V28.9083Z" fill="#004B5A"/>
<path d="M74.509 45.1435C75.1642 46.1263 76.2478 46.6177 77.7535 46.6177C79.0639 46.6177 80.0845 46.1893 80.8153 45.3387C81.5461 44.4883 81.9115 43.4047 81.9115 42.0943V40.8469C81.9115 39.5365 81.5209 38.5033 80.7334 37.7473C79.9459 36.9913 78.9505 36.6195 77.7535 36.6195C76.8337 36.6195 76.0588 36.8653 75.4288 37.3567C74.7988 37.8481 74.32 38.4781 74.005 39.2403C73.69 40.0027 73.5325 40.7901 73.5325 41.6029C73.5325 42.9763 73.8601 44.1607 74.5153 45.1435H74.509ZM73.1167 48.8669C71.9449 48.0289 71.0817 46.9579 70.5085 45.6537C69.9415 44.3559 69.6579 43.0015 69.6579 41.6091C69.6579 40.2169 69.9415 38.7679 70.5085 37.4827C71.0755 36.1911 71.9449 35.1517 73.1167 34.3515C74.2822 33.5515 75.7249 33.1545 77.4259 33.1545C78.2134 33.1545 78.9379 33.2805 79.6057 33.5325C80.2735 33.7845 80.8153 34.1121 81.2248 34.5153C81.6343 34.9185 81.9052 35.3281 82.0123 35.7439L82.2769 33.5451H85.5844V46.0003C85.5844 46.3089 85.6915 46.5609 85.8994 46.7689C86.1073 46.9767 86.4601 47.0713 86.9641 47.0461V49.8307L86.1136 49.9315C85.0237 49.9945 84.0787 49.7615 83.2786 49.2259C82.4785 48.6905 82.0627 48.0289 82.0186 47.2413V47.2099C81.7792 47.9975 81.2185 48.6779 80.3302 49.2575C79.4482 49.8371 78.478 50.1269 77.4322 50.1269C75.7249 50.1269 74.2885 49.7047 73.123 48.8669H73.1167Z" fill="#004B5A"/>
<path d="M91.9474 33.5451L95.8786 45.1497L99.4192 33.5451H103.716L96.5024 53.0123C96.0866 54.1021 95.5888 54.9275 95.0092 55.4881C94.4296 56.0425 93.7934 56.4079 93.094 56.5843C92.3947 56.7607 91.5505 56.8237 90.5677 56.7797L89.5849 56.7481V53.4029L90.3409 53.4343C91.2166 53.4785 91.8907 53.3273 92.3758 52.9933C92.8609 52.6595 93.2642 51.9601 93.5854 50.9143L93.913 49.8307L87.7831 33.5388H91.9474V33.5451Z" fill="#004B5A"/>
<path d="M45.7115 34.1689C45.2705 34.1373 44.8359 34.1373 44.3949 34.1373C40.1865 34.1373 36.4821 35.0445 33.4832 36.8149C35.9969 33.4947 37.2569 29.1288 37.1813 24.0195V23.2068H27.6305L27.6431 24.1455C27.7061 27.6168 26.8871 30.2124 25.2302 31.8126C23.063 33.8791 19.5539 34.1877 16.9772 34.0681L16.2842 34.0303V43.5243L16.6622 43.5495C17.1032 43.5811 17.5378 43.5811 17.9788 43.5811C22.1873 43.5811 25.8917 42.6739 28.8905 40.9035C26.3768 44.2237 25.1168 48.5895 25.1924 53.6989V54.5117H34.7432L34.7306 53.5729C34.6676 50.1017 35.4866 47.5059 37.1435 45.9057C39.3107 43.8393 42.8199 43.5307 45.3965 43.6503L46.0895 43.6881V34.1941L45.7115 34.1689Z" fill="#004B5A"/>
</svg>
