<svg width="120" height="80" viewBox="0 0 120 80" fill="none" xmlns="http://www.w3.org/2000/svg">
<rect width="120" height="80" rx="4" fill="#FCD202"/>
<path fill-rule="evenodd" clip-rule="evenodd" d="M93.9993 0C91.7905 0 89.582 1.73685 88.9986 3.86404C88.9986 3.86404 79 53 27 80H116.003C118.21 80 120 78.2169 120 76.0054V3.99458C120 1.78844 118.213 0 116.001 0H93.9993Z" fill="#FFDB28"/>
<path d="M28 29H13C10.7909 29 9 30.7909 9 33V46C9 48.2091 10.7909 50 13 50H28C30.2091 50 32 48.2091 32 46V33C32 30.7909 30.2091 29 28 29Z" fill="#D9B23D"/>
<path fill-rule="evenodd" clip-rule="evenodd" d="M60.0361 21.7708L60.6693 18.7355H8.99365L8.35986 21.7708H60.0361Z" fill="white"/>
<path fill-rule="evenodd" clip-rule="evenodd" d="M66.2603 14.5986C66.2603 14.5986 66.9532 11.3829 66.9628 11.3527H62.5595C62.5595 11.373 61.6491 15.6202 61.6491 15.6403H62.7774C62.787 15.6403 63.4699 12.4346 63.4699 12.4346H65.607C65.607 12.4346 64.9342 15.6502 64.9145 15.6705H68.17L67.7446 17.6537H64.5084C64.5084 17.6739 63.8555 20.6791 63.8555 20.6791H61.4116C61.4116 20.6889 61.1937 21.7608 61.1841 21.7708H64.7855C64.7855 21.7608 65.4292 18.7355 65.4292 18.7355H68.6651C68.6651 18.7255 69.5162 14.6184 69.5162 14.5986H66.2603Z" fill="#ED1C24"/>
<path fill-rule="evenodd" clip-rule="evenodd" d="M58.2922 15.5503C58.7572 15.5503 59.074 15.8707 59.074 16.4017C59.074 16.4916 59.064 16.5718 59.0544 16.6619H57.0454C57.2533 15.991 57.6982 15.5503 58.2922 15.5503ZM59.2915 19.5373L59.5491 18.3451C59.1137 18.4951 58.6879 18.6151 58.144 18.6151C57.5104 18.6151 56.9565 18.3951 56.9269 17.6236H60.1923C60.3109 17.2327 60.3801 16.8424 60.3801 16.4818C60.3801 15.3797 59.7469 14.4779 58.3911 14.4779C56.6296 14.4779 55.5611 15.941 55.5611 17.5538C55.5611 18.9359 56.4714 19.7476 57.8865 19.7476C58.4604 19.7476 58.9154 19.6571 59.2915 19.5373ZM53.9185 18.5252C53.2753 18.5252 52.8399 18.2448 52.8399 17.4335C52.8399 16.4818 53.4335 15.6903 54.3739 15.6903C54.6707 15.6903 55.0072 15.7804 55.3436 15.9109L55.5811 14.7688C55.195 14.6287 54.7396 14.5284 54.2846 14.5284C52.731 14.5284 51.4048 15.7003 51.4048 17.5038C51.4048 18.9862 52.3056 19.6871 53.6017 19.6871C54.0371 19.6871 54.4031 19.6071 54.6707 19.4971L54.9278 18.3248C54.6311 18.4351 54.3042 18.5252 53.9185 18.5252ZM47.0809 19.5971L47.6251 17.0626C47.8427 16.041 48.3377 15.6903 48.8522 15.6903C49.5152 15.6903 49.5944 16.1915 49.4655 16.7622L48.8718 19.5971H50.287L50.9102 16.6921C51.217 15.2396 50.5541 14.4779 49.5152 14.4779C48.941 14.4779 48.3871 14.7085 47.912 15.2195L48.0405 14.6287H46.7246L45.6657 19.5971H47.0809ZM41.9948 18.1647C41.9948 17.6641 42.4301 17.3831 43.1522 17.3831C43.2911 17.3831 43.5973 17.3935 43.8748 17.4335L43.8153 17.714C43.6467 18.3046 43.1723 18.7058 42.6085 18.7058C42.2024 18.7058 41.9948 18.5054 41.9948 18.1647ZM43.3604 14.5081C42.7072 14.5081 42.0442 14.6585 41.8266 14.7286L41.5891 15.8807C41.9052 15.7908 42.5288 15.6201 43.0832 15.6201C43.8251 15.6201 44.0924 15.8506 44.0924 16.2414C44.0924 16.3112 44.0924 16.3917 44.0728 16.4715L44.0528 16.5718C43.6966 16.5318 43.3604 16.502 43.2016 16.502C41.7968 16.502 40.669 17.0526 40.669 18.3551C40.669 19.2064 41.3218 19.7174 42.1727 19.7174C42.7765 19.7174 43.2911 19.477 43.6273 19.0763L43.5184 19.5971H44.7751L45.3888 16.7524C45.4381 16.5416 45.4577 16.3216 45.4577 16.1113C45.4577 15.2595 44.993 14.5081 43.3604 14.5081ZM36.5028 19.5971L37.0469 17.0626C37.2648 16.041 37.7591 15.6903 38.2743 15.6903C38.9374 15.6903 39.0163 16.1915 38.888 16.7622L38.2939 19.5971H39.7089L40.3319 16.6921C40.6389 15.2396 39.9761 14.4779 38.9374 14.4779C38.3626 14.4779 37.8085 14.7085 37.3338 15.2195L37.4623 14.6287H36.1464L35.0875 19.5971H36.5028ZM33.9697 13.2561C33.9396 13.7067 34.2665 14.0574 34.7017 14.0574C35.1866 14.0574 35.533 13.7067 35.5623 13.2561C35.5922 12.8054 35.2657 12.4547 34.8302 12.4547C34.3456 12.4547 33.9992 12.8054 33.9697 13.2561ZM33.7714 14.6287L32.7127 19.5971H34.118L35.1769 14.6287H33.7714ZM29.7734 19.5971L30.3275 17.0026H32.4654L32.7229 15.7304H30.595L30.9219 14.1376H33.1681L33.4451 12.8652H29.7345L28.3292 19.5971H29.7734ZM28.3784 15.7205L28.6061 14.6287H27.0924L27.3889 13.2463L25.9144 13.5766L24.9941 17.8238C24.7372 19.0263 25.3899 19.6871 26.5773 19.6871C26.8251 19.6871 27.2403 19.6373 27.5376 19.5373L27.7751 18.4451C27.5376 18.5054 27.2403 18.5653 26.9835 18.5653C26.5773 18.5653 26.2904 18.4252 26.3897 17.9241L26.8549 15.7205H28.3784ZM23.0151 18.1345C23.0151 18.5355 22.5305 18.6054 22.1248 18.6054C21.61 18.6054 21.0363 18.4654 20.7299 18.3649L20.4919 19.4868C20.9374 19.5971 21.5014 19.6871 22.0356 19.6871C23.302 19.6871 24.3315 19.2064 24.3315 18.0044C24.3315 16.4517 22.491 16.7222 22.491 16.0312C22.491 15.7205 22.7878 15.6102 23.2526 15.6102C23.6977 15.6102 24.3219 15.7908 24.5293 15.8506L24.7668 14.7189C24.3414 14.5985 23.8367 14.5284 23.3813 14.5284C22.0061 14.5284 21.175 15.1497 21.175 16.1814C21.175 17.6937 23.0151 17.4435 23.0151 18.1345ZM17.6915 19.7476C19.2453 19.7476 20.2941 18.6054 20.5316 17.1129C20.7791 15.6201 19.9579 14.4779 18.404 14.4779C16.8506 14.4779 15.8016 15.6201 15.5641 17.1129C15.3168 18.6054 16.1381 19.7476 17.6915 19.7476ZM17.8206 18.5955C17.2563 18.5955 16.8111 18.1447 17.0186 17.1129C17.2263 16.0812 17.7213 15.6305 18.2853 15.6305C18.8495 15.6305 19.2948 16.091 19.0769 17.1129C18.869 18.1345 18.3844 18.5955 17.8206 18.5955ZM11.8533 17.5434H12.4769C14.4659 17.5434 15.5743 16.552 15.5743 14.8989C15.5743 13.6667 14.7127 12.8652 13.2385 12.8652H11.3985L9.99316 19.5971H11.418L11.8533 17.5434ZM12.1007 16.3112L12.5658 14.0976H13.1595C13.8127 14.0976 14.129 14.3682 14.129 14.9992C14.129 15.8106 13.6246 16.3112 12.6948 16.3112H12.1007Z" fill="#231F20"/>
</svg>
