<svg width="120" height="80" viewBox="0 0 120 80" fill="none" xmlns="http://www.w3.org/2000/svg">
<rect width="120" height="80" rx="4" fill="#FCD202"/>
<path fill-rule="evenodd" clip-rule="evenodd" d="M92.8216 39.0672L93.8067 34.4364H13.4161L12.4302 39.0672H92.8216Z" fill="white"/>
<path fill-rule="evenodd" clip-rule="evenodd" d="M90.1084 29.577C90.8318 29.577 91.3247 30.0658 91.3247 30.8759C91.3247 31.0131 91.3091 31.1354 91.2942 31.2729H88.1688C88.4922 30.2494 89.1844 29.577 90.1084 29.577ZM91.663 35.6597L92.0637 33.8408C91.3864 34.0696 90.724 34.2528 89.8779 34.2528C88.8922 34.2528 88.0305 33.9171 87.9844 32.74H93.0644C93.2488 32.1437 93.3566 31.5482 93.3566 30.9982C93.3566 29.3167 92.3715 27.9409 90.2623 27.9409C87.522 27.9409 85.8596 30.1731 85.8596 32.6335C85.8596 34.7421 87.2759 35.9805 89.4773 35.9805C90.3701 35.9805 91.0779 35.8424 91.663 35.6597ZM83.3044 34.1156C82.3037 34.1156 81.6264 33.6878 81.6264 32.45C81.6264 30.9982 82.5498 29.7905 84.0128 29.7905C84.4745 29.7905 84.9979 29.928 85.5213 30.1271L85.8908 28.3847C85.2901 28.171 84.5817 28.0179 83.8739 28.0179C81.4569 28.0179 79.3939 29.8058 79.3939 32.5573C79.3939 34.8189 80.7952 35.8882 82.8115 35.8882C83.4888 35.8882 84.0583 35.7662 84.4745 35.5984L84.8745 33.8098C84.4128 33.9781 83.9044 34.1156 83.3044 34.1156ZM72.6672 35.7509L73.5139 31.8842C73.8523 30.3255 74.6225 29.7905 75.4227 29.7905C76.4543 29.7905 76.5775 30.5551 76.377 31.4259L75.4533 35.7509H77.6549L78.6244 31.3189C79.1017 29.103 78.0705 27.9409 76.4543 27.9409C75.561 27.9409 74.6993 28.2927 73.9601 29.0722L74.16 28.171H72.1129L70.4657 35.7509H72.6672ZM64.7549 33.5655C64.7549 32.8018 65.432 32.3732 66.5554 32.3732C66.7716 32.3732 67.248 32.389 67.6796 32.45L67.587 32.878C67.3248 33.779 66.5867 34.3911 65.7096 34.3911C65.0779 34.3911 64.7549 34.0854 64.7549 33.5655ZM66.8794 27.9869C65.8632 27.9869 64.8317 28.2165 64.4932 28.3234L64.1238 30.0811C64.6156 29.9438 65.5857 29.6835 66.4482 29.6835C67.6023 29.6835 68.0181 30.035 68.0181 30.6313C68.0181 30.7379 68.0181 30.8606 67.9876 30.9823L67.9564 31.1354C67.4024 31.0744 66.8794 31.0289 66.6322 31.0289C64.4469 31.0289 62.6924 31.8689 62.6924 33.8561C62.6924 35.1549 63.708 35.9345 65.0316 35.9345C65.9709 35.9345 66.7716 35.5677 67.2946 34.9564L67.1251 35.7509H69.0801L70.0348 31.4109C70.1116 31.0894 70.1421 30.7536 70.1421 30.4328C70.1421 29.1333 69.4191 27.9869 66.8794 27.9869ZM56.2112 35.7509L57.0576 31.8842C57.3966 30.3255 58.1656 29.7905 58.967 29.7905C59.9985 29.7905 60.1214 30.5551 59.9217 31.4259L58.9975 35.7509H61.1987L62.168 31.3189C62.6455 29.103 61.6145 27.9409 59.9985 27.9409C59.1044 27.9409 58.2424 28.2927 57.5038 29.0722L57.7038 28.171H55.6566L54.0094 35.7509H56.2112ZM52.2705 26.0768C52.2236 26.7643 52.7321 27.2994 53.4093 27.2994C54.1635 27.2994 54.7024 26.7643 54.748 26.0768C54.7946 25.3893 54.2867 24.8542 53.6092 24.8542C52.8552 24.8542 52.3163 25.3893 52.2705 26.0768ZM51.962 28.171L50.315 35.7509H52.5012L54.1484 28.171H51.962ZM45.7424 35.7509L46.6044 31.7927H49.9302L50.3309 29.8518H47.0205L47.529 27.4216H51.0234L51.4543 25.4805H45.6818L43.4956 35.7509H45.7424ZM43.5722 29.8366L43.9265 28.171H41.5716L42.0329 26.0618L39.7389 26.5658L38.3073 33.0455C37.9077 34.8801 38.923 35.8882 40.7702 35.8882C41.1558 35.8882 41.8017 35.8122 42.2642 35.6597L42.6336 33.9933C42.2642 34.0854 41.8017 34.1768 41.4021 34.1768C40.7702 34.1768 40.324 33.9631 40.4784 33.1985L41.2021 29.8366H43.5722ZM35.2286 33.5196C35.2286 34.1313 34.4747 34.2379 33.8436 34.2379C33.0427 34.2379 32.1503 34.0244 31.6736 33.871L31.3034 35.5827C31.9964 35.7509 32.8738 35.8882 33.7048 35.8882C35.6749 35.8882 37.2766 35.1549 37.2766 33.321C37.2766 30.9521 34.4133 31.3649 34.4133 30.3106C34.4133 29.8366 34.8751 29.6683 35.5981 29.6683C36.2906 29.6683 37.2615 29.9438 37.5843 30.035L37.9537 28.3085C37.292 28.1249 36.5067 28.0179 35.7983 28.0179C33.659 28.0179 32.3661 28.9657 32.3661 30.5399C32.3661 32.847 35.2286 32.4653 35.2286 33.5196ZM26.9469 35.9805C29.364 35.9805 30.9956 34.2379 31.365 31.9609C31.7501 29.6835 30.4726 27.9409 28.0552 27.9409C25.6386 27.9409 24.0067 29.6835 23.6373 31.9609C23.2525 34.2379 24.5303 35.9805 26.9469 35.9805ZM27.1476 34.2229C26.2697 34.2229 25.5772 33.535 25.9 31.9609C26.2231 30.3869 26.9932 29.6993 27.8706 29.6993C28.7482 29.6993 29.441 30.4018 29.1021 31.9609C28.7787 33.5196 28.0247 34.2229 27.1476 34.2229ZM17.8645 32.6177H18.8346C21.9288 32.6177 23.6532 31.1052 23.6532 28.5832C23.6532 26.7033 22.3128 25.4805 20.0194 25.4805H17.1569L14.9707 35.7509H17.1874L17.8645 32.6177ZM18.2493 30.7379L18.9728 27.3606H19.8966C20.9127 27.3606 21.4048 27.7734 21.4048 28.7362C21.4048 29.9741 20.6201 30.7379 19.1736 30.7379H18.2493Z" fill="#231F20"/>
<path fill-rule="evenodd" clip-rule="evenodd" d="M53.8465 49.2982H49.0924L48.6901 51.182H53.0542L52.7189 52.7226H48.3549L47.8673 55.0036H52.8408L52.4995 56.5984H45.6914L47.5991 47.7274H54.1878L53.8465 49.2982ZM54.2122 52.3495H57.7108L57.3572 53.9744H53.8587L54.2122 52.3495ZM60.0208 47.7395H66.39L66.0548 49.2982H61.5506L61.1118 51.3384H65.0552L64.7261 52.8791H60.7826L59.9842 56.5984H58.1191L60.0208 47.7395ZM68.9682 49.2561H67.2068L67.5481 47.6733H69.3095L68.9682 49.2561ZM67.0361 50.0385H68.7976L67.3896 56.5984H65.6282L67.0361 50.0385ZM76.0445 52.181L75.0937 56.5984H73.314L74.1673 52.6083C74.2445 52.2632 74.2546 51.9984 74.1977 51.8139C74.1002 51.4768 73.8117 51.3083 73.3322 51.3083C72.7431 51.3083 72.2859 51.5551 71.9609 52.0486C71.7902 52.3094 71.6622 52.6424 71.5769 53.0476L70.815 56.5984H69.084L70.492 50.0505H72.1681L71.9609 51.0074C72.2575 50.6704 72.5216 50.4277 72.7532 50.2792C73.1677 50.0144 73.6492 49.882 74.1977 49.882C74.8844 49.882 75.4076 50.0595 75.7672 50.4146C76.1268 50.7697 76.2192 51.3585 76.0445 52.181ZM81.0424 53.4087C80.9205 53.4769 80.7986 53.5321 80.6767 53.5742C80.5548 53.6164 80.3923 53.6555 80.1891 53.6916L79.7868 53.7638C79.4049 53.828 79.1245 53.9062 78.9457 53.9985C78.6451 54.155 78.4602 54.3977 78.3911 54.7267C78.3261 55.0196 78.3616 55.2313 78.4978 55.3617C78.6339 55.4921 78.8198 55.5573 79.0555 55.5573C79.4293 55.5573 79.797 55.4489 80.1586 55.2323C80.5203 55.0156 80.7702 54.6204 80.9083 54.0467L81.0424 53.4087ZM80.1586 52.6083C80.4918 52.5682 80.7336 52.518 80.8839 52.4578C81.1521 52.3535 81.3106 52.191 81.3594 51.9703C81.4162 51.7015 81.3614 51.516 81.1948 51.4137C81.0282 51.3113 80.762 51.2602 80.3963 51.2602C79.9859 51.2602 79.6731 51.3605 79.4577 51.5611C79.3074 51.7096 79.1834 51.9102 79.0859 52.1629H77.4098C77.5723 51.5892 77.8364 51.1178 78.2021 50.7486C78.7873 50.1709 79.6385 49.882 80.756 49.882C81.4833 49.882 82.0989 50.0244 82.6027 50.3093C83.1066 50.5942 83.2732 51.1318 83.1025 51.9222L82.4504 54.9314C82.4057 55.14 82.3569 55.3928 82.3041 55.6897C82.2675 55.9143 82.2685 56.0668 82.3071 56.1471C82.3457 56.2273 82.4158 56.2935 82.5174 56.3457L82.4687 56.5984H80.5792C80.5548 56.466 80.5447 56.3416 80.5487 56.2253C80.5528 56.1089 80.565 55.9765 80.5853 55.8281C80.2887 56.0849 79.9656 56.3035 79.6162 56.4841C79.1936 56.6967 78.7466 56.8031 78.2753 56.8031C77.6739 56.8031 77.2137 56.6335 76.8948 56.2945C76.5758 55.9555 76.4834 55.475 76.6174 54.8531C76.7922 54.0467 77.233 53.4629 77.9401 53.1018C78.3261 52.9052 78.8645 52.7648 79.5552 52.6805L80.1586 52.6083ZM90.6116 52.181L89.6608 56.5984H87.881L88.7343 52.6083C88.8115 52.2632 88.8217 51.9984 88.7648 51.8139C88.6673 51.4768 88.3788 51.3083 87.8993 51.3083C87.3101 51.3083 86.853 51.5551 86.5279 52.0486C86.3573 52.3094 86.2293 52.6424 86.1439 53.0476L85.3821 56.5984H83.6511L85.059 50.0505H86.7352L86.5279 51.0074C86.8245 50.6704 87.0887 50.4277 87.3203 50.2792C87.7347 50.0144 88.2162 49.882 88.7648 49.882C89.4515 49.882 89.9746 50.0595 90.3343 50.4146C90.6939 50.7697 90.7863 51.3585 90.6116 52.181ZM96.1336 52.3916C96.154 52.1469 96.1174 51.9262 96.0239 51.7296C95.8858 51.4648 95.6115 51.3324 95.2011 51.3324C94.616 51.3324 94.1548 51.6193 93.8175 52.193C93.6388 52.498 93.4945 52.9032 93.3848 53.4087C93.2832 53.8902 93.2568 54.2774 93.3056 54.5703C93.395 55.1159 93.7261 55.3887 94.299 55.3887C94.7054 55.3887 95.0172 55.2804 95.2346 55.0638C95.452 54.8471 95.6156 54.5662 95.7253 54.2212H97.4989C97.3486 54.7428 97.052 55.2363 96.6091 55.7017C95.902 56.452 95.0142 56.8271 93.9455 56.8271C92.8769 56.8271 92.1587 56.5142 91.791 55.8883C91.4232 55.2624 91.347 54.4499 91.5624 53.4509C91.8021 52.3234 92.2684 51.4468 92.9612 50.8209C93.654 50.1949 94.49 49.882 95.4693 49.882C96.3023 49.882 96.9443 50.0666 97.3953 50.4357C97.8463 50.8048 98.019 51.4568 97.9134 52.3916H96.1336ZM100.321 52.6625H103.021C103.09 52.2091 103.024 51.865 102.823 51.6303C102.622 51.3956 102.336 51.2782 101.967 51.2782C101.564 51.2782 101.226 51.4026 100.952 51.6514C100.677 51.9001 100.467 52.2372 100.321 52.6625ZM104.587 51.1398C104.766 51.529 104.837 51.9804 104.801 52.4939C104.784 52.7949 104.711 53.2282 104.581 53.7939H100.034C99.9166 54.4519 100.026 54.9133 100.364 55.1781C100.567 55.3426 100.837 55.4249 101.174 55.4249C101.532 55.4249 101.845 55.3246 102.113 55.1239C102.255 55.0156 102.395 54.8652 102.533 54.6726H104.307C104.177 55.0618 103.886 55.457 103.435 55.8582C102.728 56.4961 101.863 56.8151 100.839 56.8151C99.9938 56.8151 99.3061 56.5463 98.7758 56.0086C98.2456 55.471 98.1105 54.5963 98.3705 53.3847C98.6143 52.2492 99.0928 51.3786 99.8059 50.7727C100.519 50.1669 101.341 49.8639 102.271 49.8639C102.824 49.8639 103.3 49.9663 103.701 50.1709C104.101 50.3755 104.396 50.6985 104.587 51.1398Z" fill="black"/>
<path fill-rule="evenodd" clip-rule="evenodd" d="M102.504 28.125C102.504 28.125 103.582 23.2189 103.597 23.1729H96.7471C96.7471 23.2039 95.3308 29.6835 95.3308 29.7143H97.0861C97.101 29.7143 98.1634 24.8234 98.1634 24.8234H101.488C101.488 24.8234 100.441 29.7293 100.411 29.7603H105.475L104.814 32.786H99.7789C99.7789 32.8168 98.7634 37.4016 98.7634 37.4016H94.9613C94.9613 37.4166 94.6223 39.0519 94.6074 39.0672H100.21C100.21 39.0519 101.211 34.4364 101.211 34.4364H106.245C106.245 34.4211 107.569 28.1552 107.569 28.125H102.504Z" fill="#ED1C24"/>
</svg>
