<svg width="120" height="80" viewBox="0 0 120 80" fill="none" xmlns="http://www.w3.org/2000/svg">
<rect width="120" height="80" rx="4" fill="white"/>
<path fill-rule="evenodd" clip-rule="evenodd" d="M10.1387 33.6905H14.8483C17.6471 33.6905 19.3875 35.3667 19.3875 37.9089V37.9446C19.3875 40.7751 17.2375 42.2534 14.6098 42.2534H12.2375V46.3089H10.1387V33.6905ZM14.6778 40.252C16.2646 40.252 17.2543 39.3147 17.2543 37.9987V37.9624C17.2543 36.4848 16.2477 35.7097 14.6778 35.7097H12.2375V40.252H14.6778Z" fill="#DCA126"/>
<path fill-rule="evenodd" clip-rule="evenodd" d="M34.4555 33.6905H36.7254L39.5748 43.0463L42.5098 33.6542H44.2845L47.22 43.0463L50.07 33.6905H52.2712L48.1242 46.3993H46.2983L43.3634 37.3318L40.4278 46.3993H38.6194L34.4555 33.6905Z" fill="#DCA126"/>
<path fill-rule="evenodd" clip-rule="evenodd" d="M54.4212 33.6905H63.2778V35.6734H56.52V38.9538H62.5098V40.9368H56.52V44.326H63.3628V46.3089H54.4212V33.6905Z" fill="#DCA126"/>
<path fill-rule="evenodd" clip-rule="evenodd" d="M65.8543 33.6905H71.1784C72.6802 33.6905 73.8573 34.1595 74.6254 34.9524C75.2567 35.6371 75.6152 36.5751 75.6152 37.6748V37.7104C75.6152 39.7837 74.4375 41.0278 72.782 41.5324L76.0079 46.3089H73.5164L70.5808 41.911H67.9531V46.3089H65.8543V33.6905ZM71.0248 39.9459C72.5266 39.9459 73.482 39.1168 73.482 37.837V37.8008C73.482 36.4491 72.5604 35.7097 71.0079 35.7097H67.9531V39.9459H71.0248Z" fill="#DCA126"/>
<path fill-rule="evenodd" clip-rule="evenodd" d="M31.1881 34.8499L30.0501 36.4708C30.8736 37.2968 31.5561 38.6789 31.5561 40V40.0357C31.5561 42.4876 29.6435 44.6576 27.2712 44.6576C24.8995 44.6576 22.9573 42.4519 22.9573 40V39.9644C22.9573 38.6401 23.5363 37.3744 24.3537 36.5573L23.3339 34.8703C21.8839 36.0737 21.0086 37.9382 21.0086 40V40.0357C21.0086 43.5872 23.5682 46.5259 27.2375 46.5259C30.9061 46.5259 33.5001 43.5509 33.5001 40V39.9644C33.5001 37.8994 32.6339 36.0431 31.1881 34.8499Z" fill="#DCA126"/>
<path fill-rule="evenodd" clip-rule="evenodd" d="M28.1911 39.2447C28.1911 39.7913 27.7718 40.2348 27.2537 40.2348C26.7369 40.2348 26.317 39.7913 26.317 39.2447V34.4637C26.317 33.917 26.7369 33.4741 27.2537 33.4741C27.7718 33.4741 28.1911 33.917 28.1911 34.4637V39.2447Z" fill="#DCA126"/>
<path fill-rule="evenodd" clip-rule="evenodd" d="M23.3339 34.8703C23.6754 34.5095 24.2272 34.6558 24.6212 35.072C25.0152 35.4882 24.6959 36.1965 24.3537 36.5573C24.0122 36.9181 23.7628 36.7807 23.3688 36.3645C22.9748 35.9483 22.9923 35.2311 23.3339 34.8703Z" fill="#DCA126"/>
<path fill-rule="evenodd" clip-rule="evenodd" d="M31.1881 34.8499C30.8465 34.4891 30.273 34.6565 29.879 35.0727C29.4845 35.4888 29.7079 36.1093 30.0501 36.4708C30.3917 36.8322 30.7369 36.7813 31.1308 36.3638C31.5248 35.9489 31.5296 35.2101 31.1881 34.8499Z" fill="#DCA126"/>
<path fill-rule="evenodd" clip-rule="evenodd" d="M77.6621 33.5645H82.3711C85.1687 33.5645 86.9091 35.2407 86.9091 37.7817V37.8179C86.9091 40.6472 84.7597 42.1248 82.132 42.1248H79.7609V46.1798H77.6621V33.5645ZM82.2001 40.1241C83.7868 40.1241 84.7766 39.1874 84.7766 37.8714V37.8358C84.7766 36.3581 83.7699 35.583 82.2001 35.583H79.7609V40.1241H82.2001Z" fill="#467BA8"/>
<path fill-rule="evenodd" clip-rule="evenodd" d="M92.0976 33.4741H94.0428L99.297 46.1798H97.0796L95.8681 43.1341H90.2211L88.9928 46.1798H86.8434L92.0976 33.4741ZM95.1007 41.1697L93.0362 36.1233L90.9886 41.1697H95.1007Z" fill="#467BA8"/>
<path fill-rule="evenodd" clip-rule="evenodd" d="M103.002 41.2059L98.2597 33.5645H100.75L104.077 39.1333L107.455 33.5645H109.861L105.118 41.1518V46.1798H103.002V41.2059Z" fill="#467BA8"/>
</svg>
