<svg width="120" height="80" viewBox="0 0 120 80" fill="none" xmlns="http://www.w3.org/2000/svg">
<rect width="120" height="80" rx="4" fill="white"/>
<path fill-rule="evenodd" clip-rule="evenodd" d="M85.9684 43.4246L88.1234 43.4296L88.2534 42.5946C88.2534 42.5946 88.4834 41.0846 88.9984 40.7946C89.1634 40.6996 89.4284 40.6146 89.7334 40.5596C90.2984 40.4596 91.0134 40.4496 91.5984 40.4696C92.4934 40.4996 92.8334 40.5096 93.7434 40.6146C94.6534 40.7196 94.4234 41.5996 94.4234 41.5996L94.2434 42.9146C94.2434 42.9146 94.1634 43.5046 93.9534 43.8696C93.7684 44.1946 93.2584 44.4146 92.9634 44.5096C92.2534 44.7396 89.8234 45.3596 89.8234 45.3596L87.9134 45.9096C87.9134 45.9096 86.7384 46.2496 86.0834 46.9746C85.4234 47.7046 85.1634 48.5296 85.0734 48.9596C84.9834 49.3896 84.4784 52.3646 84.4784 52.3646L94.7884 52.3696L95.1334 50.3096L86.9784 50.3196L87.1234 49.4796C87.1234 49.4796 87.2184 48.6146 87.5684 48.3296C87.6784 48.2396 87.7334 48.1196 88.3834 47.8896C88.7734 47.7496 90.1034 47.3946 90.1034 47.3946L93.1784 46.5546C93.1784 46.5546 94.8584 46.1246 95.5184 45.2046C96.1784 44.2896 96.4334 42.5346 96.4334 42.5346C96.4334 42.5346 96.6134 40.8296 96.4734 40.2946C96.3384 39.7596 95.8334 39.1196 95.2184 38.8446C94.6034 38.5696 93.9634 38.4096 92.1084 38.4346C90.2534 38.4596 89.3334 38.5446 88.3934 38.8946C87.4534 39.2396 86.9084 39.8696 86.5634 40.7596C86.1884 41.6046 85.9684 43.4246 85.9684 43.4246Z" fill="#B3B2B1"/>
<path fill-rule="evenodd" clip-rule="evenodd" d="M105.378 47.2546L106.823 38.5946H104.263L96.2934 47.1546L95.9333 49.3246H102.903L102.393 52.3646L104.533 52.3696L105.038 49.3246L107.013 49.3296L107.368 47.2546H105.378ZM103.248 47.2596L98.7434 47.2546L104.228 41.4096L103.248 47.2596Z" fill="#B3B2B1"/>
<path fill-rule="evenodd" clip-rule="evenodd" d="M28.4434 39.7346H35.0084C35.0084 39.7346 36.4784 38.5446 37.5234 37.7796C38.5684 37.0146 40.4684 35.8096 40.4684 35.8096L36.7584 34.0746C36.7584 34.0746 33.6234 36.0146 32.2934 36.9296C31.0034 37.7746 28.4434 39.7346 28.4434 39.7346Z" fill="#B3B2B1"/>
<path fill-rule="evenodd" clip-rule="evenodd" d="M42.5533 34.5846L39.5083 32.5346C39.5083 32.5346 42.2633 30.9696 45.9283 29.5096C49.5883 28.0496 51.5434 27.4396 51.5434 27.4396L52.1633 30.3446C52.1633 30.3446 48.6384 31.5246 46.6184 32.4796C44.5284 33.3696 42.5533 34.5846 42.5533 34.5846Z" fill="#B3B2B1"/>
<path fill-rule="evenodd" clip-rule="evenodd" d="M54.4133 29.7096L53.8834 26.7346C53.8834 26.7346 57.6434 25.7346 61.0834 25.0946C64.5284 24.4546 69.0933 24.1496 69.0933 24.1496L67.5833 28.7446C67.5833 28.7446 63.5683 28.1946 59.7983 28.7096C56.8633 29.0596 54.4133 29.7096 54.4133 29.7096Z" fill="#B3B2B1"/>
<path fill-rule="evenodd" clip-rule="evenodd" d="M69.9733 29.1346L72.5133 24.0296C72.5133 24.0296 78.0783 23.9196 82.8783 24.6646C87.6783 25.4046 92.0683 26.5446 91.9733 26.5946L79.8033 32.9596C79.8033 32.9596 76.9583 31.1596 73.4283 30.0546C71.4283 29.4646 69.9733 29.1346 69.9733 29.1346Z" fill="#B3B2B1"/>
<path fill-rule="evenodd" clip-rule="evenodd" d="M81.9833 34.3446L84.6583 36.3746H106.643C106.643 36.3746 106.598 35.6646 106.013 34.6546C105.648 34.0246 104.983 33.3546 104.288 32.6596C104.033 32.4096 103.023 31.6196 102.263 31.1246C100.323 29.8646 99.2384 29.3796 97.2234 28.4646L81.9833 34.3446Z" fill="#B3B2B1"/>
<path fill-rule="evenodd" clip-rule="evenodd" d="M32.4778 42.4396L40.2978 42.4296L40.0128 44.2096L33.4728 50.4546L38.9628 50.4446L38.6428 52.3646L30.5578 52.3696L30.8978 50.3846L37.1678 44.3796H32.1628L32.4778 42.4396Z" fill="#D13239"/>
<path fill-rule="evenodd" clip-rule="evenodd" d="M23.9228 39.3946C23.7528 39.2146 23.5078 39.0746 23.2378 38.9646C22.9528 38.8546 22.6378 38.7746 22.3278 38.7196C21.9378 38.6496 21.5578 38.6196 21.2878 38.6096C21.0378 38.5996 20.8778 38.5996 20.8778 38.5996H14.9128L12.6328 52.3696H14.7628L15.6028 47.2696L19.7328 47.2896C19.7328 47.2896 21.3428 47.3546 22.4828 46.7496C23.6228 46.1446 23.9278 44.7696 23.9278 44.7696C23.9278 44.7696 24.0528 44.2596 24.1578 43.6396C24.2728 42.9546 24.3878 42.1346 24.4478 41.6996C24.4728 41.5096 24.4878 41.3896 24.4878 41.3896C24.4878 41.3896 24.5178 41.2496 24.5178 41.0296C24.5228 40.7246 24.4778 40.2646 24.2378 39.8246C24.1528 39.6696 24.0528 39.5296 23.9228 39.3946ZM22.2828 41.8246C22.2828 41.8496 22.0928 42.9546 21.8428 44.2646C21.7478 44.7646 21.3628 45.0346 20.9228 45.1296C20.1928 45.2846 19.4078 45.2546 19.4078 45.2546L15.9578 45.2446L16.7178 40.6696L19.8428 40.6796C19.8428 40.6796 20.0528 40.6746 20.3478 40.6796C20.6828 40.6846 21.1278 40.6996 21.4928 40.7496C21.8078 40.7896 22.0578 40.8546 22.1378 40.9546C22.2428 41.0846 22.2828 41.2546 22.2978 41.4046C22.3178 41.6246 22.2828 41.8096 22.2828 41.8246Z" fill="#D13239"/>
<path fill-rule="evenodd" clip-rule="evenodd" d="M50.9028 38.5996H52.9528L50.6578 52.3696L48.6028 52.3646L50.9028 38.5996Z" fill="#D13239"/>
<path fill-rule="evenodd" clip-rule="evenodd" d="M61.8428 42.4396L63.8078 42.4346L64.5028 49.4246L67.5278 42.4246L69.9528 42.4296L70.6678 49.4496L73.6878 42.4346H75.7278L71.3978 52.3596H68.9778L68.2778 45.4096L65.2228 52.3596L62.8428 52.3696L61.8428 42.4396Z" fill="#D13239"/>
<path d="M47.1178 42.5196C46.5428 42.3346 45.5478 42.2946 44.7028 42.3046C43.8878 42.3146 43.5128 42.3546 43.2078 42.4196C43.2078 42.4196 41.7578 42.6296 40.9328 43.6496C40.1078 44.6696 39.8628 46.8996 39.8628 46.8996C39.8628 46.8996 39.3728 49.3646 39.5178 50.1896C39.6628 51.0096 39.9178 51.7746 40.8478 52.1296C41.7778 52.4896 42.5678 52.4696 42.5678 52.4696C42.5678 52.4696 44.2278 52.5996 45.4778 52.3046C46.7278 52.0096 47.3878 51.1296 47.3878 51.1296C47.3878 51.1296 47.6828 50.7496 47.8928 50.2996C48.1028 49.8496 48.1678 49.5346 48.1778 49.4946L48.3078 48.9596L46.1828 48.9646C46.1828 48.9646 46.0678 50.3696 44.9178 50.4996C43.7728 50.6296 43.1578 50.5796 42.9328 50.5696C42.7128 50.5596 41.4828 50.6146 41.5828 49.5846C41.5828 49.5696 41.5828 49.5496 41.5878 49.5196C41.6428 48.3496 41.7728 48.0446 41.7728 48.0446L48.4478 48.0246L48.7328 46.3746C49.0628 44.5046 48.8278 43.0796 47.1178 42.5196ZM46.6728 46.1396L42.0978 46.1346L42.2778 45.4096C42.2778 45.4096 42.4378 44.8396 42.7528 44.5996C43.0728 44.3596 43.4778 44.3146 43.8578 44.2796C44.2378 44.2446 45.2528 44.1696 46.0778 44.3396C46.3528 44.3946 46.6128 44.5496 46.6828 44.7796C46.8428 45.3196 46.6728 46.1396 46.6728 46.1396Z" fill="#D13239"/>
<path d="M41.5978 49.5396C41.5978 49.5546 41.5928 49.5696 41.5928 49.5846C41.5878 49.6646 41.5978 49.5346 41.5978 49.5396Z" fill="#D13239"/>
<path d="M54.1879 49.5446C54.1879 49.5596 54.1829 49.5746 54.1829 49.5896C54.1829 49.6696 54.1879 49.5396 54.1879 49.5446Z" fill="#D13239"/>
<path d="M59.7128 42.5246C59.1378 42.3396 58.1428 42.2996 57.2978 42.3096C56.4828 42.3196 56.1078 42.3596 55.8028 42.4246C55.8028 42.4246 54.3528 42.6346 53.5278 43.6546C52.7028 44.6746 52.4578 46.9046 52.4578 46.9046C52.4578 46.9046 51.9678 49.3696 52.1128 50.1946C52.2578 51.0146 52.5128 51.7796 53.4428 52.1346C54.3728 52.4946 55.1628 52.4746 55.1628 52.4746C55.1628 52.4746 56.8228 52.6046 58.0728 52.3096C59.3228 52.0146 59.9828 51.1346 59.9828 51.1346C59.9828 51.1346 60.2778 50.7546 60.4878 50.3046C60.6978 49.8546 60.7628 49.5396 60.7728 49.4996L60.9028 48.9646L58.7778 48.9696C58.7778 48.9696 58.6628 50.3746 57.5128 50.5046C56.3678 50.6346 55.7528 50.5846 55.5278 50.5796C55.3078 50.5696 54.0778 50.6196 54.1778 49.5946C54.1778 49.5796 54.1778 49.5596 54.1828 49.5296C54.2378 48.3596 54.3678 48.0546 54.3678 48.0546L61.0428 48.0346L61.3278 46.3846C61.6578 44.5096 61.4228 43.0796 59.7128 42.5246ZM59.2478 46.1396L54.6728 46.1346L54.8528 45.4096C54.8528 45.4096 55.0128 44.8396 55.3278 44.5996C55.6428 44.3596 56.0528 44.3146 56.4328 44.2796C56.8128 44.2446 57.8278 44.1696 58.6528 44.3396C58.9278 44.3946 59.1878 44.5496 59.2578 44.7796C59.4178 45.3146 59.2478 46.1396 59.2478 46.1396Z" fill="#D13239"/>
<path fill-rule="evenodd" clip-rule="evenodd" d="M78.0878 42.4396L79.4028 49.6996L83.1178 42.4346L85.2078 42.4546L79.8528 52.8296C79.8528 52.8296 78.8828 54.7096 78.2828 55.1846C77.6828 55.6596 77.3128 55.8746 76.8228 55.9246C76.3328 55.9746 76.1328 56.0096 75.6628 55.9246L75.1628 55.8346L75.4728 53.9796C75.4728 53.9796 76.3028 54.1346 76.7928 53.9396C77.2878 53.7446 77.6828 52.9046 77.6828 52.9046L77.9328 52.4846L75.9978 42.4346L78.0878 42.4396Z" fill="#D13239"/>
<path d="M29.8678 42.4296C29.0428 42.4296 28.2628 42.7546 27.5978 43.1196L27.7128 42.4296H25.5278L23.7778 52.3146H25.9678L26.9378 46.8396C27.1378 45.7296 27.9678 44.3546 29.5878 44.3546L30.7178 44.3496L31.0578 42.4296H29.8678Z" fill="#D13239"/>
</svg>
