<?xml version="1.0" encoding="UTF-8"?>
<svg version="1.1" xmlns="http://www.w3.org/2000/svg" width="116" height="76">
<path d="M0 0 C38.28 0 76.56 0 116 0 C116 25.08 116 50.16 116 76 C77.72 76 39.44 76 0 76 C0 50.92 0 25.84 0 0 Z " fill="#EDF8FD" transform="translate(0,0)"/>
<path d="M0 0 C-1.32 5.28 -2.64 10.56 -4 16 C-7.3 16 -10.6 16 -14 16 C-14 14.35 -14 12.7 -14 11 C-13.195625 10.773125 -12.39125 10.54625 -11.5625 10.3125 C-10.716875 9.879375 -9.87125 9.44625 -9 9 C-8.7834375 7.824375 -8.7834375 7.824375 -8.5625 6.625 C-8 4 -8 4 -5.0625 1.6875 C-2 0 -2 0 0 0 Z " fill="#54A3F8" transform="translate(24,43)"/>
<path d="M0 0 C2.97 0 5.94 0 9 0 C10.08416595 3.9029974 9.92020735 5.49844542 8 9 C8 10.32 8 11.64 8 13 C7.01 13 6.02 13 5 13 C4.896875 12.360625 4.79375 11.72125 4.6875 11.0625 C4.460625 10.381875 4.23375 9.70125 4 9 C3.01 8.67 2.02 8.34 1 8 C0.67 9.65 0.34 11.3 0 13 C-0.99 13 -1.98 13 -3 13 C-2.68817931 11.58318366 -2.37551263 10.16655349 -2.0625 8.75 C-1.88847656 7.96109375 -1.71445312 7.1721875 -1.53515625 6.359375 C-1.0527843 4.23271327 -0.52889301 2.11557202 0 0 Z " fill="#183560" transform="translate(26,46)"/>
<path d="M0 0 C6.15234375 -0.09765625 6.15234375 -0.09765625 8 0 C9 1 9 1 9.25 3.375 C9 6 9 6 7.75 7.8125 C6 9 6 9 2 9 C1.34 10.32 0.68 11.64 0 13 C-0.99 13 -1.98 13 -3 13 C-2.68817931 11.58318366 -2.37551263 10.16655349 -2.0625 8.75 C-1.88847656 7.96109375 -1.71445313 7.1721875 -1.53515625 6.359375 C-1.052444 4.23121297 -0.53836822 2.11467158 0 0 Z " fill="#0E2D59" transform="translate(76,50)"/>
<path d="M0 0 C-0.66 2.97 -1.32 5.94 -2 9 C-8.15234375 9.09765625 -8.15234375 9.09765625 -10 9 C-11 8 -11 8 -11.25 5.625 C-11 3 -11 3 -10 1.1875 C-6.76011038 -0.73618446 -3.7174181 -0.18282384 0 0 Z " fill="#14325E" transform="translate(97,50)"/>
<path d="M0 0 C0.90991047 2.97788882 1.25960381 4.43497994 -0.0625 7.3125 C-2 9 -2 9 -5.125 9.3125 C-8 9 -8 9 -9 8 C-9.29178308 5.22806071 -9.36366316 3.58590175 -7.875 1.1875 C-5.22464043 -0.49106106 -3.06753576 -0.20450238 0 0 Z " fill="#16345F" transform="translate(65,50)"/>
<path d="M0 0 C0.66 0 1.32 0 2 0 C2.66 0.99 3.32 1.98 4 3 C4.66 2.01 5.32 1.02 6 0 C6.99 0.33 7.98 0.66 9 1 C7.74151422 3.0087944 6.46948954 5.00629298 5.1875 7 C4.12595703 8.670625 4.12595703 8.670625 3.04296875 10.375 C2.36878906 11.24125 1.69460937 12.1075 1 13 C0.01 13 -0.98 13 -2 13 C-1.34 8.71 -0.68 4.42 0 0 Z " fill="#234069" transform="translate(99,50)"/>
<path d="M0 0 C2.64 0 5.28 0 8 0 C6.63016497 3.16115776 6.0109362 3.9927092 3 6 C3.99 6.33 4.98 6.66 6 7 C6 7.66 6 8.32 6 9 C3.36 9 0.72 9 -2 9 C-0.84826645 6.53199953 0.04783565 4.95216435 2 3 C1.34 2.67 0.68 2.34 0 2 C0 1.34 0 0.68 0 0 Z " fill="#1B3863" transform="translate(48,50)"/>
<path d="M0 0 C-0.33 1.65 -0.66 3.3 -1 5 C-1.66 5 -2.32 5 -3 5 C-3 4.01 -3 3.02 -3 2 C-4.32 2 -5.64 2 -7 2 C-7.33 3.65 -7.66 5.3 -8 7 C-7.01 7.33 -6.02 7.66 -5 8 C-6.65 8.33 -8.3 8.66 -10 9 C-10.88910615 6.09019806 -11.22167778 4.54680518 -10.0625 1.6875 C-6.83426664 -0.95378184 -4.08676931 -0.26798487 0 0 Z " fill="#193661" transform="translate(46,50)"/>
<path d="M0 0 C1.60031344 3.20062687 0.03173691 5.72271806 -1 9 C-2.98 9 -4.96 9 -7 9 C-7 7.35 -7 5.7 -7 4 C-4.69 2.68 -2.38 1.36 0 0 Z " fill="#12305C" transform="translate(17,50)"/>
<path d="M0 0 C6.15234375 -0.09765625 6.15234375 -0.09765625 8 0 C9 1 9 1 9.0625 3.5625 C9.041875 4.366875 9.02125 5.17125 9 6 C8.01 6 7.02 6 6 6 C4.66018514 6.3062434 3.32488113 6.63451555 2 7 C2.33 5.35 2.66 3.7 3 2 C2.01 2 1.02 2 0 2 C0 1.34 0 0.68 0 0 Z " fill="#1F3C66" transform="translate(76,50)"/>
<path d="M0 0 C1.65 0 3.3 0 5 0 C5.33 3.63 5.66 7.26 6 11 C5.01 11 4.02 11 3 11 C2.67 8.69 2.34 6.38 2 4 C1.34 4 0.68 4 0 4 C0 2.68 0 1.36 0 0 Z " fill="#203D66" transform="translate(28,48)"/>
<path d="M0 0 C-0.33 2.31 -0.66 4.62 -1 7 C-1.66 6.34 -2.32 5.68 -3 5 C-3.66 5.66 -4.32 6.32 -5 7 C-5.99 7 -6.98 7 -8 7 C-7.6875 4.625 -7.6875 4.625 -7 2 C-4 0 -4 0 0 0 Z " fill="#27436C" transform="translate(97,50)"/>
<path d="M0 0 C0.99 0 1.98 0 3 0 C3 2.31 3 4.62 3 7 C1.00045254 7.04254356 -1.00041636 7.04080783 -3 7 C-4 6 -4 6 -4.0625 3.4375 C-4.041875 2.633125 -4.02125 1.82875 -4 1 C-3.67 1.99 -3.34 2.98 -3 4 C-2.34 4 -1.68 4 -1 4 C-0.67 2.68 -0.34 1.36 0 0 Z " fill="#223E67" transform="translate(60,52)"/>
<path d="M0 0 C1.32 0 2.64 0 4 0 C4 0.99 4 1.98 4 3 C4.66 3 5.32 3 6 3 C5.67 4.32 5.34 5.64 5 7 C2.83125748 6.49396008 1.00032373 6.00016187 -1 5 C-0.67 3.35 -0.34 1.7 0 0 Z " fill="#314D73" transform="translate(39,52)"/>
<path d="M0 0 C2.31 0 4.62 0 7 0 C7 0.66 7 1.32 7 2 C6.071875 2.3403125 6.071875 2.3403125 5.125 2.6875 C2.38589791 4.37929835 1.94975528 5.99244161 1 9 C0.34 9 -0.32 9 -1 9 C-0.67 6.03 -0.34 3.06 0 0 Z " fill="#1D3A64" transform="translate(68,50)"/>
<path d="M0 0 C2.31 0 4.62 0 7 0 C7.33 0.66 7.66 1.32 8 2 C8.99 2.66 9.98 3.32 11 4 C9.35 5.32 7.7 6.64 6 8 C5.06576355 4.98968256 4.95550089 4.13349732 6 1 C4.02 1 2.04 1 0 1 C0 0.67 0 0.34 0 0 Z " fill="#D5E3EC" transform="translate(40,49)"/>
<path d="M0 0 C0.103125 0.639375 0.20625 1.27875 0.3125 1.9375 C0.539375 2.618125 0.76625 3.29875 1 4 C1.99 4.33 2.98 4.66 4 5 C2.35 5.33 0.7 5.66 -1 6 C-1.33 4.35 -1.66 2.7 -2 1 C-1.34 0.67 -0.68 0.34 0 0 Z " fill="#203C66" transform="translate(37,53)"/>
<path d="M0 0 C1.65 0 3.3 0 5 0 C4.67 1.32 4.34 2.64 4 4 C2.68 4 1.36 4 0 4 C0 2.68 0 1.36 0 0 Z " fill="#C0CFDC" transform="translate(28,48)"/>
<path d="M0 0 C0.33 0.66 0.66 1.32 1 2 C1.66 2 2.32 2 3 2 C2.67 3.65 2.34 5.3 2 7 C1.01 7 0.02 7 -1 7 C-0.67 4.69 -0.34 2.38 0 0 Z " fill="#314D73" transform="translate(74,56)"/>
<path d="M0 0 C0.33 0.66 0.66 1.32 1 2 C1.66 2 2.32 2 3 2 C2.67 3.65 2.34 5.3 2 7 C1.01 7 0.02 7 -1 7 C-0.67 4.69 -0.34 2.38 0 0 Z " fill="#2F4A71" transform="translate(24,52)"/>
<path d="M0 0 C0 1.65 0 3.3 0 5 C-2.97 4.505 -2.97 4.505 -6 4 C-2.25 0 -2.25 0 0 0 Z " fill="#E1EDF4" transform="translate(56,53)"/>
<path d="M0 0 C0.99 0 1.98 0 3 0 C2.67 1.65 2.34 3.3 2 5 C1.01 5 0.02 5 -1 5 C-0.67 3.35 -0.34 1.7 0 0 Z " fill="#DEEAF2" transform="translate(90,52)"/>
<path d="M0 0 C0.99 0 1.98 0 3 0 C2.67 1.65 2.34 3.3 2 5 C1.01 5 0.02 5 -1 5 C-0.67 3.35 -0.34 1.7 0 0 Z " fill="#DFEBF3" transform="translate(79,52)"/>
<path d="M0 0 C0.99 0 1.98 0 3 0 C2.67 1.65 2.34 3.3 2 5 C1.01 5 0.02 5 -1 5 C-0.67 3.35 -0.34 1.7 0 0 Z " fill="#E0ECF3" transform="translate(60,52)"/>
<path d="M0 0 C0.99 0 1.98 0 3 0 C2.67 1.65 2.34 3.3 2 5 C1.01 5 0.02 5 -1 5 C-0.67 3.35 -0.34 1.7 0 0 Z " fill="#DBE7F0" transform="translate(39,52)"/>
</svg>
