<svg width="120" height="80" viewBox="0 0 120 80" fill="none" xmlns="http://www.w3.org/2000/svg">
<rect width="120" height="80" rx="4" fill="white"/>
<path fill-rule="evenodd" clip-rule="evenodd" d="M36.6881 33.52C34.7442 33.52 32.8502 34.2161 31.6535 36.7539L31.7528 34.2161H25.821L23.2793 51.88H29.4102L30.4566 44.7159C31.0554 40.5861 33.1485 39.1919 34.9433 39.1919C35.9398 39.1919 36.6881 39.5898 37.0371 39.7896L39.4793 34.4652C39.0806 34.117 37.9346 33.52 36.6881 33.52Z" fill="#153D8A"/>
<path fill-rule="evenodd" clip-rule="evenodd" d="M69.9211 51.88H76.6807L71.4548 42.3697C74.7156 40.6191 77.1122 37.7797 78.3589 35.0829H71.983C70.5441 37.591 67.907 40.0045 65.1744 41.4236L67.2366 27.04H61.3877L57.8389 51.88H63.6888L64.9832 42.89L69.9211 51.88Z" fill="#DC0C23"/>
<path fill-rule="evenodd" clip-rule="evenodd" d="M49.2217 34.6C42.64 34.6 38.3989 39.1051 38.3989 44.9669C38.3989 49.3752 41.3235 52.96 47.4179 52.96C51.1714 52.96 53.8527 51.7499 55.7064 50.3452L52.9267 47.0021C52.2447 47.583 50.8311 48.5517 48.4901 48.5517C46.2961 48.5517 44.7366 47.1468 44.4923 44.8701H56.3396C58.1922 36.732 53.5609 34.6 49.2217 34.6ZM50.9767 42.0125H44.7366C45.2727 39.8806 46.7349 38.3299 48.6371 38.3299C51.1229 38.3299 51.1714 40.3166 50.9767 42.0125Z" fill="#153D8A"/>
<path fill-rule="evenodd" clip-rule="evenodd" d="M89.052 34.6C85.5525 34.6 82.3933 35.7137 80.4496 37.7972L83.4136 40.8008C84.8229 39.3479 86.3789 38.6209 88.1285 38.6209C90.3158 38.6209 90.8987 39.8806 90.8016 41.964H88.5662C81.8589 41.964 78.3594 44.0946 78.3594 48.2133C78.3594 50.8294 80.6435 52.96 83.6572 52.96C86.7192 52.96 88.4689 51.6531 89.4894 50.5384V52.4758H95.1278L96.5854 42.4485C97.3635 37.0217 94.7388 34.6 89.052 34.6ZM86.4273 49.182C84.9696 49.182 84.3855 48.455 84.3855 47.3413C84.3855 45.0646 87.1567 44.8219 90.3642 44.8219C89.7813 47.2446 88.5662 49.182 86.4273 49.182Z" fill="#DC0C23"/>
</svg>
