<svg width="120" height="80" viewBox="0 0 120 80" fill="none" xmlns="http://www.w3.org/2000/svg">
<rect width="120" height="80" rx="4" fill="white"/>
<path fill-rule="evenodd" clip-rule="evenodd" d="M43.7377 51.5057L40.6711 44.0938H37.9622L42.4774 54.5535L40.1631 60.1783H42.7408L49.3063 44.0938H46.6348L43.7377 51.5057Z" fill="black"/>
<path fill-rule="evenodd" clip-rule="evenodd" d="M30.8682 43.8679C32.3165 43.8679 33.6147 44.4702 34.4047 45.4108V44.0939H36.9444V55.0991H34.4047V53.6696C33.5959 54.685 32.279 55.3247 30.8305 55.3247C28.1779 55.3247 25.4127 53.199 25.4127 49.6059C25.4127 45.9564 28.0839 43.8679 30.8682 43.8679ZM31.2442 46.1822C29.363 46.1822 27.9147 47.6685 27.9147 49.5685C27.9147 51.487 29.363 52.9919 31.2442 52.9919C33.1253 52.9919 34.5365 51.4682 34.5365 49.5685C34.5365 47.7059 33.1253 46.1822 31.2442 46.1822Z" fill="black"/>
<path fill-rule="evenodd" clip-rule="evenodd" d="M19.7856 41.3663C22.6262 41.3663 24.7334 43.5483 24.7334 46.2572C24.7334 48.9852 22.6262 51.1674 19.7668 51.1674H17.6411V55.0989H15.0825V41.3663H19.7856ZM19.5977 43.7363H17.6411V48.7969H19.5977C21.1214 48.7969 22.156 47.6683 22.156 46.2572C22.156 44.8652 21.1214 43.7363 19.5977 43.7363Z" fill="black"/>
<path fill-rule="evenodd" clip-rule="evenodd" d="M100.391 25.8619V27.7348H101.708V29.6002C101.71 29.7631 101.703 29.9428 101.677 30.0876C101.619 30.4311 101.295 31.0199 100.364 31.0199C99.4354 31.0199 99.1105 30.4311 99.0502 30.0876C99.0259 29.9428 99.0205 29.7631 99.0205 29.6005V23.728C99.0205 23.5188 99.0358 23.2894 99.0727 23.1202C99.1438 22.8031 99.4183 22.188 100.353 22.188C101.334 22.188 101.579 22.8371 101.637 23.1202C101.676 23.3051 101.677 23.6096 101.677 23.6096V24.3293H104.916V23.9014C104.915 23.9014 104.928 23.4648 104.888 23.0557C104.65 20.6471 102.657 19.8819 100.379 19.8819C98.0998 19.8819 96.1558 20.6545 95.8693 23.0557C95.8429 23.2702 95.8155 23.6731 95.8155 23.9014L95.8144 29.3053C95.8155 29.5474 95.8218 29.7239 95.8586 30.1511C96.073 32.4911 98.0998 33.3262 100.377 33.3262C102.654 33.3262 104.682 32.4911 104.895 30.1511C104.934 29.7239 104.939 29.5474 104.941 29.3053V25.8619H100.391Z" fill="black"/>
<path fill-rule="evenodd" clip-rule="evenodd" d="M89.4561 30.3143H89.3853L86.4333 20.2312H81.6653V32.944H84.8247L84.647 22.5129H84.7179L87.8887 32.944H92.463V20.2312H89.2819L89.4561 30.3143Z" fill="black"/>
<path fill-rule="evenodd" clip-rule="evenodd" d="M78.0852 20.2288H74.834V29.7317C74.8352 29.8968 74.8309 30.0837 74.8034 30.2223C74.74 30.5383 74.4652 31.1534 73.572 31.1534C72.6777 31.1534 72.402 30.5383 72.3395 30.2223C72.312 30.0837 72.3057 29.8968 72.3089 29.7317V20.2288H69.0597V29.4392C69.0535 29.6757 69.0777 30.1588 69.0895 30.2845C69.3146 32.6817 71.2097 33.4586 73.572 33.4586C75.9332 33.4586 77.8283 32.6817 78.0523 30.2845C78.0652 30.1588 78.0895 29.6757 78.0852 29.4392V20.2288Z" fill="black"/>
<path fill-rule="evenodd" clip-rule="evenodd" d="M60.2645 23.5728C60.2023 23.3159 60.2179 23.0485 60.2485 22.9059C60.3397 22.4979 60.6165 22.0519 61.4102 22.0519C62.1574 22.0519 62.5931 22.5096 62.5931 23.2039V23.9905H65.7671V23.0962C65.7671 20.326 63.2779 19.8936 61.4779 19.8936C59.2191 19.8936 57.3697 20.6408 57.0334 22.7156C56.9406 23.2831 56.9277 23.7905 57.0632 24.43C57.6128 27.031 62.1331 27.7817 62.7885 29.4282C62.9111 29.7368 62.8731 30.129 62.8128 30.3688C62.7091 30.7916 62.4217 31.2228 61.574 31.2228C60.7783 31.2228 60.2951 30.7642 60.2951 30.0699L60.2931 28.8385H56.8823L56.8814 29.8193C56.8814 32.6562 59.1145 33.5122 61.5043 33.5122C63.8054 33.5122 65.6971 32.728 65.9997 30.6048C66.154 29.5077 66.0408 28.7888 65.9857 28.5194C65.448 25.8557 60.6228 25.0619 60.2645 23.5728Z" fill="black"/>
<path fill-rule="evenodd" clip-rule="evenodd" d="M48.2218 20.2311L46.6375 30.0533H46.5644L44.9823 20.2311H39.7429L39.4598 33.0763H42.6749L42.7552 21.5291H42.826L44.9718 33.0763H48.2312L50.378 21.53L50.4487 21.5291L50.5292 33.0763H53.742L53.4589 20.2311H48.2218Z" fill="black"/>
<path fill-rule="evenodd" clip-rule="evenodd" d="M31.6599 21.4212L31.7319 21.4201L33.4439 33.0761H36.8951L34.5273 20.2312H28.8125L26.4313 33.0761H29.9033L31.6599 21.4212Z" fill="black"/>
<path fill-rule="evenodd" clip-rule="evenodd" d="M19.7281 33.5789C22.0524 33.5789 23.9633 32.7864 24.2687 30.6418C24.4253 29.533 24.3098 28.8069 24.255 28.5364C23.7127 25.8464 18.8393 25.0441 18.4756 23.5401C18.4145 23.2789 18.4293 23.0084 18.4619 22.8647C18.5527 22.4527 18.8319 22.0024 19.635 22.0024C20.3875 22.0024 20.8284 22.4663 20.8284 23.1661V23.9618H24.0342V23.0573C24.0342 20.2595 21.5207 19.8218 19.7027 19.8218C17.4199 19.8218 15.5521 20.5787 15.2118 22.6735C15.1188 23.2464 15.1062 23.7589 15.2416 24.4058C15.7984 27.0312 20.3633 27.7901 21.025 29.4527C21.1507 29.7633 21.1107 30.1618 21.0504 30.4026C20.9459 30.8309 20.655 31.2673 19.799 31.2673C18.9956 31.2673 18.5084 30.8024 18.5084 30.1027L18.5053 28.8575H15.0607L15.0596 29.8478C15.0596 32.7132 17.3141 33.5789 19.7281 33.5789Z" fill="black"/>
</svg>
