<svg width="120" height="80" viewBox="0 0 120 80" fill="none" xmlns="http://www.w3.org/2000/svg">
<rect width="120" height="80" rx="4" fill="white"/>
<path fill-rule="evenodd" clip-rule="evenodd" d="M61.7961 51.0291L61.7626 52.2779H57.8379V46.1184H59.2417V51.0291H61.7961Z" fill="#005DA1"/>
<path fill-rule="evenodd" clip-rule="evenodd" d="M65.3571 50.1424C65.2336 50.0933 64.9856 50.0354 64.6468 50.0354C64.0768 50.0354 63.8121 50.2573 63.8121 50.6922C63.8121 51.1772 64.1015 51.3499 64.5242 51.3499C64.9609 51.3499 65.3571 51.0868 65.3571 50.7668V50.1424ZM65.5486 51.8015L65.523 51.7928C65.2177 52.1541 64.7386 52.3601 64.1668 52.3601C63.2174 52.3601 62.6147 51.8261 62.6147 50.7089C62.6147 49.789 63.2589 49.1567 64.3989 49.1567C64.7703 49.1567 65.0924 49.2146 65.3571 49.2962V49.0094C65.3571 48.5078 65.0924 48.2781 64.4077 48.2781C63.8545 48.2781 63.4909 48.3605 63.0268 48.549L62.9192 47.5309C63.4247 47.3169 63.9939 47.2021 64.6389 47.2021C66.1177 47.2021 66.6303 47.8343 66.6303 49.1979V52.2777H65.6465L65.5486 51.8015Z" fill="#005DA1"/>
<path fill-rule="evenodd" clip-rule="evenodd" d="M69.4 52.3767C68.7956 52.3767 68.2503 52.2618 67.8294 52.0321L67.9609 50.9806C68.3756 51.2183 68.9624 51.3332 69.3912 51.3332C69.9038 51.3332 70.1183 51.128 70.1183 50.8324C70.1183 50.0353 67.7968 50.4957 67.7968 48.755C67.7968 47.8597 68.4083 47.2186 69.6974 47.2186C70.2003 47.2186 70.698 47.3177 71.118 47.4896L71.0112 48.5323C70.5974 48.3604 70.0441 48.278 69.6727 48.278C69.2518 48.278 69.0188 48.4428 69.0188 48.6971C69.0188 49.4522 71.3085 49.0006 71.3085 50.7176C71.3085 51.7111 70.7544 52.3767 69.4 52.3767Z" fill="#005DA1"/>
<path fill-rule="evenodd" clip-rule="evenodd" d="M73.8302 48.2537V50.7994C73.8302 51.1861 74.0287 51.3501 74.4249 51.3501C74.5573 51.3501 74.7302 51.3255 74.822 51.2922L74.8961 52.22C74.7223 52.2945 74.3923 52.3603 74.0358 52.3603C73.037 52.3603 72.549 51.785 72.549 50.8406V48.2537H71.987V47.3013H72.6064L72.8208 46.1754L73.8302 46.085V47.3013H74.9464V48.2537H73.8302Z" fill="#005DA1"/>
<path fill-rule="evenodd" clip-rule="evenodd" d="M97.9976 52.2778V48.2457H97.3693V47.3013H97.9976V47.0873C97.9976 46.3401 98.5182 45.7245 99.7155 45.7245C99.9979 45.7245 100.31 45.7649 100.526 45.8307L100.451 46.6523C100.302 46.619 100.138 46.6032 99.9714 46.6032C99.4693 46.6032 99.2779 46.7997 99.2779 47.1206V47.3013H100.344V48.2457H99.2779V52.2778H97.9976Z" fill="#005DA1"/>
<path fill-rule="evenodd" clip-rule="evenodd" d="M94.8401 52.2778V47.3337L96.154 47.2758V52.2778H94.8401ZM95.501 46.7672C95.0051 46.7672 94.766 46.6269 94.766 46.2253C94.766 45.8719 95.0051 45.6746 95.501 45.6746C96.0057 45.6746 96.2281 45.864 96.2281 46.2253C96.2281 46.5866 96.0057 46.7672 95.501 46.7672Z" fill="#005DA1"/>
<path fill-rule="evenodd" clip-rule="evenodd" d="M90.5345 52.2778V47.3337L91.5581 47.2846L91.6745 48.1142H91.6983C92.0133 47.5143 92.5013 47.2188 93.0713 47.2188C93.2945 47.2188 93.4842 47.2521 93.6157 47.2925L93.5328 48.5491C93.3775 48.5 93.1869 48.4667 92.9875 48.4667C92.3186 48.4667 91.8236 48.9516 91.8236 49.7812V52.2778H90.5345Z" fill="#005DA1"/>
<path fill-rule="evenodd" clip-rule="evenodd" d="M87.9053 52.2778V49.1077C87.9053 48.5982 87.6494 48.3351 87.1041 48.3351C86.7318 48.3351 86.4097 48.5 86.2527 48.7131V52.2778H84.9715V45.8885L86.2527 45.8228V46.9557L86.2359 47.6126L86.2606 47.6301C86.633 47.317 87.0856 47.2022 87.5091 47.2022C88.5662 47.2022 89.1856 47.909 89.1856 49.1077V52.2778H87.9053Z" fill="#005DA1"/>
<path fill-rule="evenodd" clip-rule="evenodd" d="M83.6814 48.5161C83.4256 48.4258 83.1194 48.36 82.83 48.36C81.8973 48.36 81.5903 48.7459 81.5903 49.7973C81.5903 50.8654 82.0288 51.2837 82.8053 51.2837C83.1361 51.2837 83.4503 51.2179 83.715 51.0952L83.8067 52.0887C83.5094 52.2694 83.062 52.3764 82.5247 52.3764C81.0458 52.3764 80.2597 51.538 80.2597 49.7973C80.2597 48.1461 80.9461 47.2183 82.5494 47.2183C82.9703 47.2183 83.4423 47.3086 83.7556 47.4323L83.6814 48.5161Z" fill="#005DA1"/>
<path fill-rule="evenodd" clip-rule="evenodd" d="M77.4249 52.3767C76.8213 52.3767 76.276 52.2618 75.8543 52.0321L75.9866 50.9806C76.4005 51.2183 76.9872 51.3332 77.4169 51.3332C77.9296 51.3332 78.144 51.128 78.144 50.8324C78.144 50.0353 75.8225 50.4957 75.8225 48.755C75.8225 47.8597 76.4331 47.2186 77.7231 47.2186C78.226 47.2186 78.7228 47.3177 79.1437 47.4896L79.0369 48.5323C78.6231 48.3604 78.0699 48.278 77.6984 48.278C77.2766 48.278 77.0446 48.4428 77.0446 48.6971C77.0446 49.4522 79.3343 49.0006 79.3343 50.7176C79.3343 51.7111 78.7802 52.3767 77.4249 52.3767Z" fill="#005DA1"/>
<path fill-rule="evenodd" clip-rule="evenodd" d="M102.973 48.2537V50.7994C102.973 51.1861 103.171 51.3501 103.567 51.3501C103.699 51.3501 103.873 51.3255 103.964 51.2922L104.038 52.22C103.865 52.2945 103.535 52.3603 103.178 52.3603C102.179 52.3603 101.691 51.785 101.691 50.8406V48.2537H101.128V47.3013H101.748L101.963 46.1754L102.973 46.085V47.3013H104.088V48.2537H102.973Z" fill="#005DA1"/>
<path fill-rule="evenodd" clip-rule="evenodd" d="M61.9028 42.6681C60.3543 42.6681 58.9311 42.2971 57.7734 41.678L58.1652 39.113C59.3405 39.7321 60.5502 40.0864 61.8667 40.0864C63.3261 40.0864 63.9676 39.5559 63.9676 38.636C63.9676 36.5489 57.8273 37.4328 57.8273 32.993C57.8273 30.7472 59.2867 28.9249 62.6679 28.9249C63.9676 28.9249 65.3731 29.1906 66.4055 29.6151L66.0323 32.1266C64.9284 31.7732 63.8255 31.561 62.8108 31.561C61.1555 31.561 60.7108 32.1266 60.7108 32.8342C60.7108 34.9038 66.8502 33.9488 66.8502 38.4413C66.8502 41.0589 65.0167 42.6681 61.9028 42.6681Z" fill="#005DA1"/>
<path fill-rule="evenodd" clip-rule="evenodd" d="M78.421 39.8206V42.4207H69.3451V29.1555H78.421V31.7906H72.3531V34.4258H77.2819V36.7961H72.3531V39.8206H78.421Z" fill="#005DA1"/>
<path fill-rule="evenodd" clip-rule="evenodd" d="M85.8635 31.6491H84.0829V35.7171H85.8635C87.3406 35.7171 87.9803 35.3462 87.9803 33.6835C87.9803 32.0911 87.4121 31.6491 85.8635 31.6491ZM85.8635 38.105H84.0829V42.4212H81.0759V29.1551H85.8635C89.565 29.1551 91.0774 30.6055 91.0774 33.7011C91.0774 36.4958 89.5835 38.105 85.8635 38.105Z" fill="#005DA1"/>
<path fill-rule="evenodd" clip-rule="evenodd" d="M97.4702 32.7984L96.1352 37.3443H99.5349L98.2528 32.7984L97.8972 31.4014H97.8434L97.4702 32.7984ZM100.246 39.8383H95.4055L94.6581 42.4209H91.4905L96.0999 29.1556H99.6769L104.339 42.4209H100.993L100.246 39.8383Z" fill="#005DA1"/>
<path fill-rule="evenodd" clip-rule="evenodd" d="M29.6441 39.6275C29.6018 39.6836 29.5374 39.7117 29.4712 39.7257C29.3971 39.7345 29.3203 39.7178 29.2568 39.6705L25.8235 37.1072L21.2291 33.6776L17.795 31.1135C17.7324 31.0661 17.6953 30.9977 17.6821 30.924C17.6777 30.8574 17.6874 30.7881 17.7297 30.732L18.6659 29.4929C18.6659 29.4929 19.6938 28.1714 20.5965 26.9779L24.4603 29.863L28.6462 32.9883L32.5109 35.8734C31.6082 37.0669 30.5803 38.3884 30.5803 38.3884L29.6441 39.6275ZM23.1862 24.0034L26.5991 26.5526L28.9065 28.2749L31.2121 29.998L34.6268 32.5455C34.7582 32.6428 34.7856 32.8261 34.6885 32.9541L33.8697 34.0748L30.0059 31.1897L25.82 28.0644L21.9562 25.1793L22.7741 24.0586C22.8703 23.9306 23.0556 23.906 23.1862 24.0034ZM35.0177 32.0491L29.2868 27.7715L23.5568 23.4921C23.1571 23.1948 22.5906 23.2738 22.2915 23.6693L17.2471 30.3435C17.1668 30.4479 17.1191 30.5636 17.0909 30.6838C17.0044 31.024 17.1244 31.4002 17.4235 31.6247L20.8391 34.1739L25.453 37.6185L28.8668 40.1668C29.1668 40.3913 29.5638 40.4009 29.8682 40.2221C29.9768 40.1633 30.0747 40.0844 30.1541 39.98L35.1985 33.3066C35.4977 32.9111 35.4165 32.3473 35.0177 32.0491Z" fill="#A4AAB6"/>
<path fill-rule="evenodd" clip-rule="evenodd" d="M16.4587 56.1126L20.484 42.8281H31.3907L30.451 44.0786L29.0975 45.9368L28.944 46.2113L28.8019 46.5305L28.6563 46.89L28.5046 47.2715L28.359 47.6871L28.2152 48.0958L28.0802 48.507L27.9469 48.9104L27.8269 49.2928L27.7166 49.6453L27.6187 49.9531L27.5446 50.21L27.4872 50.4056L27.4396 50.5275C27.4396 50.5275 27.4316 50.5538 27.4078 50.5854C27.3805 50.6231 27.2155 50.773 27.0813 50.6739C26.9525 50.5783 26.9657 50.2416 26.979 50.0811C27.0196 49.5892 27.0593 49.0972 27.0999 48.6061C27.1122 48.4334 26.9004 48.336 26.7637 48.4141C26.161 48.7587 25.8019 49.1761 25.4728 49.6532C25.5037 49.5418 25.5346 49.4296 25.5646 49.3182C25.704 48.8113 25.899 48.2869 25.974 47.766C26.0163 47.4688 25.9405 47.1154 25.591 47.0584C25.1975 46.9926 24.9399 47.4039 24.7475 47.6748C24.1643 48.4921 23.821 49.5304 23.0975 50.2416C22.8249 50.5091 22.5231 50.7064 22.1322 50.5959C21.6778 50.4678 21.5013 50.9984 22.3025 51.0703C23.0905 51.1404 23.6763 50.3135 24.0337 49.7356C24.2931 49.3156 24.5216 48.8771 24.774 48.4536C24.8957 48.2501 25.0219 48.0493 25.1613 47.8572C25.2222 47.7757 25.336 47.5565 25.4419 47.5275C25.5813 47.4889 25.5452 47.5687 25.5372 47.6784C25.5187 47.9256 25.4128 48.18 25.3475 48.4185C25.2769 48.6789 25.2054 48.9394 25.134 49.1998C24.9813 49.7584 24.8296 50.317 24.6769 50.8747C24.6081 51.1282 24.9434 51.2457 25.0846 51.0457C25.6457 50.2512 25.9255 49.5778 26.6172 49.0464C26.6022 49.2209 26.5881 49.3954 26.574 49.5708C26.551 49.8593 26.4955 50.1644 26.5149 50.4529C26.5484 50.9247 26.9066 51.2518 27.3575 51.0457C27.5931 50.937 27.7625 50.773 27.7625 50.773L27.789 50.7537L27.8843 50.6827L28.0581 50.5687L28.2937 50.4073L28.5557 50.2127L28.8452 50.0092L29.1857 49.7716L29.5316 49.5181L29.8766 49.2656L30.2225 49.0122L30.5587 48.7578L30.8746 48.5202L31.1657 48.2843L31.4207 48.0879L31.6237 47.9002L31.7816 47.7494L31.7878 47.7406L31.7913 47.7441L32.8669 46.4814L35.6154 42.8281H40.4949L44.2907 56.1126H16.4587ZM36.0487 42.2528L44.6922 30.7651L45.5737 29.6102C45.6646 29.4866 45.6513 29.3735 45.5649 29.3112L43.1181 27.5495C43.0325 27.4872 42.9205 27.5118 42.8569 27.5968C42.851 27.605 42.7319 27.7567 42.4996 28.0519L31.8231 42.2528H20.0657L15.6602 56.6879H45.0769L40.921 42.2528H36.0487Z" fill="#005DA1"/>
<path fill-rule="evenodd" clip-rule="evenodd" d="M46.6821 30.1526L46.3592 29.9114C46.2947 29.8632 46.2021 29.8763 46.1536 29.9404L42.0453 35.3738C41.9959 35.4369 42.01 35.529 42.0736 35.5772L42.3974 35.8184C42.4618 35.8666 42.5527 35.8534 42.6021 35.7894L46.7112 30.356C46.7598 30.292 46.7465 30.2008 46.6821 30.1526Z" fill="#0062A5"/>
<path fill-rule="evenodd" clip-rule="evenodd" d="M30.178 53.2862H38.353L38.1792 52.6426H30.178H22.1768L22.0039 53.2862H30.178Z" fill="#005DA1"/>
</svg>
