<svg width="120" height="80" viewBox="0 0 120 80" fill="none" xmlns="http://www.w3.org/2000/svg">
<rect width="120" height="80" rx="4" fill="white"/>
<path fill-rule="evenodd" clip-rule="evenodd" d="M77.5649 32.9293C79.389 32.9293 80.8675 31.4655 80.8675 29.6602C80.8675 27.8545 79.389 26.3893 77.5649 26.3893C75.7429 26.3893 74.2652 27.8545 74.2652 29.6602C74.2652 31.4655 75.7429 32.9293 77.5649 32.9293ZM52.271 34.6942C52.1223 35.0654 51.0497 38.0663 48.4557 41.1766V27.8773L41.5439 29.2307V53.3362H48.4557V45.8849C50.4575 48.8588 51.4461 53.3362 51.4461 53.3362H59.7249C58.906 49.9645 55.3238 43.7464 55.3238 43.7464C58.5388 39.709 59.9509 35.4073 60.1755 34.6942H52.271ZM70.442 34.443C64.2513 34.6398 61.1087 37.3909 61.1087 42.8597V53.3362H67.8626V44.793C67.8626 41.5179 68.2954 40.1142 72.2186 39.9807V34.5389C71.5583 34.4001 70.442 34.443 70.442 34.443ZM29.9522 37.3487C29.1056 37.2935 27.1456 37.1684 27.1456 35.4207C27.1456 33.3117 29.9674 33.3117 31.0258 33.3117C32.8868 33.3117 35.2971 33.8561 37.0183 34.366C37.0183 34.366 37.9784 34.7013 38.7952 35.045L38.8715 35.0654V29.2894L38.7672 29.2588C36.7359 28.5549 34.3739 27.8773 29.9948 27.8773C22.4443 27.8773 19.769 32.2341 19.769 35.9668C19.769 38.1184 20.6997 43.182 29.3472 43.7661C30.0803 43.8107 32.0254 43.9214 32.0254 45.7278C32.0254 47.219 30.433 48.0983 27.7541 48.0983C24.8184 48.0983 21.9707 47.3568 20.2409 46.6535V52.6024C22.8304 53.2747 25.7494 53.6107 29.1705 53.6107C36.5531 53.6107 39.8596 49.4883 39.8596 45.4027C39.8596 40.7704 36.1596 37.7609 29.9522 37.3487ZM74.2169 53.3362H80.9161V34.7153H74.2169V53.3362ZM93.5304 29.0645V53.3362H100.231V27.8773L93.5304 29.0645ZM83.7539 29.0645L90.4478 27.8773V53.3362H83.7539V29.0645Z" fill="#811963"/>
</svg>
