<svg width="120" height="80" viewBox="0 0 120 80" fill="none" xmlns="http://www.w3.org/2000/svg">
<rect width="120" height="80" rx="4" fill="url(#paint0_linear_830_5887)"/>
<path fill-rule="evenodd" clip-rule="evenodd" d="M70.0223 65.9794V67.0188H71.0684V67.9109H70.0223V68.9503H69.1235V67.9109H68.0775V67.0188H69.1235V65.9794H70.0223ZM55.6628 65.9794V67.0188H56.7094V67.9109H55.6628V68.9503H54.7646V67.9109H53.7185V67.0188H54.7646V65.9794H55.6628ZM50.877 65.9794V67.0188H51.923V67.9109H50.877V68.9503H49.9782V67.9109H48.9322V67.0188H49.9782V65.9794H50.877ZM46.0906 65.9794V67.0188H47.1367V67.9109H46.0906V68.9503H45.1919V67.9109H44.1458V67.0188H45.1919V65.9794H46.0906ZM41.3038 65.9794V67.0188H42.3504V67.9109H41.3038V68.9503H40.4056V67.9109H39.359V67.0188H40.4056V65.9794H41.3038ZM89.1676 61.2257V62.2652H90.2142V63.1573H89.1676V64.1962H88.2689V63.1573H87.2228V62.2652H88.2689V61.2257H89.1676ZM74.8086 61.2257V62.2652H75.8547V63.1573H74.8086V64.1962H73.9099V63.1573H72.8638V62.2652H73.9099V61.2257H74.8086ZM70.0223 61.2257V62.2652H71.0684V63.1573H70.0223V64.1962H69.1235V63.1573H68.0775V62.2652H69.1235V61.2257H70.0223ZM65.2359 61.2257V62.2652H66.282V63.1573H65.2359V64.1962H64.3372V63.1573H63.2911V62.2652H64.3372V61.2257H65.2359ZM55.6628 61.2257V62.2652H56.7094V63.1573H55.6628V64.1962H54.7646V63.1573H53.7185V62.2652H54.7646V61.2257H55.6628ZM50.877 61.2257V62.2652H51.923V63.1573H50.877V64.1962H49.9782V63.1573H48.9322V62.2652H49.9782V61.2257H50.877ZM46.0906 61.2257V62.2652H47.1367V63.1573H46.0906V64.1962H45.1919V63.1573H44.1458V62.2652H45.1919V61.2257H46.0906ZM41.3038 61.2257V62.2652H42.3504V63.1573H41.3038V64.1962H40.4056V63.1573H39.359V62.2652H40.4056V61.2257H41.3038ZM31.7311 61.2257V62.2652H32.7777V63.1573H31.7311V64.1962H30.8329V63.1573H29.7868V62.2652H30.8329V61.2257H31.7311ZM26.9448 61.2257V62.2652H27.9909V63.1573H26.9448V64.1962H26.0466V63.1573H25V62.2652H26.0466V61.2257H26.9448ZM84.3813 56.4721V57.5115H85.4273V58.4036H84.3813V59.4426H83.483V58.4036H82.4365V57.5115H83.483V56.4721H84.3813ZM79.5949 56.4721V57.5115H80.641V58.4036H79.5949V59.4426H78.6962V58.4036H77.6501V57.5115H78.6962V56.4721H79.5949ZM74.8086 56.4721V57.5115H75.8547V58.4036H74.8086V59.4426H73.9099V58.4036H72.8638V57.5115H73.9099V56.4721H74.8086ZM70.0223 56.4721V57.5115H71.0684V58.4036H70.0223V59.4426H69.1235V58.4036H68.0775V57.5115H69.1235V56.4721H70.0223ZM65.2359 56.4721V57.5115H66.282V58.4036H65.2359V59.4426H64.3372V58.4036H63.2911V57.5115H64.3372V56.4721H65.2359ZM60.4496 56.4721V57.5115H61.4957V58.4036H60.4496V59.4426H59.5509V58.4036H58.5048V57.5115H59.5509V56.4721H60.4496ZM55.6628 56.4721V57.5115H56.7094V58.4036H55.6628V59.4426H54.7646V58.4036H53.7185V57.5115H54.7646V56.4721H55.6628ZM50.877 56.4721V57.5115H51.923V58.4036H50.877V59.4426H49.9782V58.4036H48.9322V57.5115H49.9782V56.4721H50.877ZM46.0906 56.4721V57.5115H47.1367V58.4036H46.0906V59.4426H45.1919V58.4036H44.1458V57.5115H45.1919V56.4721H46.0906ZM41.3038 56.4721V57.5115H42.3504V58.4036H41.3038V59.4426H40.4056V58.4036H39.359V57.5115H40.4056V56.4721H41.3038ZM36.518 56.4721V57.5115H37.5641V58.4036H36.518V59.4426H35.6192V58.4036H34.5727V57.5115H35.6192V56.4721H36.518ZM31.7311 56.4721V57.5115H32.7777V58.4036H31.7311V59.4426H30.8329V58.4036H29.7868V57.5115H30.8329V56.4721H31.7311ZM89.1676 51.7185V52.7579H90.2142V53.65H89.1676V54.6889H88.2689V53.65H87.2228V52.7579H88.2689V51.7185H89.1676ZM84.3813 51.7185V52.7579H85.4273V53.65H84.3813V54.6889H83.483V53.65H82.4365V52.7579H83.483V51.7185H84.3813ZM79.5949 51.7185V52.7579H80.641V53.65H79.5949V54.6889H78.6962V53.65H77.6501V52.7579H78.6962V51.7185H79.5949ZM74.8086 51.7185V52.7579H75.8547V53.65H74.8086V54.6889H73.9099V53.65H72.8638V52.7579H73.9099V51.7185H74.8086ZM70.0223 51.7185V52.7579H71.0684V53.65H70.0223V54.6889H69.1235V53.65H68.0775V52.7579H69.1235V51.7185H70.0223ZM65.2359 51.7185V52.7579H66.282V53.65H65.2359V54.6889H64.3372V53.65H63.2911V52.7579H64.3372V51.7185H65.2359ZM60.4496 51.7185V52.7579H61.4957V53.65H60.4496V54.6889H59.5509V53.65H58.5048V52.7579H59.5509V51.7185H60.4496ZM55.6628 51.7185V52.7579H56.7094V53.65H55.6628V54.6889H54.7646V53.65H53.7185V52.7579H54.7646V51.7185H55.6628ZM50.877 51.7185V52.7579H51.923V53.65H50.877V54.6889H49.9782V53.65H48.9322V52.7579H49.9782V51.7185H50.877ZM46.0906 51.7185V52.7579H47.1367V53.65H46.0906V54.6889H45.1919V53.65H44.1458V52.7579H45.1919V51.7185H46.0906ZM41.3038 51.7185V52.7579H42.3504V53.65H41.3038V54.6889H40.4056V53.65H39.359V52.7579H40.4056V51.7185H41.3038ZM36.518 51.7185V52.7579H37.5641V53.65H36.518V54.6889H35.6192V53.65H34.5727V52.7579H35.6192V51.7185H36.518ZM31.7311 51.7185V52.7579H32.7777V53.65H31.7311V54.6889H30.8329V53.65H29.7868V52.7579H30.8329V51.7185H31.7311ZM84.3813 46.9648V48.0043H85.4273V48.8964H84.3813V49.9353H83.483V48.8964H82.4365V48.0043H83.483V46.9648H84.3813ZM79.5949 46.9648V48.0043H80.641V48.8964H79.5949V49.9353H78.6962V48.8964H77.6501V48.0043H78.6962V46.9648H79.5949ZM74.8086 46.9648V48.0043H75.8547V48.8964H74.8086V49.9353H73.9099V48.8964H72.8638V48.0043H73.9099V46.9648H74.8086ZM70.0223 46.9648V48.0043H71.0684V48.8964H70.0223V49.9353H69.1235V48.8964H68.0775V48.0043H69.1235V46.9648H70.0223ZM65.2359 46.9648V48.0043H66.282V48.8964H65.2359V49.9353H64.3372V48.8964H63.2911V48.0043H64.3372V46.9648H65.2359ZM60.4496 46.9648V48.0043H61.4957V48.8964H60.4496V49.9353H59.5509V48.8964H58.5048V48.0043H59.5509V46.9648H60.4496ZM55.6628 46.9648V48.0043H56.7094V48.8964H55.6628V49.9353H54.7646V48.8964H53.7185V48.0043H54.7646V46.9648H55.6628ZM50.877 46.9648V48.0043H51.923V48.8964H50.877V49.9353H49.9782V48.8964H48.9322V48.0043H49.9782V46.9648H50.877ZM46.0906 46.9648V48.0043H47.1367V48.8964H46.0906V49.9353H45.1919V48.8964H44.1458V48.0043H45.1919V46.9648H46.0906ZM41.3038 46.9648V48.0043H42.3504V48.8964H41.3038V49.9353H40.4056V48.8964H39.359V48.0043H40.4056V46.9648H41.3038ZM36.518 46.9648V48.0043H37.5641V48.8964H36.518V49.9353H35.6192V48.8964H34.5727V48.0043H35.6192V46.9648H36.518ZM79.5949 42.2112V43.2506H80.641V44.1427H79.5949V45.1817H78.6962V44.1427H77.6501V43.2506H78.6962V42.2112H79.5949ZM74.8086 42.2112V43.2506H75.8547V44.1427H74.8086V45.1817H73.9099V44.1427H72.8638V43.2506H73.9099V42.2112H74.8086ZM70.0223 42.2112V43.2506H71.0684V44.1427H70.0223V45.1817H69.1235V44.1427H68.0775V43.2506H69.1235V42.2112H70.0223ZM65.2359 42.2112V43.2506H66.282V44.1427H65.2359V45.1817H64.3372V44.1427H63.2911V43.2506H64.3372V42.2112H65.2359ZM60.4496 42.2112V43.2506H61.4957V44.1427H60.4496V45.1817H59.5509V44.1427H58.5048V43.2506H59.5509V42.2112H60.4496ZM55.6628 42.2112V43.2506H56.7094V44.1427H55.6628V45.1817H54.7646V44.1427H53.7185V43.2506H54.7646V42.2112H55.6628ZM50.877 42.2112V43.2506H51.923V44.1427H50.877V45.1817H49.9782V44.1427H48.9322V43.2506H49.9782V42.2112H50.877ZM46.0906 42.2112V43.2506H47.1367V44.1427H46.0906V45.1817H45.1919V44.1427H44.1458V43.2506H45.1919V42.2112H46.0906ZM41.3038 42.2112V43.2506H42.3504V44.1427H41.3038V45.1817H40.4056V44.1427H39.359V43.2506H40.4056V42.2112H41.3038ZM79.5949 37.4576V38.497H80.641V39.3891H79.5949V40.428H78.6962V39.3891H77.6501V38.497H78.6962V37.4576H79.5949ZM74.8086 37.4576V38.497H75.8547V39.3891H74.8086V40.428H73.9099V39.3891H72.8638V38.497H73.9099V37.4576H74.8086ZM70.0223 37.4576V38.497H71.0684V39.3891H70.0223V40.428H69.1235V39.3891H68.0775V38.497H69.1235V37.4576H70.0223ZM65.2359 37.4576V38.497H66.282V39.3891H65.2359V40.428H64.3372V39.3891H63.2911V38.497H64.3372V37.4576H65.2359ZM60.4496 37.4576V38.497H61.4957V39.3891H60.4496V40.428H59.5509V39.3891H58.5048V38.497H59.5509V37.4576H60.4496ZM55.6628 37.4576V38.497H56.7094V39.3891H55.6628V40.428H54.7646V39.3891H53.7185V38.497H54.7646V37.4576H55.6628ZM50.877 37.4576V38.497H51.923V39.3891H50.877V40.428H49.9782V39.3891H48.9322V38.497H49.9782V37.4576H50.877ZM46.0906 37.4576V38.497H47.1367V39.3891H46.0906V40.428H45.1919V39.3891H44.1458V38.497H45.1919V37.4576H46.0906ZM41.3038 37.4576V38.497H42.3504V39.3891H41.3038V40.428H40.4056V39.3891H39.359V38.497H40.4056V37.4576H41.3038ZM74.8086 32.7034V33.7434H75.8547V34.6355H74.8086V35.6744H73.9099V34.6355H72.8638V33.7434H73.9099V32.7034H74.8086ZM70.0223 32.7034V33.7434H71.0684V34.6355H70.0223V35.6744H69.1235V34.6355H68.0775V33.7434H69.1235V32.7034H70.0223ZM65.2359 32.7034V33.7434H66.282V34.6355H65.2359V35.6744H64.3372V34.6355H63.2911V33.7434H64.3372V32.7034H65.2359ZM60.4496 32.7034V33.7434H61.4957V34.6355H60.4496V35.6744H59.5509V34.6355H58.5048V33.7434H59.5509V32.7034H60.4496ZM55.6628 32.7034V33.7434H56.7094V34.6355H55.6628V35.6744H54.7646V34.6355H53.7185V33.7434H54.7646V32.7034H55.6628ZM50.877 32.7034V33.7434H51.923V34.6355H50.877V35.6744H49.9782V34.6355H48.9322V33.7434H49.9782V32.7034H50.877ZM65.2359 27.9503V28.9898H66.282V29.8818H65.2359V30.9208H64.3372V29.8818H63.2911V28.9898H64.3372V27.9503H65.2359ZM93.9539 51.7185V52.7579H95V53.65H93.9539V54.6889H93.0557V53.65H92.0091V52.7579H93.0557V51.7185H93.9539ZM93.9539 46.9648V48.0043H95V48.8964H93.9539V49.9353H93.0557V48.8964H92.0091V48.0043H93.0557V46.9648H93.9539Z" fill="#FFFFFE"/>
<path fill-rule="evenodd" clip-rule="evenodd" d="M69.5115 15.4883C69.3981 15.717 69.249 15.9003 69.0669 16.0363C68.8848 16.1737 68.6858 16.273 68.4687 16.3337C68.2502 16.3943 68.0383 16.4257 67.8309 16.4257H65.1216V12.8317H67.8607C68.1063 12.8317 68.339 12.857 68.5562 12.9077C68.7739 12.9583 68.9651 13.0523 69.133 13.1903C69.3022 13.3263 69.4344 13.5123 69.5329 13.745C69.6321 13.9797 69.682 14.273 69.682 14.6283C69.682 14.9737 69.625 15.261 69.5115 15.4883ZM71.3912 13.547C71.2972 13.1517 71.1222 12.7857 70.8662 12.4517C70.6088 12.1157 70.2439 11.8363 69.7701 11.6137C69.297 11.391 68.6858 11.2783 67.9339 11.2783H63.2705V22.151H65.1216V17.9783H67.9339C68.6858 17.9783 69.297 17.869 69.7701 17.651C70.2439 17.433 70.6088 17.1563 70.8662 16.821C71.1222 16.4863 71.2972 16.1237 71.3912 15.733C71.4851 15.341 71.5318 14.9783 71.5318 14.6437C71.5318 14.309 71.4851 13.9437 71.3912 13.547Z" fill="#FFFFFE"/>
<path fill-rule="evenodd" clip-rule="evenodd" d="M77.1279 19.5017C77.1279 19.775 77.0625 20.007 76.9354 20.1943C76.8077 20.3823 76.6463 20.5363 76.4538 20.6583C76.262 20.7803 76.0565 20.867 75.8394 20.9177C75.6223 20.9683 75.4194 20.993 75.2327 20.993C75.0849 20.993 74.919 20.9783 74.7369 20.947C74.5548 20.9177 74.3862 20.8643 74.2346 20.7877C74.0803 20.7117 73.95 20.6077 73.8418 20.4757C73.7329 20.3443 73.6778 20.1817 73.6778 19.9883C73.6778 19.7657 73.7161 19.5743 73.7887 19.417C73.8632 19.2597 73.9643 19.1337 74.0913 19.0363C74.221 18.9397 74.3687 18.8643 74.5379 18.809C74.7045 18.753 74.8775 18.7097 75.0564 18.6783C75.4291 18.6077 75.805 18.5543 76.1803 18.5183C76.5543 18.4837 76.8706 18.3797 77.1279 18.2063V19.5017ZM79.3925 20.993C79.3232 20.993 79.2642 20.993 79.215 20.993C79.0575 20.993 78.9505 20.947 78.8967 20.857C78.8429 20.7657 78.815 20.613 78.815 20.3997V16.349C78.815 15.9323 78.7269 15.5803 78.5493 15.2903C78.3711 15.0017 78.1364 14.765 77.8461 14.583C77.5544 14.3997 77.2271 14.2677 76.8609 14.1863C76.4966 14.1057 76.1259 14.065 75.7512 14.065C75.3261 14.065 74.9112 14.1057 74.5062 14.1863C74.1017 14.2677 73.74 14.4103 73.4192 14.6123C73.0984 14.8157 72.8339 15.085 72.6272 15.4203C72.4198 15.755 72.3025 16.1763 72.272 16.6843H73.9591C73.998 16.2583 74.1711 15.9437 74.4776 15.7403C74.7836 15.537 75.1737 15.4357 75.6475 15.4357C75.8148 15.4357 75.993 15.4477 76.1803 15.4737C76.3663 15.499 76.5375 15.5497 76.6904 15.6263C76.844 15.7017 76.9717 15.811 77.0748 15.9537C77.1785 16.0957 77.2316 16.2783 77.2316 16.5017C77.2316 16.755 77.1687 16.9457 77.0462 17.0723C76.9237 17.1983 76.7546 17.293 76.5426 17.3537C76.3307 17.4143 76.0876 17.4577 75.8102 17.4837C75.5328 17.509 75.2424 17.5523 74.9365 17.6123C74.5813 17.6537 74.2274 17.7117 73.8774 17.7877C73.5281 17.8643 73.2131 17.9883 72.9305 18.1617C72.6492 18.3343 72.4224 18.5723 72.25 18.877C72.0775 19.1817 71.9907 19.577 71.9907 20.065C71.9907 20.4503 72.0626 20.7877 72.2052 21.0777C72.3472 21.3663 72.5403 21.6057 72.7821 21.793C73.0251 21.981 73.3032 22.1237 73.6201 22.219C73.9358 22.3157 74.2657 22.3637 74.6099 22.3637C75.0649 22.3637 75.5354 22.2883 76.0248 22.1357C76.5141 21.9837 76.925 21.7397 77.2608 21.405C77.3301 21.7603 77.4773 22.0083 77.7054 22.151C77.9316 22.2937 78.2174 22.3637 78.5642 22.3637C78.6329 22.3637 78.7159 22.359 78.815 22.349C78.9136 22.3377 79.0121 22.323 79.1112 22.303C79.2098 22.2817 79.3063 22.2597 79.4003 22.235C79.4943 22.209 79.5708 22.1863 79.6291 22.1657V20.9637C79.5403 20.9837 79.4619 20.993 79.3925 20.993Z" fill="#FFFFFE"/>
<path fill-rule="evenodd" clip-rule="evenodd" d="M81.9689 19.623C82.0182 20.131 82.2049 20.4863 82.5315 20.6883C82.8582 20.8917 83.2471 20.993 83.7014 20.993C83.8583 20.993 84.0385 20.981 84.2413 20.955C84.4436 20.9303 84.6341 20.8817 84.8117 20.811C84.9893 20.7397 85.1351 20.635 85.2479 20.499C85.3613 20.3617 85.4132 20.1817 85.4041 19.9583C85.3931 19.7343 85.3147 19.5523 85.1662 19.4097C85.0198 19.2683 84.8292 19.153 84.5965 19.0677C84.3638 18.981 84.1013 18.9077 83.8051 18.847C83.5089 18.785 83.2075 18.7197 82.9016 18.649C82.586 18.5783 82.282 18.491 81.991 18.3897C81.7006 18.2883 81.4387 18.1503 81.2061 17.9783C80.974 17.8063 80.7893 17.585 80.6512 17.3163C80.5138 17.0477 80.4438 16.7143 80.4438 16.319C80.4438 15.8923 80.5443 15.5343 80.7472 15.2443C80.9494 14.9557 81.2061 14.723 81.5178 14.5443C81.8296 14.367 82.1737 14.2423 82.5542 14.1717C82.9327 14.101 83.297 14.065 83.6412 14.065C84.0365 14.065 84.4144 14.1083 84.7741 14.195C85.1351 14.2803 85.4599 14.4203 85.7522 14.6123C86.0425 14.8063 86.2843 15.0577 86.4775 15.367C86.67 15.677 86.7905 16.0503 86.8398 16.4863H85.0774C84.999 16.0703 84.8143 15.791 84.5226 15.649C84.2316 15.5063 83.8991 15.4357 83.5232 15.4357C83.4052 15.4357 83.2639 15.4457 83.1012 15.4663C82.9392 15.4863 82.7856 15.525 82.6424 15.5803C82.4991 15.6363 82.3792 15.717 82.2794 15.823C82.1809 15.9297 82.1316 16.0703 82.1316 16.2423C82.1316 16.4557 82.2029 16.6283 82.3475 16.7603C82.49 16.8923 82.678 17.0017 82.9113 17.087C83.1447 17.1743 83.4085 17.247 83.706 17.3077C84.0022 17.3697 84.3087 17.4357 84.6263 17.5063C84.9329 17.5783 85.235 17.6637 85.5331 17.765C85.8293 17.867 86.0944 18.0043 86.3264 18.177C86.5591 18.349 86.7471 18.567 86.8903 18.831C87.0336 19.095 87.1062 19.4197 87.1062 19.8063C87.1062 20.2737 87.0025 20.6683 86.795 20.993C86.587 21.3183 86.3174 21.5817 85.9855 21.785C85.6543 21.9883 85.2868 22.1357 84.8811 22.2263C84.4747 22.3183 84.0754 22.3637 83.6794 22.3637C83.1939 22.3637 82.7474 22.3077 82.3364 22.197C81.9255 22.085 81.569 21.915 81.2683 21.6857C80.9669 21.4583 80.7284 21.1743 80.556 20.8337C80.3829 20.4937 80.2922 20.0897 80.2812 19.623H81.9689Z" fill="#FFFFFE"/>
<path fill-rule="evenodd" clip-rule="evenodd" d="M89.726 19.623C89.7765 20.131 89.9638 20.4863 90.2892 20.6883C90.6146 20.8917 91.0048 20.993 91.4578 20.993C91.6166 20.993 91.7975 20.981 91.9997 20.955C92.2012 20.9303 92.3918 20.8817 92.5687 20.811C92.747 20.7397 92.8915 20.635 93.0056 20.499C93.119 20.3617 93.1709 20.1817 93.1612 19.9583C93.1521 19.7343 93.0724 19.5523 92.9252 19.4097C92.7762 19.2683 92.5856 19.153 92.3542 19.0677C92.1228 18.981 91.8584 18.9077 91.5628 18.847C91.266 18.785 90.9652 18.7197 90.6593 18.649C90.3437 18.5783 90.0397 18.491 89.75 18.3897C89.4576 18.2883 89.1951 18.1503 88.9644 17.9783C88.7324 17.8063 88.547 17.585 88.4096 17.3163C88.2696 17.0477 88.2028 16.7143 88.2028 16.319C88.2028 15.8923 88.3033 15.5343 88.5062 15.2443C88.7071 14.9557 88.9644 14.723 89.2749 14.5443C89.586 14.367 89.9314 14.2423 90.3112 14.1717C90.6917 14.101 91.0527 14.065 91.4001 14.065C91.7942 14.065 92.1714 14.1083 92.5325 14.195C92.8915 14.2803 93.2182 14.4203 93.5079 14.6123C93.8002 14.8063 94.0426 15.0577 94.2338 15.367C94.4263 15.677 94.5469 16.0503 94.5975 16.4863H92.8358C92.7567 16.0703 92.5707 15.791 92.2797 15.649C91.9893 15.5063 91.6555 15.4357 91.2822 15.4357C91.1623 15.4357 91.0223 15.4457 90.8596 15.4663C90.6969 15.4863 90.5433 15.525 90.4 15.5803C90.2581 15.6363 90.1362 15.717 90.0377 15.823C89.9386 15.9297 89.8887 16.0703 89.8887 16.2423C89.8887 16.4557 89.9619 16.6283 90.1045 16.7603C90.2484 16.8923 90.4357 17.0017 90.6703 17.087C90.9011 17.1743 91.1662 17.247 91.4624 17.3077C91.7599 17.3697 92.0677 17.4357 92.3827 17.5063C92.6919 17.5783 92.9933 17.6637 93.2895 17.765C93.587 17.867 93.8508 18.0043 94.0841 18.177C94.3168 18.349 94.5048 18.567 94.648 18.831C94.7925 19.095 94.8638 19.4197 94.8638 19.8063C94.8638 20.2737 94.7601 20.6683 94.5521 20.993C94.344 21.3183 94.0744 21.5817 93.7432 21.785C93.412 21.9883 93.0438 22.1357 92.6387 22.2263C92.233 22.3183 91.8318 22.3637 91.4358 22.3637C90.9516 22.3637 90.5037 22.3077 90.0941 22.197C89.6832 22.085 89.3274 21.915 89.0253 21.6857C88.7233 21.4583 88.4867 21.1743 88.3137 20.8337C88.14 20.4937 88.0486 20.0897 88.0388 19.623H89.726Z" fill="#FFFFFE"/>
<path fill-rule="evenodd" clip-rule="evenodd" d="M26.3054 19.9737C26.4836 20.349 26.7273 20.649 27.0385 20.8717C27.3489 21.095 27.7164 21.2543 28.1416 21.351C28.5655 21.4477 29.0185 21.4963 29.5027 21.4963C29.7801 21.4963 30.0815 21.4557 30.4069 21.3737C30.7322 21.2937 31.0356 21.163 31.3175 20.9857C31.5982 20.809 31.8328 20.5797 32.0195 20.3003C32.2061 20.0217 32.3008 19.6837 32.3008 19.2883C32.3008 18.9837 32.234 18.7197 32.1005 18.4963C31.9676 18.273 31.7946 18.085 31.582 17.9323C31.37 17.7803 31.1367 17.6563 30.88 17.559C30.6234 17.463 30.3712 17.385 30.1243 17.3237L27.7709 16.729C27.4643 16.6483 27.1661 16.547 26.8758 16.4257C26.5841 16.303 26.3294 16.141 26.1129 15.937C25.8964 15.7357 25.7201 15.4863 25.5872 15.1917C25.455 14.8977 25.3876 14.537 25.3876 14.111C25.3876 13.847 25.4369 13.537 25.5354 13.181C25.6333 12.827 25.8186 12.491 26.0915 12.1763C26.3624 11.8623 26.7345 11.595 27.2089 11.377C27.6814 11.159 28.2881 11.0497 29.0296 11.0497C29.5526 11.0497 30.0497 11.1203 30.5248 11.263C30.998 11.4057 31.4128 11.619 31.768 11.9023C32.1232 12.1877 32.4064 12.5397 32.6184 12.961C32.8303 13.3823 32.9379 13.873 32.9379 14.4303H31.932C31.9112 14.0143 31.8198 13.651 31.6572 13.341C31.4945 13.0323 31.2819 12.7737 31.0207 12.5657C30.7588 12.357 30.4574 12.1997 30.1178 12.0937C29.7775 11.987 29.4191 11.9337 29.0438 11.9337C28.6984 11.9337 28.3659 11.971 28.045 12.0477C27.7248 12.123 27.4429 12.2457 27.2024 12.413C26.9587 12.5803 26.7649 12.801 26.6159 13.075C26.4681 13.3503 26.3948 13.6897 26.3948 14.0957C26.3948 14.3503 26.4357 14.5703 26.5199 14.7577C26.6048 14.9457 26.7202 15.1057 26.868 15.237C27.0171 15.3697 27.1862 15.4763 27.3774 15.557C27.5706 15.639 27.7754 15.7043 27.9919 15.755L30.5696 16.4097C30.9442 16.511 31.2968 16.6363 31.6286 16.7823C31.9585 16.9303 32.2502 17.1137 32.5004 17.3317C32.7538 17.5497 32.9502 17.8163 33.0935 18.1303C33.2354 18.4457 33.308 18.8257 33.308 19.273C33.308 19.3943 33.2957 19.557 33.2717 19.7603C33.2464 19.9637 33.1874 20.179 33.0935 20.407C32.9995 20.635 32.8672 20.867 32.6929 21.1003C32.5198 21.3343 32.2839 21.545 31.9825 21.7317C31.6811 21.9203 31.3091 22.073 30.8645 22.189C30.4205 22.3057 29.8884 22.3637 29.2668 22.3637C28.6452 22.3637 28.0671 22.291 27.5343 22.143C27.0022 21.9957 26.5465 21.7703 26.1732 21.465C25.7972 21.1603 25.5082 20.7703 25.3053 20.293C25.1031 19.8163 25.0175 19.2423 25.048 18.5723H26.0539C26.0429 19.131 26.1272 19.5983 26.3054 19.9737Z" fill="#FFFFFE"/>
<path fill-rule="evenodd" clip-rule="evenodd" d="M35.0255 14.293L36.9803 21.0243H37.0089L38.8736 14.293H39.9262L41.7902 21.0243H41.8207L43.7749 14.293H44.7665L42.3101 22.151H41.2879L39.4076 15.5423H39.3778L37.5125 22.151H36.491L34.0332 14.293H35.0255Z" fill="#FFFFFE"/>
<path fill-rule="evenodd" clip-rule="evenodd" d="M45.8472 12.8164H46.7799V11.2784H45.8472V12.8164Z" fill="#FFFFFE"/>
<path fill-rule="evenodd" clip-rule="evenodd" d="M45.8472 22.151H46.7799V14.293H45.8472V22.151Z" fill="#FFFFFE"/>
<path fill-rule="evenodd" clip-rule="evenodd" d="M53.0419 15.823C52.9337 15.605 52.7872 15.4257 52.6057 15.283C52.423 15.141 52.2136 15.0377 51.9757 14.971C51.7385 14.905 51.4877 14.8717 51.22 14.8717C51.0132 14.8717 50.8039 14.895 50.5919 14.941C50.3793 14.9857 50.1842 15.0624 50.0067 15.169C49.8304 15.2757 49.6852 15.4157 49.5769 15.5877C49.4687 15.7604 49.4155 15.9737 49.4155 16.227C49.4155 16.4404 49.4661 16.6217 49.5692 16.7677C49.6735 16.915 49.8051 17.039 49.9626 17.141C50.1201 17.2424 50.2931 17.3264 50.4804 17.3924C50.6684 17.4577 50.8408 17.511 50.999 17.5524L52.2415 17.841C52.5098 17.8817 52.7723 17.9564 53.0348 18.0624C53.2947 18.1697 53.5274 18.3077 53.7296 18.4817C53.9325 18.6537 54.0971 18.867 54.2261 19.121C54.3538 19.375 54.4179 19.6737 54.4179 20.019C54.4179 20.4457 54.3233 20.809 54.1367 21.107C53.95 21.407 53.7095 21.6517 53.4192 21.8384C53.1288 22.027 52.8002 22.1604 52.4346 22.2424C52.0697 22.323 51.7093 22.3637 51.3535 22.3637C50.4565 22.3637 49.728 22.1457 49.1699 21.7097C48.6131 21.2737 48.2955 20.5724 48.2158 19.6077H49.1479C49.1867 20.257 49.4168 20.7477 49.8375 21.0777C50.2568 21.407 50.7773 21.5724 51.3989 21.5724C51.6251 21.5724 51.8591 21.547 52.1028 21.4964C52.3432 21.4457 52.5668 21.359 52.7749 21.237C52.9817 21.1144 53.1528 20.961 53.2856 20.7724C53.4192 20.5844 53.4853 20.3537 53.4853 20.0804C53.4853 19.8457 53.4392 19.6517 53.3459 19.4937C53.2513 19.3364 53.1262 19.2037 52.9674 19.0977C52.8092 18.991 52.6297 18.903 52.4275 18.831C52.2253 18.7604 52.0204 18.6997 51.813 18.649L50.6133 18.375C50.3067 18.293 50.0267 18.199 49.7694 18.0924C49.5134 17.9857 49.2892 17.8544 49.096 17.697C48.9048 17.5397 48.7531 17.3464 48.6449 17.1184C48.536 16.889 48.4822 16.6077 48.4822 16.273C48.4822 15.8764 48.5678 15.537 48.7408 15.253C48.9145 14.9684 49.1381 14.7404 49.4155 14.5684C49.6904 14.3944 49.9989 14.2684 50.3411 14.1864C50.6801 14.1057 51.0178 14.065 51.3535 14.065C51.7385 14.065 52.0976 14.1157 52.4275 14.217C52.7574 14.319 53.0497 14.4764 53.3005 14.6897C53.5527 14.903 53.7529 15.167 53.8994 15.481C54.0492 15.7957 54.1321 16.167 54.1529 16.593H53.2202C53.2098 16.2977 53.1508 16.043 53.0419 15.823Z" fill="#FFFFFE"/>
<path fill-rule="evenodd" clip-rule="evenodd" d="M60.2368 15.823C60.1285 15.605 59.9833 15.4257 59.8012 15.283C59.6178 15.141 59.4084 15.0377 59.1712 14.971C58.934 14.905 58.6831 14.8717 58.4155 14.8717C58.2087 14.8717 57.9987 14.895 57.7868 14.941C57.5748 14.9857 57.3791 15.0624 57.2028 15.169C57.0252 15.2757 56.8806 15.4157 56.7724 15.5877C56.6642 15.7604 56.611 15.9737 56.611 16.227C56.611 16.4404 56.6616 16.6217 56.7653 16.7677C56.8683 16.915 56.9999 17.039 57.1574 17.141C57.3162 17.2424 57.488 17.3264 57.6759 17.3924C57.8639 17.4577 58.0363 17.511 58.1938 17.5524L59.4376 17.841C59.7046 17.8817 59.9671 17.9564 60.2303 18.0624C60.4902 18.1697 60.7229 18.3077 60.9251 18.4817C61.1273 18.6537 61.2926 18.867 61.4222 19.121C61.5493 19.375 61.6128 19.6737 61.6128 20.019C61.6128 20.4457 61.5194 20.809 61.3328 21.107C61.1461 21.407 60.905 21.6517 60.614 21.8384C60.3236 22.027 59.995 22.1604 59.6301 22.2424C59.2645 22.323 58.9048 22.3637 58.5496 22.3637C57.6519 22.3637 56.9228 22.1457 56.3654 21.7097C55.808 21.2737 55.4904 20.5724 55.4106 19.6077H56.344C56.3816 20.257 56.6123 20.7477 57.0323 21.0777C57.4523 21.407 57.9721 21.5724 58.5937 21.5724C58.8205 21.5724 59.0539 21.547 59.2976 21.4964C59.5381 21.4457 59.7623 21.359 59.9697 21.237C60.1771 21.1144 60.3476 20.961 60.4805 20.7724C60.614 20.5844 60.6807 20.3537 60.6807 20.0804C60.6807 19.8457 60.6354 19.6517 60.5407 19.4937C60.4474 19.3364 60.3217 19.2037 60.1622 19.0977C60.0047 18.991 59.8252 18.903 59.623 18.831C59.4207 18.7604 59.2153 18.6997 59.0085 18.649L57.8081 18.375C57.5029 18.293 57.2216 18.199 56.9656 18.0924C56.7082 17.9857 56.484 17.8544 56.2921 17.697C56.1003 17.5397 55.948 17.3464 55.8397 17.1184C55.7315 16.889 55.677 16.6077 55.677 16.273C55.677 15.8764 55.7626 15.537 55.9363 15.253C56.1093 14.9684 56.3336 14.7404 56.611 14.5684C56.8858 14.3944 57.1937 14.2684 57.5359 14.1864C57.8762 14.1057 58.2132 14.065 58.5496 14.065C58.934 14.065 59.2924 14.1157 59.623 14.217C59.9529 14.319 60.2445 14.4764 60.4967 14.6897C60.7481 14.903 60.9478 15.167 61.0956 15.481C61.2446 15.7957 61.3276 16.167 61.3477 16.593H60.4156C60.4046 16.2977 60.3456 16.043 60.2368 15.823Z" fill="#FFFFFE"/>
<defs>
<linearGradient id="paint0_linear_830_5887" x1="14.5" y1="40" x2="107" y2="40" gradientUnits="userSpaceOnUse">
<stop stop-color="#C63733"/>
<stop offset="1" stop-color="#8F2925"/>
</linearGradient>
</defs>
</svg>
