<svg width="120" height="80" viewBox="0 0 120 80" fill="none" xmlns="http://www.w3.org/2000/svg">
<rect width="120" height="80" rx="4" fill="white"/>
<path d="M47.2116 45.5623L47.4872 45.1717C47.8317 44.7138 48.2175 44.6599 48.7825 44.9562C49.3199 45.2391 50.188 45.7239 51.3592 45.7239C52.3513 45.7239 52.9714 45.2795 52.9714 44.5791C52.9714 42.7475 47.2392 43.4343 47.2392 39.5556C47.2392 37.3468 49.2372 36.1751 51.6623 36.1751C53.1919 36.1751 54.2666 36.6599 54.8729 36.9966C55.3965 37.266 55.4654 37.7239 55.2174 38.2357L54.9969 38.6397C54.7214 39.1785 54.2942 39.2323 53.7292 38.9899C53.2332 38.7744 52.4753 38.4377 51.5383 38.4377C50.5462 38.4377 49.9813 38.8418 49.9813 39.5421C49.9813 41.4007 55.6997 40.6734 55.6997 44.5253C55.6997 46.5185 53.9773 48 51.3041 48C49.4439 48 48.1624 47.3131 47.4459 46.8552C46.9223 46.532 46.8809 46.0471 47.2116 45.5623ZM56.678 37.468C56.4989 36.8485 56.8158 36.431 57.4634 36.431H58.552C59.1169 36.431 59.4614 36.7003 59.5717 37.2525L61.4319 43.8519C61.5697 44.4444 61.6523 45.0505 61.6523 45.0505H61.6937C61.6937 45.0505 61.7901 44.4444 61.9417 43.8519L63.8846 37.2525C63.9948 36.7273 64.3531 36.4579 64.9318 36.4579H65.7861C66.3511 36.4579 66.6818 36.7273 66.8196 37.2525L68.7487 43.8519C68.9278 44.4444 68.9967 45.0505 68.9967 45.0505H69.038C69.038 45.0505 69.1207 44.4444 69.2861 43.8519L71.1187 37.2525C71.2565 36.7003 71.5872 36.431 72.1522 36.431H73.1994C73.8746 36.431 74.1639 36.8485 73.9848 37.468L71.0223 46.936C70.8569 47.4747 70.4986 47.7172 69.9613 47.7172H68.4455C67.8806 47.7172 67.5223 47.4478 67.3845 46.9226L65.6621 41.266C65.483 40.6734 65.3865 40.0539 65.3865 40.0539H65.3452C65.3452 40.0539 65.235 40.6734 65.0558 41.266L63.3196 46.9091C63.1818 47.4478 62.8374 47.7037 62.2724 47.7037H60.7016C60.1642 47.7037 59.8197 47.4613 59.6681 46.9226L56.678 37.468ZM75.7072 37.3603C75.7072 36.7542 76.0241 36.431 76.6304 36.431H77.6225C78.2288 36.431 78.5458 36.7542 78.5458 37.3603V46.7879C78.5458 47.4074 78.2288 47.7172 77.6225 47.7172H76.6304C76.0241 47.7172 75.7072 47.4074 75.7072 46.7879V37.3603ZM80.4611 45.5623L80.7367 45.1717C81.0674 44.7138 81.467 44.6599 82.0319 44.9562C82.5693 45.2391 83.4374 45.7239 84.6086 45.7239C85.6008 45.7239 86.2208 45.2795 86.2208 44.5791C86.2208 42.7475 80.5024 43.4343 80.5024 39.5556C80.5024 37.3468 82.4866 36.1751 84.9118 36.1751C86.4551 36.1751 87.5161 36.6599 88.1224 36.9966C88.646 37.266 88.7149 37.7239 88.4668 38.2357L88.2464 38.6397C87.9846 39.1785 87.5436 39.2323 86.9787 38.9899C86.4826 38.7744 85.7385 38.4377 84.7878 38.4377C83.7957 38.4377 83.2307 38.8418 83.2307 39.5421C83.2307 41.4007 88.9491 40.6734 88.9491 44.5253C88.9491 46.5185 87.2267 48 84.5535 48C82.6933 48 81.3981 47.3131 80.7091 46.8552C80.1717 46.532 80.1166 46.0471 80.4611 45.5623ZM90.6302 32.9293C90.6302 32.3367 90.9747 32 91.581 32H92.5455C93.1794 32 93.4963 32.3232 93.4963 32.9293V37.4949C93.4963 38.0471 93.4274 38.4377 93.4274 38.4377H93.4687C94.0337 37.3603 95.4805 36.1616 97.4785 36.1616C100.041 36.1616 101.502 37.468 101.502 40.4579V46.7879C101.502 47.4074 101.158 47.7172 100.551 47.7172H99.573C98.9391 47.7172 98.6222 47.4074 98.6222 46.7879V41.037C98.6222 39.6633 98.2639 38.734 96.8171 38.734C94.8053 38.734 93.4825 40.3367 93.4825 42.4781V46.7879C93.4825 47.4074 93.1656 47.7172 92.5317 47.7172H91.5672C90.9609 47.7172 90.6164 47.4074 90.6164 46.7879V32.9293H90.6302ZM104.589 34.7071C104.85 34.7071 105.002 34.5455 105.002 34.2761C105.002 34.0202 104.85 33.8721 104.589 33.8721H104.175V34.7071H104.589ZM103.693 33.7374C103.693 33.5892 103.762 33.5219 103.913 33.5219H104.685C105.167 33.5219 105.498 33.8182 105.498 34.2896C105.498 34.6801 105.236 34.9091 105.03 34.963V34.9764C105.03 34.9764 105.057 35.0034 105.126 35.1111L105.484 35.7845C105.567 35.9327 105.512 36.0404 105.36 36.0404H105.278C105.154 36.0404 105.071 36 105.016 35.8788L104.616 35.0572H104.189V35.8249C104.189 35.9596 104.12 36.0404 103.982 36.0404H103.913C103.762 36.0404 103.707 35.9731 103.707 35.8249V33.7374H103.693ZM104.533 36.7811C105.65 36.7811 106.49 35.9057 106.49 34.7879C106.49 33.67 105.636 32.7946 104.533 32.7946C103.445 32.7946 102.604 33.67 102.604 34.7879C102.591 35.9057 103.445 36.7811 104.533 36.7811ZM104.533 32.3367C105.911 32.3367 107 33.4276 107 34.7879C106.986 36.1481 105.898 37.2256 104.533 37.2256C103.183 37.2256 102.095 36.1347 102.095 34.7744C102.095 33.4276 103.183 32.3367 104.533 32.3367Z" fill="#4D4D4F"/>
<path fill-rule="evenodd" clip-rule="evenodd" d="M20.9634 52.6367C26.5881 55.3269 33.5298 53.9955 37.7235 48.9987C42.6943 43.076 41.9223 34.2466 35.9991 29.2775L32.0615 33.9692C36.6889 37.8513 37.2921 44.7493 33.4088 49.3764C30.3123 53.0658 25.2141 54.2977 20.9634 52.6367Z" fill="url(#paint0_linear_830_5742)"/>
<path fill-rule="evenodd" clip-rule="evenodd" d="M20.9634 52.6367C26.5881 55.3269 33.5298 53.9955 37.7235 48.9987C38.2372 48.3867 38.6893 47.7436 39.081 47.0771C39.7432 42.9616 38.2868 38.6117 34.8608 35.7376C33.9904 35.0073 33.0482 34.419 32.0621 33.9698C36.689 37.8519 37.2919 44.7495 33.4088 49.3764C30.3123 53.0658 25.2141 54.2977 20.9634 52.6367Z" fill="url(#paint1_linear_830_5742)"/>
<path fill-rule="evenodd" clip-rule="evenodd" d="M33.0367 27.3632C27.412 24.6731 20.4702 26.0044 16.2765 31.0014C11.3058 36.924 12.0778 45.7534 18.0009 50.7225L21.9385 46.0308C17.3111 42.1487 16.708 35.2507 20.5913 30.6236C23.6878 26.9342 28.7859 25.7023 33.0367 27.3632Z" fill="url(#paint2_linear_830_5742)"/>
<path fill-rule="evenodd" clip-rule="evenodd" d="M33.0366 27.3633C27.4119 24.6732 20.4701 26.0045 16.2764 31.0014C15.7628 31.6133 15.3107 32.2563 14.919 32.9229C14.2568 37.0384 15.7132 41.3883 19.1392 44.2625C20.0096 44.9927 20.9519 45.581 21.9378 46.0302C17.311 42.1481 16.708 35.2506 20.5912 30.6237C23.6877 26.9342 28.7858 25.7023 33.0366 27.3633Z" fill="url(#paint3_linear_830_5742)"/>
<defs>
<linearGradient id="paint0_linear_830_5742" x1="31.5274" y1="46.8467" x2="25.579" y2="34.9969" gradientUnits="userSpaceOnUse">
<stop stop-color="#EF3220"/>
<stop offset="1" stop-color="#FCD205"/>
</linearGradient>
<linearGradient id="paint1_linear_830_5742" x1="36.3672" y1="36.6591" x2="25.9394" y2="54.7111" gradientUnits="userSpaceOnUse">
<stop stop-color="#FCD205"/>
<stop offset="0.263921" stop-color="#F47216"/>
<stop offset="0.560797" stop-color="#B31A93"/>
<stop offset="1" stop-color="#2743A0"/>
</linearGradient>
<linearGradient id="paint2_linear_830_5742" x1="22.5877" y1="33.4528" x2="28.289" y2="45.048" gradientUnits="userSpaceOnUse">
<stop stop-color="#7FD3B9"/>
<stop offset="0.265705" stop-color="#66CDE1"/>
<stop offset="0.554471" stop-color="#6D8ED1"/>
<stop offset="1" stop-color="#2743A0"/>
</linearGradient>
<linearGradient id="paint3_linear_830_5742" x1="17.6999" y1="43.259" x2="28.0463" y2="25.2688" gradientUnits="userSpaceOnUse">
<stop stop-color="#1E5CB2"/>
<stop offset="0.246658" stop-color="#4DC4CE"/>
<stop offset="0.564821" stop-color="#66C657"/>
<stop offset="1" stop-color="#FCD205"/>
</linearGradient>
</defs>
</svg>
