<svg width="120" height="80" viewBox="0 0 120 80" fill="none" xmlns="http://www.w3.org/2000/svg">
<rect width="120" height="80" rx="4" fill="white"/>
<path d="M43.3164 42.0645C43.3164 42.4095 43.2513 42.7102 43.1212 42.9667C42.9911 43.2231 42.8145 43.4352 42.5914 43.603C42.3684 43.7709 42.1058 43.8944 41.8038 43.9737C41.5017 44.0529 41.1741 44.0926 40.8209 44.0926C40.4956 44.0926 40.1564 44.0623 39.8032 44.0017C39.45 43.941 39.1387 43.8361 38.8691 43.687C38.897 43.5751 38.9296 43.4585 38.9667 43.3373C39.0039 43.2161 39.0457 43.1042 39.0922 43.0016C39.3803 43.1508 39.687 43.2557 40.0123 43.3163C40.3376 43.3769 40.6722 43.4072 41.0161 43.4072C41.5644 43.4072 41.9548 43.3 42.1871 43.0855C42.4195 42.8711 42.5357 42.5634 42.5357 42.1624C42.5357 41.8547 42.4497 41.6006 42.2778 41.4002C42.1058 41.1997 41.8897 41.0225 41.6295 40.8687C41.3693 40.7148 41.0858 40.5726 40.7791 40.4421C40.4724 40.3115 40.1889 40.1647 39.9287 40.0015C39.6684 39.8383 39.4523 39.6449 39.2804 39.4211C39.1085 39.1973 39.0225 38.9176 39.0225 38.5819C39.0225 38.2555 39.0852 37.9642 39.2107 37.7077C39.3362 37.4513 39.5081 37.2345 39.7265 37.0574C39.9449 36.8802 40.2052 36.745 40.5072 36.6518C40.8093 36.5585 41.1323 36.5119 41.4761 36.5119C41.6899 36.5119 41.9455 36.5282 42.2429 36.5608C42.5403 36.5935 42.8238 36.6471 43.0933 36.7217C43.0933 36.8243 43.0794 36.9455 43.0515 37.0853C43.0236 37.2252 42.9911 37.3464 42.9539 37.449C42.703 37.3557 42.4288 37.2905 42.1314 37.2532C41.834 37.2159 41.5366 37.1972 41.2391 37.1972C40.7651 37.1972 40.4003 37.2998 40.1448 37.5049C39.8892 37.7101 39.7614 38.0411 39.7614 38.498C39.7614 38.7497 39.8497 38.9595 40.0263 39.1274C40.2029 39.2952 40.4213 39.449 40.6815 39.5889C40.9417 39.7288 41.2275 39.8663 41.5389 40.0015C41.8502 40.1367 42.136 40.2952 42.3963 40.4771C42.6565 40.6589 42.8749 40.8757 43.0515 41.1274C43.2281 41.3792 43.3164 41.6915 43.3164 42.0645ZM53.859 36.6937C53.3385 39.2299 52.7065 41.6496 51.963 43.9527H51.2241L49.3838 38.428C49.3374 38.2975 49.2955 38.1553 49.2584 38.0014C49.2212 37.8476 49.1933 37.6774 49.1747 37.4909H49.1329C49.0957 37.8453 49.026 38.1623 48.9238 38.442L47.1254 43.9527H46.3725C46.0194 42.8244 45.6801 41.6333 45.3548 40.3792C45.0295 39.125 44.7461 37.8966 44.5044 36.6937C44.5881 36.6751 44.6996 36.6587 44.839 36.6448C44.9784 36.6308 45.0992 36.6238 45.2015 36.6238L46.5677 42.2184C46.6142 42.3769 46.6514 42.5401 46.6792 42.7079C46.7071 42.8757 46.7304 43.0482 46.749 43.2254H46.7908C46.8187 43.0482 46.8512 42.8757 46.8884 42.7079C46.9255 42.5401 46.972 42.3676 47.0278 42.1904L48.8262 36.6518H49.5232L51.3774 42.2184C51.4239 42.3769 51.4657 42.5354 51.5029 42.6939C51.5401 42.8524 51.5726 43.0296 51.6005 43.2254H51.6423C51.6609 43.0389 51.6888 42.8641 51.726 42.7009C51.7631 42.5377 51.805 42.3676 51.8514 42.1904L53.1898 36.6238C53.4314 36.6238 53.6545 36.6471 53.859 36.6937ZM55.6743 43.9527V36.6518H56.4132V43.9527H55.6743ZM56.5248 34.5258C56.5248 34.6843 56.4829 34.8102 56.3993 34.9034C56.3156 34.9967 56.1948 35.0433 56.0368 35.0433C55.8788 35.0433 55.7603 34.9944 55.6813 34.8964C55.6023 34.7985 55.5628 34.675 55.5628 34.5258C55.5628 34.3766 55.6046 34.2507 55.6883 34.1482C55.7719 34.0456 55.8928 33.9943 56.0508 33.9943C56.2088 33.9943 56.3273 34.0456 56.4063 34.1482C56.4853 34.2507 56.5248 34.3766 56.5248 34.5258ZM62.7316 42.0645C62.7316 42.4095 62.6666 42.7102 62.5365 42.9667C62.4063 43.2231 62.2297 43.4352 62.0067 43.603C61.7836 43.7709 61.5211 43.8944 61.219 43.9737C60.9169 44.0529 60.5893 44.0926 60.2362 44.0926C59.9109 44.0926 59.5716 44.0623 59.2184 44.0017C58.8653 43.941 58.5539 43.8361 58.2844 43.687C58.3123 43.5751 58.3448 43.4585 58.382 43.3373C58.4191 43.2161 58.461 43.1042 58.5074 43.0016C58.7956 43.1508 59.1023 43.2557 59.4276 43.3163C59.7529 43.3769 60.0874 43.4072 60.4313 43.4072C60.9797 43.4072 61.37 43.3 61.6024 43.0855C61.8347 42.8711 61.9509 42.5634 61.9509 42.1624C61.9509 41.8547 61.8649 41.6006 61.693 41.4002C61.5211 41.1997 61.305 41.0225 61.0447 40.8687C60.7845 40.7148 60.501 40.5726 60.1943 40.4421C59.8876 40.3115 59.6042 40.1647 59.3439 40.0015C59.0837 39.8383 58.8676 39.6449 58.6957 39.4211C58.5237 39.1973 58.4377 38.9176 58.4377 38.5819C58.4377 38.2555 58.5005 37.9642 58.6259 37.7077C58.7514 37.4513 58.9234 37.2345 59.1418 37.0574C59.3602 36.8802 59.6204 36.745 59.9225 36.6518C60.2245 36.5585 60.5475 36.5119 60.8914 36.5119C61.1052 36.5119 61.3607 36.5282 61.6582 36.5608C61.9556 36.5935 62.239 36.6471 62.5086 36.7217C62.5086 36.8243 62.4946 36.9455 62.4667 37.0853C62.4389 37.2252 62.4063 37.3464 62.3692 37.449C62.1182 37.3557 61.844 37.2905 61.5466 37.2532C61.2492 37.2159 60.9518 37.1972 60.6544 37.1972C60.1804 37.1972 59.8156 37.2998 59.56 37.5049C59.3044 37.7101 59.1766 38.0411 59.1766 38.498C59.1766 38.7497 59.2649 38.9595 59.4415 39.1274C59.6181 39.2952 59.8365 39.449 60.0967 39.5889C60.357 39.7288 60.6428 39.8663 60.9541 40.0015C61.2655 40.1367 61.5513 40.2952 61.8115 40.4771C62.0717 40.6589 62.2902 40.8757 62.4667 41.1274C62.6433 41.3792 62.7316 41.6915 62.7316 42.0645ZM68.4366 42.0645C68.4366 42.4095 68.3716 42.7102 68.2414 42.9667C68.1113 43.2231 67.9347 43.4352 67.7117 43.603C67.4886 43.7709 67.226 43.8944 66.924 43.9737C66.6219 44.0529 66.2943 44.0926 65.9411 44.0926C65.6158 44.0926 65.2766 44.0623 64.9234 44.0017C64.5702 43.941 64.2589 43.8361 63.9894 43.687C64.0172 43.5751 64.0498 43.4585 64.087 43.3373C64.1241 43.2161 64.166 43.1042 64.2124 43.0016C64.5005 43.1508 64.8072 43.2557 65.1325 43.3163C65.4578 43.3769 65.7924 43.4072 66.1363 43.4072C66.6847 43.4072 67.075 43.3 67.3074 43.0855C67.5397 42.8711 67.6559 42.5634 67.6559 42.1624C67.6559 41.8547 67.5699 41.6006 67.398 41.4002C67.226 41.1997 67.01 41.0225 66.7497 40.8687C66.4895 40.7148 66.206 40.5726 65.8993 40.4421C65.5926 40.3115 65.3091 40.1647 65.0489 40.0015C64.7887 39.8383 64.5726 39.6449 64.4006 39.4211C64.2287 39.1973 64.1427 38.9176 64.1427 38.5819C64.1427 38.2555 64.2055 37.9642 64.3309 37.7077C64.4564 37.4513 64.6283 37.2345 64.8467 37.0574C65.0652 36.8802 65.3254 36.745 65.6275 36.6518C65.9295 36.5585 66.2525 36.5119 66.5964 36.5119C66.8101 36.5119 67.0657 36.5282 67.3631 36.5608C67.6606 36.5935 67.944 36.6471 68.2136 36.7217C68.2136 36.8243 68.1996 36.9455 68.1717 37.0853C68.1438 37.2252 68.1113 37.3464 68.0741 37.449C67.8232 37.3557 67.549 37.2905 67.2516 37.2532C66.9542 37.2159 66.6568 37.1972 66.3594 37.1972C65.8854 37.1972 65.5206 37.2998 65.265 37.5049C65.0094 37.7101 64.8816 38.0411 64.8816 38.498C64.8816 38.7497 64.9699 38.9595 65.1465 39.1274C65.3231 39.2952 65.5415 39.449 65.8017 39.5889C66.062 39.7288 66.3478 39.8663 66.6591 40.0015C66.9705 40.1367 67.2563 40.2952 67.5165 40.4771C67.7767 40.6589 67.9951 40.8757 68.1717 41.1274C68.3483 41.3792 68.4366 41.6915 68.4366 42.0645ZM76.1909 40.0225C76.1909 41.3279 75.9052 42.3326 75.3336 43.0366C74.762 43.7406 73.9557 44.0926 72.9148 44.0926C72.3664 44.0926 71.8529 44.0273 71.3743 43.8968C70.8956 43.7662 70.4658 43.5518 70.0847 43.2534V33.6586C70.3078 33.6307 70.5657 33.605 70.8584 33.5817C71.1512 33.5584 71.4231 33.5468 71.674 33.5468V37.2811H71.7576C72.0551 36.9828 72.3455 36.78 72.629 36.6727C72.9124 36.5655 73.2261 36.5119 73.57 36.5119C73.9418 36.5119 74.2857 36.5748 74.6017 36.7007C74.9177 36.8266 75.1941 37.0294 75.4311 37.3091C75.6682 37.5888 75.854 37.9525 75.9888 38.4001C76.1236 38.8476 76.1909 39.3884 76.1909 40.0225ZM74.4901 40.1763C74.4901 39.7381 74.4599 39.3745 74.3995 39.0854C74.3391 38.7963 74.2508 38.5656 74.1346 38.3931C74.0184 38.2206 73.8721 38.0994 73.6955 38.0294C73.5189 37.9595 73.3144 37.9245 73.0821 37.9245C72.5337 37.9245 72.0644 38.0924 71.674 38.428V42.4002C71.8227 42.5028 71.9993 42.5797 72.2038 42.631C72.4082 42.6823 72.6174 42.7079 72.8311 42.7079C73.4074 42.7079 73.8279 42.5191 74.0928 42.1414C74.3577 41.7638 74.4901 41.1088 74.4901 40.1763ZM79.3726 34.7076C79.3726 34.9594 79.2959 35.1785 79.1425 35.365C78.9892 35.5515 78.7592 35.6447 78.4525 35.6447C78.155 35.6447 77.932 35.5491 77.7833 35.358C77.6346 35.1669 77.5602 34.9501 77.5602 34.7076C77.5602 34.4652 77.6346 34.2437 77.7833 34.0433C77.932 33.8428 78.1597 33.7426 78.4664 33.7426C78.7731 33.7426 79.0008 33.8405 79.1495 34.0363C79.2982 34.2321 79.3726 34.4559 79.3726 34.7076ZM77.6717 43.9527V36.6518H79.261V43.9527H77.6717ZM81.2158 43.9527V33.6586C81.4389 33.6307 81.6968 33.605 81.9896 33.5817C82.2823 33.5584 82.5542 33.5468 82.8051 33.5468V43.9527H81.2158ZM84.7599 43.9527V33.6586C84.983 33.6307 85.2409 33.605 85.5337 33.5817C85.8264 33.5584 86.0983 33.5468 86.3492 33.5468V43.9527H84.7599ZM90.0049 34.7076C90.0049 34.9594 89.9282 35.1785 89.7748 35.365C89.6215 35.5515 89.3914 35.6447 89.0847 35.6447C88.7873 35.6447 88.5643 35.5491 88.4156 35.358C88.2669 35.1669 88.1925 34.9501 88.1925 34.7076C88.1925 34.4652 88.2669 34.2437 88.4156 34.0433C88.5643 33.8428 88.792 33.7426 89.0987 33.7426C89.4054 33.7426 89.6331 33.8405 89.7818 34.0363C89.9305 34.2321 90.0049 34.4559 90.0049 34.7076ZM88.304 43.9527V36.6518H89.8933V43.9527H88.304ZM96.0444 43.9527V38.9036C96.0444 38.5865 95.9678 38.3441 95.8144 38.1763C95.661 38.0084 95.3753 37.9245 94.957 37.9245C94.3994 37.9245 93.8928 38.083 93.4374 38.4001V43.9527H91.8481V36.7077C92.0712 36.6797 92.3291 36.6564 92.6219 36.6378C92.9146 36.6191 93.1865 36.6098 93.4374 36.6098V37.3371H93.5211C93.8835 37.0014 94.2251 36.78 94.5458 36.6727C94.8664 36.5655 95.194 36.5119 95.5286 36.5119C95.8074 36.5119 96.0746 36.5515 96.3302 36.6308C96.5858 36.71 96.8112 36.8359 97.0064 37.0084C97.2015 37.1809 97.3549 37.4117 97.4664 37.7007C97.578 37.9898 97.6337 38.3441 97.6337 38.7637V43.9527H96.0444ZM105.304 44.3583C105.304 44.7406 105.237 45.0926 105.102 45.4143C104.967 45.736 104.763 46.0134 104.489 46.2465C104.215 46.4796 103.873 46.6591 103.464 46.785C103.055 46.9108 102.572 46.9738 102.014 46.9738C101.466 46.9738 101.004 46.9178 100.627 46.8059C100.251 46.694 99.9487 46.5425 99.721 46.3514C99.4933 46.1602 99.3306 45.9364 99.233 45.68C99.1354 45.4236 99.0866 45.1462 99.0866 44.8478C99.0866 44.5588 99.1424 44.3094 99.2539 44.0996C99.3655 43.8898 99.5328 43.673 99.7558 43.4492C99.6722 43.3 99.5908 43.1438 99.5118 42.9806C99.4328 42.8175 99.3701 42.652 99.3236 42.4841C99.3515 42.3815 99.391 42.2533 99.4421 42.0995C99.4933 41.9456 99.5537 41.7848 99.6234 41.617C99.6931 41.4491 99.7698 41.2859 99.8534 41.1274C99.9371 40.9689 100.025 40.8291 100.118 40.7078C99.8673 40.5213 99.6675 40.2812 99.5188 39.9875C99.3701 39.6938 99.2958 39.3511 99.2958 38.9595C99.2958 38.2322 99.5235 37.6425 99.9789 37.1902C100.434 36.738 101.076 36.5119 101.903 36.5119C102.089 36.5119 102.291 36.5235 102.509 36.5469C102.728 36.5702 102.925 36.6051 103.102 36.6518H105.263C105.263 36.8382 105.256 37.0317 105.242 37.2322C105.228 37.4327 105.198 37.6261 105.151 37.8126L104.329 37.8965L104.315 37.9665C104.408 38.097 104.475 38.2462 104.517 38.414C104.559 38.5819 104.579 38.759 104.579 38.9455C104.579 39.3465 104.517 39.6938 104.391 39.9875C104.266 40.2812 104.092 40.5213 103.868 40.7078C103.645 40.8943 103.381 41.0342 103.074 41.1274C102.767 41.2207 102.433 41.2673 102.07 41.2673C101.893 41.2673 101.722 41.2533 101.554 41.2253C101.387 41.1974 101.238 41.1694 101.108 41.1414C100.978 41.3186 100.892 41.4817 100.85 41.6309C100.808 41.7801 100.787 41.892 100.787 41.9666C100.787 42.1251 100.822 42.2347 100.892 42.2953C100.962 42.3559 101.071 42.3862 101.22 42.3862H103.213C103.529 42.3862 103.817 42.4165 104.078 42.4771C104.338 42.5377 104.559 42.6426 104.74 42.7918C104.921 42.941 105.06 43.1438 105.158 43.4002C105.256 43.6567 105.304 43.976 105.304 44.3583ZM103.799 44.5122C103.799 44.2324 103.748 44.0506 103.645 43.9667C103.543 43.8828 103.367 43.8408 103.116 43.8408H100.704C100.629 43.934 100.578 44.0483 100.55 44.1835C100.523 44.3187 100.509 44.4376 100.509 44.5401C100.509 44.9504 100.622 45.2395 100.85 45.4073C101.078 45.5751 101.498 45.659 102.112 45.659C102.642 45.659 103.055 45.5728 103.353 45.4003C103.65 45.2278 103.799 44.9318 103.799 44.5122ZM103.144 38.8756C103.144 38.4094 103.037 38.0854 102.823 37.9035C102.609 37.7217 102.326 37.6308 101.972 37.6308C101.192 37.6308 100.801 38.0457 100.801 38.8756C100.801 39.3232 100.901 39.6425 101.101 39.8337C101.301 40.0248 101.591 40.1204 101.972 40.1204C102.335 40.1204 102.621 40.0272 102.83 39.8407C103.039 39.6542 103.144 39.3325 103.144 38.8756Z" fill="#E11A27"/>
<path d="M14.6958 40C14.6958 46.2132 19.7326 51.25 25.9458 51.25C32.159 51.25 37.1958 46.2132 37.1958 40C37.1958 33.7868 32.159 28.75 25.9458 28.75C19.7326 28.75 14.6958 33.7868 14.6958 40Z" fill="#E11A27"/>
<path d="M18.5397 40.5878C18.9553 40.1722 19.6291 40.1722 20.0447 40.5878L22.9051 43.4482L31.344 35.0093C31.7595 34.5937 32.4334 34.5937 32.8489 35.0093C33.2645 35.4249 33.2645 36.0987 32.8489 36.5143L23.6576 45.7057C23.242 46.1213 22.5682 46.1213 22.1526 45.7057L18.5397 42.0928C18.1241 41.6772 18.1241 41.0034 18.5397 40.5878Z" fill="white"/>
</svg>
