<svg width="120" height="80" viewBox="0 0 120 80" fill="none" xmlns="http://www.w3.org/2000/svg">
<rect width="120" height="80" rx="4" fill="white"/>
<path d="M25.3917 30.5908L28.6785 40.1933L31.9009 30.5908H35.7033L30.032 44.8336H27.1963L21.5249 30.5908H25.3917Z" fill="#FF5B24"/>
<path d="M44.2748 42.5779C46.6593 42.5779 48.0127 41.4179 49.3017 39.7423C50.0106 38.84 50.9129 38.6467 51.5574 39.1622C52.2018 39.6778 52.2663 40.6445 51.5574 41.5468C49.6883 43.9958 47.3038 45.478 44.2748 45.478C40.988 45.478 38.0879 43.6735 36.09 40.5156C35.51 39.6778 35.6389 38.7755 36.2833 38.3244C36.9278 37.8733 37.8945 38.0666 38.4745 38.9689C39.8924 41.0956 41.8258 42.5779 44.2748 42.5779ZM48.7217 34.6509C48.7217 35.811 47.8194 36.5843 46.7883 36.5843C45.7571 36.5843 44.8549 35.811 44.8549 34.6509C44.8549 33.4908 45.7571 32.7175 46.7883 32.7175C47.8194 32.7175 48.7217 33.5553 48.7217 34.6509Z" fill="#FF5B24"/>
<path d="M57.8087 30.5908V32.5242C58.7755 31.1708 60.2578 30.204 62.449 30.204C65.2202 30.204 68.4425 32.5242 68.4425 37.4866C68.4425 42.7068 65.349 45.2202 62.1267 45.2202C60.4511 45.2202 58.9043 44.5758 57.7443 42.9647V49.796H54.2641V30.5908H57.8087ZM57.8087 37.6799C57.8087 40.5801 59.4843 42.1268 61.3534 42.1268C63.1578 42.1268 64.9624 40.709 64.9624 37.6799C64.9624 34.7154 63.1578 33.2975 61.3534 33.2975C59.5488 33.2975 57.8087 34.6509 57.8087 37.6799Z" fill="#FF5B24"/>
<path d="M74.565 30.5908V32.5242C75.5317 31.1708 77.014 30.204 79.2053 30.204C81.9765 30.204 85.1988 32.5242 85.1988 37.4866C85.1988 42.7068 82.1053 45.2202 78.883 45.2202C77.2074 45.2202 75.6606 44.5758 74.5005 42.9647V49.796H71.0204V30.5908H74.565ZM74.565 37.6799C74.565 40.5801 76.2406 42.1268 78.1097 42.1268C79.9141 42.1268 81.7187 40.709 81.7187 37.6799C81.7187 34.7154 79.9141 33.2975 78.1097 33.2975C76.2406 33.2975 74.565 34.6509 74.565 37.6799Z" fill="#FF5B24"/>
<path d="M92.6102 30.204C95.5106 30.204 97.5729 31.5574 98.4749 34.9087L95.3174 35.4243C95.2524 33.7487 94.2213 33.1687 92.6747 33.1687C91.5146 33.1687 90.6123 33.6842 90.6123 34.522C90.6123 35.1665 91.0635 35.811 92.4169 36.0687L94.8018 36.5199C97.1214 36.971 98.4108 38.5177 98.4108 40.5801C98.4108 43.6735 95.6389 45.2202 92.9969 45.2202C90.2257 45.2202 87.1322 43.8024 86.681 40.3223L89.839 39.8067C90.0323 41.6112 91.1279 42.2557 92.9324 42.2557C94.2863 42.2557 95.1883 41.7401 95.1883 40.9023C95.1883 40.129 94.7368 39.5489 93.2547 39.2912L91.0635 38.9044C88.7434 38.4533 87.3255 36.8421 87.3255 34.7798C87.39 31.5574 90.2901 30.204 92.6102 30.204Z" fill="#FF5B24"/>
</svg>
