<svg width="120" height="80" viewBox="0 0 120 80" fill="none" xmlns="http://www.w3.org/2000/svg">
<rect width="120" height="80" rx="4" fill="white"/>
<path d="M73.2397 56.5749C73.3943 56.5493 73.685 56.5139 74.1093 56.5139C75.2631 56.5139 75.9244 57.0591 75.9244 58.0102C75.9244 59.0356 75.2281 59.624 74.0135 59.624C73.7781 59.624 73.4812 59.6156 73.2397 59.5535V56.5749ZM74.1303 55.8092C73.6062 55.8092 73.0794 55.8556 72.5652 55.949L72.4497 55.9695V63.3045H73.2397V60.2803C73.4528 60.32 73.6885 60.3286 73.9712 60.3286C74.9189 60.3286 75.7031 60.0294 76.179 59.4862C76.539 59.0907 76.7145 58.5908 76.7145 57.9571C76.7145 57.3385 76.5089 56.8185 76.1199 56.4539C75.6873 56.0322 74.9996 55.8092 74.1303 55.8092Z" fill="#222222"/>
<path d="M85.8919 57.9234L84.6149 61.3183C84.5129 61.5845 84.4225 61.8497 84.3464 62.0757C84.2652 61.8285 84.1757 61.5754 84.0894 61.348L82.7506 58.012L82.716 57.9234H81.8714L83.8401 62.8445C83.8929 62.9785 83.8937 63.0156 83.8937 63.0156C83.8937 63.0495 83.8662 63.1212 83.841 63.1845C83.5868 63.7873 83.2551 64.1914 83.0221 64.4242C82.7027 64.7323 82.3561 64.8902 82.1784 64.9569L82.0353 65.0095L82.4088 65.6554L82.4852 65.6266C82.6193 65.5757 82.9748 65.4212 83.3708 65.0875C84.0503 64.4946 84.4799 63.5939 85.1304 61.9203L86.7396 57.9234H85.8919Z" fill="#222222"/>
<path d="M80.1643 61.5279C80.1643 61.5953 80.1565 61.6957 80.119 61.7911C79.9659 62.238 79.5243 62.7163 78.7428 62.7163C78.3362 62.7163 77.8619 62.4748 77.8619 61.7938C77.8619 61.4999 77.958 61.2572 78.148 61.0726C78.4922 60.7391 79.1375 60.5702 80.0666 60.5702L80.1634 60.5708L80.1643 61.5279ZM80.9543 61.953V59.9554C80.9543 58.5493 80.2962 57.8066 79.0508 57.8066C78.5316 57.8066 77.9661 57.9639 77.5372 58.2278L77.4575 58.2776L77.7971 58.8643L77.8815 58.8116C78.1929 58.618 78.5889 58.5114 78.9971 58.5114H79.016C79.3664 58.5114 79.6396 58.6058 79.8275 58.7913C80.0539 59.0155 80.1639 59.3683 80.1643 59.8672C78.9448 59.8714 78.064 60.1331 77.5455 60.6461C77.2171 60.9711 77.0508 61.3857 77.0508 61.8785C77.0508 62.6218 77.5635 63.4213 78.6887 63.4213C79.4746 63.4213 79.9769 63.0423 80.24 62.764L80.2943 63.3048H81.0533L81.0272 63.1421C80.9631 62.7478 80.9543 62.3379 80.9543 61.953Z" fill="#222222"/>
<path d="M40.1196 59.9908L39.9602 60.5577C39.8267 61.0302 39.7086 61.4484 39.6068 61.8603C39.4771 61.2522 39.2971 60.5723 39.1358 59.9723L38.0649 55.9331L38.0456 55.8619H37.3435L36.1456 59.9989C35.9315 60.6985 35.7411 61.3299 35.6076 61.8828C35.505 61.4456 35.3816 60.9587 35.2521 60.4472L34.0902 55.9331L34.0714 55.8619H33.2607L35.2072 63.2322L35.226 63.3048H35.9165L37.1686 59.0819C37.3865 58.362 37.5515 57.7964 37.6706 57.3016C37.7768 57.8238 37.925 58.397 38.1102 59.0766L39.192 63.2327L39.2113 63.3048H39.9121L42.1057 55.9861L42.1436 55.8619H41.329L40.1196 59.9908Z" fill="#222222"/>
<path d="M42.9317 59.9105C43.1288 58.8019 43.8565 58.4048 44.4796 58.4048C44.8753 58.4048 45.1929 58.5242 45.4243 58.7597C45.7661 59.1067 45.8436 59.6106 45.8571 59.9105H42.9317ZM44.5436 57.7002C43.0869 57.7002 42.1086 58.867 42.1086 60.6035C42.1086 62.2192 43.1214 63.3048 44.6288 63.3048C45.5762 63.3048 46.1145 63.0614 46.3016 62.9573L46.4173 62.8931L46.076 62.3019L45.9955 62.3385C45.7288 62.4624 45.3657 62.5887 44.6926 62.5887C43.5888 62.5887 42.9338 61.8626 42.8897 60.5943H46.6221L46.6464 60.4845C46.6706 60.3741 46.6706 60.2931 46.6706 60.1458C46.6706 59.9472 46.6428 59.2517 46.2836 58.6471C45.91 58.0184 45.3245 57.7002 44.5436 57.7002Z" fill="#222222"/>
<path d="M52.8041 62.321C52.4132 62.5012 51.8646 62.6088 51.3372 62.6088C49.5816 62.6088 48.5339 61.4989 48.5339 59.6402C48.5339 57.7104 49.6128 56.5578 51.42 56.5578C51.9199 56.5578 52.3952 56.6522 52.7583 56.8228L52.8366 56.8595L53.1897 56.2475L53.0843 56.189C52.9446 56.1127 52.4121 55.863 51.4097 55.863C49.2186 55.863 47.7461 57.3768 47.7461 59.6296C47.7461 62.3412 49.592 63.3037 51.1725 63.3037C52.063 63.3037 52.7573 63.1149 53.1109 62.9387L53.2254 62.8806L52.8817 62.2856L52.8041 62.321Z" fill="#222222"/>
<path d="M56.8701 57.8067C56.4716 57.8067 56.0898 57.9165 55.769 58.1225C55.5846 58.2285 55.4129 58.3741 55.2668 58.5485V55.7447H54.4768V63.3048H55.2668V60.0509C55.2668 59.8559 55.2753 59.7303 55.3228 59.5871C55.5439 58.9668 56.1234 58.5329 56.7317 58.5329C57.8307 58.5329 57.9944 59.5436 57.9944 60.1467V63.3048H58.7849V60.0935C58.7849 57.9168 57.1893 57.8067 56.8701 57.8067Z" fill="#222222"/>
<path d="M66.2943 56.7776H65.5039V57.973H64.6432V58.618H65.5039V61.6983C65.5039 62.3118 65.6185 62.7408 65.8523 63.0064C66.0643 63.2778 66.4041 63.4211 66.8343 63.4211C67.133 63.4211 67.3914 63.3744 67.6027 63.282L67.7294 63.2269L67.3977 62.652L67.3294 62.667C67.2095 62.6925 67.0646 62.7058 66.8985 62.7058C66.475 62.7058 66.2943 62.4329 66.2943 61.7937V58.618H67.7502V57.973H66.2943V56.7776Z" fill="#222222"/>
<path d="M61.178 61.0725C61.5214 60.7392 62.1673 60.5703 63.0968 60.5703L63.1931 60.5709L63.1946 61.5278C63.1946 61.5951 63.1867 61.6951 63.1486 61.7913C62.9962 62.2384 62.5546 62.7166 61.7722 62.7166C61.366 62.7166 60.8916 62.4747 60.8916 61.7937C60.8916 61.4998 60.9879 61.2571 61.178 61.0725ZM63.9844 61.9529V59.9552C63.9844 58.5495 63.3262 57.8067 62.0802 57.8067C61.5297 57.8067 60.9403 57.9778 60.5056 58.2644L60.424 58.3134L60.7674 58.9069L60.8532 58.8491C61.1727 58.6311 61.5897 58.5114 62.027 58.5114H62.0453C62.3967 58.5114 62.6695 58.6057 62.8572 58.7915C63.084 59.0158 63.1942 59.3682 63.1946 59.8671C61.9744 59.8712 61.0934 60.1328 60.5749 60.646C60.2468 60.971 60.0806 61.386 60.0806 61.8786C60.0806 62.6219 60.5934 63.4212 61.719 63.4212C62.5042 63.4212 63.0064 63.0418 63.2698 62.7639L63.3239 63.3047H64.0828L64.0569 63.1427C63.9931 62.7493 63.9844 62.3384 63.9844 61.9529Z" fill="#222222"/>
<path d="M54.7867 35.6905C54.6142 35.7776 54.4195 35.8281 54.2128 35.8281C53.735 35.8281 53.3191 35.5646 53.1008 35.1759L53.0175 34.9927L49.5359 27.3531C49.4984 27.2702 49.4749 27.1763 49.4749 27.0847C49.4749 26.7324 49.7604 26.4471 50.1125 26.4471C50.2555 26.4471 50.3874 26.4941 50.494 26.5739L54.6018 29.4988C54.9024 29.6951 55.2607 29.8102 55.6465 29.8102C55.8769 29.8102 56.0959 29.7676 56.3007 29.6929L75.6211 21.0937C72.1581 17.012 66.4546 14.3447 60.0001 14.3447C49.438 14.3447 40.8765 21.4795 40.8765 30.2814C40.8765 35.0835 43.4523 39.4062 47.4839 42.3275C47.8078 42.5585 48.0194 42.9376 48.0194 43.366C48.0194 43.5074 47.9893 43.6373 47.9524 43.7721C47.6302 44.9734 47.1149 46.8967 47.0902 46.9868C47.0505 47.1373 46.9876 47.2946 46.9876 47.453C46.9876 47.8046 47.2732 48.0902 47.6253 48.0902C47.7637 48.0902 47.8765 48.0389 47.9935 47.9715L52.1802 45.5544C52.4952 45.3725 52.8286 45.2602 53.1956 45.2602C53.3912 45.2602 53.5801 45.2901 53.7577 45.3444C55.7109 45.9061 57.818 46.2183 60.0001 46.2183C70.5617 46.2183 79.1236 39.0831 79.1236 30.2814C79.1236 27.6155 78.3342 25.1046 76.9457 22.8966L54.9262 35.61L54.7867 35.6905Z" fill="#14AB39"/>
</svg>
