<svg xmlns="http://www.w3.org/2000/svg" xmlns:xlink="http://www.w3.org/1999/xlink" width="120" height="80"><defs><linearGradient id="a" x1="87.55" x2="82.31" y1="15.45" y2="21.86" gradientTransform="translate(0 24)" gradientUnits="userSpaceOnUse"><stop offset=".02" stop-color="#1d1c1c" stop-opacity="0"/><stop offset=".68" stop-color="#1d1c1c"/></linearGradient><linearGradient xlink:href="#a" id="b" x1="78.41" x2="83.78" y1="16.81" y2="11.5"/></defs><rect width="120" height="80" fill="#fff48d" rx="4" ry="4"/><path fill="#1d1c1c" d="M83.032 40.24c0-5.753 4.089-11.007 11.174-11.007s11.211 5.254 11.211 11.008-4.088 11.007-11.21 11.007-11.175-5.254-11.175-11.007m16.17 0c0-2.775-1.832-5.328-4.977-5.328s-4.977 2.571-4.977 5.328 1.869 5.346 4.977 5.346 4.976-2.571 4.976-5.346m-20.516 4.088c2.35-1.35 3.774-3.903 3.774-6.734 0-4.2-3.034-7.788-7.752-7.788H64.81v20.886h6.142v-5.328h1.147l3.515 5.328h7.215l-4.126-6.345Zm-5.217-3.792h-2.535v-5.902h2.572c1.646 0 2.72 1.35 2.72 2.96s-1.092 2.96-2.739 2.96ZM36.801 29.77l-3.682 12.45-3.589-12.45h-4.884L21.02 42.22l-3.644-12.45h-6.475l7.418 20.849h5.328l3.441-11.34 3.404 11.34h5.347l7.418-20.85h-6.475Zm15.762 15.762c-2.294 0-3.904-1.388-4.588-3.22h15.577c.13-.684.185-1.387.185-2.108 0-5.735-4.089-10.99-11.174-10.99v5.662c2.312 0 3.903 1.387 4.588 3.219H41.592c-.129.684-.185 1.387-.185 2.109 0 5.753 4.089 10.989 11.156 10.989z"/><path fill="url(#a)" d="M83.37 46.04h.38c.77-.04 1.48-.2 2.11-.45s1.18-.6 1.65-1.03c.47-.42.86-.92 1.16-1.47.27-.5.47-1.04.6-1.6h-3.51c-.07.15-.16.29-.25.43-.13.18-.28.35-.46.49a2.46 2.46 0 0 1-1.28.55c-.12.02-.25.03-.38.03-.79 0-1.43-.3-1.89-.78l-2.28 2.31c1.01.94 2.42 1.53 4.17 1.53Z" transform="translate(-101.69 -34)scale(1.85)"/><path fill="url(#b)" d="M83.37 34.17c-3.24 0-5.32 2.04-5.88 4.55h3.5c.42-.87 1.24-1.49 2.38-1.49.91 0 1.61.39 2.07.98l2.3-2.33c-1.03-1.04-2.51-1.71-4.37-1.71" transform="translate(-101.69 -34)scale(1.85)"/></svg>