<?xml version="1.0" encoding="UTF-8"?>
<svg width="305px" height="162px" viewBox="0 0 305 162" version="1.1" xmlns="http://www.w3.org/2000/svg" xmlns:xlink="http://www.w3.org/1999/xlink">
    <!-- Generator: Sketch 53.2 (72643) - https://sketchapp.com -->
    <title>datatrans_security-logos_02</title>
    <desc>Created with Sketch.</desc>
    <g id="Page-1" stroke="none" stroke-width="1" fill="none" fill-rule="evenodd">
        <g id="datatrans_security-logos_v01" transform="translate(-764.000000, -124.000000)">
            <g id="datatrans_security-Logos_v01_02" transform="translate(740.000000, 100.000000)">
                <g id="Group" stroke-width="1" fill-rule="evenodd" transform="translate(24.000000, 24.000000)">
                    <rect id="Rectangle" fill="#213D62" x="0" y="0" width="305" height="124" rx="3"></rect>
                    <path d="M35.198,24.812 L33.746,26.176 C33.416,25.714 32.932,25.318 32.294,24.988 C31.656,24.658 30.974,24.504 30.248,24.504 C29.412,24.504 28.752,24.68 28.246,25.032 C27.74,25.384 27.498,25.846 27.498,26.418 C27.498,26.902 27.696,27.32 28.092,27.65 C28.488,27.98 28.972,28.244 29.566,28.42 C30.16,28.596 30.798,28.816 31.48,29.058 C32.162,29.3 32.8,29.564 33.394,29.85 C33.988,30.136 34.472,30.554 34.868,31.126 C35.264,31.698 35.462,32.358 35.462,33.128 C35.462,34.382 35,35.394 34.054,36.164 C33.108,36.934 31.854,37.308 30.292,37.308 C27.872,37.308 26.09,36.516 24.968,34.91 L26.398,33.568 C27.344,34.822 28.642,35.438 30.292,35.438 C31.238,35.438 31.986,35.24 32.514,34.844 C33.042,34.448 33.306,33.92 33.306,33.26 C33.306,32.622 33.042,32.116 32.492,31.72 C31.942,31.324 31.282,31.016 30.512,30.774 C29.742,30.532 28.972,30.268 28.202,29.982 C27.432,29.696 26.772,29.256 26.222,28.662 C25.672,28.068 25.408,27.32 25.408,26.418 C25.408,25.296 25.87,24.372 26.772,23.668 C27.674,22.964 28.862,22.612 30.336,22.612 C31.392,22.612 32.36,22.81 33.218,23.228 C34.076,23.646 34.736,24.174 35.198,24.812 Z M43.03,37.264 L43.052,37.308 C41.468,37.308 40.148,36.78 39.092,35.702 C38.036,34.624 37.508,33.304 37.508,31.742 C37.508,30.202 38.014,28.904 39.004,27.826 C39.994,26.748 41.226,26.22 42.7,26.22 C44.174,26.22 45.406,26.726 46.396,27.76 C47.386,28.794 47.892,30.048 47.892,31.544 C47.892,31.852 47.87,32.094 47.826,32.248 L39.466,32.248 C39.576,33.216 39.972,34.008 40.632,34.624 C41.292,35.24 42.106,35.548 43.096,35.548 C44.284,35.548 45.274,35.152 46.044,34.382 L47.078,35.724 C46.638,36.186 46.066,36.56 45.34,36.846 C44.614,37.132 43.844,37.264 43.03,37.264 Z M42.766,27.914 L42.766,27.892 C41.93,27.892 41.226,28.178 40.654,28.75 C40.082,29.322 39.73,30.048 39.576,30.95 L45.956,30.95 C45.802,29.982 45.45,29.234 44.878,28.706 C44.306,28.178 43.602,27.914 42.766,27.914 Z M58.21,29.058 L58.166,29.102 C57.44,28.42 56.516,28.068 55.394,28.068 C54.36,28.068 53.524,28.42 52.864,29.124 C52.204,29.828 51.874,30.708 51.874,31.742 C51.874,32.776 52.204,33.656 52.864,34.382 C53.524,35.108 54.36,35.46 55.372,35.46 C56.538,35.46 57.484,35.108 58.21,34.382 L59.222,35.812 C58.804,36.274 58.254,36.626 57.55,36.89 C56.846,37.154 56.098,37.286 55.306,37.286 C53.788,37.286 52.512,36.736 51.478,35.658 C50.444,34.58 49.916,33.26 49.916,31.72 C49.916,30.18 50.444,28.882 51.5,27.804 C52.556,26.726 53.854,26.198 55.372,26.198 C57.066,26.198 58.386,26.682 59.332,27.672 L58.21,29.058 Z M63.49,26.462 L63.468,32.292 C63.468,33.216 63.71,33.964 64.216,34.536 C64.722,35.108 65.382,35.394 66.196,35.394 C67.032,35.394 67.692,35.108 68.198,34.536 C68.704,33.964 68.946,33.216 68.946,32.292 L68.946,26.462 L70.904,26.462 L70.904,32.446 C70.904,33.876 70.486,35.02 69.628,35.878 C68.77,36.736 67.626,37.176 66.196,37.176 C64.788,37.176 63.666,36.736 62.808,35.878 C61.95,35.02 61.532,33.876 61.532,32.446 L61.532,26.462 L63.49,26.462 Z M76.47,30.928 L76.514,37 L74.556,37 L74.556,26.462 L76.514,26.462 L76.514,27.782 C77.152,26.726 78.032,26.198 79.154,26.198 C79.836,26.198 80.364,26.352 80.738,26.66 L79.924,28.486 C79.506,28.2 79.044,28.068 78.538,28.068 C77.9,28.068 77.394,28.332 77.02,28.838 C76.646,29.344 76.47,30.048 76.47,30.928 Z M86.942,37.264 L86.964,37.308 C85.38,37.308 84.06,36.78 83.004,35.702 C81.948,34.624 81.42,33.304 81.42,31.742 C81.42,30.202 81.926,28.904 82.916,27.826 C83.906,26.748 85.138,26.22 86.612,26.22 C88.086,26.22 89.318,26.726 90.308,27.76 C91.298,28.794 91.804,30.048 91.804,31.544 C91.804,31.852 91.782,32.094 91.738,32.248 L83.378,32.248 C83.488,33.216 83.884,34.008 84.544,34.624 C85.204,35.24 86.018,35.548 87.008,35.548 C88.196,35.548 89.186,35.152 89.956,34.382 L90.99,35.724 C90.55,36.186 89.978,36.56 89.252,36.846 C88.526,37.132 87.756,37.264 86.942,37.264 Z M86.678,27.914 L86.678,27.892 C85.842,27.892 85.138,28.178 84.566,28.75 C83.994,29.322 83.642,30.048 83.488,30.95 L89.868,30.95 C89.714,29.982 89.362,29.234 88.79,28.706 C88.218,28.178 87.514,27.914 86.678,27.914 Z M99.636,26.462 L101.572,26.462 L101.572,28.068 C102.452,26.814 103.684,26.198 105.246,26.198 C106.676,26.198 107.886,26.726 108.876,27.782 C109.866,28.838 110.372,30.158 110.372,31.742 C110.372,33.304 109.888,34.624 108.92,35.68 C107.952,36.736 106.742,37.264 105.268,37.264 C103.684,37.264 102.452,36.67 101.594,35.46 L101.594,41.312 L99.636,41.312 L99.636,26.462 Z M105.026,28.0240581 C104.045933,28.0292423 103.239105,28.3813849 102.584,29.102 C101.924,29.828 101.594,30.708 101.594,31.742 C101.594,32.776 101.924,33.656 102.562,34.36 C103.2,35.064 104.014,35.416 105.004,35.416 C105.994,35.416 106.808,35.064 107.446,34.36 C108.084,33.656 108.414,32.776 108.414,31.742 C108.414,30.708 108.084,29.828 107.446,29.102 C106.812732,28.3813849 106.006065,28.0292423 105.026,28.0240581 L105.026,28.0240581 Z M121.438,37 L121.438,35.35 C120.536,36.626 119.304,37.264 117.742,37.264 C116.312,37.264 115.102,36.736 114.112,35.68 C113.122,34.624 112.638,33.304 112.638,31.72 C112.638,30.158 113.122,28.838 114.09,27.782 C115.058,26.726 116.268,26.198 117.742,26.198 C119.326,26.198 120.558,26.814 121.438,28.046 L121.438,26.462 L123.396,26.462 L123.396,37 L121.438,37 Z M118.028,35.438 C119.018,35.438 119.832,35.086 120.47,34.36 C121.108,33.634 121.438,32.754 121.438,31.72 C121.438,30.686 121.108,29.806 120.47,29.102 C119.832,28.398 119.018,28.046 118.028,28.046 C117.038,28.046 116.224,28.398 115.564,29.102 C114.904,29.806 114.574,30.686 114.574,31.72 C114.574,32.754 114.904,33.634 115.564,34.36 C116.224,35.086 117.038,35.438 118.028,35.438 Z M127.752,26.462 L131.316,34.712 L134.308,26.484 L136.288,26.484 L131.734,38.738 C131.052,40.652 129.908,41.598 128.302,41.598 C127.334,41.598 126.498,41.268 125.772,40.63 L126.696,39.112 C127.158,39.552 127.708,39.772 128.346,39.772 C128.742,39.772 129.072,39.64 129.336,39.376 C129.6,39.112 129.842,38.672 130.062,38.034 L130.392,37.132 L125.618,26.462 L127.752,26.462 Z M140.556,30.862 L140.468,37.044 L138.51,37.044 L138.51,26.506 L140.468,26.506 L140.468,27.826 C141.15,26.77 142.162,26.242 143.504,26.242 C145.176,26.242 146.342,26.946 147.024,28.376 C147.332,27.738 147.772,27.21 148.366,26.814 C148.96,26.418 149.664,26.22 150.478,26.22 C151.71,26.22 152.7,26.616 153.426,27.386 C154.152,28.156 154.526,29.212 154.526,30.554 L154.526,37 L152.568,37 L152.568,30.862 C152.568,30.004 152.348,29.322 151.908,28.816 C151.468,28.31 150.852,28.046 150.082,28.046 C149.29,28.046 148.674,28.31 148.212,28.816 C147.75,29.322 147.53,30.004 147.53,30.862 L147.53,37 L145.594,37 L145.594,30.862 C145.594,30.004 145.374,29.322 144.912,28.816 C144.45,28.31 143.834,28.046 143.064,28.046 C142.272,28.046 141.656,28.288 141.216,28.794 C140.776,29.3 140.556,29.982 140.556,30.862 Z M162.93,37.264 L162.952,37.308 C161.368,37.308 160.048,36.78 158.992,35.702 C157.936,34.624 157.408,33.304 157.408,31.742 C157.408,30.202 157.914,28.904 158.904,27.826 C159.894,26.748 161.126,26.22 162.6,26.22 C164.074,26.22 165.306,26.726 166.296,27.76 C167.286,28.794 167.792,30.048 167.792,31.544 C167.792,31.852 167.77,32.094 167.726,32.248 L159.366,32.248 C159.476,33.216 159.872,34.008 160.532,34.624 C161.192,35.24 162.006,35.548 162.996,35.548 C164.184,35.548 165.174,35.152 165.944,34.382 L166.978,35.724 C166.538,36.186 165.966,36.56 165.24,36.846 C164.514,37.132 163.744,37.264 162.93,37.264 Z M162.666,27.914 L162.666,27.892 C161.83,27.892 161.126,28.178 160.554,28.75 C159.982,29.322 159.63,30.048 159.476,30.95 L165.856,30.95 C165.702,29.982 165.35,29.234 164.778,28.706 C164.206,28.178 163.502,27.914 162.666,27.914 Z M172.566,30.862 L172.522,36.978 L170.564,36.978 L170.564,26.44 L172.522,26.44 L172.522,27.738 C173.204,26.704 174.26,26.176 175.69,26.176 C176.944,26.176 177.934,26.572 178.682,27.364 C179.43,28.156 179.804,29.212 179.804,30.554 L179.804,37 L177.846,37 L177.846,30.862 C177.846,30.004 177.604,29.322 177.12,28.816 C176.636,28.31 175.998,28.046 175.184,28.046 C174.37,28.046 173.732,28.288 173.27,28.794 C172.808,29.3 172.566,29.982 172.566,30.862 Z M182.224,28.2 L182.158,26.484 L183.918,26.484 L183.918,23.866 L185.854,23.866 L185.854,26.484 L188.846,26.484 L188.846,28.222 L185.876,28.222 L185.876,33.788 C185.876,34.91 186.36,35.46 187.328,35.46 C187.922,35.46 188.384,35.284 188.714,34.91 L189.616,36.384 C189.022,36.978 188.186,37.286 187.108,37.286 C186.118,37.286 185.348,37 184.798,36.406 C184.248,35.812 183.962,34.954 183.962,33.832 L183.962,28.2 L182.224,28.2 Z M202.651004,26.1980104 C204.076209,26.2007133 205.28254,26.7287098 206.27,27.782 C207.26,28.838 207.766,30.158 207.766,31.742 C207.766,33.304 207.282,34.624 206.314,35.68 C205.346,36.736 204.136,37.264 202.662,37.264 C201.078,37.264 199.846,36.67 198.988,35.46 L198.988,37 L197.03,37 L197.03,21.864 L198.988,21.864 L198.988,28.068 C199.865932,26.8169466 201.094212,26.2008984 202.650995,26.1980102 L202.651004,26.1980104 Z M202.42,28.0240581 C201.439933,28.0292423 200.633105,28.3813849 199.978,29.102 C199.318,29.828 198.988,30.708 198.988,31.742 C198.988,32.776 199.318,33.656 199.956,34.36 C200.594,35.064 201.408,35.416 202.398,35.416 C203.388,35.416 204.202,35.064 204.84,34.36 C205.478,33.656 205.808,32.776 205.808,31.742 C205.808,30.708 205.478,29.828 204.84,29.102 C204.206732,28.3813849 203.400065,28.0292423 202.42,28.0240581 L202.42,28.0240581 Z M211.374,26.462 L214.938,34.712 L217.93,26.484 L219.91,26.484 L215.356,38.738 C214.674,40.652 213.53,41.598 211.924,41.598 C210.956,41.598 210.12,41.268 209.394,40.63 L210.318,39.112 C210.78,39.552 211.33,39.772 211.968,39.772 C212.364,39.772 212.694,39.64 212.958,39.376 C213.222,39.112 213.464,38.672 213.684,38.034 L214.014,37.132 L209.24,26.462 L211.374,26.462 Z" id="Securepaymentby" fill="#BFCAD9" fill-rule="nonzero"></path>
                    <g id="im/logo/im_logo_desktop-white" transform="translate(24.000000, 54.000000)" fill="#FFFFFF">
                        <path d="M0,22.8136698 L1.19953287,15.7481316 L8.13422771,15.7481316 L6.9349522,22.8136698 L0,22.8136698 Z M30.9739923,18.7478257 L33.5727658,3.49186415 L40.5452918,3.49186415 L34.0215933,41.2709657 L27.616793,41.2709657 L28.133305,38.4818271 C27.1342519,39.6048769 25.9553074,40.4552272 24.5954422,41.0341891 C23.234805,41.6128888 21.7804904,41.9023698 20.2312117,41.9023698 C18.5089903,41.9023698 16.9684617,41.5774904 15.6083392,40.9287803 C14.2477019,40.2800702 13.0775075,39.4027122 12.0962119,38.2977549 C11.1149163,37.1925355 10.3657552,35.9032439 9.84950052,34.4298802 C9.33298851,32.9562542 9.07486118,31.4128802 9.07486118,29.7987091 C9.07486118,28.1855869 9.34997396,26.5097963 9.90122893,24.7731727 C10.4514545,23.0365491 11.2958371,21.4577766 12.4320606,20.0371173 C13.568284,18.6161958 14.9966057,17.440966 16.7188271,16.5111657 C18.4402765,15.5821521 20.4715815,15.1167275 22.8135144,15.1167275 C24.7761056,15.1167275 26.4290984,15.4413447 27.7719782,16.090317 C29.1148579,16.7398137 30.1818528,17.6253003 30.9739923,18.7478257 Z M28.8564733,30.7198564 C29.2002999,29.7905806 29.3732426,28.8516029 29.3732426,27.9042345 C29.3732426,26.9225165 29.2180574,26.0278525 28.9082017,25.2205047 C28.5983459,24.4136814 28.1672759,23.7387503 27.616793,23.1944002 C27.0657954,22.6508367 26.4203484,22.229988 25.6801946,21.9315919 C24.9392688,21.6337202 24.1386366,21.4839977 23.2785554,21.4839977 C22.245274,21.4839977 21.2979493,21.6864246 20.4376106,22.0891807 C19.5764999,22.4932479 18.8366036,23.0365491 18.2168921,23.7206577 C17.5969233,24.4047662 17.1064041,25.2123762 16.7445626,26.1413898 C16.3832359,27.0711901 16.2023151,28.0447796 16.2023151,29.0618962 C16.1678295,30.9220211 16.7010696,32.4653952 17.8035795,33.6930672 C18.9050601,34.9215258 20.4028677,35.5348374 22.2970024,35.5348374 C23.3639973,35.5348374 24.3373149,35.3161534 25.2151537,34.87695 C26.0932498,34.4387953 26.8334036,33.8690108 27.4361296,33.1668097 C28.0383409,32.4653952 28.5118746,31.6496567 28.8564733,30.7198564 Z M62.6878811,18.7478257 L63.2043931,15.7481316 L70.1254481,15.7481316 L65.7352247,41.2709657 L59.2274822,41.2709657 L59.6922658,38.6396781 C58.6929554,39.7275916 57.5309964,40.5430679 56.2058741,41.0866313 C54.8799798,41.6301948 53.4596361,41.9023698 51.9448431,41.9023698 C50.2226217,41.9023698 48.6818357,41.5774904 47.3219705,40.9287803 C45.9613333,40.2800702 44.7911389,39.4027122 43.8098433,38.2977549 C42.8285477,37.1925355 42.0796439,35.9032439 41.5631319,34.4298802 C41.0468772,32.9562542 40.7884925,31.4128802 40.7884925,29.7987091 C40.7884925,28.1855869 41.0636053,26.5097963 41.6148603,24.7731727 C42.1653432,23.0365491 43.0092111,21.4577766 44.1456919,20.0371173 C45.2819154,18.6161958 46.7102371,17.440966 48.4324585,16.5111657 C50.1539078,15.5821521 52.1852129,15.1167275 54.5271458,15.1167275 C56.4899943,15.1167275 58.1427298,15.4413447 59.4856096,16.090317 C60.8284893,16.7398137 61.8954842,17.6253003 62.6878811,18.7478257 Z M60.570362,30.6933731 C60.9139312,29.7814032 61.086874,28.834297 61.086874,27.8517923 C61.086874,26.869812 60.9319461,25.9835388 60.6220904,25.1940214 C60.3119773,24.4047662 59.8811646,23.7387503 59.3306817,23.1944002 C58.7794267,22.6508367 58.1339797,22.229988 57.393826,21.9315919 C56.6529002,21.6337202 55.852268,21.4839977 54.9921867,21.4839977 C53.9591627,21.4839977 53.011838,21.6864246 52.1514993,22.0891807 C51.2903886,22.4932479 50.5502349,23.0365491 49.9305235,23.7206577 C49.3105546,24.4047662 48.8200355,25.2123762 48.458194,26.1413898 C48.0968672,27.0711901 47.9159465,28.0447796 47.9159465,29.0618962 C47.8814609,30.9220211 48.414701,32.4653952 49.5172109,33.6930672 C50.6189488,34.9215258 52.1167564,35.5348374 54.0106337,35.5348374 C55.0776287,35.5348374 56.0509462,35.3161534 56.9290424,34.87695 C57.8071385,34.4387953 58.5470349,33.8598334 59.1500183,33.1405886 C59.7519722,32.4218682 60.2255059,31.6061297 60.570362,30.6933731 Z M86.0850772,8.64378627 L84.8453969,15.7481316 L92.2314929,15.7481316 L91.1984688,21.6945531 L83.7609018,21.6945531 L82.107909,31.2723351 C82.0734234,31.4826283 82.0476879,31.6850552 82.0307024,31.8775181 C82.0129449,32.0705054 82.0047095,32.2721457 82.0047095,32.4827011 C82.0047095,33.8163064 82.4777285,34.6928778 83.4250532,35.1137265 C84.3718632,35.5348374 85.6717646,35.7453929 87.3247575,35.7453929 C87.8065265,35.7453929 88.2025963,35.7453929 88.5127093,35.7453929 C88.8225651,35.7453929 89.1494063,35.7280869 89.494005,35.6926884 L88.4609809,41.6393722 C87.9781825,41.7091203 87.4966708,41.7710021 87.0149017,41.8234443 C86.5321033,41.8758865 85.9641202,41.9023698 85.3104378,41.9023698 C84.1742144,41.9023698 82.9942405,41.7880458 81.7723177,41.5601844 C80.5496229,41.3317986 79.4303849,40.9203895 78.4151184,40.3235973 C77.3990798,39.7275916 76.5727121,38.9026757 75.9357578,37.8501607 C75.2982888,36.7979079 74.9804551,35.4475211 74.9804551,33.7982138 C74.9804551,33.3771029 75.0064479,32.9654316 75.057919,32.5616267 C75.10939,32.1586083 75.1693538,31.7285822 75.2385824,31.2723351 L76.8915752,21.6945531 L72.914407,21.6945531 L73.89596,15.7481316 L77.9243419,15.7481316 L79.1640222,8.64378627 L86.0850772,8.64378627 Z M115.060449,18.7478257 L115.577218,15.7481316 L122.498273,15.7481316 L118.10805,41.2709657 L111.60005,41.2709657 L112.065091,38.6396781 C111.06578,39.7275916 109.903821,40.5430679 108.578442,41.0866313 C107.252547,41.6301948 105.832204,41.9023698 104.317411,41.9023698 C102.595189,41.9023698 101.054661,41.5774904 99.6947954,40.9287803 C98.3341581,40.2800702 97.1639638,39.4027122 96.1826682,38.2977549 C95.2011152,37.1925355 94.4522114,35.9032439 93.9359567,34.4298802 C93.4194447,32.9562542 93.1613174,31.4128802 93.1613174,29.7987091 C93.1613174,28.1855869 93.4361728,26.5097963 93.9874278,24.7731727 C94.5379107,23.0365491 95.382036,21.4577766 96.5182594,20.0371173 C97.6544829,18.6161958 99.083062,17.440966 100.805283,16.5111657 C102.526733,15.5821521 104.558038,15.1167275 106.899971,15.1167275 C108.862562,15.1167275 110.515555,15.4413447 111.858177,16.090317 C113.201314,16.7398137 114.268309,17.6253003 115.060449,18.7478257 Z M112.942929,30.6933731 C113.286756,29.7814032 113.459699,28.834297 113.459699,27.8517923 C113.459699,26.869812 113.304514,25.9835388 112.994658,25.1940214 C112.684802,24.4047662 112.253732,23.7387503 111.703249,23.1944002 C111.152252,22.6508367 110.506547,22.229988 109.766394,21.9315919 C109.025725,21.6337202 108.225093,21.4839977 107.364754,21.4839977 C106.33173,21.4839977 105.384405,21.6864246 104.524067,22.0891807 C103.662956,22.4932479 102.92306,23.0365491 102.303091,23.7206577 C101.683122,24.4047662 101.19286,25.2123762 100.831019,26.1413898 C100.469435,27.0711901 100.288771,28.0447796 100.288771,29.0618962 C100.254286,30.9220211 100.787526,32.4653952 101.889778,33.6930672 C102.991516,34.9215258 104.489324,35.5348374 106.383459,35.5348374 C107.450196,35.5348374 108.423771,35.3161534 109.30161,34.87695 C110.179706,34.4387953 110.919602,33.8598334 111.522586,33.1405886 C112.124797,32.4218682 112.598331,31.6061297 112.942929,30.6933731 Z M138.457902,8.64378627 L137.218222,15.7481316 L144.60406,15.7481316 L143.571036,21.6945531 L136.133469,21.6945531 L134.480734,31.2723351 C134.445991,31.4826283 134.420255,31.6850552 134.40327,31.8775181 C134.385512,32.0705054 134.377534,32.2721457 134.377534,32.4827011 C134.377534,33.8163064 134.850553,34.6928778 135.797621,35.1137265 C136.744431,35.5348374 138.04459,35.7453929 139.697582,35.7453929 C140.179094,35.7453929 140.575421,35.7453929 140.885277,35.7453929 C141.195133,35.7453929 141.522231,35.7280869 141.866572,35.6926884 L140.833806,41.6393722 C140.351007,41.7091203 139.869238,41.7710021 139.387727,41.8234443 C138.904928,41.8758865 138.336688,41.9023698 137.683263,41.9023698 C136.547039,41.9023698 135.367065,41.7880458 134.145143,41.5601844 C132.922448,41.3317986 131.80321,40.9203895 130.787943,40.3235973 C129.771647,39.7275916 128.94528,38.9026757 128.308583,37.8501607 C127.671114,36.7979079 127.353023,35.4475211 127.353023,33.7982138 C127.353023,33.3771029 127.379015,32.9654316 127.430487,32.5616267 C127.482215,32.1586083 127.541921,31.7285822 127.611407,31.2723351 L129.2644,21.6945531 L125.287232,21.6945531 L126.268528,15.7481316 L130.296909,15.7481316 L131.536847,8.64378627 L138.457902,8.64378627 Z M162.422824,15.4324296 C163.489819,15.4324296 164.505857,15.6256791 165.470168,16.0111293 L164.385672,22.1683685 C163.799675,22.0983581 163.283163,22.0456537 162.836136,22.0105174 C162.388338,21.9759056 161.974768,21.957813 161.596456,21.957813 C159.771035,21.957813 158.247492,22.4575872 157.025569,23.45766 C155.802875,24.4574707 155.001985,26.0624643 154.62393,28.272641 L152.402954,41.2709657 L145.430171,41.2709657 L149.820394,15.7481316 L156.22468,15.7481316 L155.760154,18.3267148 C157.58506,16.3976283 159.805778,15.4324296 162.422824,15.4324296 Z M186.955986,18.7478257 L187.472241,15.7481316 L194.393553,15.7481316 L190.003072,41.2709657 L183.49533,41.2709657 L183.960371,38.6396781 C182.96106,39.7275916 181.798844,40.5430679 180.473979,41.0866313 C179.148085,41.6301948 177.727741,41.9023698 176.212691,41.9023698 C174.490727,41.9023698 172.950198,41.5774904 171.590333,40.9287803 C170.229438,40.2800702 169.059501,39.4027122 168.077948,38.2977549 C167.096653,37.1925355 166.347492,35.9032439 165.831494,34.4298802 C165.314725,32.9562542 165.056598,31.4128802 165.056598,29.7987091 C165.056598,28.1855869 165.331453,26.5097963 165.882965,24.7731727 C166.433191,23.0365491 167.277574,21.4577766 168.413797,20.0371173 C169.55002,18.6161958 170.9786,17.440966 172.700564,16.5111657 C174.422013,15.5821521 176.453318,15.1167275 178.795508,15.1167275 C180.758099,15.1167275 182.410578,15.4413447 183.753715,16.090317 C185.096594,16.7398137 186.163332,17.6253003 186.955986,18.7478257 Z M184.838467,30.6933731 C185.182036,29.7814032 185.354979,28.834297 185.354979,27.8517923 C185.354979,26.869812 185.199794,25.9835388 184.889938,25.1940214 C184.580082,24.4047662 184.149012,23.7387503 183.598787,23.1944002 C183.047532,22.6508367 182.401827,22.229988 181.661674,21.9315919 C180.921005,21.6337202 180.120373,21.4839977 179.260034,21.4839977 C178.227268,21.4839977 177.279686,21.6864246 176.419347,22.0891807 C175.558236,22.4932479 174.818083,23.0365491 174.198371,23.7206577 C173.57866,24.4047662 173.088141,25.2123762 172.726556,26.1413898 C172.364972,27.0711901 172.184052,28.0447796 172.184052,29.0618962 C172.149309,30.9220211 172.683063,32.4653952 173.785316,33.6930672 C174.887054,34.9215258 176.384604,35.5348374 178.278739,35.5348374 C179.345734,35.5348374 180.319051,35.3161534 181.197147,34.87695 C182.075244,34.4387953 182.81514,33.8598334 183.417866,33.1405886 C184.01982,32.4218682 184.493611,31.6061297 184.838467,30.6933731 Z M219.575251,17.5374596 C220.34989,18.3094089 220.944123,19.230294 221.357178,20.3001149 C221.770491,21.3707225 221.977147,22.5546053 221.977147,23.8522876 C221.977147,24.6596354 221.87369,25.6413534 221.667292,26.7990151 L219.187931,41.2709657 L212.266876,41.2709657 L214.643037,27.2728304 C214.711494,26.887118 214.771972,26.5451948 214.823443,26.2465365 C214.875429,25.9489269 214.900907,25.659446 214.900907,25.3783558 C214.900907,24.0455372 214.504837,23.0284206 213.712955,22.3262195 C212.920558,21.624805 211.870549,21.2737045 210.562412,21.2737045 C209.253246,21.2737045 208.109044,21.6602035 207.127749,22.4313661 C206.146453,23.2035776 205.517992,24.3612392 205.242364,25.9046133 L202.660061,41.2709657 L195.687278,41.2709657 L200.077759,15.7481316 L206.430316,15.7481316 L206.068989,18.0110127 C206.964071,17.1344413 208.005845,16.4322402 209.193797,15.9059827 C210.381491,15.3797252 211.732606,15.1167275 213.248429,15.1167275 C214.556566,15.1167275 215.74426,15.3270207 216.812027,15.7481316 C217.879022,16.1689803 218.800611,16.7660348 219.575251,17.5374596 Z M234.914911,21.3261467 C234.44987,21.6418487 234.217478,22.0983581 234.217478,22.694626 C234.217478,23.1862716 234.398399,23.5890278 234.759983,23.9047298 C235.121567,24.2204319 235.6808,24.5715325 236.438454,24.9572449 L238.711158,25.9570555 C240.776949,26.869812 242.378213,27.896106 243.514437,29.0356751 C244.650918,30.176293 245.218901,31.6404793 245.218901,33.4298073 C245.218901,34.5177209 245.003494,35.5702359 244.573454,36.5873524 C244.142384,37.6052556 243.514437,38.5080482 242.688069,39.2973033 C241.861701,40.0868207 240.828935,40.7182248 239.589255,41.1920402 C238.349574,41.6655933 236.903495,41.9023698 235.250502,41.9023698 C232.771399,41.9023698 230.584394,41.3671971 228.691031,40.2973762 C226.796897,39.2275552 225.334089,37.8158111 224.300808,36.0610949 L228.639303,32.1669991 C229.569127,33.2900489 230.541673,34.2374173 231.557712,35.0085799 C232.572721,35.7805291 233.821408,36.1662415 235.302231,36.1662415 C236.162569,36.1662415 236.92048,35.9913468 237.574678,35.639984 C238.228617,35.2896701 238.556231,34.7634126 238.556231,34.0612115 C238.556231,33.4652058 238.349574,33.0089587 237.936262,32.6929944 C237.523206,32.3772923 236.937209,32.0269784 236.180069,31.6404793 L233.804423,30.6406687 C232.840113,30.21982 231.970767,29.7643595 231.196127,29.2727138 C230.421231,28.7815926 229.758026,28.229114 229.207543,27.6147536 C228.656546,27.001442 228.234226,26.3173334 227.942128,25.5626901 C227.649257,24.8085712 227.503079,23.9401283 227.503079,22.9576236 C227.503079,21.7299516 227.743707,20.6249944 228.226248,19.6422275 C228.708017,18.6605094 229.362471,17.8358558 230.188839,17.1687909 C231.015464,16.5030372 231.996502,15.9938234 233.132983,15.642985 C234.269207,15.2926711 235.490872,15.1167275 236.800038,15.1167275 C238.8998,15.1167275 240.742463,15.5029643 242.326742,16.2743892 C243.909992,17.0466006 245.235886,18.1688638 246.303653,19.6422275 L242.171557,23.5890278 C241.413903,22.67732 240.57055,21.9929493 239.640726,21.5367021 C238.711158,21.0812416 237.763576,20.8525936 236.800038,20.8525936 C236.007641,20.8525936 235.379952,21.0107068 234.914911,21.3261467 Z M249.390887,34.2051653 L256.325839,34.2051653 L255.126306,41.2709657 L248.191354,41.2709657 L249.390887,34.2051653 Z" id="logo-desktop"></path>
                    </g>
                </g>
                <path d="M36.442,168.394 L35.078,169.978 C34,169.076 32.768,168.636 31.36,168.636 C29.952,168.636 28.764,169.164 27.774,170.22 C26.784,171.276 26.3,172.53 26.3,174.004 C26.3,175.478 26.806,176.732 27.818,177.766 C28.83,178.8 30.084,179.328 31.558,179.328 C33.032,179.328 34.22,178.888 35.122,178.03 L36.42,179.482 C35.21,180.692 33.538,181.286 31.426,181.286 C29.38,181.286 27.664,180.582 26.278,179.152 C24.892,177.722 24.188,176.006 24.188,173.982 C24.188,171.958 24.892,170.22 26.3,168.79 C27.708,167.36 29.402,166.634 31.404,166.634 C33.472,166.634 35.144,167.228 36.442,168.394 Z M43.284,181.264 L43.306,181.308 C41.722,181.308 40.402,180.78 39.346,179.702 C38.29,178.624 37.762,177.304 37.762,175.742 C37.762,174.202 38.268,172.904 39.258,171.826 C40.248,170.748 41.48,170.22 42.954,170.22 C44.428,170.22 45.66,170.726 46.65,171.76 C47.64,172.794 48.146,174.048 48.146,175.544 C48.146,175.852 48.124,176.094 48.08,176.248 L39.72,176.248 C39.83,177.216 40.226,178.008 40.886,178.624 C41.546,179.24 42.36,179.548 43.35,179.548 C44.538,179.548 45.528,179.152 46.298,178.382 L47.332,179.724 C46.892,180.186 46.32,180.56 45.594,180.846 C44.868,181.132 44.098,181.264 43.284,181.264 Z M43.02,171.914 L43.02,171.892 C42.184,171.892 41.48,172.178 40.908,172.75 C40.336,173.322 39.984,174.048 39.83,174.95 L46.21,174.95 C46.056,173.982 45.704,173.234 45.132,172.706 C44.56,172.178 43.856,171.914 43.02,171.914 Z M52.92,174.928 L52.964,181 L51.006,181 L51.006,170.462 L52.964,170.462 L52.964,171.782 C53.602,170.726 54.482,170.198 55.604,170.198 C56.286,170.198 56.814,170.352 57.188,170.66 L56.374,172.486 C55.956,172.2 55.494,172.068 54.988,172.068 C54.35,172.068 53.844,172.332 53.47,172.838 C53.096,173.344 52.92,174.048 52.92,174.928 Z M58.332,172.2 L58.266,170.484 L60.026,170.484 L60.026,167.866 L61.962,167.866 L61.962,170.484 L64.954,170.484 L64.954,172.222 L61.984,172.222 L61.984,177.788 C61.984,178.91 62.468,179.46 63.436,179.46 C64.03,179.46 64.492,179.284 64.822,178.91 L65.724,180.384 C65.13,180.978 64.294,181.286 63.216,181.286 C62.226,181.286 61.456,181 60.906,180.406 C60.356,179.812 60.07,178.954 60.07,177.832 L60.07,172.2 L58.332,172.2 Z M70.08,170.462 L70.08,181 L68.122,181 L68.122,170.462 L70.08,170.462 Z M69.09,168.636 L69.046,168.636 C68.716,168.636 68.43,168.526 68.188,168.284 C67.946,168.042 67.836,167.756 67.836,167.426 C67.836,167.096 67.968,166.81 68.21,166.568 C68.452,166.326 68.738,166.216 69.068,166.216 C69.398,166.216 69.684,166.326 69.926,166.568 C70.168,166.81 70.3,167.096 70.3,167.426 C70.3,167.756 70.19,168.042 69.948,168.284 C69.706,168.526 69.42,168.636 69.09,168.636 Z M83.126,166.986 L82.092,168.504 C81.3,167.778 80.31,167.426 79.122,167.426 C77.274,167.426 76.35,168.284 76.35,170 L76.35,170.462 L82.994,170.462 L82.994,181 L81.036,181 L81.036,172.2 L76.35,172.2 L76.35,181 L74.414,181 L74.414,172.2 L72.742,172.2 L72.742,170.462 L74.414,170.462 L74.414,169.934 C74.414,168.548 74.832,167.47 75.646,166.722 C76.46,165.974 77.582,165.6 79.012,165.6 C80.728,165.6 82.092,166.062 83.126,166.986 Z M91.53,181.264 L91.552,181.308 C89.968,181.308 88.648,180.78 87.592,179.702 C86.536,178.624 86.008,177.304 86.008,175.742 C86.008,174.202 86.514,172.904 87.504,171.826 C88.494,170.748 89.726,170.22 91.2,170.22 C92.674,170.22 93.906,170.726 94.896,171.76 C95.886,172.794 96.392,174.048 96.392,175.544 C96.392,175.852 96.37,176.094 96.326,176.248 L87.966,176.248 C88.076,177.216 88.472,178.008 89.132,178.624 C89.792,179.24 90.606,179.548 91.596,179.548 C92.784,179.548 93.774,179.152 94.544,178.382 L95.578,179.724 C95.138,180.186 94.566,180.56 93.84,180.846 C93.114,181.132 92.344,181.264 91.53,181.264 Z M91.266,171.914 L91.266,171.892 C90.43,171.892 89.726,172.178 89.154,172.75 C88.582,173.322 88.23,174.048 88.076,174.95 L94.456,174.95 C94.302,173.982 93.95,173.234 93.378,172.706 C92.806,172.178 92.102,171.914 91.266,171.914 Z M103.828,179.438 C104.818,179.438 105.632,179.086 106.27,178.36 C106.908,177.634 107.238,176.754 107.238,175.72 C107.238,174.686 106.908,173.806 106.27,173.102 C105.632,172.398 104.818,172.046 103.828,172.046 C102.838,172.046 102.024,172.398 101.364,173.102 C100.704,173.806 100.374,174.686 100.374,175.72 C100.374,176.754 100.704,177.634 101.364,178.36 C102.024,179.086 102.838,179.438 103.828,179.438 Z M107.238,165.864 L109.196,165.864 L109.196,181 L107.238,181 L107.238,179.35 C106.336,180.626 105.104,181.264 103.542,181.264 C102.112,181.264 100.902,180.736 99.912,179.68 C98.922,178.624 98.438,177.304 98.438,175.72 C98.438,174.158 98.922,172.838 99.89,171.782 C100.858,170.726 102.068,170.198 103.542,170.198 C105.126,170.198 106.358,170.814 107.238,172.046 L107.238,165.864 Z M123.617004,170.19801 C125.042209,170.200713 126.24854,170.72871 127.236,171.782 C128.226,172.838 128.732,174.158 128.732,175.742 C128.732,177.304 128.248,178.624 127.28,179.68 C126.312,180.736 125.102,181.264 123.628,181.264 C122.044,181.264 120.812,180.67 119.954,179.46 L119.954,181 L117.996,181 L117.996,165.864 L119.954,165.864 L119.954,172.068 C120.831932,170.816947 122.060212,170.200898 123.616995,170.19801 L123.617004,170.19801 Z M123.386,172.024058 C122.405933,172.029242 121.599105,172.381385 120.944,173.102 C120.284,173.828 119.954,174.708 119.954,175.742 C119.954,176.776 120.284,177.656 120.922,178.36 C121.56,179.064 122.374,179.416 123.364,179.416 C124.354,179.416 125.168,179.064 125.806,178.36 C126.444,177.656 126.774,176.776 126.774,175.742 C126.774,174.708 126.444,173.828 125.806,173.102 C125.172732,172.381385 124.366065,172.029242 123.386,172.024058 L123.386,172.024058 Z M132.34,170.462 L135.904,178.712 L138.896,170.484 L140.876,170.484 L136.322,182.738 C135.64,184.652 134.496,185.598 132.89,185.598 C131.922,185.598 131.086,185.268 130.36,184.63 L131.284,183.112 C131.746,183.552 132.296,183.772 132.934,183.772 C133.33,183.772 133.66,183.64 133.924,183.376 C134.188,183.112 134.43,182.672 134.65,182.034 L134.98,181.132 L130.206,170.462 L132.34,170.462 Z M149.038,166.898 L153.416,178.8 L157.816,166.898 L159.884,166.898 L154.516,181 L152.184,181 L146.816,166.898 L149.038,166.898 Z M162.414,181 L162.414,166.898 L164.394,166.898 L164.394,181 L162.414,181 Z M177.594,168.812 L176.142,170.176 C175.812,169.714 175.328,169.318 174.69,168.988 C174.052,168.658 173.37,168.504 172.644,168.504 C171.808,168.504 171.148,168.68 170.642,169.032 C170.136,169.384 169.894,169.846 169.894,170.418 C169.894,170.902 170.092,171.32 170.488,171.65 C170.884,171.98 171.368,172.244 171.962,172.42 C172.556,172.596 173.194,172.816 173.876,173.058 C174.558,173.3 175.196,173.564 175.79,173.85 C176.384,174.136 176.868,174.554 177.264,175.126 C177.66,175.698 177.858,176.358 177.858,177.128 C177.858,178.382 177.396,179.394 176.45,180.164 C175.504,180.934 174.25,181.308 172.688,181.308 C170.268,181.308 168.486,180.516 167.364,178.91 L168.794,177.568 C169.74,178.822 171.038,179.438 172.688,179.438 C173.634,179.438 174.382,179.24 174.91,178.844 C175.438,178.448 175.702,177.92 175.702,177.26 C175.702,176.622 175.438,176.116 174.888,175.72 C174.338,175.324 173.678,175.016 172.908,174.774 C172.138,174.532 171.368,174.268 170.598,173.982 C169.828,173.696 169.168,173.256 168.618,172.662 C168.068,172.068 167.804,171.32 167.804,170.418 C167.804,169.296 168.266,168.372 169.168,167.668 C170.07,166.964 171.258,166.612 172.732,166.612 C173.788,166.612 174.756,166.81 175.614,167.228 C176.472,167.646 177.132,168.174 177.594,168.812 Z M190.75,181 L189.298,177.392 L182.566,177.392 L181.114,181 L179.024,181 L184.832,166.898 L187.164,166.898 L192.972,181 L190.75,181 Z M188.594,175.61 L185.932,169.01 L183.292,175.61 L188.594,175.61 Z M198.912,181 L205.138,166.898 L207.14,166.898 L200.914,181 L198.912,181 Z M221.858,178.228 L216.6,170.066 L216.6,181 L214.62,181 L214.62,166.898 L216.908,166.898 L221.99,174.972 L227.05,166.898 L229.074,166.898 L229.074,181 L227.094,181 L227.094,170.066 L221.858,178.228 Z M240.998,181 L240.998,179.35 C240.096,180.626 238.864,181.264 237.302,181.264 C235.872,181.264 234.662,180.736 233.672,179.68 C232.682,178.624 232.198,177.304 232.198,175.72 C232.198,174.158 232.682,172.838 233.65,171.782 C234.618,170.726 235.828,170.198 237.302,170.198 C238.886,170.198 240.118,170.814 240.998,172.046 L240.998,170.462 L242.956,170.462 L242.956,181 L240.998,181 Z M237.588,179.438 C238.578,179.438 239.392,179.086 240.03,178.36 C240.668,177.634 240.998,176.754 240.998,175.72 C240.998,174.686 240.668,173.806 240.03,173.102 C239.392,172.398 238.578,172.046 237.588,172.046 C236.598,172.046 235.784,172.398 235.124,173.102 C234.464,173.806 234.134,174.686 234.134,175.72 C234.134,176.754 234.464,177.634 235.124,178.36 C235.784,179.086 236.598,179.438 237.588,179.438 Z M247.972,173.124 L247.928,173.212 C247.928,173.63 248.126,173.96 248.544,174.224 C248.962,174.488 249.468,174.686 250.062,174.84 C250.656,174.994 251.25,175.17 251.844,175.39 C252.438,175.61 252.944,175.94 253.362,176.402 C253.78,176.864 253.978,177.458 253.978,178.184 C253.978,179.108 253.626,179.856 252.9,180.45 C252.174,181.044 251.162,181.33 249.864,181.33 C247.972,181.33 246.564,180.758 245.64,179.614 L246.784,178.338 C247.554,179.284 248.632,179.746 249.996,179.746 C250.634,179.746 251.14,179.614 251.492,179.328 C251.844,179.042 252.02,178.668 252.02,178.206 C252.02,177.766 251.822,177.414 251.404,177.128 C250.986,176.842 250.502,176.622 249.93,176.446 C249.358,176.27 248.786,176.072 248.192,175.852 C247.598,175.632 247.092,175.302 246.674,174.84 C246.256,174.378 246.058,173.806 246.058,173.124 C246.058,172.31 246.41,171.628 247.092,171.056 C247.774,170.484 248.698,170.198 249.864,170.198 C251.712,170.198 253.01,170.748 253.78,171.826 L252.614,172.992 C251.976,172.178 251.074,171.782 249.908,171.782 C249.314,171.782 248.852,171.914 248.5,172.156 C248.148,172.398 247.972,172.728 247.972,173.124 Z M255.606,172.2 L255.54,170.484 L257.3,170.484 L257.3,167.866 L259.236,167.866 L259.236,170.484 L262.228,170.484 L262.228,172.222 L259.258,172.222 L259.258,177.788 C259.258,178.91 259.742,179.46 260.71,179.46 C261.304,179.46 261.766,179.284 262.096,178.91 L262.998,180.384 C262.404,180.978 261.568,181.286 260.49,181.286 C259.5,181.286 258.73,181 258.18,180.406 C257.63,179.812 257.344,178.954 257.344,177.832 L257.344,172.2 L255.606,172.2 Z M269.576,181.264 L269.598,181.308 C268.014,181.308 266.694,180.78 265.638,179.702 C264.582,178.624 264.054,177.304 264.054,175.742 C264.054,174.202 264.56,172.904 265.55,171.826 C266.54,170.748 267.772,170.22 269.246,170.22 C270.72,170.22 271.952,170.726 272.942,171.76 C273.932,172.794 274.438,174.048 274.438,175.544 C274.438,175.852 274.416,176.094 274.372,176.248 L266.012,176.248 C266.122,177.216 266.518,178.008 267.178,178.624 C267.838,179.24 268.652,179.548 269.642,179.548 C270.83,179.548 271.82,179.152 272.59,178.382 L273.624,179.724 C273.184,180.186 272.612,180.56 271.886,180.846 C271.16,181.132 270.39,181.264 269.576,181.264 Z M269.312,171.914 L269.312,171.892 C268.476,171.892 267.772,172.178 267.2,172.75 C266.628,173.322 266.276,174.048 266.122,174.95 L272.502,174.95 C272.348,173.982 271.996,173.234 271.424,172.706 C270.852,172.178 270.148,171.914 269.312,171.914 Z M279.212,174.928 L279.256,181 L277.298,181 L277.298,170.462 L279.256,170.462 L279.256,171.782 C279.894,170.726 280.774,170.198 281.896,170.198 C282.578,170.198 283.106,170.352 283.48,170.66 L282.666,172.486 C282.248,172.2 281.786,172.068 281.28,172.068 C280.642,172.068 280.136,172.332 279.762,172.838 C279.388,173.344 279.212,174.048 279.212,174.928 Z M292.434,173.058 L292.39,173.102 C291.664,172.42 290.74,172.068 289.618,172.068 C288.584,172.068 287.748,172.42 287.088,173.124 C286.428,173.828 286.098,174.708 286.098,175.742 C286.098,176.776 286.428,177.656 287.088,178.382 C287.748,179.108 288.584,179.46 289.596,179.46 C290.762,179.46 291.708,179.108 292.434,178.382 L293.446,179.812 C293.028,180.274 292.478,180.626 291.774,180.89 C291.07,181.154 290.322,181.286 289.53,181.286 C288.012,181.286 286.736,180.736 285.702,179.658 C284.668,178.58 284.14,177.26 284.14,175.72 C284.14,174.18 284.668,172.882 285.724,171.804 C286.78,170.726 288.078,170.198 289.596,170.198 C291.29,170.198 292.61,170.682 293.556,171.672 L292.434,173.058 Z M303.654,181 L303.654,179.35 C302.752,180.626 301.52,181.264 299.958,181.264 C298.528,181.264 297.318,180.736 296.328,179.68 C295.338,178.624 294.854,177.304 294.854,175.72 C294.854,174.158 295.338,172.838 296.306,171.782 C297.274,170.726 298.484,170.198 299.958,170.198 C301.542,170.198 302.774,170.814 303.654,172.046 L303.654,170.462 L305.612,170.462 L305.612,181 L303.654,181 Z M300.244,179.438 C301.234,179.438 302.048,179.086 302.686,178.36 C303.324,177.634 303.654,176.754 303.654,175.72 C303.654,174.686 303.324,173.806 302.686,173.102 C302.048,172.398 301.234,172.046 300.244,172.046 C299.254,172.046 298.44,172.398 297.78,173.102 C297.12,173.806 296.79,174.686 296.79,175.72 C296.79,176.754 297.12,177.634 297.78,178.36 C298.44,179.086 299.254,179.438 300.244,179.438 Z M311.354,174.928 L311.398,181 L309.44,181 L309.44,170.462 L311.398,170.462 L311.398,171.782 C312.036,170.726 312.916,170.198 314.038,170.198 C314.72,170.198 315.248,170.352 315.622,170.66 L314.808,172.486 C314.39,172.2 313.928,172.068 313.422,172.068 C312.784,172.068 312.278,172.332 311.904,172.838 C311.53,173.344 311.354,174.048 311.354,174.928 Z M321.694,179.438 C322.684,179.438 323.498,179.086 324.136,178.36 C324.774,177.634 325.104,176.754 325.104,175.72 C325.104,174.686 324.774,173.806 324.136,173.102 C323.498,172.398 322.684,172.046 321.694,172.046 C320.704,172.046 319.89,172.398 319.23,173.102 C318.57,173.806 318.24,174.686 318.24,175.72 C318.24,176.754 318.57,177.634 319.23,178.36 C319.89,179.086 320.704,179.438 321.694,179.438 Z M325.104,165.864 L327.062,165.864 L327.062,181 L325.104,181 L325.104,179.35 C324.202,180.626 322.97,181.264 321.408,181.264 C319.978,181.264 318.768,180.736 317.778,179.68 C316.788,178.624 316.304,177.304 316.304,175.72 C316.304,174.158 316.788,172.838 317.756,171.782 C318.724,170.726 319.934,170.198 321.408,170.198 C322.992,170.198 324.224,170.814 325.104,172.046 L325.104,165.864 Z" id="CertifedbyVISA/Mastercard" fill="#213D62" fill-rule="nonzero"></path>
            </g>
        </g>
    </g>
</svg>