<?xml version="1.0" encoding="UTF-8"?>
<svg width="353px" height="418px" viewBox="0 0 353 418" version="1.1" xmlns="http://www.w3.org/2000/svg" xmlns:xlink="http://www.w3.org/1999/xlink">
    <!-- Generator: Sketch 53.2 (72643) - https://sketchapp.com -->
    <title>datatrans_security-logos_03</title>
    <desc>Created with Sketch.</desc>
    <defs>
        <linearGradient x1="0%" y1="45.0867077%" x2="100%" y2="54.9132923%" id="linearGradient-1">
            <stop stop-color="#2F3387" offset="0%"></stop>
            <stop stop-color="#181B62" offset="100%"></stop>
        </linearGradient>
    </defs>
    <g id="Page-1" stroke="none" stroke-width="1" fill="none" fill-rule="evenodd">
        <g id="datatrans_security-logos_v01" transform="translate(-740.000000, -824.000000)">
            <g id="datatrans_security-Logos_v01_06" transform="translate(740.000000, 824.000000)">
                <rect id="Rectangle" fill="#EBEBEB" fill-rule="evenodd" x="0" y="0" width="353" height="418" rx="6"></rect>
                <g id="Group" stroke-width="1" fill-rule="evenodd" transform="translate(24.000000, 232.000000)">
                    <rect id="Rectangle" fill="#213D62" x="0" y="0" width="305" height="124" rx="3"></rect>
                    <path d="M35.198,24.812 L33.746,26.176 C33.416,25.714 32.932,25.318 32.294,24.988 C31.656,24.658 30.974,24.504 30.248,24.504 C29.412,24.504 28.752,24.68 28.246,25.032 C27.74,25.384 27.498,25.846 27.498,26.418 C27.498,26.902 27.696,27.32 28.092,27.65 C28.488,27.98 28.972,28.244 29.566,28.42 C30.16,28.596 30.798,28.816 31.48,29.058 C32.162,29.3 32.8,29.564 33.394,29.85 C33.988,30.136 34.472,30.554 34.868,31.126 C35.264,31.698 35.462,32.358 35.462,33.128 C35.462,34.382 35,35.394 34.054,36.164 C33.108,36.934 31.854,37.308 30.292,37.308 C27.872,37.308 26.09,36.516 24.968,34.91 L26.398,33.568 C27.344,34.822 28.642,35.438 30.292,35.438 C31.238,35.438 31.986,35.24 32.514,34.844 C33.042,34.448 33.306,33.92 33.306,33.26 C33.306,32.622 33.042,32.116 32.492,31.72 C31.942,31.324 31.282,31.016 30.512,30.774 C29.742,30.532 28.972,30.268 28.202,29.982 C27.432,29.696 26.772,29.256 26.222,28.662 C25.672,28.068 25.408,27.32 25.408,26.418 C25.408,25.296 25.87,24.372 26.772,23.668 C27.674,22.964 28.862,22.612 30.336,22.612 C31.392,22.612 32.36,22.81 33.218,23.228 C34.076,23.646 34.736,24.174 35.198,24.812 Z M43.03,37.264 L43.052,37.308 C41.468,37.308 40.148,36.78 39.092,35.702 C38.036,34.624 37.508,33.304 37.508,31.742 C37.508,30.202 38.014,28.904 39.004,27.826 C39.994,26.748 41.226,26.22 42.7,26.22 C44.174,26.22 45.406,26.726 46.396,27.76 C47.386,28.794 47.892,30.048 47.892,31.544 C47.892,31.852 47.87,32.094 47.826,32.248 L39.466,32.248 C39.576,33.216 39.972,34.008 40.632,34.624 C41.292,35.24 42.106,35.548 43.096,35.548 C44.284,35.548 45.274,35.152 46.044,34.382 L47.078,35.724 C46.638,36.186 46.066,36.56 45.34,36.846 C44.614,37.132 43.844,37.264 43.03,37.264 Z M42.766,27.914 L42.766,27.892 C41.93,27.892 41.226,28.178 40.654,28.75 C40.082,29.322 39.73,30.048 39.576,30.95 L45.956,30.95 C45.802,29.982 45.45,29.234 44.878,28.706 C44.306,28.178 43.602,27.914 42.766,27.914 Z M58.21,29.058 L58.166,29.102 C57.44,28.42 56.516,28.068 55.394,28.068 C54.36,28.068 53.524,28.42 52.864,29.124 C52.204,29.828 51.874,30.708 51.874,31.742 C51.874,32.776 52.204,33.656 52.864,34.382 C53.524,35.108 54.36,35.46 55.372,35.46 C56.538,35.46 57.484,35.108 58.21,34.382 L59.222,35.812 C58.804,36.274 58.254,36.626 57.55,36.89 C56.846,37.154 56.098,37.286 55.306,37.286 C53.788,37.286 52.512,36.736 51.478,35.658 C50.444,34.58 49.916,33.26 49.916,31.72 C49.916,30.18 50.444,28.882 51.5,27.804 C52.556,26.726 53.854,26.198 55.372,26.198 C57.066,26.198 58.386,26.682 59.332,27.672 L58.21,29.058 Z M63.49,26.462 L63.468,32.292 C63.468,33.216 63.71,33.964 64.216,34.536 C64.722,35.108 65.382,35.394 66.196,35.394 C67.032,35.394 67.692,35.108 68.198,34.536 C68.704,33.964 68.946,33.216 68.946,32.292 L68.946,26.462 L70.904,26.462 L70.904,32.446 C70.904,33.876 70.486,35.02 69.628,35.878 C68.77,36.736 67.626,37.176 66.196,37.176 C64.788,37.176 63.666,36.736 62.808,35.878 C61.95,35.02 61.532,33.876 61.532,32.446 L61.532,26.462 L63.49,26.462 Z M76.47,30.928 L76.514,37 L74.556,37 L74.556,26.462 L76.514,26.462 L76.514,27.782 C77.152,26.726 78.032,26.198 79.154,26.198 C79.836,26.198 80.364,26.352 80.738,26.66 L79.924,28.486 C79.506,28.2 79.044,28.068 78.538,28.068 C77.9,28.068 77.394,28.332 77.02,28.838 C76.646,29.344 76.47,30.048 76.47,30.928 Z M86.942,37.264 L86.964,37.308 C85.38,37.308 84.06,36.78 83.004,35.702 C81.948,34.624 81.42,33.304 81.42,31.742 C81.42,30.202 81.926,28.904 82.916,27.826 C83.906,26.748 85.138,26.22 86.612,26.22 C88.086,26.22 89.318,26.726 90.308,27.76 C91.298,28.794 91.804,30.048 91.804,31.544 C91.804,31.852 91.782,32.094 91.738,32.248 L83.378,32.248 C83.488,33.216 83.884,34.008 84.544,34.624 C85.204,35.24 86.018,35.548 87.008,35.548 C88.196,35.548 89.186,35.152 89.956,34.382 L90.99,35.724 C90.55,36.186 89.978,36.56 89.252,36.846 C88.526,37.132 87.756,37.264 86.942,37.264 Z M86.678,27.914 L86.678,27.892 C85.842,27.892 85.138,28.178 84.566,28.75 C83.994,29.322 83.642,30.048 83.488,30.95 L89.868,30.95 C89.714,29.982 89.362,29.234 88.79,28.706 C88.218,28.178 87.514,27.914 86.678,27.914 Z M99.636,26.462 L101.572,26.462 L101.572,28.068 C102.452,26.814 103.684,26.198 105.246,26.198 C106.676,26.198 107.886,26.726 108.876,27.782 C109.866,28.838 110.372,30.158 110.372,31.742 C110.372,33.304 109.888,34.624 108.92,35.68 C107.952,36.736 106.742,37.264 105.268,37.264 C103.684,37.264 102.452,36.67 101.594,35.46 L101.594,41.312 L99.636,41.312 L99.636,26.462 Z M105.026,28.0240581 C104.045933,28.0292423 103.239105,28.3813849 102.584,29.102 C101.924,29.828 101.594,30.708 101.594,31.742 C101.594,32.776 101.924,33.656 102.562,34.36 C103.2,35.064 104.014,35.416 105.004,35.416 C105.994,35.416 106.808,35.064 107.446,34.36 C108.084,33.656 108.414,32.776 108.414,31.742 C108.414,30.708 108.084,29.828 107.446,29.102 C106.812732,28.3813849 106.006065,28.0292423 105.026,28.0240581 L105.026,28.0240581 Z M121.438,37 L121.438,35.35 C120.536,36.626 119.304,37.264 117.742,37.264 C116.312,37.264 115.102,36.736 114.112,35.68 C113.122,34.624 112.638,33.304 112.638,31.72 C112.638,30.158 113.122,28.838 114.09,27.782 C115.058,26.726 116.268,26.198 117.742,26.198 C119.326,26.198 120.558,26.814 121.438,28.046 L121.438,26.462 L123.396,26.462 L123.396,37 L121.438,37 Z M118.028,35.438 C119.018,35.438 119.832,35.086 120.47,34.36 C121.108,33.634 121.438,32.754 121.438,31.72 C121.438,30.686 121.108,29.806 120.47,29.102 C119.832,28.398 119.018,28.046 118.028,28.046 C117.038,28.046 116.224,28.398 115.564,29.102 C114.904,29.806 114.574,30.686 114.574,31.72 C114.574,32.754 114.904,33.634 115.564,34.36 C116.224,35.086 117.038,35.438 118.028,35.438 Z M127.752,26.462 L131.316,34.712 L134.308,26.484 L136.288,26.484 L131.734,38.738 C131.052,40.652 129.908,41.598 128.302,41.598 C127.334,41.598 126.498,41.268 125.772,40.63 L126.696,39.112 C127.158,39.552 127.708,39.772 128.346,39.772 C128.742,39.772 129.072,39.64 129.336,39.376 C129.6,39.112 129.842,38.672 130.062,38.034 L130.392,37.132 L125.618,26.462 L127.752,26.462 Z M140.556,30.862 L140.468,37.044 L138.51,37.044 L138.51,26.506 L140.468,26.506 L140.468,27.826 C141.15,26.77 142.162,26.242 143.504,26.242 C145.176,26.242 146.342,26.946 147.024,28.376 C147.332,27.738 147.772,27.21 148.366,26.814 C148.96,26.418 149.664,26.22 150.478,26.22 C151.71,26.22 152.7,26.616 153.426,27.386 C154.152,28.156 154.526,29.212 154.526,30.554 L154.526,37 L152.568,37 L152.568,30.862 C152.568,30.004 152.348,29.322 151.908,28.816 C151.468,28.31 150.852,28.046 150.082,28.046 C149.29,28.046 148.674,28.31 148.212,28.816 C147.75,29.322 147.53,30.004 147.53,30.862 L147.53,37 L145.594,37 L145.594,30.862 C145.594,30.004 145.374,29.322 144.912,28.816 C144.45,28.31 143.834,28.046 143.064,28.046 C142.272,28.046 141.656,28.288 141.216,28.794 C140.776,29.3 140.556,29.982 140.556,30.862 Z M162.93,37.264 L162.952,37.308 C161.368,37.308 160.048,36.78 158.992,35.702 C157.936,34.624 157.408,33.304 157.408,31.742 C157.408,30.202 157.914,28.904 158.904,27.826 C159.894,26.748 161.126,26.22 162.6,26.22 C164.074,26.22 165.306,26.726 166.296,27.76 C167.286,28.794 167.792,30.048 167.792,31.544 C167.792,31.852 167.77,32.094 167.726,32.248 L159.366,32.248 C159.476,33.216 159.872,34.008 160.532,34.624 C161.192,35.24 162.006,35.548 162.996,35.548 C164.184,35.548 165.174,35.152 165.944,34.382 L166.978,35.724 C166.538,36.186 165.966,36.56 165.24,36.846 C164.514,37.132 163.744,37.264 162.93,37.264 Z M162.666,27.914 L162.666,27.892 C161.83,27.892 161.126,28.178 160.554,28.75 C159.982,29.322 159.63,30.048 159.476,30.95 L165.856,30.95 C165.702,29.982 165.35,29.234 164.778,28.706 C164.206,28.178 163.502,27.914 162.666,27.914 Z M172.566,30.862 L172.522,36.978 L170.564,36.978 L170.564,26.44 L172.522,26.44 L172.522,27.738 C173.204,26.704 174.26,26.176 175.69,26.176 C176.944,26.176 177.934,26.572 178.682,27.364 C179.43,28.156 179.804,29.212 179.804,30.554 L179.804,37 L177.846,37 L177.846,30.862 C177.846,30.004 177.604,29.322 177.12,28.816 C176.636,28.31 175.998,28.046 175.184,28.046 C174.37,28.046 173.732,28.288 173.27,28.794 C172.808,29.3 172.566,29.982 172.566,30.862 Z M182.224,28.2 L182.158,26.484 L183.918,26.484 L183.918,23.866 L185.854,23.866 L185.854,26.484 L188.846,26.484 L188.846,28.222 L185.876,28.222 L185.876,33.788 C185.876,34.91 186.36,35.46 187.328,35.46 C187.922,35.46 188.384,35.284 188.714,34.91 L189.616,36.384 C189.022,36.978 188.186,37.286 187.108,37.286 C186.118,37.286 185.348,37 184.798,36.406 C184.248,35.812 183.962,34.954 183.962,33.832 L183.962,28.2 L182.224,28.2 Z M202.651004,26.1980104 C204.076209,26.2007133 205.28254,26.7287098 206.27,27.782 C207.26,28.838 207.766,30.158 207.766,31.742 C207.766,33.304 207.282,34.624 206.314,35.68 C205.346,36.736 204.136,37.264 202.662,37.264 C201.078,37.264 199.846,36.67 198.988,35.46 L198.988,37 L197.03,37 L197.03,21.864 L198.988,21.864 L198.988,28.068 C199.865932,26.8169466 201.094212,26.2008984 202.650995,26.1980102 L202.651004,26.1980104 Z M202.42,28.0240581 C201.439933,28.0292423 200.633105,28.3813849 199.978,29.102 C199.318,29.828 198.988,30.708 198.988,31.742 C198.988,32.776 199.318,33.656 199.956,34.36 C200.594,35.064 201.408,35.416 202.398,35.416 C203.388,35.416 204.202,35.064 204.84,34.36 C205.478,33.656 205.808,32.776 205.808,31.742 C205.808,30.708 205.478,29.828 204.84,29.102 C204.206732,28.3813849 203.400065,28.0292423 202.42,28.0240581 L202.42,28.0240581 Z M211.374,26.462 L214.938,34.712 L217.93,26.484 L219.91,26.484 L215.356,38.738 C214.674,40.652 213.53,41.598 211.924,41.598 C210.956,41.598 210.12,41.268 209.394,40.63 L210.318,39.112 C210.78,39.552 211.33,39.772 211.968,39.772 C212.364,39.772 212.694,39.64 212.958,39.376 C213.222,39.112 213.464,38.672 213.684,38.034 L214.014,37.132 L209.24,26.462 L211.374,26.462 Z" id="Securepaymentby" fill="#BFCAD9" fill-rule="nonzero"></path>
                    <g id="im/logo/im_logo_desktop-white" transform="translate(24.000000, 54.000000)" fill="#FFFFFF">
                        <path d="M0,22.8136698 L1.19953287,15.7481316 L8.13422771,15.7481316 L6.9349522,22.8136698 L0,22.8136698 Z M30.9739923,18.7478257 L33.5727658,3.49186415 L40.5452918,3.49186415 L34.0215933,41.2709657 L27.616793,41.2709657 L28.133305,38.4818271 C27.1342519,39.6048769 25.9553074,40.4552272 24.5954422,41.0341891 C23.234805,41.6128888 21.7804904,41.9023698 20.2312117,41.9023698 C18.5089903,41.9023698 16.9684617,41.5774904 15.6083392,40.9287803 C14.2477019,40.2800702 13.0775075,39.4027122 12.0962119,38.2977549 C11.1149163,37.1925355 10.3657552,35.9032439 9.84950052,34.4298802 C9.33298851,32.9562542 9.07486118,31.4128802 9.07486118,29.7987091 C9.07486118,28.1855869 9.34997396,26.5097963 9.90122893,24.7731727 C10.4514545,23.0365491 11.2958371,21.4577766 12.4320606,20.0371173 C13.568284,18.6161958 14.9966057,17.440966 16.7188271,16.5111657 C18.4402765,15.5821521 20.4715815,15.1167275 22.8135144,15.1167275 C24.7761056,15.1167275 26.4290984,15.4413447 27.7719782,16.090317 C29.1148579,16.7398137 30.1818528,17.6253003 30.9739923,18.7478257 Z M28.8564733,30.7198564 C29.2002999,29.7905806 29.3732426,28.8516029 29.3732426,27.9042345 C29.3732426,26.9225165 29.2180574,26.0278525 28.9082017,25.2205047 C28.5983459,24.4136814 28.1672759,23.7387503 27.616793,23.1944002 C27.0657954,22.6508367 26.4203484,22.229988 25.6801946,21.9315919 C24.9392688,21.6337202 24.1386366,21.4839977 23.2785554,21.4839977 C22.245274,21.4839977 21.2979493,21.6864246 20.4376106,22.0891807 C19.5764999,22.4932479 18.8366036,23.0365491 18.2168921,23.7206577 C17.5969233,24.4047662 17.1064041,25.2123762 16.7445626,26.1413898 C16.3832359,27.0711901 16.2023151,28.0447796 16.2023151,29.0618962 C16.1678295,30.9220211 16.7010696,32.4653952 17.8035795,33.6930672 C18.9050601,34.9215258 20.4028677,35.5348374 22.2970024,35.5348374 C23.3639973,35.5348374 24.3373149,35.3161534 25.2151537,34.87695 C26.0932498,34.4387953 26.8334036,33.8690108 27.4361296,33.1668097 C28.0383409,32.4653952 28.5118746,31.6496567 28.8564733,30.7198564 Z M62.6878811,18.7478257 L63.2043931,15.7481316 L70.1254481,15.7481316 L65.7352247,41.2709657 L59.2274822,41.2709657 L59.6922658,38.6396781 C58.6929554,39.7275916 57.5309964,40.5430679 56.2058741,41.0866313 C54.8799798,41.6301948 53.4596361,41.9023698 51.9448431,41.9023698 C50.2226217,41.9023698 48.6818357,41.5774904 47.3219705,40.9287803 C45.9613333,40.2800702 44.7911389,39.4027122 43.8098433,38.2977549 C42.8285477,37.1925355 42.0796439,35.9032439 41.5631319,34.4298802 C41.0468772,32.9562542 40.7884925,31.4128802 40.7884925,29.7987091 C40.7884925,28.1855869 41.0636053,26.5097963 41.6148603,24.7731727 C42.1653432,23.0365491 43.0092111,21.4577766 44.1456919,20.0371173 C45.2819154,18.6161958 46.7102371,17.440966 48.4324585,16.5111657 C50.1539078,15.5821521 52.1852129,15.1167275 54.5271458,15.1167275 C56.4899943,15.1167275 58.1427298,15.4413447 59.4856096,16.090317 C60.8284893,16.7398137 61.8954842,17.6253003 62.6878811,18.7478257 Z M60.570362,30.6933731 C60.9139312,29.7814032 61.086874,28.834297 61.086874,27.8517923 C61.086874,26.869812 60.9319461,25.9835388 60.6220904,25.1940214 C60.3119773,24.4047662 59.8811646,23.7387503 59.3306817,23.1944002 C58.7794267,22.6508367 58.1339797,22.229988 57.393826,21.9315919 C56.6529002,21.6337202 55.852268,21.4839977 54.9921867,21.4839977 C53.9591627,21.4839977 53.011838,21.6864246 52.1514993,22.0891807 C51.2903886,22.4932479 50.5502349,23.0365491 49.9305235,23.7206577 C49.3105546,24.4047662 48.8200355,25.2123762 48.458194,26.1413898 C48.0968672,27.0711901 47.9159465,28.0447796 47.9159465,29.0618962 C47.8814609,30.9220211 48.414701,32.4653952 49.5172109,33.6930672 C50.6189488,34.9215258 52.1167564,35.5348374 54.0106337,35.5348374 C55.0776287,35.5348374 56.0509462,35.3161534 56.9290424,34.87695 C57.8071385,34.4387953 58.5470349,33.8598334 59.1500183,33.1405886 C59.7519722,32.4218682 60.2255059,31.6061297 60.570362,30.6933731 Z M86.0850772,8.64378627 L84.8453969,15.7481316 L92.2314929,15.7481316 L91.1984688,21.6945531 L83.7609018,21.6945531 L82.107909,31.2723351 C82.0734234,31.4826283 82.0476879,31.6850552 82.0307024,31.8775181 C82.0129449,32.0705054 82.0047095,32.2721457 82.0047095,32.4827011 C82.0047095,33.8163064 82.4777285,34.6928778 83.4250532,35.1137265 C84.3718632,35.5348374 85.6717646,35.7453929 87.3247575,35.7453929 C87.8065265,35.7453929 88.2025963,35.7453929 88.5127093,35.7453929 C88.8225651,35.7453929 89.1494063,35.7280869 89.494005,35.6926884 L88.4609809,41.6393722 C87.9781825,41.7091203 87.4966708,41.7710021 87.0149017,41.8234443 C86.5321033,41.8758865 85.9641202,41.9023698 85.3104378,41.9023698 C84.1742144,41.9023698 82.9942405,41.7880458 81.7723177,41.5601844 C80.5496229,41.3317986 79.4303849,40.9203895 78.4151184,40.3235973 C77.3990798,39.7275916 76.5727121,38.9026757 75.9357578,37.8501607 C75.2982888,36.7979079 74.9804551,35.4475211 74.9804551,33.7982138 C74.9804551,33.3771029 75.0064479,32.9654316 75.057919,32.5616267 C75.10939,32.1586083 75.1693538,31.7285822 75.2385824,31.2723351 L76.8915752,21.6945531 L72.914407,21.6945531 L73.89596,15.7481316 L77.9243419,15.7481316 L79.1640222,8.64378627 L86.0850772,8.64378627 Z M115.060449,18.7478257 L115.577218,15.7481316 L122.498273,15.7481316 L118.10805,41.2709657 L111.60005,41.2709657 L112.065091,38.6396781 C111.06578,39.7275916 109.903821,40.5430679 108.578442,41.0866313 C107.252547,41.6301948 105.832204,41.9023698 104.317411,41.9023698 C102.595189,41.9023698 101.054661,41.5774904 99.6947954,40.9287803 C98.3341581,40.2800702 97.1639638,39.4027122 96.1826682,38.2977549 C95.2011152,37.1925355 94.4522114,35.9032439 93.9359567,34.4298802 C93.4194447,32.9562542 93.1613174,31.4128802 93.1613174,29.7987091 C93.1613174,28.1855869 93.4361728,26.5097963 93.9874278,24.7731727 C94.5379107,23.0365491 95.382036,21.4577766 96.5182594,20.0371173 C97.6544829,18.6161958 99.083062,17.440966 100.805283,16.5111657 C102.526733,15.5821521 104.558038,15.1167275 106.899971,15.1167275 C108.862562,15.1167275 110.515555,15.4413447 111.858177,16.090317 C113.201314,16.7398137 114.268309,17.6253003 115.060449,18.7478257 Z M112.942929,30.6933731 C113.286756,29.7814032 113.459699,28.834297 113.459699,27.8517923 C113.459699,26.869812 113.304514,25.9835388 112.994658,25.1940214 C112.684802,24.4047662 112.253732,23.7387503 111.703249,23.1944002 C111.152252,22.6508367 110.506547,22.229988 109.766394,21.9315919 C109.025725,21.6337202 108.225093,21.4839977 107.364754,21.4839977 C106.33173,21.4839977 105.384405,21.6864246 104.524067,22.0891807 C103.662956,22.4932479 102.92306,23.0365491 102.303091,23.7206577 C101.683122,24.4047662 101.19286,25.2123762 100.831019,26.1413898 C100.469435,27.0711901 100.288771,28.0447796 100.288771,29.0618962 C100.254286,30.9220211 100.787526,32.4653952 101.889778,33.6930672 C102.991516,34.9215258 104.489324,35.5348374 106.383459,35.5348374 C107.450196,35.5348374 108.423771,35.3161534 109.30161,34.87695 C110.179706,34.4387953 110.919602,33.8598334 111.522586,33.1405886 C112.124797,32.4218682 112.598331,31.6061297 112.942929,30.6933731 Z M138.457902,8.64378627 L137.218222,15.7481316 L144.60406,15.7481316 L143.571036,21.6945531 L136.133469,21.6945531 L134.480734,31.2723351 C134.445991,31.4826283 134.420255,31.6850552 134.40327,31.8775181 C134.385512,32.0705054 134.377534,32.2721457 134.377534,32.4827011 C134.377534,33.8163064 134.850553,34.6928778 135.797621,35.1137265 C136.744431,35.5348374 138.04459,35.7453929 139.697582,35.7453929 C140.179094,35.7453929 140.575421,35.7453929 140.885277,35.7453929 C141.195133,35.7453929 141.522231,35.7280869 141.866572,35.6926884 L140.833806,41.6393722 C140.351007,41.7091203 139.869238,41.7710021 139.387727,41.8234443 C138.904928,41.8758865 138.336688,41.9023698 137.683263,41.9023698 C136.547039,41.9023698 135.367065,41.7880458 134.145143,41.5601844 C132.922448,41.3317986 131.80321,40.9203895 130.787943,40.3235973 C129.771647,39.7275916 128.94528,38.9026757 128.308583,37.8501607 C127.671114,36.7979079 127.353023,35.4475211 127.353023,33.7982138 C127.353023,33.3771029 127.379015,32.9654316 127.430487,32.5616267 C127.482215,32.1586083 127.541921,31.7285822 127.611407,31.2723351 L129.2644,21.6945531 L125.287232,21.6945531 L126.268528,15.7481316 L130.296909,15.7481316 L131.536847,8.64378627 L138.457902,8.64378627 Z M162.422824,15.4324296 C163.489819,15.4324296 164.505857,15.6256791 165.470168,16.0111293 L164.385672,22.1683685 C163.799675,22.0983581 163.283163,22.0456537 162.836136,22.0105174 C162.388338,21.9759056 161.974768,21.957813 161.596456,21.957813 C159.771035,21.957813 158.247492,22.4575872 157.025569,23.45766 C155.802875,24.4574707 155.001985,26.0624643 154.62393,28.272641 L152.402954,41.2709657 L145.430171,41.2709657 L149.820394,15.7481316 L156.22468,15.7481316 L155.760154,18.3267148 C157.58506,16.3976283 159.805778,15.4324296 162.422824,15.4324296 Z M186.955986,18.7478257 L187.472241,15.7481316 L194.393553,15.7481316 L190.003072,41.2709657 L183.49533,41.2709657 L183.960371,38.6396781 C182.96106,39.7275916 181.798844,40.5430679 180.473979,41.0866313 C179.148085,41.6301948 177.727741,41.9023698 176.212691,41.9023698 C174.490727,41.9023698 172.950198,41.5774904 171.590333,40.9287803 C170.229438,40.2800702 169.059501,39.4027122 168.077948,38.2977549 C167.096653,37.1925355 166.347492,35.9032439 165.831494,34.4298802 C165.314725,32.9562542 165.056598,31.4128802 165.056598,29.7987091 C165.056598,28.1855869 165.331453,26.5097963 165.882965,24.7731727 C166.433191,23.0365491 167.277574,21.4577766 168.413797,20.0371173 C169.55002,18.6161958 170.9786,17.440966 172.700564,16.5111657 C174.422013,15.5821521 176.453318,15.1167275 178.795508,15.1167275 C180.758099,15.1167275 182.410578,15.4413447 183.753715,16.090317 C185.096594,16.7398137 186.163332,17.6253003 186.955986,18.7478257 Z M184.838467,30.6933731 C185.182036,29.7814032 185.354979,28.834297 185.354979,27.8517923 C185.354979,26.869812 185.199794,25.9835388 184.889938,25.1940214 C184.580082,24.4047662 184.149012,23.7387503 183.598787,23.1944002 C183.047532,22.6508367 182.401827,22.229988 181.661674,21.9315919 C180.921005,21.6337202 180.120373,21.4839977 179.260034,21.4839977 C178.227268,21.4839977 177.279686,21.6864246 176.419347,22.0891807 C175.558236,22.4932479 174.818083,23.0365491 174.198371,23.7206577 C173.57866,24.4047662 173.088141,25.2123762 172.726556,26.1413898 C172.364972,27.0711901 172.184052,28.0447796 172.184052,29.0618962 C172.149309,30.9220211 172.683063,32.4653952 173.785316,33.6930672 C174.887054,34.9215258 176.384604,35.5348374 178.278739,35.5348374 C179.345734,35.5348374 180.319051,35.3161534 181.197147,34.87695 C182.075244,34.4387953 182.81514,33.8598334 183.417866,33.1405886 C184.01982,32.4218682 184.493611,31.6061297 184.838467,30.6933731 Z M219.575251,17.5374596 C220.34989,18.3094089 220.944123,19.230294 221.357178,20.3001149 C221.770491,21.3707225 221.977147,22.5546053 221.977147,23.8522876 C221.977147,24.6596354 221.87369,25.6413534 221.667292,26.7990151 L219.187931,41.2709657 L212.266876,41.2709657 L214.643037,27.2728304 C214.711494,26.887118 214.771972,26.5451948 214.823443,26.2465365 C214.875429,25.9489269 214.900907,25.659446 214.900907,25.3783558 C214.900907,24.0455372 214.504837,23.0284206 213.712955,22.3262195 C212.920558,21.624805 211.870549,21.2737045 210.562412,21.2737045 C209.253246,21.2737045 208.109044,21.6602035 207.127749,22.4313661 C206.146453,23.2035776 205.517992,24.3612392 205.242364,25.9046133 L202.660061,41.2709657 L195.687278,41.2709657 L200.077759,15.7481316 L206.430316,15.7481316 L206.068989,18.0110127 C206.964071,17.1344413 208.005845,16.4322402 209.193797,15.9059827 C210.381491,15.3797252 211.732606,15.1167275 213.248429,15.1167275 C214.556566,15.1167275 215.74426,15.3270207 216.812027,15.7481316 C217.879022,16.1689803 218.800611,16.7660348 219.575251,17.5374596 Z M234.914911,21.3261467 C234.44987,21.6418487 234.217478,22.0983581 234.217478,22.694626 C234.217478,23.1862716 234.398399,23.5890278 234.759983,23.9047298 C235.121567,24.2204319 235.6808,24.5715325 236.438454,24.9572449 L238.711158,25.9570555 C240.776949,26.869812 242.378213,27.896106 243.514437,29.0356751 C244.650918,30.176293 245.218901,31.6404793 245.218901,33.4298073 C245.218901,34.5177209 245.003494,35.5702359 244.573454,36.5873524 C244.142384,37.6052556 243.514437,38.5080482 242.688069,39.2973033 C241.861701,40.0868207 240.828935,40.7182248 239.589255,41.1920402 C238.349574,41.6655933 236.903495,41.9023698 235.250502,41.9023698 C232.771399,41.9023698 230.584394,41.3671971 228.691031,40.2973762 C226.796897,39.2275552 225.334089,37.8158111 224.300808,36.0610949 L228.639303,32.1669991 C229.569127,33.2900489 230.541673,34.2374173 231.557712,35.0085799 C232.572721,35.7805291 233.821408,36.1662415 235.302231,36.1662415 C236.162569,36.1662415 236.92048,35.9913468 237.574678,35.639984 C238.228617,35.2896701 238.556231,34.7634126 238.556231,34.0612115 C238.556231,33.4652058 238.349574,33.0089587 237.936262,32.6929944 C237.523206,32.3772923 236.937209,32.0269784 236.180069,31.6404793 L233.804423,30.6406687 C232.840113,30.21982 231.970767,29.7643595 231.196127,29.2727138 C230.421231,28.7815926 229.758026,28.229114 229.207543,27.6147536 C228.656546,27.001442 228.234226,26.3173334 227.942128,25.5626901 C227.649257,24.8085712 227.503079,23.9401283 227.503079,22.9576236 C227.503079,21.7299516 227.743707,20.6249944 228.226248,19.6422275 C228.708017,18.6605094 229.362471,17.8358558 230.188839,17.1687909 C231.015464,16.5030372 231.996502,15.9938234 233.132983,15.642985 C234.269207,15.2926711 235.490872,15.1167275 236.800038,15.1167275 C238.8998,15.1167275 240.742463,15.5029643 242.326742,16.2743892 C243.909992,17.0466006 245.235886,18.1688638 246.303653,19.6422275 L242.171557,23.5890278 C241.413903,22.67732 240.57055,21.9929493 239.640726,21.5367021 C238.711158,21.0812416 237.763576,20.8525936 236.800038,20.8525936 C236.007641,20.8525936 235.379952,21.0107068 234.914911,21.3261467 Z M249.390887,34.2051653 L256.325839,34.2051653 L255.126306,41.2709657 L248.191354,41.2709657 L249.390887,34.2051653 Z" id="logo-desktop"></path>
                    </g>
                </g>
                <path d="M36.442,376.394 L35.078,377.978 C34,377.076 32.768,376.636 31.36,376.636 C29.952,376.636 28.764,377.164 27.774,378.22 C26.784,379.276 26.3,380.53 26.3,382.004 C26.3,383.478 26.806,384.732 27.818,385.766 C28.83,386.8 30.084,387.328 31.558,387.328 C33.032,387.328 34.22,386.888 35.122,386.03 L36.42,387.482 C35.21,388.692 33.538,389.286 31.426,389.286 C29.38,389.286 27.664,388.582 26.278,387.152 C24.892,385.722 24.188,384.006 24.188,381.982 C24.188,379.958 24.892,378.22 26.3,376.79 C27.708,375.36 29.402,374.634 31.404,374.634 C33.472,374.634 35.144,375.228 36.442,376.394 Z M43.284,389.264 L43.306,389.308 C41.722,389.308 40.402,388.78 39.346,387.702 C38.29,386.624 37.762,385.304 37.762,383.742 C37.762,382.202 38.268,380.904 39.258,379.826 C40.248,378.748 41.48,378.22 42.954,378.22 C44.428,378.22 45.66,378.726 46.65,379.76 C47.64,380.794 48.146,382.048 48.146,383.544 C48.146,383.852 48.124,384.094 48.08,384.248 L39.72,384.248 C39.83,385.216 40.226,386.008 40.886,386.624 C41.546,387.24 42.36,387.548 43.35,387.548 C44.538,387.548 45.528,387.152 46.298,386.382 L47.332,387.724 C46.892,388.186 46.32,388.56 45.594,388.846 C44.868,389.132 44.098,389.264 43.284,389.264 Z M43.02,379.914 L43.02,379.892 C42.184,379.892 41.48,380.178 40.908,380.75 C40.336,381.322 39.984,382.048 39.83,382.95 L46.21,382.95 C46.056,381.982 45.704,381.234 45.132,380.706 C44.56,380.178 43.856,379.914 43.02,379.914 Z M52.92,382.928 L52.964,389 L51.006,389 L51.006,378.462 L52.964,378.462 L52.964,379.782 C53.602,378.726 54.482,378.198 55.604,378.198 C56.286,378.198 56.814,378.352 57.188,378.66 L56.374,380.486 C55.956,380.2 55.494,380.068 54.988,380.068 C54.35,380.068 53.844,380.332 53.47,380.838 C53.096,381.344 52.92,382.048 52.92,382.928 Z M58.332,380.2 L58.266,378.484 L60.026,378.484 L60.026,375.866 L61.962,375.866 L61.962,378.484 L64.954,378.484 L64.954,380.222 L61.984,380.222 L61.984,385.788 C61.984,386.91 62.468,387.46 63.436,387.46 C64.03,387.46 64.492,387.284 64.822,386.91 L65.724,388.384 C65.13,388.978 64.294,389.286 63.216,389.286 C62.226,389.286 61.456,389 60.906,388.406 C60.356,387.812 60.07,386.954 60.07,385.832 L60.07,380.2 L58.332,380.2 Z M70.08,378.462 L70.08,389 L68.122,389 L68.122,378.462 L70.08,378.462 Z M69.09,376.636 L69.046,376.636 C68.716,376.636 68.43,376.526 68.188,376.284 C67.946,376.042 67.836,375.756 67.836,375.426 C67.836,375.096 67.968,374.81 68.21,374.568 C68.452,374.326 68.738,374.216 69.068,374.216 C69.398,374.216 69.684,374.326 69.926,374.568 C70.168,374.81 70.3,375.096 70.3,375.426 C70.3,375.756 70.19,376.042 69.948,376.284 C69.706,376.526 69.42,376.636 69.09,376.636 Z M83.126,374.986 L82.092,376.504 C81.3,375.778 80.31,375.426 79.122,375.426 C77.274,375.426 76.35,376.284 76.35,378 L76.35,378.462 L82.994,378.462 L82.994,389 L81.036,389 L81.036,380.2 L76.35,380.2 L76.35,389 L74.414,389 L74.414,380.2 L72.742,380.2 L72.742,378.462 L74.414,378.462 L74.414,377.934 C74.414,376.548 74.832,375.47 75.646,374.722 C76.46,373.974 77.582,373.6 79.012,373.6 C80.728,373.6 82.092,374.062 83.126,374.986 Z M91.53,389.264 L91.552,389.308 C89.968,389.308 88.648,388.78 87.592,387.702 C86.536,386.624 86.008,385.304 86.008,383.742 C86.008,382.202 86.514,380.904 87.504,379.826 C88.494,378.748 89.726,378.22 91.2,378.22 C92.674,378.22 93.906,378.726 94.896,379.76 C95.886,380.794 96.392,382.048 96.392,383.544 C96.392,383.852 96.37,384.094 96.326,384.248 L87.966,384.248 C88.076,385.216 88.472,386.008 89.132,386.624 C89.792,387.24 90.606,387.548 91.596,387.548 C92.784,387.548 93.774,387.152 94.544,386.382 L95.578,387.724 C95.138,388.186 94.566,388.56 93.84,388.846 C93.114,389.132 92.344,389.264 91.53,389.264 Z M91.266,379.914 L91.266,379.892 C90.43,379.892 89.726,380.178 89.154,380.75 C88.582,381.322 88.23,382.048 88.076,382.95 L94.456,382.95 C94.302,381.982 93.95,381.234 93.378,380.706 C92.806,380.178 92.102,379.914 91.266,379.914 Z M103.828,387.438 C104.818,387.438 105.632,387.086 106.27,386.36 C106.908,385.634 107.238,384.754 107.238,383.72 C107.238,382.686 106.908,381.806 106.27,381.102 C105.632,380.398 104.818,380.046 103.828,380.046 C102.838,380.046 102.024,380.398 101.364,381.102 C100.704,381.806 100.374,382.686 100.374,383.72 C100.374,384.754 100.704,385.634 101.364,386.36 C102.024,387.086 102.838,387.438 103.828,387.438 Z M107.238,373.864 L109.196,373.864 L109.196,389 L107.238,389 L107.238,387.35 C106.336,388.626 105.104,389.264 103.542,389.264 C102.112,389.264 100.902,388.736 99.912,387.68 C98.922,386.624 98.438,385.304 98.438,383.72 C98.438,382.158 98.922,380.838 99.89,379.782 C100.858,378.726 102.068,378.198 103.542,378.198 C105.126,378.198 106.358,378.814 107.238,380.046 L107.238,373.864 Z M123.617004,378.19801 C125.042209,378.200713 126.24854,378.72871 127.236,379.782 C128.226,380.838 128.732,382.158 128.732,383.742 C128.732,385.304 128.248,386.624 127.28,387.68 C126.312,388.736 125.102,389.264 123.628,389.264 C122.044,389.264 120.812,388.67 119.954,387.46 L119.954,389 L117.996,389 L117.996,373.864 L119.954,373.864 L119.954,380.068 C120.831932,378.816947 122.060212,378.200898 123.616995,378.19801 L123.617004,378.19801 Z M123.386,380.024058 C122.405933,380.029242 121.599105,380.381385 120.944,381.102 C120.284,381.828 119.954,382.708 119.954,383.742 C119.954,384.776 120.284,385.656 120.922,386.36 C121.56,387.064 122.374,387.416 123.364,387.416 C124.354,387.416 125.168,387.064 125.806,386.36 C126.444,385.656 126.774,384.776 126.774,383.742 C126.774,382.708 126.444,381.828 125.806,381.102 C125.172732,380.381385 124.366065,380.029242 123.386,380.024058 L123.386,380.024058 Z M132.34,378.462 L135.904,386.712 L138.896,378.484 L140.876,378.484 L136.322,390.738 C135.64,392.652 134.496,393.598 132.89,393.598 C131.922,393.598 131.086,393.268 130.36,392.63 L131.284,391.112 C131.746,391.552 132.296,391.772 132.934,391.772 C133.33,391.772 133.66,391.64 133.924,391.376 C134.188,391.112 134.43,390.672 134.65,390.034 L134.98,389.132 L130.206,378.462 L132.34,378.462 Z M149.038,374.898 L153.416,386.8 L157.816,374.898 L159.884,374.898 L154.516,389 L152.184,389 L146.816,374.898 L149.038,374.898 Z M162.414,389 L162.414,374.898 L164.394,374.898 L164.394,389 L162.414,389 Z M177.594,376.812 L176.142,378.176 C175.812,377.714 175.328,377.318 174.69,376.988 C174.052,376.658 173.37,376.504 172.644,376.504 C171.808,376.504 171.148,376.68 170.642,377.032 C170.136,377.384 169.894,377.846 169.894,378.418 C169.894,378.902 170.092,379.32 170.488,379.65 C170.884,379.98 171.368,380.244 171.962,380.42 C172.556,380.596 173.194,380.816 173.876,381.058 C174.558,381.3 175.196,381.564 175.79,381.85 C176.384,382.136 176.868,382.554 177.264,383.126 C177.66,383.698 177.858,384.358 177.858,385.128 C177.858,386.382 177.396,387.394 176.45,388.164 C175.504,388.934 174.25,389.308 172.688,389.308 C170.268,389.308 168.486,388.516 167.364,386.91 L168.794,385.568 C169.74,386.822 171.038,387.438 172.688,387.438 C173.634,387.438 174.382,387.24 174.91,386.844 C175.438,386.448 175.702,385.92 175.702,385.26 C175.702,384.622 175.438,384.116 174.888,383.72 C174.338,383.324 173.678,383.016 172.908,382.774 C172.138,382.532 171.368,382.268 170.598,381.982 C169.828,381.696 169.168,381.256 168.618,380.662 C168.068,380.068 167.804,379.32 167.804,378.418 C167.804,377.296 168.266,376.372 169.168,375.668 C170.07,374.964 171.258,374.612 172.732,374.612 C173.788,374.612 174.756,374.81 175.614,375.228 C176.472,375.646 177.132,376.174 177.594,376.812 Z M190.75,389 L189.298,385.392 L182.566,385.392 L181.114,389 L179.024,389 L184.832,374.898 L187.164,374.898 L192.972,389 L190.75,389 Z M188.594,383.61 L185.932,377.01 L183.292,383.61 L188.594,383.61 Z M198.912,389 L205.138,374.898 L207.14,374.898 L200.914,389 L198.912,389 Z M221.858,386.228 L216.6,378.066 L216.6,389 L214.62,389 L214.62,374.898 L216.908,374.898 L221.99,382.972 L227.05,374.898 L229.074,374.898 L229.074,389 L227.094,389 L227.094,378.066 L221.858,386.228 Z M240.998,389 L240.998,387.35 C240.096,388.626 238.864,389.264 237.302,389.264 C235.872,389.264 234.662,388.736 233.672,387.68 C232.682,386.624 232.198,385.304 232.198,383.72 C232.198,382.158 232.682,380.838 233.65,379.782 C234.618,378.726 235.828,378.198 237.302,378.198 C238.886,378.198 240.118,378.814 240.998,380.046 L240.998,378.462 L242.956,378.462 L242.956,389 L240.998,389 Z M237.588,387.438 C238.578,387.438 239.392,387.086 240.03,386.36 C240.668,385.634 240.998,384.754 240.998,383.72 C240.998,382.686 240.668,381.806 240.03,381.102 C239.392,380.398 238.578,380.046 237.588,380.046 C236.598,380.046 235.784,380.398 235.124,381.102 C234.464,381.806 234.134,382.686 234.134,383.72 C234.134,384.754 234.464,385.634 235.124,386.36 C235.784,387.086 236.598,387.438 237.588,387.438 Z M247.972,381.124 L247.928,381.212 C247.928,381.63 248.126,381.96 248.544,382.224 C248.962,382.488 249.468,382.686 250.062,382.84 C250.656,382.994 251.25,383.17 251.844,383.39 C252.438,383.61 252.944,383.94 253.362,384.402 C253.78,384.864 253.978,385.458 253.978,386.184 C253.978,387.108 253.626,387.856 252.9,388.45 C252.174,389.044 251.162,389.33 249.864,389.33 C247.972,389.33 246.564,388.758 245.64,387.614 L246.784,386.338 C247.554,387.284 248.632,387.746 249.996,387.746 C250.634,387.746 251.14,387.614 251.492,387.328 C251.844,387.042 252.02,386.668 252.02,386.206 C252.02,385.766 251.822,385.414 251.404,385.128 C250.986,384.842 250.502,384.622 249.93,384.446 C249.358,384.27 248.786,384.072 248.192,383.852 C247.598,383.632 247.092,383.302 246.674,382.84 C246.256,382.378 246.058,381.806 246.058,381.124 C246.058,380.31 246.41,379.628 247.092,379.056 C247.774,378.484 248.698,378.198 249.864,378.198 C251.712,378.198 253.01,378.748 253.78,379.826 L252.614,380.992 C251.976,380.178 251.074,379.782 249.908,379.782 C249.314,379.782 248.852,379.914 248.5,380.156 C248.148,380.398 247.972,380.728 247.972,381.124 Z M255.606,380.2 L255.54,378.484 L257.3,378.484 L257.3,375.866 L259.236,375.866 L259.236,378.484 L262.228,378.484 L262.228,380.222 L259.258,380.222 L259.258,385.788 C259.258,386.91 259.742,387.46 260.71,387.46 C261.304,387.46 261.766,387.284 262.096,386.91 L262.998,388.384 C262.404,388.978 261.568,389.286 260.49,389.286 C259.5,389.286 258.73,389 258.18,388.406 C257.63,387.812 257.344,386.954 257.344,385.832 L257.344,380.2 L255.606,380.2 Z M269.576,389.264 L269.598,389.308 C268.014,389.308 266.694,388.78 265.638,387.702 C264.582,386.624 264.054,385.304 264.054,383.742 C264.054,382.202 264.56,380.904 265.55,379.826 C266.54,378.748 267.772,378.22 269.246,378.22 C270.72,378.22 271.952,378.726 272.942,379.76 C273.932,380.794 274.438,382.048 274.438,383.544 C274.438,383.852 274.416,384.094 274.372,384.248 L266.012,384.248 C266.122,385.216 266.518,386.008 267.178,386.624 C267.838,387.24 268.652,387.548 269.642,387.548 C270.83,387.548 271.82,387.152 272.59,386.382 L273.624,387.724 C273.184,388.186 272.612,388.56 271.886,388.846 C271.16,389.132 270.39,389.264 269.576,389.264 Z M269.312,379.914 L269.312,379.892 C268.476,379.892 267.772,380.178 267.2,380.75 C266.628,381.322 266.276,382.048 266.122,382.95 L272.502,382.95 C272.348,381.982 271.996,381.234 271.424,380.706 C270.852,380.178 270.148,379.914 269.312,379.914 Z M279.212,382.928 L279.256,389 L277.298,389 L277.298,378.462 L279.256,378.462 L279.256,379.782 C279.894,378.726 280.774,378.198 281.896,378.198 C282.578,378.198 283.106,378.352 283.48,378.66 L282.666,380.486 C282.248,380.2 281.786,380.068 281.28,380.068 C280.642,380.068 280.136,380.332 279.762,380.838 C279.388,381.344 279.212,382.048 279.212,382.928 Z M292.434,381.058 L292.39,381.102 C291.664,380.42 290.74,380.068 289.618,380.068 C288.584,380.068 287.748,380.42 287.088,381.124 C286.428,381.828 286.098,382.708 286.098,383.742 C286.098,384.776 286.428,385.656 287.088,386.382 C287.748,387.108 288.584,387.46 289.596,387.46 C290.762,387.46 291.708,387.108 292.434,386.382 L293.446,387.812 C293.028,388.274 292.478,388.626 291.774,388.89 C291.07,389.154 290.322,389.286 289.53,389.286 C288.012,389.286 286.736,388.736 285.702,387.658 C284.668,386.58 284.14,385.26 284.14,383.72 C284.14,382.18 284.668,380.882 285.724,379.804 C286.78,378.726 288.078,378.198 289.596,378.198 C291.29,378.198 292.61,378.682 293.556,379.672 L292.434,381.058 Z M303.654,389 L303.654,387.35 C302.752,388.626 301.52,389.264 299.958,389.264 C298.528,389.264 297.318,388.736 296.328,387.68 C295.338,386.624 294.854,385.304 294.854,383.72 C294.854,382.158 295.338,380.838 296.306,379.782 C297.274,378.726 298.484,378.198 299.958,378.198 C301.542,378.198 302.774,378.814 303.654,380.046 L303.654,378.462 L305.612,378.462 L305.612,389 L303.654,389 Z M300.244,387.438 C301.234,387.438 302.048,387.086 302.686,386.36 C303.324,385.634 303.654,384.754 303.654,383.72 C303.654,382.686 303.324,381.806 302.686,381.102 C302.048,380.398 301.234,380.046 300.244,380.046 C299.254,380.046 298.44,380.398 297.78,381.102 C297.12,381.806 296.79,382.686 296.79,383.72 C296.79,384.754 297.12,385.634 297.78,386.36 C298.44,387.086 299.254,387.438 300.244,387.438 Z M311.354,382.928 L311.398,389 L309.44,389 L309.44,378.462 L311.398,378.462 L311.398,379.782 C312.036,378.726 312.916,378.198 314.038,378.198 C314.72,378.198 315.248,378.352 315.622,378.66 L314.808,380.486 C314.39,380.2 313.928,380.068 313.422,380.068 C312.784,380.068 312.278,380.332 311.904,380.838 C311.53,381.344 311.354,382.048 311.354,382.928 Z M321.694,387.438 C322.684,387.438 323.498,387.086 324.136,386.36 C324.774,385.634 325.104,384.754 325.104,383.72 C325.104,382.686 324.774,381.806 324.136,381.102 C323.498,380.398 322.684,380.046 321.694,380.046 C320.704,380.046 319.89,380.398 319.23,381.102 C318.57,381.806 318.24,382.686 318.24,383.72 C318.24,384.754 318.57,385.634 319.23,386.36 C319.89,387.086 320.704,387.438 321.694,387.438 Z M325.104,373.864 L327.062,373.864 L327.062,389 L325.104,389 L325.104,387.35 C324.202,388.626 322.97,389.264 321.408,389.264 C319.978,389.264 318.768,388.736 317.778,387.68 C316.788,386.624 316.304,385.304 316.304,383.72 C316.304,382.158 316.788,380.838 317.756,379.782 C318.724,378.726 319.934,378.198 321.408,378.198 C322.992,378.198 324.224,378.814 325.104,380.046 L325.104,373.864 Z" id="CertifedbyVISA/Mastercard" fill="#213D62" fill-rule="nonzero"></path>
                <g id="Group-5" stroke-width="1" fill-rule="evenodd" transform="translate(24.000000, 128.000000)">
                    <rect id="Rectangle" stroke="#E0E0E0" fill="#FFFFFF" x="0.5" y="0.5" width="139" height="79" rx="3"></rect>
                    <g id="im/logo-pay/apple-pay" fill="#000000" fill-rule="nonzero">
                        <path d="M37.63519,24.3943128 C36.4398775,25.8075829 34.5273775,26.9222749 32.6148775,26.7630332 C32.375815,24.8521327 33.3121432,22.8218009 34.4078463,21.5677725 C35.6031588,20.1146919 37.6949557,19.0796209 39.388315,19 C39.5875338,20.9905213 38.8105807,22.9412322 37.63519,24.3943128 L37.63519,24.3943128 Z M39.3683932,27.1412322 C36.5992525,26.9819905 34.2285494,28.7137441 32.9137057,28.7137441 C31.57894,28.7137441 29.5668307,27.2208531 27.3754244,27.2606635 C24.5265963,27.3004739 21.8769869,28.9127962 20.42269,31.4805687 C17.4344088,36.6161137 19.6457369,44.2199052 22.5344088,48.4 C23.9488619,50.4701422 25.6422213,52.7393365 27.8734713,52.6597156 C29.98519,52.5800948 30.8219088,51.2862559 33.3719088,51.2862559 C35.9418307,51.2862559 36.67894,52.6597156 38.91019,52.6199052 C41.2211275,52.5800948 42.6754244,50.549763 44.0898775,48.4796209 C45.7035494,46.1308057 46.3609713,43.8417062 46.400815,43.7222749 C46.3609713,43.6824645 41.938315,41.9905213 41.8984713,36.8947867 C41.8586275,32.6350711 45.3847994,30.6047393 45.5441744,30.4853081 C43.5519869,27.5393365 40.4441744,27.2208531 39.3683932,27.1412322 L39.3683932,27.1412322 Z M55.3656588,21.3687204 L55.3656588,52.4009479 L60.1867525,52.4009479 L60.1867525,41.7914692 L66.8605807,41.7914692 C72.9566744,41.7914692 77.2398775,37.6113744 77.2398775,31.5601896 C77.2398775,25.5090047 73.0363619,21.3687204 67.0199557,21.3687204 L55.3656588,21.3687204 Z M60.1867525,25.4293839 L65.7449557,25.4293839 C69.9285494,25.4293839 72.3191744,27.6587678 72.3191744,31.5800948 C72.3191744,35.5014218 69.9285494,37.7507109 65.7250338,37.7507109 L60.1867525,37.7507109 L60.1867525,25.4293839 L60.1867525,25.4293839 Z M86.0453463,52.6398104 C89.0734713,52.6398104 91.8824557,51.107109 93.1574557,48.678673 L93.257065,48.678673 L93.257065,52.4009479 L97.719565,52.4009479 L97.719565,36.9545024 C97.719565,32.4758294 94.1336275,29.5895735 88.6152682,29.5895735 C83.4953463,29.5895735 79.71019,32.5156398 79.5707369,36.5364929 L83.9137057,36.5364929 C84.2722994,34.6255924 86.0453463,33.371564 88.475815,33.371564 C91.4242525,33.371564 93.0777682,34.7450237 93.0777682,37.2729858 L93.0777682,38.9848341 L87.0613619,39.343128 C81.463315,39.6815166 78.43519,41.9706161 78.43519,45.9516588 C78.43519,49.9725118 81.5629244,52.6398104 86.0453463,52.6398104 Z M87.3402682,48.957346 C84.7703463,48.957346 83.1367525,47.7232227 83.1367525,45.8322275 C83.1367525,43.8815166 84.7105807,42.7469194 87.7187838,42.5677725 L93.0777682,42.2293839 L93.0777682,43.9810427 C93.0777682,46.8872038 90.6074557,48.957346 87.3402682,48.957346 Z M103.676206,60.8407583 C108.377768,60.8407583 110.589096,59.0492891 112.521518,53.6151659 L120.988315,29.8881517 L116.087534,29.8881517 L110.409799,48.2208531 L110.31019,48.2208531 L104.632456,29.8881517 L99.5922213,29.8881517 L107.76019,52.4805687 L107.321909,53.8540284 C106.584799,56.1829384 105.389487,57.078673 103.257846,57.078673 C102.879331,57.078673 102.142221,57.0388626 101.843393,56.9990521 L101.843393,60.721327 C102.122299,60.8009479 103.317612,60.8407583 103.676206,60.8407583 Z" id="apple-pay"></path>
                    </g>
                </g>
                <g id="Group-4" stroke-width="1" fill-rule="evenodd" transform="translate(189.000000, 128.000000)">
                    <rect id="Rectangle" stroke="#E0E0E0" fill="#FFFFFF" x="0.5" y="0.5" width="139" height="79" rx="3"></rect>
                    <g id="im/logo-pay/paypal">
                        <g id="Group" transform="translate(14.000000, 26.000000)">
                            <path d="M41.7389576,6.09587097 L35.5617964,6.09587097 C35.1390867,6.09587097 34.7796028,6.40296774 34.7136673,6.82025806 L32.2153447,22.660129 C32.1656673,22.9726452 32.4077318,23.2544516 32.7247641,23.2544516 L35.6737964,23.2544516 C36.096506,23.2544516 36.4559899,22.9473548 36.5219254,22.5291613 L37.1957318,18.2569032 C37.2607641,17.8387097 37.6211512,17.5316129 38.0429576,17.5316129 L39.9984415,17.5316129 C44.0674738,17.5316129 46.4158609,15.5625806 47.0291512,11.6606452 C47.3055383,9.95354839 47.0408931,8.61225806 46.2415383,7.67290323 C45.3636028,6.64141935 43.8064415,6.09587097 41.7389576,6.09587097 Z M42.4516028,11.8810323 C42.1137964,14.0975484 40.420248,14.0975484 38.7826996,14.0975484 L37.8505706,14.0975484 L38.504506,9.95806452 C38.5433447,9.70787097 38.7601189,9.5236129 39.0130222,9.5236129 L39.440248,9.5236129 C40.5557318,9.5236129 41.6079899,9.5236129 42.1517318,10.1594839 C42.4759899,10.5388387 42.5753447,11.1024516 42.4516028,11.8810323 Z" id="Shape" fill="#253B80" fill-rule="nonzero"></path>
                            <path d="M60.2036028,11.8096774 L57.2455383,11.8096774 C56.9935383,11.8096774 56.7758609,11.9939355 56.7370222,12.244129 L56.6060544,13.0714839 L56.3992157,12.7716129 C55.7588286,11.8421935 54.3308286,11.5314839 52.9055383,11.5314839 C49.6367641,11.5314839 46.8448931,14.0072258 46.3011512,17.480129 C46.0184415,19.2125161 46.420377,20.8690323 47.4030867,22.0242581 C48.304506,23.0864516 49.5943125,23.5290323 51.1288931,23.5290323 C53.7626996,23.5290323 55.2232157,21.8354839 55.2232157,21.8354839 L55.0913447,22.6574194 C55.0416673,22.9717419 55.2837318,23.2535484 55.5989576,23.2535484 L58.2634738,23.2535484 C58.6870867,23.2535484 59.0447641,22.9464516 59.1116028,22.5282581 L60.7103125,12.404 C60.7608931,12.0923871 60.5197318,11.8096774 60.2036028,11.8096774 Z M56.080377,17.5668387 C55.7949576,19.2567742 54.4536673,20.3912258 52.7429576,20.3912258 C51.8839899,20.3912258 51.1975383,20.1157419 50.7567641,19.5936774 C50.3196028,19.0752258 50.1534093,18.3372903 50.292506,17.5153548 C50.5589576,15.839871 51.9228286,14.6683871 53.6073447,14.6683871 C54.4473447,14.6683871 55.1301835,14.9474839 55.5799899,15.4740645 C56.0306996,16.0060645 56.2095383,16.7485161 56.080377,17.5668387 Z" id="Shape" fill="#253B80" fill-rule="nonzero"></path>
                            <path d="M75.9576673,11.8096774 L72.9851512,11.8096774 C72.7015383,11.8096774 72.4350867,11.9505806 72.2743125,12.1863226 L68.1745706,18.2252903 L66.4367641,12.4220645 C66.3274738,12.0589677 65.992377,11.8096774 65.6130222,11.8096774 L62.6919899,11.8096774 C62.3370222,11.8096774 62.0904415,12.1565161 62.2033447,12.4907097 L65.4775383,22.0992258 L62.3993447,26.4446452 C62.1572802,26.7869677 62.4011512,27.2575484 62.8193447,27.2575484 L65.788248,27.2575484 C66.0700544,27.2575484 66.3337964,27.1202581 66.4936673,26.8890323 L76.380377,12.6180645 C76.6170222,12.2766452 76.3740544,11.8096774 75.9576673,11.8096774 Z" id="Shape" fill="#253B80" fill-rule="nonzero"></path>
                            <path d="M85.7992157,6.09587097 L79.6211512,6.09587097 C79.1993447,6.09587097 78.8398609,6.40296774 78.7739254,6.82025806 L76.2756028,22.660129 C76.2259254,22.9726452 76.4679899,23.2544516 76.7832157,23.2544516 L79.9535383,23.2544516 C80.2479899,23.2544516 80.4999899,23.0394839 80.5460544,22.7468387 L81.2550867,18.2569032 C81.3201189,17.8387097 81.680506,17.5316129 82.1023125,17.5316129 L84.0568931,17.5316129 C88.1268286,17.5316129 90.4743125,15.5625806 91.088506,11.6606452 C91.3657964,9.95354839 91.0993447,8.61225806 90.2999899,7.67290323 C89.4229576,6.64141935 87.8666996,6.09587097 85.7992157,6.09587097 Z M86.5118609,11.8810323 C86.1749576,14.0975484 84.4814093,14.0975484 82.8429576,14.0975484 L81.9117318,14.0975484 L82.5665706,9.95806452 C82.6054093,9.70787097 82.820377,9.5236129 83.0741835,9.5236129 L83.5014093,9.5236129 C84.6159899,9.5236129 85.6691512,9.5236129 86.2128931,10.1594839 C86.5371512,10.5388387 86.6356028,11.1024516 86.5118609,11.8810323 Z" id="Shape" fill="#179BD7" fill-rule="nonzero"></path>
                            <path d="M104.262958,11.8096774 L101.3067,11.8096774 C101.052893,11.8096774 100.837022,11.9939355 100.799087,12.244129 L100.668119,13.0714839 L100.460377,12.7716129 C99.8199899,11.8421935 98.3928931,11.5314839 96.9676028,11.5314839 C93.6988286,11.5314839 90.9078609,14.0072258 90.3641189,17.480129 C90.0823125,19.2125161 90.4824415,20.8690323 91.4651512,22.0242581 C92.368377,23.0864516 93.656377,23.5290323 95.1909576,23.5290323 C97.8247641,23.5290323 99.2852802,21.8354839 99.2852802,21.8354839 L99.1534093,22.6574194 C99.1037318,22.9717419 99.3457964,23.2535484 99.6628286,23.2535484 L102.326442,23.2535484 C102.748248,23.2535484 103.107732,22.9464516 103.173667,22.5282581 L104.77328,12.404 C104.822054,12.0923871 104.57999,11.8096774 104.262958,11.8096774 Z M100.139732,17.5668387 C99.8561189,19.2567742 98.5130222,20.3912258 96.8023125,20.3912258 C95.9451512,20.3912258 95.2568931,20.1157419 94.8161189,19.5936774 C94.3789576,19.0752258 94.2145706,18.3372903 94.3518609,17.5153548 C94.6201189,15.839871 95.9821835,14.6683871 97.6666996,14.6683871 C98.5066996,14.6683871 99.1895383,14.9474839 99.6393447,15.4740645 C100.091861,16.0060645 100.2707,16.7485161 100.139732,17.5668387 Z" id="Shape" fill="#179BD7" fill-rule="nonzero"></path>
                            <path d="M107.750312,6.53032258 L105.214958,22.660129 C105.16528,22.9726452 105.407345,23.2544516 105.722571,23.2544516 L108.271474,23.2544516 C108.695087,23.2544516 109.054571,22.9473548 109.119603,22.5291613 L111.619732,6.69019355 C111.669409,6.37767742 111.427345,6.09496774 111.112119,6.09496774 L108.257925,6.09496774 C108.005925,6.09587097 107.789151,6.28012903 107.750312,6.53032258 Z" id="Shape" fill="#179BD7" fill-rule="nonzero"></path>
                            <path d="M6.56282862,26.3326452 L7.03521571,23.332129 L5.98295765,23.3077419 L0.958312486,23.3077419 L4.45018345,1.16696774 C4.46102216,1.10012903 4.49624797,1.03780645 4.54773184,0.993548387 C4.59921571,0.949290323 4.6651512,0.924903226 4.73379636,0.924903226 L13.2060544,0.924903226 C16.0186996,0.924903226 17.9597318,1.51019355 18.9731512,2.66541935 C19.448248,3.20735484 19.7508286,3.77367742 19.8971512,4.39690323 C20.0506996,5.05083871 20.0534093,5.83212903 19.9034738,6.78503226 L19.8926351,6.85458065 L19.8926351,7.46516129 L20.3677318,7.73432258 C20.7678609,7.94658065 21.0857964,8.18954839 21.3296673,8.46774194 C21.7361189,8.93109677 21.9989576,9.52 22.1100544,10.2181935 C22.2247641,10.9362581 22.1868286,11.7907097 21.9989576,12.7580645 C21.7821835,13.8708387 21.4317318,14.84 20.9584415,15.6330323 C20.5230867,16.3637419 19.968506,16.9698065 19.3100544,17.4394839 C18.6814093,17.8856774 17.9344415,18.2243871 17.0899254,18.4411613 C16.2716028,18.6543226 15.3385706,18.7618065 14.3152157,18.7618065 L13.6558609,18.7618065 C13.184377,18.7618065 12.7264415,18.9316129 12.3669576,19.236 C12.0065706,19.5467097 11.7681189,19.9712258 11.6949576,20.4354839 L11.6452802,20.7055484 L10.8106996,25.9939355 L10.7727641,26.188129 C10.7628286,26.2495484 10.7456673,26.2802581 10.720377,26.3010323 C10.6977964,26.32 10.6652802,26.3326452 10.6336673,26.3326452 L6.56282862,26.3326452 Z" id="Shape" fill="#253B80" fill-rule="nonzero"></path>
                            <path d="M20.8175383,6.92503226 L20.8175383,6.92503226 L20.8175383,6.92503226 C20.792248,7.08670968 20.7633447,7.252 20.7308286,7.42180645 C19.6135383,13.1581935 15.7910867,15.139871 10.9091512,15.139871 L8.42347378,15.139871 C7.82644152,15.139871 7.32334474,15.5734194 7.23031249,16.1623226 L7.23031249,16.1623226 L7.23031249,16.1623226 L5.95766732,24.2335484 L5.59728023,26.5214194 C5.5367641,26.908 5.83482862,27.2566452 6.22502216,27.2566452 L10.6336673,27.2566452 C11.1557318,27.2566452 11.5992157,26.8772903 11.6814093,26.3624516 L11.7247641,26.1384516 L12.5548286,20.8708387 L12.6081189,20.5818065 C12.6894093,20.0651613 13.1337964,19.6858065 13.6558609,19.6858065 L14.3152157,19.6858065 C18.5865706,19.6858065 21.9303125,17.9516129 22.9076028,12.9332903 C23.3158609,10.8369032 23.104506,9.08645161 22.024248,7.85535484 C21.6972802,7.48412903 21.2917318,7.17612903 20.8175383,6.92503226 Z" id="Shape" fill="#179BD7" fill-rule="nonzero"></path>
                            <path d="M19.6487641,6.45896774 C19.4780544,6.40929032 19.3019254,6.36412903 19.1212802,6.32348387 C18.9397318,6.28374194 18.7536673,6.24851613 18.5621835,6.21780645 C17.8919899,6.10941935 17.1576673,6.05793548 16.3709576,6.05793548 L9.73044152,6.05793548 C9.56695765,6.05793548 9.41160281,6.09496774 9.27250603,6.16180645 C8.96631249,6.30903226 8.73869958,6.59896774 8.68360281,6.95393548 L7.27095765,15.9012903 L7.23031249,16.1623226 C7.32334474,15.5734194 7.82644152,15.139871 8.42347378,15.139871 L10.9091512,15.139871 C15.7910867,15.139871 19.6135383,13.1572903 20.7308286,7.42180645 C20.764248,7.252 20.792248,7.08670968 20.8175383,6.92503226 C20.5348286,6.77509677 20.2286351,6.64683871 19.8989576,6.53754839 C19.8176673,6.51045161 19.7336673,6.48425806 19.6487641,6.45896774 Z" id="Shape" fill="#222D65" fill-rule="nonzero"></path>
                            <path d="M8.68360281,6.95393548 C8.73869958,6.59896774 8.96631249,6.30903226 9.27250603,6.16270968 C9.41250603,6.09587097 9.56695765,6.05883871 9.73044152,6.05883871 L16.3709576,6.05883871 C17.1576673,6.05883871 17.8919899,6.11032258 18.5621835,6.21870968 C18.7536673,6.24941935 18.9397318,6.28464516 19.1212802,6.3243871 C19.3019254,6.36503226 19.4780544,6.41019355 19.6487641,6.45987097 C19.7336673,6.48516129 19.8176673,6.51135484 19.8998609,6.53754839 C20.2295383,6.64683871 20.5357318,6.776 20.8184415,6.92503226 C21.1508286,4.80516129 20.8157318,3.36180645 19.6695383,2.05483871 C18.4059254,0.616 16.1252802,-3.55271368e-14 13.2069576,-3.55271368e-14 L4.73469958,-3.55271368e-14 C4.13857055,-3.55271368e-14 3.63005442,0.433548387 3.53792539,1.02335484 L0.00902216343,23.3917419 C-0.0605262237,23.8343226 0.280893131,24.2335484 0.72708668,24.2335484 L5.95766732,24.2335484 L7.27095765,15.9012903 L8.68360281,6.95393548 Z" id="Shape" fill="#253B80" fill-rule="nonzero"></path>
                        </g>
                    </g>
                </g>
                <g id="Group-3" stroke-width="1" fill-rule="evenodd" transform="translate(24.000000, 24.000000)">
                    <rect id="Rectangle" stroke="#E0E0E0" fill="#FFFFFF" x="0.5" y="0.5" width="139" height="79" rx="3"></rect>
                    <g id="im/logo-pay/visa" fill="url(#linearGradient-1)">
                        <path d="M36.0842747,30.6571366 C32.6686835,28.3897847 29.6205485,27.5829863 29.0836401,27.4526419 C29.0286258,27.4399914 29,27.434052 29,27.434052 L29.1165101,27 L29.1232488,27 L39.6847753,27 C42.5917943,27 42.8637679,29.3124258 42.8637679,29.3124258 L45.1194274,40.8573848 L45.1187389,40.8560113 L45.874068,44.6587738 L52.2637262,27 L59.4761905,27 L48.814137,52.675 L41.8316453,52.675 L36.0842747,30.6571366 Z M64.6040065,52.675 L57.5714286,52.675 L61.9666995,27 L69,27 L64.6040065,52.675 Z M110.904762,52.675 L103.100382,52.675 L102.347169,48.8619356 L94.1793296,48.8619356 L92.8392573,52.675 L86.1428571,52.675 L95.7247035,28.9134001 C95.7247035,28.9134001 96.3049613,27 98.6906859,27 L105.760997,27 L110.904762,52.675 Z M87.139031,33.4086318 C84.4126122,31.8859266 78.2076366,31.5256525 78.2076366,34.3295533 C78.2076366,37.1334541 87.0991002,37.7339109 87.0991002,44.1830155 C87.0991002,50.3919374 80.5393301,52.675 76.192116,52.675 C71.8442472,52.675 69,51.2737131 69,51.2737131 L69.9478642,45.7050572 C72.5557999,47.8275558 80.4594687,48.428676 80.4594687,45.0641277 C80.4594687,41.6995794 71.6478665,41.6199608 71.6478665,35.211329 C71.6478665,28.4012869 79.1555008,27 82.3172301,27 C85.2419934,27 88.047619,28.0814856 88.047619,28.0814856 L87.139031,33.4086318 Z M96.6190476,44.775 L102.333333,44.775 L100.276276,34.9 L96.6190476,44.775 Z" id="Combined-Shape"></path>
                    </g>
                </g>
                <g id="Group-2" stroke-width="1" fill-rule="evenodd" transform="translate(189.000000, 24.000000)">
                    <rect id="Rectangle" stroke="#E0E0E0" fill="#FFFFFF" x="0.5" y="0.5" width="139" height="79" rx="3"></rect>
                    <g id="im/logo-pay/mastercard">
                        <g id="logo" transform="translate(32.000000, 10.000000)">
                            <polygon id="Fill-2" fill="#FF5F00" points="28.0135314 42.5734984 48.7093014 42.5734984 48.7093014 5.38287122 28.0135314 5.38287122"></polygon>
                            <path d="M29.3275486,23.9788418 C29.3275486,16.4337554 32.8602837,9.71387171 38.3614164,5.38287122 C34.3385529,2.21608991 29.2618477,0.32653326 23.7442897,0.32653326 C10.6823023,0.32653326 0.0939522256,10.9155404 0.0939522256,23.9788418 C0.0939522256,37.0414862 10.6823023,47.6304933 23.7442897,47.6304933 C29.2618477,47.6304933 34.3385529,45.7409367 38.3614164,42.5741554 C32.8602837,38.2431549 29.3275486,31.5232712 29.3275486,23.9788418" id="Fill-3" fill="#EB001B"></path>
                            <path d="M75.890403,38.634732 L75.890403,37.716891 L75.6505948,37.716891 L75.3753082,38.3482762 L75.0993646,37.716891 L74.8595565,37.716891 L74.8595565,38.634732 L75.0290647,38.634732 L75.0290647,37.9422449 L75.2872691,38.5394657 L75.4626904,38.5394657 L75.7215518,37.9409309 L75.7215518,38.634732 L75.890403,38.634732 Z M74.3727132,38.634732 L74.3727132,37.873259 L74.6795362,37.873259 L74.6795362,37.718205 L73.897696,37.718205 L73.897696,37.873259 L74.204519,37.873259 L74.204519,38.634732 L74.3727132,38.634732 L74.3727132,38.634732 Z" id="Fill-4" fill="#F79E1B"></path>
                            <path d="M76.6288806,23.9788418 C76.6288806,37.0414862 66.0405305,47.6304933 52.9785431,47.6304933 C47.4609851,47.6304933 42.3842799,45.7409367 38.3614164,42.5741554 C43.8625492,38.2431549 47.3952843,31.5232712 47.3952843,23.9788418 C47.3952843,16.4337554 43.8625492,9.71387171 38.3614164,5.38287122 C42.3842799,2.21608991 47.4609851,0.32653326 52.9785431,0.32653326 C66.0405305,0.32653326 76.6288806,10.9155404 76.6288806,23.9788418" id="Fill-5" fill="#F79E1B"></path>
                        </g>
                        <g id="text" transform="translate(36.000000, 61.000000)" fill="#000000">
                            <path d="M10.7913388,8.64314353 L10.7913388,4.77307926 C10.7913388,3.28955463 9.89427293,2.32203856 8.3564457,2.32203856 C7.58753209,2.32203856 6.75454234,2.58004284 6.17785713,3.41855677 C5.72932419,2.70904499 5.08856284,2.32203856 4.12742082,2.32203856 C3.48665948,2.32203856 2.84589813,2.51554177 2.33328905,3.22505355 L2.33328905,2.4510407 L0.987690229,2.4510407 L0.987690229,8.64314353 L2.33328905,8.64314353 L2.33328905,5.22458676 C2.33328905,4.12806855 2.90997427,3.61205998 3.80704015,3.61205998 C4.70410603,3.61205998 5.15263897,4.19256962 5.15263897,5.22458676 L5.15263897,8.64314353 L6.4982378,8.64314353 L6.4982378,5.22458676 C6.4982378,4.12806855 7.13899915,3.61205998 7.97198889,3.61205998 C8.86905478,3.61205998 9.31758772,4.19256962 9.31758772,5.22458676 L9.31758772,8.64314353 L10.7913388,8.64314353 Z M30.7190167,2.45145321 L28.5404281,2.45145321 L28.5404281,0.58050964 L27.1948293,0.58050964 L27.1948293,2.45145321 L25.9773827,2.45145321 L25.9773827,3.67724383 L27.1948293,3.67724383 L27.1948293,6.51591684 C27.1948293,7.93525334 27.7715145,8.77395219 29.3093417,8.77395219 C29.8860269,8.77395219 30.5267883,8.5804063 30.9753212,8.32234512 L30.5908644,7.1610698 C30.2064076,7.41913098 29.7578746,7.48364627 29.437494,7.48364627 C28.7967326,7.48364627 28.5404281,7.0965545 28.5404281,6.45140154 L28.5404281,3.67724383 L30.7190167,3.67724383 L30.7190167,2.45145321 Z M42.1245686,2.32203856 C41.355655,2.32203856 40.8430459,2.70904499 40.5226652,3.22505355 L40.5226652,2.4510407 L39.1770664,2.4510407 L39.1770664,8.64314353 L40.5226652,8.64314353 L40.5226652,5.16008569 C40.5226652,4.12806855 40.9711982,3.54755891 41.8041879,3.54755891 C42.0604925,3.54755891 42.3808731,3.61205998 42.6371777,3.67656105 L43.0216345,2.38653963 C42.76533,2.32203856 42.3808731,2.32203856 42.1245686,2.32203856 L42.1245686,2.32203856 Z M24.8880884,2.96704927 C24.2473271,2.51554177 23.3502612,2.32203856 22.3891192,2.32203856 C20.8512919,2.32203856 19.8260738,3.09605141 19.8260738,4.32157176 C19.8260738,5.3535889 20.5949874,5.93409854 21.9405862,6.12760175 L22.5813476,6.19210283 C23.2861851,6.32110497 23.6706419,6.51460818 23.6706419,6.83711354 C23.6706419,7.28862103 23.1580328,7.61112639 22.2609669,7.61112639 C21.363901,7.61112639 20.6590635,7.28862103 20.2105306,6.96611568 L19.5697692,7.99813282 C20.2746067,8.51414138 21.2357487,8.77214567 22.1968908,8.77214567 C23.9910225,8.77214567 25.0162407,7.93363174 25.0162407,6.77261246 C25.0162407,5.67609426 24.1832509,5.09558462 22.9017282,4.9020814 L22.2609669,4.83758033 C21.6842817,4.77307926 21.2357487,4.64407712 21.2357487,4.25707069 C21.2357487,3.80556319 21.6842817,3.54755891 22.3891192,3.54755891 C23.1580328,3.54755891 23.9269464,3.87006427 24.3114032,4.06356748 L24.8880884,2.96704927 Z M60.6425715,2.32203856 C59.8736579,2.32203856 59.3610488,2.70904499 59.0406681,3.22505355 L59.0406681,2.4510407 L57.6950693,2.4510407 L57.6950693,8.64314353 L59.0406681,8.64314353 L59.0406681,5.16008569 C59.0406681,4.12806855 59.4892011,3.54755891 60.3221908,3.54755891 C60.5784954,3.54755891 60.898876,3.61205998 61.1551806,3.67656105 L61.5396374,2.38653963 C61.2833328,2.32203856 60.898876,2.32203856 60.6425715,2.32203856 L60.6425715,2.32203856 Z M43.4701674,5.54709211 C43.4701674,7.41762318 44.7516901,8.77214567 46.7380503,8.77214567 C47.6351162,8.77214567 48.2758775,8.57864246 48.9166389,8.06263389 L48.2758775,6.96611568 C47.7632684,7.3531221 47.2506594,7.54662532 46.6739742,7.54662532 C45.5846799,7.54662532 44.8157663,6.77261246 44.8157663,5.54709211 C44.8157663,4.38607283 45.5846799,3.61205998 46.6739742,3.54755891 C47.2506594,3.54755891 47.7632684,3.74106212 48.2758775,4.12806855 L48.9166389,3.03155034 C48.2758775,2.51554177 47.6351162,2.32203856 46.7380503,2.32203856 C44.7516901,2.32203856 43.4701674,3.67656105 43.4701674,5.54709211 L43.4701674,5.54709211 Z M55.9009375,5.54709211 L55.9009375,2.4510407 L54.5553387,2.4510407 L54.5553387,3.22505355 C54.1068058,2.64454391 53.4660444,2.32203856 52.6330547,2.32203856 C50.902999,2.32203856 49.5574002,3.67656105 49.5574002,5.54709211 C49.5574002,7.41762318 50.902999,8.77214567 52.6330547,8.77214567 C53.5301206,8.77214567 54.1708819,8.44964031 54.5553387,7.86913067 L54.5553387,8.64314353 L55.9009375,8.64314353 L55.9009375,5.54709211 Z M50.9670752,5.54709211 C50.9670752,4.45057391 51.6719127,3.54755891 52.8252831,3.54755891 C53.9145774,3.54755891 54.683491,4.38607283 54.683491,5.54709211 C54.683491,6.64361032 53.9145774,7.54662532 52.8252831,7.54662532 C51.6719127,7.48212425 50.9670752,6.64361032 50.9670752,5.54709211 L50.9670752,5.54709211 Z M34.8839654,2.32203856 C33.0898336,2.32203856 31.8083109,3.61205998 31.8083109,5.54709211 C31.8083109,7.48212425 33.0898336,8.77214567 34.9480415,8.77214567 C35.8451074,8.77214567 36.7421733,8.51414138 37.4470108,7.93363174 L36.8062494,6.96611568 C36.2936404,7.3531221 35.652879,7.61112639 35.0121177,7.61112639 C34.1791279,7.61112639 33.3461382,7.22411996 33.1539098,6.12760175 L37.7033153,6.12760175 L37.7033153,5.61159319 C37.7673915,3.61205998 36.614021,2.32203856 34.8839654,2.32203856 L34.8839654,2.32203856 Z M34.8839654,3.48305784 C35.7169552,3.48305784 36.2936404,3.99906641 36.4217926,4.96658247 L33.2179859,4.96658247 C33.3461382,4.12806855 33.9228234,3.48305784 34.8839654,3.48305784 L34.8839654,3.48305784 Z M68.2676315,5.54709211 L68.2676315,0 L66.9220327,0 L66.9220327,3.22505355 C66.4734997,2.64454391 65.8327384,2.32203856 64.9997486,2.32203856 C63.269693,2.32203856 61.9240942,3.67656105 61.9240942,5.54709211 C61.9240942,7.41762318 63.269693,8.77214567 64.9997486,8.77214567 C65.8968145,8.77214567 66.5375759,8.44964031 66.9220327,7.86913067 L66.9220327,8.64314353 L68.2676315,8.64314353 L68.2676315,5.54709211 Z M63.3337691,5.54709211 C63.3337691,4.45057391 64.0386066,3.54755891 65.191977,3.54755891 C66.2812713,3.54755891 67.0501849,4.38607283 67.0501849,5.54709211 C67.0501849,6.64361032 66.2812713,7.54662532 65.191977,7.54662532 C64.0386066,7.48212425 63.3337691,6.64361032 63.3337691,5.54709211 L63.3337691,5.54709211 Z M18.3523227,5.54709211 L18.3523227,2.4510407 L17.0067239,2.4510407 L17.0067239,3.22505355 C16.5581909,2.64454391 15.9174296,2.32203856 15.0844398,2.32203856 C13.3543842,2.32203856 12.0087854,3.67656105 12.0087854,5.54709211 C12.0087854,7.41762318 13.3543842,8.77214567 15.0844398,8.77214567 C15.9815057,8.77214567 16.6222671,8.44964031 17.0067239,7.86913067 L17.0067239,8.64314353 L18.3523227,8.64314353 L18.3523227,5.54709211 Z M13.3543842,5.54709211 C13.3543842,4.45057391 14.0592217,3.54755891 15.2125921,3.54755891 C16.3018864,3.54755891 17.0708,4.38607283 17.0708,5.54709211 C17.0708,6.64361032 16.3018864,7.54662532 15.2125921,7.54662532 C14.0592217,7.48212425 13.3543842,6.64361032 13.3543842,5.54709211 Z" id="XMLID_1775_"></path>
                            <path d="M70.1811729,8.36357913 L70.1811729,8.48517174 L70.2911949,8.48517174 C70.3165455,8.48517174 70.3363191,8.47999759 70.3515295,8.47016669 C70.3662329,8.4603358 70.3738381,8.44481334 70.3738381,8.42359931 C70.3738381,8.40393753 70.3662329,8.38893249 70.3515295,8.37858418 C70.3363191,8.36875329 70.3165455,8.36357913 70.2911949,8.36357913 L70.1811729,8.36357913 Z M70.2922089,8.2782056 C70.3500085,8.2782056 70.3941186,8.29114099 70.4250465,8.31701175 C70.4564813,8.34339994 70.4716917,8.37858418 70.4716917,8.42359931 C70.4716917,8.46137063 70.4595234,8.49293297 70.4346797,8.51725149 C70.4098361,8.54157001 70.3748521,8.55657506 70.3287139,8.56226662 L70.4752408,8.73456593 L70.3606557,8.73456593 L70.2252831,8.56381887 L70.1811729,8.56381887 L70.1811729,8.73456593 L70.0858543,8.73456593 L70.0858543,8.2782056 L70.2922089,8.2782056 Z M70.2638161,8.89134278 C70.3160385,8.89134278 70.3642048,8.88151189 70.4093291,8.86133269 C70.4544533,8.84115349 70.4934933,8.81373048 70.5274632,8.77958107 C70.5614332,8.74491424 70.5877979,8.70403843 70.6070644,8.65747105 C70.6263309,8.61090367 70.6359642,8.56123179 70.6359642,8.50793801 C70.6359642,8.45516165 70.6263309,8.40548978 70.6070644,8.3589224 C70.5877979,8.31235502 70.5614332,8.2714792 70.5274632,8.23681238 C70.4934933,8.20266296 70.4544533,8.17575737 70.4093291,8.15557817 C70.3642048,8.13591639 70.3160385,8.12608549 70.2638161,8.12608549 C70.2110867,8.12608549 70.1619064,8.13591639 70.1157681,8.15557817 C70.0696299,8.17575737 70.0300828,8.20266296 69.9961129,8.23681238 C69.962143,8.2714792 69.9357783,8.31235502 69.9165117,8.3589224 C69.8972452,8.40548978 69.887612,8.45516165 69.887612,8.50793801 C69.887612,8.56123179 69.8972452,8.61090367 69.9165117,8.65747105 C69.9357783,8.70403843 69.962143,8.74491424 69.9961129,8.77958107 C70.0300828,8.81373048 70.0696299,8.84115349 70.1157681,8.86133269 C70.1619064,8.88151189 70.2110867,8.89134278 70.2638161,8.89134278 Z M70.2638161,8.01639344 C70.331756,8.01639344 70.3951327,8.02932883 70.4549603,8.05519959 C70.5142809,8.08107036 70.5659963,8.11573719 70.6106135,8.16075232 C70.6547237,8.20525004 70.6902146,8.25750899 70.7155653,8.31701175 C70.740916,8.37703193 70.7540984,8.44067402 70.7540984,8.50793801 C70.7540984,8.57571942 70.740916,8.63936151 70.7155653,8.69886427 C70.6902146,8.75784962 70.6547237,8.81010857 70.6106135,8.85460629 C70.5659963,8.89910401 70.5142809,8.93428825 70.4549603,8.96067643 C70.3951327,8.9865472 70.331756,9 70.2638161,9 C70.1948623,9 70.1299645,8.9865472 70.0696299,8.96067643 C70.0098023,8.93428825 69.9575799,8.89910401 69.9134697,8.85460629 C69.8693595,8.81010857 69.8343755,8.75784962 69.8090248,8.69886427 C69.7831671,8.63936151 69.7704918,8.57571942 69.7704918,8.50793801 C69.7704918,8.44067402 69.7831671,8.37703193 69.8090248,8.31701175 C69.8343755,8.25750899 69.8693595,8.20525004 69.9134697,8.16075232 C69.9575799,8.11573719 70.0098023,8.08107036 70.0696299,8.05519959 C70.1299645,8.02932883 70.1948623,8.01639344 70.2638161,8.01639344 Z" id="Fill-1"></path>
                        </g>
                    </g>
                </g>
            </g>
        </g>
    </g>
</svg>