<?xml version="1.0" encoding="UTF-8"?>
<svg width="353px" height="276px" viewBox="0 0 353 276" version="1.1" xmlns="http://www.w3.org/2000/svg" xmlns:xlink="http://www.w3.org/1999/xlink">
    <!-- Generator: Sketch 53.2 (72643) - https://sketchapp.com -->
    <title>datatrans_security-logos_05</title>
    <desc>Created with Sketch.</desc>
    <defs>
        <linearGradient x1="0%" y1="45.0867077%" x2="100%" y2="54.9132923%" id="linearGradient-1">
            <stop stop-color="#2F3387" offset="0%"></stop>
            <stop stop-color="#181B62" offset="100%"></stop>
        </linearGradient>
    </defs>
    <g id="Page-1" stroke="none" stroke-width="1" fill="none" fill-rule="evenodd">
        <g id="datatrans_security-logos_v01" transform="translate(-347.000000, -410.000000)">
            <g id="datatrans_security-Logos_v01_03" transform="translate(347.000000, 410.000000)">
                <rect id="Rectangle" fill="#EBEBEB" x="0" y="0" width="353" height="276" rx="6"></rect>
                <g id="Group" stroke-width="1" transform="translate(24.000000, 24.000000)">
                    <rect id="Rectangle" stroke="#E0E0E0" fill="#FFFFFF" x="0.5" y="0.5" width="139" height="79" rx="3"></rect>
                    <rect id="Rectangle" stroke="#E0E0E0" fill="#FFFFFF" x="165.5" y="0.5" width="139" height="79" rx="3"></rect>
                    <rect id="Rectangle" fill="#213D62" x="0" y="104" width="305" height="124" rx="3"></rect>
                    <path d="M35.198,128.812 L33.746,130.176 C33.416,129.714 32.932,129.318 32.294,128.988 C31.656,128.658 30.974,128.504 30.248,128.504 C29.412,128.504 28.752,128.68 28.246,129.032 C27.74,129.384 27.498,129.846 27.498,130.418 C27.498,130.902 27.696,131.32 28.092,131.65 C28.488,131.98 28.972,132.244 29.566,132.42 C30.16,132.596 30.798,132.816 31.48,133.058 C32.162,133.3 32.8,133.564 33.394,133.85 C33.988,134.136 34.472,134.554 34.868,135.126 C35.264,135.698 35.462,136.358 35.462,137.128 C35.462,138.382 35,139.394 34.054,140.164 C33.108,140.934 31.854,141.308 30.292,141.308 C27.872,141.308 26.09,140.516 24.968,138.91 L26.398,137.568 C27.344,138.822 28.642,139.438 30.292,139.438 C31.238,139.438 31.986,139.24 32.514,138.844 C33.042,138.448 33.306,137.92 33.306,137.26 C33.306,136.622 33.042,136.116 32.492,135.72 C31.942,135.324 31.282,135.016 30.512,134.774 C29.742,134.532 28.972,134.268 28.202,133.982 C27.432,133.696 26.772,133.256 26.222,132.662 C25.672,132.068 25.408,131.32 25.408,130.418 C25.408,129.296 25.87,128.372 26.772,127.668 C27.674,126.964 28.862,126.612 30.336,126.612 C31.392,126.612 32.36,126.81 33.218,127.228 C34.076,127.646 34.736,128.174 35.198,128.812 Z M43.03,141.264 L43.052,141.308 C41.468,141.308 40.148,140.78 39.092,139.702 C38.036,138.624 37.508,137.304 37.508,135.742 C37.508,134.202 38.014,132.904 39.004,131.826 C39.994,130.748 41.226,130.22 42.7,130.22 C44.174,130.22 45.406,130.726 46.396,131.76 C47.386,132.794 47.892,134.048 47.892,135.544 C47.892,135.852 47.87,136.094 47.826,136.248 L39.466,136.248 C39.576,137.216 39.972,138.008 40.632,138.624 C41.292,139.24 42.106,139.548 43.096,139.548 C44.284,139.548 45.274,139.152 46.044,138.382 L47.078,139.724 C46.638,140.186 46.066,140.56 45.34,140.846 C44.614,141.132 43.844,141.264 43.03,141.264 Z M42.766,131.914 L42.766,131.892 C41.93,131.892 41.226,132.178 40.654,132.75 C40.082,133.322 39.73,134.048 39.576,134.95 L45.956,134.95 C45.802,133.982 45.45,133.234 44.878,132.706 C44.306,132.178 43.602,131.914 42.766,131.914 Z M58.21,133.058 L58.166,133.102 C57.44,132.42 56.516,132.068 55.394,132.068 C54.36,132.068 53.524,132.42 52.864,133.124 C52.204,133.828 51.874,134.708 51.874,135.742 C51.874,136.776 52.204,137.656 52.864,138.382 C53.524,139.108 54.36,139.46 55.372,139.46 C56.538,139.46 57.484,139.108 58.21,138.382 L59.222,139.812 C58.804,140.274 58.254,140.626 57.55,140.89 C56.846,141.154 56.098,141.286 55.306,141.286 C53.788,141.286 52.512,140.736 51.478,139.658 C50.444,138.58 49.916,137.26 49.916,135.72 C49.916,134.18 50.444,132.882 51.5,131.804 C52.556,130.726 53.854,130.198 55.372,130.198 C57.066,130.198 58.386,130.682 59.332,131.672 L58.21,133.058 Z M63.49,130.462 L63.468,136.292 C63.468,137.216 63.71,137.964 64.216,138.536 C64.722,139.108 65.382,139.394 66.196,139.394 C67.032,139.394 67.692,139.108 68.198,138.536 C68.704,137.964 68.946,137.216 68.946,136.292 L68.946,130.462 L70.904,130.462 L70.904,136.446 C70.904,137.876 70.486,139.02 69.628,139.878 C68.77,140.736 67.626,141.176 66.196,141.176 C64.788,141.176 63.666,140.736 62.808,139.878 C61.95,139.02 61.532,137.876 61.532,136.446 L61.532,130.462 L63.49,130.462 Z M76.47,134.928 L76.514,141 L74.556,141 L74.556,130.462 L76.514,130.462 L76.514,131.782 C77.152,130.726 78.032,130.198 79.154,130.198 C79.836,130.198 80.364,130.352 80.738,130.66 L79.924,132.486 C79.506,132.2 79.044,132.068 78.538,132.068 C77.9,132.068 77.394,132.332 77.02,132.838 C76.646,133.344 76.47,134.048 76.47,134.928 Z M86.942,141.264 L86.964,141.308 C85.38,141.308 84.06,140.78 83.004,139.702 C81.948,138.624 81.42,137.304 81.42,135.742 C81.42,134.202 81.926,132.904 82.916,131.826 C83.906,130.748 85.138,130.22 86.612,130.22 C88.086,130.22 89.318,130.726 90.308,131.76 C91.298,132.794 91.804,134.048 91.804,135.544 C91.804,135.852 91.782,136.094 91.738,136.248 L83.378,136.248 C83.488,137.216 83.884,138.008 84.544,138.624 C85.204,139.24 86.018,139.548 87.008,139.548 C88.196,139.548 89.186,139.152 89.956,138.382 L90.99,139.724 C90.55,140.186 89.978,140.56 89.252,140.846 C88.526,141.132 87.756,141.264 86.942,141.264 Z M86.678,131.914 L86.678,131.892 C85.842,131.892 85.138,132.178 84.566,132.75 C83.994,133.322 83.642,134.048 83.488,134.95 L89.868,134.95 C89.714,133.982 89.362,133.234 88.79,132.706 C88.218,132.178 87.514,131.914 86.678,131.914 Z M99.636,130.462 L101.572,130.462 L101.572,132.068 C102.452,130.814 103.684,130.198 105.246,130.198 C106.676,130.198 107.886,130.726 108.876,131.782 C109.866,132.838 110.372,134.158 110.372,135.742 C110.372,137.304 109.888,138.624 108.92,139.68 C107.952,140.736 106.742,141.264 105.268,141.264 C103.684,141.264 102.452,140.67 101.594,139.46 L101.594,145.312 L99.636,145.312 L99.636,130.462 Z M105.026,132.024058 C104.045933,132.029242 103.239105,132.381385 102.584,133.102 C101.924,133.828 101.594,134.708 101.594,135.742 C101.594,136.776 101.924,137.656 102.562,138.36 C103.2,139.064 104.014,139.416 105.004,139.416 C105.994,139.416 106.808,139.064 107.446,138.36 C108.084,137.656 108.414,136.776 108.414,135.742 C108.414,134.708 108.084,133.828 107.446,133.102 C106.812732,132.381385 106.006065,132.029242 105.026,132.024058 L105.026,132.024058 Z M121.438,141 L121.438,139.35 C120.536,140.626 119.304,141.264 117.742,141.264 C116.312,141.264 115.102,140.736 114.112,139.68 C113.122,138.624 112.638,137.304 112.638,135.72 C112.638,134.158 113.122,132.838 114.09,131.782 C115.058,130.726 116.268,130.198 117.742,130.198 C119.326,130.198 120.558,130.814 121.438,132.046 L121.438,130.462 L123.396,130.462 L123.396,141 L121.438,141 Z M118.028,139.438 C119.018,139.438 119.832,139.086 120.47,138.36 C121.108,137.634 121.438,136.754 121.438,135.72 C121.438,134.686 121.108,133.806 120.47,133.102 C119.832,132.398 119.018,132.046 118.028,132.046 C117.038,132.046 116.224,132.398 115.564,133.102 C114.904,133.806 114.574,134.686 114.574,135.72 C114.574,136.754 114.904,137.634 115.564,138.36 C116.224,139.086 117.038,139.438 118.028,139.438 Z M127.752,130.462 L131.316,138.712 L134.308,130.484 L136.288,130.484 L131.734,142.738 C131.052,144.652 129.908,145.598 128.302,145.598 C127.334,145.598 126.498,145.268 125.772,144.63 L126.696,143.112 C127.158,143.552 127.708,143.772 128.346,143.772 C128.742,143.772 129.072,143.64 129.336,143.376 C129.6,143.112 129.842,142.672 130.062,142.034 L130.392,141.132 L125.618,130.462 L127.752,130.462 Z M140.556,134.862 L140.468,141.044 L138.51,141.044 L138.51,130.506 L140.468,130.506 L140.468,131.826 C141.15,130.77 142.162,130.242 143.504,130.242 C145.176,130.242 146.342,130.946 147.024,132.376 C147.332,131.738 147.772,131.21 148.366,130.814 C148.96,130.418 149.664,130.22 150.478,130.22 C151.71,130.22 152.7,130.616 153.426,131.386 C154.152,132.156 154.526,133.212 154.526,134.554 L154.526,141 L152.568,141 L152.568,134.862 C152.568,134.004 152.348,133.322 151.908,132.816 C151.468,132.31 150.852,132.046 150.082,132.046 C149.29,132.046 148.674,132.31 148.212,132.816 C147.75,133.322 147.53,134.004 147.53,134.862 L147.53,141 L145.594,141 L145.594,134.862 C145.594,134.004 145.374,133.322 144.912,132.816 C144.45,132.31 143.834,132.046 143.064,132.046 C142.272,132.046 141.656,132.288 141.216,132.794 C140.776,133.3 140.556,133.982 140.556,134.862 Z M162.93,141.264 L162.952,141.308 C161.368,141.308 160.048,140.78 158.992,139.702 C157.936,138.624 157.408,137.304 157.408,135.742 C157.408,134.202 157.914,132.904 158.904,131.826 C159.894,130.748 161.126,130.22 162.6,130.22 C164.074,130.22 165.306,130.726 166.296,131.76 C167.286,132.794 167.792,134.048 167.792,135.544 C167.792,135.852 167.77,136.094 167.726,136.248 L159.366,136.248 C159.476,137.216 159.872,138.008 160.532,138.624 C161.192,139.24 162.006,139.548 162.996,139.548 C164.184,139.548 165.174,139.152 165.944,138.382 L166.978,139.724 C166.538,140.186 165.966,140.56 165.24,140.846 C164.514,141.132 163.744,141.264 162.93,141.264 Z M162.666,131.914 L162.666,131.892 C161.83,131.892 161.126,132.178 160.554,132.75 C159.982,133.322 159.63,134.048 159.476,134.95 L165.856,134.95 C165.702,133.982 165.35,133.234 164.778,132.706 C164.206,132.178 163.502,131.914 162.666,131.914 Z M172.566,134.862 L172.522,140.978 L170.564,140.978 L170.564,130.44 L172.522,130.44 L172.522,131.738 C173.204,130.704 174.26,130.176 175.69,130.176 C176.944,130.176 177.934,130.572 178.682,131.364 C179.43,132.156 179.804,133.212 179.804,134.554 L179.804,141 L177.846,141 L177.846,134.862 C177.846,134.004 177.604,133.322 177.12,132.816 C176.636,132.31 175.998,132.046 175.184,132.046 C174.37,132.046 173.732,132.288 173.27,132.794 C172.808,133.3 172.566,133.982 172.566,134.862 Z M182.224,132.2 L182.158,130.484 L183.918,130.484 L183.918,127.866 L185.854,127.866 L185.854,130.484 L188.846,130.484 L188.846,132.222 L185.876,132.222 L185.876,137.788 C185.876,138.91 186.36,139.46 187.328,139.46 C187.922,139.46 188.384,139.284 188.714,138.91 L189.616,140.384 C189.022,140.978 188.186,141.286 187.108,141.286 C186.118,141.286 185.348,141 184.798,140.406 C184.248,139.812 183.962,138.954 183.962,137.832 L183.962,132.2 L182.224,132.2 Z M202.651004,130.19801 C204.076209,130.200713 205.28254,130.72871 206.27,131.782 C207.26,132.838 207.766,134.158 207.766,135.742 C207.766,137.304 207.282,138.624 206.314,139.68 C205.346,140.736 204.136,141.264 202.662,141.264 C201.078,141.264 199.846,140.67 198.988,139.46 L198.988,141 L197.03,141 L197.03,125.864 L198.988,125.864 L198.988,132.068 C199.865932,130.816947 201.094212,130.200898 202.650995,130.19801 L202.651004,130.19801 Z M202.42,132.024058 C201.439933,132.029242 200.633105,132.381385 199.978,133.102 C199.318,133.828 198.988,134.708 198.988,135.742 C198.988,136.776 199.318,137.656 199.956,138.36 C200.594,139.064 201.408,139.416 202.398,139.416 C203.388,139.416 204.202,139.064 204.84,138.36 C205.478,137.656 205.808,136.776 205.808,135.742 C205.808,134.708 205.478,133.828 204.84,133.102 C204.206732,132.381385 203.400065,132.029242 202.42,132.024058 L202.42,132.024058 Z M211.374,130.462 L214.938,138.712 L217.93,130.484 L219.91,130.484 L215.356,142.738 C214.674,144.652 213.53,145.598 211.924,145.598 C210.956,145.598 210.12,145.268 209.394,144.63 L210.318,143.112 C210.78,143.552 211.33,143.772 211.968,143.772 C212.364,143.772 212.694,143.64 212.958,143.376 C213.222,143.112 213.464,142.672 213.684,142.034 L214.014,141.132 L209.24,130.462 L211.374,130.462 Z" id="Securepaymentby" fill="#BFCAD9" fill-rule="nonzero"></path>
                    <g id="im/logo/im_logo_desktop-white" transform="translate(24.000000, 158.000000)" fill="#FFFFFF">
                        <path d="M0,22.8136698 L1.19953287,15.7481316 L8.13422771,15.7481316 L6.9349522,22.8136698 L0,22.8136698 Z M30.9739923,18.7478257 L33.5727658,3.49186415 L40.5452918,3.49186415 L34.0215933,41.2709657 L27.616793,41.2709657 L28.133305,38.4818271 C27.1342519,39.6048769 25.9553074,40.4552272 24.5954422,41.0341891 C23.234805,41.6128888 21.7804904,41.9023698 20.2312117,41.9023698 C18.5089903,41.9023698 16.9684617,41.5774904 15.6083392,40.9287803 C14.2477019,40.2800702 13.0775075,39.4027122 12.0962119,38.2977549 C11.1149163,37.1925355 10.3657552,35.9032439 9.84950052,34.4298802 C9.33298851,32.9562542 9.07486118,31.4128802 9.07486118,29.7987091 C9.07486118,28.1855869 9.34997396,26.5097963 9.90122893,24.7731727 C10.4514545,23.0365491 11.2958371,21.4577766 12.4320606,20.0371173 C13.568284,18.6161958 14.9966057,17.440966 16.7188271,16.5111657 C18.4402765,15.5821521 20.4715815,15.1167275 22.8135144,15.1167275 C24.7761056,15.1167275 26.4290984,15.4413447 27.7719782,16.090317 C29.1148579,16.7398137 30.1818528,17.6253003 30.9739923,18.7478257 Z M28.8564733,30.7198564 C29.2002999,29.7905806 29.3732426,28.8516029 29.3732426,27.9042345 C29.3732426,26.9225165 29.2180574,26.0278525 28.9082017,25.2205047 C28.5983459,24.4136814 28.1672759,23.7387503 27.616793,23.1944002 C27.0657954,22.6508367 26.4203484,22.229988 25.6801946,21.9315919 C24.9392688,21.6337202 24.1386366,21.4839977 23.2785554,21.4839977 C22.245274,21.4839977 21.2979493,21.6864246 20.4376106,22.0891807 C19.5764999,22.4932479 18.8366036,23.0365491 18.2168921,23.7206577 C17.5969233,24.4047662 17.1064041,25.2123762 16.7445626,26.1413898 C16.3832359,27.0711901 16.2023151,28.0447796 16.2023151,29.0618962 C16.1678295,30.9220211 16.7010696,32.4653952 17.8035795,33.6930672 C18.9050601,34.9215258 20.4028677,35.5348374 22.2970024,35.5348374 C23.3639973,35.5348374 24.3373149,35.3161534 25.2151537,34.87695 C26.0932498,34.4387953 26.8334036,33.8690108 27.4361296,33.1668097 C28.0383409,32.4653952 28.5118746,31.6496567 28.8564733,30.7198564 Z M62.6878811,18.7478257 L63.2043931,15.7481316 L70.1254481,15.7481316 L65.7352247,41.2709657 L59.2274822,41.2709657 L59.6922658,38.6396781 C58.6929554,39.7275916 57.5309964,40.5430679 56.2058741,41.0866313 C54.8799798,41.6301948 53.4596361,41.9023698 51.9448431,41.9023698 C50.2226217,41.9023698 48.6818357,41.5774904 47.3219705,40.9287803 C45.9613333,40.2800702 44.7911389,39.4027122 43.8098433,38.2977549 C42.8285477,37.1925355 42.0796439,35.9032439 41.5631319,34.4298802 C41.0468772,32.9562542 40.7884925,31.4128802 40.7884925,29.7987091 C40.7884925,28.1855869 41.0636053,26.5097963 41.6148603,24.7731727 C42.1653432,23.0365491 43.0092111,21.4577766 44.1456919,20.0371173 C45.2819154,18.6161958 46.7102371,17.440966 48.4324585,16.5111657 C50.1539078,15.5821521 52.1852129,15.1167275 54.5271458,15.1167275 C56.4899943,15.1167275 58.1427298,15.4413447 59.4856096,16.090317 C60.8284893,16.7398137 61.8954842,17.6253003 62.6878811,18.7478257 Z M60.570362,30.6933731 C60.9139312,29.7814032 61.086874,28.834297 61.086874,27.8517923 C61.086874,26.869812 60.9319461,25.9835388 60.6220904,25.1940214 C60.3119773,24.4047662 59.8811646,23.7387503 59.3306817,23.1944002 C58.7794267,22.6508367 58.1339797,22.229988 57.393826,21.9315919 C56.6529002,21.6337202 55.852268,21.4839977 54.9921867,21.4839977 C53.9591627,21.4839977 53.011838,21.6864246 52.1514993,22.0891807 C51.2903886,22.4932479 50.5502349,23.0365491 49.9305235,23.7206577 C49.3105546,24.4047662 48.8200355,25.2123762 48.458194,26.1413898 C48.0968672,27.0711901 47.9159465,28.0447796 47.9159465,29.0618962 C47.8814609,30.9220211 48.414701,32.4653952 49.5172109,33.6930672 C50.6189488,34.9215258 52.1167564,35.5348374 54.0106337,35.5348374 C55.0776287,35.5348374 56.0509462,35.3161534 56.9290424,34.87695 C57.8071385,34.4387953 58.5470349,33.8598334 59.1500183,33.1405886 C59.7519722,32.4218682 60.2255059,31.6061297 60.570362,30.6933731 Z M86.0850772,8.64378627 L84.8453969,15.7481316 L92.2314929,15.7481316 L91.1984688,21.6945531 L83.7609018,21.6945531 L82.107909,31.2723351 C82.0734234,31.4826283 82.0476879,31.6850552 82.0307024,31.8775181 C82.0129449,32.0705054 82.0047095,32.2721457 82.0047095,32.4827011 C82.0047095,33.8163064 82.4777285,34.6928778 83.4250532,35.1137265 C84.3718632,35.5348374 85.6717646,35.7453929 87.3247575,35.7453929 C87.8065265,35.7453929 88.2025963,35.7453929 88.5127093,35.7453929 C88.8225651,35.7453929 89.1494063,35.7280869 89.494005,35.6926884 L88.4609809,41.6393722 C87.9781825,41.7091203 87.4966708,41.7710021 87.0149017,41.8234443 C86.5321033,41.8758865 85.9641202,41.9023698 85.3104378,41.9023698 C84.1742144,41.9023698 82.9942405,41.7880458 81.7723177,41.5601844 C80.5496229,41.3317986 79.4303849,40.9203895 78.4151184,40.3235973 C77.3990798,39.7275916 76.5727121,38.9026757 75.9357578,37.8501607 C75.2982888,36.7979079 74.9804551,35.4475211 74.9804551,33.7982138 C74.9804551,33.3771029 75.0064479,32.9654316 75.057919,32.5616267 C75.10939,32.1586083 75.1693538,31.7285822 75.2385824,31.2723351 L76.8915752,21.6945531 L72.914407,21.6945531 L73.89596,15.7481316 L77.9243419,15.7481316 L79.1640222,8.64378627 L86.0850772,8.64378627 Z M115.060449,18.7478257 L115.577218,15.7481316 L122.498273,15.7481316 L118.10805,41.2709657 L111.60005,41.2709657 L112.065091,38.6396781 C111.06578,39.7275916 109.903821,40.5430679 108.578442,41.0866313 C107.252547,41.6301948 105.832204,41.9023698 104.317411,41.9023698 C102.595189,41.9023698 101.054661,41.5774904 99.6947954,40.9287803 C98.3341581,40.2800702 97.1639638,39.4027122 96.1826682,38.2977549 C95.2011152,37.1925355 94.4522114,35.9032439 93.9359567,34.4298802 C93.4194447,32.9562542 93.1613174,31.4128802 93.1613174,29.7987091 C93.1613174,28.1855869 93.4361728,26.5097963 93.9874278,24.7731727 C94.5379107,23.0365491 95.382036,21.4577766 96.5182594,20.0371173 C97.6544829,18.6161958 99.083062,17.440966 100.805283,16.5111657 C102.526733,15.5821521 104.558038,15.1167275 106.899971,15.1167275 C108.862562,15.1167275 110.515555,15.4413447 111.858177,16.090317 C113.201314,16.7398137 114.268309,17.6253003 115.060449,18.7478257 Z M112.942929,30.6933731 C113.286756,29.7814032 113.459699,28.834297 113.459699,27.8517923 C113.459699,26.869812 113.304514,25.9835388 112.994658,25.1940214 C112.684802,24.4047662 112.253732,23.7387503 111.703249,23.1944002 C111.152252,22.6508367 110.506547,22.229988 109.766394,21.9315919 C109.025725,21.6337202 108.225093,21.4839977 107.364754,21.4839977 C106.33173,21.4839977 105.384405,21.6864246 104.524067,22.0891807 C103.662956,22.4932479 102.92306,23.0365491 102.303091,23.7206577 C101.683122,24.4047662 101.19286,25.2123762 100.831019,26.1413898 C100.469435,27.0711901 100.288771,28.0447796 100.288771,29.0618962 C100.254286,30.9220211 100.787526,32.4653952 101.889778,33.6930672 C102.991516,34.9215258 104.489324,35.5348374 106.383459,35.5348374 C107.450196,35.5348374 108.423771,35.3161534 109.30161,34.87695 C110.179706,34.4387953 110.919602,33.8598334 111.522586,33.1405886 C112.124797,32.4218682 112.598331,31.6061297 112.942929,30.6933731 Z M138.457902,8.64378627 L137.218222,15.7481316 L144.60406,15.7481316 L143.571036,21.6945531 L136.133469,21.6945531 L134.480734,31.2723351 C134.445991,31.4826283 134.420255,31.6850552 134.40327,31.8775181 C134.385512,32.0705054 134.377534,32.2721457 134.377534,32.4827011 C134.377534,33.8163064 134.850553,34.6928778 135.797621,35.1137265 C136.744431,35.5348374 138.04459,35.7453929 139.697582,35.7453929 C140.179094,35.7453929 140.575421,35.7453929 140.885277,35.7453929 C141.195133,35.7453929 141.522231,35.7280869 141.866572,35.6926884 L140.833806,41.6393722 C140.351007,41.7091203 139.869238,41.7710021 139.387727,41.8234443 C138.904928,41.8758865 138.336688,41.9023698 137.683263,41.9023698 C136.547039,41.9023698 135.367065,41.7880458 134.145143,41.5601844 C132.922448,41.3317986 131.80321,40.9203895 130.787943,40.3235973 C129.771647,39.7275916 128.94528,38.9026757 128.308583,37.8501607 C127.671114,36.7979079 127.353023,35.4475211 127.353023,33.7982138 C127.353023,33.3771029 127.379015,32.9654316 127.430487,32.5616267 C127.482215,32.1586083 127.541921,31.7285822 127.611407,31.2723351 L129.2644,21.6945531 L125.287232,21.6945531 L126.268528,15.7481316 L130.296909,15.7481316 L131.536847,8.64378627 L138.457902,8.64378627 Z M162.422824,15.4324296 C163.489819,15.4324296 164.505857,15.6256791 165.470168,16.0111293 L164.385672,22.1683685 C163.799675,22.0983581 163.283163,22.0456537 162.836136,22.0105174 C162.388338,21.9759056 161.974768,21.957813 161.596456,21.957813 C159.771035,21.957813 158.247492,22.4575872 157.025569,23.45766 C155.802875,24.4574707 155.001985,26.0624643 154.62393,28.272641 L152.402954,41.2709657 L145.430171,41.2709657 L149.820394,15.7481316 L156.22468,15.7481316 L155.760154,18.3267148 C157.58506,16.3976283 159.805778,15.4324296 162.422824,15.4324296 Z M186.955986,18.7478257 L187.472241,15.7481316 L194.393553,15.7481316 L190.003072,41.2709657 L183.49533,41.2709657 L183.960371,38.6396781 C182.96106,39.7275916 181.798844,40.5430679 180.473979,41.0866313 C179.148085,41.6301948 177.727741,41.9023698 176.212691,41.9023698 C174.490727,41.9023698 172.950198,41.5774904 171.590333,40.9287803 C170.229438,40.2800702 169.059501,39.4027122 168.077948,38.2977549 C167.096653,37.1925355 166.347492,35.9032439 165.831494,34.4298802 C165.314725,32.9562542 165.056598,31.4128802 165.056598,29.7987091 C165.056598,28.1855869 165.331453,26.5097963 165.882965,24.7731727 C166.433191,23.0365491 167.277574,21.4577766 168.413797,20.0371173 C169.55002,18.6161958 170.9786,17.440966 172.700564,16.5111657 C174.422013,15.5821521 176.453318,15.1167275 178.795508,15.1167275 C180.758099,15.1167275 182.410578,15.4413447 183.753715,16.090317 C185.096594,16.7398137 186.163332,17.6253003 186.955986,18.7478257 Z M184.838467,30.6933731 C185.182036,29.7814032 185.354979,28.834297 185.354979,27.8517923 C185.354979,26.869812 185.199794,25.9835388 184.889938,25.1940214 C184.580082,24.4047662 184.149012,23.7387503 183.598787,23.1944002 C183.047532,22.6508367 182.401827,22.229988 181.661674,21.9315919 C180.921005,21.6337202 180.120373,21.4839977 179.260034,21.4839977 C178.227268,21.4839977 177.279686,21.6864246 176.419347,22.0891807 C175.558236,22.4932479 174.818083,23.0365491 174.198371,23.7206577 C173.57866,24.4047662 173.088141,25.2123762 172.726556,26.1413898 C172.364972,27.0711901 172.184052,28.0447796 172.184052,29.0618962 C172.149309,30.9220211 172.683063,32.4653952 173.785316,33.6930672 C174.887054,34.9215258 176.384604,35.5348374 178.278739,35.5348374 C179.345734,35.5348374 180.319051,35.3161534 181.197147,34.87695 C182.075244,34.4387953 182.81514,33.8598334 183.417866,33.1405886 C184.01982,32.4218682 184.493611,31.6061297 184.838467,30.6933731 Z M219.575251,17.5374596 C220.34989,18.3094089 220.944123,19.230294 221.357178,20.3001149 C221.770491,21.3707225 221.977147,22.5546053 221.977147,23.8522876 C221.977147,24.6596354 221.87369,25.6413534 221.667292,26.7990151 L219.187931,41.2709657 L212.266876,41.2709657 L214.643037,27.2728304 C214.711494,26.887118 214.771972,26.5451948 214.823443,26.2465365 C214.875429,25.9489269 214.900907,25.659446 214.900907,25.3783558 C214.900907,24.0455372 214.504837,23.0284206 213.712955,22.3262195 C212.920558,21.624805 211.870549,21.2737045 210.562412,21.2737045 C209.253246,21.2737045 208.109044,21.6602035 207.127749,22.4313661 C206.146453,23.2035776 205.517992,24.3612392 205.242364,25.9046133 L202.660061,41.2709657 L195.687278,41.2709657 L200.077759,15.7481316 L206.430316,15.7481316 L206.068989,18.0110127 C206.964071,17.1344413 208.005845,16.4322402 209.193797,15.9059827 C210.381491,15.3797252 211.732606,15.1167275 213.248429,15.1167275 C214.556566,15.1167275 215.74426,15.3270207 216.812027,15.7481316 C217.879022,16.1689803 218.800611,16.7660348 219.575251,17.5374596 Z M234.914911,21.3261467 C234.44987,21.6418487 234.217478,22.0983581 234.217478,22.694626 C234.217478,23.1862716 234.398399,23.5890278 234.759983,23.9047298 C235.121567,24.2204319 235.6808,24.5715325 236.438454,24.9572449 L238.711158,25.9570555 C240.776949,26.869812 242.378213,27.896106 243.514437,29.0356751 C244.650918,30.176293 245.218901,31.6404793 245.218901,33.4298073 C245.218901,34.5177209 245.003494,35.5702359 244.573454,36.5873524 C244.142384,37.6052556 243.514437,38.5080482 242.688069,39.2973033 C241.861701,40.0868207 240.828935,40.7182248 239.589255,41.1920402 C238.349574,41.6655933 236.903495,41.9023698 235.250502,41.9023698 C232.771399,41.9023698 230.584394,41.3671971 228.691031,40.2973762 C226.796897,39.2275552 225.334089,37.8158111 224.300808,36.0610949 L228.639303,32.1669991 C229.569127,33.2900489 230.541673,34.2374173 231.557712,35.0085799 C232.572721,35.7805291 233.821408,36.1662415 235.302231,36.1662415 C236.162569,36.1662415 236.92048,35.9913468 237.574678,35.639984 C238.228617,35.2896701 238.556231,34.7634126 238.556231,34.0612115 C238.556231,33.4652058 238.349574,33.0089587 237.936262,32.6929944 C237.523206,32.3772923 236.937209,32.0269784 236.180069,31.6404793 L233.804423,30.6406687 C232.840113,30.21982 231.970767,29.7643595 231.196127,29.2727138 C230.421231,28.7815926 229.758026,28.229114 229.207543,27.6147536 C228.656546,27.001442 228.234226,26.3173334 227.942128,25.5626901 C227.649257,24.8085712 227.503079,23.9401283 227.503079,22.9576236 C227.503079,21.7299516 227.743707,20.6249944 228.226248,19.6422275 C228.708017,18.6605094 229.362471,17.8358558 230.188839,17.1687909 C231.015464,16.5030372 231.996502,15.9938234 233.132983,15.642985 C234.269207,15.2926711 235.490872,15.1167275 236.800038,15.1167275 C238.8998,15.1167275 240.742463,15.5029643 242.326742,16.2743892 C243.909992,17.0466006 245.235886,18.1688638 246.303653,19.6422275 L242.171557,23.5890278 C241.413903,22.67732 240.57055,21.9929493 239.640726,21.5367021 C238.711158,21.0812416 237.763576,20.8525936 236.800038,20.8525936 C236.007641,20.8525936 235.379952,21.0107068 234.914911,21.3261467 Z M249.390887,34.2051653 L256.325839,34.2051653 L255.126306,41.2709657 L248.191354,41.2709657 L249.390887,34.2051653 Z" id="logo-desktop"></path>
                    </g>
                    <g id="im/logo-pay/visa" fill="url(#linearGradient-1)">
                        <path d="M36.0842747,30.6571366 C32.6686835,28.3897847 29.6205485,27.5829863 29.0836401,27.4526419 C29.0286258,27.4399914 29,27.434052 29,27.434052 L29.1165101,27 L29.1232488,27 L39.6847753,27 C42.5917943,27 42.8637679,29.3124258 42.8637679,29.3124258 L45.1194274,40.8573848 L45.1187389,40.8560113 L45.874068,44.6587738 L52.2637262,27 L59.4761905,27 L48.814137,52.675 L41.8316453,52.675 L36.0842747,30.6571366 Z M64.6040065,52.675 L57.5714286,52.675 L61.9666995,27 L69,27 L64.6040065,52.675 Z M110.904762,52.675 L103.100382,52.675 L102.347169,48.8619356 L94.1793296,48.8619356 L92.8392573,52.675 L86.1428571,52.675 L95.7247035,28.9134001 C95.7247035,28.9134001 96.3049613,27 98.6906859,27 L105.760997,27 L110.904762,52.675 Z M87.139031,33.4086318 C84.4126122,31.8859266 78.2076366,31.5256525 78.2076366,34.3295533 C78.2076366,37.1334541 87.0991002,37.7339109 87.0991002,44.1830155 C87.0991002,50.3919374 80.5393301,52.675 76.192116,52.675 C71.8442472,52.675 69,51.2737131 69,51.2737131 L69.9478642,45.7050572 C72.5557999,47.8275558 80.4594687,48.428676 80.4594687,45.0641277 C80.4594687,41.6995794 71.6478665,41.6199608 71.6478665,35.211329 C71.6478665,28.4012869 79.1555008,27 82.3172301,27 C85.2419934,27 88.047619,28.0814856 88.047619,28.0814856 L87.139031,33.4086318 Z M96.6190476,44.775 L102.333333,44.775 L100.276276,34.9 L96.6190476,44.775 Z" id="Combined-Shape"></path>
                    </g>
                    <g id="im/logo-pay/mastercard" transform="translate(165.000000, 0.000000)">
                        <g id="logo" transform="translate(32.000000, 10.000000)">
                            <polygon id="Fill-2" fill="#FF5F00" points="28.0135314 42.5734984 48.7093014 42.5734984 48.7093014 5.38287122 28.0135314 5.38287122"></polygon>
                            <path d="M29.3275486,23.9788418 C29.3275486,16.4337554 32.8602837,9.71387171 38.3614164,5.38287122 C34.3385529,2.21608991 29.2618477,0.32653326 23.7442897,0.32653326 C10.6823023,0.32653326 0.0939522256,10.9155404 0.0939522256,23.9788418 C0.0939522256,37.0414862 10.6823023,47.6304933 23.7442897,47.6304933 C29.2618477,47.6304933 34.3385529,45.7409367 38.3614164,42.5741554 C32.8602837,38.2431549 29.3275486,31.5232712 29.3275486,23.9788418" id="Fill-3" fill="#EB001B"></path>
                            <path d="M75.890403,38.634732 L75.890403,37.716891 L75.6505948,37.716891 L75.3753082,38.3482762 L75.0993646,37.716891 L74.8595565,37.716891 L74.8595565,38.634732 L75.0290647,38.634732 L75.0290647,37.9422449 L75.2872691,38.5394657 L75.4626904,38.5394657 L75.7215518,37.9409309 L75.7215518,38.634732 L75.890403,38.634732 Z M74.3727132,38.634732 L74.3727132,37.873259 L74.6795362,37.873259 L74.6795362,37.718205 L73.897696,37.718205 L73.897696,37.873259 L74.204519,37.873259 L74.204519,38.634732 L74.3727132,38.634732 L74.3727132,38.634732 Z" id="Fill-4" fill="#F79E1B"></path>
                            <path d="M76.6288806,23.9788418 C76.6288806,37.0414862 66.0405305,47.6304933 52.9785431,47.6304933 C47.4609851,47.6304933 42.3842799,45.7409367 38.3614164,42.5741554 C43.8625492,38.2431549 47.3952843,31.5232712 47.3952843,23.9788418 C47.3952843,16.4337554 43.8625492,9.71387171 38.3614164,5.38287122 C42.3842799,2.21608991 47.4609851,0.32653326 52.9785431,0.32653326 C66.0405305,0.32653326 76.6288806,10.9155404 76.6288806,23.9788418" id="Fill-5" fill="#F79E1B"></path>
                        </g>
                        <g id="text" transform="translate(36.000000, 61.000000)" fill="#000000">
                            <path d="M10.7913388,8.64314353 L10.7913388,4.77307926 C10.7913388,3.28955463 9.89427293,2.32203856 8.3564457,2.32203856 C7.58753209,2.32203856 6.75454234,2.58004284 6.17785713,3.41855677 C5.72932419,2.70904499 5.08856284,2.32203856 4.12742082,2.32203856 C3.48665948,2.32203856 2.84589813,2.51554177 2.33328905,3.22505355 L2.33328905,2.4510407 L0.987690229,2.4510407 L0.987690229,8.64314353 L2.33328905,8.64314353 L2.33328905,5.22458676 C2.33328905,4.12806855 2.90997427,3.61205998 3.80704015,3.61205998 C4.70410603,3.61205998 5.15263897,4.19256962 5.15263897,5.22458676 L5.15263897,8.64314353 L6.4982378,8.64314353 L6.4982378,5.22458676 C6.4982378,4.12806855 7.13899915,3.61205998 7.97198889,3.61205998 C8.86905478,3.61205998 9.31758772,4.19256962 9.31758772,5.22458676 L9.31758772,8.64314353 L10.7913388,8.64314353 Z M30.7190167,2.45145321 L28.5404281,2.45145321 L28.5404281,0.58050964 L27.1948293,0.58050964 L27.1948293,2.45145321 L25.9773827,2.45145321 L25.9773827,3.67724383 L27.1948293,3.67724383 L27.1948293,6.51591684 C27.1948293,7.93525334 27.7715145,8.77395219 29.3093417,8.77395219 C29.8860269,8.77395219 30.5267883,8.5804063 30.9753212,8.32234512 L30.5908644,7.1610698 C30.2064076,7.41913098 29.7578746,7.48364627 29.437494,7.48364627 C28.7967326,7.48364627 28.5404281,7.0965545 28.5404281,6.45140154 L28.5404281,3.67724383 L30.7190167,3.67724383 L30.7190167,2.45145321 Z M42.1245686,2.32203856 C41.355655,2.32203856 40.8430459,2.70904499 40.5226652,3.22505355 L40.5226652,2.4510407 L39.1770664,2.4510407 L39.1770664,8.64314353 L40.5226652,8.64314353 L40.5226652,5.16008569 C40.5226652,4.12806855 40.9711982,3.54755891 41.8041879,3.54755891 C42.0604925,3.54755891 42.3808731,3.61205998 42.6371777,3.67656105 L43.0216345,2.38653963 C42.76533,2.32203856 42.3808731,2.32203856 42.1245686,2.32203856 L42.1245686,2.32203856 Z M24.8880884,2.96704927 C24.2473271,2.51554177 23.3502612,2.32203856 22.3891192,2.32203856 C20.8512919,2.32203856 19.8260738,3.09605141 19.8260738,4.32157176 C19.8260738,5.3535889 20.5949874,5.93409854 21.9405862,6.12760175 L22.5813476,6.19210283 C23.2861851,6.32110497 23.6706419,6.51460818 23.6706419,6.83711354 C23.6706419,7.28862103 23.1580328,7.61112639 22.2609669,7.61112639 C21.363901,7.61112639 20.6590635,7.28862103 20.2105306,6.96611568 L19.5697692,7.99813282 C20.2746067,8.51414138 21.2357487,8.77214567 22.1968908,8.77214567 C23.9910225,8.77214567 25.0162407,7.93363174 25.0162407,6.77261246 C25.0162407,5.67609426 24.1832509,5.09558462 22.9017282,4.9020814 L22.2609669,4.83758033 C21.6842817,4.77307926 21.2357487,4.64407712 21.2357487,4.25707069 C21.2357487,3.80556319 21.6842817,3.54755891 22.3891192,3.54755891 C23.1580328,3.54755891 23.9269464,3.87006427 24.3114032,4.06356748 L24.8880884,2.96704927 Z M60.6425715,2.32203856 C59.8736579,2.32203856 59.3610488,2.70904499 59.0406681,3.22505355 L59.0406681,2.4510407 L57.6950693,2.4510407 L57.6950693,8.64314353 L59.0406681,8.64314353 L59.0406681,5.16008569 C59.0406681,4.12806855 59.4892011,3.54755891 60.3221908,3.54755891 C60.5784954,3.54755891 60.898876,3.61205998 61.1551806,3.67656105 L61.5396374,2.38653963 C61.2833328,2.32203856 60.898876,2.32203856 60.6425715,2.32203856 L60.6425715,2.32203856 Z M43.4701674,5.54709211 C43.4701674,7.41762318 44.7516901,8.77214567 46.7380503,8.77214567 C47.6351162,8.77214567 48.2758775,8.57864246 48.9166389,8.06263389 L48.2758775,6.96611568 C47.7632684,7.3531221 47.2506594,7.54662532 46.6739742,7.54662532 C45.5846799,7.54662532 44.8157663,6.77261246 44.8157663,5.54709211 C44.8157663,4.38607283 45.5846799,3.61205998 46.6739742,3.54755891 C47.2506594,3.54755891 47.7632684,3.74106212 48.2758775,4.12806855 L48.9166389,3.03155034 C48.2758775,2.51554177 47.6351162,2.32203856 46.7380503,2.32203856 C44.7516901,2.32203856 43.4701674,3.67656105 43.4701674,5.54709211 L43.4701674,5.54709211 Z M55.9009375,5.54709211 L55.9009375,2.4510407 L54.5553387,2.4510407 L54.5553387,3.22505355 C54.1068058,2.64454391 53.4660444,2.32203856 52.6330547,2.32203856 C50.902999,2.32203856 49.5574002,3.67656105 49.5574002,5.54709211 C49.5574002,7.41762318 50.902999,8.77214567 52.6330547,8.77214567 C53.5301206,8.77214567 54.1708819,8.44964031 54.5553387,7.86913067 L54.5553387,8.64314353 L55.9009375,8.64314353 L55.9009375,5.54709211 Z M50.9670752,5.54709211 C50.9670752,4.45057391 51.6719127,3.54755891 52.8252831,3.54755891 C53.9145774,3.54755891 54.683491,4.38607283 54.683491,5.54709211 C54.683491,6.64361032 53.9145774,7.54662532 52.8252831,7.54662532 C51.6719127,7.48212425 50.9670752,6.64361032 50.9670752,5.54709211 L50.9670752,5.54709211 Z M34.8839654,2.32203856 C33.0898336,2.32203856 31.8083109,3.61205998 31.8083109,5.54709211 C31.8083109,7.48212425 33.0898336,8.77214567 34.9480415,8.77214567 C35.8451074,8.77214567 36.7421733,8.51414138 37.4470108,7.93363174 L36.8062494,6.96611568 C36.2936404,7.3531221 35.652879,7.61112639 35.0121177,7.61112639 C34.1791279,7.61112639 33.3461382,7.22411996 33.1539098,6.12760175 L37.7033153,6.12760175 L37.7033153,5.61159319 C37.7673915,3.61205998 36.614021,2.32203856 34.8839654,2.32203856 L34.8839654,2.32203856 Z M34.8839654,3.48305784 C35.7169552,3.48305784 36.2936404,3.99906641 36.4217926,4.96658247 L33.2179859,4.96658247 C33.3461382,4.12806855 33.9228234,3.48305784 34.8839654,3.48305784 L34.8839654,3.48305784 Z M68.2676315,5.54709211 L68.2676315,0 L66.9220327,0 L66.9220327,3.22505355 C66.4734997,2.64454391 65.8327384,2.32203856 64.9997486,2.32203856 C63.269693,2.32203856 61.9240942,3.67656105 61.9240942,5.54709211 C61.9240942,7.41762318 63.269693,8.77214567 64.9997486,8.77214567 C65.8968145,8.77214567 66.5375759,8.44964031 66.9220327,7.86913067 L66.9220327,8.64314353 L68.2676315,8.64314353 L68.2676315,5.54709211 Z M63.3337691,5.54709211 C63.3337691,4.45057391 64.0386066,3.54755891 65.191977,3.54755891 C66.2812713,3.54755891 67.0501849,4.38607283 67.0501849,5.54709211 C67.0501849,6.64361032 66.2812713,7.54662532 65.191977,7.54662532 C64.0386066,7.48212425 63.3337691,6.64361032 63.3337691,5.54709211 L63.3337691,5.54709211 Z M18.3523227,5.54709211 L18.3523227,2.4510407 L17.0067239,2.4510407 L17.0067239,3.22505355 C16.5581909,2.64454391 15.9174296,2.32203856 15.0844398,2.32203856 C13.3543842,2.32203856 12.0087854,3.67656105 12.0087854,5.54709211 C12.0087854,7.41762318 13.3543842,8.77214567 15.0844398,8.77214567 C15.9815057,8.77214567 16.6222671,8.44964031 17.0067239,7.86913067 L17.0067239,8.64314353 L18.3523227,8.64314353 L18.3523227,5.54709211 Z M13.3543842,5.54709211 C13.3543842,4.45057391 14.0592217,3.54755891 15.2125921,3.54755891 C16.3018864,3.54755891 17.0708,4.38607283 17.0708,5.54709211 C17.0708,6.64361032 16.3018864,7.54662532 15.2125921,7.54662532 C14.0592217,7.48212425 13.3543842,6.64361032 13.3543842,5.54709211 Z" id="XMLID_1775_"></path>
                            <path d="M70.1811729,8.36357913 L70.1811729,8.48517174 L70.2911949,8.48517174 C70.3165455,8.48517174 70.3363191,8.47999759 70.3515295,8.47016669 C70.3662329,8.4603358 70.3738381,8.44481334 70.3738381,8.42359931 C70.3738381,8.40393753 70.3662329,8.38893249 70.3515295,8.37858418 C70.3363191,8.36875329 70.3165455,8.36357913 70.2911949,8.36357913 L70.1811729,8.36357913 Z M70.2922089,8.2782056 C70.3500085,8.2782056 70.3941186,8.29114099 70.4250465,8.31701175 C70.4564813,8.34339994 70.4716917,8.37858418 70.4716917,8.42359931 C70.4716917,8.46137063 70.4595234,8.49293297 70.4346797,8.51725149 C70.4098361,8.54157001 70.3748521,8.55657506 70.3287139,8.56226662 L70.4752408,8.73456593 L70.3606557,8.73456593 L70.2252831,8.56381887 L70.1811729,8.56381887 L70.1811729,8.73456593 L70.0858543,8.73456593 L70.0858543,8.2782056 L70.2922089,8.2782056 Z M70.2638161,8.89134278 C70.3160385,8.89134278 70.3642048,8.88151189 70.4093291,8.86133269 C70.4544533,8.84115349 70.4934933,8.81373048 70.5274632,8.77958107 C70.5614332,8.74491424 70.5877979,8.70403843 70.6070644,8.65747105 C70.6263309,8.61090367 70.6359642,8.56123179 70.6359642,8.50793801 C70.6359642,8.45516165 70.6263309,8.40548978 70.6070644,8.3589224 C70.5877979,8.31235502 70.5614332,8.2714792 70.5274632,8.23681238 C70.4934933,8.20266296 70.4544533,8.17575737 70.4093291,8.15557817 C70.3642048,8.13591639 70.3160385,8.12608549 70.2638161,8.12608549 C70.2110867,8.12608549 70.1619064,8.13591639 70.1157681,8.15557817 C70.0696299,8.17575737 70.0300828,8.20266296 69.9961129,8.23681238 C69.962143,8.2714792 69.9357783,8.31235502 69.9165117,8.3589224 C69.8972452,8.40548978 69.887612,8.45516165 69.887612,8.50793801 C69.887612,8.56123179 69.8972452,8.61090367 69.9165117,8.65747105 C69.9357783,8.70403843 69.962143,8.74491424 69.9961129,8.77958107 C70.0300828,8.81373048 70.0696299,8.84115349 70.1157681,8.86133269 C70.1619064,8.88151189 70.2110867,8.89134278 70.2638161,8.89134278 Z M70.2638161,8.01639344 C70.331756,8.01639344 70.3951327,8.02932883 70.4549603,8.05519959 C70.5142809,8.08107036 70.5659963,8.11573719 70.6106135,8.16075232 C70.6547237,8.20525004 70.6902146,8.25750899 70.7155653,8.31701175 C70.740916,8.37703193 70.7540984,8.44067402 70.7540984,8.50793801 C70.7540984,8.57571942 70.740916,8.63936151 70.7155653,8.69886427 C70.6902146,8.75784962 70.6547237,8.81010857 70.6106135,8.85460629 C70.5659963,8.89910401 70.5142809,8.93428825 70.4549603,8.96067643 C70.3951327,8.9865472 70.331756,9 70.2638161,9 C70.1948623,9 70.1299645,8.9865472 70.0696299,8.96067643 C70.0098023,8.93428825 69.9575799,8.89910401 69.9134697,8.85460629 C69.8693595,8.81010857 69.8343755,8.75784962 69.8090248,8.69886427 C69.7831671,8.63936151 69.7704918,8.57571942 69.7704918,8.50793801 C69.7704918,8.44067402 69.7831671,8.37703193 69.8090248,8.31701175 C69.8343755,8.25750899 69.8693595,8.20525004 69.9134697,8.16075232 C69.9575799,8.11573719 70.0098023,8.08107036 70.0696299,8.05519959 C70.1299645,8.02932883 70.1948623,8.01639344 70.2638161,8.01639344 Z" id="Fill-1"></path>
                        </g>
                    </g>
                </g>
            </g>
        </g>
    </g>
</svg>