<?xml version="1.0" encoding="UTF-8"?>
<svg width="120px" height="80px" viewBox="0 0 120 80" version="1.1" xmlns="http://www.w3.org/2000/svg" xmlns:xlink="http://www.w3.org/1999/xlink">
    <!-- Generator: Sketch 46.2 (44496) - http://www.bohemiancoding.com/sketch -->
    <title>card_accarda</title>
    <desc>Created with Sketch.</desc>
    <defs></defs>
    <g id="export-badges" stroke="none" stroke-width="1" fill="none" fill-rule="evenodd">
        <g id="production-final" transform="translate(-36.000000, -4783.000000)">
            <g id="card_accarda" transform="translate(36.000000, 4783.000000)">
                <rect id="Rectangle-11" fill="#FFFFFF" x="0" y="0" width="120" height="80" rx="4"></rect>
                <g id="Group" transform="translate(10.000000, 30.000000)">
                    <path d="M4.9234494,0.385212121 L5.5041994,0.209454545 L6.50518155,2.93066667 C7.1580744,4.71551515 7.7959375,6.52945455 8.34783036,7.99248485 C8.84200893,9.29490909 9.04400893,9.39672727 9.88627679,9.48460606 L9.88627679,9.89430303 L6.06931845,9.89430303 L6.06931845,9.48460606 L6.4763244,9.42642424 C7.02761607,9.33854545 7.0570744,9.19187879 6.88272917,8.63672727 C6.73724107,8.19733333 6.38915179,7.29066667 6.08434821,6.52945455 L3.40003274,6.52945455 C3.21065774,6.96884848 2.94974107,7.78763636 2.74653869,8.40218182 C2.48502083,9.17733333 2.60165179,9.36763636 3.23951488,9.4409697 L3.64652083,9.48460606 L3.64652083,9.89430303 L0.424741071,9.89430303 L0.424741071,9.48460606 C1.32472321,9.36763636 1.4834375,9.30945455 1.99204464,7.99248485 L4.9234494,0.385212121 Z M4.69078869,2.63793939 L3.55874702,5.85672727 L5.86611607,5.85672727 L4.7346756,2.63793939 L4.69078869,2.63793939 Z" id="Fill-1" fill="#0085CB"></path>
                    <path d="M21.3810387,2.85769697 C21.2932649,2.00921212 21.2361518,1.36557576 21.1189196,0.546181818 C20.7131161,0.45830303 19.7554196,0.166181818 18.5079494,0.166181818 C15.2561101,0.166181818 12.9060565,2.22860606 12.9060565,5.30072727 C12.9060565,7.61224242 14.444503,10.1140606 18.2464315,10.1140606 C19.2624435,10.1140606 20.567628,9.79163636 20.9746339,9.67527273 C21.2066935,9.11890909 21.5259256,7.94860606 21.7002708,7.24678788 L21.2932649,7.15890909 C20.539372,8.70981818 19.8137351,9.52860606 18.2464315,9.52860606 C16.1278363,9.52860606 14.7925923,7.64133333 14.7925923,4.92072727 C14.7925923,2.75527273 15.8663185,0.751030303 18.2464315,0.751030303 C19.5961042,0.751030303 20.5105149,1.24860606 20.9746339,2.91587879 L21.3810387,2.85769697 Z" id="Fill-3" fill="#0085CB"></path>
                    <path d="M33.9631738,2.85769697 C33.8760012,2.00921212 33.8182869,1.36557576 33.701656,0.546181818 C33.2958524,0.45830303 32.338156,0.166181818 31.0900845,0.166181818 C27.8394476,0.166181818 25.4881917,2.22860606 25.4881917,5.30072727 C25.4881917,7.61224242 27.0266381,10.1140606 30.8285667,10.1140606 C31.8451798,10.1140606 33.1503643,9.79163636 33.556769,9.67527273 C33.7894298,9.11890909 34.1080607,7.94860606 34.282406,7.24678788 L33.8760012,7.15890909 C33.1221083,8.70981818 32.3964714,9.52860606 30.8285667,9.52860606 C28.7099714,9.52860606 27.3747274,7.64133333 27.3747274,4.92072727 C27.3747274,2.75527273 28.4484536,0.751030303 30.8285667,0.751030303 C32.1782393,0.751030303 33.09265,1.24860606 33.556769,2.91587879 L33.9631738,2.85769697 Z" id="Fill-5" fill="#0085CB"></path>
                    <path d="M41.8790488,0.385212121 L38.947644,7.99248485 C38.4396381,9.30945455 38.2797214,9.36763636 37.3809417,9.48460606 L37.3809417,9.89430303 L40.6021202,9.89430303 L40.6021202,9.48460606 L40.1957155,9.4409697 C39.5572512,9.36763636 39.4412214,9.17733333 39.7021381,8.40218182 C39.9053405,7.78763636 40.1668583,6.96884848 40.355031,6.52945455 L43.0405488,6.52945455 C43.3447512,7.29066667 43.6934417,8.19733333 43.8383286,8.63672727 C44.0120726,9.19187879 43.9832155,9.33854545 43.4319238,9.42642424 L43.025519,9.48460606 L43.025519,9.89430303 L46.8418762,9.89430303 L46.8418762,9.48460606 C46.0002095,9.39672727 45.7976083,9.29490909 45.3034298,7.99248485 C44.7521381,6.52945455 44.114275,4.71551515 43.460781,2.93066667 L42.4597988,0.209454545 L41.8790488,0.385212121 Z M41.6469893,2.63793939 L41.6908762,2.63793939 L42.8223167,5.85672727 L40.5149476,5.85672727 L41.6469893,2.63793939 Z" id="Fill-7" fill="#0085CB"></path>
                    <path d="M63.601744,0.385212121 L63.601744,0.794909091 C64.6760714,0.882787879 64.7921012,0.999757576 64.7921012,2.57975758 L64.7921012,7.70036364 C64.7921012,9.27975758 64.6760714,9.39672727 63.4869167,9.48460606 L63.4869167,9.89430303 L67.041756,9.89430303 C70.4372798,9.89430303 73.1943393,8.31430303 73.1943393,4.71551515 C73.1943393,3.42824242 72.6430476,2.34521212 71.9757262,1.67248485 C71.0174286,0.736121212 69.5372976,0.385212121 67.9122798,0.385212121 L63.601744,0.385212121 Z M66.4183214,1.78945455 C66.4183214,1.40945455 66.4183214,1.14581818 66.5042917,1.07248485 C66.5920655,0.999757576 66.9696131,0.940969697 67.4475595,0.940969697 C69.7705595,0.940969697 71.3366607,2.024 71.3366607,5.15430303 C71.3366607,7.58278788 70.0885893,9.29490909 67.679619,9.29490909 C66.5632083,9.29490909 66.4183214,9.01612121 66.4183214,7.67066667 L66.4183214,1.78945455 Z" id="Fill-9" fill="#0085CB"></path>
                    <path d="M80.6693012,0.385212121 L77.7378964,7.99248485 C77.2298905,9.30945455 77.0711762,9.36763636 76.1717952,9.48460606 L76.1717952,9.89430303 L79.3923726,9.89430303 L79.3923726,9.48460606 L78.9859679,9.4409697 C78.3481048,9.36763636 78.2314738,9.17733333 78.4929917,8.40218182 C78.6967952,7.78763636 78.9571107,6.96884848 79.1458845,6.52945455 L81.8314024,6.52945455 C82.1350036,7.29066667 82.4842952,8.19733333 82.6291821,8.63672727 C82.8035274,9.19187879 82.7734679,9.33854545 82.2221762,9.42642424 L81.8157714,9.48460606 L81.8157714,9.89430303 L85.633331,9.89430303 L85.633331,9.48460606 C84.7904619,9.39672727 84.5884619,9.29490909 84.0942833,7.99248485 C83.5429917,6.52945455 82.9051286,4.71551515 82.2516345,2.93066667 L81.2500512,0.209454545 L80.6693012,0.385212121 Z M80.4372417,2.63793939 L80.4817298,2.63793939 L81.612569,5.85672727 L79.3052,5.85672727 L80.4372417,2.63793939 Z" id="Fill-11" fill="#0085CB"></path>
                    <path d="M56.3228304,5.56072727 L56.3228304,5.51709091 C57.0364435,5.13466667 57.8925387,4.35466667 57.8925387,3.03345455 C57.8925387,2.05284848 57.530622,1.40921212 56.9065863,0.970424242 C56.3264375,0.560727273 55.4985982,0.384969697 54.4098423,0.384969697 L50.6193363,0.384969697 L50.6193363,0.795272727 C51.6636042,0.882545455 51.7796339,0.999515152 51.7796339,2.57951515 L51.7796339,7.70012121 C51.7796339,9.28012121 51.6636042,9.39709091 50.5604196,9.48436364 L50.5604196,9.89406061 L54.8312768,9.89406061 L54.8312768,9.48436364 C53.4960327,9.39709091 53.3794018,9.28012121 53.3794018,7.70012121 L53.3794018,1.468 C53.3794018,1.02921212 53.3944315,0.941333333 54.0906101,0.941333333 C55.3092232,0.941333333 56.1226339,1.54072727 56.1226339,3.048 C56.1226339,5.048 54.6659494,5.41042424 53.986003,5.50133333 L53.986003,5.80860606 C57.8787113,6.55406061 58.4348125,13.3855758 64.7924018,11.8067879 L64.7924018,11.4819394 C60.0598304,12.0813333 58.8802946,6.888 56.3228304,5.56072727" id="Fill-13" fill="#0085CB"></path>
                    <path d="M53.2535125,14.556303 L53.2535125,16.1102424 C53.0605304,15.7793333 52.8254649,15.6375152 52.4677565,15.6375152 C51.8172685,15.6375152 51.3783994,16.2405455 51.3783994,17.1387273 C51.3783994,18.0193333 51.8172685,18.586 52.491203,18.586 C52.8489113,18.586 53.0773637,18.4502424 53.270947,18.1138788 L53.270947,18.2138788 C53.270947,18.3205455 53.283572,18.4029697 53.3124292,18.515697 L53.7170304,18.515697 C53.6695363,18.3502424 53.6587149,18.1847879 53.6587149,17.6884242 L53.6587149,14.556303 L53.2535125,14.556303 Z M53.2601256,17.1150909 C53.2601256,17.7944848 52.9781673,18.226 52.5266732,18.226 C52.0817923,18.226 51.7998339,17.8011515 51.7998339,17.1211515 C51.7998339,16.4296364 52.0817923,15.9981212 52.5332863,15.9981212 C52.9781673,15.9981212 53.2601256,16.4296364 53.2601256,17.1150909 L53.2601256,17.1150909 Z" id="Fill-15" fill="#231F20"></path>
                    <path d="M54.5321845,16.4887273 L54.5321845,16.6778182 L54.5321845,18.5153939 L54.9482083,18.5153939 L54.9482083,17.2626667 C54.9482083,16.8905455 54.9836786,16.6541818 55.0708512,16.4590303 C55.1946964,16.1814545 55.3876786,16.0281212 55.6107202,16.0281212 C55.7159286,16.0281212 55.7922798,16.0511515 55.9798512,16.1402424 L55.9798512,15.726303 C55.862619,15.6675152 55.7453869,15.6378182 55.6401786,15.6378182 C55.3413869,15.6378182 55.1183452,15.8505455 54.91875,16.3172121 C54.9247619,16.2408485 54.9307738,16.1875152 54.9307738,16.145697 C54.9307738,16.0044848 54.9133393,15.8566061 54.877869,15.7147879 L54.4852917,15.7147879 C54.5261726,15.9687273 54.5321845,16.0396364 54.5321845,16.4887273" id="Fill-17" fill="#231F20"></path>
                    <path d="M56.4511845,18.5157576 L56.885244,18.5157576 L56.885244,15.7145455 L56.4511845,15.7145455 L56.4511845,18.5157576 Z M56.3694226,14.8284848 C56.3694226,14.9993939 56.4980774,15.1236364 56.6682143,15.1236364 C56.8437619,15.1236364 56.967006,14.9993939 56.967006,14.8284848 C56.967006,14.6509091 56.8437619,14.5212121 56.6742262,14.5212121 L56.6567917,14.5212121 C56.4920655,14.5327273 56.3694226,14.6630303 56.3694226,14.8284848 L56.3694226,14.8284848 Z" id="Fill-19" fill="#231F20"></path>
                    <polygon id="Fill-21" fill="#231F20" points="58.3677196 18.5510303 58.8071899 18.5510303 59.7919399 15.7146667 59.3644935 15.7146667 58.5907613 18.0661818 57.8170292 15.7146667 57.3829696 15.7146667"></polygon>
                    <path d="M60.287381,18.5157576 L60.7214405,18.5157576 L60.7214405,15.7145455 L60.287381,15.7145455 L60.287381,18.5157576 Z M60.2050179,14.8284848 C60.2050179,14.9993939 60.3336726,15.1236364 60.5038095,15.1236364 C60.6799583,15.1236364 60.8026012,14.9993939 60.8026012,14.8284848 C60.8026012,14.6509091 60.6799583,14.5212121 60.5098214,14.5212121 L60.4923869,14.5212121 C60.3282619,14.5327273 60.2050179,14.6630303 60.2050179,14.8284848 L60.2050179,14.8284848 Z" id="Fill-22" fill="#231F20"></path>
                    <path d="M61.5821048,16.4591515 L61.5821048,16.6658182 L61.5821048,18.5155152 L61.9927179,18.5155152 L61.9927179,16.9494545 C61.9927179,16.3530909 62.2620512,16.004 62.7309798,16.004 C63.1121345,16.004 63.2876821,16.2349091 63.2876821,16.7306667 L63.2876821,16.9318788 L63.2876821,18.5155152 L63.6988964,18.5155152 L63.6988964,16.9082424 L63.6988964,16.6367273 C63.6988964,15.9688485 63.4049143,15.6379394 62.8127417,15.6379394 C62.4375988,15.6379394 62.150831,15.7973333 61.9638607,16.1221818 C61.9638607,15.9270303 61.9572476,15.8506667 61.9103548,15.7149091 L61.5183786,15.7149091 C61.5760929,15.9567273 61.5821048,16.004 61.5821048,16.4591515" id="Fill-23" fill="#231F20"></path>
                    <path d="M65.9777089,15.7441818 C65.8135839,15.6969091 65.6963518,15.6793333 65.5442506,15.6793333 C64.9286315,15.6793333 64.5240304,16.0575152 64.5240304,16.636303 C64.5240304,17.0320606 64.699578,17.2920606 65.0747208,17.446 C64.7116018,17.5817576 64.5769351,17.706 64.5769351,17.8950909 C64.5769351,18.0429697 64.6641077,18.1375152 64.8757268,18.2199394 C64.4657149,18.3678182 64.2889649,18.5744848 64.2889649,18.9114545 C64.2889649,19.4017576 64.7819411,19.7211515 65.5442506,19.7211515 C66.3233935,19.7211515 66.8043458,19.3902424 66.8043458,18.8526667 C66.8043458,18.615697 66.6985363,18.3975152 66.5283994,18.2672121 C66.3468399,18.1253939 66.1652804,18.0841818 65.5556732,18.0247879 C65.0572863,17.9775152 64.9989708,17.9538788 64.9989708,17.835697 C64.9989708,17.6938788 65.1222149,17.6290303 65.5905423,17.5284242 C65.848453,17.475697 66.0071673,17.4223636 66.1412327,17.3453939 C66.3642744,17.2272121 66.4929292,16.9732727 66.4929292,16.6538788 C66.4929292,16.3999394 66.4057565,16.1575152 66.2530542,16.015697 L66.8217804,16.0278182 L66.8217804,15.7144848 L65.9777089,15.7441818 Z M66.1069649,16.6247879 C66.1069649,16.9732727 65.8718994,17.2035758 65.5141911,17.2035758 C65.1570839,17.2035758 64.9166077,16.9732727 64.9166077,16.6247879 C64.9166077,16.2702424 65.1685065,16.0102424 65.5141911,16.0102424 C65.8658875,16.0102424 66.1069649,16.2641818 66.1069649,16.6247879 L66.1069649,16.6247879 Z M66.3997446,18.8878182 C66.3997446,19.1890303 66.0775065,19.3781212 65.5496613,19.3781212 C65.0158042,19.3781212 64.6641077,19.1829697 64.6641077,18.8878182 C64.6641077,18.5805455 64.9815363,18.4029697 65.5087804,18.4029697 C66.0889292,18.4029697 66.3997446,18.5684242 66.3997446,18.8878182 L66.3997446,18.8878182 Z" id="Fill-24" fill="#231F20"></path>
                    <path d="M69.4926893,18.5451515 L69.4626298,18.6275758 C69.2576238,19.1954545 69.1055226,19.3251515 68.6191595,19.3251515 L68.5897012,19.3251515 L68.5897012,19.6912121 C68.642606,19.6912121 68.6828857,19.6972727 68.712344,19.6972727 C68.9353857,19.6972727 69.128969,19.6439394 69.299106,19.5493939 C69.5564155,19.3960606 69.7211417,19.1475758 69.8906774,18.6748485 L70.0139214,18.320303 L70.9289333,15.7148485 L70.5008857,15.7148485 L69.7211417,18.0487879 L68.9642429,15.7148485 L68.5253738,15.7148485 L69.4926893,18.5451515 Z" id="Fill-25" fill="#231F20"></path>
                    <path d="M72.4052768,18.5862424 C73.1200923,18.5862424 73.6190804,17.9838182 73.6190804,17.1147273 C73.6190804,16.2401818 73.1200923,15.6377576 72.4052768,15.6377576 C71.6910625,15.6377576 71.1920744,16.2401818 71.1920744,17.1147273 C71.1920744,17.9838182 71.6910625,18.5862424 72.4052768,18.5862424 M72.4052768,15.992303 C72.8802173,15.992303 73.1964435,16.4413939 73.1964435,17.1147273 C73.1964435,17.7826061 72.8802173,18.231697 72.4052768,18.231697 C71.9303363,18.231697 71.6147113,17.7826061 71.6147113,17.1147273 C71.6147113,16.4413939 71.9303363,15.992303 72.4052768,15.992303" id="Fill-26" fill="#231F20"></path>
                    <path d="M74.3057601,17.428303 C74.3057601,17.7470909 74.3171827,17.8713333 74.3640756,18.0252727 C74.4698851,18.367697 74.8155696,18.5864848 75.2376054,18.5864848 C75.5953137,18.5864848 75.8177542,18.4567879 75.9818792,18.1434545 C75.9818792,18.3028485 75.993903,18.3852727 76.0407958,18.5155758 L76.4393851,18.5155758 C76.3810696,18.3264848 76.3750577,18.2670909 76.3750577,17.9010303 L76.3750577,17.6646667 L76.3750577,15.7143636 L75.9644446,15.7143636 L75.9644446,17.3040606 C75.9644446,17.5404242 75.9409982,17.6943636 75.8886946,17.8186061 C75.7828851,18.0725455 75.5544327,18.2204242 75.2844982,18.2204242 C74.8684744,18.2204242 74.7103613,18.007697 74.7103613,17.428303 L74.7103613,15.7143636 L74.3057601,15.7143636 L74.3057601,17.428303 Z" id="Fill-27" fill="#231F20"></path>
                    <path d="M77.2453411,16.4887273 L77.2453411,16.6778182 L77.2453411,18.5153939 L77.6613649,18.5153939 L77.6613649,17.2626667 C77.6613649,16.8905455 77.6968351,16.6541818 77.7846089,16.4590303 C77.9084542,16.1814545 78.1008351,16.0281212 78.3238768,16.0281212 C78.4296863,16.0281212 78.5060375,16.0511515 78.6930077,16.1402424 L78.6930077,15.726303 C78.5757756,15.6675152 78.4591446,15.6378182 78.3533351,15.6378182 C78.0545435,15.6378182 77.832103,15.8505455 77.6325077,16.3172121 C77.6379185,16.2408485 77.6439304,16.1875152 77.6439304,16.145697 C77.6439304,16.0044848 77.6264958,15.8566061 77.5910256,15.7147879 L77.1984482,15.7147879 C77.2393292,15.9687273 77.2453411,16.0396364 77.2453411,16.4887273" id="Fill-28" fill="#231F20"></path>
                    <path d="M80.6376185,17.7236364 C80.6376185,18.2139394 80.6310054,18.350303 80.5907256,18.5157576 L80.9827018,18.5157576 C81.0187732,18.4030303 81.0295946,18.2969697 81.0295946,18.1848485 L81.0295946,18.1193939 C81.2237792,18.450303 81.4516304,18.5860606 81.7979161,18.5860606 C82.4724518,18.5860606 82.9233446,17.9951515 82.9233446,17.1030303 C82.9233446,16.2284848 82.4832732,15.6375758 81.8454101,15.6375758 C81.4991244,15.6375758 81.2592494,15.7854545 81.0482315,16.1224242 L81.0482315,14.5563636 L80.6376185,14.5563636 L80.6376185,17.7236364 Z M82.5019101,17.1030303 C82.5019101,17.7884848 82.2145411,18.2260606 81.7690589,18.2260606 C81.3289875,18.2260606 81.0422196,17.7884848 81.0422196,17.1212121 C81.0422196,16.4472727 81.3470232,15.9981818 81.7925054,15.9981818 C82.2313744,15.9981818 82.5019101,16.4236364 82.5019101,17.1030303 L82.5019101,17.1030303 Z" id="Fill-29" fill="#231F20"></path>
                    <path d="M83.6100845,17.428303 C83.6100845,17.7470909 83.6221083,17.8713333 83.6684,18.0252727 C83.7736083,18.367697 84.119894,18.5864848 84.5419298,18.5864848 C84.8996381,18.5864848 85.1220786,18.4567879 85.2868048,18.1434545 C85.2868048,18.3028485 85.2982274,18.3852727 85.3451202,18.5155758 L85.7437095,18.5155758 C85.685394,18.3264848 85.678781,18.2670909 85.678781,17.9010303 L85.678781,17.6646667 L85.678781,15.7143636 L85.268769,15.7143636 L85.268769,17.3040606 C85.268769,17.5404242 85.2453226,17.6943636 85.193019,17.8186061 C85.0872095,18.0725455 84.8587571,18.2204242 84.5888226,18.2204242 C84.1727988,18.2204242 84.0146857,18.007697 84.0146857,17.428303 L84.0146857,15.7143636 L83.6100845,15.7143636 L83.6100845,17.428303 Z" id="Fill-30" fill="#231F20"></path>
                    <path d="M87.4233155,15.6379394 C86.8545893,15.6379394 86.4674226,15.9567273 86.4674226,16.4294545 C86.4674226,16.8197576 86.6730298,17.0264242 87.2116964,17.1979394 C87.9385357,17.4221818 88.0094762,17.4694545 88.0094762,17.7476364 C88.0094762,18.0488485 87.7810238,18.244 87.4167024,18.244 C87.0181131,18.244 86.8076964,18.0488485 86.7728274,17.6470303 L86.3742381,17.6470303 L86.3742381,17.6530909 C86.3742381,18.2494545 86.7547917,18.5864242 87.4233155,18.5864242 C88.043744,18.5864242 88.4315119,18.2494545 88.4315119,17.7118788 C88.4315119,17.5464242 88.3900298,17.3985455 88.3136786,17.2803636 C88.1964464,17.1094545 88.0329226,17.0264242 87.5345357,16.8730909 C87.0012798,16.7191515 86.8840476,16.6306667 86.8840476,16.4003636 C86.8840476,16.1518788 87.1010774,15.9803636 87.4167024,15.9803636 C87.7683988,15.9803636 87.9445476,16.1403636 87.9860298,16.4827879 L88.384619,16.4827879 C88.3551607,15.9391515 88.0148869,15.6379394 87.4233155,15.6379394" id="Fill-31" fill="#231F20"></path>
                    <path d="M89.119875,18.5157576 L89.5539345,18.5157576 L89.5539345,15.7145455 L89.119875,15.7145455 L89.119875,18.5157576 Z M89.0375119,14.8284848 C89.0375119,14.9993939 89.1661667,15.1236364 89.3363036,15.1236364 C89.5124524,15.1236364 89.6356964,14.9993939 89.6356964,14.8284848 C89.6356964,14.6509091 89.5124524,14.5212121 89.3423155,14.5212121 L89.324881,14.5212121 C89.160756,14.5327273 89.0375119,14.6630303 89.0375119,14.8284848 L89.0375119,14.8284848 Z" id="Fill-32" fill="#231F20"></path>
                    <path d="M90.4145988,16.4591515 L90.4145988,16.6658182 L90.4145988,18.5155152 L90.8252119,18.5155152 L90.8252119,16.9494545 C90.8252119,16.3530909 91.0951464,16.004 91.5634738,16.004 C91.9440274,16.004 92.1207774,16.2349091 92.1207774,16.7306667 L92.1207774,16.9318788 L92.1207774,18.5155152 L92.5313905,18.5155152 L92.5313905,16.9082424 L92.5313905,16.6367273 C92.5313905,15.9688485 92.2374083,15.6379394 91.6458369,15.6379394 C91.2712952,15.6379394 90.983325,15.7973333 90.7963548,16.1221818 C90.7963548,15.9270303 90.7897417,15.8506667 90.74345,15.7149091 L90.3508726,15.7149091 C90.4085869,15.9567273 90.4145988,16.004 90.4145988,16.4591515" id="Fill-33" fill="#231F20"></path>
                    <path d="M95.5370423,17.0678788 C95.5370423,16.1993939 95.0915601,15.6381818 94.4116137,15.6381818 C93.6847744,15.6381818 93.2158458,16.2290909 93.2158458,17.1448485 C93.2158458,18.0254545 93.6907863,18.5866667 94.4350601,18.5866667 C94.9448696,18.5866667 95.2965661,18.3381818 95.466703,17.8539394 L95.0855482,17.8066667 C94.9274351,18.1139394 94.7458756,18.2321212 94.441072,18.2321212 C93.9366732,18.2321212 93.6553161,17.8715152 93.6378815,17.1860606 L95.5310304,17.1860606 C95.5370423,17.1327273 95.5370423,17.0915152 95.5370423,17.0678788 L95.5370423,17.0678788 Z M93.6499054,16.8612121 C93.7316673,16.2878788 93.989578,15.9866667 94.3941792,15.9866667 C94.810203,15.9866667 95.0621018,16.2939394 95.1089946,16.8612121 L93.6499054,16.8612121 Z" id="Fill-34" fill="#231F20"></path>
                    <path d="M97.1128226,15.6379394 C96.5440964,15.6379394 96.157531,15.9567273 96.157531,16.4294545 C96.157531,16.8197576 96.3625369,17.0264242 96.9012036,17.1979394 C97.6280429,17.4221818 97.6989833,17.4694545 97.6989833,17.7476364 C97.6989833,18.0488485 97.470531,18.244 97.1062095,18.244 C96.7082214,18.244 96.4972036,18.0488485 96.4623345,17.6470303 L96.0637452,17.6470303 L96.0637452,17.6530909 C96.0637452,18.2494545 96.4442988,18.5864242 97.1128226,18.5864242 C97.7332512,18.5864242 98.121019,18.2494545 98.121019,17.7118788 C98.121019,17.5464242 98.0795369,17.3985455 98.0031857,17.2803636 C97.8865548,17.1094545 97.7224298,17.0264242 97.2240429,16.8730909 C96.6907869,16.7191515 96.5735548,16.6306667 96.5735548,16.4003636 C96.5735548,16.1518788 96.7905845,15.9803636 97.1062095,15.9803636 C97.457906,15.9803636 97.634656,16.1403636 97.6755369,16.4827879 L98.0741262,16.4827879 C98.0446679,15.9391515 97.704394,15.6379394 97.1128226,15.6379394" id="Fill-35" fill="#231F20"></path>
                    <path d="M99.6884429,15.6379394 C99.1197167,15.6379394 98.7331512,15.9567273 98.7331512,16.4294545 C98.7331512,16.8197576 98.9381571,17.0264242 99.477425,17.1979394 C100.204264,17.4221818 100.274604,17.4694545 100.274604,17.7476364 C100.274604,18.0488485 100.046151,18.244 99.682431,18.244 C99.2838417,18.244 99.0728238,18.0488485 99.0379548,17.6470303 L98.6393655,17.6470303 L98.6393655,17.6530909 C98.6393655,18.2494545 99.019919,18.5864242 99.6884429,18.5864242 C100.310074,18.5864242 100.696639,18.2494545 100.696639,17.7118788 C100.696639,17.5464242 100.655758,17.3985455 100.579407,17.2803636 C100.462175,17.1094545 100.29805,17.0264242 99.8002643,16.8730909 C99.2664071,16.7191515 99.1497762,16.6306667 99.1497762,16.4003636 C99.1497762,16.1518788 99.3662048,15.9803636 99.682431,15.9803636 C100.034127,15.9803636 100.210276,16.1403636 100.251157,16.4827879 L100.649746,16.4827879 C100.620288,15.9391515 100.280615,15.6379394 99.6884429,15.6379394" id="Fill-36" fill="#231F20"></path>
                </g>
            </g>
        </g>
    </g>
</svg>