<svg width="120" height="80" viewBox="0 0 120 80" fill="none" xmlns="http://www.w3.org/2000/svg">
<path d="M116 0H4C1.79086 0 0 1.79086 0 4V76C0 78.2091 1.79086 80 4 80H116C118.209 80 120 78.2091 120 76V4C120 1.79086 118.209 0 116 0Z" fill="white"/>
<path d="M28.4705 29.5487V47.7591H32.4904V29.5487H28.4705ZM10 47.7591H13.7147L14.7321 44.3163H21.118L22.0845 47.7591H26.8414L21.4232 30.1728H16.0299L10 47.7591ZM15.572 41.4477L17.9629 33.3406H18.0646L20.3289 41.4477H15.572ZM48.3144 47.9331C51.9013 47.9331 55.1321 45.3394 55.1321 40.7239C55.1321 36.5876 52.7921 34.1144 49.8913 34.1144C48.4161 34.1144 47.2709 34.663 45.9731 35.7105V34.3881H41.9545V52H45.9731V47.6338C46.736 47.8376 47.5237 47.9383 48.3144 47.9331V47.9331ZM64.6731 47.7591H68.693L68.2092 44.4161V38.8285C68.2092 35.7871 66.3779 34.1144 63.1458 34.1144C61.0862 34.1144 59.6607 34.4635 57.0663 35.236L57.7785 38.3042C60.1445 37.2567 61.188 36.8078 62.281 36.8078C63.6049 36.8078 64.1893 37.7312 64.1893 39.1533V39.2531C59.585 40.1046 58.1594 40.5742 57.2698 41.4428C56.6085 42.0913 56.3281 43.0146 56.3281 44.0876C56.3281 46.6569 58.3629 48.028 60.2711 48.028C61.6967 48.028 62.8406 47.5049 64.3927 46.3577L64.6731 47.7543V47.7591ZM35.2373 34.3881V47.7591H39.2572V34.3881H35.2373ZM82.5319 34.4136L82.558 34.3881H78.7676L76.378 42.5207H76.2539L73.5008 34.3881H68.9982L74.4164 47.809L72.1521 51.9003V52H75.6894L82.5319 34.4136ZM48.3652 37.1825C49.8665 37.1825 51.0613 38.354 51.0613 40.8492C51.0613 44.0426 49.3069 45.4635 47.3479 45.4635C46.8817 45.4688 46.4177 45.4015 45.9731 45.264V38.0304C46.8131 37.4562 47.5005 37.1788 48.3652 37.1788V37.1825ZM60.2202 43.6934C60.2202 43.3187 60.2971 42.9441 60.6024 42.6448C61.0862 42.1715 62.0267 41.8224 64.1893 41.3236V44.5158C63.121 45.09 62.5106 45.3139 61.7984 45.3139C60.8307 45.3139 60.2202 44.691 60.2202 43.6934Z" fill="#3E3A39"/>
<path d="M34.9383 31.1703C34.9383 32.4672 35.9048 33.3406 37.2534 33.3406C38.6021 33.3406 39.5686 32.4672 39.5686 31.1703C39.5624 29.8978 38.5959 29 37.2472 29C35.8986 29 34.9383 29.8978 34.9383 31.1703Z" fill="#1677FF"/>
<path d="M110.001 42.9599H100.873C99.667 42.9599 98.5101 42.49 97.6571 41.6536C96.8041 40.8172 96.3249 39.6828 96.3249 38.5H107.804C108.092 38.4998 108.378 38.5554 108.644 38.6634C108.911 38.7715 109.153 38.93 109.357 39.1298C109.561 39.3297 109.723 39.5669 109.834 39.8281C109.944 40.0893 110.001 40.3693 110.001 40.6521V42.9599Z" fill="#1677FF"/>
<path d="M87.1982 38.5H94.1127V42.9599H89.398C88.8156 42.9599 88.257 42.733 87.8452 42.3292C87.4333 41.9254 87.202 41.3777 87.202 40.8066V38.4951L87.1982 38.5Z" fill="#00B6FF"/>
<path d="M100.872 31.7032V42.9586C100.275 42.9591 99.6828 42.8442 99.1306 42.6203C98.5784 42.3965 98.0766 42.0681 97.6539 41.6541C97.2312 41.24 96.8958 40.7484 96.6669 40.2072C96.438 39.666 96.3201 39.0859 96.3199 38.5V29.5523H98.6773C99.2591 29.5526 99.8169 29.7793 100.228 30.1826C100.64 30.5858 100.871 31.1327 100.872 31.7032V31.7032Z" fill="#1677FF"/>
<path d="M100.873 45.1472V51.9076H98.516C97.9336 51.9076 97.375 51.6807 96.9631 51.2769C96.5513 50.8731 96.3199 50.3254 96.3199 49.7543V45.1472H100.873Z" fill="#00B6FF"/>
</svg>
