<?xml version="1.0" encoding="UTF-8"?>
<svg width="120px" height="80px" viewBox="0 0 120 80" version="1.1" xmlns="http://www.w3.org/2000/svg" xmlns:xlink="http://www.w3.org/1999/xlink">
    <title>alipay copy 2</title>
    <g id="export-badges" stroke="none" stroke-width="1" fill="none" fill-rule="evenodd">
        <g id="production" transform="translate(-45.000000, -8808.000000)">
            <g id="alipay-copy-2" transform="translate(45.000000, 8808.000000)">
                <rect id="Rectangle-11" fill="#FFFFFF" x="0" y="0" width="120" height="80" rx="4"></rect>
                <g id="Group-12-Copy" transform="translate(7.000000, 25.000000)">
                    <path d="M24.1509205,0.266486707 C26.689294,0.266486707 28.7423542,2.38762124 28.7423542,5.01060719 L28.7423542,5.01060719 L28.7423542,20.3239349 C28.7423542,20.3239349 27.8091133,20.2466714 23.7029928,18.8194638 C22.545788,18.3952369 21.0154265,17.8164831 19.2984867,17.1608269 C20.3435349,15.3093923 21.1646193,13.1878967 21.6873181,10.9122353 L21.6873181,10.9122353 L16.0508361,10.9122353 L16.0508361,8.79073972 L22.9566795,8.79073972 L22.9566795,7.63359313 L16.0508361,7.63359313 L16.0508361,4.12352165 L13.2140771,4.12352165 C12.7287639,4.12352165 12.7287639,4.62501201 12.7287639,4.62501201 L12.7287639,4.62501201 L12.7287639,7.63359313 L5.7484988,7.63359313 L5.7484988,8.79073972 L12.6913783,8.79073972 L12.6913783,10.9122353 L6.90570361,10.9122353 L6.90570361,12.0693819 L18.1038964,12.0693819 C17.6933542,13.5348602 17.1332699,14.9237971 16.4987639,16.1582072 C12.8779566,14.9237971 8.9958,13.9208164 6.56958313,14.5378409 C5.03922169,14.9237971 4.03155904,15.6567168 3.43408916,16.3892755 C0.746522892,19.7838128 2.68742651,24.9521602 8.39867952,24.9521602 C11.7581373,24.9521602 15.005788,22.9851915 17.543812,19.8224445 C21.3141614,21.7121498 28.7423542,24.9138895 28.7423542,24.9138895 L28.7423542,24.9138895 L28.7423542,25.2222212 C28.7423542,27.8452072 26.689294,29.9667028 24.1135349,29.9667028 L24.1135349,29.9667028 L4.59129398,29.9667028 C2.05292048,29.9667028 -0.000139759035,27.8452072 -0.000139759035,25.1839506 L-0.000139759035,25.1839506 L-0.000139759035,5.01060719 C-0.000139759035,2.38762124 2.05292048,0.266486707 4.59129398,0.266486707 L4.59129398,0.266486707 Z M7.91180056,15.0472642 C10.5707138,14.7575023 13.0792613,15.8332627 16,17.3645845 C13.9407969,20.2199788 11.3193874,22 8.69832853,22 C4.16738061,22 2.81934737,18.1924203 5.06606944,16.1230246 C5.81509363,15.4195385 7.16312687,15.0883267 7.91180056,15.0472642 Z" id="Combined-Shape" fill="#00A0E9"></path>
                    <path d="M73.3698935,10.0875357 C74.1311534,10.0875357 74.8546354,10.2374179 75.4640709,10.5375332 C76.110928,10.8376486 76.644095,11.2500878 77.1009935,11.7376435 C77.5582483,12.2624066 77.900744,12.8626373 78.1288368,13.5376335 C78.3576424,14.2126297 78.5098231,14.9248333 78.5098231,15.7125044 C78.5098231,16.687616 78.3576424,17.5872599 78.0910589,18.4124893 C77.7863412,19.2373677 77.4057112,19.9502733 76.8344099,20.5501529 C76.3012429,21.1500326 75.6543859,21.6372374 74.8927696,21.974911 C74.1311534,22.3125846 73.2554907,22.5000251 72.3039159,22.5000251 C71.8085268,22.5000251 71.3897626,22.5000251 71.0469105,22.4624668 C70.7044148,22.4252595 70.3615628,22.3501429 70.0190671,22.1999097 L70.0190671,27 L66.3642358,27 L66.3642358,11.0622963 C66.3642358,10.8748558 66.4397915,10.6874154 66.5545507,10.5750915 C66.706375,10.4248583 66.8589121,10.3500928 67.0492271,10.3500928 L70.0190671,10.3500928 L70.0190671,11.287646 C70.4378313,10.9499724 70.9328641,10.6502081 71.4660311,10.4248583 C71.9988417,10.1998596 72.6460552,10.0875357 73.3698935,10.0875357 Z M96.1385486,10.125094 L99.9840513,17.5124944 L103.144563,10.5750915 C103.220831,10.4248583 103.296743,10.3125345 103.448924,10.2374179 C103.601461,10.1623013 103.753642,10.125094 103.905823,10.125094 L106,10.125094 L99.9081392,23.4751366 C98.4233973,27.1126749 94.882256,26.5875608 94.2350425,26.5875608 L94.2350425,24.5622211 L94.4394324,24.5623891 C95.0822772,24.5599893 96.4473847,24.5084382 97.0904798,23.774901 C97.2426605,23.5874605 97.4329755,23.2501379 97.509244,23.0247881 C97.6232904,22.8001404 97.699559,22.6127 97.8139618,22.4252595 L98.232726,21.4497969 L92.2549116,10.125094 L96.1385486,10.125094 Z M63.355905,10.5375332 L63.355905,22.5375834 L59.5481802,22.5375834 L59.5481802,11.1380463 C59.5481802,10.9506058 59.5866708,10.8748558 59.7388515,10.7249737 C59.8910322,10.5750915 60.0817036,10.5375332 60.2720185,10.5375332 L63.355905,10.5375332 Z M88.2953624,10.4999749 C89.5746211,10.8598606 90.9941295,11.8075326 91.1056434,13.3759095 L91.1126654,13.5751918 L91.1126654,22.237468 L87.3434312,22.237468 L87.3434312,21.7874705 C82.8122244,23.774901 80.0708335,21.1124743 80.0708335,18.2626072 C80.0708335,16.6124994 81.251214,14.0623966 84.5639061,14.0999549 C85.2618464,14.1312534 86.1186796,14.2144726 86.8916526,14.2848131 L87.3434312,14.3249536 L87.3434312,13.6875157 C87.3434312,11.6249687 86.4292779,10.9875307 81.594066,11.8124091 C81.4800196,11.5126448 81.3652604,10.9875307 81.251214,10.6874154 C84.2973226,9.90009527 86.5436807,10.0124191 88.2953624,10.4999749 Z M56.5024279,6 L56.5024279,22.1251442 L52.6569252,22.1251442 L52.6569252,6.67499624 C52.6569252,6.48755579 52.7328374,6.33732261 52.8853744,6.18744045 C53.0375551,6.03755829 53.2278701,6 53.4181851,6 L56.5024279,6 Z M43.5948679,6 L51.1340491,22.1251442 L47.097875,22.1251442 L45.8415824,19.4999248 L38.0743084,19.4999248 L36.7032566,22.1251442 L34,22.1251442 L41.6532276,6.52511408 C41.7291398,6.37488091 41.8435426,6.26255704 41.9957233,6.14988216 C42.1177529,6.06002307 42.2395545,6.01801394 42.3808352,6.00480465 L42.490756,6 L43.5948679,6 Z M72.5320087,12.3750815 C72.3039159,12.3750815 72.0751103,12.4126398 71.846661,12.4874054 C71.6182118,12.5625219 71.4278968,12.6751968 71.2372255,12.825079 C71.0469105,12.9749611 70.8565955,13.1248433 70.6662806,13.3126348 C70.4759656,13.5000752 70.3237849,13.6875157 70.1712478,13.9125144 L70.1712478,19.2373677 C70.1712478,19.5374831 70.2097385,19.8000401 70.3237849,20.0625972 C70.4378313,20.3251542 70.5903684,20.5501529 70.7806834,20.7375934 C70.9709984,20.9250338 71.2372255,21.074916 71.503809,21.1875909 C71.7703925,21.2999148 72.1132445,21.337473 72.4179623,21.337473 C72.7223237,21.337473 73.0270415,21.2251492 73.293625,21.0373577 C73.5602085,20.81271 73.8264356,20.5501529 74.0167506,20.174921 C74.2070655,19.8000401 74.3977369,19.3500426 74.5121397,18.8252796 C74.6261861,18.3001655 74.7024547,17.7374931 74.7024547,17.1376135 C74.7024547,16.3499423 74.6643204,15.6749461 74.5499176,15.0750664 C74.4358712,14.4751868 74.2833341,13.987631 74.0930191,13.5751918 C73.9027041,13.1624016 73.6742549,12.8626373 73.4076714,12.6751968 C73.1410879,12.4874054 72.8367265,12.3750815 72.5320087,12.3750815 Z M85.5917495,15.78727 C84.221054,15.9002959 83.1169421,16.9873803 83.1169421,18.4124893 C83.1169421,19.8372474 84.221054,21.0001504 85.5917495,21.0373577 C86.2088831,21.0373577 86.7330619,20.8246865 87.1645455,20.45436 L87.3049405,20.3251542 L87.3049405,16.0877363 C87.0005791,15.9002959 86.4677685,15.7125044 85.5917495,15.78727 Z M42.0719918,11.2500878 L38.5689847,18.3749311 L45.4224618,18.3749311 L42.0719918,11.2500878 Z" id="Combined-Shape" fill="#3E3A39"></path>
                    <path d="M63.5,7 C63.5,8.11106489 62.6198053,9 61.5,9 C60.3801947,9 59.5,8.11106489 59.5,7 C59.5,5.88893511 60.3801947,5 61.5,5 C62.6198053,5 63.5,5.88893511 63.5,7" id="Fill-8" fill="#00A0E9"></path>
                </g>
            </g>
        </g>
    </g>
</svg>