<?xml version="1.0" encoding="UTF-8"?>
<svg width="120px" height="80px" viewBox="0 0 120 80" version="1.1" xmlns="http://www.w3.org/2000/svg" xmlns:xlink="http://www.w3.org/1999/xlink">
    <!-- Generator: Sketch 56.3 (81716) - https://sketch.com -->
    <title>card_amazon_pay</title>
    <desc>Created with Sketch.</desc>
    <g id="export-badges" stroke="none" stroke-width="1" fill="none" fill-rule="evenodd">
        <g id="production" transform="translate(-36.000000, -7794.000000)">
            <g id="card_amazon_pay" transform="translate(36.000000, 7794.000000)">
                <path d="M3.99261475,0 C1.78755451,0 0,1.78518308 0,4.00571844 L0,76 L120,76 L120,4.00571844 C120,1.79342123 118.210539,0 116.007385,0 L3.99261475,0 Z" id="Rectangle-11" fill="#333E48"/>
                <g id="Group-23" transform="translate(18.000000, 17.000000)" fill-rule="nonzero">
                    <g id="Group-22" transform="translate(14.000000, 0.000000)" fill="#FFFFFF">
                        <path d="M39.4922559,1.14835583 C39.5508063,1.39863851 39.6239943,1.6489212 39.7264576,1.89920388 C42.1416622,7.87654321 44.5422293,13.8686051 46.9720716,19.8459444 C47.1769981,20.3612323 47.2209109,20.7881851 47.0013468,21.3034729 C46.5914939,22.2162686 46.2841042,23.1585093 45.8596137,24.0565824 C45.479036,24.8663205 44.8788942,25.455221 44.000638,25.7055036 C43.3858586,25.8674513 42.7564416,25.8968963 42.112387,25.8380062 C41.8049973,25.8085612 41.4976077,25.7349487 41.190218,25.7202261 C40.7803651,25.6907811 40.5754386,25.8821738 40.560801,26.3091266 C40.5461634,26.7213569 40.5461634,27.1335872 40.560801,27.531095 C40.5754386,28.2083304 40.7950027,28.5175032 41.4683324,28.6352833 C42.1562998,28.7530633 42.8442672,28.8708434 43.5468722,28.8855659 C45.6400496,28.9297335 47.3087365,28.0905504 48.3919192,26.2502365 C48.8164097,25.5288335 49.211625,24.763263 49.5190147,23.9829699 C52.4172603,16.606992 55.3008683,9.21629168 58.1844763,1.82559132 C58.272302,1.60475366 58.34549,1.383916 58.3747652,1.14835583 C58.4333156,0.795015576 58.272302,0.618345448 57.9209995,0.603622938 C57.1012936,0.588900427 56.2962254,0.603622938 55.4765196,0.603622938 C55.0227539,0.603622938 54.7007266,0.809738087 54.5397129,1.2366909 C54.4811625,1.39863851 54.4079745,1.57530864 54.3494241,1.73725626 L50.0898813,14.0599977 C49.7824916,14.9580708 49.4751019,15.8414215 49.138437,16.7983847 C49.0798866,16.6658821 49.0506114,16.5922695 49.0213362,16.518657 C47.4404749,12.1166263 45.8596137,7.69987308 44.2787524,3.29784239 C44.0299132,2.60588439 43.7664363,1.89920388 43.5029594,1.20724588 C43.371221,0.839183108 43.1077441,0.618345448 42.7125288,0.618345448 C41.7757221,0.603622938 40.8389155,0.588900427 39.9021088,0.603622938 C39.5800815,0.603622938 39.4190679,0.839183108 39.4922559,1.14835583 Z" id="Path"/>
                        <path d="M21.0342371,16.1800392 C20.8585859,14.8844583 20.9317739,13.6035999 21.5319156,12.3816315 C22.2784335,10.8357679 23.551905,9.87880466 25.1327663,9.31934926 C26.4501506,8.86295142 27.8260854,8.77461636 29.2166578,8.84822891 C30.5486798,8.92184147 31.8514265,9.14267913 33.1395357,9.45185185 C33.1834485,9.46657436 33.2419989,9.46657436 33.3005494,9.46657436 C33.315187,9.39296181 33.3298246,9.34879428 33.3298246,9.28990423 C33.315187,8.274051 33.3298246,7.24347525 33.2859117,6.22762201 C33.2566365,5.50621899 33.0956229,4.79953848 32.6418572,4.21063805 C32.1149034,3.53340256 31.3683856,3.29784239 30.577955,3.18006231 C29.0556442,2.95922465 27.5333333,3.07700473 26.0256601,3.35673243 C25.0595782,3.54812507 24.0934964,3.81313026 23.1420521,4.06341295 C22.5711855,4.22536056 22.3223463,4.06341295 22.3077087,3.45979001 C22.2930711,3.06228222 22.3223463,2.65005192 22.3077087,2.23782162 C22.2930711,1.75197877 22.5126351,1.42808354 22.9517632,1.28085843 C23.6836435,1.03057575 24.4008861,0.750848044 25.1474039,0.559455406 C26.3037746,0.250282681 27.4894205,0.103057575 28.6897041,0.044167532 C28.8214425,0.044167532 28.9385433,0.0147225107 29.0556442,1.92557081e-12 L30.5194046,1.92557081e-12 C30.9731703,0.0588900427 31.4122984,0.103057575 31.8514265,0.161947617 C32.7882332,0.294450213 33.6957647,0.544732895 34.5154705,1.03057575 C35.9353181,1.86975886 36.6086479,3.18006231 36.8428495,4.77009346 C36.9160376,5.30010384 36.9453128,5.83011423 36.9453128,6.36012461 L36.9453128,19.4337141 C36.9453128,19.5367717 36.9453128,19.6545517 36.9306752,19.7723318 C36.9014,20.1109496 36.6818359,20.3317872 36.345171,20.3465097 C35.6718412,20.3612323 35.013149,20.3612323 34.3398192,20.3465097 C33.9885167,20.3317872 33.7543151,20.0815046 33.6811271,19.6987193 C33.5933014,19.257044 33.534751,18.8153686 33.461563,18.3442483 C33.3737374,18.4031383 33.315187,18.4473059 33.2566365,18.4914734 C31.8075137,19.6987193 30.1681021,20.4937349 28.3091264,20.7734626 C26.6989899,21.0090227 25.1181287,20.9059652 23.6690058,20.0962271 C22.146695,19.2423214 21.2830764,17.902573 21.0342371,16.1800392 Z M26.4794258,17.7111803 C27.1527556,17.9761855 27.840723,18.0056306 28.543328,17.932018 C30.2412901,17.7553479 31.7489633,17.0928349 33.1248981,16.0917042 C33.2566365,16.0033691 33.315187,15.9003115 33.315187,15.7236414 C33.3005494,15.1494635 33.315187,14.5605631 33.315187,13.9863851 C33.315187,13.3974847 33.3005494,12.8085843 33.315187,12.2196839 C33.315187,12.0135687 33.2566365,11.9252336 33.0517101,11.8957886 C32.0270778,11.763286 31.0170831,11.5718934 29.9924508,11.4688358 C28.9678185,11.3805007 27.9431862,11.4246683 26.9478292,11.7485635 C25.9671097,12.0724588 25.2352295,12.6613592 24.9424774,13.6772124 C24.7082757,14.472228 24.7082757,15.2672436 24.957115,16.0622591 C25.1913167,16.8719972 25.7182704,17.4167301 26.4794258,17.7111803 Z" id="Combined-Shape"/>
                        <path d="M1.04805054e-13,1.59003115 C1.04805054e-13,0.736125534 0.146376041,0.574177916 1.00999468,0.588900427 L2.42984228,0.588900427 C3.00070884,0.603622938 3.27882332,0.839183108 3.36664895,1.41336102 C3.42519936,1.75197877 3.46911217,2.09059652 3.52766259,2.42921426 C3.54230019,2.4881043 3.5715754,2.53227184 3.58621301,2.60588439 C3.87896509,2.38504673 4.15707957,2.14948656 4.44983165,1.94337141 C5.84040404,0.927518172 7.39199008,0.279727703 9.10458976,0.0736125534 C9.28024101,0.044167532 9.45589226,0.0294450213 9.63154351,-3.51718654e-13 L10.6561758,-3.51718654e-13 C11.0513911,0.0588900427 11.461244,0.088335064 11.8564593,0.176670128 C14.4619529,0.706680512 16.1891901,2.31143418 17.22846,4.72592593 C18.0774411,6.68401985 18.2970051,8.75989385 18.2238171,10.8652129 C18.1652667,12.7644168 17.7993266,14.6047306 16.9503456,16.3125418 C15.8086124,18.565086 14.0813752,20.1109496 11.5783449,20.6115149 C8.81183767,21.1562478 6.29416977,20.5526249 4.09852915,18.7123111 C4.02534113,18.653421 3.95215311,18.5798085 3.82041467,18.4767509 L3.82041467,27.4133149 C3.82041467,27.531095 3.82041467,27.6635976 3.80577707,27.7813776 C3.79113946,28.1347179 3.5715754,28.3850006 3.2056353,28.3850006 C2.34201666,28.3997231 1.47839802,28.3997231 0.614779373,28.3850006 C0.263476874,28.3702781 0.0439128123,28.1347179 0.0146376041,27.7666551 C1.04805054e-13,27.648875 1.04805054e-13,27.5163724 1.04805054e-13,27.3985924 L1.04805054e-13,1.59003115 Z M3.80577707,15.5616938 C3.79113946,15.7383639 3.86432749,15.856144 3.99606592,15.9739241 C5.38663831,16.9603323 6.87967393,17.6228453 8.59227361,17.6964578 C11.0806663,17.8142379 12.9835548,16.7983847 13.8178983,14.1777778 C14.2131136,12.9558094 14.3155768,11.6896735 14.3155768,10.408815 C14.3155768,9.01017653 14.198476,7.64098304 13.7154351,6.33067959 C12.9250044,4.16647052 11.4319688,3.26839737 9.6022683,3.13589477 C7.53836612,2.98866967 5.694028,3.5922926 4.01070353,4.77009346 C3.86432749,4.87315103 3.80577707,4.97620861 3.80577707,5.16760125 L3.80577707,10.3646475 C3.80577707,12.1019038 3.82041467,13.8244375 3.80577707,15.5616938 Z" id="Combined-Shape"/>
                    </g>
                    <g id="Group-21" transform="translate(0.000000, 27.000000)" fill="#FF9900">
                        <path d="M75.4449045,6.47608152 C75.0037062,6.36252267 74.61153,6.47608152 74.203013,6.63830844 C67.029456,9.62328383 59.5781074,11.5375615 51.8489673,12.4460323 C49.4795691,12.7218181 47.0938303,12.9002677 44.7080915,12.9651585 C40.3614715,13.0787173 36.0148515,12.8353769 31.7009129,12.2675827 C28.7922724,11.8782381 25.8999726,11.3428892 23.0403542,10.6615361 C16.9943038,9.21771652 11.1606822,7.1412119 5.60485212,4.36713151 C4.16687257,3.65333305 2.76157437,2.85842113 1.33993549,2.09595459 C0.718989776,1.75527805 0.326813535,1.8526142 0,2.43663113 L0,2.7124169 C0.196088121,2.97197997 0.359494888,3.26398844 0.604605039,3.49110613 C6.48724866,8.71481306 13.1215634,12.6569273 20.5402307,15.3174488 C24.1188389,16.5990415 27.7954911,17.5399577 31.5375061,18.15642 C33.8252008,18.5295419 36.1128956,18.7728823 38.4332717,18.8864412 C38.923492,18.9026638 39.4137123,18.9188865 39.9039326,18.9513319 C40.0183173,18.9513319 40.1327021,18.9837773 40.2470868,19 L43.1393866,19 C43.2537713,18.9837773 43.368156,18.9513319 43.4825408,18.9513319 C45.9173016,18.8864412 48.3520625,18.6593235 50.7704826,18.3024242 C54.2673874,17.7832981 57.6989295,16.9883862 61.0487683,15.9176885 C65.8856086,14.36031 70.4773387,12.2838054 74.6768927,9.41238883 C75.1344316,9.10415768 75.6083112,8.79592652 75.9841468,8.40658191 C76.6867959,7.69278344 76.3599824,6.7194219 75.4449045,6.47608152 L75.4449045,6.47608152 Z" id="Path"/>
                        <path d="M84,1.7291657 C83.8716491,1.0523673 83.3582457,0.794539338 82.7806668,0.601168367 C81.8661669,0.294997664 80.9195793,0.149969436 79.9569478,0.0693981978 C78.1921234,-0.0756300303 76.4272991,0.0049412075 74.6945624,0.327226159 C72.7692995,0.681739605 70.9402997,1.31019526 69.31987,2.43819259 C69.1273437,2.56710657 68.9348174,2.72824905 68.8225104,2.92162002 C68.7262473,3.06664824 68.7102034,3.29224771 68.7422911,3.46950443 C68.7904227,3.67898965 69.0150367,3.72733239 69.2236069,3.71121815 C69.31987,3.71121815 69.4161331,3.71121815 69.5123963,3.6951039 L72.6409486,3.3567047 C74.181159,3.21167647 75.7213693,3.11499099 77.2615797,3.22779072 C77.9193778,3.27613346 78.5611322,3.42116169 79.1868426,3.58230417 C79.8767285,3.75956089 80.1815618,4.29133106 80.2136495,4.9842437 C80.2617811,6.06389829 80.0211232,7.09521014 79.7483777,8.12652198 C79.1868426,10.2052599 78.4167374,12.2195409 77.6145445,14.2177076 C77.566413,14.3466215 77.5022375,14.4916498 77.4861937,14.6205637 C77.4220183,15.0234199 77.6466323,15.2651337 78.0316849,15.1845624 C78.2562989,15.1362197 78.5130006,15.0073057 78.6734392,14.8461632 C79.2670619,14.2660503 79.8767285,13.6859374 80.3740881,13.0413675 C82.0907809,10.8176013 83.101544,8.27155021 83.6951667,5.53212812 C83.8074737,5.0487007 83.887693,4.54915902 83.9679123,4.06573159 C84,3.30836196 84,2.51876383 84,1.7291657 L84,1.7291657 Z" id="Path"/>
                    </g>
                </g>
                <path d="M0,76 L120,76 C120,78.209139 118.209139,80 116,80 L4,80 C1.790861,80 2.705415e-16,78.209139 0,76 L0,76 Z" id="Rectangle" fill="#FF9900"/>
            </g>
        </g>
    </g>
</svg>