<?xml version="1.0" encoding="UTF-8" standalone="no"?>
<svg width="120px" height="80px" viewBox="0 0 120 80" version="1.1" xmlns="http://www.w3.org/2000/svg" xmlns:xlink="http://www.w3.org/1999/xlink" xmlns:sketch="http://www.bohemiancoding.com/sketch/ns">
    <!-- Generator: Sketch 3.2.2 (9983) - http://www.bohemiancoding.com/sketch -->
    <title>card_amex</title>
    <desc>Created with Sketch.</desc>
    <defs>
        <linearGradient x1="5.10004783%" y1="5.10004783%" x2="100%" y2="100%" id="linearGradient-1">
            <stop stop-color="#51AAD6" offset="0%"></stop>
            <stop stop-color="#1D3A90" offset="100%"></stop>
        </linearGradient>
    </defs>
    <g id="assets-various" stroke="none" stroke-width="1" fill="none" fill-rule="evenodd" sketch:type="MSPage">
        <g id="Artboard-2" sketch:type="MSArtboardGroup" transform="translate(-35.000000, -236.000000)">
            <g id="card_amex" sketch:type="MSLayerGroup" transform="translate(35.000000, 236.000000)">
                <rect id="Rectangle-11" fill="url(#linearGradient-1)" sketch:type="MSShapeGroup" x="0" y="0" width="120" height="80" rx="4"></rect>
                <path d="M27.557116,28.2414803 L18,49.9706939 L29.444942,49.9706939 L30.8608102,46.5057635 L34.1055103,46.5057635 L35.5213797,49.9706939 L48.116717,49.9706939 L48.116717,47.3279533 L49.2376088,49.9706939 L55.7565071,49.9706939 L56.8773989,47.2692238 L56.8773989,49.9706939 L83.0709793,49.9706939 L86.2566888,46.5938578 L89.2359106,49.9706939 L102.686671,50 L93.100056,39.1647609 L102.686671,28.2414275 L89.4423924,28.2414275 L86.3451835,31.5595341 L83.4544446,28.2414275 L54.9600783,28.2414275 L52.511807,33.8499092 L50.0045394,28.2414275 L38.5890956,28.2414275 L38.5890956,30.7960796 L37.3207133,28.2414275 L27.557116,28.2414275 L27.557116,28.2414803 Z M29.769412,31.3246805 L35.3443962,31.3246805 L41.6863098,46.0653097 L41.6863098,31.3246805 L47.7922423,31.3246805 L52.6887906,41.8956485 L57.2018736,31.3246805 L63.2783102,31.3246805 L63.2783102,46.9168584 L59.5911483,46.9168584 L59.5616501,34.7015225 L54.1636553,46.9168584 L50.8599588,46.9168584 L45.4324599,34.7015225 L45.4324599,46.9168584 L37.822165,46.9168584 L36.3767985,43.4225691 L28.5895184,43.4225691 L27.1441519,46.9168584 L23.0735289,46.9168584 L29.7694096,31.3246805 L29.769412,31.3246805 Z M66.6704955,31.3246805 L81.7141075,31.3246805 L86.3156794,36.4339847 L91.0647424,31.3246805 L95.6663142,31.3246805 L88.6754618,39.1648137 L95.6663142,46.9168584 L90.8582606,46.9168584 L86.2566888,41.7488364 L81.4781275,46.9168584 L66.6704955,46.9168584 L66.6704955,31.3246805 L66.6704955,31.3246805 Z M32.4831608,33.967421 L29.9168978,40.192551 L35.0494238,40.192551 L32.4831608,33.967421 L32.4831608,33.967421 Z M70.3871556,34.5546987 L70.3871556,37.4029925 L78.5873945,37.4029925 L78.5873945,40.5742811 L70.3871556,40.5742811 L70.3871556,43.6868402 L79.5903051,43.6868402 L83.8674081,39.10609 L79.7672887,34.5546987 L70.3871556,34.5546987 L70.3871556,34.5546987 Z" id="path3902-0-8" fill="#FFFFFF" sketch:type="MSShapeGroup"></path>
            </g>
        </g>
    </g>
</svg>