<?xml version="1.0" encoding="UTF-8"?>
<svg width="120px" height="80px" viewBox="0 0 120 80" version="1.1" xmlns="http://www.w3.org/2000/svg" xmlns:xlink="http://www.w3.org/1999/xlink">
    <!-- Generator: Sketch 55.2 (78181) - https://sketchapp.com -->
    <title>card_amex_digital_v01</title>
    <desc>Created with Sketch.</desc>
    <g id="export-badges" stroke="none" stroke-width="1" fill="none" fill-rule="evenodd">
        <g id="production" transform="translate(-1215.000000, -746.000000)">
            <g id="card_amex_digital_v01" transform="translate(1215.000000, 746.000000)">
                <rect id="Rectangle-11" fill="#FFFFFF" x="0" y="0" width="120" height="80" rx="4"></rect>
                <g id="amex_digital_svg" transform="translate(28.000000, 8.000000)" fill-rule="nonzero">
                    <polygon id="Path" fill="#FFFFFF" points="64 64 32.1916172 64 0 64 0 31.6819219 0 0 31.7630703 0 64 0 64 31.9968008"></polygon>
                    <path d="M64,64 L64,53.8589375 L56.2789219,53.8589375 L52.3037422,49.4634219 L48.3084844,53.8589375 L22.8514609,53.8589375 L22.8514609,33.3730547 L14.6350098,33.3730547 L24.826625,10.3083516 L34.6554844,10.3083516 L38.1641016,18.2099219 L38.1641016,10.3083516 L50.3303672,10.3083516 L52.4427578,16.2626562 L54.5689609,10.3083516 L64,10.3083516 L64,0 L0,0 L0,64 L64,64 L64,64 Z M57.5795234,51.2940781 L64,51.2940781 L55.5068125,42.2874883 L64,33.3832969 L57.6816641,33.3832969 L52.4366094,39.1148789 L47.2419844,33.3832969 L40.8199688,33.3832969 L49.2634922,42.3386875 L40.8199688,51.2940781 L47.0632969,51.2940781 L52.3340781,45.5114297 L57.5795234,51.2940781 L57.5795234,51.2940781 Z M59.0816016,42.2950391 L64,47.5275508 L64,37.1061758 L59.0816016,42.2950391 L59.0816016,42.2950391 Z M30.4573437,47.1490547 L30.4573437,44.3599375 L40.5638437,44.3599375 L40.5638437,40.3171797 L30.4573437,40.3171797 L30.4573437,37.5284492 L40.8195859,37.5284492 L40.8195859,33.3832969 L25.5700469,33.3832969 L25.5700469,51.2940781 L40.8195859,51.2940781 L40.8195859,47.1490547 L30.4573437,47.1490547 L30.4573437,47.1490547 Z M59.1639063,30.7841289 L64,30.7841289 L64,12.8733437 L56.4773125,12.8733437 L52.4600312,24.0289297 L48.4686094,12.8733437 L40.8183047,12.8733437 L40.8183047,30.7841289 L45.6540156,30.7841289 L45.6540156,18.2466563 L50.2598359,30.7841289 L54.5582031,30.7841289 L59.1639063,18.2208008 L59.1639063,30.7841289 L59.1639063,30.7841289 Z M35.317125,30.7841289 L40.8183047,30.7841289 L32.9123828,12.8733438 L26.6178594,12.8733438 L18.7111699,30.7841289 L24.0844844,30.7841289 L25.5687656,27.2020469 L33.8074922,27.2020469 L35.317125,30.7841289 L35.317125,30.7841289 Z M32.1190391,23.1847695 L27.2572188,23.1847695 L29.6881953,17.3254375 L32.1190391,23.1847695 L32.1190391,23.1847695 Z" id="Shape" fill="#0690FF"></path>
                </g>
            </g>
        </g>
    </g>
</svg>