<?xml version="1.0" encoding="UTF-8"?>
<svg width="120px" height="80px" viewBox="0 0 120 80" version="1.1" xmlns="http://www.w3.org/2000/svg" xmlns:xlink="http://www.w3.org/1999/xlink">
    <!-- Generator: Sketch 50.2 (55047) - http://www.bohemiancoding.com/sketch -->
    <title>card_applepay_bright</title>
    <desc>Created with Sketch.</desc>
    <defs></defs>
    <g id="export-badges" stroke="none" stroke-width="1" fill="none" fill-rule="evenodd">
        <g id="production-final" transform="translate(-36.000000, -4062.000000)">
            <g id="card_applepay_bright" transform="translate(36.000000, 4062.000000)">
                <rect id="Rectangle-11" stroke="#000000" stroke-width="2.5" fill="#FFFFFF" x="1.25" y="1.25" width="117.5" height="77.5" rx="4"></rect>
                <g id="XMLID_34_" transform="translate(15.000000, 22.000000)" fill="#000000" fill-rule="nonzero">
                    <g id="XMLID_44_">
                        <path d="M16.9940241,4.91761226 C18.0083855,3.64275377 18.6967229,1.93088396 18.5152048,0.181603774 C17.0303133,0.255843396 15.2183855,1.16596887 14.1693253,2.44191698 C13.2273976,3.53451792 12.3936867,5.31801226 12.610988,6.99399717 C14.2778313,7.13928019 15.9431566,6.15680377 16.9940241,4.91761226" id="XMLID_46_"></path>
                        <path d="M18.4962651,7.32124717 C16.0755904,7.17632736 14.0175181,8.70172642 12.8614699,8.70172642 C11.7049157,8.70172642 9.9346988,7.39425189 8.02012048,7.42948302 C5.52816867,7.46623962 3.21592771,8.88209528 1.9513012,11.1339094 C-0.649662651,15.6387726 1.26491566,22.3209925 3.79424096,25.9898972 C5.02257831,27.8050632 6.50284337,29.8036491 8.45342169,29.7318066 C10.2963614,29.6591651 11.0186747,28.5327132 13.2588434,28.5327132 C15.4973494,28.5327132 16.1480241,29.7318066 18.0988916,29.6954858 C20.1219759,29.6591651 21.386747,27.8794481 22.6150843,26.0626113 C24.0241446,23.9934179 24.6009398,21.9954858 24.6372289,21.8857972 C24.6009398,21.8494764 20.7362169,20.3595991 20.7003614,15.8922189 C20.6638554,12.151617 23.7346265,10.3724085 23.8791325,10.262066 C22.1450602,7.68481792 19.4355904,7.39425189 18.4962651,7.32124717" id="XMLID_45_"></path>
                    </g>
                    <g id="XMLID_35_" transform="translate(31.807229, 2.179245)">
                        <path d="M10.824,0.0800509434 C16.0852048,0.0800509434 19.7491084,3.72433019 19.7491084,9.03013868 C19.7491084,14.3549066 16.0101687,18.0182906 10.6924337,18.0182906 L4.86722892,18.0182906 L4.86722892,27.3267189 L0.658192771,27.3267189 L0.658192771,0.0800509434 L10.824,0.0800509434 Z M4.86722892,14.4681547 L9.69643373,14.4681547 C13.3606988,14.4681547 15.4461687,12.4857679 15.4461687,9.04909811 C15.4461687,5.61279151 13.3606988,3.6489283 9.71522892,3.6489283 L4.86722892,3.6489283 L4.86722892,14.4681547 Z" id="XMLID_41_"></path>
                        <path d="M20.7933253,21.6814566 C20.7933253,18.1879811 23.4427952,16.1864896 28.3280964,15.8845915 L33.570506,15.5632981 L33.570506,14.0529358 C33.570506,11.8436896 32.1236386,10.6352255 29.5495663,10.6352255 C27.426,10.6352255 25.8852289,11.7303689 25.5659277,13.4108575 L21.7700964,13.4108575 C21.8831566,9.87982642 25.1900964,7.31216698 29.6622651,7.31216698 C34.4726024,7.31216698 37.6106024,9.8423434 37.6106024,13.7695613 L37.6106024,27.3267189 L33.7208675,27.3267189 L33.7208675,24.060466 L33.6270361,24.060466 C32.5183373,26.1940198 30.0754699,27.5343283 27.426,27.5343283 C23.517759,27.5343283 20.7933253,25.1931651 20.7933253,21.6814566 Z M33.570506,19.9252755 L33.570506,18.3955906 L28.8917349,18.6978519 C26.2611325,18.8676151 24.8896627,19.8495104 24.8896627,21.5678453 C24.8896627,23.2293745 26.3176627,24.3059943 28.5535663,24.3059943 C31.4095663,24.3059943 33.570506,22.4739755 33.570506,19.9252755 Z" id="XMLID_38_"></path>
                        <path d="M41.1864578,34.6152774 L41.1864578,31.3490245 C41.4495904,31.386217 42.0882651,31.4240632 42.4263614,31.4240632 C44.2867952,31.4240632 45.3389639,30.6315443 45.978,28.5919887 L46.3538313,27.3835245 L39.2321928,7.55762264 L43.6289639,7.55762264 L48.5897349,23.6445934 L48.6835663,23.6445934 L53.6443373,7.55762264 L57.9287711,7.55762264 L50.544,28.3843792 C48.8528675,33.1613575 46.9173976,34.7288887 42.8210602,34.7288887 C42.501759,34.7288887 41.4680964,34.6910425 41.1864578,34.6152774 Z" id="XMLID_36_"></path>
                    </g>
                </g>
            </g>
        </g>
    </g>
</svg>