<?xml version="1.0" encoding="UTF-8"?>
<svg width="120px" height="80px" viewBox="0 0 120 80" version="1.1" xmlns="http://www.w3.org/2000/svg" xmlns:xlink="http://www.w3.org/1999/xlink">
    <title>availabill 2</title>
    <g id="Page-1" stroke="none" stroke-width="1" fill="none" fill-rule="evenodd">
        <g id="availabill">
            <rect id="Rectangle-11" fill="#FFFFFF" fill-rule="nonzero" x="0" y="0" width="120" height="80" rx="4"></rect>
            <g id="availabill_logo-orange" transform="translate(12.000000, 28.000000)">
                <polygon id="Path" fill="#F39200" points="26 21.4901829 3.08484664 21.4901829 6.69937433 12.3488666 3.20585991 2.53206371 18.6896078 2.50981714 17.7552266 0 2.30520372 0 -1.42108547e-14 0 4.4755074 12.3488666 1.35296811 21.4901829 1.33312986 21.4901829 0.493972226 24 0.493972226 24 0.493972226 24 2.09095071 24 2.09293453 24 25.0358614 24"></polygon>
                <path d="M19.2167109,10.8804654 C19.2167109,8.34979995 18.2429115,5.69549287 14.2433781,5.69549287 C12.5944656,5.69549287 11.0007896,6.14419241 9.92060871,6.80228508 L10.4606992,8.35578261 C11.4878493,7.72507908 12.6796659,7.39621107 13.8935468,7.40852802 C16.5674036,7.38260315 16.86609,9.30503142 16.86609,10.3320548 L16.86609,10.5952919 C11.8109253,10.569367 9,12.2564773 9,15.3375475 C9,17.1822012 10.3522719,18.9989358 13.0015792,18.9989358 C14.570223,19.0312655 16.0588809,18.325372 17.0011126,17.1024324 L17.0808987,17.1024324 L17.2711578,18.7097739 L19.4069701,18.7097739 C19.2677491,17.6972258 19.2041621,16.6761575 19.2167109,15.6546285 L19.2167109,10.8804654 L19.2167109,10.8804654 Z M16.919286,14.4102351 C16.9197893,14.6599961 16.8832695,14.9085181 16.8108535,15.1480966 C16.3295339,16.4663756 15.0296046,17.3304925 13.5948604,17.2859006 C12.4062522,17.2859006 11.3792621,16.5998889 11.3792621,15.0723162 C11.3792621,12.5954947 14.32521,12.1487894 16.919286,12.2006391 L16.919286,14.4142236 L16.919286,14.4102351 Z M20.0861747,5.95274728 L25.0595076,18.7037912 L27.3303424,18.7037912 L32.4652932,5.95274728 L29.9796497,5.95274728 L27.4387697,13.0980382 C27.0050607,14.2845992 26.6204508,15.3375475 26.3299476,16.39249 L26.2481157,16.39249 C25.9780705,15.3375475 25.6343766,14.2845992 25.1945302,13.0980382 L22.6270548,5.95872994 L20.0861747,5.95274728 Z M42.9295456,10.8804654 C42.9295456,8.34979995 41.9557462,5.69549287 37.9562128,5.69549287 C36.3073003,5.69549287 34.7136243,6.14419241 33.6334434,6.80228508 L34.1735338,8.35578261 C35.1982655,7.72408102 36.3878343,7.39316851 37.6002441,7.40254536 C40.2741009,7.37662049 40.5727873,9.29904876 40.5727873,10.3260722 L40.5727873,10.5893092 C35.5176226,10.5633844 32.7066973,12.2504946 32.7066973,15.3315648 C32.7066973,17.1762185 34.0589692,18.9929531 36.7082765,18.9929531 C38.2769203,19.0252829 39.7655782,18.3193894 40.7078099,17.0964497 L40.787596,17.0964497 L40.9778551,18.7037912 L43.1238963,18.7037912 C42.9846754,17.6912431 42.9210884,16.6701748 42.9336372,15.6486459 L42.9336372,10.8804654 L42.9295456,10.8804654 Z M40.6321207,14.4102351 C40.6326239,14.6599961 40.5961041,14.9085181 40.5236882,15.1480966 C40.0423686,16.4663756 38.7424393,17.3304925 37.3076951,17.2859006 C36.1190869,17.2859006 35.0920968,16.5998889 35.0920968,15.0723162 C35.0920968,12.5954947 38.0380446,12.1487894 40.6321207,12.2006391 L40.6321207,14.4142236 L40.6321207,14.4102351 Z M48.0153973,18.7037912 L48.0153973,5.95274728 L45.638181,5.95274728 L45.638181,18.7037912 L48.0153973,18.7037912 Z M46.8267892,0.955231472 C46.4291149,0.944681079 46.0444945,1.09403671 45.7631922,1.36824709 C45.4818898,1.64245746 45.3286714,2.01738107 45.3394947,2.40502955 C45.3229554,2.78231705 45.4676101,3.14940577 45.7390105,3.41887709 C46.0104109,3.68834842 46.3842685,3.83608635 46.7715527,3.82690855 C47.7167109,3.82690855 48.2833967,3.19474075 48.2833967,2.40502955 C48.2986768,2.02101733 48.1508759,1.64785003 47.8748293,1.37347923 C47.5987826,1.09910844 47.21891,0.947805699 46.8247434,0.955231472 L46.8267892,0.955231472 Z M50.83246,18.7037912 L53.2096763,18.7037912 L53.2096763,0 L50.83246,0 L50.83246,18.7037912 L50.83246,18.7037912 Z M65.8097409,10.8804654 C65.8097409,8.34979995 64.8379872,5.69549287 60.836408,5.69549287 C59.1895413,5.69549287 57.5938195,6.14419241 56.5136386,6.80228508 L57.0537291,8.35578261 C58.0808792,7.72507908 59.2726958,7.39621107 60.4865767,7.40852802 C63.1727083,7.37662049 63.4591199,9.30901986 63.4591199,10.3260722 L63.4591199,10.5893092 C58.4039552,10.5633844 55.5950757,12.2504946 55.5950757,15.3315648 C55.5950757,17.1762185 56.9453018,18.9929531 59.5946091,18.9929531 C61.163253,19.0252829 62.6519109,18.3193894 63.5941426,17.0964497 L63.6759744,17.0964497 L63.8641878,18.7037912 L66,18.7037912 C65.8617985,17.6911467 65.798216,16.6701503 65.8097409,15.6486459 L65.8097409,10.8804654 L65.8097409,10.8804654 Z M63.5123159,14.4102351 C63.5128192,14.6599961 63.4762994,14.9085181 63.4038834,15.1480966 C62.9231048,16.4667823 61.6228255,17.3311319 60.1878903,17.2859006 C58.9992822,17.2859006 57.972292,16.5998889 57.972292,15.0723162 C57.972292,12.5954947 60.9182399,12.1487894 63.5123159,12.2006391 L63.5123159,14.4102351 Z" id="Shape" fill="#1D1D1B"></path>
                <path d="M68.1074195,15.4170517 C68.1074195,16.550189 68.0526963,17.8409282 68,18.7107308 L70.0085414,18.7107308 L70.1423091,16.6279924 L70.1950054,16.6279924 C71.1861021,18.2897942 72.6859211,19 74.5606949,19 C77.4508867,19 80.3978284,16.7337253 80.3978284,12.1752415 C80.3978284,8.32696346 78.1480999,5.69162117 74.9072747,5.69162117 C72.8196887,5.69162117 71.3198697,6.58735825 70.4909157,8.01175976 L70.4361925,8.01175976 L70.4361925,0 L68.1074195,0 L68.1074195,15.4170517 Z M70.4361925,11.3313734 C70.4364236,11.0017808 70.4814111,10.6736974 70.5699602,10.3558379 C71.0523344,8.61623268 72.5521535,7.51102478 74.131017,7.51102478 C76.674629,7.51102478 78.0143322,9.70548089 78.0143322,12.2550399 C78.0143322,15.1796514 76.5672096,17.1567444 74.0783207,17.1567444 C72.4028915,17.1681643 70.9394034,16.0440049 70.543612,14.4415162 C70.4663373,14.1668588 70.4301504,13.8825808 70.4361925,13.597648 L70.4361925,11.3313734 L70.4361925,11.3313734 Z M85.1141513,18.7127257 L85.1141513,5.9549559 L82.75903,5.9549559 L82.75903,18.7107308 L85.1141513,18.7127257 Z M83.9365907,0.957580848 C83.5426125,0.94702654 83.161567,1.09643759 82.8828793,1.3707497 C82.6041915,1.64506182 82.4523971,2.02012453 82.4631198,2.40791684 C82.4467343,2.78534432 82.5900445,3.15256924 82.8589224,3.42214055 C83.1278002,3.69171185 83.498183,3.8395046 83.8818675,3.83032339 C84.818241,3.83032339 85.3796598,3.19792104 85.3796598,2.40791684 C85.3947978,2.02376214 85.2483707,1.65045638 84.9748897,1.37598379 C84.7014088,1.10151119 84.3250669,0.950152319 83.9345639,0.957580848 L83.9365907,0.957580848 Z M88.1725661,18.7127257 L90.5276873,18.7127257 L90.5276873,0 L88.1725661,0 L88.1725661,18.7107308 L88.1725661,18.7127257 Z M93.6448788,18.7127257 L96,18.7127257 L96,0 L93.6408252,0 L93.6448788,18.7127257 Z" id="Shape" fill="#F39200"></path>
            </g>
        </g>
    </g>
</svg>