<?xml version="1.0" encoding="UTF-8"?>
<svg width="120px" height="80px" viewBox="0 0 120 80" version="1.1" xmlns="http://www.w3.org/2000/svg" xmlns:xlink="http://www.w3.org/1999/xlink">
    <!-- Generator: Sketch 53.2 (72643) - https://sketchapp.com -->
    <title>card_bancontact</title>
    <desc>Created with Sketch.</desc>
    <g id="export-badges" stroke="none" stroke-width="1" fill="none" fill-rule="evenodd">
        <g id="production-final" transform="translate(-36.000000, -6926.000000)">
            <g id="card_bancontact" transform="translate(36.000000, 6926.000000)">
                <rect id="Rectangle-11" fill="#FFFFFF" x="0" y="0" width="120" height="80" rx="4"></rect>
                <g id="Bancontact_logo" transform="translate(17.000000, 10.000000)">
                    <path d="M85.7633028,55.4134557 C85.7633028,58.2801223 83.42263,60.6207951 80.5559633,60.6207951 L5.20733945,60.6207951 C2.34067278,60.6207951 0,58.2801223 0,55.4134557 L0,5.20733945 C0,2.34067278 2.34067278,0 5.20733945,0 L80.5296636,0 C83.3963303,0 85.7370031,2.34067278 85.7370031,5.20733945 L85.7370031,55.4134557 L85.7633028,55.4134557 Z" id="Path" fill="#FFFFFF" fill-rule="nonzero"></path>
                    <g id="Group" transform="translate(9.467890, 9.730887)" fill-rule="nonzero">
                        <path d="M59.4373089,7.20611621 L56.333945,7.20611621 L41.9743119,7.20611621 L38.870948,7.20611621 L36.7669725,9.57308869 L29.9816514,17.2262997 L29.9816514,17.2262997 L27.8776758,19.5932722 L24.7743119,19.5932722 L10.6776758,19.5932722 L7.57431193,19.5932722 L9.62568807,17.2 L10.5987768,16.0691131 L12.6501529,13.675841 L9.54678899,13.675841 L5.54923547,13.675841 L3.31376147,13.675841 C1.60428135,13.675841 0.210397554,15.1223242 0.210397554,16.858104 L0.210397554,16.858104 L0.210397554,23.0122324 L0.210397554,23.5908257 C0.210397554,25.3529052 1.60428135,26.7730887 3.31376147,26.7730887 L4.18165138,26.7730887 L36.7932722,26.7730887 L39.133945,26.7730887 C40.8434251,26.7730887 43.1840979,25.6948012 44.3149847,24.4061162 L49.7327217,18.2519878 L59.4373089,7.20611621 Z" id="Path" fill="#004E91"></path>
                        <path d="M63.5663609,0.0262996942 C65.275841,0.0262996942 66.6697248,1.47278287 66.6697248,3.20856269 L66.6697248,9.9412844 C66.6697248,11.7033639 65.275841,13.1235474 63.5663609,13.1235474 L61.8831804,13.1235474 L57.3333333,13.1235474 L54.2299694,13.1235474 L56.3076453,10.7565749 C56.3076453,10.7565749 56.3076453,10.7565749 56.3076453,10.7565749 L57.3333333,9.57308869 L59.4110092,7.20611621 L38.8446483,7.20611621 L27.8776758,19.5669725 L7.44281346,19.5669725 L22.0917431,2.99816514 L22.6440367,2.36697248 C23.8012232,1.07828746 26.141896,7.10542736e-15 27.8513761,7.10542736e-15 L28.5614679,7.10542736e-15 L63.5663609,7.10542736e-15 L63.5663609,0.0262996942 Z" id="Path" fill="#FFDD00"></path>
                    </g>
                    <path d="M76.1376147,50.6006116 L76.1376147,49.6275229 C76.1376147,49.4960245 76.0587156,49.4171254 75.8746177,49.4171254 L75.2434251,49.4171254 C75.0593272,49.4171254 74.9278287,49.3908257 74.9015291,49.3119266 C74.8489297,49.2330275 74.8489297,49.0752294 74.8489297,48.8122324 L74.8489297,45.1302752 L75.8746177,45.1302752 C75.9535168,45.1302752 76.0061162,45.1039755 76.0587156,45.0513761 C76.111315,44.9987768 76.1376147,44.9461774 76.1376147,44.8672783 L76.1376147,43.8415902 C76.1376147,43.7626911 76.111315,43.7100917 76.0587156,43.6574924 C76.0061162,43.604893 75.9535168,43.5785933 75.8746177,43.5785933 L74.8489297,43.5785933 L74.8489297,42.2373089 C74.8489297,42.1584098 74.82263,42.1058104 74.7963303,42.0795107 C74.7437309,42.053211 74.6911315,42.0269113 74.6385321,42.0269113 L74.6122324,42.0269113 L73.0868502,42.2899083 C73.0079511,42.316208 72.9553517,42.3425076 72.9027523,42.3688073 C72.8501529,42.4214067 72.8238532,42.4740061 72.8238532,42.5266055 L72.8238532,43.5522936 L71.7981651,43.5522936 C71.7192661,43.5522936 71.6666667,43.5785933 71.6140673,43.6311927 C71.5614679,43.683792 71.5351682,43.7363914 71.5351682,43.8152905 L71.5351682,44.6568807 C71.5351682,44.7357798 71.5614679,44.7883792 71.6140673,44.8146789 C71.6666667,44.8672783 71.7192661,44.893578 71.7981651,44.9198777 L72.8238532,45.0776758 L72.8238532,48.759633 C72.8238532,49.2067278 72.8764526,49.5749235 72.9553517,49.8642202 C73.0605505,50.1535168 73.1920489,50.3639144 73.3498471,50.5217125 C73.533945,50.6795107 73.7443425,50.7847095 74.0073394,50.8373089 C74.2703364,50.8899083 74.5859327,50.916208 74.9278287,50.916208 C75.1119266,50.916208 75.2697248,50.916208 75.4275229,50.8899083 C75.5590214,50.8636086 75.7431193,50.8373089 75.9272171,50.8110092 C76.0587156,50.8110092 76.1376147,50.7321101 76.1376147,50.6006116 L76.1376147,50.6006116 Z M70.6672783,50.4691131 L70.6672783,49.3382263 C70.6672783,49.2593272 70.6409786,49.2067278 70.5883792,49.1804281 C70.5357798,49.1541284 70.4831804,49.1278287 70.430581,49.1278287 L70.4042813,49.1278287 C70.1675841,49.1541284 69.9308869,49.1804281 69.7204893,49.1804281 C69.5100917,49.2067278 69.2207951,49.2067278 68.8525994,49.2067278 C68.7211009,49.2067278 68.5633028,49.1804281 68.458104,49.1278287 C68.3266055,49.0752294 68.2214067,48.9963303 68.116208,48.8911315 C68.0110092,48.7859327 67.9584098,48.6281346 67.9058104,48.4440367 C67.853211,48.2599388 67.8269113,48.0232416 67.8269113,47.733945 L67.8269113,46.6819572 C67.8269113,46.3926606 67.853211,46.1559633 67.9058104,45.9718654 C67.9584098,45.7877676 68.0373089,45.6299694 68.116208,45.5247706 C68.2214067,45.4195719 68.3266055,45.3406728 68.458104,45.2880734 C68.5896024,45.235474 68.7211009,45.2091743 68.8525994,45.2091743 C69.2207951,45.2091743 69.5100917,45.2091743 69.7204893,45.235474 C69.9308869,45.2617737 70.1675841,45.2617737 70.4042813,45.2880734 L70.430581,45.2880734 C70.5094801,45.2880734 70.5620795,45.2617737 70.5883792,45.235474 C70.6409786,45.2091743 70.6672783,45.1565749 70.6672783,45.0776758 L70.6672783,43.946789 C70.6672783,43.8415902 70.6409786,43.7889908 70.6146789,43.7626911 C70.5620795,43.7363914 70.5094801,43.683792 70.4042813,43.6574924 C70.2201835,43.604893 70.0097859,43.5785933 69.7204893,43.5259939 C69.4311927,43.4733945 69.1155963,43.4733945 68.7211009,43.4733945 C67.8269113,43.4733945 67.1168196,43.7363914 66.564526,44.288685 C66.0385321,44.8409786 65.7492355,45.6299694 65.7492355,46.6819572 L65.7492355,47.733945 C65.7492355,48.759633 66.0122324,49.5749235 66.564526,50.1272171 C67.0905199,50.6795107 67.8269113,50.9425076 68.7211009,50.9425076 C69.0892966,50.9425076 69.4311927,50.916208 69.7204893,50.8899083 C70.0097859,50.8373089 70.2464832,50.8110092 70.4042813,50.7584098 C70.5094801,50.7321101 70.5620795,50.7058104 70.6146789,50.653211 C70.6672783,50.6269113 70.6672783,50.5480122 70.6672783,50.4691131 L70.6672783,50.4691131 Z M62.435474,49.1278287 C62.2776758,49.2067278 62.1198777,49.2593272 61.9357798,49.3119266 C61.751682,49.364526 61.5675841,49.3908257 61.3834862,49.3908257 C61.1204893,49.3908257 60.9100917,49.364526 60.7785933,49.2856269 C60.6470948,49.2067278 60.5944954,49.0489297 60.5944954,48.759633 L60.5944954,48.6544343 C60.5944954,48.4966361 60.6207951,48.3651376 60.6470948,48.2599388 C60.6733945,48.1547401 60.7522936,48.0495413 60.8311927,47.9706422 C60.9100917,47.8917431 61.0415902,47.8391437 61.1730887,47.7865443 C61.3045872,47.7602446 61.488685,47.733945 61.7253823,47.733945 L62.435474,47.733945 L62.435474,49.1278287 L62.435474,49.1278287 Z M64.4342508,46.0507645 C64.4342508,45.57737 64.3553517,45.1828746 64.2238532,44.8672783 C64.0923547,44.551682 63.8819572,44.288685 63.6452599,44.0782875 C63.382263,43.8678899 63.0929664,43.7100917 62.7247706,43.6311927 C62.3565749,43.5259939 61.9357798,43.4733945 61.488685,43.4733945 C61.0678899,43.4733945 60.6470948,43.4996942 60.2525994,43.5522936 C59.858104,43.604893 59.5425076,43.6574924 59.3058104,43.7363914 C59.1480122,43.7889908 59.0691131,43.8678899 59.0691131,44.0256881 L59.0691131,45.0513761 C59.0691131,45.1302752 59.0954128,45.1828746 59.1217125,45.235474 C59.1743119,45.2617737 59.2269113,45.2880734 59.2795107,45.2880734 L59.3321101,45.2880734 C59.4373089,45.2880734 59.5688073,45.2617737 59.7003058,45.2617737 C59.858104,45.2617737 60.0159021,45.235474 60.2,45.235474 C60.3840979,45.235474 60.5944954,45.2091743 60.804893,45.2091743 C61.0152905,45.2091743 61.2256881,45.2091743 61.4097859,45.2091743 C61.6990826,45.2091743 61.9357798,45.2617737 62.093578,45.3669725 C62.2513761,45.4721713 62.3565749,45.7088685 62.3565749,46.0770642 L62.3565749,46.524159 L61.6727829,46.524159 C60.5944954,46.524159 59.7792049,46.6819572 59.3058104,47.0238532 C58.8061162,47.3657492 58.569419,47.9180428 58.569419,48.6544343 L58.569419,48.759633 C58.569419,49.1804281 58.6220183,49.5223242 58.7535168,49.7853211 C58.8850153,50.0746177 59.0428135,50.2850153 59.253211,50.4691131 C59.4636086,50.6269113 59.6740061,50.7584098 59.9370031,50.8373089 C60.2,50.916208 60.4629969,50.9425076 60.7522936,50.9425076 C61.1204893,50.9425076 61.4623853,50.8899083 61.7253823,50.7847095 C61.9883792,50.6795107 62.2513761,50.5480122 62.5143731,50.3639144 L62.5143731,50.5743119 C62.5143731,50.653211 62.5406728,50.7058104 62.5932722,50.7584098 C62.6458716,50.8110092 62.6984709,50.8373089 62.77737,50.8373089 L64.1975535,50.8373089 C64.2764526,50.8373089 64.329052,50.8110092 64.3816514,50.7584098 C64.4342508,50.7058104 64.4605505,50.653211 64.4605505,50.5743119 L64.4605505,46.0507645 L64.4342508,46.0507645 Z M57.6752294,50.6006116 L57.6752294,49.6275229 C57.6752294,49.4960245 57.5963303,49.4171254 57.4122324,49.4171254 L56.8073394,49.4171254 C56.6232416,49.4171254 56.4917431,49.3908257 56.4654434,49.3119266 C56.412844,49.2330275 56.412844,49.0752294 56.412844,48.8122324 L56.412844,45.1302752 L57.4385321,45.1302752 C57.5174312,45.1302752 57.5700306,45.1039755 57.62263,45.0513761 C57.6752294,44.9987768 57.7015291,44.9461774 57.7015291,44.8672783 L57.7015291,43.8415902 C57.7015291,43.7626911 57.6752294,43.7100917 57.62263,43.6574924 C57.5700306,43.604893 57.5174312,43.5785933 57.4385321,43.5785933 L56.412844,43.5785933 L56.412844,42.2373089 C56.412844,42.1584098 56.3865443,42.1058104 56.3602446,42.0795107 C56.3076453,42.053211 56.2550459,42.0269113 56.2024465,42.0269113 L56.1761468,42.0269113 L54.6507645,42.2899083 C54.5718654,42.316208 54.5192661,42.3425076 54.4666667,42.3688073 C54.4140673,42.4214067 54.3877676,42.4740061 54.3877676,42.5266055 L54.3877676,43.5522936 L53.3620795,43.5522936 C53.2831804,43.5522936 53.230581,43.5785933 53.1779817,43.6311927 C53.1253823,43.683792 53.0990826,43.7363914 53.0990826,43.8152905 L53.0990826,44.6568807 C53.0990826,44.7357798 53.1253823,44.7883792 53.1779817,44.8146789 C53.230581,44.8672783 53.2831804,44.893578 53.3620795,44.9198777 L54.3877676,45.0776758 L54.3877676,48.759633 C54.3877676,49.2067278 54.440367,49.5749235 54.5192661,49.8642202 C54.6244648,50.1535168 54.7559633,50.3639144 54.9137615,50.5217125 C55.0715596,50.6795107 55.3082569,50.7847095 55.5712538,50.8373089 C55.8342508,50.8899083 56.1498471,50.916208 56.4917431,50.916208 C56.675841,50.916208 56.8336391,50.916208 56.9914373,50.8899083 C57.1229358,50.8636086 57.3070336,50.8373089 57.4911315,50.8110092 C57.5963303,50.8110092 57.6752294,50.7321101 57.6752294,50.6006116 L57.6752294,50.6006116 Z M52.1522936,50.5743119 L52.1522936,46.3663609 C52.1522936,45.9718654 52.1259939,45.6036697 52.0470948,45.235474 C51.9944954,44.893578 51.8629969,44.5779817 51.7051988,44.3149847 C51.5474006,44.0519878 51.3107034,43.8415902 51.0214067,43.7100917 C50.7321101,43.5522936 50.3639144,43.4733945 49.8905199,43.4733945 C49.4960245,43.4733945 49.1278287,43.5259939 48.8122324,43.6311927 C48.4966361,43.7363914 48.1810398,43.8941896 47.812844,44.1571865 L47.812844,43.8415902 C47.812844,43.7626911 47.7865443,43.7100917 47.733945,43.6574924 C47.6813456,43.604893 47.6287462,43.5785933 47.5498471,43.5785933 L46.1296636,43.5785933 C46.0507645,43.5785933 45.9981651,43.604893 45.9455657,43.6574924 C45.8929664,43.7100917 45.8666667,43.7626911 45.8666667,43.8415902 L45.8666667,50.5743119 C45.8666667,50.653211 45.8929664,50.7058104 45.9455657,50.7584098 C45.9981651,50.8110092 46.0507645,50.8373089 46.1296636,50.8373089 L47.6550459,50.8373089 C47.733945,50.8373089 47.7865443,50.8110092 47.8391437,50.7584098 C47.8917431,50.7058104 47.9180428,50.653211 47.9180428,50.5743119 L47.9180428,45.6036697 C48.1284404,45.4984709 48.3388379,45.3932722 48.5492355,45.3143731 C48.7333333,45.235474 48.9437309,45.2091743 49.1278287,45.2091743 C49.3119266,45.2091743 49.4697248,45.235474 49.6012232,45.2617737 C49.7327217,45.2880734 49.8116208,45.3669725 49.8905199,45.4458716 C49.969419,45.5510703 49.9957187,45.6562691 50.0220183,45.8140673 C50.048318,45.9718654 50.048318,46.1559633 50.048318,46.3663609 L50.048318,50.5743119 C50.048318,50.653211 50.0746177,50.7058104 50.1272171,50.7584098 C50.1798165,50.8110092 50.2324159,50.8373089 50.311315,50.8373089 L51.8366972,50.8373089 C51.9155963,50.8373089 51.9681957,50.8110092 52.0207951,50.7584098 C52.1259939,50.7058104 52.1522936,50.6269113 52.1522936,50.5743119 L52.1522936,50.5743119 Z M42.5792049,47.6550459 C42.5792049,48.6807339 42.2110092,49.2067278 41.448318,49.2067278 C41.0801223,49.2067278 40.7908257,49.0752294 40.6067278,48.8122324 C40.42263,48.5492355 40.3174312,48.1547401 40.3174312,47.6550459 L40.3174312,46.7608563 C40.3174312,46.2348624 40.42263,45.8666667 40.6067278,45.6036697 C40.7908257,45.3406728 41.0801223,45.2091743 41.448318,45.2091743 C42.1847095,45.2091743 42.5792049,45.7351682 42.5792049,46.7608563 L42.5792049,47.6550459 Z M44.630581,46.7608563 C44.630581,46.2611621 44.551682,45.7877676 44.4201835,45.3932722 C44.288685,44.9987768 44.0782875,44.6568807 43.8152905,44.3675841 C43.5522936,44.0782875 43.2103976,43.8678899 42.8159021,43.7100917 C42.4214067,43.5522936 41.9743119,43.4733945 41.448318,43.4733945 C40.9223242,43.4733945 40.4752294,43.5522936 40.0807339,43.7100917 C39.6862385,43.8678899 39.3443425,44.0782875 39.0813456,44.3675841 C38.8183486,44.6568807 38.6079511,44.9987768 38.4764526,45.3932722 C38.3449541,45.7877676 38.266055,46.2611621 38.266055,46.7608563 L38.266055,47.6550459 C38.266055,48.1547401 38.3449541,48.6281346 38.4764526,49.02263 C38.6079511,49.4171254 38.8183486,49.7590214 39.0813456,50.048318 C39.3443425,50.3376147 39.6862385,50.5480122 40.0807339,50.7058104 C40.4752294,50.8636086 40.9223242,50.9425076 41.448318,50.9425076 C41.9743119,50.9425076 42.4214067,50.8636086 42.8159021,50.7058104 C43.2103976,50.5480122 43.5522936,50.3376147 43.8152905,50.048318 C44.0782875,49.7590214 44.288685,49.4171254 44.4201835,49.02263 C44.551682,48.6281346 44.630581,48.1547401 44.630581,47.6550459 L44.630581,46.7608563 Z M37.582263,50.4691131 L37.582263,49.3382263 C37.582263,49.2593272 37.5559633,49.2067278 37.5033639,49.1804281 C37.4507645,49.1541284 37.3981651,49.1278287 37.3192661,49.1278287 L37.2929664,49.1278287 C37.0562691,49.1541284 36.8195719,49.1804281 36.6091743,49.1804281 C36.3987768,49.1804281 36.1094801,49.2067278 35.7412844,49.2067278 C35.6097859,49.2067278 35.4519878,49.1804281 35.346789,49.1278287 C35.2152905,49.0752294 35.1100917,48.9963303 35.004893,48.8911315 C34.8996942,48.7859327 34.8470948,48.6281346 34.7944954,48.4440367 C34.741896,48.2599388 34.7155963,48.0232416 34.7155963,47.733945 L34.7155963,46.6819572 C34.7155963,46.3926606 34.741896,46.1559633 34.7944954,45.9718654 C34.8470948,45.7877676 34.9259939,45.6299694 35.004893,45.5247706 C35.1100917,45.4195719 35.2152905,45.3406728 35.346789,45.2880734 C35.4782875,45.235474 35.6097859,45.2091743 35.7412844,45.2091743 C36.1094801,45.2091743 36.3987768,45.2091743 36.6091743,45.235474 C36.8195719,45.2617737 37.0562691,45.2617737 37.2929664,45.2880734 L37.3192661,45.2880734 C37.3981651,45.2880734 37.4507645,45.2617737 37.5033639,45.235474 C37.5559633,45.2091743 37.582263,45.1565749 37.582263,45.0776758 L37.582263,43.946789 C37.582263,43.8415902 37.5559633,43.7889908 37.5296636,43.7626911 C37.4770642,43.7363914 37.4244648,43.683792 37.3192661,43.6574924 C37.1351682,43.604893 36.9247706,43.5785933 36.635474,43.5259939 C36.3461774,43.4733945 36.030581,43.4733945 35.6360856,43.4733945 C34.741896,43.4733945 34.0318043,43.7363914 33.4795107,44.288685 C32.9535168,44.8409786 32.6642202,45.6299694 32.6642202,46.6819572 L32.6642202,47.733945 C32.6642202,48.759633 32.9272171,49.5749235 33.4795107,50.1272171 C34.0055046,50.6795107 34.741896,50.9425076 35.6360856,50.9425076 C36.0042813,50.9425076 36.3461774,50.916208 36.635474,50.8899083 C36.9247706,50.8373089 37.1351682,50.8110092 37.3192661,50.7584098 C37.4244648,50.7321101 37.4770642,50.7058104 37.5296636,50.653211 C37.582263,50.6269113 37.582263,50.5480122 37.582263,50.4691131 L37.582263,50.4691131 Z M31.3755352,50.5743119 L31.3755352,46.3663609 C31.3755352,45.9718654 31.3492355,45.6036697 31.2703364,45.235474 C31.217737,44.893578 31.0862385,44.5779817 30.9284404,44.3149847 C30.7706422,44.0519878 30.533945,43.8415902 30.2446483,43.7100917 C29.9553517,43.5522936 29.587156,43.4733945 29.1137615,43.4733945 C28.7192661,43.4733945 28.3510703,43.5259939 28.035474,43.6311927 C27.7198777,43.7363914 27.4042813,43.8941896 27.0360856,44.1571865 L27.0360856,43.8415902 C27.0360856,43.7626911 27.0097859,43.7100917 26.9571865,43.6574924 C26.9045872,43.604893 26.8519878,43.5785933 26.7730887,43.5785933 L25.3529052,43.5785933 C25.2740061,43.5785933 25.2214067,43.604893 25.1688073,43.6574924 C25.116208,43.7100917 25.0899083,43.7626911 25.0899083,43.8415902 L25.0899083,50.5743119 C25.0899083,50.653211 25.116208,50.7058104 25.1688073,50.7584098 C25.2214067,50.8110092 25.2740061,50.8373089 25.3529052,50.8373089 L26.8782875,50.8373089 C26.9571865,50.8373089 27.0097859,50.8110092 27.0623853,50.7584098 C27.1149847,50.7058104 27.1412844,50.653211 27.1412844,50.5743119 L27.1412844,45.6036697 C27.351682,45.4984709 27.5620795,45.3932722 27.7724771,45.3143731 C27.9565749,45.235474 28.1669725,45.2091743 28.3510703,45.2091743 C28.5351682,45.2091743 28.6929664,45.235474 28.8244648,45.2617737 C28.9559633,45.2880734 29.0348624,45.3669725 29.1137615,45.4458716 C29.1926606,45.5510703 29.2189602,45.6562691 29.2452599,45.8140673 C29.2715596,45.9718654 29.2715596,46.1559633 29.2715596,46.3663609 L29.2715596,50.5743119 C29.2715596,50.653211 29.2978593,50.7058104 29.3504587,50.7584098 C29.4030581,50.8110092 29.4556575,50.8373089 29.5345566,50.8373089 L31.0599388,50.8373089 C31.1388379,50.8373089 31.1914373,50.8110092 31.2440367,50.7584098 C31.3229358,50.7058104 31.3755352,50.6269113 31.3755352,50.5743119 L31.3755352,50.5743119 Z M21.5920489,49.1278287 C21.4342508,49.2067278 21.2764526,49.2593272 21.0923547,49.3119266 C20.9082569,49.364526 20.724159,49.3908257 20.5400612,49.3908257 C20.2770642,49.3908257 20.0666667,49.364526 19.9351682,49.2856269 C19.8036697,49.2067278 19.7510703,49.0489297 19.7510703,48.759633 L19.7510703,48.6544343 C19.7510703,48.4966361 19.77737,48.3651376 19.8036697,48.2599388 C19.8299694,48.1547401 19.9088685,48.0495413 19.9877676,47.9706422 C20.0666667,47.8917431 20.1981651,47.8391437 20.3296636,47.7865443 C20.4611621,47.7602446 20.6452599,47.733945 20.8819572,47.733945 L21.5920489,47.733945 L21.5920489,49.1278287 Z M23.6171254,46.0507645 C23.6171254,45.57737 23.5382263,45.1828746 23.4067278,44.8672783 C23.2752294,44.551682 23.0648318,44.288685 22.8281346,44.0782875 C22.5651376,43.8678899 22.275841,43.7100917 21.9076453,43.6311927 C21.5394495,43.5259939 21.1186544,43.4733945 20.6715596,43.4733945 C20.2507645,43.4733945 19.8299694,43.4996942 19.435474,43.5522936 C19.0409786,43.604893 18.7253823,43.6574924 18.488685,43.7363914 C18.3308869,43.7889908 18.2519878,43.8678899 18.2519878,44.0256881 L18.2519878,45.0513761 C18.2519878,45.1302752 18.2782875,45.1828746 18.3045872,45.235474 C18.3571865,45.2617737 18.4097859,45.2880734 18.4623853,45.2880734 L18.5149847,45.2880734 C18.6201835,45.2880734 18.751682,45.2617737 18.8831804,45.2617737 C19.0409786,45.2617737 19.1987768,45.235474 19.4091743,45.235474 C19.5932722,45.235474 19.8036697,45.2091743 20.0140673,45.2091743 C20.2244648,45.2091743 20.4348624,45.2091743 20.6189602,45.2091743 C20.9082569,45.2091743 21.1449541,45.2617737 21.3027523,45.3669725 C21.4605505,45.4721713 21.5657492,45.7088685 21.5657492,46.0770642 L21.5657492,46.524159 L20.8819572,46.524159 C19.8036697,46.524159 18.9883792,46.6819572 18.5149847,47.0238532 C18.0415902,47.3657492 17.7785933,47.9180428 17.7785933,48.6544343 L17.7785933,48.759633 C17.7785933,49.1804281 17.8311927,49.5223242 17.9626911,49.7853211 C18.0941896,50.0746177 18.2519878,50.2850153 18.4623853,50.4691131 C18.6727829,50.6269113 18.8831804,50.7584098 19.1461774,50.8373089 C19.4091743,50.916208 19.6721713,50.9425076 19.9614679,50.9425076 C20.3296636,50.9425076 20.6715596,50.8899083 20.9345566,50.7847095 C21.1975535,50.6795107 21.4605505,50.5480122 21.7235474,50.3639144 L21.7235474,50.5743119 C21.7235474,50.653211 21.7498471,50.7058104 21.8024465,50.7584098 C21.8550459,50.8110092 21.9076453,50.8373089 21.9865443,50.8373089 L23.4067278,50.8373089 C23.4856269,50.8373089 23.5382263,50.8110092 23.5908257,50.7584098 C23.6434251,50.7058104 23.6697248,50.653211 23.6697248,50.5743119 L23.6697248,46.0507645 L23.6171254,46.0507645 Z M14.5700306,48.0495413 C14.5700306,48.3914373 14.4385321,48.6807339 14.2018349,48.8648318 C13.9651376,49.0489297 13.4917431,49.1541284 12.8605505,49.1541284 L12.6501529,49.1541284 C12.5449541,49.1541284 12.4397554,49.1541284 12.3345566,49.1541284 C12.2293578,49.1541284 12.124159,49.1541284 12.0189602,49.1541284 L11.8085627,49.1541284 L11.8085627,46.787156 L13.2287462,46.787156 C13.7284404,46.787156 14.0966361,46.8923547 14.2807339,47.129052 C14.4648318,47.3657492 14.5700306,47.6287462 14.5700306,47.9180428 L14.5700306,48.0495413 Z M14.5174312,44.288685 C14.5174312,44.4201835 14.4911315,44.551682 14.4648318,44.6831804 C14.4122324,44.8146789 14.359633,44.9198777 14.2544343,44.9987768 C14.1492355,45.0776758 14.017737,45.1565749 13.8599388,45.2091743 C13.7021407,45.2617737 13.4917431,45.2880734 13.2287462,45.2880734 L11.8085627,45.2880734 L11.8085627,43.1051988 C11.8611621,43.1051988 11.9137615,43.1051988 11.9926606,43.1051988 C12.0715596,43.1051988 12.1767584,43.1051988 12.2819572,43.1051988 L12.5712538,43.1051988 L12.7816514,43.1051988 C13.4391437,43.1051988 13.8862385,43.1840979 14.1492355,43.341896 C14.4122324,43.4996942 14.5437309,43.7626911 14.5437309,44.1045872 L14.5437309,44.288685 L14.5174312,44.288685 Z M16.6740061,47.9180428 C16.6740061,47.470948 16.5688073,47.1027523 16.3584098,46.787156 C16.1480122,46.4715596 15.8850153,46.2085627 15.5431193,46.0507645 C15.8850153,45.8929664 16.1480122,45.6299694 16.3321101,45.3143731 C16.516208,44.9724771 16.6214067,44.6042813 16.6214067,44.2097859 L16.6214067,43.9730887 C16.6214067,43.4733945 16.516208,43.0525994 16.3321101,42.7107034 C16.1480122,42.3688073 15.8587156,42.1058104 15.5168196,41.8954128 C15.1749235,41.6850153 14.7541284,41.5535168 14.2544343,41.448318 C13.7547401,41.369419 13.2287462,41.3168196 12.6238532,41.3168196 C12.4134557,41.3168196 12.2030581,41.3168196 11.9926606,41.3168196 C11.782263,41.3168196 11.5718654,41.3431193 11.3614679,41.3431193 C11.1510703,41.3431193 10.9669725,41.369419 10.7828746,41.3957187 C10.5987768,41.4220183 10.4672783,41.4220183 10.3620795,41.448318 C10.1253823,41.5009174 9.9412844,41.5535168 9.83608563,41.6850153 C9.73088685,41.7902141 9.67828746,42.0006116 9.67828746,42.2899083 L9.67828746,49.969419 C9.67828746,50.2587156 9.73088685,50.4428135 9.83608563,50.5743119 C9.9412844,50.6795107 10.1253823,50.7584098 10.3620795,50.8110092 C10.493578,50.8373089 10.6513761,50.8636086 10.8091743,50.8636086 C10.9932722,50.8899083 11.17737,50.8899083 11.3877676,50.916208 C11.5981651,50.916208 11.8085627,50.9425076 12.0189602,50.9425076 C12.2293578,50.9425076 12.466055,50.9425076 12.6764526,50.9425076 C13.2287462,50.9425076 13.7547401,50.8899083 14.2281346,50.8110092 C14.7015291,50.7321101 15.1486239,50.5743119 15.4905199,50.3639144 C15.8587156,50.1535168 16.1217125,49.8642202 16.3584098,49.4960245 C16.5688073,49.1278287 16.6740061,48.6544343 16.6740061,48.1021407 L16.6740061,47.9180428 L16.6740061,47.9180428 Z" id="Shape" fill="#004E91" fill-rule="nonzero"></path>
                    <rect id="Rectangle" x="0" y="0" width="85.7370031" height="60.6207951"></rect>
                </g>
            </g>
        </g>
    </g>
</svg>