<?xml version="1.0" encoding="UTF-8" standalone="no"?>
<svg width="120px" height="80px" viewBox="0 0 120 80" version="1.1" xmlns="http://www.w3.org/2000/svg" xmlns:xlink="http://www.w3.org/1999/xlink" xmlns:sketch="http://www.bohemiancoding.com/sketch/ns">
    <!-- Generator: Sketch 3.3.1 (12002) - http://www.bohemiancoding.com/sketch -->
    <title>card_billpay</title>
    <desc>Created with Sketch.</desc>
    <defs>
        <linearGradient x1="50%" y1="0%" x2="50%" y2="100%" id="linearGradient-1">
            <stop stop-color="#7A7879" offset="0%"></stop>
            <stop stop-color="#4E4C4D" offset="100%"></stop>
        </linearGradient>
        <linearGradient x1="50%" y1="0%" x2="50%" y2="100%" id="linearGradient-2">
            <stop stop-color="#4A8AD1" offset="0%"></stop>
            <stop stop-color="#3C62AD" offset="100%"></stop>
        </linearGradient>
        <linearGradient x1="12.0297971%" y1="6.91983122%" x2="93.1794167%" y2="89.2827004%" id="linearGradient-3">
            <stop stop-color="#7B797A" offset="0%"></stop>
            <stop stop-color="#4E4C4D" offset="100%"></stop>
        </linearGradient>
        <linearGradient x1="10.7663676%" y1="7.62896478%" x2="95.2156143%" y2="90.8893328%" id="linearGradient-4">
            <stop stop-color="#4B8BD2" offset="0%"></stop>
            <stop stop-color="#3765BA" offset="100%"></stop>
        </linearGradient>
    </defs>
    <g id="assets-various" stroke="none" stroke-width="1" fill="none" fill-rule="evenodd" sketch:type="MSPage">
        <g id="Artboard-2" sketch:type="MSArtboardGroup" transform="translate(-36.000000, -2123.000000)">
            <g id="card_billpay" sketch:type="MSLayerGroup" transform="translate(36.000000, 2123.000000)">
                <rect id="Rectangle-11" fill="#FFFFFF" sketch:type="MSShapeGroup" x="0" y="0" width="120" height="80" rx="4"></rect>
                <g id="Group-Copy-6" transform="translate(11.000000, 31.000000)" sketch:type="MSShapeGroup">
                    <path d="M22.8778074,1.25618576 L22.8778074,15.9754801 L29.3744449,15.9754801 C29.3744449,15.9754801 32.3182337,15.9370143 33.5871082,14.7188947 C34.8559827,13.5007752 34.6783403,11.8639767 34.6783403,11.8639767 C34.6783403,11.8639767 34.6529628,10.3667047 33.8408831,9.50387007 C33.0288035,8.6410354 31.556909,8.41263799 31.556909,8.41263799 L31.5695978,8.3174724 C31.5695978,8.3174724 33.7139957,7.89874381 34.0629362,6.28727319 C34.2849892,5.62745844 34.2532674,4.9676437 34.2532674,4.9676437 C34.2532674,4.9676437 34.3357442,3.50843802 33.4031214,2.54409339 C32.4704987,1.57974876 31.1952798,1.44017257 30.9161274,1.38307321 C30.636975,1.32597386 29.7614516,1.26887451 29.4315442,1.26253014 C29.1016368,1.25618576 22.8778074,1.25618576 22.8778074,1.25618576 Z M26.7478746,4.1365309 L26.7351859,6.9788098 L28.8922726,6.99149854 C28.8922726,6.99149854 30.0977033,7.01053166 30.3324451,6.19845197 C30.5671869,5.38637229 30.2943789,4.7138688 30.2943789,4.7138688 C30.2943789,4.7138688 30.1230808,4.35223956 29.6726304,4.23804086 C29.2221799,4.12384215 28.8351732,4.14921964 28.8351732,4.14921964 L26.7478746,4.1365309 Z M26.736652,9.89722116 L26.7224971,13.0678988 L29.027305,13.0820536 C29.027305,13.0820536 30.3720121,13.1032858 30.6338761,12.1973779 C30.7184808,11.9046911 30.7765512,11.8385992 30.7778093,11.3754377 C30.7790674,10.9122763 30.5914116,10.5412651 30.5914116,10.5412651 C30.5914116,10.5412651 30.4003217,10.1378529 29.8978259,10.0104597 C29.3953301,9.88306635 28.9636084,9.91137598 28.9636084,9.91137598 L26.736652,9.89722116 Z" id="Path-905" fill="url(#linearGradient-1)"></path>
                    <rect id="Rectangle-59" fill="url(#linearGradient-1)" x="36.1629235" y="1.25618576" width="4.11115341" height="14.7189443"></rect>
                    <path d="M46.3266083,12.8283213 L46.3266083,1.25618576 L42.2154549,1.25618576 L42.2154549,14.4017257 L42.2154549,15.9751301 L51.7066362,15.9751301 L51.7066362,12.8283213 L46.3266083,12.8283213 Z" id="Rectangle-59-Copy" fill="url(#linearGradient-1)"></path>
                    <path d="M56.5283593,12.8283213 L56.5283593,1.25618576 L52.4172059,1.25618576 L52.4172059,14.4017257 L52.4172059,15.9751301 L58.685446,15.9751301 L59.2945058,12.8283213 L56.5283593,12.8283213 Z" id="Rectangle-59-Copy-3" fill="url(#linearGradient-1)"></path>
                    <path d="M62.669712,1.25618576 L59.878188,15.8989976 L63.811699,15.9243751 L64.7760436,10.9757645 C64.7760436,10.9757645 67.1615277,10.9757645 67.9989849,10.950387 C68.8364421,10.9250095 70.6636214,10.4428372 71.4503236,9.73226748 C72.2370258,9.02169775 73.2267479,7.75282325 73.3536353,5.82413399 C73.3790128,5.31658419 73.6581652,3.4894049 72.2370258,2.34741784 C70.8158863,1.20543078 68.9633295,1.28156325 68.9633295,1.28156325 L62.669712,1.25618576 Z M66.0576069,4.2507296 L65.3470372,7.95584317 L67.4533689,7.96853191 C67.4533689,7.96853191 68.6587996,8.01928689 69.1663494,7.13107474 C69.6738993,6.24286258 69.4708793,5.35465043 69.4708793,5.35465043 C69.4708793,5.35465043 69.3820581,4.70752443 68.8364421,4.42837203 C68.290826,4.14921964 66.9204416,4.2507296 66.9204416,4.2507296 L66.0576069,4.2507296 Z" id="Path-906" fill="url(#linearGradient-2)"></path>
                    <path d="M77.7439411,1.25618576 L69.4962568,15.9243751 L73.7342977,15.9243751 L75.3330796,12.9044537 L80.68773,12.9044537 L81.0683923,15.9243751 L85.1034133,15.9243751 L82.8194392,1.28156325 L77.7439411,1.25618576 Z M79.6980079,4.2507296 L79.5964979,4.2507296 C79.5964979,4.2507296 78.4291334,7.00418729 78.149981,7.4863596 C77.8708286,7.96853191 76.8937952,10.0494861 76.8937952,10.0494861 L80.3197564,10.0621749 L79.8375841,6.24286258 C79.8375841,6.24286258 79.7233854,5.1516305 79.7233854,4.87247811 L79.6980079,4.2507296 Z" id="Path-907" fill="url(#linearGradient-2)"></path>
                    <path d="M1.941378,17.0156072 C3.01357146,17.0156072 3.882756,16.1464226 3.882756,15.0742292 C3.882756,14.0020357 3.01357146,13.1328512 1.941378,13.1328512 C0.869184536,13.1328512 0,14.0020357 0,15.0742292 C0,16.1464226 0.869184536,17.0156072 1.941378,17.0156072 Z M1.92868925,12.0416191 C2.96584371,12.0416191 3.80662352,11.2576487 3.80662352,10.2905723 C3.80662352,9.32349581 2.96584371,8.53952544 1.92868925,8.53952544 C0.891534793,8.53952544 0.0507549803,9.32349581 0.0507549803,10.2905723 C0.0507549803,11.2576487 0.891534793,12.0416191 1.92868925,12.0416191 Z M1.93503363,7.61324705 C2.89860618,7.61324705 3.67973607,6.98834314 3.67973607,6.21748509 C3.67973607,5.44662705 2.89860618,4.82172313 1.93503363,4.82172313 C0.97146107,4.82172313 0.190331176,5.44662705 0.190331176,6.21748509 C0.190331176,6.98834314 0.97146107,7.61324705 1.93503363,7.61324705 Z M1.92234488,4.12384215 C2.78780823,4.12384215 3.4894049,3.64380233 3.4894049,3.05164319 C3.4894049,2.45948406 2.78780823,1.97944423 1.92234488,1.97944423 C1.05688153,1.97944423 0.355284862,2.45948406 0.355284862,3.05164319 C0.355284862,3.64380233 1.05688153,4.12384215 1.92234488,4.12384215 Z M5.44783511,11.5550833 C6.16387065,12.2711188 7.25650403,12.3394084 7.88830009,11.7076124 C8.52009614,11.0758163 8.45180656,9.98318292 7.73577103,9.26714738 C7.0197355,8.55111185 5.92710211,8.48282227 5.29530605,9.11461832 C4.66351,9.74641438 4.73179958,10.8390478 5.44783511,11.5550833 Z M5.57670346,7.5616377 C6.38994051,8.03116033 7.34744899,7.89520017 7.71535851,7.25796219 C8.08326803,6.6207242 7.72225874,5.72351746 6.9090217,5.25399483 C6.09578465,4.7844722 5.13827617,4.92043236 4.77036665,5.55767035 C4.40245713,6.19490833 4.76346642,7.09211508 5.57670346,7.5616377 Z M9.42859196,11.4008375 C9.89811459,12.2140745 10.7953213,12.5750838 11.4325593,12.2071743 C12.0697973,11.8392647 12.2057575,10.8817563 11.7362348,10.0685192 C11.2667122,9.25528218 10.3695055,8.89427289 9.73226748,9.26218241 C9.0950295,9.63009193 8.95906934,10.5876004 9.42859196,11.4008375 Z M6.6996574,16.9648522 C7.67374166,16.9648522 8.46339297,16.1183914 8.46339297,15.0742292 C8.46339297,14.0300669 7.67374166,13.1836061 6.6996574,13.1836061 C5.72557315,13.1836061 4.93592184,14.0300669 4.93592184,15.0742292 C4.93592184,16.1183914 5.72557315,16.9648522 6.6996574,16.9648522 Z M10.7727446,16.7998985 C11.5436026,16.7998985 12.1685065,16.0187686 12.1685065,15.055196 C12.1685065,14.0916235 11.5436026,13.3104936 10.7727446,13.3104936 C10.0018865,13.3104936 9.37698262,14.0916235 9.37698262,15.055196 C9.37698262,16.0187686 10.0018865,16.7998985 10.7727446,16.7998985 Z M13.9385865,16.6476335 C14.5307456,16.6476335 15.0107854,15.9375155 15.0107854,15.0615404 C15.0107854,14.1855654 14.5307456,13.4754473 13.9385865,13.4754473 C13.3464273,13.4754473 12.8663875,14.1855654 12.8663875,15.0615404 C12.8663875,15.9375155 13.3464273,16.6476335 13.9385865,16.6476335 Z" id="Oval-7" fill="url(#linearGradient-3)"></path>
                    <path d="M5.28591078,1.59756932 C6.02711797,1.79617519 6.71841082,1.61970373 6.82995658,1.20340928 C6.94150234,0.787114834 6.4310609,0.28863964 5.68985371,0.0900337734 C4.94864653,-0.108572093 4.25735368,0.0678993682 4.14580792,0.484193815 C4.03426216,0.900488262 4.5447036,1.39896346 5.28591078,1.59756932 Z M8.45877557,2.03056527 C9.12327462,2.35466311 9.80888892,2.31614237 9.99013795,1.94452679 C10.171387,1.5729112 9.77963543,1.00892403 9.11513637,0.68482618 C8.45063732,0.360728334 7.76502302,0.399249074 7.58377399,0.770864662 C7.40252496,1.14248025 7.79427651,1.70646742 8.45877557,2.03056527 Z M11.294268,2.57820769 C11.8437291,3.00749375 12.4675298,3.12718994 12.6875659,2.84555661 C12.907602,2.56392329 12.6405502,1.98760926 12.0910891,1.5583232 C11.541628,1.12903715 10.9178273,1.00934096 10.6977913,1.29097428 C10.4777552,1.57260761 10.744807,2.14892164 11.294268,2.57820769 Z M15.0234062,8.51376066 C15.363824,9.18186822 15.9181839,9.58162619 16.2616036,9.40664507 C16.6050234,9.23166396 16.607457,8.54820555 16.2670392,7.88009799 C15.9266214,7.21199043 15.3722615,6.81223246 15.0288417,6.98721358 C14.685422,7.16219469 14.6829884,7.8456531 15.0234062,8.51376066 Z M13.725934,3.26429571 C14.1942063,3.73256808 14.7485571,3.93743684 14.964111,3.72188289 C15.179665,3.50632894 14.9747962,2.95197818 14.5065239,2.48370581 C14.0382515,2.01543344 13.4839007,1.81056468 13.2683468,2.02611863 C13.0527928,2.24167258 13.2576616,2.79602334 13.725934,3.26429571 Z M11.9328403,5.04470059 C12.4754417,5.58730191 13.1543205,5.78815363 13.4491586,5.49331547 C13.7439968,5.19847731 13.5431451,4.51959848 13.0005438,3.97699716 C12.4579424,3.43439585 11.7790636,3.23354412 11.4842254,3.52838228 C11.1893873,3.82322044 11.390239,4.50209927 11.9328403,5.04470059 Z M14.4333646,5.70962115 C14.8626507,6.25908225 15.4322498,6.53138031 15.7055998,6.31781589 C15.9789497,6.10425147 15.8525386,5.48569707 15.4232525,4.93623597 C14.9939665,4.38677488 14.4243674,4.11447682 14.1510174,4.32804124 C13.8776674,4.54160566 14.0040786,5.16016006 14.4333646,5.70962115 Z M12.4322876,8.02720807 C12.859348,8.71064752 13.5476065,9.05094329 13.9695561,8.78727993 C14.3915057,8.52361657 14.3873626,7.75583804 13.9603022,7.07239858 C13.5332418,6.38895913 12.8449833,6.04866336 12.4230337,6.31232672 C12.0010841,6.57599008 12.0052272,7.34376861 12.4322876,8.02720807 Z M15.3957831,11.711701 C15.5797275,12.4494618 16.0706001,12.9623257 16.4921777,12.8572146 C16.9137553,12.7521035 17.1063951,12.0688209 16.9224506,11.33106 C16.7385062,10.5932992 16.2476336,10.0804353 15.826056,10.1855464 C15.4044784,10.2906575 15.2118387,10.9739402 15.3957831,11.711701 Z M8.92396021,4.55350422 C9.59788887,5.00807484 10.3697648,5.04218726 10.6479934,4.62969644 C10.926222,4.21720563 10.6054436,3.51431345 9.93151499,3.05974283 C9.25758633,2.60517221 8.48571038,2.57105979 8.20748181,2.98355061 C7.92925324,3.39604142 8.25003155,4.0989336 8.92396021,4.55350422 Z" id="Oval-7-Copy-10" fill="url(#linearGradient-4)"></path>
                    <path d="M85.2937444,1.25618576 L88.8592818,10.4935922 L87.8695597,15.8989976 L91.8538257,15.9243751 L92.8689253,10.5697247 L100,1.25618576 L95.3305418,1.23080827 L92.2598655,5.72262403 C92.2598655,5.72262403 91.6508057,6.78847862 91.4477858,7.24527344 C91.3335871,7.25161781 91.314554,7.24527344 91.314554,7.24527344 C91.314554,7.24527344 91.2003553,6.10328638 90.9275473,5.26582921 C90.6547392,4.42837203 89.6206065,1.27521888 89.6206065,1.27521888 L85.2937444,1.25618576 Z" id="Path-908" fill="url(#linearGradient-2)"></path>
                </g>
            </g>
        </g>
    </g>
</svg>