<svg height="80" viewBox="0 0 120 80" width="120" xmlns="http://www.w3.org/2000/svg"><g fill="none" fill-rule="evenodd"><rect fill="#fff" height="80" rx="4" width="120"/><g transform="translate(10 20)"><g fill="#eb4d1f"><path d="m12.8238004 22.2028609c0-3.6059867-2.750096-6.0980662-6.10748562-6.0980662-3.45566219 0-6.10825336 2.5888742-6.10825336 6.0980662 0 3.3156027 2.48214971 6.0988345 6.0353167 6.0988345 4.16046068 0 6.15585408-3.1949934 6.18042228-6.0988345zm-12.8238004-11.4947549h.68099808v8.3489271h.04913628c.90057581-1.8636821 2.87140115-3.5337748 5.98618042-3.5821722 4.16046062 0 6.78848372 3.1949934 6.78848372 6.728 0 3.4607947-2.5550864 6.728-6.78848372 6.728-2.72552783 0-4.86679463-1.3313112-5.98618042-3.509192h-.04913628v3.1942251h-.68099808z"/><path d="m22.7742802 28.3013113c3.4794626 0 6.1074856-2.613457 6.1074856-6.0988345 0-3.4846093-2.628023-6.0980662-6.1074856-6.0980662-3.4794625 0-6.1074856 2.6134569-6.1074856 6.0980662 0 3.4853775 2.6280231 6.0988345 6.1074856 6.0988345m0-12.8260663c3.868714 0 6.7892515 2.9038411 6.7892515 6.7272318 0 3.8479735-2.9205375 6.728-6.7892515 6.728s-6.7892514-2.8800265-6.7892514-6.728c0-3.8233907 2.9205374-6.7272318 6.7892514-6.7272318"/><path d="m33.6495202 18.2582464h.0483685c.803071-1.8636822 3.1393474-2.8316292 5.1831094-2.7832318 1.6545105 0 3.0172745.4355761 4.0399232 1.2829139 1.2652591 1.0647417 1.8733205 2.7832318 1.8733205 5.0817218v6.7763974h-.680998v-6.7763974c0-2.2262781-.6088292-3.6536159-1.5815739-4.5255364-.9980806-.8949669-2.3362764-1.2099338-3.6506718-1.2099338-3.2360845.0483974-5.2314779 1.9120795-5.2314779 5.1308874v7.3809802h-.6809981v-12.8260662h.6809981z"/><path d="m61.0547409 24.6559921c-.8821497 2.5612185-3.2667946 4.2205562-6.271785 4.2681854-3.672169 0-6.653359-2.6557086-6.653359-6.5920265v.0238146c0-3.7235232 2.8145874-6.6158411 6.653359-6.6158411 2.5758157 0 5.2944337 1.4227285 6.2955854 4.3864901h-.7393474c-.978119-2.7740133-3.6245682-3.7941987-5.5324377-3.7703841-1.7880998.0238145-2.9566218.5216159-4.2679462 1.6839205-1.0257198.9249271-1.7412668 2.5842649-1.7412668 4.292 0 3.5568212 2.7662188 5.9759205 5.9854127 5.9759205 2.8621881-.0238145 4.9120921-1.7791788 5.5324376-3.6520794z"/><path d="m76.0049904 22.3318437c0-3.4385165-2.5996161-5.9759205-5.9854127-5.9759205-3.290595 0-5.9854126 2.4429139-5.9854126 5.9759205.0238004 2.845457 1.9792706 5.9759205 6.0568138 5.9759205 3.4817658 0 5.9140115-2.7271523 5.9140115-5.9759205zm.5965451 6.2839735h-.6679462v-3.1304636h-.0483686c-1.0963531 2.134861-3.1946257 3.4385166-5.865643 3.4385166-4.1489443 0-6.6533589-3.2011391-6.6533589-6.5920265 0-3.4623311 2.5758157-6.5920265 6.6533589-6.5920265 3.0525912 0 5.2460653 1.8729007 5.865643 3.5091921h.0483686v-3.2011391h.6679462z"/><path d="m81.4639539 18.3246199h.0476008c1.1454894-2.3714702 3.3151632-2.5135894 4.4122841-2.5850331v.6406887c-.7639156.0238146-1.6214971.0706755-2.7662188.877298-1.5024952 1.3512848-1.6936661 2.8216424-1.6936661 4.5524239v6.8055894h-.6671785v-12.5671789h.6671785z"/><path d="m99.2816123 22.3318437c0-3.4385165-2.5996161-5.9759205-5.9854127-5.9759205-3.290595 0-5.9854127 2.4429139-5.9854127 5.9759205.0238004 2.845457 1.9792707 5.9759205 6.0568139 5.9759205 3.4817658 0 5.9140115-2.7271523 5.9140115-5.9759205zm.5965451 6.2839735h-.6679463v-3.1304636h-.0483685c-1.0963532 2.134861-3.1946257 3.4385166-5.865643 3.4385166-4.1489443 0-6.6533589-3.2011391-6.6533589-6.5920265 0-3.4623311 2.5758157-6.5920265 6.6533589-6.5920265 3.0525912 0 5.2460653 1.8729007 5.865643 3.5091921h.0483685v-8.1806888h.6679463z"/></g><g transform="translate(7.412361)"><g fill="#272525"><path d="m13.4421497 7.55728477c-.1834933-.14980133-.3255278-1.31825166.5381958-1.94280795.8621881-.62455629 2.0161228-.47398675 2.8360844-.68217218.8207294-.20818543 2.7355087-1.05398676 3.543954-1.33515232 1.8472169-.64222517 3.8917466-.78050331 3.8917466-.78050331s-2.306334.28884768-3.699808.83197351c-1.3942419.54312582-3.106334 1.24911258-3.862572 2.13409271-.7570058.88421192-.0499041 2.82701987-.615739 4.49250327-.5658349 1.6647153-2.1927063 3.4684769-4.0330134 3.9025166 0 0 1.4679462-.6821722 1.8894434-1.3351523.7001919-1.0877881.4882917-1.7930066.318618-2.7409802-.1704415-.94874167.487524-1.97737743.487524-1.97737743s-.5305182.03456953-.9758157.81507284c-.1888676-1.22299337.9973128-1.76304635 1.4003838-1.90823841.4038388-.14442384.8852208-.72903311.5942419-1.16230463-.4744722-.70521855-2.4552783.02304635-2.3132438 1.6885298"/><path d="m11.7858733 12.6440768s.9735125-.8212185.7262956-2.3768477c-.359309-2.26084764-3.0318618-3.20574831-2.2564299-3.39472844.9681382-.23737748 2.4882917 2.11488742 2.7193858 1.31901987.4660268-1.59711258-2.7186181-3.63133775-4.24644918-4.35806623-2.19040307-1.04092715-8.36391554-3.32098013-8.30786948-3.1389139.37236085 1.19841059 2.25259117 1.34974834 5.54472169 2.49284768.97504799.33878146 3.20307102 1.22529801 3.29520154 1.32900662.09213051.10370861-1.99078695-.77819867-3.32053743-1.23835761-1.83723609-.63684769-3.6522073-1.19994702-3.58541267-1.01096689.3293666.93875497 2.04069098 1.31364238 4.44760077 1.96739073.74165067.20127152 2.32859885.62071523 2.40230326.70829139.07447217.08757616-1.68675624-.43480795-2.3915547-.62609272-1.9278311-.52468874-3.1024952-.86731126-2.98809981-.55541722.36161228.98868875 1.88714012 1.09316557 3.87178503 1.51260928.45988484.0967947 1.37888676.27194702 1.44261036.35721854.06372361.08450331-.90441458-.15748345-1.46871401-.26887417-.97044146-.19128477-1.91477927-.33801325-1.56007677.12752318.56046065.73287417.8621881.92108609 1.80038387 1.26831788 3.86103643 1.42810596 4.30556623 2.76863576 4.47600773 3.61290061.2648752 1.3197881-.6011517 2.2731391-.6011517 2.2731391"/><path d="m14.5813436 6.33444503c0 .21509934.1742802.38948345.3892514.38948345s.3892514-.17438411.3892514-.38948345c0-.21509933-.1742802-.38948344-.3892514-.38948344s-.3892514.17438411-.3892514.38948344"/></g><path d="m14.6522073 6.23542252c0 .08988079.0729367.16286092.1627639.16286092.0898273 0 .1619962-.07298013.1619962-.16286092 0-.0898808-.0721689-.16286093-.1619962-.16286093-.0898272 0-.1627639.07298013-.1627639.16286093" fill="#fff"/><path d="m14.6522073 6.23542252c0 .08988079.0729367.16286092.1627639.16286092.0898273 0 .1619962-.07298013.1619962-.16286092 0-.0898808-.0721689-.16286093-.1619962-.16286093-.0898272 0-.1627639.07298013-.1627639.16286093z" stroke="#272525" stroke-width=".5"/><path d="m12.5915547 12.0083046s-.0921305 1.221457-.9520154 2.3299868c-.6441458.8304371-1.2429942.8619338-1.95316694 1.7015894-.71017274.8404238-.81689059 1.7200265-.81689059 1.7200265-.03915547-.6422252.26487524-1.7530596.85988483-2.6779868.4944338-.7705165 1.0318618-1.0347814 1.0318618-1.0347814-.4452975-.0998676-.94740882.2496688-.94740882.2496688s.06065259-.4793642.86679462-.8534834c.8714012-.4048477 1.3205374-.2704106 1.9109405-1.4350199" fill="#272525"/></g></g></g></svg>