<?xml version="1.0" encoding="UTF-8"?>
<svg width="120px" height="80px" viewBox="0 0 120 80" version="1.1" xmlns="http://www.w3.org/2000/svg" xmlns:xlink="http://www.w3.org/1999/xlink">
    <!-- Generator: Sketch 54.1 (76490) - https://sketchapp.com -->
    <title>Slice 1</title>
    <desc>Created with Sketch.</desc>
    <g id="Page-1" stroke="none" stroke-width="1" fill="none" fill-rule="evenodd">
        <g id="bonuscard" fill-rule="nonzero">
            <rect id="Rectangle-11" fill="#FFFFFF" x="0" y="0" width="120" height="80" rx="4"></rect>
            <path d="M18.2078902,31.48288 L18.2078902,35.81568 C18.2078902,38.13504 18.7608049,38.22208 20.0364268,38.22208 C21.5676707,38.22208 22.8432927,37.04064 22.8432927,34.94016 C22.8432927,32.40256 21.0999634,31.48288 19.4412195,31.48288 L18.2078902,31.48288 Z M21.652878,39.0976 L10,39.0976 L10,38.26624 C11.3614512,38.22208 12.2539512,38.04736 12.3391585,37.74144 C12.4666585,37.52256 12.4666585,37.12832 12.4666585,36.77824 L12.4666585,26.31936 C12.4666585,25.96928 12.4666585,25.6192 12.3391585,25.3568 C12.2539512,25.0944 11.3614512,24.87552 10,24.83136 L10,24 L21.780378,24 C24.9697439,24 27.6914024,25.00672 27.6914024,27.28192 C27.6914024,29.3824 25.9051585,30.4768 22.9285,30.82688 L22.9285,30.8704 C26.6707805,31.04576 28.9670244,32.53312 28.9670244,34.80896 C28.9670244,37.6096 26.0755732,39.0976 21.652878,39.0976 Z M18.2078902,24.87552 L18.2078902,30.65152 L19.7391341,30.65152 C21.0147561,30.65152 22.162878,29.82016 22.162878,27.632 C22.162878,25.6192 21.3549634,24.87552 19.5687195,24.87552 L18.2078902,24.87552 Z M40.3661463,39.36512 C37.1917073,39.36512 30.9454512,37.8656 30.9454512,31.5456 C30.9454512,27.68896 35.2655244,24.04672 41.3556707,24.04672 C46.3001829,24.04672 50.7763659,26.99264 50.7763659,31.49184 C50.7763659,37.00864 44.7384634,39.36512 40.3661463,39.36512 Z M40.9912073,38.45504 C42.6567927,38.45504 44.9468171,37.59808 44.9468171,31.92064 C44.9468171,27.15328 42.6045488,24.95744 40.3661463,24.95744 C38.5966951,24.95744 36.775,26.35008 36.775,30.95616 C36.775,35.77664 38.648939,38.45504 40.9912073,38.45504 Z M70.6079024,39.15136 L66.6522927,39.15136 C65.0383293,37.00864 60.3537927,31.92064 56.9187561,28.54592 L56.8665122,28.54592 L56.8665122,35.616 C56.8665122,36.2592 56.8142683,36.90176 56.9187561,37.43744 C57.022622,38.02624 57.4915732,38.2944 60.0415732,38.34752 L60.0415732,39.15136 L52.9625244,39.15136 L52.9625244,38.34752 C54.6287317,38.2944 55.0448171,38.02624 55.1486829,37.43744 C55.2531707,36.90176 55.2531707,36.2592 55.2531707,35.616 L55.2531707,27.2608 C54.472,25.92192 53.1186341,25.11808 51.4014268,25.11808 L51.4014268,24.31488 L59.7293537,24.31488 C61.9155122,26.99264 66.0794756,31.3312 68.994561,34.17024 L69.0468049,34.17024 L69.0468049,27.8496 C69.0468049,27.20704 68.994561,26.56448 68.9423171,26.0288 C68.8384512,25.43936 68.4217439,25.17184 65.8195,25.11808 L65.8195,24.31488 L72.9501707,24.31488 L72.9501707,25.11808 C71.2323415,25.17184 70.8162561,25.43936 70.7117683,26.0288 C70.5556585,26.56448 70.6079024,27.20704 70.6079024,27.8496 L70.6079024,39.15136 Z M82.6320854,26.56448 L82.6320854,34.06272 C82.6320854,36.09856 83.5687439,37.54432 86.3277195,37.54432 C88.9299634,37.54432 90.647171,36.848 90.647171,33.52704 L90.647171,27.8496 C90.647171,27.20704 90.647171,26.56448 90.543305,26.0288 C90.439439,25.43936 90.022732,25.17184 88.3055244,25.11808 L88.3055244,24.31488 L94.499537,24.31488 L94.499537,25.11808 C91.896671,25.17184 92.20889,25.76064 92.20889,27.8496 L92.20889,33.95584 C92.20889,37.70496 88.9299634,39.36512 85.3381951,39.36512 C78.8319634,39.36512 76.9580244,37.11552 76.9580244,33.52704 L76.9580244,26.56448 C76.9580244,26.2432 76.9580244,25.86816 76.8541585,25.65376 C76.7496707,25.38624 75.916878,25.17184 74.5641341,25.11808 L74.5641341,24.31488 L84.9737317,24.31488 L84.9737317,25.11808 C83.6726098,25.17184 82.8398171,25.38624 82.7359512,25.65376 C82.6320854,25.86816 82.6320854,26.2432 82.6320854,26.56448 Z M108.364171,27.96608 L107.574293,27.96608 C106.742744,26.8544 105.786805,25.14304 103.708244,25.14304 C103.084427,25.14304 101.713024,25.57056 101.713024,27.1104 C101.713024,28.608 103.333829,29.0784 106.576061,31.08864 C109.195098,32.67136 109.943305,33.99744 109.943305,35.3664 C109.943305,38.10368 106.701073,39.47264 102.170159,39.47264 C98.927927,39.47264 97.472561,39.216 96.101159,38.78848 C95.976146,38.7456 95.893427,38.65984 95.893427,38.53184 L95.893427,35.06688 L96.724976,35.06688 C97.348171,36.3072 98.17972,38.57408 100.756463,38.57408 C102.33622,38.57408 103.874305,37.5904 103.874305,36.05056 C103.874305,34.6816 103.3755,33.95456 100.008878,32.32896 C97.140439,30.91776 95.685695,29.2064 95.685695,28.05184 C95.685695,25.6992 97.971366,24.24448 103.25111,24.24448 C105.204659,24.24448 106.867134,24.28736 108.114146,24.544 C108.321878,24.62976 108.364171,24.75776 108.364171,24.84352 L108.364171,27.96608 Z M37.3571463,51.3312 L38.1252561,51.3312 L37.5219634,53.87072 C37.4125,54.20928 36.9734024,54.32192 36.150561,54.54784 C35.4925366,54.66112 33.5184634,55.16864 31.5437683,55.16864 C25.5108415,55.16864 22.0005488,52.79872 22.0005488,48.6784 C22.0005488,45.91296 24.0299756,42.3008 31.9275122,42.3008 C34.1211341,42.3008 35.2729878,42.58304 36.4248415,42.86528 C37.1382195,43.03488 37.4125,43.31712 37.4125,43.59936 L37.4125,45.85664 L36.6443902,45.85664 C35.7668171,44.55872 34.5055,42.97856 32.0923293,42.97856 C29.1305976,42.97856 27.3207195,45.29216 27.3207195,48.5088 C27.2659878,51.7824 28.5820366,54.49152 31.9275122,54.49152 C34.0664024,54.49152 36.0958293,53.1936 37.3571463,51.3312 Z M49.755122,51.21792 L44.2160244,51.21792 L43.4479146,52.91136 C43.0641707,53.75808 43.2837195,54.2656 44.4355732,54.2656 L44.4355732,54.94336 L39.1701341,54.94336 L39.1701341,54.2656 C39.9382439,54.2656 41.0894756,53.98336 41.8575854,52.85504 C42.5156098,51.952 45.6968902,46.1952 47.7263171,42.3008 L49.7003902,42.3008 C50.9069756,44.3328 54.5820854,50.76672 55.5143902,52.5728 C55.9528659,53.41888 57.2148049,54.2656 58.2565732,54.2656 L58.2565732,54.94336 L49.6456585,54.94336 L49.6456585,54.2656 C50.7427805,54.2656 51.0717927,53.8144 50.6880488,53.024 L49.755122,51.21792 Z M44.7645854,50.25856 L49.2071829,50.25856 L47.0682927,45.96928 L44.7645854,50.25856 Z M66.9253293,43.37344 L66.9253293,48.6784 L68.0771829,48.6784 C70.3255366,48.6784 70.6545488,47.04192 70.6545488,45.91296 C70.6545488,43.99424 69.886439,43.37344 68.3508415,43.37344 L66.9253293,43.37344 Z M59.5757317,43.14752 L59.5757317,42.4704 L70.5450854,42.4704 C73.7810976,42.4704 76.1942683,43.48608 76.1942683,45.80032 C76.1942683,47.15456 74.8775976,48.56576 72.3002317,49.07328 C74.0000244,50.76672 76.1395366,52.68544 78.2236951,54.49152 L78.2236951,54.94336 L73.0677195,54.94336 C71.4773902,54.94336 69.7769756,51.44384 67.9670976,49.52512 L66.9253293,49.52512 L66.9253293,53.08032 C66.9253293,53.36256 66.9253293,53.6448 67.0347927,53.87072 C67.144878,54.09664 67.9123659,54.2656 69.1189512,54.2656 L69.1189512,54.94336 L59.5757317,54.94336 L59.5757317,54.2656 C60.7823171,54.2656 61.6051585,54.09664 61.714622,53.87072 C61.7693537,53.6448 61.7693537,53.36256 61.7693537,53.08032 L61.7693537,44.38912 C61.7693537,44.10688 61.7693537,43.82464 61.714622,43.59936 C61.6051585,43.37344 60.8370488,43.20384 59.5757317,43.14752 Z M80.2556098,42.4704 L90.402122,42.4704 C95.39328,42.4704 99.287317,44.72768 99.287317,48.39616 C99.287317,53.70112 93.857061,54.94336 89.1408049,54.94336 L80.2556098,54.94336 L80.2556098,54.2656 C81.4621951,54.2656 82.2303049,54.09664 82.3397683,53.87072 C82.4492317,53.6448 82.4492317,53.36256 82.4492317,53.08032 L82.4492317,44.38912 C82.4492317,44.10688 82.4492317,43.82464 82.3397683,43.59936 C82.2303049,43.37344 81.4621951,43.20384 80.2556098,43.14752 L80.2556098,42.4704 Z M87.6045854,43.20384 L87.6045854,52.4032 C87.6045854,53.92704 87.495122,54.2656 88.7017073,54.2656 C91.553976,54.2656 94.131341,52.85504 94.131341,48.39616 C94.131341,45.00992 92.047183,43.20384 88.0436829,43.20384 L87.6045854,43.20384 Z" id="Combined-Shape" fill="#484847"></path>
        </g>
    </g>
</svg>
