<?xml version="1.0" encoding="UTF-8" standalone="no"?>
<svg width="120px" height="80px" viewBox="0 0 120 80" version="1.1" xmlns="http://www.w3.org/2000/svg" xmlns:xlink="http://www.w3.org/1999/xlink" xmlns:sketch="http://www.bohemiancoding.com/sketch/ns">
    <!-- Generator: Sketch 3.2.2 (9983) - http://www.bohemiancoding.com/sketch -->
    <title>card_bonuscard@1x</title>
    <desc>Created with Sketch.</desc>
    <defs>
        <linearGradient x1="0%" y1="0%" x2="100%" y2="100%" id="linearGradient-1">
            <stop stop-color="#F1DF93" offset="0%"></stop>
            <stop stop-color="#BDA05A" offset="100%"></stop>
        </linearGradient>
    </defs>
    <g id="assets-various" stroke="none" stroke-width="1" fill="none" fill-rule="evenodd" sketch:type="MSPage">
        <g id="Artboard-2" sketch:type="MSArtboardGroup" transform="translate(-36.000000, -1607.000000)">
            <g id="card_bonuscard" sketch:type="MSLayerGroup" transform="translate(36.000000, 1607.000000)">
                <rect id="Rectangle-11" fill="url(#linearGradient-1)" sketch:type="MSShapeGroup" x="0" y="0" width="120" height="80" rx="4"></rect>
                <g id="Imported-Layers-2-+-Imported-Layers-3" transform="translate(9.000000, 24.000000)" sketch:type="MSShapeGroup">
                    <g id="Imported-Layers-3" transform="translate(1.000000, 1.000000)" fill="#9E8344">
                        <path d="M8.415,7.50848 L9.64832927,7.50848 C11.3070732,7.50848 13.0504024,8.42816 13.0504024,10.96576 C13.0504024,13.06624 11.7747805,14.24768 10.2435366,14.24768 C8.96791463,14.24768 8.415,14.16064 8.415,11.84128 L8.415,7.50848 L8.415,7.50848 Z M11.8599878,15.1232 C16.2826829,15.1232 19.1741341,13.6352 19.1741341,10.83456 C19.1741341,8.55872 16.8778902,7.07136 13.1356098,6.896 L13.1356098,6.85248 C16.1122683,6.5024 17.8985122,5.408 17.8985122,3.30752 C17.8985122,1.03232 15.1768537,0.0256 11.9874878,0.0256 L0.207109756,0.0256 L0.207109756,0.85696 C1.56856098,0.90112 2.46106098,1.12 2.54626829,1.3824 C2.67376829,1.6448 2.67376829,1.99488 2.67376829,2.34496 L2.67376829,12.80384 C2.67376829,13.15392 2.67376829,13.54816 2.54626829,13.76704 C2.46106098,14.07296 1.56856098,14.24768 0.207109756,14.29184 L0.207109756,15.1232 L11.8599878,15.1232 L11.8599878,15.1232 Z M8.415,0.90112 L9.77582927,0.90112 C11.5620732,0.90112 12.3699878,1.6448 12.3699878,3.6576 C12.3699878,5.84576 11.2218659,6.67712 9.9462439,6.67712 L8.415,6.67712 L8.415,0.90112 L8.415,0.90112 Z" id="Fill-1"></path>
                        <path d="M30.5732561,15.39072 C34.9455732,15.39072 40.9834756,13.03424 40.9834756,7.51744 C40.9834756,3.01824 36.5072927,0.07232 31.5627805,0.07232 C25.4726341,0.07232 21.152561,3.71456 21.152561,7.5712 C21.152561,13.8912 27.3988171,15.39072 30.5732561,15.39072 L30.5732561,15.39072 Z M31.1983171,14.48064 C28.8560488,14.48064 26.9821098,11.80224 26.9821098,6.98176 C26.9821098,2.37568 28.8038049,0.98304 30.5732561,0.98304 C32.8116585,0.98304 35.1539268,3.17888 35.1539268,7.94624 C35.1539268,13.62368 32.8639024,14.48064 31.1983171,14.48064 L31.1983171,14.48064 Z" id="Fill-2"></path>
                        <path d="M60.8150122,15.17696 L60.8150122,3.8752 C60.8150122,3.23264 60.7627683,2.59008 60.918878,2.0544 C61.0233659,1.46496 61.4394512,1.19744 63.1572805,1.14368 L63.1572805,0.34048 L56.0266098,0.34048 L56.0266098,1.14368 C58.6288537,1.19744 59.045561,1.46496 59.1494268,2.0544 C59.2016707,2.59008 59.2539146,3.23264 59.2539146,3.8752 L59.2539146,10.19584 L59.2016707,10.19584 C56.2865854,7.3568 52.122622,3.01824 49.9364634,0.34048 L41.6085366,0.34048 L41.6085366,1.14368 C43.3257439,1.14368 44.6791098,1.94752 45.4602805,3.2864 L45.4602805,11.6416 C45.4602805,12.2848 45.4602805,12.92736 45.3557927,13.46304 C45.2519268,14.05184 44.8358415,14.32 43.1696341,14.37312 L43.1696341,15.17696 L50.2486829,15.17696 L50.2486829,14.37312 C47.6986829,14.32 47.2297317,14.05184 47.1258659,13.46304 C47.021378,12.92736 47.073622,12.2848 47.073622,11.6416 L47.073622,4.57152 L47.1258659,4.57152 C50.5609024,7.94624 55.245439,13.03424 56.8594024,15.17696 L60.8150122,15.17696" id="Fill-3"></path>
                        <path d="M72.8391951,2.59008 C72.8391951,2.2688 72.8391951,1.89376 72.943061,1.67936 C73.0469268,1.41184 73.8797195,1.19744 75.1808415,1.14368 L75.1808415,0.34048 L64.7712439,0.34048 L64.7712439,1.14368 C66.1239878,1.19744 66.9567805,1.41184 67.0612683,1.67936 C67.1651341,1.89376 67.1651341,2.2688 67.1651341,2.59008 L67.1651341,9.55264 C67.1651341,13.14112 69.0390732,15.39072 75.5453049,15.39072 C79.1370732,15.39072 82.416,13.73056 82.416,9.98144 L82.416,3.8752 C82.416,1.78624 82.1037805,1.19744 84.7066463,1.14368 L84.7066463,0.34048 L78.5126341,0.34048 L78.5126341,1.14368 C80.2298415,1.19744 80.6465488,1.46496 80.7504146,2.0544 C80.8542805,2.59008 80.8542805,3.23264 80.8542805,3.8752 L80.8542805,9.55264 C80.8542805,12.8736 79.1370732,13.56992 76.5348293,13.56992 C73.7758537,13.56992 72.8391951,12.12416 72.8391951,10.08832 L72.8391951,2.59008" id="Fill-4"></path>
                        <path d="M98.5712805,3.99168 L98.5712805,0.86912 C98.5712805,0.78336 98.5289878,0.65536 98.3212561,0.5696 C97.0742439,0.31296 95.4117683,0.27008 93.4582195,0.27008 C88.1784756,0.27008 85.8928049,1.7248 85.8928049,4.07744 C85.8928049,5.232 87.3475488,6.94336 90.2159878,8.35456 C93.5826098,9.98016 94.0814146,10.7072 94.0814146,12.07616 C94.0814146,13.616 92.5433293,14.59968 90.9635732,14.59968 C88.3868293,14.59968 87.5552805,12.3328 86.9320854,11.09248 L86.1005366,11.09248 L86.1005366,14.55744 C86.1005366,14.68544 86.1832561,14.7712 86.3082683,14.81408 C87.6796707,15.2416 89.1350366,15.49824 92.3772683,15.49824 C96.9081829,15.49824 100.150415,14.12928 100.150415,11.392 C100.150415,10.02304 99.4022073,8.69696 96.7831707,7.11424 C93.540939,5.104 91.9201341,4.6336 91.9201341,3.136 C91.9201341,1.59616 93.2915366,1.16864 93.9153537,1.16864 C95.9939146,1.16864 96.9498537,2.88 97.7814024,3.99168 L98.5712805,3.99168" id="Fill-5"></path>
                        <path d="M27.5642561,27.3568 C26.302939,29.2192 24.2735122,30.51712 22.134622,30.51712 C18.7891463,30.51712 17.4730976,27.808 17.5278293,24.5344 C17.5278293,21.31776 19.3377073,19.00416 22.299439,19.00416 C24.7126098,19.00416 25.9739268,20.58432 26.8515,21.88224 L27.6196098,21.88224 L27.6196098,19.62496 C27.6196098,19.34272 27.3453293,19.06048 26.6319512,18.89088 C25.4800976,18.60864 24.3282439,18.3264 22.134622,18.3264 C14.2370854,18.3264 12.2076585,21.93856 12.2076585,24.704 C12.2076585,28.82432 15.7179512,31.19424 21.750878,31.19424 C23.7255732,31.19424 25.6996463,30.68672 26.3576707,30.57344 C27.1805122,30.34752 27.6196098,30.23488 27.7290732,29.89632 L28.3323659,27.3568 L27.5642561,27.3568" id="Fill-6"></path>
                        <path d="M39.9622317,27.24352 L40.8951585,29.0496 C41.2789024,29.84 40.9498902,30.2912 39.8527683,30.2912 L39.8527683,30.96896 L48.4636829,30.96896 L48.4636829,30.2912 C47.4219146,30.2912 46.1599756,29.44448 45.7215,28.5984 C44.7891951,26.79232 41.1140854,20.3584 39.9075,18.3264 L37.9334268,18.3264 C35.904,22.2208 32.7227195,27.9776 32.0646951,28.88064 C31.2965854,30.00896 30.1453537,30.2912 29.3772439,30.2912 L29.3772439,30.96896 L34.6426829,30.96896 L34.6426829,30.2912 C33.4908293,30.2912 33.2712805,29.78368 33.6550244,28.93696 L34.4231341,27.24352 L39.9622317,27.24352 L39.9622317,27.24352 Z M34.9716951,26.28416 L37.2754024,21.99488 L39.4142927,26.28416 L34.9716951,26.28416 L34.9716951,26.28416 Z" id="Fill-7"></path>
                        <path d="M57.132439,19.39904 L58.5579512,19.39904 C60.0935488,19.39904 60.8616585,20.01984 60.8616585,21.93856 C60.8616585,23.06752 60.5326463,24.704 58.2842927,24.704 L57.132439,24.704 L57.132439,19.39904 L57.132439,19.39904 Z M49.7828415,19.17312 C51.0441585,19.22944 51.8122683,19.39904 51.9217317,19.62496 C51.9764634,19.85024 51.9764634,20.13248 51.9764634,20.41472 L51.9764634,29.10592 C51.9764634,29.38816 51.9764634,29.6704 51.9217317,29.89632 C51.8122683,30.12224 50.9894268,30.2912 49.7828415,30.2912 L49.7828415,30.96896 L59.326061,30.96896 L59.326061,30.2912 C58.1194756,30.2912 57.3519878,30.12224 57.2419024,29.89632 C57.132439,29.6704 57.132439,29.38816 57.132439,29.10592 L57.132439,25.55072 L58.1742073,25.55072 C59.9840854,27.46944 61.6845,30.96896 63.2748293,30.96896 L68.4308049,30.96896 L68.4308049,30.51712 C66.3466463,28.71104 64.2071341,26.79232 62.5073415,25.09888 C65.0847073,24.59136 66.401378,23.18016 66.401378,21.82592 C66.401378,19.51168 63.9882073,18.496 60.7521951,18.496 L49.7828415,18.496 L49.7828415,19.17312 L49.7828415,19.17312 Z" id="Fill-8"></path>
                        <path d="M70.4627195,18.496 L70.4627195,19.17312 C71.6693049,19.22944 72.4374146,19.39904 72.546878,19.62496 C72.6563415,19.85024 72.6563415,20.13248 72.6563415,20.41472 L72.6563415,29.10592 C72.6563415,29.38816 72.6563415,29.6704 72.546878,29.89632 C72.4374146,30.12224 71.6693049,30.2912 70.4627195,30.2912 L70.4627195,30.96896 L79.3479146,30.96896 C84.0641707,30.96896 89.4944268,29.72672 89.4944268,24.42176 C89.4944268,20.75328 85.6003902,18.496 80.6092317,18.496 L70.4627195,18.496 L70.4627195,18.496 Z M77.8116951,19.22944 L78.2507927,19.22944 C82.2542927,19.22944 84.3384512,21.03552 84.3384512,24.42176 C84.3384512,28.88064 81.7610854,30.2912 78.9088171,30.2912 C77.7022317,30.2912 77.8116951,29.95264 77.8116951,28.4288 L77.8116951,19.22944 L77.8116951,19.22944 Z" id="Fill-9"></path>
                    </g>
                    <g id="Imported-Layers-4" fill="#FFFFFF">
                        <path d="M8.415,7.50848 L9.64832927,7.50848 C11.3070732,7.50848 13.0504024,8.42816 13.0504024,10.96576 C13.0504024,13.06624 11.7747805,14.24768 10.2435366,14.24768 C8.96791463,14.24768 8.415,14.16064 8.415,11.84128 L8.415,7.50848 L8.415,7.50848 Z M11.8599878,15.1232 C16.2826829,15.1232 19.1741341,13.6352 19.1741341,10.83456 C19.1741341,8.55872 16.8778902,7.07136 13.1356098,6.896 L13.1356098,6.85248 C16.1122683,6.5024 17.8985122,5.408 17.8985122,3.30752 C17.8985122,1.03232 15.1768537,0.0256 11.9874878,0.0256 L0.207109756,0.0256 L0.207109756,0.85696 C1.56856098,0.90112 2.46106098,1.12 2.54626829,1.3824 C2.67376829,1.6448 2.67376829,1.99488 2.67376829,2.34496 L2.67376829,12.80384 C2.67376829,13.15392 2.67376829,13.54816 2.54626829,13.76704 C2.46106098,14.07296 1.56856098,14.24768 0.207109756,14.29184 L0.207109756,15.1232 L11.8599878,15.1232 L11.8599878,15.1232 Z M8.415,0.90112 L9.77582927,0.90112 C11.5620732,0.90112 12.3699878,1.6448 12.3699878,3.6576 C12.3699878,5.84576 11.2218659,6.67712 9.9462439,6.67712 L8.415,6.67712 L8.415,0.90112 L8.415,0.90112 Z" id="Fill-1"></path>
                        <path d="M30.5732561,15.39072 C34.9455732,15.39072 40.9834756,13.03424 40.9834756,7.51744 C40.9834756,3.01824 36.5072927,0.07232 31.5627805,0.07232 C25.4726341,0.07232 21.152561,3.71456 21.152561,7.5712 C21.152561,13.8912 27.3988171,15.39072 30.5732561,15.39072 L30.5732561,15.39072 Z M31.1983171,14.48064 C28.8560488,14.48064 26.9821098,11.80224 26.9821098,6.98176 C26.9821098,2.37568 28.8038049,0.98304 30.5732561,0.98304 C32.8116585,0.98304 35.1539268,3.17888 35.1539268,7.94624 C35.1539268,13.62368 32.8639024,14.48064 31.1983171,14.48064 L31.1983171,14.48064 Z" id="Fill-2"></path>
                        <path d="M60.8150122,15.17696 L60.8150122,3.8752 C60.8150122,3.23264 60.7627683,2.59008 60.918878,2.0544 C61.0233659,1.46496 61.4394512,1.19744 63.1572805,1.14368 L63.1572805,0.34048 L56.0266098,0.34048 L56.0266098,1.14368 C58.6288537,1.19744 59.045561,1.46496 59.1494268,2.0544 C59.2016707,2.59008 59.2539146,3.23264 59.2539146,3.8752 L59.2539146,10.19584 L59.2016707,10.19584 C56.2865854,7.3568 52.122622,3.01824 49.9364634,0.34048 L41.6085366,0.34048 L41.6085366,1.14368 C43.3257439,1.14368 44.6791098,1.94752 45.4602805,3.2864 L45.4602805,11.6416 C45.4602805,12.2848 45.4602805,12.92736 45.3557927,13.46304 C45.2519268,14.05184 44.8358415,14.32 43.1696341,14.37312 L43.1696341,15.17696 L50.2486829,15.17696 L50.2486829,14.37312 C47.6986829,14.32 47.2297317,14.05184 47.1258659,13.46304 C47.021378,12.92736 47.073622,12.2848 47.073622,11.6416 L47.073622,4.57152 L47.1258659,4.57152 C50.5609024,7.94624 55.245439,13.03424 56.8594024,15.17696 L60.8150122,15.17696" id="Fill-3"></path>
                        <path d="M72.8391951,2.59008 C72.8391951,2.2688 72.8391951,1.89376 72.943061,1.67936 C73.0469268,1.41184 73.8797195,1.19744 75.1808415,1.14368 L75.1808415,0.34048 L64.7712439,0.34048 L64.7712439,1.14368 C66.1239878,1.19744 66.9567805,1.41184 67.0612683,1.67936 C67.1651341,1.89376 67.1651341,2.2688 67.1651341,2.59008 L67.1651341,9.55264 C67.1651341,13.14112 69.0390732,15.39072 75.5453049,15.39072 C79.1370732,15.39072 82.416,13.73056 82.416,9.98144 L82.416,3.8752 C82.416,1.78624 82.1037805,1.19744 84.7066463,1.14368 L84.7066463,0.34048 L78.5126341,0.34048 L78.5126341,1.14368 C80.2298415,1.19744 80.6465488,1.46496 80.7504146,2.0544 C80.8542805,2.59008 80.8542805,3.23264 80.8542805,3.8752 L80.8542805,9.55264 C80.8542805,12.8736 79.1370732,13.56992 76.5348293,13.56992 C73.7758537,13.56992 72.8391951,12.12416 72.8391951,10.08832 L72.8391951,2.59008" id="Fill-4"></path>
                        <path d="M98.5712805,3.99168 L98.5712805,0.86912 C98.5712805,0.78336 98.5289878,0.65536 98.3212561,0.5696 C97.0742439,0.31296 95.4117683,0.27008 93.4582195,0.27008 C88.1784756,0.27008 85.8928049,1.7248 85.8928049,4.07744 C85.8928049,5.232 87.3475488,6.94336 90.2159878,8.35456 C93.5826098,9.98016 94.0814146,10.7072 94.0814146,12.07616 C94.0814146,13.616 92.5433293,14.59968 90.9635732,14.59968 C88.3868293,14.59968 87.5552805,12.3328 86.9320854,11.09248 L86.1005366,11.09248 L86.1005366,14.55744 C86.1005366,14.68544 86.1832561,14.7712 86.3082683,14.81408 C87.6796707,15.2416 89.1350366,15.49824 92.3772683,15.49824 C96.9081829,15.49824 100.150415,14.12928 100.150415,11.392 C100.150415,10.02304 99.4022073,8.69696 96.7831707,7.11424 C93.540939,5.104 91.9201341,4.6336 91.9201341,3.136 C91.9201341,1.59616 93.2915366,1.16864 93.9153537,1.16864 C95.9939146,1.16864 96.9498537,2.88 97.7814024,3.99168 L98.5712805,3.99168" id="Fill-5"></path>
                        <path d="M27.5642561,27.3568 C26.302939,29.2192 24.2735122,30.51712 22.134622,30.51712 C18.7891463,30.51712 17.4730976,27.808 17.5278293,24.5344 C17.5278293,21.31776 19.3377073,19.00416 22.299439,19.00416 C24.7126098,19.00416 25.9739268,20.58432 26.8515,21.88224 L27.6196098,21.88224 L27.6196098,19.62496 C27.6196098,19.34272 27.3453293,19.06048 26.6319512,18.89088 C25.4800976,18.60864 24.3282439,18.3264 22.134622,18.3264 C14.2370854,18.3264 12.2076585,21.93856 12.2076585,24.704 C12.2076585,28.82432 15.7179512,31.19424 21.750878,31.19424 C23.7255732,31.19424 25.6996463,30.68672 26.3576707,30.57344 C27.1805122,30.34752 27.6196098,30.23488 27.7290732,29.89632 L28.3323659,27.3568 L27.5642561,27.3568" id="Fill-6"></path>
                        <path d="M39.9622317,27.24352 L40.8951585,29.0496 C41.2789024,29.84 40.9498902,30.2912 39.8527683,30.2912 L39.8527683,30.96896 L48.4636829,30.96896 L48.4636829,30.2912 C47.4219146,30.2912 46.1599756,29.44448 45.7215,28.5984 C44.7891951,26.79232 41.1140854,20.3584 39.9075,18.3264 L37.9334268,18.3264 C35.904,22.2208 32.7227195,27.9776 32.0646951,28.88064 C31.2965854,30.00896 30.1453537,30.2912 29.3772439,30.2912 L29.3772439,30.96896 L34.6426829,30.96896 L34.6426829,30.2912 C33.4908293,30.2912 33.2712805,29.78368 33.6550244,28.93696 L34.4231341,27.24352 L39.9622317,27.24352 L39.9622317,27.24352 Z M34.9716951,26.28416 L37.2754024,21.99488 L39.4142927,26.28416 L34.9716951,26.28416 L34.9716951,26.28416 Z" id="Fill-7"></path>
                        <path d="M57.132439,19.39904 L58.5579512,19.39904 C60.0935488,19.39904 60.8616585,20.01984 60.8616585,21.93856 C60.8616585,23.06752 60.5326463,24.704 58.2842927,24.704 L57.132439,24.704 L57.132439,19.39904 L57.132439,19.39904 Z M49.7828415,19.17312 C51.0441585,19.22944 51.8122683,19.39904 51.9217317,19.62496 C51.9764634,19.85024 51.9764634,20.13248 51.9764634,20.41472 L51.9764634,29.10592 C51.9764634,29.38816 51.9764634,29.6704 51.9217317,29.89632 C51.8122683,30.12224 50.9894268,30.2912 49.7828415,30.2912 L49.7828415,30.96896 L59.326061,30.96896 L59.326061,30.2912 C58.1194756,30.2912 57.3519878,30.12224 57.2419024,29.89632 C57.132439,29.6704 57.132439,29.38816 57.132439,29.10592 L57.132439,25.55072 L58.1742073,25.55072 C59.9840854,27.46944 61.6845,30.96896 63.2748293,30.96896 L68.4308049,30.96896 L68.4308049,30.51712 C66.3466463,28.71104 64.2071341,26.79232 62.5073415,25.09888 C65.0847073,24.59136 66.401378,23.18016 66.401378,21.82592 C66.401378,19.51168 63.9882073,18.496 60.7521951,18.496 L49.7828415,18.496 L49.7828415,19.17312 L49.7828415,19.17312 Z" id="Fill-8"></path>
                        <path d="M70.4627195,18.496 L70.4627195,19.17312 C71.6693049,19.22944 72.4374146,19.39904 72.546878,19.62496 C72.6563415,19.85024 72.6563415,20.13248 72.6563415,20.41472 L72.6563415,29.10592 C72.6563415,29.38816 72.6563415,29.6704 72.546878,29.89632 C72.4374146,30.12224 71.6693049,30.2912 70.4627195,30.2912 L70.4627195,30.96896 L79.3479146,30.96896 C84.0641707,30.96896 89.4944268,29.72672 89.4944268,24.42176 C89.4944268,20.75328 85.6003902,18.496 80.6092317,18.496 L70.4627195,18.496 L70.4627195,18.496 Z M77.8116951,19.22944 L78.2507927,19.22944 C82.2542927,19.22944 84.3384512,21.03552 84.3384512,24.42176 C84.3384512,28.88064 81.7610854,30.2912 78.9088171,30.2912 C77.7022317,30.2912 77.8116951,29.95264 77.8116951,28.4288 L77.8116951,19.22944 L77.8116951,19.22944 Z" id="Fill-9"></path>
                    </g>
                </g>
            </g>
        </g>
    </g>
</svg>