<?xml version="1.0" encoding="UTF-8"?>
<svg width="140px" height="80px" viewBox="0 0 140 80" version="1.1" xmlns="http://www.w3.org/2000/svg" xmlns:xlink="http://www.w3.org/1999/xlink">
    <!-- Generator: Sketch 52.5 (67469) - http://www.bohemiancoding.com/sketch -->
    <title>im/logo-pay/bonuscard</title>
    <desc>Created with Sketch.</desc>
    <g id="im/logo-pay/bonuscard" stroke="none" stroke-width="1" fill="none" fill-rule="evenodd">
        <path d="M28.2078902,31.48288 L28.2078902,35.81568 C28.2078902,38.13504 28.7608049,38.22208 30.0364268,38.22208 C31.5676707,38.22208 32.8432927,37.04064 32.8432927,34.94016 C32.8432927,32.40256 31.0999634,31.48288 29.4412195,31.48288 L28.2078902,31.48288 Z M31.652878,39.0976 L20,39.0976 L20,38.26624 C21.3614512,38.22208 22.2539512,38.04736 22.3391585,37.74144 C22.4666585,37.52256 22.4666585,37.12832 22.4666585,36.77824 L22.4666585,26.31936 C22.4666585,25.96928 22.4666585,25.6192 22.3391585,25.3568 C22.2539512,25.0944 21.3614512,24.87552 20,24.83136 L20,24 L31.780378,24 C34.9697439,24 37.6914024,25.00672 37.6914024,27.28192 C37.6914024,29.3824 35.9051585,30.4768 32.9285,30.82688 L32.9285,30.8704 C36.6707805,31.04576 38.9670244,32.53312 38.9670244,34.80896 C38.9670244,37.6096 36.0755732,39.0976 31.652878,39.0976 Z M28.2078902,24.87552 L28.2078902,30.65152 L29.7391341,30.65152 C31.0147561,30.65152 32.162878,29.82016 32.162878,27.632 C32.162878,25.6192 31.3549634,24.87552 29.5687195,24.87552 L28.2078902,24.87552 Z M50.3661463,39.36512 C47.1917073,39.36512 40.9454512,37.8656 40.9454512,31.5456 C40.9454512,27.68896 45.2655244,24.04672 51.3556707,24.04672 C56.3001829,24.04672 60.7763659,26.99264 60.7763659,31.49184 C60.7763659,37.00864 54.7384634,39.36512 50.3661463,39.36512 Z M50.9912073,38.45504 C52.6567927,38.45504 54.9468171,37.59808 54.9468171,31.92064 C54.9468171,27.15328 52.6045488,24.95744 50.3661463,24.95744 C48.5966951,24.95744 46.775,26.35008 46.775,30.95616 C46.775,35.77664 48.648939,38.45504 50.9912073,38.45504 Z M80.6079024,39.15136 L76.6522927,39.15136 C75.0383293,37.00864 70.3537927,31.92064 66.9187561,28.54592 L66.8665122,28.54592 L66.8665122,35.616 C66.8665122,36.2592 66.8142683,36.90176 66.9187561,37.43744 C67.022622,38.02624 67.4915732,38.2944 70.0415732,38.34752 L70.0415732,39.15136 L62.9625244,39.15136 L62.9625244,38.34752 C64.6287317,38.2944 65.0448171,38.02624 65.1486829,37.43744 C65.2531707,36.90176 65.2531707,36.2592 65.2531707,35.616 L65.2531707,27.2608 C64.472,25.92192 63.1186341,25.11808 61.4014268,25.11808 L61.4014268,24.31488 L69.7293537,24.31488 C71.9155122,26.99264 76.0794756,31.3312 78.994561,34.17024 L79.0468049,34.17024 L79.0468049,27.8496 C79.0468049,27.20704 78.994561,26.56448 78.9423171,26.0288 C78.8384512,25.43936 78.4217439,25.17184 75.8195,25.11808 L75.8195,24.31488 L82.9501707,24.31488 L82.9501707,25.11808 C81.2323415,25.17184 80.8162561,25.43936 80.7117683,26.0288 C80.5556585,26.56448 80.6079024,27.20704 80.6079024,27.8496 L80.6079024,39.15136 Z M92.6320854,26.56448 L92.6320854,34.06272 C92.6320854,36.09856 93.5687439,37.54432 96.3277195,37.54432 C98.9299634,37.54432 100.647171,36.848 100.647171,33.52704 L100.647171,27.8496 C100.647171,27.20704 100.647171,26.56448 100.543305,26.0288 C100.439439,25.43936 100.022732,25.17184 98.3055244,25.11808 L98.3055244,24.31488 L104.499537,24.31488 L104.499537,25.11808 C101.896671,25.17184 102.20889,25.76064 102.20889,27.8496 L102.20889,33.95584 C102.20889,37.70496 98.9299634,39.36512 95.3381951,39.36512 C88.8319634,39.36512 86.9580244,37.11552 86.9580244,33.52704 L86.9580244,26.56448 C86.9580244,26.2432 86.9580244,25.86816 86.8541585,25.65376 C86.7496707,25.38624 85.916878,25.17184 84.5641341,25.11808 L84.5641341,24.31488 L94.9737317,24.31488 L94.9737317,25.11808 C93.6726098,25.17184 92.8398171,25.38624 92.7359512,25.65376 C92.6320854,25.86816 92.6320854,26.2432 92.6320854,26.56448 Z M118.364171,27.96608 L117.574293,27.96608 C116.742744,26.8544 115.786805,25.14304 113.708244,25.14304 C113.084427,25.14304 111.713024,25.57056 111.713024,27.1104 C111.713024,28.608 113.333829,29.0784 116.576061,31.08864 C119.195098,32.67136 119.943305,33.99744 119.943305,35.3664 C119.943305,38.10368 116.701073,39.47264 112.170159,39.47264 C108.927927,39.47264 107.472561,39.216 106.101159,38.78848 C105.976146,38.7456 105.893427,38.65984 105.893427,38.53184 L105.893427,35.06688 L106.724976,35.06688 C107.348171,36.3072 108.17972,38.57408 110.756463,38.57408 C112.33622,38.57408 113.874305,37.5904 113.874305,36.05056 C113.874305,34.6816 113.3755,33.95456 110.008878,32.32896 C107.140439,30.91776 105.685695,29.2064 105.685695,28.05184 C105.685695,25.6992 107.971366,24.24448 113.25111,24.24448 C115.204659,24.24448 116.867134,24.28736 118.114146,24.544 C118.321878,24.62976 118.364171,24.75776 118.364171,24.84352 L118.364171,27.96608 Z M47.3571463,51.3312 L48.1252561,51.3312 L47.5219634,53.87072 C47.4125,54.20928 46.9734024,54.32192 46.150561,54.54784 C45.4925366,54.66112 43.5184634,55.16864 41.5437683,55.16864 C35.5108415,55.16864 32.0005488,52.79872 32.0005488,48.6784 C32.0005488,45.91296 34.0299756,42.3008 41.9275122,42.3008 C44.1211341,42.3008 45.2729878,42.58304 46.4248415,42.86528 C47.1382195,43.03488 47.4125,43.31712 47.4125,43.59936 L47.4125,45.85664 L46.6443902,45.85664 C45.7668171,44.55872 44.5055,42.97856 42.0923293,42.97856 C39.1305976,42.97856 37.3207195,45.29216 37.3207195,48.5088 C37.2659878,51.7824 38.5820366,54.49152 41.9275122,54.49152 C44.0664024,54.49152 46.0958293,53.1936 47.3571463,51.3312 Z M59.755122,51.21792 L54.2160244,51.21792 L53.4479146,52.91136 C53.0641707,53.75808 53.2837195,54.2656 54.4355732,54.2656 L54.4355732,54.94336 L49.1701341,54.94336 L49.1701341,54.2656 C49.9382439,54.2656 51.0894756,53.98336 51.8575854,52.85504 C52.5156098,51.952 55.6968902,46.1952 57.7263171,42.3008 L59.7003902,42.3008 C60.9069756,44.3328 64.5820854,50.76672 65.5143902,52.5728 C65.9528659,53.41888 67.2148049,54.2656 68.2565732,54.2656 L68.2565732,54.94336 L59.6456585,54.94336 L59.6456585,54.2656 C60.7427805,54.2656 61.0717927,53.8144 60.6880488,53.024 L59.755122,51.21792 Z M54.7645854,50.25856 L59.2071829,50.25856 L57.0682927,45.96928 L54.7645854,50.25856 Z M76.9253293,43.37344 L76.9253293,48.6784 L78.0771829,48.6784 C80.3255366,48.6784 80.6545488,47.04192 80.6545488,45.91296 C80.6545488,43.99424 79.886439,43.37344 78.3508415,43.37344 L76.9253293,43.37344 Z M69.5757317,43.14752 L69.5757317,42.4704 L80.5450854,42.4704 C83.7810976,42.4704 86.1942683,43.48608 86.1942683,45.80032 C86.1942683,47.15456 84.8775976,48.56576 82.3002317,49.07328 C84.0000244,50.76672 86.1395366,52.68544 88.2236951,54.49152 L88.2236951,54.94336 L83.0677195,54.94336 C81.4773902,54.94336 79.7769756,51.44384 77.9670976,49.52512 L76.9253293,49.52512 L76.9253293,53.08032 C76.9253293,53.36256 76.9253293,53.6448 77.0347927,53.87072 C77.144878,54.09664 77.9123659,54.2656 79.1189512,54.2656 L79.1189512,54.94336 L69.5757317,54.94336 L69.5757317,54.2656 C70.7823171,54.2656 71.6051585,54.09664 71.714622,53.87072 C71.7693537,53.6448 71.7693537,53.36256 71.7693537,53.08032 L71.7693537,44.38912 C71.7693537,44.10688 71.7693537,43.82464 71.714622,43.59936 C71.6051585,43.37344 70.8370488,43.20384 69.5757317,43.14752 Z M90.2556098,42.4704 L100.402122,42.4704 C105.39328,42.4704 109.287317,44.72768 109.287317,48.39616 C109.287317,53.70112 103.857061,54.94336 99.1408049,54.94336 L90.2556098,54.94336 L90.2556098,54.2656 C91.4621951,54.2656 92.2303049,54.09664 92.3397683,53.87072 C92.4492317,53.6448 92.4492317,53.36256 92.4492317,53.08032 L92.4492317,44.38912 C92.4492317,44.10688 92.4492317,43.82464 92.3397683,43.59936 C92.2303049,43.37344 91.4621951,43.20384 90.2556098,43.14752 L90.2556098,42.4704 Z M97.6045854,43.20384 L97.6045854,52.4032 C97.6045854,53.92704 97.495122,54.2656 98.7017073,54.2656 C101.553976,54.2656 104.131341,52.85504 104.131341,48.39616 C104.131341,45.00992 102.047183,43.20384 98.0436829,43.20384 L97.6045854,43.20384 Z" id="Combined-Shape" fill="#484847"></path>
    </g>
</svg>