<?xml version="1.0" encoding="UTF-8"?>
<svg width="120px" height="80px" viewBox="0 0 120 80" version="1.1" xmlns="http://www.w3.org/2000/svg" xmlns:xlink="http://www.w3.org/1999/xlink">
    <!-- Generator: Sketch 47.1 (45422) - http://www.bohemiancoding.com/sketch -->
    <title>card_butterfly</title>
    <desc>Created with Sketch.</desc>
    <defs></defs>
    <g id="export-badges" stroke="none" stroke-width="1" fill="none" fill-rule="evenodd">
        <g id="production-final" transform="translate(-36.000000, -5819.000000)">
            <g id="card_butterfly" transform="translate(36.000000, 5819.000000)">
                <rect id="Rectangle-11" fill="#FFFFFF" x="0" y="0" width="120" height="80" rx="4"></rect>
                <path d="M31.3415233,29.356722 L31.3415233,28.1853659 L33.350801,28.1853659 C34.7886853,28.1853659 35.8472693,28.435952 36.5265848,28.9371317 C37.2738317,29.5082435 37.6474496,30.3765535 37.6474496,31.5420878 C37.6474496,32.7892095 37.1832577,33.6808298 36.25486,34.2169756 C37.5115935,34.741466 38.2022205,35.6272588 38.3267617,36.8743805 C38.3494055,37.0375553 38.3607273,37.2123828 38.3607273,37.3988683 C38.3607273,38.5993686 38.004092,39.5259545 37.2908108,40.1786537 L36.9511548,40.4234146 C36.1246543,40.8663177 34.9811572,41.0935934 33.520629,41.1052488 L31.3415233,41.1052488 L31.3415233,39.9338927 L33.3847666,39.9338927 C34.6301782,39.9338927 35.5359185,39.7765479 36.1020147,39.4618537 C36.6228232,39.1937808 36.9398324,38.6809534 37.0530516,37.9233561 C37.0756954,37.7718366 37.0870172,37.6203195 37.0870172,37.4688 C37.0870172,36.4198191 36.6964167,35.6913711 35.9152039,35.2834341 C35.4283612,35.0386719 34.5112991,34.9162927 33.1639902,34.9162927 L31.3415233,34.9162927 L31.3415233,33.7449366 L33.1979558,33.7449366 C34.1942851,33.7449366 34.9301991,33.6342125 35.4057199,33.412761 C36.0510696,33.1097221 36.3737396,32.4919982 36.3737396,31.5595707 C36.3737396,30.8136288 36.169948,30.2600083 35.7623587,29.8986927 C35.717071,29.8637267 35.6774449,29.8345887 35.6434791,29.811278 C35.213246,29.5082391 34.3924188,29.356722 33.180973,29.356722 L31.3415233,29.356722 Z M31.3847992,39.9338927 L31.6695037,39.9338927 L31.3847992,39.9338927 Z M40.8242948,28.1853659 L42.0810221,28.1853659 L42.0810221,36.2449951 C42.0810221,37.4221847 42.2734919,38.3138051 42.6584373,38.9198829 C43.0886705,39.5958928 43.7566539,39.9921685 44.6624079,40.108722 C44.8095929,40.1320326 44.9567757,40.1436878 45.1039607,40.1436878 C46.0323585,40.1436878 46.7682725,39.8289983 47.3117248,39.1996098 C47.3909783,39.1180224 47.4645697,39.024781 47.5325012,38.9198829 C47.9174466,38.3138051 48.1099165,37.4221847 48.1099165,36.2449951 L48.1099165,28.1853659 L49.3666437,28.1853659 L49.3666437,36.2449951 C49.3666437,37.6902576 49.1119043,38.7974986 48.6024177,39.5667512 C48.5684519,39.6250279 48.5288258,39.6833038 48.4835381,39.7415805 C47.8042226,40.6506972 46.8418735,41.1693522 45.5964619,41.297561 C45.4266331,41.3208717 45.2568067,41.3325268 45.0869779,41.3325268 C43.8302443,41.3325268 42.7999647,40.9187684 41.9961081,40.091239 C41.8942108,39.9746856 41.7979759,39.8581339 41.7074005,39.7415805 C41.1526262,38.9956385 40.8582606,37.9583286 40.8242948,36.6296195 L40.8242948,28.1853659 Z M54.3097002,41.1052488 L54.3097002,29.356722 L51.4396069,29.356722 L51.4396069,28.1853659 L58.4365209,28.1853659 L58.4365209,29.356722 L55.5664275,29.356722 L55.5664275,41.1052488 L54.3097002,41.1052488 Z M63.1365111,41.1052488 L63.1365111,29.356722 L60.2664177,29.356722 L60.2664177,28.1853659 L67.2633317,28.1853659 L67.2633317,29.356722 L64.3932383,29.356722 L64.3932383,41.1052488 L63.1365111,41.1052488 Z M69.3362948,41.1052488 L69.3362948,28.1853659 L76.1973464,28.1853659 L76.1973464,29.356722 L70.5930221,29.356722 L70.5930221,33.9896976 L76.0105356,33.9896976 L76.0105356,35.1610537 L70.5930221,35.1610537 L70.5930221,39.9338927 L76.1973464,39.9338927 L76.1973464,41.1052488 L69.3362948,41.1052488 Z M83.5105651,36.279961 L87.0260049,41.1052488 L85.4635872,41.1052488 L81.2348698,35.2484683 C82.5255691,35.2484683 83.4596138,35.1727097 84.0370319,35.0211902 C85.3050874,34.67153 85.9391057,33.7624269 85.9391057,32.2938537 C85.9391057,31.0933533 85.4975572,30.271664 84.6144472,29.828761 C83.9690975,29.5140667 83.0067484,29.356722 81.727371,29.356722 L79.9611597,29.356722 L79.9611597,41.1052488 L78.7044324,41.1052488 L78.7044324,28.1853659 L81.812285,28.1853659 C83.4086763,28.1853659 84.5804778,28.3951589 85.3277248,28.8147512 C86.5844584,29.5140718 87.2128157,30.6912438 87.2128157,32.3463024 C87.2128157,34.2461233 86.3806668,35.469916 84.716344,36.0177171 C84.3540424,36.1459258 83.9521201,36.2333396 83.5105651,36.279961 Z M89.5437052,41.1052488 L89.5437052,28.1853659 L95.9122555,28.1853659 L95.9122555,29.356722 L90.8004324,29.356722 L90.8004324,34.0246634 L95.7254447,34.0246634 L95.7254447,35.1960195 L90.8004324,35.1960195 L90.8004324,41.1052488 L89.5437052,41.1052488 Z M98.3110762,41.1052488 L98.3110762,28.1853659 L99.5678034,28.1853659 L99.5678034,39.9338927 L104.764541,39.9338927 L104.764541,41.1052488 L98.3110762,41.1052488 Z M108.319253,41.1052488 L108.319253,36.7869659 L103.971656,28.1853659 L105.364246,28.1853659 L108.930634,35.4232976 L112.581936,28.1853659 L113.957543,28.1853659 L109.57598,36.7869659 L109.57598,41.1052488 L108.319253,41.1052488 Z" id="BUTTERFLY" fill="#6F6F6F"></path>
                <path d="M37.2016511,50.3553561 L38.1372973,50.3553561 C37.2853225,51.9763593 35.9997727,52.7868488 34.2806093,52.7868488 C33.0330748,52.7868488 31.9871394,52.3679001 31.1427715,51.5299902 C30.3136175,50.6294329 29.8838331,49.5605265 29.8534054,48.323239 C29.8534054,47.031135 30.2641728,45.9543978 31.0857199,45.0929951 C31.9148739,44.2394234 32.9608094,43.8087285 34.2235577,43.8008976 C35.4406646,43.8008976 36.448566,44.1924384 37.2472924,44.9755317 C37.6124244,45.3279237 37.8976796,45.7390416 38.1030663,46.2088976 L37.1560098,46.2088976 C36.8745539,45.7547034 36.5778885,45.4218937 36.2660049,45.2104585 C36.258398,45.2026276 36.2469878,45.1947968 36.231774,45.1869659 C35.6688621,44.7954192 35.0108735,44.5996488 34.2577887,44.5996488 C33.2232479,44.5996488 32.3636791,44.9716125 31.6790565,45.7155512 C31.0324685,46.4125043 30.7091794,47.2699786 30.7091794,48.288 C30.7091794,49.2981904 31.0552889,50.167411 31.7475184,50.8956878 C32.4397479,51.6161337 33.2802997,51.9802666 34.269199,51.9880976 C35.0755323,51.9880976 35.7715548,51.7492577 36.3572875,51.2715707 C36.585495,51.0914593 36.8669467,50.7860574 37.2016511,50.3553561 Z M38.7677838,52.6341463 L42.384855,43.9536 L43.3319115,43.9536 L46.9603931,52.6341463 L46.0361572,52.6341463 L44.8152531,49.7093073 L40.8901032,49.7093073 L39.6577887,52.6341463 L38.7677838,52.6341463 Z M41.2095921,48.9223024 L44.4843538,48.9223024 L42.8640885,44.9402927 L41.2095921,48.9223024 Z M51.3148894,49.3921561 L53.6768256,52.6341463 L52.6270762,52.6341463 L49.7859066,48.699122 C50.6530952,48.699122 51.2806565,48.6482216 51.6686093,48.5464195 C52.5205841,48.3114915 52.9465651,47.7006879 52.9465651,46.7139902 C52.9465651,45.9074041 52.6498998,45.3553316 52.0565602,45.0577561 C51.6229659,44.8463209 50.9763876,44.7406049 50.1168059,44.7406049 L48.9301327,44.7406049 L48.9301327,52.6341463 L48.085769,52.6341463 L48.085769,43.9536 L50.1738575,43.9536 C51.2464329,43.9536 52.033737,44.0945547 52.5357936,44.3764683 C53.3801615,44.8463243 53.8023391,45.6372367 53.8023391,46.7492293 C53.8023391,48.0256714 53.243239,48.8479071 52.1250221,49.215961 C51.8816007,49.3021012 51.6115592,49.3608324 51.3148894,49.3921561 Z M55.6752236,52.6341463 L55.6752236,43.9536 L57.6606192,43.9536 C58.9385813,43.9536 59.9160556,44.125878 60.5930713,44.470439 C60.6919612,44.5252556 60.7870462,44.5800713 60.8783292,44.6348878 C62.0421876,45.3475028 62.6773557,46.443817 62.7838526,47.9238634 C62.7914595,48.0569893 62.7952629,48.1901132 62.7952629,48.323239 C62.7952629,49.9364113 62.171505,51.1384416 60.9239705,51.9293659 L60.8440983,51.9880976 C60.129048,52.4187989 59.162984,52.6341463 57.9458771,52.6341463 L55.6752236,52.6341463 Z M56.5195872,51.8471415 L57.6948501,51.8471415 C58.9575985,51.8471415 59.8894319,51.6474557 60.4903784,51.248078 C60.5740545,51.1932615 60.6539259,51.1345304 60.7299951,51.0718829 C61.475473,50.4532392 61.8748302,49.5996802 61.9280786,48.5111805 C61.9356855,48.4407021 61.9394889,48.3663093 61.9394889,48.288 C61.9394889,47.1838384 61.5819692,46.3028716 60.8669189,45.6450732 C60.7223875,45.5197782 60.5702514,45.4062314 60.4105061,45.3044293 C59.8095596,44.9285445 58.90435,44.7406049 57.6948501,44.7406049 L56.5195872,44.7406049 L56.5195872,51.8471415 Z" id="CARD" fill="#B1B3B2"></path>
                <path d="M8.25643638,32.33663 L15.2848886,27.8182242 L15.2848886,27.8182242 C16.5693223,26.9924958 18.2799467,27.3643499 19.1056751,28.6487835 C19.1220471,28.6742506 19.1379998,28.6999848 19.1535266,28.7259758 L28.3243095,44.0773763 L28.3243095,44.0773763 C29.0863606,45.3530092 28.7038497,47.0028503 27.4582143,47.8130068 L20.4920922,52.3437461 L20.4920922,52.3437461 C19.2120568,53.1762763 17.4994839,52.8135016 16.6669537,51.5334661 C16.649104,51.5060216 16.631743,51.4782623 16.6148792,51.4502012 L7.38176616,36.0864672 L7.38176616,36.0864672 C6.61197624,34.8055507 6.99936262,33.1447695 8.25643638,32.33663 Z" id="Rectangle-4" fill="#5FBBEA"></path>
                <path d="M18.2444018,31.3672446 L25.7974277,26.4206853 C26.7866354,25.7728423 27.9907788,25.7836625 28.7280139,27.0915274 C28.9375095,27.4631753 29.0597451,27.8490283 29.0597451,28.2645508 C29.1562304,29.204858 29.2044731,30.0178088 29.2044731,30.7034033 C29.2044731,31.7317951 28.6399811,37.5169954 28.5977039,40.1317951 C28.5695191,41.8749949 28.6928137,43.6158965 28.9675878,45.3544997 C29.0243526,46.1560102 28.6492144,46.9249245 27.9907788,47.3566487 L20.3663862,52.3558234 C19.377514,53.0042088 18.0652905,52.7045823 17.4354532,51.6865888 C17.2192903,51.337209 17.1910772,51.0197429 17.1031201,50.4475249 C17.015163,49.8753069 16.9528007,49.2452002 17.1031201,46.5186282 C17.2534395,43.7920561 17.6276582,40.3651755 17.6276582,38.9198667 C17.6276582,37.7008971 17.447731,36.2152923 17.3451341,35.023349 C17.2912581,34.3974318 17.2337316,34.3302307 17.2725403,33.4384848 C17.3113491,32.5467389 17.5651471,31.8120959 18.2444018,31.3672446 Z" id="Rectangle-5" fill="#2CA9E1"></path>
                <path d="M20.0906635,30.2341463 L28.2471262,43.887629 C29.0463342,45.2254605 28.6517577,46.9761842 27.3619653,47.8150602 L20.4683968,52.2986109 C19.9655236,52.6256777 19.3998967,52.7665834 18.8476992,52.7390249 C18.2858125,52.634135 17.7664197,52.2975621 17.4354532,51.7626275 C17.2192903,51.4132478 17.1910772,51.0957816 17.1031201,50.5235637 C17.015163,49.9513457 16.9528007,49.321239 17.1031201,46.5946669 C17.2534395,43.8680949 17.6276582,40.4412143 17.6276582,38.9959055 C17.6276582,37.7769358 17.447731,36.291331 17.3451341,35.0993878 C17.2912581,34.4734706 17.2337316,34.4062694 17.2725403,33.5145235 C17.3113491,32.6227776 17.5651471,31.8881347 18.2444018,31.4432833 L20.0906635,30.2341463 Z" id="Combined-Shape" fill="#008AD2"></path>
            </g>
        </g>
    </g>
</svg>