<svg xmlns="http://www.w3.org/2000/svg" width="120" height="80" viewBox="0 0 120 80">
  <g fill="none" fill-rule="evenodd">
    <rect width="120" height="80" fill="#FFFFFF" rx="4"/>
    <g fill="#64B439" transform="translate(17 22)">
      <path d="M15.2653061 8.02173913L20.6694946 8.02173913 24.5031555 17.2697314 27.3845437 8.02173913 29.6326531 8.02173913 24.3207223 23.5658633C23.7507532 25.3975432 22.6429664 26.9958902 20.9973619 28.3609042 18.5289552 30.4084252 15.8872449 28.9720287 15.7067978 28.1921906 15.5263506 27.4123526 15.8107799 26.008239 17.1166432 26.23811 18.4225065 26.4679811 17.7379093 26.3997818 18.8004748 26.5281096 19.8630404 26.6564374 21.953703 25.9517761 22.1366487 24.518177 22.3195945 23.0845779 21.6036041 21.8571842 20.6694946 19.3929436 20.046755 17.7501166 18.2453588 13.9597151 15.2653061 8.02173913zM38.1632653 8.02173913L43.2350301 8.02173913C43.2607173 14.4096293 43.28005 17.6837766 43.2930281 17.844181 43.3124953 18.0847876 43.5462356 19.7470862 45.2231677 19.7470862 46.9000998 19.7470862 47.4458189 18.1165628 47.4458189 17.9156587 47.4458189 17.7817227 47.4458189 14.4837495 47.4458189 8.02173913L52.5306122 8.02173913 52.5306122 22.1453888 47.4458189 22.1453888 47.4458189 20.5904706C45.4521673 21.8288713 43.8238302 22.3875241 42.5608076 22.2664292 40.6662738 22.0847867 38.5694362 22.2664292 38.2746383 18.7553414 38.2251466 16.5963788 38.1880223 13.0185114 38.1632653 8.02173913zM55.2244898 8.2558874L60.338653 8.2558874 60.338653 9.66631568C61.8949358 8.68844282 63.5001159 8.14548918 65.1541933 8.03745475 67.6353095 7.8754031 69.4524488 8.96757856 69.5453741 11.2685159 69.6073243 12.8024741 69.6073243 16.4738383 69.5453741 22.2826087L64.5783202 22.2826087C64.5410511 15.874242 64.5224166 12.6132192 64.5224166 12.4995404 64.5224166 12.3290223 64.0505745 10.6561282 62.434092 10.74238 60.8176095 10.8286317 60.4646889 12.1830777 60.338653 12.546507 60.2546291 12.7887931 60.2546291 16.0341604 60.338653 22.2826087L55.2763472 22.2826087 55.2244898 8.2558874zM30.8740638 8.02173913L35.8822994 8.02173913C35.93039 17.1619679 35.93039 22.2401362 35.8822994 23.2562442 35.8101636 24.780406 35.0404988 30.1034737 28.7346939 30.3043478 29.5725392 28.8003253 30.5078408 27.9237097 30.7500551 24.5360373 30.9115312 22.277589 30.9528675 16.7728229 30.8740638 8.02173913zM79.9693712 8.0904999C83.0542154 7.59175071 88.3084544 9.78403939 87.9858066 15.3928603 87.6631588 21.0016813 84.1970487 22.692712 79.9063492 23.136669 75.6156497 23.580626 70.979878 20.0166266 71.9724225 14.5265721 72.9649669 9.03651772 76.8845271 8.58924908 79.9693712 8.0904999zM79.89415 9.69869005C79.2072452 9.77340208 77.4186607 9.79670882 77.1964417 13.4730272 76.9742227 17.1493456 77.8680341 21.375417 80.3165179 21.249099 82.7650017 21.122781 82.8410067 17.9537417 82.7754546 15.3035973 82.7099025 12.6534528 81.6605125 9.69869005 79.89415 9.69869005z"/>
      <path d="M0 0L5.03181291 0 5.03181291 9.42433033C6.88528053 8.18802706 8.48822714 7.63092169 9.84065275 7.75301424 11.8692912 7.93615306 14.6569113 8.20350591 15.2242835 14.1933739 15.7916557 20.1832419 10.3184004 22.2276635 8.40290613 22.2780658 6.48741189 22.3284681 2.62509734 21.942665 2.18953482 21.9512028 1.89915981 21.9568947 1.16931487 21.9540488 0 21.942665L0 0zM7.16962969 10.250256C6.11209952 10.3498478 4.6542862 10.2229446 4.69051636 15.053269 4.72674651 19.8835933 5.40215865 20.6374446 6.93478423 20.7542576 8.46740982 20.8710706 9.89339665 19.6987202 9.97066095 15.5910065 10.0479253 11.4832929 8.22715986 10.1506642 7.16962969 10.250256zM39.5102041 30.9570803C39.5102041 30.8043936 39.5633202 30.6765204 39.669554 30.5734568 39.7757878 30.4703933 39.9075945 30.4188623 40.0649779 30.4188623L41.9299624 30.4188623C42.6460571 30.4188623 43.2244326 30.6326205 43.6651062 31.0601434 44.113649 31.4953006 44.3379171 32.0678672 44.3379171 32.7778605 44.3379171 33.4649508 44.1254526 34.0146148 43.7005173 34.426869 43.2519745 34.8467575 42.6617954 35.0566986 41.9299624 35.0566986L40.336463 35.0566986 40.336463 38.1714924C40.336463 38.2783731 40.2951505 38.3699838 40.2125242 38.4463272 40.1298979 38.5226705 40.033502 38.5608416 39.9233336 38.5608416 39.8131651 38.5608416 39.7167692 38.5226705 39.6341429 38.4463272 39.5515166 38.3699838 39.5102041 38.2783731 39.5102041 38.1714924L39.5102041 30.9570803zM41.906355 34.2894516C42.4099821 34.2894516 42.8113038 34.1520356 43.1103324 33.8771995 43.3778842 33.6176321 43.5116581 33.2511894 43.5116581 32.7778605 43.5116581 32.2816287 43.3660806 31.8922833 43.0749213 31.6098129 42.7837619 31.3273424 42.3942437 31.1861093 41.906355 31.1861093L40.336463 31.1861093 40.336463 34.2894516 41.906355 34.2894516zM49.2914288 37.7706917C49.2914288 37.8852068 49.256018 37.9882688 49.1851955 38.0798808 49.1143729 38.1714929 49.0238788 38.2363838 48.9137104 38.2745554 48.6304202 38.3661675 48.3412325 38.436784 48.0461385 38.4864072 47.7510445 38.5360304 47.4500532 38.5608416 47.1431555 38.5608416 46.4270608 38.5608416 45.8801616 38.3967059 45.5024413 38.0684294 45.1561977 37.7706903 44.9830785 37.3469909 44.9830785 36.7973187 44.9830785 36.2629151 45.1561977 35.8392158 45.5024413 35.526208 45.6834323 35.3658869 45.9116348 35.249465 46.1870559 35.1769388 46.4624769 35.1044126 46.7811736 35.0681501 47.1431555 35.0681501L48.4887772 35.0681501 48.4887772 34.3467089C48.4887772 34.0031637 48.3746759 33.7455087 48.14647 33.5737362 47.918264 33.4019636 47.6153054 33.3160786 47.2375851 33.3160786 47.0015099 33.3160786 46.7733074 33.348524 46.5529705 33.4134159 46.3326337 33.4783077 46.1083657 33.5756441 45.8801597 33.7054278 45.8172063 33.7435995 45.7542539 33.762685 45.6913005 33.762685 45.5811321 33.762685 45.4867034 33.7302396 45.4080117 33.6653477 45.32932 33.6004559 45.2899747 33.5107538 45.2899747 33.3962387 45.2899747 33.2511863 45.3568617 33.136673 45.4906376 33.0526953 45.7660586 32.8847399 46.0532791 32.7664094 46.3523077 32.6977004 46.6513362 32.6289914 46.9464257 32.5946374 47.2375851 32.5946374 47.5130061 32.5946374 47.7746522 32.6308999 48.0225311 32.7034261 48.27041 32.7759523 48.4887763 32.88474 48.6776364 33.0297924 48.8664966 33.1748448 49.0160086 33.3561576 49.126177 33.5737362 49.2363454 33.7913147 49.2914288 34.0451526 49.2914288 34.3352574L49.2914288 37.7706917zM48.4887772 35.7895913L47.1431555 35.7895913C46.844127 35.7895913 46.6041208 35.8201282 46.4231299 35.8812029 46.2421389 35.9422776 46.1044304 36.0224369 46.0100004 36.1216833 45.9155703 36.2209296 45.8545851 36.3297173 45.827043 36.4480495 45.7995009 36.5663817 45.7857301 36.6828036 45.7857301 36.7973187 45.7857301 36.9118337 45.7995009 37.0301642 45.827043 37.1523136 45.8545851 37.274463 45.9155703 37.3870677 46.0100004 37.4901313 46.1044304 37.5931948 46.2421389 37.6771713 46.4231299 37.7420631 46.6041208 37.806955 46.844127 37.8394004 47.1431555 37.8394004 47.5995675 37.8394004 48.0481036 37.7745095 48.4887772 37.6447258L48.4887772 35.7895913zM52.1464395 38.4463272L50.1752218 33.121404C50.1673526 33.098501 50.1614508 33.0775068 50.1575162 33.058421 50.1535816 33.0393352 50.1516144 33.0183411 50.1516144 32.995438 50.1516144 32.8961917 50.1870251 32.8064896 50.2578477 32.726329 50.3286702 32.6461685 50.4270334 32.6060888 50.5529401 32.6060888 50.639501 32.6060888 50.7162243 32.6270829 50.7831123 32.6690718 50.8500002 32.7110606 50.8991818 32.774043 50.9306585 32.8580207L52.5477653 37.3355367 53.9406018 32.8694721C53.9642093 32.7854944 54.0114237 32.718695 54.0822462 32.6690718 54.1530688 32.6194486 54.2317593 32.5946374 54.3183202 32.5946374 54.4284886 32.5946374 54.5248845 32.6308999 54.6075108 32.7034261 54.6901371 32.7759523 54.7314497 32.8694715 54.7314497 32.9839866 54.7314497 33.0068896 54.7294824 33.0278837 54.7255478 33.0469696 54.7216132 33.0660554 54.7157115 33.0870495 54.7078423 33.1099525L52.6067838 39.568569C52.4651387 40.0037262 52.213329 40.3510833 51.8513471 40.6106508 51.4893651 40.8702182 51.0486981 41 50.5293327 41 50.4191643 41 50.3267029 40.965646 50.2519458 40.896937 50.1771887 40.8282279 50.1398107 40.7366173 50.1398107 40.6221022 50.1398107 40.5228558 50.1771887 40.4388794 50.2519458 40.3701704 50.3267029 40.3014613 50.4191643 40.2632902 50.5293327 40.2556559 51.2296891 40.2174842 51.6742906 39.9121153 51.8631508 39.3395401L52.1464395 38.4463272zM58.4886481 32.9839866C58.4886481 32.8771059 58.5279934 32.7854952 58.6066851 32.7091518 58.6853768 32.6328085 58.7798055 32.5946374 58.8899739 32.5946374 59.0001423 32.5946374 59.0945709 32.6328085 59.1732627 32.7091518 59.2519544 32.7854952 59.2912997 32.8771059 59.2912997 32.9839866L59.2912997 38.1714924C59.2912997 38.2783731 59.2519544 38.3699838 59.1732627 38.4463272 59.0945709 38.5226705 59.0001423 38.5608416 58.8899739 38.5608416 58.7798055 38.5608416 58.6853768 38.5226705 58.6066851 38.4463272 58.5279934 38.3699838 58.4886481 38.2783731 58.4886481 38.1714924L58.4886481 32.9839866zM58.8899739 31.3464296C58.7404596 31.3464296 58.6145547 31.2948986 58.5122555 31.191835 58.4099563 31.0887715 58.3588074 30.9647154 58.3588074 30.819663 58.3588074 30.6746106 58.4099563 30.552463 58.5122555 30.4532166 58.6145547 30.3539703 58.7404596 30.3043478 58.8899739 30.3043478 59.0394882 30.3043478 59.165393 30.3539703 59.2676923 30.4532166 59.3699915 30.552463 59.4211403 30.6746106 59.4211403 30.819663 59.4211403 30.9647154 59.3699915 31.0887715 59.2676923 31.191835 59.165393 31.2948986 59.0394882 31.3464296 58.8899739 31.3464296zM61.0824039 30.693697C61.0824039 30.5868163 61.1217492 30.4952057 61.2004409 30.4188623 61.2791326 30.3425189 61.3735613 30.3043478 61.4837297 30.3043478 61.5938981 30.3043478 61.6883267 30.3425189 61.7670185 30.4188623 61.8457102 30.4952057 61.8850555 30.5868163 61.8850555 30.693697L61.8850555 32.7091518 63.2424809 32.7091518C63.3526493 32.7091518 63.4451107 32.7454144 63.5198678 32.8179406 63.5946249 32.8904668 63.6320029 32.9801689 63.6320029 33.0870496 63.6320029 33.1939303 63.5946249 33.2817239 63.5198678 33.3504329 63.4451107 33.419142 63.3526493 33.453496 63.2424809 33.453496L61.8850555 33.453496 61.8850555 37.0148962C61.8850555 37.259195 61.9578442 37.4519591 62.1034239 37.5931943 62.2490036 37.7344295 62.42409 37.8050461 62.6286885 37.8050461 62.7152494 37.8050461 62.8254162 37.7974119 62.9591921 37.7821432 63.092968 37.7668745 63.1913312 37.7592403 63.2542846 37.7592403 63.3408455 37.7592403 63.4254378 37.7916857 63.5080641 37.8565776 63.5906904 37.9214695 63.6320029 38.0111716 63.6320029 38.1256866 63.6320029 38.2172987 63.602494 38.2993665 63.5434752 38.3718927 63.4844564 38.4444189 63.4037986 38.4883157 63.3014994 38.5035844 63.191331 38.5188531 63.0791969 38.532213 62.9650939 38.5436645 62.8509909 38.555116 62.7388569 38.5608416 62.6286885 38.5608416 62.4162209 38.5608416 62.21556 38.5226705 62.0266998 38.4463272 61.8378397 38.3699838 61.6745568 38.2631047 61.5368463 38.1256866 61.3991358 37.9882686 61.2889691 37.8222242 61.2063427 37.6275486 61.1237164 37.4328731 61.0824039 37.2210234 61.0824039 36.9919933L61.0824039 30.693697zM68.0620122 35.8239456L68.0620122 36.4652267C68.0620122 36.8774809 68.1820153 37.2095695 68.4220251 37.4615027 68.6620348 37.7134358 68.9945023 37.8394004 69.4194376 37.8394004 69.6555128 37.8394004 69.8856826 37.8088635 70.1099541 37.7477888 70.3342255 37.6867142 70.5525917 37.6103719 70.7650594 37.5187599 70.8201436 37.4958569 70.8752269 37.4844055 70.9303112 37.4844055 71.0404796 37.4844055 71.1349082 37.5187595 71.2135999 37.5874686 71.2922917 37.6561776 71.3316369 37.7439712 71.3316369 37.8508519 71.3316369 38.0111729 71.2568809 38.1256863 71.1073666 38.1943953 70.8398148 38.324179 70.5663652 38.4176983 70.2870095 38.4749558 70.0076539 38.5322133 69.7184662 38.5608416 69.4194376 38.5608416 69.0968016 38.5608416 68.8017121 38.5093106 68.5341602 38.4062471 68.2666083 38.3031835 68.0384058 38.1600419 67.8495456 37.9768178 67.6606855 37.7935937 67.515108 37.5741098 67.4128088 37.3183596 67.3105095 37.0626093 67.2593607 36.7782345 67.2593607 36.4652267L67.2593607 34.6902523C67.2593607 34.3772445 67.3105095 34.0928697 67.4128088 33.8371194 67.515108 33.5813692 67.6606855 33.3618853 67.8495456 33.1786612 68.0384058 32.9954371 68.2666083 32.8522955 68.5341602 32.7492319 68.8017121 32.6461684 69.0968016 32.5946374 69.4194376 32.5946374 69.7420737 32.5946374 70.035196 32.6461684 70.2988132 32.7492319 70.5624305 32.8522955 70.7886658 32.9954371 70.977526 33.1786612 71.1663861 33.3618853 71.3119636 33.5813692 71.4142628 33.8371194 71.5165621 34.0928697 71.5677109 34.3772445 71.5677109 34.6902523L71.5677109 35.2857276C71.5677109 35.4384143 71.5145948 35.5662875 71.408361 35.6693511 71.3021271 35.7724146 71.1703205 35.8239456 71.012937 35.8239456L68.0620122 35.8239456zM70.7650594 34.6329951C70.7650594 34.2207409 70.6470236 33.898195 70.4109484 33.6653477 70.1748732 33.4325005 69.8443729 33.3160786 69.4194376 33.3160786 68.9945023 33.3160786 68.6620348 33.4325005 68.4220251 33.6653477 68.1820153 33.898195 68.0620122 34.2207409 68.0620122 34.6329951L68.0620122 35.1025044 70.7650594 35.1025044 70.7650594 34.6329951zM76.8260532 37.7706917C76.8260532 37.8852068 76.7906425 37.9882688 76.7198199 38.0798808 76.6489974 38.1714929 76.5585033 38.2363838 76.4483349 38.2745554 76.1650447 38.3661675 75.8758569 38.436784 75.580763 38.4864072 75.285669 38.5360304 74.9846777 38.5608416 74.67778 38.5608416 73.9616853 38.5608416 73.414786 38.3967059 73.0370658 38.0684294 72.6908222 37.7706903 72.517703 37.3469909 72.517703 36.7973187 72.517703 36.2629151 72.6908222 35.8392158 73.0370658 35.526208 73.2180567 35.3658869 73.4462593 35.249465 73.7216803 35.1769388 73.9971014 35.1044126 74.315798 35.0681501 74.67778 35.0681501L76.0234017 35.0681501 76.0234017 34.3467089C76.0234017 34.0031637 75.9093004 33.7455087 75.6810944 33.5737362 75.4528884 33.4019636 75.1499298 33.3160786 74.7722096 33.3160786 74.5361344 33.3160786 74.3079318 33.348524 74.087595 33.4134159 73.8672582 33.4783077 73.6429901 33.5756441 73.4147841 33.7054278 73.3518308 33.7435995 73.2888783 33.762685 73.225925 33.762685 73.1157565 33.762685 73.0213279 33.7302396 72.9426362 33.6653477 72.8639445 33.6004559 72.8245992 33.5107538 72.8245992 33.3962387 72.8245992 33.2511863 72.8914861 33.136673 73.0252621 33.0526953 73.3006831 32.8847399 73.5879036 32.7664094 73.8869321 32.6977004 74.1859607 32.6289914 74.4810502 32.5946374 74.7722096 32.5946374 75.0476306 32.5946374 75.3092766 32.6308999 75.5571556 32.7034261 75.8050345 32.7759523 76.0234007 32.88474 76.2122609 33.0297924 76.401121 33.1748448 76.550633 33.3561576 76.6608014 33.5737362 76.7709699 33.7913147 76.8260532 34.0451526 76.8260532 34.3352574L76.8260532 37.7706917zM76.0234017 35.7895913L74.67778 35.7895913C74.3787514 35.7895913 74.1387453 35.8201282 73.9577543 35.8812029 73.7767634 35.9422776 73.6390549 36.0224369 73.5446248 36.1216833 73.4501948 36.2209296 73.3892096 36.3297173 73.3616675 36.4480495 73.3341254 36.5663817 73.3203546 36.6828036 73.3203546 36.7973187 73.3203546 36.9118337 73.3341254 37.0301642 73.3616675 37.1523136 73.3892096 37.274463 73.4501948 37.3870677 73.5446248 37.4901313 73.6390549 37.5931948 73.7767634 37.6771713 73.9577543 37.7420631 74.1387453 37.806955 74.3787514 37.8394004 74.67778 37.8394004 75.134192 37.8394004 75.582728 37.7745095 76.0234017 37.6447258L76.0234017 35.7895913zM79.1077978 35.6063681C78.8323768 35.4918531 78.5923706 35.3219916 78.3877721 35.0967787 78.1831737 34.8715658 78.080876 34.5566541 78.080876 34.1520343 78.080876 33.9153698 78.1320248 33.7016116 78.234324 33.5107532 78.3366233 33.3198948 78.4743317 33.155759 78.6474535 33.0183409 78.8205753 32.8809229 79.0232035 32.7759523 79.255344 32.7034261 79.4874846 32.6308999 79.7333926 32.5946374 79.9930752 32.5946374 80.2842346 32.5946374 80.5458807 32.6213571 80.7780212 32.6747975 81.0101618 32.7282379 81.2285281 32.7969459 81.4331265 32.8809236 81.5983792 32.9572669 81.6810042 33.0794145 81.6810042 33.2473699 81.6810042 33.3542506 81.641659 33.4401356 81.5629672 33.5050275 81.4842755 33.5699193 81.3898469 33.6023648 81.2796785 33.6023648 81.2324634 33.6023648 81.1813146 33.5909134 81.1262304 33.5680104 80.7563793 33.400055 80.3471885 33.3160786 79.8986456 33.3160786 79.7806081 33.3160786 79.6625722 33.331347 79.5445347 33.3618844 79.4264971 33.3924217 79.3182976 33.438227 79.2199329 33.4993017 79.1215683 33.5603764 79.0409105 33.6424443 78.9779571 33.7455079 78.9150037 33.8485714 78.8835275 33.9726275 78.8835275 34.1176799 78.8835275 34.34671 78.9484472 34.5222971 79.0782885 34.6444465 79.2081299 34.7665959 79.3399365 34.8543895 79.4737125 34.9078298L80.5832602 35.3429848C80.9373729 35.4804029 81.2226262 35.6808012 81.4390284 35.9441858 81.6554306 36.2075704 81.7636301 36.5148479 81.7636301 36.8660274 81.7636301 37.1026918 81.7164158 37.3240843 81.6219857 37.5302113 81.5275557 37.7363384 81.395749 37.9157426 81.2265618 38.0684294 81.0573746 38.2211161 80.8567137 38.3413551 80.6245731 38.42915 80.3924326 38.5169449 80.1425901 38.5608416 79.8750382 38.5608416 79.5681405 38.5608416 79.2887891 38.5322133 79.0369756 38.4749558 78.7851621 38.4176983 78.5451559 38.3356304 78.3169499 38.2287497 78.1595665 38.1600406 78.080876 38.0417102 78.080876 37.8737548 78.080876 37.7668741 78.118254 37.6790805 78.1930111 37.6103715 78.2677682 37.5416624 78.3641641 37.5073084 78.4822017 37.5073084 78.5136784 37.5073084 78.5412201 37.5111256 78.5648276 37.5187599 78.5884351 37.5263942 78.6159768 37.5378456 78.6474535 37.5531142 78.8363137 37.6370919 79.0350073 37.7057999 79.2435403 37.7592403 79.4520734 37.8126807 79.6743742 37.8394004 79.9104493 37.8394004 80.1858704 37.8394004 80.429811 37.7649668 80.6422787 37.6160972 80.8547463 37.4672276 80.9609786 37.2591951 80.9609786 36.9919933 80.9609786 36.7476945 80.8999934 36.556839 80.7780212 36.4194209 80.6560491 36.2820029 80.469159 36.1598553 80.2173455 36.0529746L79.1077978 35.6063681zM84.5170307 38.4463272L82.5458129 33.121404C82.5379437 33.098501 82.5320419 33.0775068 82.5281073 33.058421 82.5241728 33.0393352 82.5222055 33.0183411 82.5222055 32.995438 82.5222055 32.8961917 82.5576162 32.8064896 82.6284388 32.726329 82.6992613 32.6461685 82.7976245 32.6060888 82.9235313 32.6060888 83.0100922 32.6060888 83.0868154 32.6270829 83.1537034 32.6690718 83.2205914 32.7110606 83.269773 32.774043 83.3012497 32.8580207L84.9183565 37.3355367 86.311193 32.8694721C86.3348005 32.7854944 86.3820148 32.718695 86.4528374 32.6690718 86.5236599 32.6194486 86.6023504 32.5946374 86.6889113 32.5946374 86.7990798 32.5946374 86.8954757 32.6308999 86.978102 32.7034261 87.0607283 32.7759523 87.1020408 32.8694715 87.1020408 32.9839866 87.1020408 33.0068896 87.1000736 33.0278837 87.096139 33.0469696 87.0922044 33.0660554 87.0863026 33.0870495 87.0784334 33.1099525L84.9773749 39.568569C84.8357298 40.0037262 84.5839201 40.3510833 84.2219382 40.6106508 83.8599563 40.8702182 83.4192892 41 82.8999239 41 82.7897555 41 82.6972941 40.965646 82.6225369 40.896937 82.5477798 40.8282279 82.5104018 40.7366173 82.5104018 40.6221022 82.5104018 40.5228558 82.5477798 40.4388794 82.6225369 40.3701704 82.6972941 40.3014613 82.7897555 40.2632902 82.8999239 40.2556559 83.6002802 40.2174842 84.0448818 39.9121153 84.2337419 39.3395401L84.5170307 38.4463272z"/>
    </g>
  </g>
</svg>
