<?xml version="1.0" encoding="UTF-8"?>
<svg width="120px" height="80px" viewBox="0 0 120 80" version="1.1" xmlns="http://www.w3.org/2000/svg" xmlns:xlink="http://www.w3.org/1999/xlink">
    <!-- Generator: Sketch 62 (91390) - https://sketch.com -->
    <title>card_coinify</title>
    <desc>Created with Sketch.</desc>
    <g id="export-badges" stroke="none" stroke-width="1" fill="none" fill-rule="evenodd">
        <g id="production" transform="translate(-36.000000, -8512.000000)">
            <g id="card_coinify" transform="translate(36.000000, 8512.000000)">
                <rect id="Rectangle-11" fill="#FFFFFF" x="0" y="0" width="120" height="80" rx="4"></rect>
                <path d="M97.80732,32.47504 C98.55552,32.47504 99.2868,32.58628 100.00644,32.81308 L100.00644,32.81308 L99.64932,34.64668 C99.23124,34.54504 98.83008,34.49596 98.44308,34.49596 C98.06256,34.49596 97.7916,34.58392 97.62564,34.75972 C97.4592,34.93924 97.3776,35.2792 97.3776,35.78656 L97.3776,35.78656 L97.3776,36.47848 L102.14352,36.47848 L104.51976,43.52968 L106.84044,36.47848 L106.84044,36.47824 L109.5624,36.47824 L106.0548,46.03768 L105.42876,47.7664 C105.19884,48.34516 104.97852,48.78772 104.76744,49.09384 C104.5602,49.4002 104.32044,49.6468 104.0502,49.83808 C103.77792,50.02816 103.44324,50.17636 103.04736,50.28328 C102.65148,50.38588 102.20448,50.44048 101.70612,50.44048 C101.20224,50.44048 100.70784,50.38576 100.21896,50.28328 L100.21896,50.28328 L99.98448,48.2242 C100.39668,48.30412 100.76904,48.34516 101.09796,48.34516 C101.709,48.34516 102.16116,48.16564 102.45252,47.80696 C102.74808,47.45032 102.97152,46.99168 103.12644,46.43872 L103.12644,46.43872 L100.13736,38.55352 L97.37772,38.55352 L97.37772,46.41844 L94.75104,46.41844 L94.75104,38.55352 L93.44148,38.55352 L93.44148,36.48664 L94.75104,36.48664 L94.75104,35.73928 C94.75104,34.90372 94.8366,34.27948 95.01432,33.8668 C95.19372,33.45592 95.52036,33.121 95.99772,32.8624 C96.47328,32.60512 97.07664,32.47504 97.80732,32.47504 Z M54.04032,32.4664 C55.71624,32.4664 57.07668,32.96032 58.12608,33.95152 C58.74936,34.53808 59.21628,35.37868 59.52816,36.47824 L56.7894,37.13272 C56.62596,36.42232 56.28768,35.85892 55.77384,35.4478 C55.25952,35.03896 54.63348,34.83076 53.89872,34.83076 C52.88328,34.83076 52.05804,35.1946 51.42348,35.92672 C50.79252,36.65596 50.47548,37.8364 50.47548,39.46864 C50.47548,41.20372 50.7876,42.43876 51.41088,43.17052 C52.0356,43.91008 52.84608,44.27704 53.84292,44.27704 C54.5778,44.27704 55.21056,44.04196 55.74072,43.57504 C56.27088,43.10848 56.65128,42.37432 56.8812,41.368 L59.56452,42.2206 C59.15364,43.71724 58.46916,44.82664 57.51372,45.55384 C56.55648,46.28116 55.34028,46.64332 53.87064,46.64332 C52.04868,46.64332 50.55396,46.02244 49.3818,44.77984 C48.20772,43.53652 47.62176,41.83324 47.62176,39.67636 C47.62176,37.39324 48.21312,35.62252 49.3884,34.35904 C50.56728,33.09556 52.11756,32.4664 54.04032,32.4664 Z M66.08148,36.25372 C67.58256,36.25372 68.81364,36.74212 69.7752,37.71652 C70.73532,38.69248 71.21604,39.9256 71.21604,41.41564 C71.21604,42.91936 70.73064,44.16544 69.76068,45.15352 C68.7912,46.13932 67.57092,46.63552 66.09888,46.63552 C65.18988,46.63552 64.31976,46.4302 63.49584,46.0174 C62.66724,45.6088 62.03976,45.00172 61.61052,44.20648 C61.18092,43.41292 60.96408,42.44392 60.96408,41.30212 C60.96408,40.43104 61.18092,39.5872 61.61052,38.76856 C62.03976,37.95148 62.649,37.32904 63.43716,36.89968 C64.2264,36.46816 65.10612,36.25372 66.08148,36.25372 Z M91.79088,36.48676 L91.79088,46.41856 L89.16348,46.41856 L89.16348,36.48676 L91.79088,36.48676 Z M75.6348,36.47848 L75.6348,46.41016 L73.00716,46.41016 L73.00716,36.47848 L75.6348,36.47848 Z M83.68644,36.2536 C84.26628,36.2536 84.79764,36.35632 85.27896,36.56824 C85.75644,36.77596 86.11884,37.0432 86.36688,37.36468 C86.61252,37.69108 86.78268,38.05804 86.88228,38.46916 C86.9754,38.88028 87.02532,39.46888 87.02532,40.2382 L87.02532,46.41016 L84.3978,46.41016 L84.3978,41.34076 C84.3978,40.26892 84.34032,39.57556 84.22896,39.26068 C84.1158,38.94592 83.9346,38.69896 83.68116,38.52652 C83.42904,38.35228 83.12472,38.263 82.77168,38.263 C82.31604,38.263 81.90792,38.38972 81.54672,38.638 C81.18312,38.887 80.93448,39.22 80.802,39.6292 C80.667,40.04032 80.60016,40.8016 80.60016,41.91088 L80.60016,46.41016 L77.9712,46.41016 L77.9712,36.47848 L80.41368,36.47848 L80.41368,37.93624 C81.28116,36.81472 82.37112,36.2536 83.68644,36.2536 Z M66.09024,38.39452 C65.40576,38.39452 64.827,38.65672 64.359,39.18136 C63.89172,39.70384 63.65808,40.4578 63.65808,41.44444 C63.65808,42.42868 63.8916,43.1848 64.359,43.7074 C64.82688,44.22976 65.40576,44.49196 66.09024,44.49196 C66.77556,44.49196 67.35108,44.22964 67.81608,43.7074 C68.28048,43.1848 68.5134,42.42352 68.5134,41.42548 C68.5134,40.45132 68.2806,39.70372 67.81608,39.18136 C67.35108,38.65672 66.77556,38.39452 66.09024,38.39452 Z M91.79088,32.70808 L91.79088,35.14012 L89.16348,35.14012 L89.16348,32.70808 L91.79088,32.70808 Z M75.6348,32.69992 L75.6348,35.1304 L73.00716,35.1304 L73.00716,32.69992 L75.6348,32.69992 Z" id="Combined-Shape" fill="#000000" fill-rule="nonzero"></path>
                <path d="M30.18684,49.3468 C30.22324,49.3517 30.2174733,49.3892667 30.1548872,49.461375 L30.1104,49.5088 L24.51,55.10872 C24.362685,55.255615 24.1332338,55.2739769 23.9656259,55.1638056 L23.898,55.10872 L18.29592,49.5088 C18.19332,49.40548 18.17532,49.35268 18.21936,49.3468 C19.81152,50.38852 21.69132,51.01828 23.71332,51.10744 L23.95914,51.125455 L23.95914,51.125455 L24.20304,51.13204 L24.445755,51.125455 L24.69528,51.10744 C26.71656,51.01708 28.5954,50.38744 30.18684,49.3468 Z M14.84052,34.24072 C14.9901733,34.0910667 15.047477,34.1036415 14.9842816,34.258133 L14.93052,34.37356 L14.93052,34.37356 C14.04024,35.79124 13.46184,37.42204 13.30236,39.17776 C13.24908,39.51616 13.2168,39.84484 13.2168,40.15204 C13.2168,40.45024 13.24728,40.77004 13.29828,41.0992 C13.4514,42.93736 14.0562,44.64256 15.00408,46.10992 C15.0139543,46.1742057 14.9737518,46.1748376 14.8874778,46.09912 L9.24228,40.4578 C9.094965,40.3108 9.07655063,40.08148 9.18703688,39.9136588 L9.24228,39.84592 L14.84052,34.24072 Z M33.4585244,34.3406356 L33.44976,34.32268 C33.35568,34.1330267 33.3862815,34.0827511 33.5122351,34.1921648 L33.56388,34.24072 L39.16752,39.84592 C39.314625,39.99334 39.3330131,40.2226206 39.2226844,40.3901038 L39.16752,40.45768 L33.56388,46.05472 C33.44724,46.17208 33.3912,46.18372 33.40032,46.11208 C34.1051564,45.02248 34.6161084,43.7990949 34.8963017,42.4897082 L34.9734,42.09436 L27.64416,41.53276 C27.09564,42.89392 25.76412,43.85812 24.204,43.85812 C22.1574,43.85812 20.49312,42.19516 20.49312,40.15204 C20.49312,38.09524 22.1574,36.43768 24.204,36.43768 C25.6954852,36.43768 26.9783655,37.3163459 27.5674555,38.5867068 L27.64344,38.76232 L34.96392,38.1988 C34.734204,36.94978 34.2946332,35.775118 33.6802871,34.7124304 L33.4585244,34.3406356 L33.4585244,34.3406356 Z M23.898,25.1866 C24.045105,25.0396 24.27453,25.021225 24.4422954,25.131475 L24.51,25.1866 L30.1104,30.787 C30.2596267,30.93676 30.2472889,30.9938859 30.092771,30.9308183 L29.88792,30.83404 L29.88792,30.83404 C28.62972,30.0664 27.207,29.54752 25.6818,29.341 C25.16652,29.23132 24.66144,29.16184 24.204,29.16184 C23.74692,29.16184 23.24208,29.2312 22.7274,29.34064 C21.20052,29.5468 19.77732,30.06604 18.51768,30.83392 L18.37788,30.90136 C18.18812,30.9949067 18.1382119,30.96472 18.2475399,30.8386123 L18.29604,30.78688 L23.898,25.1866 Z" id="Shape" fill="#F4C567" fill-rule="nonzero"></path>
            </g>
        </g>
    </g>
</svg>