<?xml version="1.0" encoding="UTF-8"?>
<svg width="120px" height="80px" viewBox="0 0 120 80" version="1.1" xmlns="http://www.w3.org/2000/svg" xmlns:xlink="http://www.w3.org/1999/xlink">
    <!-- Generator: Sketch 52.1 (67048) - http://www.bohemiancoding.com/sketch -->
    <title>card_crif</title>
    <desc>Created with Sketch.</desc>
    <g id="export-badges" stroke="none" stroke-width="1" fill="none" fill-rule="evenodd">
        <g id="production-final" transform="translate(-36.000000, -6542.000000)">
            <g id="card_crif" transform="translate(36.000000, 6542.000000)">
                <rect id="Rectangle-11" fill="#FFFFFF" x="0" y="0" width="120" height="80" rx="4"></rect>
                <g id="Group-19" transform="translate(13.000000, 22.000000)">
                    <polygon id="Fill-3" fill="#003B79" points="12.9297797 19.0637208 8.25288136 25.3859094 8.12223729 25.6133434 7.82749153 26.2330415 7.66418644 26.6562113 7.53354237 27.0801736 7.40289831 27.569117 7.37023729 28.0255698 7.37023729 28.2530038 7.37023729 28.4812302 7.43555932 28.7094566 7.50088136 28.9051925 7.59886441 29.1009283 7.69684746 29.2966642 7.82749153 29.4916075 7.9589322 29.6548528 8.12223729 29.7848151 8.28554237 29.9155698 8.48230508 30.0455321 8.67827119 30.1437962 8.87423729 30.2412679 9.071 30.3070415 9.29962712 30.3720226 9.52825424 30.4045132 10.575 30.4370038 12.5043898 30.4370038 17.8361017 30.4370038 25.1617288 30.4045132 28.3338305 25.8090792 15.5785085 25.8090792 15.5131864 25.8090792 15.3498814 25.7765887 15.2192373 25.7116075 15.1204576 25.645834 15.0551356 25.5158717 14.9898136 25.3859094 14.9571525 25.1901736 14.9244915 25.0586264 14.9571525 24.9286642 14.9898136 24.8311925 15.0877966 24.6687396 15.1204576 24.6362491 19.0780169 19.0637208"></polygon>
                    <polygon id="Fill-4" fill="#003B79" points="39.1917864 10.0360981 35.790261 14.9897208 16.2326847 14.9897208 16.4294475 14.6965132 16.6907356 14.3708151 17.0508034 13.9468528 17.5088542 13.457117 18.0322271 12.9364755 18.6854475 12.3492679 19.4374475 11.7628528 19.8301763 11.5029283 20.2555661 11.2414189 20.6482949 11.0139849 21.0410237 10.8190415 21.7930237 10.5250415 22.4789051 10.2976075 23.0676 10.1335698 23.5256508 10.0360981 23.9510407 9.97111698"></polygon>
                    <polygon id="Fill-5" fill="#003B79" points="35.2344661 19.1612717 41.0879576 19.1612717 33.7623305 30.3713094 27.5814322 30.3713094"></polygon>
                    <polygon id="Fill-6" fill="#003B79" points="38.2104424 14.9246604 50.4423915 14.9246604 50.5403746 14.9246604 50.7697983 14.9246604 50.9004424 14.9571509 51.0637475 15.0221321 51.2278492 15.1196038 51.3911542 15.2511509 51.5217983 15.4136038 51.6197814 15.543566 51.6843068 15.7060189 51.7169678 15.837566 51.7496288 16.065 51.7496288 16.2599434 51.7169678 16.3914906 51.6197814 16.586434 51.3584932 17.1078679 50.9657644 17.694283 50.6064932 18.1832264 50.4097305 18.3456792 50.2129678 18.5422075 49.9843407 18.7054528 49.7557136 18.8354151 49.2968661 19.0303585 48.9702559 19.1611132 48.7408322 19.1943962 48.5122051 19.2268868 48.283578 19.2268868 42.6913746 19.2268868 45.0126966 30.3719434 50.9984254 30.3719434 49.5589508 23.2993019 50.0496627 23.1693396 50.5730356 23.0068868 51.2605102 22.7778679 52.0443746 22.4529623 52.8298322 22.0939811 53.2544254 21.8665472 53.6471542 21.6050377 54.0398831 21.3451132 54.3999508 21.0511132 54.661239 20.7911887 54.9559847 20.4646981 55.2507305 20.0732264 55.5104254 19.6500566 56.0999169 18.7379434 56.6232898 17.7592642 57.1140017 16.8463585 57.4740695 16.0974906 57.8333407 15.3811132 57.9974424 14.7289245 58.1280864 14.1092264 58.2260695 13.3920566 58.2260695 13.0013774 58.1934085 12.6431887 58.0954254 12.2842075 57.9647814 11.9268113 57.8333407 11.6003208 57.7026966 11.3396038 57.5067305 10.9489245 57.3434254 10.7523962 57.1793237 10.5899434 57.015222 10.4599811 56.8519169 10.3625094 56.4926458 10.1984717 56.165239 10.101 55.9031542 10.0360189 55.6418661 10.0360189 55.4451034 10.0685094 41.4478661 10.0685094"></polygon>
                    <polygon id="Fill-7" fill="#003B79" points="65.5519356 10.0035283 71.5368678 10.0035283 68.1680034 14.9571509 62.2165288 14.9571509"></polygon>
                    <polygon id="Fill-8" fill="#003B79" points="59.5007254 19.1612717 65.2578271 19.1612717 57.7027763 30.3713094 51.8476915 30.3713094"></polygon>
                    <polygon id="Fill-9" fill="#003B79" points="74.0218932 10.0036075 70.6856898 14.9572302 89.7198932 14.9572302 93.2528593 10.0036075"></polygon>
                    <polygon id="Fill-10" fill="#003B79" points="80.9563051 19.1612717 77.3261525 24.212366 70.326339 24.212366 66.1082881 30.3713094 60.2205424 30.3713094 67.8735763 19.1612717"></polygon>
                    <polygon id="Fill-11" fill="#EE7D11" points="11.4905441 6.15815094 11.4905441 6.15815094 12.7005949 5.76667925 13.2239678 5.63671698 13.6493576 5.57173585 13.8461203 5.57173585 14.0420864 5.60422642 14.2388492 5.63671698 14.4348153 5.70169811 14.5981203 5.79916981 14.7932898 5.92992453 14.9573915 6.09316981 15.1533576 6.28811321 15.5134254 6.67958491 15.8400356 7.13603774 16.1021203 7.56 16.3307475 7.91739623 16.5928322 8.53630189 16.6908153 8.76532075 16.5601712 8.92777358 16.1021203 9.28675472 15.7420525 9.51418868 15.3493237 9.74320755 14.8912729 9.97143396 14.4021542 10.1663774 13.6820186 10.3946038 12.9953407 10.5578491 12.3078661 10.6878113 12.4719678 10.0689057 12.8646966 8.86279245 13.1913068 8.11392453 13.5840356 7.20101887 14.0420864 6.15815094 13.1586458 6.06067925 12.9626797 6.32060377 12.5046288 7.00607547 12.2098831 7.49343396 11.9159339 8.08143396 11.5893237 8.70033962 11.2619169 9.41671698 11.0324932 9.97143396 10.8365271 10.5253585 10.5099169 11.5682264 10.3131542 12.2846038 10.2478322 12.5786038 10.8038661 12.5136226 12.144561 12.3170943 12.9626797 12.1871321 13.8461203 11.9921887 14.6626458 11.7956604 15.4473068 11.600717 16.7887983 11.1442642 17.8682051 10.7203019 18.2943915 10.5253585 18.6528661 10.3621132 18.9468153 10.1663774 19.1427814 10.0364151 19.274222 9.84067925 19.4375271 9.61166038 19.6342898 9.28675472 19.8302559 8.89528302 20.0588831 8.37384906 20.2556458 7.78743396 20.4189508 7.03856604 20.6157136 6.19064151 20.6810356 5.79916981 20.7136966 5.44177358 20.7136966 4.72301887 20.6810356 4.13739623 20.6157136 3.61596226 20.5177305 3.19279245 20.4189508 2.86630189 20.3209678 2.60637736 20.2556458 2.57388679 20.0923407 2.60637736 19.6996119 2.67135849 19.1101203 2.93128302 18.5875441 3.19279245 18.3270525 3.35524528 18.0649678 3.58267925 17.8355441 3.84418868 17.639578 4.07241509 17.8682051 4.62554717 17.9669847 4.95283019 18.0323068 5.31022642 18.0649678 5.63671698 18.0976288 5.99490566 18.0649678 6.35309434 17.9996458 6.71207547 17.6069169 6.12566038 17.2141881 5.60422642 16.8214593 5.14777358 16.4621881 4.78958491 16.1021203 4.46309434 15.7420525 4.20237736 15.3819847 4.00664151 15.0553746 3.87667925 14.5981203 3.74671698 14.1400695 3.68173585 13.7146797 3.68173585 13.2239678 3.74671698 12.7005949 3.90916981 12.079239 4.13739623 11.327239 4.43060377 10.4119339 4.82207547 9.46317119 5.27773585 8.38376441 5.83166038 7.23903559 6.45215094 6.02898475 7.13603774 3.67420508 8.47132075 1.74481525 9.64415094 0.828713559 10.2313585 5.40762881 8.43883019 9.00512034 7.10354717"></polygon>
                    <polygon id="Fill-12" fill="#EE7D11" points="21.8994508 0.271890566 21.7927051 0.290909434 20.812078 0.585701887 20.1254 0.780645283 19.3391458 1.07385283 18.4230441 1.43204151 17.4432136 1.85600377 17.0512814 2.08502264 16.6577559 2.3124566 15.9057559 2.83389057 15.349722 3.22536226 15.1529593 3.42030566 15.7751119 3.61524906 15.9057559 3.48528679 16.3311458 3.12789057 17.0178237 2.6064566 17.4758746 2.3124566 17.9992475 2.0184566 18.6524678 1.69355094 19.3391458 1.36706038 20.7140949 0.780645283 21.7273831 0.389966038 22.034078 0.271890566"></polygon>
                </g>
            </g>
        </g>
    </g>
</svg>