<?xml version="1.0" encoding="UTF-8"?>
<svg width="120px" height="80px" viewBox="0 0 120 80" version="1.1" xmlns="http://www.w3.org/2000/svg" xmlns:xlink="http://www.w3.org/1999/xlink">
    <title>Crypto</title>
    <g id="Crypto" stroke="none" stroke-width="1" fill="none" fill-rule="evenodd">
        <g id="crypto">
            <rect id="Background" fill="#FFFFFE" fill-rule="nonzero" x="0" y="0" width="120" height="80" rx="4"></rect>
            <path d="M60,15 C51.7729494,15 44.4960176,19.0816545 40.0693017,25.3360015 C39.7985761,25.7185 39.5390066,26.1084244 39.2908609,26.5052191 C38.9484654,26.1918514 38.5946859,25.8915812 38.230045,25.6059619 C35.2503562,23.2720032 31.501201,21.8817204 27.4285714,21.8817204 C22.5763554,21.8817204 18.1834983,23.8555189 15.0036951,27.0467191 C11.823892,30.2379194 9.85714286,34.6465215 9.85714286,39.516129 C9.85714286,44.3857365 11.823892,48.7943387 15.0036951,51.9855389 C18.1834983,55.1767392 22.5763554,57.1505376 27.4285714,57.1505376 C31.5011357,57.1505376 35.2502379,55.7602921 38.2298244,53.4256582 C38.5942708,53.1400988 38.9478521,52.8399032 39.2895814,52.5256684 C39.53846,52.9222585 39.7982774,53.312621 40.0692763,53.6955449 C44.4960433,59.9506061 51.7729617,64.0322581 60,64.0322581 C68.2270506,64.0322581 75.5039824,59.9506035 79.9306983,53.6962566 C80.2014239,53.3137581 80.4609934,52.9238336 80.7091391,52.527039 C81.0515346,52.8404067 81.4053141,53.1406768 81.769955,53.4262962 C84.7496438,55.7602549 88.4987991,57.1505376 92.5714286,57.1505376 C97.4236449,57.1505376 101.816502,55.1767392 104.996305,51.9855389 C108.176108,48.7943387 110.142857,44.3857365 110.142857,39.516129 C110.142857,34.6465215 108.176108,30.2379194 104.996305,27.0467191 C101.816502,23.8555189 97.4236449,21.8817204 92.5714286,21.8817204 C88.4988643,21.8817204 84.7497621,23.2719659 81.7701756,25.6065998 C81.4057292,25.8921593 81.0521479,26.1923548 80.7104186,26.5065897 C80.46154,26.1099996 80.2017226,25.7196371 79.9307237,25.3367131 C75.5039567,19.081652 68.2270383,15 60,15 Z" id="ALL-BACKGROUND" stroke="#F7C544" stroke-width="3" fill="#FADC4A" fill-rule="nonzero"></path>
            <path d="M26.9981092,44.1686867 L21.4285714,40.6989247 L26.9973529,48.9784946 L32.5714286,40.6989247 L26.9958402,44.1686867 L26.9981092,44.1686867 Z M27.0007565,30.0537634 L21.4285714,39.647202 L27,43.0645161 L32.5714286,39.6503414 L27.0007565,30.0537634 Z" id="ETH" fill="#213D62" fill-rule="nonzero"></path>
            <polygon id="LTC" fill="#213D62" fill-rule="nonzero" points="99.6145671 47.2580645 87.5306391 47.2580645 88.54629 42.9035051 86.5714286 44.1196621 87.0511706 41.7366899 89.1166903 40.4596822 91.1428114 31.7741935 94.9151709 31.7741935 93.5202523 37.738052 98.4316406 34.7023733 97.8560597 37.1715405 92.94549 40.1948531 91.9740094 44.3491072 100.285714 44.3491072"></polygon>
            <ellipse id="BTC-BACKGROUND" stroke="#F7C544" stroke-width="3" cx="60" cy="39.516129" rx="24.4285714" ry="24.516129"></ellipse>
            <path d="M66.6381398,38.4938082 C68.0970982,37.7440561 69.009936,36.4236292 68.7967029,34.2238663 C68.5095471,31.2176635 65.9364207,30.2096134 62.6882001,29.9225366 L62.6875736,25.7526882 L60.170829,25.7526882 L60.1701243,29.8128766 C59.5079508,29.8128766 58.8329349,29.8260009 58.1609729,29.8395997 L58.1604248,25.7532416 L55.6459511,25.7530044 L55.6454813,29.921825 C55.1005351,29.933052 54.5653774,29.9437254 54.0428274,29.9437254 L54.0428274,29.9313916 L50.5714286,29.9299684 L50.5718985,32.6403976 C50.5718985,32.6403976 52.4304633,32.6051357 52.3998447,32.6393698 C53.4188683,32.6400814 53.7515995,33.2370051 53.847292,33.752257 L53.8480751,38.5025842 L53.8480751,45.1752429 C53.8032045,45.4986095 53.6144037,46.0152846 52.9018781,46.0162334 C52.9342977,46.0450122 51.0711127,46.0159171 51.0711127,46.0159171 L50.5718985,49.0467875 L53.8465089,49.0467875 C54.4566858,49.0474991 55.0562127,49.0570657 55.6443849,49.0618095 L55.6465776,53.2788583 L58.1604248,53.2795699 L58.1597199,49.1067171 C58.8513373,49.1209484 59.5189139,49.1271153 60.1709856,49.1262456 L60.1702809,53.2795699 L62.6869471,53.2795699 L62.6883567,49.0695576 C66.9187177,48.8244631 69.8803307,47.7494469 70.2485355,43.7419143 C70.5453232,40.5154427 69.0399279,39.0752356 66.6381398,38.4938082 Z M58.2857143,32.6595765 C59.7330925,32.6595765 64.2850755,32.1985501 64.2857143,35.222842 C64.2850755,38.1222643 59.7345298,37.7835493 58.2857143,37.7835493 L58.2857143,32.6595765 L58.2857143,32.6595765 Z M58.2857143,46.3852544 L58.2867797,40.4049332 C59.9440671,40.4044255 65.1421723,39.8751224 65.1428571,43.3937399 C65.143542,46.7680789 59.9440671,46.3839004 58.2857143,46.3852544 Z" id="BTC" fill="#213D62" fill-rule="nonzero"></path>
        </g>
    </g>
</svg>