<?xml version="1.0" encoding="UTF-8"?>
<svg width="120px" height="80px" viewBox="0 0 120 80" version="1.1" xmlns="http://www.w3.org/2000/svg" xmlns:xlink="http://www.w3.org/1999/xlink">
    <title>Dankort</title>
    <defs>
        <polygon id="path-1" points="0.0129927307 0.036934901 91.9612106 0.036934901 91.9612106 60.9161773 0.0129927307 60.9161773"></polygon>
    </defs>
    <g id="Dankort" stroke="none" stroke-width="1" fill="none" fill-rule="evenodd">
        <rect id="Background" fill="#FFFFFE" fill-rule="nonzero" x="0" y="0" width="120" height="80" rx="4"></rect>
        <g transform="translate(14.000000, 10.000000)" id="DK-Logo">
            <g id="g14-Clipped" transform="translate(46.000000, 30.500000) scale(-1, 1) rotate(-180.000000) translate(-46.000000, -30.500000) translate(-0.000000, 0.000000)">
                <mask id="mask-2" fill="white">
                    <use xlink:href="#path-1"></use>
                </mask>
                <g id="path16"></g>
                <g id="g14" mask="url(#mask-2)">
                    <g transform="translate(0.000000, 2.631372)">
                        <g id="g20" transform="translate(0.392304, 0.490392)">
                            <path d="M27.3229484,54.5411751 C12.3549405,54.5411751 0.177121491,42.3459597 0.177121491,27.3561311 C0.177121491,12.3647715 12.3549405,0.168407839 27.3229484,0.168407839 L63.8806713,0.168407839 C78.8467685,0.168407839 91.0228679,12.3647715 91.0228679,27.3561311 C91.0228679,42.3459597 78.8467685,54.5411751 63.8806713,54.5411751 L27.3229484,54.5411751 Z" id="path22" fill="#FFFFFF" fill-rule="nonzero"></path>
                        </g>
                        <g id="g24" transform="translate(0.010165, 0.059804)"></g>
                        <g id="g28" transform="translate(70.663545, 14.962194)">
                            <path d="M0,14.5443134 L12.1566103,0.0639184298 C14.674334,3.70822579 16.1530214,8.12567823 16.1530214,12.8841565 C16.1530214,17.9063462 14.5056196,22.5509579 11.7257484,26.3051131 L0,14.5443134 Z" id="path30" fill="#E41D27" fill-rule="nonzero"></path>
                        </g>
                        <g id="g32" transform="translate(10.421125, 32.346897)">
                            <path d="M25.7943919,10.1427448 C34.8726803,10.1427448 41.7129709,7.82924216 42.4170623,0.168216466 L51.971305,10.1438931 L70.995911,10.1438931 C66.8573441,14.9955698 60.7071968,18.0776246 53.8518117,18.0776246 L17.2940889,18.0776246 C10.4362199,18.0776246 4.28492616,14.9955698 0.146168221,10.1427448 L25.7943919,10.1427448 Z" id="path34" fill="#E41D27" fill-rule="nonzero"></path>
                        </g>
                        <g id="g36" transform="translate(18.009702, 23.837364)">
                            <path d="M3.24818268,8.99450958 L0.00630529579,0.0669803905 L13.0859727,0.0669803905 C16.9526476,0.0669803905 18.1225665,1.67029957 18.9879206,4.75694733 C19.8442944,7.80991353 17.6932332,8.99450958 15.0507411,8.99450958 L3.24818268,8.99450958 Z" id="path38" fill="#E41D27" fill-rule="nonzero"></path>
                        </g>
                        <g id="g40" transform="translate(9.927688, 5.195458)">
                            <path d="M52.5441316,8.61176449 L42.4394174,21.4021485 C40.5701838,12.681493 34.454238,8.61329547 22.9891085,8.61329547 L0.139671855,8.61329547 C4.27327092,3.41083286 10.6475428,0.0690854885 17.7874305,0.0690854885 L54.3453444,0.0690854885 C61.4827482,0.0690854885 67.8556826,3.40949325 71.9894728,8.61176449 L52.5441316,8.61176449 Z" id="path42" fill="#E41D27" fill-rule="nonzero"></path>
                        </g>
                    </g>
                </g>
            </g>
        </g>
    </g>
</svg>