<?xml version="1.0" encoding="UTF-8"?>
<svg width="120px" height="80px" viewBox="0 0 120 80" version="1.1" xmlns="http://www.w3.org/2000/svg" xmlns:xlink="http://www.w3.org/1999/xlink">
    <!-- Generator: Sketch 55.2 (78181) - https://sketchapp.com -->
    <title>card_dankort</title>
    <desc>Created with Sketch.</desc>
    <g id="export-badges" stroke="none" stroke-width="1" fill="none" fill-rule="evenodd">
        <g id="production" transform="translate(-1042.000000, -3888.000000)">
            <g id="card_dankort" transform="translate(1042.000000, 3888.000000)">
                <rect id="Rectangle-11" fill="#FFFFFF" x="0" y="0" width="120" height="80" rx="4"></rect>
                <g id="Dankort-logo" transform="translate(12.000000, 11.000000)" fill-rule="nonzero">
                    <path d="M28.8995851,0.637800687 C13.2846473,0.637800687 0.597510373,13.3340206 0.597510373,28.9402062 C0.597510373,44.5463918 13.2846473,57.262543 28.8995851,57.262543 L67.0008299,57.262543 C82.5958506,57.262543 95.3029046,44.566323 95.3029046,28.9402062 C95.3029046,13.3340206 82.6157676,0.617869416 67.0008299,0.617869416 L28.8995851,0.617869416 L28.8995851,0.637800687 Z" id="Path" fill="#FFFFFF"></path>
                    <path d="M67.0008299,57.8405498 L28.8995851,57.8405498 C12.9858921,57.8405498 0.0199170124,44.8852234 0.0199170124,28.9402062 C0.0199170124,13.0151203 12.9659751,0.0597938144 28.8995851,0.0597938144 L67.0008299,0.0597938144 C82.9145228,0.0597938144 95.8605809,13.0151203 95.8605809,28.9402062 C95.8605809,44.8852234 82.9145228,57.8405498 67.0008299,57.8405498 L67.0008299,57.8405498 Z M28.8995851,0.637800687 C13.2846473,0.637800687 0.597510373,13.3340206 0.597510373,28.9402062 C0.597510373,44.5463918 13.2846473,57.262543 28.8995851,57.262543 L67.0008299,57.262543 C82.5958506,57.262543 95.3029046,44.566323 95.3029046,28.9402062 C95.3029046,13.3340206 82.6157676,0.617869416 67.0008299,0.617869416 L28.8995851,0.617869416 L28.8995851,0.637800687 Z" id="Shape" fill="#231F20"></path>
                    <path d="M73.653112,27.2261168 L86.320332,42.3140893 C88.9493776,38.5271478 90.4829876,33.9230241 90.4829876,28.9601375 C90.4829876,23.7381443 88.7701245,18.8948454 85.8622407,14.9883162 L73.653112,27.2261168 Z" id="Path" fill="#E31F28"></path>
                    <path d="M37.7427386,13.6927835 C47.2033195,13.6927835 54.33361,16.1044674 55.0705394,24.0769759 L65.0290456,13.6927835 L84.86639,13.6927835 C80.5443983,8.63024055 74.1510373,5.42130584 67.0008299,5.42130584 L28.8995851,5.42130584 C21.7493776,5.42130584 15.3360996,8.63024055 11.0340249,13.6927835 L37.7427386,13.6927835 Z" id="Path" fill="#E31F28"></path>
                    <path d="M22.1676349,23.7580756 L18.7817427,33.0460481 L32.4248963,33.0460481 C36.4481328,33.0460481 37.6829876,31.3718213 38.5792531,28.1628866 C39.4755187,24.9738832 37.2248963,23.7580756 34.4763485,23.7580756 L22.1676349,23.7580756 Z" id="Path" fill="#E31F28"></path>
                    <path d="M65.1286307,43.5697595 L54.5925311,30.2556701 C52.6406639,39.3443299 46.2672199,43.5697595 34.3170124,43.5697595 L10.4962656,43.5697595 C14.7983402,48.9910653 21.4506224,52.4591065 28.8995851,52.4591065 L67.0008299,52.4591065 C74.4497925,52.4591065 81.0821577,48.971134 85.3842324,43.5697595 L65.1286307,43.5697595 Z" id="Path" fill="#E31F28"></path>
                </g>
            </g>
        </g>
    </g>
</svg>