<?xml version="1.0" encoding="UTF-8" standalone="no"?>
<svg width="120px" height="80px" viewBox="0 0 120 80" version="1.1" xmlns="http://www.w3.org/2000/svg" xmlns:xlink="http://www.w3.org/1999/xlink" xmlns:sketch="http://www.bohemiancoding.com/sketch/ns">
    <!-- Generator: Sketch 3.3.2 (12043) - http://www.bohemiancoding.com/sketch -->
    <title>card_dankort@1x</title>
    <desc>Created with Sketch.</desc>
    <defs></defs>
    <g id="assets-card-icons" stroke="none" stroke-width="1" fill="none" fill-rule="evenodd" sketch:type="MSPage">
        <g id="production-final" sketch:type="MSArtboardGroup" transform="translate(-36.000000, -2948.000000)">
            <g id="card_dankort" sketch:type="MSLayerGroup" transform="translate(36.000000, 2948.000000)">
                <rect id="Rectangle-11" fill="#FFFFFF" sketch:type="MSShapeGroup" x="0" y="0" width="120" height="80" rx="4"></rect>
                <g id="Group-Copy-3-+-Shape-+-Shape" transform="translate(24.000000, 18.000000)" sketch:type="MSShapeGroup">
                    <g id="Group-Copy-3-+-Shape" transform="translate(5.500000, 5.000000)" fill="#ED1C24">
                        <g id="Group-Copy-3">
                            <path d="M52.6809715,0 C55.1483148,0.214117647 58.014464,-0.464941176 60.0462252,0.822117647 C62.0779864,1.96611765 63.492673,4.07529412 63.3842551,6.50588235 L48.7631207,6.54164706 C48.5176282,6.64 48.3638371,7.00658824 48.0734491,7.22070588 C46.0416879,9.68752941 44.0099267,12.1896471 41.9055685,14.5849412 C42.159658,11.9397647 42.2776282,9.21364706 42.6401357,6.56847059 L30.549867,6.54164706 C30.4681954,8.91858824 30.3315983,11.2602353 30.1868819,13.5124706 C29.6424043,10.9388235 27.5017476,8.11482353 24.7807924,7.36376471 C23.5112998,6.97082353 22.3139267,6.68470588 20.9713595,6.61317647 L0.0734490841,6.68470588 C0.0734490841,6.72047059 0.000852069196,6.72047059 0.000852069196,6.68470588 C-0.0354464383,4.39670588 1.08932968,2.32329412 3.12109088,1.072 C3.99177744,0.571764706 4.93506102,0.114352941 5.98724013,0.0428235294 L52.6809715,0" id="Fill-4"></path>
                            <path d="M63.36,25.254902 C63.36,25.2177564 63.3230049,25.2177564 63.36,25.254902 C60.3648584,21.9880448 57.6651907,18.3868773 55.04,14.8695064 L55.04,14.8695064 C57.776176,11.889331 60.2908682,8.95580662 63.36,6.43137255 L63.36,6.43137255 L63.36,25.254902" id="Fill-6"></path>
                            <path d="M18.9363582,15.2303818 C18.9726567,16.0882642 18.3918806,16.7677936 17.7389851,17.3037936 C16.070209,18.5550877 13.6214925,17.9564995 11.4626866,18.0543818 L11.8614925,13.1927348 C14.0293731,13.353676 18.201791,12.4600289 18.9363582,15.2303818" id="Fill-7"></path>
                            <path d="M48.145194,24.5736471 C48.3811343,25.36 49.0612537,25.1811765 49.7050746,25.1811765 L63.3471045,25.1811765 C63.456,27.6837647 61.8956418,30.1858824 59.5008955,31.1868235 C58.5943881,31.5802353 57.5785075,31.7585882 56.5263284,31.7585882 L33.6324776,31.7585882 L5.91379104,31.8305882 C3.6279403,31.6517647 1.34256716,29.9355294 0.471880597,27.7910588 C0.181492537,27.04 0,26.1463529 0,25.2884706 L20.462806,25.1811765 C23.5462687,24.824 26.5213134,23.5011765 28.3357612,20.6771765 C28.9886567,19.6404706 29.4963582,18.568 29.9319403,17.4597647 C29.7141493,20.0338824 29.6052537,22.6790588 29.3153433,25.2884706 C33.1973731,25.2527059 41.3244179,25.2884706 41.3244179,25.2884706 C41.3965373,22.0710588 41.5780299,18.7110588 41.7958209,15.5294118 L48.145194,24.5736471" id="Fill-8"></path>
                        </g>
                    </g>
                    <path d="M1.5,10.0066862 L1.5,10.0066862 L1.5,31.9933138 C1.5,36.6950307 5.30351714,40.5 9.99920117,40.5 L64.0007988,40.5 C68.6949218,40.5 72.5,36.6919088 72.5,31.9933138 L72.5,10.0066862 C72.5,5.30496927 68.6964829,1.5 64.0007988,1.5 L9.99920117,1.5 C5.3050782,1.5 1.5,5.30809117 1.5,10.0066862 L1.5,10.0066862 Z M0,10.0066862 C0,4.48014602 4.47616904,0 9.99920117,0 L64.0007988,0 C69.5232051,0 74,4.47483655 74,10.0066862 L74,31.9933138 C74,37.519854 69.523831,42 64.0007988,42 L9.99920117,42 C4.47679485,42 0,37.5251634 0,31.9933138 L0,10.0066862 L0,10.0066862 Z" id="Shape" fill="#000000"></path>
                </g>
            </g>
        </g>
    </g>
</svg>