<?xml version="1.0" encoding="UTF-8"?>
<svg width="120px" height="80px" viewBox="0 0 120 80" version="1.1" xmlns="http://www.w3.org/2000/svg" xmlns:xlink="http://www.w3.org/1999/xlink">
    <!-- Generator: Sketch 55.2 (78181) - https://sketchapp.com -->
    <title>card_diners</title>
    <desc>Created with Sketch.</desc>
    <g id="export-badges" stroke="none" stroke-width="1" fill="none" fill-rule="evenodd">
        <g id="production" transform="translate(-1042.000000, -1263.000000)">
            <g id="card_diners" transform="translate(1042.000000, 1263.000000)">
                <rect id="Rectangle-11" fill="#FFFFFF" x="0" y="0" width="120" height="80" rx="4"></rect>
                <g id="dinersClub_accmark_eps" transform="translate(15.000000, 8.000000)">
                    <path d="M2.40553191,39.5617021 C2.40553191,37.8727273 1.52386879,37.9837524 0.680471631,37.9659574 L0.680471631,37.4777563 C1.4117766,37.5133462 2.16163475,37.5133462 2.89487234,37.5133462 C3.68260993,37.5133462 4.75212411,37.4777563 6.14168085,37.4777563 C11.0010709,37.4777563 13.6479929,40.7253385 13.6479929,44.0510638 C13.6479929,45.9121857 12.559539,50.5876209 5.91595035,50.5876209 C4.95968794,50.5876209 4.07647872,50.5504836 3.1948156,50.5504836 C2.35103191,50.5504836 1.52386879,50.5678917 0.680471631,50.5876209 L0.680471631,50.0990329 C1.80525887,49.9852998 2.35103191,49.9485493 2.40553191,48.6715667 L2.40553191,39.5617021 Z M4.24461702,48.3702128 C4.24461702,49.8170213 5.27779787,49.9852998 6.1969539,49.9852998 C10.2515993,49.9852998 11.5820177,46.9245648 11.5820177,44.126499 C11.5820177,40.6143133 9.33051064,38.0793037 5.70915957,38.0793037 C4.93804255,38.0793037 4.58321277,38.134236 4.24461702,38.154352 L4.24461702,48.3702128 L4.24461702,48.3702128 Z" id="Fill-5" fill="#1A1919"></path>
                    <path d="M14.3054716,50.0990329 L14.6610745,50.0990329 C15.1863617,50.0990329 15.5620638,50.0990329 15.5620638,49.4777563 L15.5620638,44.3883946 C15.5620638,43.5632495 15.2810603,43.4491296 14.5857021,43.0746615 L14.5857021,42.7748549 C15.4677518,42.5094778 16.5194858,42.1551257 16.5936986,42.098646 C16.7258901,42.0232108 16.8368227,42.0030948 16.9322943,42.0030948 C17.0242872,42.0030948 17.0629397,42.1160542 17.0629397,42.2676983 L17.0629397,49.4777563 C17.0629397,50.0990329 17.4765213,50.0990329 18.0025816,50.0990329 L18.320305,50.0990329 L18.320305,50.5876209 C17.6821525,50.5876209 17.0242872,50.5504836 16.350961,50.5504836 C15.6753156,50.5504836 14.9992837,50.5678917 14.3054716,50.5876209 L14.3054716,50.0990329 Z M16.3130816,39.1117988 C15.8241277,39.1117988 15.393539,38.6611219 15.393539,38.1729207 C15.393539,37.7025145 15.8446135,37.2696325 16.3130816,37.2696325 C16.8001028,37.2696325 17.2330106,37.6653772 17.2330106,38.1729207 C17.2330106,38.6808511 16.8190426,39.1117988 16.3130816,39.1117988 L16.3130816,39.1117988 Z" id="Fill-6" fill="#1A1919"></path>
                    <path d="M20.1037305,44.501354 C20.1037305,43.8077369 19.8965532,43.6201161 19.0160496,43.2626692 L19.0160496,42.9059961 C19.8215674,42.6433269 20.5903652,42.3980658 21.4921277,42.0030948 C21.5489468,42.0030948 21.6034468,42.040619 21.6034468,42.1907157 L21.6034468,43.4119923 C22.6748936,42.6433269 23.5944362,42.0030948 24.853734,42.0030948 C26.4466028,42.0030948 27.009383,43.1678917 27.009383,44.632882 L27.009383,49.4777563 C27.009383,50.0990329 27.4233511,50.0990329 27.9482518,50.0990329 L28.2868475,50.0990329 L28.2868475,50.5876209 C27.6278227,50.5876209 26.9718901,50.5504836 26.2970177,50.5504836 C25.6209858,50.5504836 24.9449539,50.5678917 24.2693085,50.5876209 L24.2693085,50.0990329 L24.6079043,50.0990329 C25.133578,50.0990329 25.5073475,50.0990329 25.5073475,49.4777563 L25.5073475,44.6154739 C25.5073475,43.5435203 24.853734,43.0181818 23.7826738,43.0181818 C23.1816277,43.0181818 22.2245922,43.5056093 21.6034468,43.9206963 L21.6034468,49.4777563 C21.6034468,50.0990329 22.0181879,50.0990329 22.5438617,50.0990329 L22.8809113,50.0990329 L22.8809113,50.5876209 C22.2245922,50.5876209 21.5675,50.5504836 20.890695,50.5504836 C20.2165957,50.5504836 19.5401773,50.5678917 18.865305,50.5876209 L18.865305,50.0990329 L19.2039007,50.0990329 C19.7288014,50.0990329 20.1037305,50.0990329 20.1037305,49.4777563 L20.1037305,44.501354" id="Fill-7" fill="#1A1919"></path>
                    <path d="M29.7131241,45.4042553 C29.6748582,45.5733075 29.6748582,45.8545455 29.7131241,46.493617 C29.8236702,48.2773694 30.9708759,49.7415861 32.4705922,49.7415861 C33.5041596,49.7415861 34.3116099,49.1779497 35.0046489,48.4843327 L35.2667128,48.7473888 C34.4032163,49.8928433 33.3340887,50.8700193 31.7964929,50.8700193 C28.8117482,50.8700193 28.2114752,47.9760155 28.2114752,46.7748549 C28.2114752,43.0932302 30.6879397,42.0030948 32.0001915,42.0030948 C33.5219397,42.0030948 35.1557801,42.9609284 35.1731738,44.9524178 C35.1731738,45.0665377 35.1731738,45.1779497 35.1557801,45.2909091 L34.9860957,45.4042553 L29.7131241,45.4042553 Z M33.036078,44.8027079 C33.5041596,44.8027079 33.5590461,44.5582205 33.5590461,44.3319149 C33.5590461,43.3756286 32.9777128,42.6054159 31.9263652,42.6054159 C30.7826383,42.6054159 29.9941277,43.4491296 29.7691702,44.8027079 L33.036078,44.8027079 L33.036078,44.8027079 Z" id="Fill-8" fill="#1A1919"></path>
                    <path d="M35.605695,50.0990329 L36.1128156,50.0990329 C36.6361702,50.0990329 37.0118723,50.0990329 37.0118723,49.4777563 L37.0118723,44.2011605 C37.0118723,43.6201161 36.3180603,43.5056093 36.0362837,43.3555126 L36.0362837,43.0746615 C37.4061277,42.4920696 38.1571454,42.0030948 38.3287624,42.0030948 C38.4385355,42.0030948 38.4949681,42.0595745 38.4949681,42.2483559 L38.4949681,43.9388781 L38.5343936,43.9388781 C39.0020887,43.2065764 39.7917589,42.0030948 40.9358723,42.0030948 C41.404727,42.0030948 42.0046135,42.3222437 42.0046135,42.9988395 C42.0046135,43.5056093 41.6497837,43.9586074 41.1244965,43.9586074 C40.540844,43.9586074 40.540844,43.5056093 39.8833652,43.5056093 C39.5648688,43.5056093 38.5139078,43.9388781 38.5139078,45.0665377 L38.5139078,49.4777563 C38.5139078,50.0990329 38.8888369,50.0990329 39.4145106,50.0990329 L40.4643121,50.0990329 L40.4643121,50.5876209 C39.4322908,50.5678917 38.6468723,50.5504836 37.8390355,50.5504836 C37.0694645,50.5504836 36.2809539,50.5678917 35.605695,50.5876209 L35.605695,50.0990329" id="Fill-9" fill="#1A1919"></path>
                    <path d="M42.829844,47.9760155 C43.0745142,49.2154739 43.8235993,50.2688588 45.1961489,50.2688588 C46.3016099,50.2688588 46.7140319,49.5918762 46.7140319,48.9350097 C46.7140319,46.7176015 42.6242128,47.4321083 42.6242128,44.4085106 C42.6242128,43.3555126 43.469156,42.0034816 45.5335851,42.0034816 C46.1330851,42.0034816 46.9397624,42.1736944 47.6710674,42.5497099 L47.8028723,44.4638298 L47.3715106,44.4638298 C47.1840461,43.2812379 46.5281135,42.6054159 45.3256348,42.6054159 C44.5750035,42.6054159 43.8626383,43.0367505 43.8626383,43.8444874 C43.8626383,46.0433269 48.2152943,45.3659574 48.2152943,48.3148936 C48.2152943,49.5535783 47.2219255,50.8700193 44.9878121,50.8700193 C44.2379539,50.8700193 43.3543582,50.6065764 42.6995851,50.2309478 L42.4920213,48.070793 L42.829844,47.9760155" id="Fill-10" fill="#1A1919"></path>
                    <path d="M65.1609291,40.8762089 L64.6928475,40.8762089 C64.3356986,38.6808511 62.7780035,37.7969052 60.6776277,37.7969052 C58.5169539,37.7969052 55.3841702,39.2421663 55.3841702,43.7497099 C55.3841702,47.5450677 58.0875248,50.2688588 60.9767979,50.2688588 C62.8328901,50.2688588 64.3751241,48.9911025 64.7496667,47.017795 L65.1814149,47.1299807 L64.7496667,49.8731141 C63.9615426,50.362089 61.8402943,50.8700193 60.6003227,50.8700193 C56.2109468,50.8700193 53.433766,48.0332689 53.433766,43.8077369 C53.433766,39.9562863 56.868039,37.1945841 60.5462092,37.1945841 C62.0656383,37.1945841 63.5290213,37.6843327 64.9742376,38.1918762 L65.1609291,40.8762089" id="Fill-11" fill="#1A1919"></path>
                    <path d="M65.8385071,50.0990329 L66.1937234,50.0990329 C66.7209433,50.0990329 67.0954858,50.0990329 67.0954858,49.4777563 L67.0954858,39.0189555 C67.0954858,37.7969052 66.8144823,37.7597679 66.1005709,37.5528046 L66.1005709,37.2518375 C66.8508156,37.0081238 67.6397128,36.670793 68.0347411,36.4437137 C68.2384397,36.3326886 68.3899574,36.2367505 68.4452305,36.2367505 C68.5600284,36.2367505 68.5971348,36.3508704 68.5971348,36.5017408 L68.5971348,49.4777563 C68.5971348,50.0990329 69.0103298,50.0990329 69.5352305,50.0990329 L69.8529539,50.0990329 L69.8529539,50.5876209 C69.216734,50.5876209 68.5600284,50.5504836 67.8839965,50.5504836 C67.2087376,50.5504836 66.5338652,50.5678917 65.8385071,50.5876209 L65.8385071,50.0990329" id="Fill-12" fill="#1A1919"></path>
                    <path d="M77.8876454,49.5535783 C77.8876454,49.8928433 78.0928901,49.9106383 78.411,49.9106383 C78.6375035,49.9106383 78.917734,49.8928433 79.1635638,49.8928433 L79.1635638,50.2882012 C78.3561135,50.3624758 76.8165851,50.75706 76.4594362,50.8700193 L76.3658972,50.812766 L76.3658972,49.2912959 C75.2411099,50.2112186 74.3768404,50.8700193 73.0425567,50.8700193 C72.0294752,50.8700193 70.9792872,50.2112186 70.9792872,48.6355899 L70.9792872,43.8259188 C70.9792872,43.3369439 70.9046879,42.8673114 69.855273,42.7748549 L69.855273,42.4170213 C70.531305,42.3984526 72.0294752,42.2862669 72.2741454,42.2862669 C72.4824823,42.2862669 72.4824823,42.4170213 72.4824823,42.8309478 L72.4824823,47.6762089 C72.4824823,48.2402321 72.4824823,49.8537718 74.1147766,49.8537718 C74.7517695,49.8537718 75.5963262,49.3667311 76.3840638,48.7102515 L76.3840638,43.6564797 C76.3840638,43.2812379 75.4838475,43.0746615 74.8093617,42.8878143 L74.8093617,42.5500967 C76.4965426,42.4355899 77.5486631,42.2862669 77.7361277,42.2862669 C77.8876454,42.2862669 77.8876454,42.4170213 77.8876454,42.6243714 L77.8876454,49.5535783" id="Fill-13" fill="#1A1919"></path>
                    <path d="M81.6210887,43.3555126 C82.3713333,42.7183752 83.3851879,42.0030948 84.4172092,42.0030948 C86.5945035,42.0030948 87.9083014,43.9021277 87.9083014,45.9489362 C87.9083014,48.4085106 86.1059362,50.8700193 83.4211348,50.8700193 C82.0338972,50.8700193 81.3018191,50.417795 80.8128652,50.2112186 L80.2516312,50.6433269 L79.8581489,50.4375242 C80.0259007,49.3295938 80.1205993,48.2402321 80.1205993,47.0940039 L80.1205993,39.0189555 C80.1205993,37.7969052 79.8380496,37.7597679 79.1249113,37.5528046 L79.1249113,37.2518375 C79.8763156,37.0081238 80.6636667,36.670793 81.0575355,36.4437137 C81.2647128,36.3326886 81.4142979,36.2367505 81.4715035,36.2367505 C81.5832092,36.2367505 81.6210887,36.3512573 81.6210887,36.5017408 L81.6210887,43.3555126 Z M81.6210887,48.4646035 C81.6210887,49.1779497 82.2971206,50.3810445 83.5540993,50.3810445 C85.5617092,50.3810445 86.4058794,48.4085106 86.4058794,46.7361702 C86.4058794,44.7083172 84.8686702,43.0181818 83.4052872,43.0181818 C82.7079965,43.0181818 82.1274362,43.4696325 81.6210887,43.9021277 L81.6210887,48.4646035 L81.6210887,48.4646035 Z" id="Fill-14" fill="#1A1919"></path>
                    <path d="M0.659599291,61.5083172 L0.803,61.5083172 C1.17019858,61.5083172 1.5582695,61.4580271 1.5582695,60.9261122 L1.5582695,55.572147 C1.5582695,55.0394584 1.17019858,54.9887814 0.803,54.9887814 L0.659599291,54.9887814 L0.659599291,54.6816248 C1.05771986,54.6816248 1.6703617,54.7222437 2.17207092,54.7222437 C2.68228369,54.7222437 3.29415248,54.6816248 3.77421631,54.6816248 L3.77421631,54.9887814 L3.63004255,54.9887814 C3.26439007,54.9887814 2.8755461,55.0394584 2.8755461,55.572147 L2.8755461,60.9261122 C2.8755461,61.4580271 3.26439007,61.5083172 3.63004255,61.5083172 L3.77421631,61.5083172 L3.77421631,61.8154739 C3.28448936,61.8154739 2.67030142,61.7760155 2.16163475,61.7760155 C1.66031206,61.7760155 1.05771986,61.8154739 0.659599291,61.8154739 L0.659599291,61.5083172" id="Fill-15" fill="#1A1919"></path>
                    <path d="M3.77421631,61.8591876 C3.28023759,61.8591876 2.66914184,61.8181818 2.1608617,61.8181818 C1.66108511,61.8181818 1.06042553,61.8591876 0.659599291,61.8591876 L0.615148936,61.8591876 L0.615148936,61.4642166 L0.80222695,61.4642166 C1.17290426,61.4553191 1.5099539,61.4255319 1.5130461,60.9261122 L1.5130461,55.572147 C1.5099539,55.0719536 1.17290426,55.0394584 0.80222695,55.032882 L0.615148936,55.032882 L0.615148936,54.6371373 L0.659599291,54.6371373 C1.06042553,54.6371373 1.67268085,54.6769826 2.17207092,54.6769826 C2.67996454,54.6769826 3.29144681,54.6371373 3.77421631,54.6371373 L3.81982624,54.6371373 L3.81982624,55.032882 L3.63197518,55.032882 C3.26091135,55.0394584 2.92192908,55.0719536 2.91999645,55.572147 L2.91999645,60.9261122 C2.92192908,61.4255319 3.26091135,61.4553191 3.63197518,61.4642166 L3.81982624,61.4642166 L3.81982624,61.8591876 L3.77421631,61.8591876 Z M3.73015248,61.7717602 L3.73053901,61.554352 L3.63197518,61.554352 C3.26670922,61.554352 2.83264184,61.4901354 2.8303227,60.9261122 L2.8303227,55.572147 C2.83264184,55.0069632 3.26670922,54.9439072 3.63197518,54.9439072 L3.73015248,54.9439072 L3.73015248,54.7257253 C3.25897872,54.7261122 2.66720922,54.767118 2.17207092,54.767118 C1.68698227,54.767118 1.09985106,54.7288201 0.70443617,54.7257253 L0.70443617,54.9439072 L0.80222695,54.9439072 C1.16633333,54.9439072 1.60117376,55.0069632 1.60117376,55.572147 L1.60117376,60.9261122 C1.60117376,61.4901354 1.16633333,61.554352 0.80222695,61.554352 L0.70443617,61.554352 L0.70443617,61.7717602 C1.09985106,61.7682785 1.6765461,61.7307544 2.1608617,61.7307544 C2.65831915,61.7307544 3.24854255,61.7690522 3.73015248,61.7717602 L3.73015248,61.7717602 Z" id="Fill-16" fill="#1A1919"></path>
                    <path d="M10.7892553,59.8011605 L10.8097411,59.7810445 L10.8097411,55.9497099 C10.8097411,55.1110251 10.2268617,54.9883946 9.92073404,54.9883946 L9.6957766,54.9883946 L9.6957766,54.6816248 C10.1766135,54.6816248 10.6462411,54.7222437 11.1255319,54.7222437 C11.5441383,54.7222437 11.9646773,54.6816248 12.3817376,54.6816248 L12.3817376,54.9883946 L12.2298333,54.9883946 C11.7996312,54.9883946 11.3195674,55.0700193 11.3195674,56.2862669 L11.3195674,60.9361702 C11.3195674,61.2943907 11.329617,61.6518375 11.3798652,61.9690522 L10.9917943,61.9690522 L5.73389716,56.1017408 L5.73389716,60.3133462 C5.73389716,61.2030948 5.90667376,61.5083172 6.69286525,61.5083172 L6.86680142,61.5083172 L6.86680142,61.8154739 C6.42770922,61.8154739 5.98900355,61.7756286 5.54991135,61.7756286 C5.09149291,61.7756286 4.6210922,61.8154739 4.16112766,61.8154739 L4.16112766,61.5083172 L4.30452837,61.5083172 C5.0087766,61.5083172 5.22329787,61.027853 5.22329787,60.212766 L5.22329787,55.9067698 C5.22329787,55.3350097 4.75212411,54.9883946 4.29447872,54.9883946 L4.16112766,54.9883946 L4.16112766,54.6816248 C4.54842553,54.6816248 4.94731915,54.7222437 5.33461702,54.7222437 C5.64190426,54.7222437 5.93798227,54.6816248 6.24410993,54.6816248 L10.7892553,59.8011605" id="Fill-17" fill="#1A1919"></path>
                    <path d="M11.3798652,62.0119923 L10.9593262,61.9976789 L5.77718794,56.2170213 L5.77718794,60.3133462 C5.78955674,61.2019342 5.9244539,61.4545455 6.69325177,61.4642166 L6.91202482,61.4642166 L6.91202482,61.8591876 L6.86680142,61.8591876 C6.42500355,61.8591876 5.98552482,61.8181818 5.54991135,61.8181818 C5.09265248,61.8181818 4.62341135,61.8591876 4.16074113,61.8591876 L4.11590426,61.8591876 L4.11590426,61.4642166 L4.30452837,61.4642166 C4.97940071,61.4603482 5.1722766,61.0263056 5.17962057,60.2123791 L5.17962057,55.9083172 C5.17768794,55.3640232 4.7316383,55.032882 4.29486525,55.032882 L4.11590426,55.032882 L4.11590426,54.6371373 L4.16074113,54.6371373 C4.55113121,54.6371373 4.95079787,54.6769826 5.33384397,54.6769826 C5.63842553,54.6769826 5.93334397,54.6371373 6.27773759,54.6529981 L10.7652908,59.7087041 L10.7652908,55.9497099 C10.760266,55.1381044 10.2183582,55.0394584 9.92112057,55.032882 L9.65093972,55.032882 L9.65093972,54.6371373 L9.69616312,54.6371373 C10.1785461,54.6371373 10.6485603,54.6769826 11.1255319,54.6769826 C11.5410461,54.6769826 11.9596525,54.6371373 12.3817376,54.6371373 L12.4265745,54.6371373 L12.4265745,55.032882 L12.2298333,55.032882 C11.8081348,55.0437137 11.3756135,55.0808511 11.3632447,56.2862669 L11.3632447,60.9361702 C11.3632447,61.2940039 11.3744539,61.650677 11.4235426,61.9609284 L11.4328191,62.0119923 L11.3798652,62.0119923 Z M10.9921809,61.9230174 L11.3300035,61.9230174 C11.2843936,61.6154739 11.2762766,61.2762089 11.2762766,60.9361702 L11.2762766,56.2862669 C11.2762766,55.0595745 11.7899681,54.9439072 12.2298333,54.9431335 L12.3372872,54.9431335 L12.3372872,54.7257253 C11.9349149,54.7288201 11.5317695,54.7659574 11.1255319,54.7659574 C10.6578369,54.7659574 10.2032837,54.7288201 9.74177305,54.7257253 L9.74061348,54.9431335 L9.92112057,54.9431335 C10.2349787,54.9439072 10.853805,55.083559 10.853805,55.9497099 L10.8402766,59.8131528 L10.8201773,59.832882 L10.7853901,59.865764 L6.24410993,54.7257253 C5.94068794,54.7257253 5.64538298,54.7659574 5.33384397,54.7659574 C4.95968794,54.7659574 4.57625532,54.7288201 4.20596454,54.7257253 L4.20403191,54.9431335 L4.29486525,54.9431335 C4.7737695,54.9439072 5.26658865,55.3098646 5.26658865,55.9083172 L5.26658865,60.2123791 C5.26658865,61.0301741 5.03892553,61.5524178 4.30452837,61.5551257 L4.20596454,61.5524178 L4.20596454,61.7717602 C4.64814894,61.7682785 5.1038617,61.7307544 5.54991135,61.7307544 C5.9758617,61.7307544 6.40103901,61.7682785 6.82235106,61.7717602 L6.82235106,61.5551257 L6.69325177,61.5551257 C5.88966667,61.5524178 5.69060638,61.2019342 5.68983333,60.3133462 L5.68983333,55.987234 L10.9921809,61.9230174 Z" id="Fill-18" fill="#1A1919"></path>
                    <path d="M13.9119894,55.1926499 C13.1451241,55.1926499 13.1153617,55.3775629 12.9622979,56.1226306 L12.6557837,56.1226306 C12.6959823,55.8363636 12.746617,55.5504836 12.7783121,55.2541586 C12.8192837,54.9667311 12.8397695,54.6816248 12.8397695,54.3860735 L13.0844397,54.3860735 C13.1667695,54.6928433 13.4218759,54.6816248 13.6990142,54.6816248 L18.9658014,54.6816248 C19.2429397,54.6816248 19.4976596,54.6715667 19.5185319,54.3647969 L19.7624291,54.4065764 C19.7230035,54.6816248 19.6812589,54.9578337 19.6514965,55.2344294 C19.6313972,55.5102515 19.6313972,55.7852998 19.6313972,56.0611219 L19.3244965,56.1748549 C19.3036241,55.7972921 19.2529894,55.1926499 18.5688404,55.1926499 L16.8940284,55.1926499 L16.8940284,60.6297872 C16.8940284,61.4181818 17.2519504,61.5083172 17.7412908,61.5083172 L17.9360993,61.5083172 L17.9360993,61.8154739 C17.5375922,61.8154739 16.8225213,61.7760155 16.2721099,61.7760155 C15.658695,61.7760155 14.9432376,61.8154739 14.5447305,61.8154739 L14.5447305,61.5083172 L14.739539,61.5083172 C15.3023191,61.5083172 15.5868014,61.4580271 15.5868014,60.6510638 L15.5868014,55.1926499 L13.9119894,55.1926499" id="Fill-19" fill="#1A1919"></path>
                    <path d="M17.9368723,61.8591876 C17.5345,61.8591876 16.8202021,61.8185687 16.2721099,61.8185687 C15.6594681,61.8185687 14.9451702,61.8591876 14.5447305,61.8591876 L14.5010532,61.8591876 L14.5010532,61.4642166 L14.739539,61.4642166 C15.3023191,61.4510638 15.5284362,61.4437137 15.5411915,60.6510638 L15.5411915,55.2363636 L13.9119894,55.2363636 L13.9119894,55.1470019 L15.6297057,55.1470019 L15.6297057,60.6510638 C15.6297057,61.4715667 15.299227,61.554352 14.739539,61.5551257 L14.5884078,61.5551257 L14.5884078,61.7709865 C14.9911667,61.7682785 15.6791809,61.7307544 16.2721099,61.7307544 C16.8035816,61.7307544 17.4857979,61.7682785 17.8904894,61.7709865 L17.8904894,61.5551257 L17.7412908,61.5551257 C17.2473121,61.554352 16.8499645,61.432882 16.8499645,60.6297872 L16.8499645,55.1470019 L18.5688404,55.1470019 C19.2537624,55.1497099 19.3445957,55.7323017 19.3658546,56.1125725 L19.5869468,56.0309478 C19.5869468,55.7640232 19.5881064,55.4967118 19.606273,55.2282398 C19.636422,54.9640232 19.6735284,54.7044487 19.7117943,54.4425532 L19.5567979,54.4166344 C19.5092553,54.7141199 19.2212943,54.7299807 18.9654149,54.7261122 L13.6456738,54.7261122 C13.4052553,54.726499 13.143578,54.7148936 13.0515851,54.4297872 L12.8830603,54.4297872 C12.8815142,54.7121857 12.8621879,54.9864603 12.8235355,55.2588008 C12.793,55.5396518 12.7462305,55.8092843 12.7091241,56.0800774 L12.9271241,56.0800774 C13.0612482,55.367118 13.1486028,55.1369439 13.9119894,55.1470019 L13.9119894,55.2363636 C13.1555603,55.2514507 13.1721809,55.3779497 13.0055887,56.1330754 L12.9982447,56.1678917 L12.6047624,56.1678917 L12.6101738,56.1148936 C12.6519184,55.8297872 12.7037128,55.5427466 12.7334752,55.2460348 C12.7759929,54.9624758 12.7953191,54.6789168 12.7953191,54.3860735 L12.7953191,54.3408124 L13.1196135,54.3408124 L13.127344,54.3729207 C13.1961454,54.6305609 13.385156,54.6324952 13.6456738,54.6371373 L18.9654149,54.6371373 C19.2498972,54.6324952 19.4570745,54.6286267 19.4744681,54.3613153 L19.4779468,54.3129594 L19.5243298,54.3222437 L19.8130638,54.3678917 L19.8057199,54.4131528 C19.7651348,54.6874275 19.7253227,54.9624758 19.6944007,55.2363636 C19.675461,55.5102515 19.675461,55.784913 19.675461,56.0611219 L19.675461,56.0920696 L19.6456986,56.1040619 L19.2842979,56.2363636 L19.2819787,56.177176 C19.2537624,55.7926499 19.2143369,55.2363636 18.5688404,55.2363636 L16.9388652,55.2363636 L16.9388652,60.6297872 C16.9489149,61.4003868 17.2542695,61.4545455 17.7412908,61.4642166 L17.9801631,61.4642166 L17.9801631,61.8591876 L17.9368723,61.8591876" id="Fill-20" fill="#1A1919"></path>
                    <path d="M20.088656,61.5083172 L20.2324433,61.5083172 C20.5988688,61.5083172 20.9880993,61.4580271 20.9880993,60.9261122 L20.9880993,55.572147 C20.9880993,55.0394584 20.5988688,54.9887814 20.2324433,54.9887814 L20.088656,54.9887814 L20.088656,54.6816248 C20.7094149,54.6816248 21.7739043,54.7222437 22.6300567,54.7222437 C23.4893014,54.7222437 24.5499255,54.6816248 25.2441241,54.6816248 C25.226344,55.1210832 25.2360071,55.7972921 25.266156,56.2460348 L24.9584823,56.3272727 C24.9093936,55.6626692 24.7868652,55.1326886 23.7142589,55.1326886 L22.2964858,55.1326886 L22.2964858,57.8085106 L23.5094007,57.8085106 C24.1220426,57.8085106 24.2553936,57.4622824 24.316078,56.9098646 L24.6222057,56.9098646 C24.6017199,57.3090909 24.5908972,57.7075435 24.5908972,58.1056093 C24.5908972,58.4947776 24.6017199,58.8827853 24.6222057,59.2704062 L24.316078,59.331528 C24.2553936,58.7191489 24.2248582,58.3206963 23.5194504,58.3206963 L22.2964858,58.3206963 L22.2964858,60.7005803 C22.2964858,61.3659574 22.8863227,61.3659574 23.5403227,61.3659574 C24.7659929,61.3659574 25.3067411,61.283559 25.6132553,60.1199226 L25.8981241,60.1903288 C25.7655461,60.7330754 25.6437908,61.2731141 25.5521844,61.8154739 C24.8977979,61.8154739 23.7235355,61.7760155 22.8063121,61.7760155 C21.8852234,61.7760155 20.6711489,61.8154739 20.088656,61.8154739 L20.088656,61.5083172" id="Fill-21" fill="#1A1919"></path>
                    <path d="M25.5514113,61.8591876 C24.8962518,61.8591876 23.7212163,61.8166344 22.8051525,61.8166344 C21.8852234,61.8166344 20.6715355,61.8591876 20.0882695,61.8591876 L20.0453652,61.8591876 L20.0453652,61.4642166 L20.2320567,61.4642166 C20.6015745,61.4580271 20.9378511,61.4255319 20.9424894,60.9261122 L20.9424894,55.572147 C20.9378511,55.0727273 20.6015745,55.0394584 20.2320567,55.032882 L20.0453652,55.032882 L20.0453652,54.6371373 L20.0882695,54.6371373 C20.7121206,54.6371373 21.7742908,54.6769826 22.6300567,54.6769826 C23.4885284,54.6769826 24.548766,54.6371373 25.2441241,54.6371373 L25.2893475,54.6371373 L25.2878014,54.6843327 C25.2812305,54.8371373 25.2769787,55.0189555 25.2769787,55.2112186 C25.2769787,55.5644101 25.2878014,55.9516441 25.3079007,56.2425532 L25.3098333,56.2789168 L25.2754326,56.2893617 L24.9163511,56.3833656 L24.914805,56.3307544 C24.8545071,55.6676983 24.7656064,55.1852998 23.7142589,55.1752418 L22.337844,55.1752418 L22.3370709,57.7636364 L23.5090142,57.7636364 C24.0976915,57.7574468 24.2028262,57.4564797 24.2724007,56.9052224 L24.2747199,56.8642166 L24.6674291,56.8642166 L24.666656,56.9110251 C24.6469433,57.3102515 24.634961,57.7075435 24.634961,58.1056093 C24.634961,58.4920696 24.6469433,58.8800774 24.666656,59.268472 L24.6674291,59.3056093 L24.6303227,59.3141199 L24.2747199,59.384913 L24.2724007,59.3369439 C24.2016667,58.7129594 24.1970284,58.3709865 23.5194504,58.3636364 L22.337844,58.3636364 L22.337844,60.7005803 C22.3393901,61.3218569 22.8743404,61.3183752 23.5399362,61.3218569 C24.7694716,61.3145068 25.2619043,61.2541586 25.569578,60.1079304 L25.5800142,60.0665377 L25.6229184,60.073501 L25.950305,60.1586074 L25.9410284,60.2007737 C25.8084504,60.7415861 25.686695,61.2820116 25.5943156,61.822824 L25.5865851,61.8591876 L25.5514113,61.8591876 Z M25.5135319,61.7709865 C25.6028191,61.2541586 25.7191631,60.7381044 25.8443972,60.2235977 L25.6434043,60.1729207 C25.3376631,61.3160542 24.7451206,61.4181818 23.5399362,61.4104449 C22.8963723,61.4104449 22.253195,61.4104449 22.2497163,60.7005803 L22.2497163,58.2762089 L23.5194504,58.2762089 C24.2325887,58.2688588 24.3044823,58.6990329 24.3555035,59.2804642 L24.5758227,59.2352031 C24.5561099,58.8584139 24.5460603,58.4800774 24.5460603,58.1056093 C24.5460603,57.7218569 24.5561099,57.3388781 24.5758227,56.9531915 L24.3555035,56.9531915 C24.2979113,57.4870406 24.1313191,57.8595745 23.5090142,57.8529981 L22.2497163,57.8529981 L22.2497163,55.0866538 L23.7142589,55.0866538 C24.7760426,55.0781431 24.9519113,55.6282398 24.9982943,56.2711799 L25.218227,56.2112186 C25.2004468,55.9230174 25.1884645,55.5524178 25.1884645,55.2112186 C25.1884645,55.0363636 25.1931028,54.8704062 25.1989007,54.7257253 C24.5050887,54.7288201 23.4695887,54.7659574 22.6300567,54.7659574 C21.7909113,54.7659574 20.758117,54.7288201 20.1331064,54.7257253 L20.1331064,54.9431335 L20.2320567,54.9431335 C20.5953901,54.9439072 21.029844,55.0069632 21.0321631,55.572147 L21.0321631,60.9261122 C21.029844,61.4901354 20.5953901,61.5524178 20.2320567,61.5551257 L20.1331064,61.5551257 L20.1331064,61.7709865 C20.7275816,61.7690522 21.9080284,61.7307544 22.8051525,61.7307544 C23.7065284,61.7307544 24.8552801,61.7690522 25.5135319,61.7709865 L25.5135319,61.7709865 Z" id="Fill-22" fill="#1A1919"></path>
                    <path d="M27.2772447,55.7640232 C27.2772447,55.0189555 26.8683014,54.9883946 26.5513511,54.9883946 L26.3669787,54.9883946 L26.3669787,54.6816248 C26.6939787,54.6816248 27.3271064,54.7222437 27.9505709,54.7222437 C28.5620532,54.7222437 29.0529397,54.6816248 29.5940745,54.6816248 C30.878883,54.6816248 32.0249291,55.0286267 32.0249291,56.4808511 C32.0249291,57.4 31.4119007,57.9613153 30.6056099,58.2800774 L32.3507695,60.8947776 C32.6375709,61.3272727 32.8401099,61.4483559 33.3418191,61.5083172 L33.3418191,61.8154739 C33.0039965,61.8154739 32.677383,61.7760155 32.3414929,61.7760155 C32.0249291,61.7760155 31.6967695,61.8154739 31.3817518,61.8154739 C30.5947872,60.7837524 29.9203014,59.6804642 29.2570248,58.5032882 L28.5840851,58.5032882 L28.5840851,60.6916828 C28.5840851,61.47853 28.9508972,61.5083172 29.4189787,61.5083172 L29.6041241,61.5083172 L29.6041241,61.8154739 C29.0208582,61.8154739 28.4310213,61.7760155 27.8477553,61.7760155 C27.3576418,61.7760155 26.877578,61.8154739 26.3669787,61.8154739 L26.3669787,61.5083172 L26.5513511,61.5083172 C26.9305319,61.5083172 27.2772447,61.3353965 27.2772447,60.9578337 L27.2772447,55.7640232 Z M28.5840851,58.1346228 L29.0830887,58.1346228 C30.1054468,58.1346228 30.6558582,57.7473888 30.6558582,56.5408124 C30.6558582,55.6321083 30.0737518,55.0495164 29.1638723,55.0495164 C28.8573582,55.0495164 28.7267128,55.0808511 28.5840851,55.0909091 L28.5840851,58.1346228 L28.5840851,58.1346228 Z" id="Fill-23" fill="#1A1919"></path>
                    <path d="M33.3418191,61.8591876 C32.9993582,61.8591876 32.6746773,61.8181818 32.3387872,61.8181818 C32.0276348,61.8181818 31.7010213,61.8591876 31.3454184,61.8421663 C30.5619326,60.8131528 29.890539,59.7160542 29.2311277,58.549323 L28.6277624,58.549323 L28.6277624,60.6897485 C28.6389716,61.4591876 28.9470319,61.4533849 29.4189787,61.4642166 L29.6481879,61.4642166 L29.6481879,61.8591876 L29.6029645,61.8591876 C29.0193121,61.8591876 28.4259965,61.8181818 27.8473688,61.8181818 C27.3595745,61.8181818 26.8798972,61.8591876 26.3669787,61.8591876 L26.3225284,61.8591876 L26.3225284,61.4642166 L26.5513511,61.4642166 C26.9185496,61.4615087 27.2289291,61.301354 27.2304752,60.9578337 L27.2304752,55.7640232 C27.2227447,55.0394584 26.8683014,55.04294 26.5513511,55.032882 L26.3225284,55.032882 L26.3225284,54.6371373 L26.3669787,54.6371373 C26.6974574,54.6371373 27.3278794,54.6769826 27.9505709,54.6769826 C28.5601206,54.6769826 29.0498475,54.6371373 29.5940745,54.6371373 C30.8815887,54.6398453 32.0662872,54.9945841 32.0693794,56.4793037 C32.0693794,57.4015474 31.4602163,57.9779497 30.6728652,58.2994197 L32.3874894,60.8704062 C32.6731312,61.2943907 32.8509326,61.4003868 33.347617,61.4642166 L33.3847234,61.4700193 L33.3847234,61.8591876 L33.3418191,61.8591876 Z M28.5836986,58.4591876 L29.2813759,58.4591876 L29.2941312,58.4820116 C29.9589539,59.6560928 30.629961,60.7597679 31.3817518,61.7717602 C31.6925177,61.7717602 32.0206773,61.7307544 32.3387872,61.7307544 C32.6646277,61.7307544 32.9800319,61.7663443 33.2969823,61.7709865 L33.2969823,61.5466151 C32.8184645,61.4882012 32.5935071,61.3435203 32.3148227,60.9199226 L30.537195,58.2595745 L30.5874433,58.2390716 C31.3871631,57.9237911 31.9797057,57.3779497 31.9800922,56.4793037 C31.9797057,55.0615087 30.8777234,54.7326886 29.5940745,54.7257253 C29.0564184,54.7257253 28.5655319,54.767118 27.9505709,54.767118 C27.3506844,54.767118 26.7446135,54.7288201 26.410656,54.7257253 L26.410656,54.9431335 L26.5513511,54.9431335 C26.8683014,54.9439072 27.3193759,54.9965184 27.3193759,55.7640232 L27.3193759,60.9578337 C27.3193759,61.3678917 26.9355567,61.554352 26.5513511,61.5551257 L26.410656,61.5551257 L26.410656,61.7709865 C26.9015426,61.7690522 27.3676915,61.7307544 27.8473688,61.7307544 C28.4174929,61.7307544 28.9941879,61.7690522 29.5589007,61.7709865 L29.5589007,61.5551257 L29.4189787,61.5551257 C28.9539894,61.554352 28.5384752,61.4967118 28.5384752,60.6897485 L28.5384752,58.4591876 L28.5836986,58.4591876 Z M28.5836986,58.1787234 L28.5384752,58.1787234 L28.5384752,55.0495164 L28.5775142,55.0464217 C28.7174362,55.0352031 28.855039,55.0069632 29.1638723,55.0069632 C30.0938511,55.0069632 30.6995355,55.6116054 30.7003085,56.5435203 C30.6976028,57.7636364 30.1131773,58.1783366 29.0830887,58.1787234 L28.5836986,58.1787234 Z M29.0830887,58.0916828 C30.0938511,58.0816248 30.6032908,57.7307544 30.6133404,56.5435203 C30.607156,55.650677 30.053266,55.0967118 29.1638723,55.0928433 C28.8882801,55.0928433 28.7580213,55.1183752 28.6277624,55.1311412 L28.6277624,58.0916828 L29.0830887,58.0916828 L29.0830887,58.0916828 Z" id="Fill-24" fill="#1A1919"></path>
                    <path d="M40.2745284,59.8011605 L40.2923085,59.7810445 L40.2923085,55.9497099 C40.2923085,55.1110251 39.7121348,54.9883946 39.4056206,54.9883946 L39.1818227,54.9883946 L39.1818227,54.6816248 C39.6618865,54.6816248 40.1299681,54.7222437 40.6111915,54.7222437 C41.0309574,54.7222437 41.4464716,54.6816248 41.8681702,54.6816248 L41.8681702,54.9883946 L41.7143333,54.9883946 C41.2852908,54.9883946 40.8056135,55.0700193 40.8056135,56.2862669 L40.8056135,60.9361702 C40.8056135,61.2943907 40.8156631,61.6518375 40.8659113,61.9690522 L40.4793865,61.9690522 L35.2211028,56.1017408 L35.2211028,60.3133462 C35.2211028,61.2030948 35.3934929,61.5083172 36.1796844,61.5083172 L36.3536206,61.5083172 L36.3536206,61.8154739 C35.9149149,61.8154739 35.4750496,61.7756286 35.036344,61.7756286 C34.5752199,61.7756286 34.1063652,61.8154739 33.6471738,61.8154739 L33.6471738,61.5083172 L33.7890284,61.5083172 C34.4940496,61.5083172 34.7097305,61.027853 34.7097305,60.212766 L34.7097305,55.9067698 C34.7097305,55.3350097 34.2393298,54.9883946 33.7801383,54.9883946 L33.6471738,54.9883946 L33.6471738,54.6816248 C34.0336986,54.6816248 34.4349113,54.7222437 34.8222092,54.7222437 C35.1256312,54.7222437 35.4232553,54.6816248 35.730156,54.6816248 L40.2745284,59.8011605" id="Fill-25" fill="#1A1919"></path>
                    <path d="M40.8655248,62.0119923 L40.4461454,61.9976789 L35.263234,56.217795 L35.263234,60.3129594 C35.2752163,61.2030948 35.409727,61.4545455 36.1796844,61.4642166 L36.3961383,61.4642166 L36.3961383,61.8591876 L36.3516879,61.8591876 C35.9102766,61.8591876 35.4719574,61.8166344 35.0344113,61.8166344 C34.5786986,61.8166344 34.1067518,61.8591876 33.6467872,61.8591876 L33.6011773,61.8591876 L33.6011773,61.4642166 L33.7890284,61.4642166 C34.4635142,61.4615087 34.6567766,61.0263056 34.6633475,60.210058 L34.6633475,55.9067698 C34.6621879,55.362089 34.2169113,55.032882 33.7801383,55.032882 L33.6011773,55.032882 L33.6011773,54.6371373 L33.6467872,54.6371373 C34.0367908,54.6371373 34.4364574,54.6769826 34.8218227,54.6769826 C35.121766,54.6769826 35.4174574,54.6371373 35.7599184,54.6502901 L40.2490177,59.7087041 L40.2490177,55.9497099 C40.2463121,55.1381044 39.7024716,55.0375242 39.4056206,55.032882 L39.1362128,55.032882 L39.1362128,54.6371373 L39.1806631,54.6371373 C39.6630461,54.6371373 40.1338333,54.6769826 40.6111915,54.6769826 C41.0270922,54.6769826 41.4453121,54.6371373 41.8662376,54.6371373 L41.911461,54.6371373 L41.911461,55.032882 L41.7143333,55.032882 C41.2930213,55.04294 40.8589539,55.0808511 40.8489043,56.2862669 L40.8489043,60.9361702 C40.8489043,61.2940039 40.8577943,61.6483559 40.9099752,61.9617021 L40.915,62.0119923 L40.8655248,62.0119923 Z M40.479,61.9230174 L40.8137305,61.9230174 C40.7688936,61.6174081 40.7600035,61.2762089 40.7600035,60.9361702 L40.7600035,56.2862669 C40.7607766,55.0595745 41.2771738,54.9458414 41.7143333,54.9431335 L41.8217872,54.9431335 L41.8217872,54.7257253 C41.4198014,54.7288201 41.0162695,54.7659574 40.6111915,54.7659574 C40.1419504,54.7659574 39.6870106,54.7288201 39.2251135,54.7257253 L39.2251135,54.9431335 L39.4056206,54.9431335 C39.7202518,54.9458414 40.3386915,55.083559 40.3386915,55.9497099 L40.3240035,59.8131528 L40.3054504,59.832882 L40.2733688,59.8665377 L35.730156,54.7257253 C35.4263475,54.7257253 35.1302695,54.7659574 34.8218227,54.7659574 C34.4430284,54.7659574 34.0615284,54.7288201 33.6904645,54.7257253 L33.6904645,54.9431335 L33.7801383,54.9431335 C34.2605887,54.9458414 34.7518617,55.3083172 34.7518617,55.9067698 L34.7518617,60.210058 C34.7518617,61.0301741 34.5211064,61.5524178 33.7890284,61.5551257 L33.6904645,61.554352 L33.6904645,61.7713733 C34.1314894,61.7682785 34.5864291,61.7307544 35.0344113,61.7307544 C35.4626809,61.7307544 35.8870851,61.7682785 36.3091702,61.7713733 L36.3091702,61.5551257 L36.1796844,61.5551257 C35.3760993,61.554352 35.1758794,61.2030948 35.1735603,60.3129594 L35.1735603,55.9887814 L40.479,61.9230174 Z" id="Fill-26" fill="#1A1919"></path>
                    <path d="M43.5097411,60.354352 C43.4069255,60.7005803 43.2836241,60.9690522 43.2836241,61.1504836 C43.2836241,61.4580271 43.7138262,61.5087041 44.0497163,61.5087041 L44.1637411,61.5087041 L44.1637411,61.8154739 C43.7536383,61.7934236 43.3369645,61.7760155 42.9260887,61.7760155 C42.5585035,61.7760155 42.1928511,61.7934236 41.8241064,61.8154739 L41.8241064,61.5087041 L41.8863369,61.5087041 C42.2836844,61.5087041 42.6218936,61.2731141 42.7734113,60.8437137 L44.4072518,56.154352 C44.5406028,55.7752418 44.7245887,55.2646035 44.7868191,54.8854932 C45.1115,54.7736944 45.5216028,54.5705996 45.7148652,54.4464217 C45.7465603,54.4359768 45.7655,54.4255319 45.796422,54.4255319 C45.827344,54.4255319 45.8462837,54.4255319 45.8687021,54.4576402 C45.8988511,54.5384913 45.9286135,54.6305609 45.9603085,54.7121857 L47.8399787,60.0580271 C47.9625071,60.4147002 48.0838759,60.7926499 48.2145213,61.1009671 C48.3389823,61.3876209 48.5535035,61.5087041 48.8917128,61.5087041 L48.9527837,61.5087041 L48.9527837,61.8154739 C48.4928191,61.7934236 48.0320816,61.7760155 47.5442872,61.7760155 C47.0437376,61.7760155 46.5315922,61.7934236 46.0109433,61.8154739 L46.0109433,61.5087041 L46.123422,61.5087041 C46.356883,61.5087041 46.7577092,61.4680851 46.7577092,61.2123791 C46.7577092,61.0804642 46.6653298,60.8042553 46.551305,60.4758221 L46.1535709,59.2909091 L43.8359681,59.2909091 L43.5097411,60.354352 Z M45.0005674,55.8266925 L44.9793085,55.8266925 L44.0303901,58.7191489 L45.9382766,58.7191489 L45.0005674,55.8266925 L45.0005674,55.8266925 Z" id="Fill-27" fill="#1A1919"></path>
                    <path d="M48.9496915,61.8591876 C48.4908865,61.8394584 48.0305355,61.8166344 47.5442872,61.8166344 C47.0437376,61.8166344 46.5342979,61.8394584 46.0132624,61.8591876 L45.9661064,61.8615087 L45.9661064,61.4622824 L46.123422,61.4622824 C46.3599752,61.4622824 46.7109397,61.4092843 46.7117128,61.2123791 C46.7140319,61.0959381 46.6224255,60.8158607 46.5099468,60.4909091 L46.1211028,59.3346228 L43.8688227,59.3346228 L43.5510993,60.3675048 C43.4482837,60.7148936 43.3242092,60.984913 43.3261418,61.1512573 C43.3296206,61.4007737 43.710734,61.4622824 44.0497163,61.4622824 L44.2066454,61.4622824 L44.2066454,61.8615087 L44.1602624,61.8591876 C43.7520922,61.8394584 43.3354184,61.8166344 42.9268617,61.8166344 C42.5623688,61.8166344 42.1932376,61.8394584 41.8275851,61.8591876 L41.7800426,61.8615087 L41.7800426,61.4622824 L41.8859504,61.4622824 C42.2655177,61.4615087 42.5824681,61.2444874 42.7301206,60.8294004 L44.3655071,56.1384913 C44.4973121,55.7601547 44.682844,55.2518375 44.7709716,54.8433269 C45.0914007,54.7346228 45.5022766,54.5284333 45.6982447,54.405029 C45.7268475,54.394971 45.7550638,54.3818182 45.7960355,54.3818182 C45.8211596,54.3802708 45.8760461,54.3868472 45.9092872,54.4402321 C45.9382766,54.5241779 45.9707447,54.6158607 46.0016667,54.6982592 L47.8817234,60.0433269 C48.0019326,60.4011605 48.1240745,60.7787234 48.2578121,61.0816248 C48.3760887,61.3539652 48.5635532,61.4615087 48.8917128,61.4622824 L48.9949149,61.4622824 L48.9949149,61.8615087 L48.9496915,61.8591876 Z M46.0553936,61.7682785 C46.5605816,61.7504836 47.0564929,61.7307544 47.5442872,61.7307544 C48.0177801,61.7307544 48.4630567,61.7504836 48.9067872,61.7682785 L48.9067872,61.554352 L48.8917128,61.554352 C48.5415213,61.5566731 48.3007163,61.4189555 48.1754823,61.1176015 C48.0425177,60.8088975 47.9184433,60.4294004 47.7978475,60.0715667 L45.9177908,54.7261122 C45.8868688,54.6444874 45.8578794,54.5531915 45.8312092,54.4804642 C45.8211596,54.4704062 45.8234787,54.4704062 45.8153617,54.4704062 L45.7960355,54.4704062 C45.7755496,54.4704062 45.7631809,54.4765957 45.7368972,54.4831721 C45.5405426,54.6108317 45.1312128,54.8123791 44.8274043,54.8920696 C44.7651738,55.2793037 44.5811879,55.789942 44.4486099,56.1686654 L42.8147695,60.8584139 C42.6593865,61.3025145 42.300305,61.5551257 41.8859504,61.554352 L41.8689433,61.554352 L41.8689433,61.7682785 C42.2191348,61.7504836 42.5724184,61.7307544 42.9268617,61.7307544 C43.3218901,61.7307544 43.7246489,61.7504836 44.1154255,61.7682785 L44.1154255,61.554352 L44.0497163,61.554352 C43.7161454,61.5497099 43.2515426,61.5133462 43.2399468,61.1512573 C43.2407199,60.9485493 43.3659539,60.6870406 43.4660638,60.3415861 L43.5093546,60.354352 L43.4660638,60.3404255 L43.8023404,59.2483559 L46.1833333,59.2483559 L46.5922766,60.4618956 C46.7070745,60.7907157 46.7998404,61.0630561 46.7998404,61.2123791 C46.784766,61.5253385 46.3549504,61.5485493 46.123422,61.554352 L46.0553936,61.554352 L46.0553936,61.7682785 Z M43.9681596,58.7632495 L44.9456809,55.7814313 L45.0005674,55.7814313 L45.0005674,55.8266925 L44.9897447,55.8297872 L45.0005674,55.8266925 L45.0005674,55.7814313 L45.0311028,55.7814313 L46.0016667,58.7632495 L43.9681596,58.7632495 Z M44.0903014,58.6738878 L45.8779787,58.6738878 L44.9893582,55.9353965 L44.0903014,58.6738878 Z" id="Fill-28" fill="#1A1919"></path>
                    <path d="M49.401539,55.1926499 C48.6358333,55.1926499 48.6049113,55.3775629 48.4510745,56.1226306 L48.1441738,56.1226306 C48.1843723,55.8363636 48.2365532,55.5504836 48.2682482,55.2541586 C48.3080603,54.9667311 48.327773,54.6816248 48.327773,54.3860735 L48.5747624,54.3860735 C48.654773,54.6928433 48.9106525,54.6816248 49.1862447,54.6816248 L54.4561241,54.6816248 C54.7305567,54.6816248 54.9856631,54.6715667 55.0057624,54.3647969 L55.2500461,54.4065764 C55.2121667,54.6816248 55.1715816,54.9578337 55.1395,55.2344294 C55.1170816,55.5102515 55.1170816,55.7852998 55.1170816,56.0611219 L54.8121135,56.1748549 C54.7939468,55.7972921 54.742539,55.1926499 54.056844,55.1926499 L52.3824184,55.1926499 L52.3824184,60.6297872 C52.3824184,61.4181818 52.7403404,61.5083172 53.2296809,61.5083172 L53.4248759,61.5083172 L53.4248759,61.8154739 C53.0259823,61.8154739 52.3124574,61.7760155 51.759727,61.7760155 C51.1482447,61.7760155 50.4316277,61.8154739 50.0335071,61.8154739 L50.0335071,61.5083172 L50.2279291,61.5083172 C50.7907092,61.5083172 51.075578,61.4580271 51.075578,60.6510638 L51.075578,55.1926499 L49.401539,55.1926499" id="Fill-29" fill="#1A1919"></path>
                    <path d="M53.4248759,61.8591876 C53.0236631,61.8591876 52.3078191,61.8185687 51.7589539,61.8185687 C51.1490177,61.8185687 50.4339468,61.8591876 50.0338936,61.8591876 L49.9886702,61.8591876 L49.9886702,61.4642166 L50.2279291,61.4642166 C50.7910957,61.4510638 51.0168262,61.4437137 51.0303546,60.6510638 L51.0295816,55.2363636 L49.401539,55.2363636 L49.401539,55.1470019 L51.1196418,55.1470019 L51.1196418,60.6510638 C51.1196418,61.4715667 50.7887766,61.5524178 50.2279291,61.554352 L50.0775709,61.554352 L50.0775709,61.7717602 C50.4811028,61.7682785 51.1671844,61.7307544 51.7589539,61.7307544 C52.2927447,61.7307544 52.9761206,61.7682785 53.379266,61.7717602 L53.379266,61.554352 L53.2292943,61.554352 C52.7372482,61.5524178 52.3395142,61.4340426 52.3387411,60.6297872 L52.3387411,55.1470019 L54.056844,55.1470019 C54.7429255,55.1497099 54.8322128,55.7323017 54.8519255,56.1125725 L55.0737908,56.0309478 C55.0737908,55.7640232 55.0753369,55.4967118 55.0962092,55.2294004 C55.1236525,54.9659574 55.162305,54.7044487 55.1994113,54.4437137 L55.0451879,54.4166344 C54.9984184,54.7141199 54.7100709,54.7307544 54.4561241,54.7261122 L49.1340638,54.7261122 C48.8932589,54.7288201 48.6327411,54.7148936 48.5399752,54.4290135 L48.3729965,54.4290135 C48.3706773,54.7117988 48.350578,54.9864603 48.3103794,55.2588008 C48.2825496,55.5408124 48.233461,55.8112186 48.194422,56.0800774 L48.4139681,56.0800774 C48.5480922,55.367118 48.6366064,55.1357834 49.401539,55.1470019 L49.401539,55.2363636 C48.6443369,55.2495164 48.6609574,55.3779497 48.4943652,56.1330754 L48.4870213,56.1678917 L48.092766,56.1678917 L48.0989504,56.1172147 C48.1418546,55.8297872 48.1921028,55.5427466 48.2218652,55.2483559 C48.2636099,54.9624758 48.2825496,54.6789168 48.2825496,54.3860735 L48.2825496,54.3408124 L48.606844,54.3408124 L48.6153475,54.3729207 C48.6868546,54.6305609 48.872773,54.6324952 49.1340638,54.6371373 L54.4561241,54.6371373 C54.7386738,54.6324952 54.9446915,54.6286267 54.9628582,54.362089 L54.9644043,54.3129594 L55.0119468,54.3222437 L55.3018404,54.3678917 L55.294883,54.4131528 C55.2527518,54.6874275 55.2140993,54.9624758 55.1831773,55.2363636 C55.162305,55.5102515 55.162305,55.7852998 55.162305,56.0611219 L55.162305,56.0920696 L55.1325426,56.1040619 L54.7711418,56.2363636 L54.7695957,56.177176 C54.7429255,55.7926499 54.7023404,55.2363636 54.056844,55.2363636 L52.4264823,55.2363636 L52.4264823,60.6297872 C52.4369184,61.4003868 52.7426596,61.4545455 53.2292943,61.4642166 L53.4673936,61.4642166 L53.4673936,61.8591876 L53.4248759,61.8591876" id="Fill-30" fill="#1A1919"></path>
                    <path d="M55.6280674,61.5083172 L55.7710816,61.5083172 C56.1390532,61.5083172 56.525578,61.4580271 56.525578,60.9261122 L56.525578,55.572147 C56.525578,55.0394584 56.1390532,54.9887814 55.7710816,54.9887814 L55.6280674,54.9887814 L55.6280674,54.6816248 C56.0265745,54.6816248 56.6380567,54.7222437 57.1378333,54.7222437 C57.6495922,54.7222437 58.2626206,54.6816248 58.7434574,54.6816248 L58.7434574,54.9887814 L58.6000567,54.9887814 C58.2309255,54.9887814 57.8428546,55.0394584 57.8428546,55.572147 L57.8428546,60.9261122 C57.8428546,61.4580271 58.2309255,61.5083172 58.6000567,61.5083172 L58.7434574,61.5083172 L58.7434574,61.8154739 C58.2529574,61.8154739 57.6395426,61.7760155 57.1297163,61.7760155 C56.6283936,61.7760155 56.0265745,61.8154739 55.6280674,61.8154739 L55.6280674,61.5083172" id="Fill-31" fill="#1A1919"></path>
                    <path d="M58.7434574,61.8591876 C58.2498652,61.8591876 57.639156,61.8166344 57.1297163,61.8166344 C56.6299397,61.8166344 56.026961,61.8591876 55.6280674,61.8591876 L55.5843901,61.8591876 L55.5843901,61.4642166 L55.7714681,61.4642166 C56.1394397,61.4580271 56.4788085,61.4255319 56.4811277,60.9261122 L56.4811277,55.572147 C56.4788085,55.0727273 56.1394397,55.0394584 55.7714681,55.032882 L55.5843901,55.032882 L55.5843901,54.6371373 L55.6280674,54.6371373 C56.026961,54.6371373 56.6411489,54.6769826 57.1378333,54.6769826 C57.6468865,54.6769826 58.2595284,54.6371373 58.7434574,54.6371373 L58.7859752,54.6371373 L58.7859752,55.032882 L58.6004433,55.032882 C58.2266738,55.0394584 57.8907837,55.0727273 57.887305,55.572147 L57.887305,60.9261122 C57.8907837,61.4255319 58.2266738,61.4580271 58.6004433,61.4642166 L58.7859752,61.4642166 L58.7859752,61.8591876 L58.7434574,61.8591876 Z M58.6970745,61.7709865 L58.6970745,61.554352 L58.6004433,61.554352 C58.2340177,61.554352 57.8007234,61.4901354 57.8007234,60.9261122 L57.8007234,55.572147 C57.8007234,55.0069632 58.2340177,54.9439072 58.6004433,54.9431335 L58.6970745,54.9431335 L58.6970745,54.7257253 C58.2262872,54.7288201 57.6349043,54.7659574 57.1378333,54.7659574 C56.6531312,54.7659574 56.0687057,54.7288201 55.6725177,54.7257253 L55.6725177,54.9431335 L55.7714681,54.9431335 C56.1340284,54.9439072 56.5692553,55.0069632 56.5704149,55.572147 L56.5704149,60.9261122 C56.5692553,61.4901354 56.1340284,61.554352 55.7714681,61.554352 L55.6725177,61.554352 L55.6725177,61.7709865 C56.066,61.7663443 56.6434681,61.7307544 57.1297163,61.7307544 C57.6248546,61.7307544 58.2154645,61.7682785 58.6970745,61.7709865 L58.6970745,61.7709865 Z" id="Fill-32" fill="#1A1919"></path>
                    <path d="M62.8151099,54.5284333 C64.9920177,54.5284333 66.7271277,55.8789168 66.7271277,58.055706 C66.7271277,60.4065764 65.0418794,61.9690522 62.8676773,61.9690522 C60.7019787,61.9690522 59.0484255,60.4970986 59.0484255,58.2994197 C59.0484255,56.1748549 60.6919291,54.5284333 62.8151099,54.5284333 M62.9693333,61.5191489 C64.9510461,61.5191489 65.2965993,59.7702128 65.2965993,58.2800774 C65.2965993,56.7864603 64.4918546,54.9783366 62.7957837,54.9783366 C61.009266,54.9783366 60.4777943,56.5729207 60.4777943,57.9411992 C60.4777943,59.7702128 61.3157801,61.5191489 62.9693333,61.5191489" id="Fill-33" fill="#1A1919"></path>
                    <path d="M59.0028156,58.2994197 C59.0070674,56.1500967 60.6695106,54.4874275 62.8147234,54.4839458 L62.8147234,54.5733075 C60.7155071,54.5733075 59.0917163,56.1972921 59.0893972,58.2994197 C59.0936489,60.4723404 60.7232376,61.9222437 62.8680638,61.9230174 C65.020234,61.9222437 66.6811312,60.382205 66.6838369,58.0541586 C66.6819043,55.9044487 64.9742376,54.5752418 62.8147234,54.5733075 L62.8147234,54.4839458 C65.0070922,54.4862669 66.7669397,55.8499033 66.770805,58.0541586 C66.7684858,60.4294004 65.0631383,62.0081238 62.8680638,62.0119923 C60.6838121,62.0081238 59.0070674,60.52147 59.0028156,58.2994197 M60.4329574,57.9411992 C60.4360496,56.5659574 60.9721596,54.9326886 62.7953972,54.9326886 C64.5293475,54.9365571 65.3379574,56.7783366 65.3414362,58.2800774 C65.3379574,59.7702128 64.987766,61.5609284 62.9697199,61.5609284 L62.9697199,61.4742747 C64.911234,61.4727273 65.2486702,59.7702128 65.2517624,58.2800774 C65.2517624,56.7996132 64.4551348,55.0255319 62.7953972,55.022824 C61.0436667,55.0247582 60.5261099,56.5798839 60.5214716,57.9411992 C60.5222447,59.7617021 61.3525,61.4715667 62.9697199,61.4742747 L62.9697199,61.5609284 C61.2748085,61.559381 60.4360496,59.7810445 60.4329574,57.9411992" id="Fill-34" fill="#1A1919"></path>
                    <path d="M73.6080426,59.8011605 L73.6293014,59.7810445 L73.6293014,55.9497099 C73.6293014,55.1110251 73.0452624,54.9883946 72.7391348,54.9883946 L72.516883,54.9883946 L72.516883,54.6816248 C72.9954007,54.6816248 73.4661879,54.7222437 73.9447057,54.7222437 C74.3644716,54.7222437 74.783078,54.6816248 75.2020709,54.6816248 L75.2020709,54.9883946 L75.0486206,54.9883946 C74.6207376,54.9883946 74.1387411,55.0700193 74.1387411,56.2862669 L74.1387411,60.9361702 C74.1387411,61.2943907 74.1495638,61.6518375 74.2013582,61.9690522 L73.8129007,61.9690522 L68.5530709,56.1017408 L68.5530709,60.3133462 C68.5530709,61.2030948 68.7273936,61.5083172 69.512039,61.5083172 L69.6871348,61.5083172 L69.6871348,61.8154739 C69.247656,61.8154739 68.8093369,61.7756286 68.3702447,61.7756286 C67.9102801,61.7756286 67.440266,61.8154739 66.9806879,61.8154739 L66.9806879,61.5083172 L67.1240887,61.5083172 C67.829883,61.5083172 68.0428582,61.027853 68.0428582,60.212766 L68.0428582,55.9067698 C68.0428582,55.3350097 67.5747766,54.9883946 67.1128794,54.9883946 L66.9806879,54.9883946 L66.9806879,54.6816248 C67.3687589,54.6816248 67.7664929,54.7222437 68.1553369,54.7222437 C68.461078,54.7222437 68.7556099,54.6816248 69.0632837,54.6816248 L73.6080426,59.8011605" id="Fill-35" fill="#1A1919"></path>
                    <path d="M74.2017447,62.0119923 L73.779273,61.9976789 L68.5971348,56.217795 L68.5971348,60.3133462 C68.609117,61.2030948 68.7440142,61.4533849 69.5108794,61.4622824 L69.7308121,61.4622824 L69.7308121,61.8591876 L69.6875213,61.8591876 C69.2453369,61.8591876 68.8070177,61.8181818 68.3702447,61.8181818 C67.9125993,61.8181818 67.4425851,61.8591876 66.9795284,61.8591876 L66.9377837,61.8591876 L66.9377837,61.4622824 L67.1237021,61.4622824 C67.7966418,61.4603482 67.9906773,61.0263056 67.9987943,60.2123791 L67.9987943,55.9067698 C67.9984078,55.362089 67.5519716,55.032882 67.113266,55.032882 L66.9377837,55.032882 L66.9377837,54.6371373 L66.9795284,54.6371373 C67.371078,54.6371373 67.7691986,54.6769826 68.1549504,54.6769826 C68.4579858,54.6769826 68.7513582,54.6371373 69.0976844,54.6529981 L73.5844645,59.7087041 L73.5844645,55.9497099 C73.5809858,55.1381044 73.0371454,55.0394584 72.7391348,55.032882 L72.4701135,55.032882 L72.4701135,54.6371373 L72.516883,54.6371373 C72.9965603,54.6371373 73.467734,54.6769826 73.9435461,54.6769826 C74.3613794,54.6769826 74.7780532,54.6371373 75.2024574,54.6371373 L75.2453617,54.6371373 L75.2453617,55.032882 L75.048234,55.032882 C74.6273085,55.0437137 74.1928546,55.0823985 74.1843511,56.2862669 L74.1843511,60.9361702 C74.1843511,61.2940039 74.1924681,61.650677 74.2419433,61.9617021 L74.2508333,62.0119923 L74.2017447,62.0119923 Z M73.8129007,61.9230174 L74.1476312,61.9230174 C74.1043404,61.6154739 74.0942908,61.2762089 74.0942908,60.9361702 L74.0942908,56.2862669 C74.0942908,55.0576402 74.6099149,54.9458414 75.048234,54.9431335 L75.1587801,54.9431335 L75.1587801,54.7257253 C74.7533156,54.7288201 74.3517163,54.7659574 73.9435461,54.7659574 C73.4785567,54.7659574 73.0220709,54.7288201 72.5597872,54.7257253 L72.5597872,54.9431335 L72.7391348,54.9431335 C73.054539,54.9458414 73.6710461,55.0854932 73.6710461,55.9497099 L73.6602234,59.8131528 L73.6405106,59.832882 L73.6080426,59.8665377 L69.0636702,54.7257253 C68.7614078,54.7257253 68.4641702,54.7659574 68.1549504,54.7659574 C67.7784752,54.7659574 67.3950426,54.7288201 67.0235922,54.7257253 L67.0235922,54.9431335 L67.113266,54.9431335 C67.5933298,54.9458414 68.0865355,55.3083172 68.0865355,55.9067698 L68.0865355,60.2123791 C68.0865355,61.0301741 67.8584858,61.5524178 67.1237021,61.5551257 L67.0235922,61.554352 L67.0235922,61.7713733 C67.4669362,61.7682785 67.9214894,61.7307544 68.3702447,61.7307544 C68.796195,61.7307544 69.2194397,61.7682785 69.6426844,61.7713733 L69.6426844,61.5551257 L69.5108794,61.5551257 C68.7096135,61.554352 68.5086206,61.2030948 68.5086206,60.3133462 L68.5086206,55.987234 L73.8129007,61.9230174 Z" id="Fill-36" fill="#1A1919"></path>
                    <path d="M76.8424823,60.354352 C76.7423723,60.7005803 76.6190709,60.9690522 76.6190709,61.1504836 C76.6190709,61.4580271 77.049273,61.5087041 77.3840035,61.5087041 L77.4980284,61.5087041 L77.4980284,61.8154739 C77.0890851,61.7934236 76.6700922,61.7760155 76.2611489,61.7760155 C75.8935638,61.7760155 75.5263652,61.7934236 75.1603262,61.8154739 L75.1603262,61.5087041 L75.218305,61.5087041 C75.6187447,61.5087041 75.9569539,61.2731141 76.1061525,60.8437137 L77.7434716,56.154352 C77.8752766,55.7752418 78.0600355,55.2646035 78.1187872,54.8854932 C78.4469468,54.7736944 78.854344,54.5705996 79.0510851,54.4464217 C79.0796879,54.4359768 79.1001738,54.4255319 79.1318688,54.4255319 C79.1616312,54.4255319 79.1809574,54.4255319 79.2018298,54.4576402 C79.2327518,54.5384913 79.2632872,54.6305609 79.2942092,54.7121857 L81.1731064,60.0580271 C81.2948617,60.4147002 81.4181631,60.7926499 81.5515142,61.1009671 C81.6740426,61.3876209 81.8881773,61.5087041 82.2248404,61.5087041 L82.287844,61.5087041 L82.287844,61.8154739 C81.8274929,61.7934236 81.3675284,61.7760155 80.8770284,61.7760155 C80.3776383,61.7760155 79.866266,61.7934236 79.344844,61.8154739 L79.344844,61.5087041 L79.4580957,61.5087041 C79.6915567,61.5087041 80.0919965,61.4680851 80.0919965,61.2123791 C80.0919965,61.0804642 80.0003901,60.8042553 79.8863652,60.4758221 L79.4882447,59.2909091 L77.1706418,59.2909091 L76.8424823,60.354352 Z M78.3356277,55.8266925 L78.3151418,55.8266925 L77.3631312,58.7191489 L79.275656,58.7191489 L78.3356277,55.8266925 L78.3356277,55.8266925 Z" id="Fill-37" fill="#1A1919"></path>
                    <path d="M82.2832057,61.8591876 C81.8228546,61.8410058 81.3644362,61.8181818 80.8774149,61.8181818 C80.3791844,61.8181818 79.8674255,61.8410058 79.3471631,61.8591876 L79.3019397,61.8615087 L79.3019397,61.4642166 L79.4573227,61.4642166 C79.6946489,61.4642166 80.0463865,61.4092843 80.046773,61.2123791 C80.0494787,61.0959381 79.9570993,60.8170213 79.8423014,60.4909091 L79.4550035,59.3346228 L77.2007908,59.3346228 L76.8853865,60.3675048 C76.7825709,60.7176015 76.6619752,60.984913 76.6631348,61.1504836 C76.6631348,61.4007737 77.0461809,61.4642166 77.383617,61.4642166 L77.539773,61.4642166 L77.539773,61.8615087 L77.4937766,61.8591876 C77.0859929,61.8410058 76.667773,61.8181818 76.2611489,61.8181818 C75.8951099,61.8181818 75.5286844,61.8410058 75.1603262,61.8591876 L75.1158759,61.8615087 L75.1158759,61.4642166 L75.218305,61.4642166 C75.5990319,61.4622824 75.9175284,61.2441006 76.0671135,60.8294004 L77.7001809,56.1384913 C77.8312128,55.7601547 78.0155851,55.2518375 78.1052589,54.8448743 C78.4260745,54.7334623 78.8361773,54.5284333 79.0348511,54.405029 C79.0611348,54.394971 79.0897376,54.3825919 79.1314823,54.3825919 C79.157766,54.3802708 79.2114929,54.3868472 79.2428014,54.4425532 C79.2737234,54.5230174 79.3038723,54.6158607 79.3371135,54.6982592 L81.2148511,60.0433269 C81.337766,60.4011605 81.4595213,60.7787234 81.5920993,61.083559 C81.7123085,61.3539652 81.8970674,61.4615087 82.2236809,61.4642166 L82.3292021,61.4642166 L82.3292021,61.8615087 L82.2832057,61.8591876 Z M79.3885213,61.7690522 C79.8937092,61.7504836 80.3903936,61.7307544 80.8774149,61.7307544 C81.3520674,61.7307544 81.7961844,61.7504836 82.2418475,61.7682785 L82.2406879,61.554352 L82.2236809,61.554352 C81.8777411,61.5551257 81.6369362,61.4189555 81.509383,61.1176015 C81.3748723,60.8088975 81.2535035,60.4294004 81.1309752,60.0727273 L79.252078,54.7261122 C79.2219291,54.6444874 79.189461,54.5531915 79.1654965,54.4823985 C79.1569929,54.4704062 79.157766,54.4704062 79.1515816,54.4704062 L79.1314823,54.4704062 C79.1094504,54.4704062 79.0982411,54.4773694 79.0738901,54.4843327 C78.8740567,54.6092843 78.4655,54.8143133 78.1640106,54.8920696 C78.1006206,55.2793037 77.9150887,55.7891683 77.7836702,56.1686654 L76.1482837,60.8584139 C75.9929007,61.3025145 75.6361383,61.5551257 75.218305,61.554352 L75.2032305,61.554352 L75.2032305,61.7682785 C75.5549681,61.7504836 75.9059326,61.7307544 76.2611489,61.7307544 C76.6565638,61.7307544 77.0604823,61.7504836 77.452805,61.7682785 L77.452805,61.554352 L77.383617,61.554352 C77.0515922,61.5497099 76.5862163,61.5145068 76.5730745,61.1504836 C76.5757801,60.9485493 76.7014007,60.6878143 76.8015106,60.3415861 L76.8424823,60.354352 L76.8015106,60.3404255 L77.1374007,59.2483559 L79.5176206,59.2483559 L79.9277234,60.4618956 C80.0402021,60.7907157 80.1333546,61.0630561 80.1333546,61.2123791 C80.1186667,61.5253385 79.6892376,61.5485493 79.4573227,61.554352 L79.3885213,61.554352 L79.3885213,61.7690522 Z M77.3020603,58.7628627 L78.2826738,55.7814313 L78.3356277,55.7814313 L78.3356277,55.8266925 L78.3240319,55.8297872 L78.3356277,55.8266925 L78.3356277,55.7814313 L78.3665496,55.7814313 L79.3320887,58.7628627 L77.3020603,58.7628627 Z M77.4253617,58.6738878 L79.2118794,58.6738878 L78.3236454,55.9369439 L77.4253617,58.6738878 Z" id="Fill-38" fill="#1A1919"></path>
                    <path d="M84.8597801,60.8131528 C84.8597801,61.2239845 85.1434894,61.3450677 85.4712624,61.3876209 C85.8890957,61.4181818 86.3490603,61.4181818 86.820234,61.3659574 C87.2485035,61.3145068 87.6160887,61.070793 87.7993014,60.8131528 C87.9616418,60.5887814 88.0536348,60.3025145 88.1162518,60.0781431 L88.4115567,60.0781431 C88.299078,60.660735 88.1564504,61.2336557 88.033922,61.8154739 C87.1371844,61.8154739 86.2358085,61.7760155 85.3386844,61.7760155 C84.4392411,61.7760155 83.541344,61.8154739 82.6430603,61.8154739 L82.6430603,61.5083172 L82.7845284,61.5083172 C83.1528865,61.5083172 83.5525532,61.4580271 83.5525532,60.8243714 L83.5525532,55.572147 C83.5525532,55.0394584 83.1528865,54.9883946 82.7845284,54.9883946 L82.6430603,54.9883946 L82.6430603,54.6816248 C83.183422,54.6816248 83.7152801,54.7222437 84.2556418,54.7222437 C84.7774504,54.7222437 85.2868901,54.6816248 85.8090851,54.6816248 L85.8090851,54.9883946 L85.5524326,54.9883946 C85.1643617,54.9883946 84.8597801,54.9992263 84.8597801,55.5408124 L84.8597801,60.8131528" id="Fill-39" fill="#1A1919"></path>
                    <path d="M88.0343085,61.8591876 C87.1337057,61.8591876 86.2342624,61.8181818 85.3386844,61.8181818 C84.4404007,61.8181818 83.5417305,61.8591876 82.6411277,61.8591876 L82.5982234,61.8591876 L82.5982234,61.4642166 L82.7845284,61.4642166 C83.1536596,61.4553191 83.5042376,61.4294004 83.5084894,60.8243714 L83.5084894,55.5702128 C83.5042376,55.0727273 83.1552057,55.0394584 82.7845284,55.032882 L82.5982234,55.032882 L82.5982234,54.6371373 L82.6411277,54.6371373 C83.1849681,54.6371373 83.7164397,54.6769826 84.2548688,54.6769826 C84.7747447,54.6769826 85.2834113,54.6371373 85.8090851,54.6371373 L85.8500567,54.6371373 L85.8500567,55.032882 L85.5524326,55.032882 C85.1562447,55.04294 84.9104149,55.0251451 84.9015248,55.5408124 L84.9015248,60.8131528 C84.9042305,61.1953578 85.1543121,61.2974855 85.4735816,61.3431335 C85.6533156,61.3555126 85.8434858,61.362089 86.0398404,61.362089 C86.2895355,61.362089 86.5488936,61.3504836 86.8128901,61.3226306 C87.2287908,61.2731141 87.5867128,61.0324952 87.7633546,60.7887814 C87.9210567,60.5702128 88.0099574,60.2901354 88.0718014,60.0676983 L88.080305,60.0340426 L88.4652837,60.0340426 L88.4563936,60.0878143 C88.3408227,60.6719536 88.2001277,61.2421663 88.0764397,61.8247582 L88.0683227,61.8591876 L88.0343085,61.8591876 Z M87.9968156,61.7709865 C88.1150922,61.2158607 88.2484433,60.6731141 88.3589894,60.1218569 L88.1483333,60.1218569 C88.0857163,60.344294 87.9944965,60.6185687 87.8344752,60.8410058 C87.6435319,61.1056093 87.2655106,61.3555126 86.8225532,61.4104449 C86.5554645,61.4375242 86.289922,61.4514507 86.0398404,61.4514507 C85.8419397,61.4514507 85.6509965,61.4425532 85.465078,61.4294004 C85.1330532,61.3930368 84.8118511,61.2502901 84.8122376,60.8131528 L84.8122376,55.5408124 C84.8122376,54.9725338 85.1713191,54.9431335 85.5524326,54.9431335 L85.7627021,54.9431335 L85.7627021,54.7257253 C85.2598333,54.7288201 84.7631489,54.767118 84.2548688,54.767118 C83.7272624,54.767118 83.2097057,54.7288201 82.6871241,54.7257253 L82.6871241,54.9431335 L82.7845284,54.9431335 C83.1486348,54.9431335 83.5942979,55.0069632 83.5942979,55.5702128 L83.5942979,60.8243714 C83.5942979,61.4858801 83.1505674,61.554352 82.7845284,61.554352 L82.6871241,61.554352 L82.6871241,61.7709865 C83.5691738,61.7690522 84.4519965,61.7307544 85.3386844,61.7307544 C86.2265319,61.7307544 87.1128333,61.7690522 87.9968156,61.7709865 L87.9968156,61.7709865 Z" id="Fill-40" fill="#1A1919"></path>
                    <path d="M88.2870957,54.3918762 C88.9032163,54.3918762 89.3627943,54.8653772 89.3627943,55.4704062 C89.3627943,56.0750484 88.9032163,56.5435203 88.2870957,56.5435203 C87.6725213,56.5435203 87.2121702,56.0750484 87.2121702,55.4704062 C87.2121702,54.8653772 87.6725213,54.3918762 88.2870957,54.3918762 L88.2870957,54.3918762 Z M88.2870957,56.3435203 C88.7694787,56.3435203 89.1378369,55.9330754 89.1378369,55.4704062 C89.1378369,55.0069632 88.7737305,54.5934236 88.2870957,54.5934236 C87.8031667,54.5934236 87.435195,55.0069632 87.435195,55.4704062 C87.435195,55.9330754 87.8031667,56.3435203 88.2870957,56.3435203 L88.2870957,56.3435203 Z M87.7525319,56.037911 L87.7525319,55.9856867 C87.8839504,55.9667311 87.9086879,55.9702128 87.9086879,55.8897485 L87.9086879,55.0920696 C87.9086879,54.9798839 87.8974787,54.9411992 87.7567837,54.9473888 L87.7567837,54.8924565 L88.307195,54.8924565 C88.4962057,54.8924565 88.6705284,54.9829787 88.6705284,55.1787234 C88.6705284,55.3384913 88.5653936,55.4572534 88.416195,55.5032882 L88.5932234,55.7500967 C88.6755532,55.8615087 88.7694787,55.9667311 88.8297766,56.0038685 L88.8297766,56.037911 L88.6206667,56.037911 C88.5201702,56.037911 88.4312695,55.8266925 88.2341418,55.5431335 L88.1150922,55.5431335 L88.1150922,55.8998066 C88.1150922,55.9702128 88.1398298,55.9667311 88.2720213,55.9856867 L88.2720213,56.037911 L87.7525319,56.037911 Z M88.1150922,55.4704062 L88.2418723,55.4704062 C88.3806348,55.4704062 88.4447979,55.3655706 88.4447979,55.1957447 C88.4447979,55.0247582 88.3458475,54.9640232 88.2349149,54.9640232 L88.1150922,54.9640232 L88.1150922,55.4704062 L88.1150922,55.4704062 Z" id="Fill-41" fill="#1A1919"></path>
                    <path d="M24.5081809,18.6015474 C24.5081809,9.04216634 32.2510461,1.29284333 41.8020745,1.29284333 C51.3534894,1.29284333 59.0963546,9.04216634 59.0963546,18.6015474 C59.0963546,28.1609284 51.3534894,35.9106383 41.8020745,35.9106383 C32.2510461,35.9106383 24.5081809,28.1609284 24.5081809,18.6015474" id="Fill-42" fill="#FFFFFE"></path>
                    <path d="M52.2610496,18.260735 C52.2540922,13.8282398 49.4858014,10.0479691 45.5849929,8.55087041 L45.5849929,27.9698259 C49.4858014,26.470793 52.2540922,22.6940039 52.2610496,18.260735 Z M38.143617,27.9659574 L38.143617,8.55280464 C34.2462872,10.0545455 31.4822482,13.8294004 31.4718121,18.260735 C31.4822482,22.6909091 34.2462872,26.4653772 38.143617,27.9659574 Z M41.8662376,1.84719536 C32.8091879,1.85067698 25.4714007,9.19613153 25.4698546,18.260735 C25.4714007,27.3241779 32.8091879,34.668472 41.8662376,34.6700193 C50.9232872,34.668472 58.2626206,27.3241779 58.2649397,18.260735 C58.2626206,9.19613153 50.9232872,1.85067698 41.8662376,1.84719536 Z M41.826039,36.2191623 C31.915156,36.2661509 23.7579362,28.2301741 23.7579362,18.4479691 C23.7579362,7.75705996 31.915156,0.362475822 41.826039,0.364409678 L46.4705213,0.364409678 C56.2642872,0.362475822 65.2026738,7.75357834 65.2026738,18.4479691 C65.2026738,28.2266925 56.2642872,36.2191623 46.4705213,36.2191623 L41.826039,36.2191623 L41.826039,36.2191623 Z" id="Fill-43" fill="#0167AA"></path>
                </g>
            </g>
        </g>
    </g>
</svg>