<?xml version="1.0" encoding="UTF-8" standalone="no"?>
<svg width="120px" height="80px" viewBox="0 0 120 80" version="1.1" xmlns="http://www.w3.org/2000/svg" xmlns:xlink="http://www.w3.org/1999/xlink" xmlns:sketch="http://www.bohemiancoding.com/sketch/ns">
    <!-- Generator: Sketch 3.3.1 (12002) - http://www.bohemiancoding.com/sketch -->
    <title>card_easypay</title>
    <desc>Created with Sketch.</desc>
    <defs>
        <linearGradient x1="5.10004783%" y1="5.10004783%" x2="100%" y2="100%" id="linearGradient-1">
            <stop stop-color="#388CC7" offset="0%"></stop>
            <stop stop-color="#0B2662" offset="100%"></stop>
        </linearGradient>
    </defs>
    <g id="assets-various" stroke="none" stroke-width="1" fill="none" fill-rule="evenodd" sketch:type="MSPage">
        <g id="production-final" sketch:type="MSArtboardGroup" transform="translate(-36.000000, -2213.000000)">
            <g id="card_easypay" sketch:type="MSLayerGroup" transform="translate(36.000000, 2213.000000)">
                <rect id="Rectangle-11" fill="url(#linearGradient-1)" sketch:type="MSShapeGroup" x="0" y="0" width="120" height="80" rx="4"></rect>
                <g id="Group-Copy-7" transform="translate(42.000000, 12.000000)" fill="#FFFFFF" sketch:type="MSShapeGroup">
                    <path d="M31.9647887,15.0268724 L31.9647887,3.99120764 C31.9647887,1.7849091 30.1739942,0 27.9649371,0 L3.99985161,0 C1.78705895,0 0,1.78692453 0,3.99120764 L0,50.5877397 C0,52.7940383 1.79079456,54.5789474 3.99985161,54.5789474 L27.9649371,54.5789474 C30.1777298,54.5789474 31.9647887,52.7920228 31.9647887,50.5877397 L31.9647887,41.1858752 L28.3732394,37.1639543 L28.3732394,43.8067867 L3.95070423,43.8067867 L3.95070423,8.25865651 L28.3732394,8.25865651 L28.3732394,18.7615132 L31.9647887,15.0268724 Z M15.9823944,52.0654432 C17.4700628,52.0654432 18.6760563,50.8597281 18.6760563,49.372403 C18.6760563,47.885078 17.4700628,46.6793629 15.9823944,46.6793629 C14.4947259,46.6793629 13.2887324,47.885078 13.2887324,49.372403 C13.2887324,50.8597281 14.4947259,52.0654432 15.9823944,52.0654432 Z M13.2887324,4.66793629 L18.6760563,4.66793629 L18.6760563,5.74515235 L13.2887324,5.74515235 L13.2887324,4.66793629 Z" id="Rectangle-76"></path>
                    <path d="M14.0070423,27.2894737 C17.5774465,27.2894737 20.471831,24.3957573 20.471831,20.8261773 C20.471831,17.2565973 17.5774465,14.3628809 14.0070423,14.3628809 C10.436638,14.3628809 7.54225352,17.2565973 7.54225352,20.8261773 C7.54225352,24.3957573 10.436638,27.2894737 14.0070423,27.2894737 Z M14.2407053,19.8531438 C14.8865012,19.8531438 15.4005408,20.0343485 15.7828398,20.3967634 C16.1651387,20.7591784 16.3562853,21.255588 16.3562853,21.8860072 C16.3562853,22.6321556 16.1263002,23.2062244 15.666323,23.6082309 C15.2063457,24.0102374 14.5483749,24.2112376 13.6923908,24.2112376 C12.9491164,24.2112376 12.3490226,24.090942 11.8920916,23.8503472 L11.8920916,22.6306291 C12.132742,22.7585403 12.4129888,22.8628472 12.7328405,22.9435531 C13.0526922,23.0242589 13.3557852,23.0646112 13.6421287,23.0646112 C14.5042052,23.0646112 14.935237,22.7113381 14.935237,22.0047813 C14.935237,21.331725 14.4889744,20.9952019 13.5964358,20.9952019 C13.4349868,20.9952019 13.2567864,21.0111905 13.0618292,21.0431683 C12.866872,21.0751461 12.7084716,21.1094075 12.5866233,21.1459536 L12.024601,20.8444502 L12.2759118,17.441117 L15.8993566,17.441117 L15.8993566,18.6379939 L13.5141886,18.6379939 L13.3908179,19.9490766 L13.5507429,19.917099 C13.7365615,19.874462 13.9665467,19.8531438 14.2407053,19.8531438 Z" id="Oval-68"></path>
                    <path d="M15.8509738,36.6178729 L15.8509738,34.4539139 L15.8624965,33.9201525 L15.881701,33.336471 C15.684534,33.5335925 15.5475434,33.6628715 15.470725,33.724312 L14.8254544,34.2427133 L14.2531608,33.5284715 L16.0622231,32.0884678 L17.0378109,32.0884678 L17.0378109,36.6257924 L17.9836957,36.7850559 L17.9836957,37.7025623 L14.8372332,37.7025623 L14.8372332,36.7850559 L15.8509738,36.6178729 Z M16.1619718,40.2160665 C18.9389529,40.2160665 21.1901408,37.9653982 21.1901408,35.1890582 C21.1901408,32.4127181 18.9389529,30.1620499 16.1619718,30.1620499 C13.3849908,30.1620499 11.1338028,32.4127181 11.1338028,35.1890582 C11.1338028,37.9653982 13.3849908,40.2160665 16.1619718,40.2160665 Z" id="Oval-69"></path>
                    <g id="Oval-68-Copy-+-Path-Copy-2-+-Group-Copy" transform="translate(36.046853, 24.057825) rotate(-45.000000) translate(-36.046853, -24.057825) translate(22.758120, 16.337777)">
                        <g id="Oval-68-Copy-+-Path-Copy-2" transform="translate(6.823944, 1.436288)">
                            <path d="M3.7957085,8.44562634 L2.91620537,8.60951723 L2.91620537,9.52702361 L5.70085541,9.52702361 L5.70085541,8.60951723 L4.98254555,8.47285704 L4.98254555,3.67943626 L4.00695781,3.67943626 L2.19789551,5.11944 L2.77018911,5.83368185 L3.41545974,5.3152805 C3.49227805,5.25384004 3.62926866,5.124561 3.82643567,4.9274395 L3.80723119,5.51112101 L3.7957085,6.0448824 L3.7957085,8.44562634 Z M6.46478873,12.9265928 C10.035193,12.9265928 12.9295775,10.0328764 12.9295775,6.4632964 C12.9295775,2.89371636 10.035193,0 6.46478873,0 C2.8943845,0 0,2.89371636 0,6.4632964 C0,10.0328764 2.8943845,12.9265928 6.46478873,12.9265928 Z M10.6659427,6.38810096 C10.6659427,7.39620425 10.5007413,8.14240006 10.1703336,8.62671078 C9.83992579,9.11102149 9.33115812,9.35317322 8.64401527,9.35317322 C7.97793428,9.35317322 7.47574833,9.10312524 7.13744237,8.60302178 C6.79913641,8.10291833 6.62998597,7.36461877 6.62998597,6.38810096 C6.62998597,5.36946918 6.7945292,4.61866723 7.1236206,4.13567257 C7.452712,3.65267792 7.95950516,3.41118421 8.64401527,3.41118421 C9.31009627,3.41118421 9.81359856,3.66386427 10.1545372,4.16923198 C10.4954759,4.67459968 10.6659427,5.41421528 10.6659427,6.38810096 Z" id="Oval-68-Copy"></path>
                            <path d="M7.81161972,6.29873966 C7.81161972,7.00678087 7.8728298,7.51411505 7.9952518,7.82075744 C8.1176738,8.12739982 8.32368193,8.28071871 8.61328236,8.28071871 C8.89761733,8.28071871 9.10296729,8.12542576 9.22933838,7.81483519 C9.35570948,7.50424462 9.41889408,6.9988845 9.41889408,6.29873966 C9.41889408,5.59069844 9.35505131,5.08204821 9.22736384,4.77277371 C9.09967638,4.4634992 8.8949846,4.30886427 8.61328236,4.30886427 C8.32631466,4.30886427 8.12096471,4.4634992 7.99722634,4.77277371 C7.87348797,5.08204821 7.81161972,5.59069844 7.81161972,6.29873966 L7.81161972,6.29873966 Z" id="Path-Copy-2"></path>
                        </g>
                        <g id="Group">
                            <ellipse id="Oval-70-Copy" cx="2.87323944" cy="2.87257618" rx="2.87323944" ry="2.87257618"></ellipse>
                            <ellipse id="Oval-70-Copy-3" cx="2.87323944" cy="12.5675208" rx="2.87323944" ry="2.87257618"></ellipse>
                            <ellipse id="Oval-70-Copy-2" cx="23.7042254" cy="2.87257618" rx="2.87323944" ry="2.87257618"></ellipse>
                            <ellipse id="Oval-70-Copy-4" cx="23.7042254" cy="12.5675208" rx="2.87323944" ry="2.87257618"></ellipse>
                            <path d="M0,2.15443213 L0,2.15443213 L2.15492958,0 L2.15492958,15.440097 L0,13.2856648 L26.5774648,13.2856648 L24.4225352,15.440097 L24.4225352,0 L26.5774648,2.15443213 L0,2.15443213 Z M0,0 L26.5774648,0 L26.5774648,15.440097 L0,15.440097 L0,0 L0,0 Z" id="Shape"></path>
                        </g>
                    </g>
                </g>
            </g>
        </g>
    </g>
</svg>