<?xml version="1.0" encoding="UTF-8" standalone="no"?>
<svg width="120px" height="80px" viewBox="0 0 120 80" version="1.1" xmlns="http://www.w3.org/2000/svg" xmlns:xlink="http://www.w3.org/1999/xlink" xmlns:sketch="http://www.bohemiancoding.com/sketch/ns">
    <!-- Generator: Sketch 3.2.2 (9983) - http://www.bohemiancoding.com/sketch -->
    <title>card_efinance</title>
    <desc>Created with Sketch.</desc>
    <defs></defs>
    <g id="assets-various" stroke="none" stroke-width="1" fill="none" fill-rule="evenodd" sketch:type="MSPage">
        <g id="Artboard-2" sketch:type="MSArtboardGroup" transform="translate(-35.000000, -433.000000)">
            <g id="card_efinance" sketch:type="MSLayerGroup" transform="translate(35.000000, 433.000000)">
                <rect id="Rectangle-11" fill="#FCD202" sketch:type="MSShapeGroup" x="0" y="0" width="120" height="80" rx="4"></rect>
                <path d="M93.2254237,33.2821478 L94.2105085,37.9129507 L13.8199186,37.9129507 L12.8339525,33.2821478 L93.2254237,33.2821478" id="path24" fill="#FFFFFF" sketch:type="MSShapeGroup" transform="translate(53.522231, 35.597549) scale(1, -1) translate(-53.522231, -35.597549) "></path>
                <path d="M102.908136,32.9608546 C102.908136,32.9608546 103.986102,37.8669123 104.001017,37.9129507 L97.1508475,37.9129507 C97.1508475,37.8819219 95.7345763,31.4022776 95.7345763,31.371518 L97.4898305,31.371518 C97.5047458,31.371518 98.5671186,36.2623642 98.5671186,36.2623642 L101.891864,36.2623642 C101.891864,36.2623642 100.845085,31.3565084 100.814576,31.3254796 L105.878983,31.3254796 L105.217288,28.2997969 L100.182712,28.2997969 C100.182712,28.2690373 99.1671186,23.6842392 99.1671186,23.6842392 L95.3650847,23.6842392 C95.3650847,23.6692296 95.0261017,22.0338613 95.0111864,22.0186094 L100.613898,22.0186094 C100.613898,22.0338613 101.615254,26.6494123 101.615254,26.6494123 L106.649153,26.6494123 C106.649153,26.6646911 107.97322,32.9306334 107.97322,32.9608546 L102.908136,32.9608546" id="path26" fill="#ED1C24" sketch:type="MSShapeGroup" transform="translate(101.492203, 29.965780) scale(1, -1) translate(-101.492203, -29.965780) "></path>
                <path d="M90.5122034,30.1034075 C91.2355932,30.1034075 91.7284746,29.614619 91.7284746,28.8045709 C91.7284746,28.6673305 91.7128814,28.5450325 91.6979661,28.4075228 L88.5725424,28.4075228 C88.8959322,29.4310709 89.5881356,30.1034075 90.5122034,30.1034075 L90.5122034,30.1034075 Z M92.0667797,24.020744 L92.4674576,25.8395998 C91.7901695,25.6108209 91.1277966,25.4276094 90.2816949,25.4276094 C89.2959322,25.4276094 88.4342373,25.7633401 88.3881356,26.9404171 L93.4681356,26.9404171 C93.6525424,27.5367632 93.760339,28.1322344 93.760339,28.6822728 C93.760339,30.3636863 92.7752542,31.7395228 90.6661017,31.7395228 C87.9257627,31.7395228 86.2633898,29.5073305 86.2633898,27.0468978 C86.2633898,24.9382825 87.679661,23.6999555 89.8810169,23.6999555 C90.7738983,23.6999555 91.4816949,23.8380036 92.0667797,24.020744 L92.0667797,24.020744 L92.0667797,24.020744 Z M83.7081356,25.5648498 C82.7074576,25.5648498 82.0301695,25.9925901 82.0301695,27.2304459 C82.0301695,28.6822728 82.9535593,29.8899075 84.4166102,29.8899075 C84.8783051,29.8899075 85.4016949,29.7523978 85.9250847,29.553369 L86.2945763,31.2956959 C85.6938983,31.5094651 84.9854237,31.6625228 84.2776271,31.6625228 C81.860678,31.6625228 79.7976271,29.8746286 79.7976271,27.1231575 C79.7976271,24.8615517 81.1989831,23.7922344 83.2152542,23.7922344 C83.8925424,23.7922344 84.4620339,23.9141959 84.8783051,24.081994 L85.2783051,25.8706286 C84.8166102,25.7023594 84.3081356,25.5648498 83.7081356,25.5648498 L83.7081356,25.5648498 L83.7081356,25.5648498 Z M73.0709831,23.9294748 L73.9176271,27.7962344 C74.2560678,29.3548786 75.0262373,29.8899075 75.8265085,29.8899075 C76.8580339,29.8899075 76.9812203,29.1252921 76.7807458,28.2545325 L75.8570169,23.9294748 L78.0586441,23.9294748 L79.0281356,28.3615517 C79.5054237,30.5774555 78.4742373,31.7395228 76.8580339,31.7395228 C75.9647458,31.7395228 75.1030508,31.3877728 74.3638644,30.6082151 L74.5637966,31.5094651 L72.516678,31.5094651 L70.8694237,23.9294748 L73.0709831,23.9294748 L73.0709831,23.9294748 Z M65.1586441,26.1148882 C65.1586441,26.8786286 65.8357966,27.307244 66.9591864,27.307244 C67.175322,27.307244 67.6517288,27.2914267 68.0833898,27.2304459 L67.9907119,26.8024363 C67.7285424,25.9013882 66.9904407,25.2892921 66.1133559,25.2892921 C65.4816949,25.2892921 65.1586441,25.5950709 65.1586441,26.1148882 L65.1586441,26.1148882 L65.1586441,26.1148882 Z M67.2831186,31.6935517 C66.2669153,31.6935517 65.2354576,31.4639651 64.8969492,31.3570132 L64.5275254,29.5993401 C65.019322,29.7365805 65.9894237,29.9969267 66.8519322,29.9969267 C68.0061017,29.9969267 68.4218983,29.6453786 68.4218983,29.0490998 C68.4218983,28.9425517 68.4218983,28.8197825 68.3913898,28.6980901 L68.3602034,28.5450325 C67.8061695,28.6060132 67.2831186,28.6515132 67.036,28.6515132 C64.8506441,28.6515132 63.0961356,27.8115132 63.0961356,25.8243209 C63.0961356,24.5255517 64.1117288,23.7459267 65.4353898,23.7459267 C66.3747119,23.7459267 67.175322,24.1127536 67.6983729,24.7240421 L67.5288814,23.9294748 L69.4838644,23.9294748 L70.4385763,28.2694748 C70.5153898,28.5910709 70.5458305,28.9268017 70.5458305,29.2475901 C70.5458305,30.5471671 69.8228475,31.6935517 67.2831186,31.6935517 L67.2831186,31.6935517 L67.2831186,31.6935517 Z M56.6149153,23.9294748 L57.4613559,27.7962344 C57.800339,29.3548786 58.5693559,29.8899075 59.3707797,29.8899075 C60.4023051,29.8899075 60.5251525,29.1252921 60.3254915,28.2545325 L59.4012203,23.9294748 L61.6025085,23.9294748 L62.5717966,28.3615517 C63.0492881,30.5774555 62.0183051,31.7395228 60.4023051,31.7395228 C59.5082034,31.7395228 58.6461695,31.3877728 57.9075932,30.6082151 L58.1075254,31.5094651 L56.0604068,31.5094651 L54.4131525,23.9294748 L56.6149153,23.9294748 L56.6149153,23.9294748 Z M52.6742373,33.6036094 C52.6273898,32.9161286 53.1358644,32.3810325 53.8130169,32.3810325 C54.5672542,32.3810325 55.1061695,32.9161286 55.1517288,33.6036094 C55.1983729,34.2911575 54.6904407,34.8262536 54.0129492,34.8262536 C53.2589831,34.8262536 52.7200678,34.2911575 52.6742373,33.6036094 L52.6742373,33.6036094 L52.6742373,33.6036094 Z M52.3657627,31.5094651 L50.7187797,23.9294748 L52.9049492,23.9294748 L54.5522034,31.5094651 L52.3657627,31.5094651 L52.3657627,31.5094651 Z M46.1461695,23.9294748 L47.0082034,27.8877728 L50.3339661,27.8877728 L50.7346441,29.8286575 L47.4242712,29.8286575 L47.9327458,32.2588017 L51.4271864,32.2588017 L51.8580339,34.1999555 L46.0855593,34.1999555 L43.8993898,23.9294748 L46.1461695,23.9294748 L46.1461695,23.9294748 Z M43.9759322,29.843869 L44.3302373,31.5094651 L41.9753898,31.5094651 L42.436678,33.618619 L40.1427119,33.114619 L38.7110508,26.6349075 C38.3114576,24.8003017 39.3267797,23.7922344 41.1739661,23.7922344 C41.5595932,23.7922344 42.2054915,23.8682248 42.6679322,24.020744 L43.0373559,25.6870805 C42.6679322,25.5950709 42.2054915,25.5035998 41.8058983,25.5035998 C41.1739661,25.5035998 40.7277288,25.717369 40.8821695,26.4819171 L41.6058983,29.843869 L43.9759322,29.843869 L43.9759322,29.843869 Z M35.6324068,26.1608594 C35.6324068,25.5490998 34.8784407,25.4425517 34.247322,25.4425517 C33.4465085,25.4425517 32.5540339,25.6560517 32.0773559,25.8093786 L31.7071186,24.097744 C32.4001356,23.9294748 33.2775593,23.7922344 34.1086102,23.7922344 C36.0786441,23.7922344 37.680339,24.5255517 37.680339,26.3594171 C37.680339,28.7283113 34.8170169,28.3155132 34.8170169,29.3698209 C34.8170169,29.843869 35.2788475,30.0121382 36.0018305,30.0121382 C36.6943729,30.0121382 37.6652881,29.7365805 37.9880678,29.6453786 L38.3574915,31.3719555 C37.6957288,31.5555036 36.9105085,31.6625228 36.2020339,31.6625228 C34.0627797,31.6625228 32.7698305,30.7146959 32.7698305,29.1405709 C32.7698305,26.8334651 35.6324068,27.2151671 35.6324068,26.1608594 L35.6324068,26.1608594 L35.6324068,26.1608594 Z M27.3506441,23.6999555 C29.7677288,23.6999555 31.3993898,25.4425517 31.7688136,27.7195036 C32.1538983,29.9969267 30.876339,31.7395228 28.4589831,31.7395228 C26.0423729,31.7395228 24.4105085,29.9969267 24.0410169,27.7195036 C23.6562712,25.4425517 24.9340339,23.6999555 27.3506441,23.6999555 L27.3506441,23.6999555 L27.3506441,23.6999555 Z M27.5513898,25.4575613 C26.6734915,25.4575613 25.9809492,26.1453786 26.3037288,27.7195036 C26.6268475,29.2935613 27.3969492,29.9811094 28.2743729,29.9811094 C29.152,29.9811094 29.8448136,29.278619 29.5058305,27.7195036 C29.1824407,26.1608594 28.4284746,25.4575613 27.5513898,25.4575613 L27.5513898,25.4575613 L27.5513898,25.4575613 Z M18.2682712,27.0627151 L19.2383729,27.0627151 C22.3326102,27.0627151 24.0569492,28.5752536 24.0569492,31.0972055 C24.0569492,32.9771094 22.7166102,34.1999555 20.4231864,34.1999555 L17.560678,34.1999555 L15.3744678,23.9294748 L17.5911186,23.9294748 L18.2682712,27.0627151 L18.2682712,27.0627151 Z M18.6530847,28.9425517 L19.3766102,32.3197825 L20.300339,32.3197825 C21.3164746,32.3197825 21.8085424,31.9069844 21.8085424,30.9442151 C21.8085424,29.7063594 21.0238644,28.9425517 19.5773559,28.9425517 L18.6530847,28.9425517 L18.6530847,28.9425517 Z" id="path28" fill="#231F20" sketch:type="MSShapeGroup" transform="translate(54.567403, 29.263105) scale(1, -1) translate(-54.567403, -29.263105) "></path>
                <path d="M54.2504585,48.1440236 L49.496357,48.1440236 L49.0940869,50.027754 L53.4581083,50.027754 L53.1228832,51.5684408 L48.7588618,51.5684408 L48.2712616,53.8493794 L53.2447832,53.8493794 L52.9034631,55.444231 L46.0953459,55.444231 L48.0030815,46.5732453 L54.5917786,46.5732453 L54.2504585,48.1440236 Z M54.6161586,51.1953057 L58.1146898,51.1953057 L57.7611797,52.8202488 L54.2626485,52.8202488 L54.6161586,51.1953057 Z M60.4246955,46.5852819 L66.7939725,46.5852819 L66.4587474,48.1440236 L61.954541,48.1440236 L61.5157009,50.18423 L65.4591671,50.18423 L65.130037,51.7249168 L61.1865708,51.7249168 L60.3881255,55.444231 L58.5230549,55.444231 L60.4246955,46.5852819 Z M69.3721584,48.1018955 L67.6107028,48.1018955 L67.9520229,46.5190805 L69.7134785,46.5190805 L69.3721584,48.1018955 Z M67.4400428,48.8842755 L69.2014983,48.8842755 L67.7935529,55.444231 L66.0320973,55.444231 L67.4400428,48.8842755 Z M76.4484556,51.0267931 L75.4976353,55.444231 L73.7178948,55.444231 L74.571195,51.4540929 C74.6483988,51.1090415 74.658557,50.8442387 74.60167,50.6596763 C74.5041495,50.3226494 74.2156557,50.1541384 73.7361798,50.1541384 C73.1469933,50.1541384 72.6898727,50.4008866 72.3648043,50.8943903 C72.1941434,51.1551849 72.0661497,51.4881946 71.9808192,51.8934294 L71.218944,55.444231 L69.4879634,55.444231 L70.8959089,48.8963121 L72.5720344,48.8963121 L72.3648043,49.853223 C72.6614292,49.5161961 72.9255434,49.2734601 73.1571546,49.1250078 C73.5716168,48.8602009 74.0531171,48.7277995 74.60167,48.7277995 C75.288377,48.7277995 75.8115261,48.9053378 76.1711331,49.2604197 C76.53074,49.6155017 76.6231799,50.2042869 76.4484556,51.0267931 L76.4484556,51.0267931 Z M81.4463572,52.2545279 C81.3244566,52.3227357 81.2025578,52.377903 81.0806571,52.4200313 C80.9587565,52.4621597 80.7962247,52.5012783 80.593057,52.5373883 L80.1907868,52.609608 C79.8088315,52.6738036 79.5284642,52.7520408 79.3496766,52.844322 C79.0489883,53.0007988 78.8641084,53.2435348 78.7950314,53.5725373 C78.7300177,53.8654297 78.7655715,54.0770714 78.9016939,54.2074687 C79.0378163,54.3378661 79.223712,54.4030637 79.4593866,54.4030637 C79.8332153,54.4030637 80.2009434,54.2947353 80.562582,54.0780751 C80.9242205,53.861415 81.1741131,53.4662167 81.3122672,52.8924685 L81.4463572,52.2545279 Z M80.562582,51.4540929 C80.8957771,51.4139707 81.1375431,51.3638186 81.2878872,51.3036352 C81.5560686,51.1993174 81.7145371,51.0368247 81.7632973,50.8161523 C81.8201843,50.5473332 81.7653298,50.3617706 81.5987323,50.2594588 C81.4321347,50.1571471 81.165989,50.105992 80.800287,50.105992 C80.3898882,50.105992 80.0770145,50.2062961 79.8616567,50.4069074 C79.7113126,50.5553597 79.5873821,50.755968 79.4898616,51.0087381 L77.8137361,51.0087381 C77.9762703,50.4349899 78.2403844,49.9635605 78.6060863,49.5944358 C79.1912094,49.0166754 80.0424695,48.7277995 81.1598922,48.7277995 C81.8872327,48.7277995 82.5028217,48.8702313 83.0066777,49.1550993 C83.5105338,49.4399673 83.6771288,49.9775975 83.5064679,50.7680058 L82.8543027,53.7771597 C82.8096058,53.9857954 82.7608463,54.2385618 82.7080226,54.5354665 C82.6714525,54.7601511 82.6724683,54.9126134 82.7110701,54.9928579 C82.749672,55.0731024 82.8197638,55.1393031 82.9213477,55.1914621 L82.8725877,55.444231 L80.9831371,55.444231 C80.958757,55.3118276 80.9485987,55.1874504 80.9526621,55.0710959 C80.9567254,54.9547414 80.9689153,54.8223399 80.9892321,54.6738876 C80.6926072,54.93067 80.3695753,55.149333 80.0201268,55.3298831 C79.5975379,55.5425311 79.1505755,55.6488535 78.6792264,55.6488535 C78.0778498,55.6488535 77.6176818,55.4793395 77.2987084,55.1403064 C76.979735,54.8012734 76.8872951,54.3208166 77.0213858,53.6989217 C77.1961101,52.8924644 77.6369775,52.3086944 78.3440012,51.9475942 C78.73002,51.7509951 79.2684064,51.6105693 79.9591768,51.5263126 L80.562582,51.4540929 Z M91.0155103,51.0267931 L90.06469,55.444231 L88.2849494,55.444231 L89.1382497,51.4540929 C89.2154535,51.1090415 89.2256117,50.8442387 89.1687247,50.6596763 C89.0712042,50.3226494 88.7827103,50.1541384 88.3032344,50.1541384 C87.714048,50.1541384 87.2569274,50.4008866 86.931859,50.8943903 C86.7611981,51.1551849 86.6332043,51.4881946 86.5478739,51.8934294 L85.7859986,55.444231 L84.0550181,55.444231 L85.4629635,48.8963121 L87.1390891,48.8963121 L86.931859,49.853223 C87.2284839,49.5161961 87.492598,49.2734601 87.7242093,49.1250078 C88.1386715,48.8602009 88.6201718,48.7277995 89.1687247,48.7277995 C89.8554317,48.7277995 90.3785808,48.9053378 90.7381877,49.2604197 C91.0977946,49.6155017 91.1902346,50.2042869 91.0155103,51.0267931 L91.0155103,51.0267931 Z M96.5375821,51.2374338 C96.5578989,50.9926881 96.5213292,50.772019 96.427872,50.57542 C96.289718,50.3106131 96.0154456,50.1782117 95.6050468,50.1782117 C95.0199237,50.1782117 94.5587398,50.4650815 94.2214813,51.0388297 C94.0426937,51.3437588 93.8984468,51.7489875 93.7887362,52.2545279 C93.6871523,52.7359949 93.6607409,53.1231688 93.7095012,53.4160613 C93.798895,53.9617239 94.1300534,54.2345511 94.7029865,54.2345511 C95.109322,54.2345511 95.4211798,54.1262227 95.6385693,53.9095625 C95.8559588,53.6929023 96.0195064,53.4120508 96.1292169,53.0669994 L97.9028625,53.0669994 C97.7525184,53.5885887 97.4558979,54.082085 97.0129922,54.5475031 C96.3059685,55.2977892 95.4181387,55.6729267 94.3494764,55.6729267 C93.280814,55.6729267 92.5626268,55.3599778 92.1948932,54.7340707 C91.8271596,54.1081635 91.7509728,53.2957001 91.9663306,52.296656 C92.2060686,51.1692207 92.6723315,50.2925626 93.3651336,49.6666555 C94.0579356,49.0407484 94.8939583,48.7277995 95.8732269,48.7277995 C96.7062146,48.7277995 97.3482151,48.9123591 97.7992475,49.2814838 C98.2502799,49.6506085 98.4229699,50.3025854 98.3173226,51.2374338 L96.5375821,51.2374338 Z M100.724848,51.5082577 L103.424934,51.5082577 C103.494011,51.0548762 103.427983,50.7108331 103.226847,50.4761179 C103.025711,50.2414027 102.740264,50.1240469 102.370499,50.1240469 C101.968227,50.1240469 101.629958,50.248424 101.355681,50.497182 C101.081405,50.7459399 100.871129,51.0829618 100.724848,51.5082577 L100.724848,51.5082577 Z M104.99135,49.9856258 C105.170137,50.3748117 105.241245,50.8261802 105.204675,51.3397451 C105.188421,51.640662 105.115282,52.0739758 104.985255,52.6396996 L100.438383,52.6396996 C100.320546,53.2977045 100.430255,53.7591035 100.767513,54.0239103 C100.970681,54.1884116 101.24089,54.270661 101.578149,54.270661 C101.935724,54.270661 102.248598,54.1703568 102.516779,53.9697456 C102.658996,53.8614155 102.79918,53.7109593 102.937334,53.5183725 L104.71098,53.5183725 C104.580952,53.9075583 104.290427,54.3027566 103.839394,54.7039791 C103.132371,55.3419229 102.266889,55.6608901 101.242924,55.6608901 C100.397746,55.6608901 99.7100332,55.392075 99.1797654,54.8544368 C98.6494976,54.3167986 98.5143931,53.4421467 98.7744478,52.2304546 C99.0182491,51.0949949 99.496702,50.2243551 100.209821,49.618509 C100.92294,49.012663 101.744741,48.7097446 102.675249,48.7097446 C103.227865,48.7097446 103.704287,48.8120548 104.104527,49.0166783 C104.504767,49.2213018 104.800372,49.544281 104.99135,49.9856258 L104.99135,49.9856258 Z" id="E-Finance-3" fill="#000000" sketch:type="MSShapeGroup"></path>
            </g>
        </g>
    </g>
</svg>