<svg xmlns="http://www.w3.org/2000/svg" width="120" height="80" viewBox="0 0 120 80">
  <g fill="none" fill-rule="evenodd">
    <rect width="120" height="80" fill="#000000" rx="4"/>
    <g transform="translate(14 23)">
      <path fill="#FFF200" d="M13.7849591,7.66321449 C14.7719552,7.32985217 15.8278162,7.14886667 16.9264417,7.14886667 C21.7210826,7.14886667 25.7204649,10.5906348 26.6379938,15.1627507 L33.4323259,13.7627507 C31.8733297,5.99214203 25.0765884,0.14277971 16.9264417,0.14277971 C15.0604649,0.14277971 13.2643568,0.449968116 11.5877081,1.01585217 L13.7849591,7.66321449 Z"/>
      <path fill="#00A4E0" d="M5.76808494,29.9121159 L10.3617529,24.6637391 C8.31126641,22.8285217 7.0170888,20.1492464 7.0170888,17.1627826 C7.0170888,14.1785507 8.31006178,11.4992754 10.3599459,9.66547826 L5.76386873,4.41771014 C2.27966795,7.53565217 0.084023166,12.0901159 0.084023166,17.1627826 C0.084023166,22.238087 2.28288031,26.7941739 5.76808494,29.9121159"/>
      <path fill="#EF4123" d="M26.6355645,19.1731623 C25.7148232,23.7416261 21.7174486,27.1769014 16.9264216,27.1769014 C15.8271938,27.1769014 14.7691243,26.9955101 13.7819274,26.6613362 L11.5812633,33.307887 C13.2607228,33.8762058 15.057634,34.1835971 16.9264216,34.1835971 C25.0701436,34.1835971 31.863271,28.3419449 33.4286919,20.5792493 L26.6355645,19.1731623 Z"/>
      <path fill="#FFFFFF" d="M56.0476077 23.8691478C54.9256927 24.9721043 53.4042409 25.6441043 51.7243799 25.6199594 50.5729514 25.6004812 49.5060479 25.2521043 48.5989591 24.6716116L46.3501097 28.2929449C47.8902332 29.2768 49.7062178 29.8589159 51.6639475 29.8895536 54.5137081 29.9323652 57.1110981 28.8010029 58.9997622 26.9329159L56.0476077 23.8691478zM45.8054749 20.1456348C45.7799768 19.9049971 45.7619073 19.6582725 45.7687336 19.4093159 45.822139 16.0302435 48.5735212 13.3339246 51.9145714 13.3899246 53.733166 13.4144754 55.3479768 14.2560986 56.4395753 15.5587072L45.8054749 20.1456348zM51.9758069 9.11586667C46.3049961 9.02801159 41.6316216 13.6062145 41.5460927 19.3415478 41.5129653 21.4910551 42.127529 23.5009681 43.208888 25.1716348L61.8242857 17.1307652C60.7768571 12.599229 56.7889189 9.19215652 51.9758069 9.11586667L51.9758069 9.11586667zM67.6637653 4.43556522L67.6637653 24.4912754 71.10741 25.9338841 69.4783444 29.8895942 66.0728463 28.4589565C65.3071012 28.1233623 64.7889081 27.612058 64.3951938 27.0346087 64.0171398 26.4437681 63.7368618 25.6362319 63.7368618 24.5464638L63.7368618 4.43556522 67.6637653 4.43556522zM80.0781127 13.7037072C80.6804293 13.4993884 81.3251089 13.3898232 81.9958888 13.3898232 84.9223444 13.3898232 87.3633328 15.4900261 87.9222826 18.2815043L92.0702363 17.4268957C91.1187768 12.6837362 86.9696185 9.11312754 81.9958888 9.11312754 80.856105 9.11312754 79.7608927 9.3006058 78.7381591 9.64573623L80.0781127 13.7037072zM75.1854749 27.2831594L77.9882548 24.08C76.7364402 22.96 75.9482085 21.3242319 75.9482085 19.5009855 75.9482085 17.6795652 76.7364402 16.0446087 77.9870502 14.9254203L75.1822625 11.7222609C73.0558842 13.6254493 71.7161313 16.4063768 71.7161313 19.5009855 71.7161313 22.5994493 73.056888 25.3793623 75.1854749 27.2831594M87.9223429 20.7285826C87.3601807 23.5160029 84.9195938 25.6143797 81.9957483 25.6143797 81.3245668 25.6143797 80.6794857 25.5029884 80.0761653 25.2992783L78.7329992 29.355829C79.7585436 29.7025826 80.8551614 29.8906696 81.9957483 29.8906696 86.965061 29.8906696 91.1130147 26.3249304 92.0690919 21.5868435L87.9223429 20.7285826z"/>
    </g>
  </g>
</svg>
