<?xml version="1.0" encoding="UTF-8"?>
<svg width="120px" height="80px" viewBox="0 0 120 80" version="1.1" xmlns="http://www.w3.org/2000/svg" xmlns:xlink="http://www.w3.org/1999/xlink">
    <!-- Generator: Sketch 47 (45396) - http://www.bohemiancoding.com/sketch -->
    <title>card_sepa</title>
    <desc>Created with Sketch.</desc>
    <defs></defs>
    <g id="export-badges" stroke="none" stroke-width="1" fill="none" fill-rule="evenodd">
        <g id="production-final" transform="translate(-36.000000, -5532.000000)">
            <g id="card_sepa" transform="translate(36.000000, 5532.000000)">
                <g id="Group-10" fill="#FFFFFF">
                    <g id="card_byjuno-copy">
                        <rect id="Rectangle-11" x="0" y="0" width="120" height="80" rx="4"></rect>
                    </g>
                </g>
                <g id="Page-1" transform="translate(10.000000, 21.000000)">
                    <path d="M52.3546078,22.2004769 C50.6340196,22.2004769 49.0526471,21.7883231 47.7663725,21.1004256 L48.2016667,18.2504256 C49.507549,18.9383231 50.8516667,19.3319641 52.3144118,19.3319641 C53.9359804,19.3319641 54.6487255,18.7424769 54.6487255,17.7203744 C54.6487255,15.4014 47.8261765,16.3835538 47.8261765,11.4503744 C47.8261765,8.95504103 49.4477451,6.93032308 53.2046078,6.93032308 C54.6487255,6.93032308 56.2104902,7.22555385 57.357549,7.69714359 L56.9428431,10.4877077 C55.7163725,10.095041 54.4908824,9.85924615 53.3634314,9.85924615 C51.5242157,9.85924615 51.030098,10.4877077 51.030098,11.2740154 C51.030098,13.5735026 57.8516667,12.5124256 57.8516667,17.5040667 C57.8516667,20.4125282 55.8144118,22.2004769 52.3546078,22.2004769" id="Fill-1" fill="#005DA1"></path>
                    <polygon id="Fill-3" fill="#005DA1" points="70.7082353 19.0366359 70.7082353 21.9256103 60.6239216 21.9256103 60.6239216 7.18648205 70.7082353 7.18648205 70.7082353 10.1144308 63.9660784 10.1144308 63.9660784 13.0423795 69.442549 13.0423795 69.442549 15.6760718 63.9660784 15.6760718 63.9660784 19.0366359"></polygon>
                    <path d="M78.977451,9.95716923 L76.9990196,9.95716923 L76.9990196,14.4772205 L78.977451,14.4772205 C80.6186275,14.4772205 81.3294118,14.0650667 81.3294118,12.2176821 C81.3294118,10.4482462 80.6980392,9.95716923 78.977451,9.95716923 M78.977451,17.1304 L76.9990196,17.1304 L76.9990196,21.9261949 L73.6578431,21.9261949 L73.6578431,7.18609231 L78.977451,7.18609231 C83.0901961,7.18609231 84.7705882,8.79768205 84.7705882,12.2371692 C84.7705882,15.3424513 83.1107843,17.1304 78.977451,17.1304" id="Fill-5" fill="#005DA1"></path>
                    <path d="M91.8738235,11.2341641 L90.3904902,16.285241 L94.1679412,16.285241 L92.7434314,11.2341641 L92.3483333,9.68201026 L92.2885294,9.68201026 L91.8738235,11.2341641 Z M94.9581373,19.0563179 L89.5797059,19.0563179 L88.7493137,21.9258051 L85.2297059,21.9258051 L90.3512745,7.18667692 L94.3257843,7.18667692 L99.5061765,21.9258051 L95.7885294,21.9258051 L94.9581373,19.0563179 Z" id="Fill-7" fill="#005DA1"></path>
                    <polygon id="Fill-9" fill="#005DA1" points="52.2358824 31.4906 52.1986275 32.8780872 47.8378431 32.8780872 47.8378431 26.0341897 49.3976471 26.0341897 49.3976471 31.4906"></polygon>
                    <path d="M56.1929412,30.5053282 C56.0556863,30.4507641 55.7801961,30.3864564 55.4037255,30.3864564 C54.7703922,30.3864564 54.4762745,30.6329692 54.4762745,31.1162513 C54.4762745,31.6550718 54.7978431,31.8470205 55.267451,31.8470205 C55.7527451,31.8470205 56.1929412,31.5547128 56.1929412,31.1990718 L56.1929412,30.5053282 Z M56.4056863,32.3488154 L56.3772549,32.3390718 C56.0380392,32.7405077 55.5056863,32.9694821 54.8703922,32.9694821 C53.8154902,32.9694821 53.1458824,32.3760974 53.1458824,31.1347641 C53.1458824,30.1126615 53.8615686,29.4101487 55.1282353,29.4101487 C55.5409804,29.4101487 55.8988235,29.4744564 56.1929412,29.5650718 L56.1929412,29.2464564 C56.1929412,28.6891231 55.8988235,28.433841 55.1380392,28.433841 C54.5233333,28.433841 54.1194118,28.5254308 53.6037255,28.7349179 L53.4841176,27.6036872 C54.0458824,27.3659436 54.6782353,27.2383026 55.394902,27.2383026 C57.0380392,27.2383026 57.6076471,27.9408154 57.6076471,29.4559436 L57.6076471,32.8778923 L56.5145098,32.8778923 L56.4056863,32.3488154 Z" id="Fill-11" fill="#005DA1"></path>
                    <path d="M60.685098,32.9878974 C60.0135294,32.9878974 59.4076471,32.8602564 58.94,32.6049744 L59.0860784,31.4367179 C59.5468627,31.7007692 60.1988235,31.8284103 60.6752941,31.8284103 C61.244902,31.8284103 61.4831373,31.6004103 61.4831373,31.2720513 C61.4831373,30.386359 58.9037255,30.8978974 58.9037255,28.9637949 C58.9037255,27.9689744 59.5831373,27.2567179 61.0154902,27.2567179 C61.5743137,27.2567179 62.1272549,27.3668205 62.5939216,27.5577949 L62.4752941,28.7163077 C62.0154902,28.5253333 61.4007843,28.4337436 60.9880392,28.4337436 C60.5203922,28.4337436 60.2615686,28.6169231 60.2615686,28.8994872 C60.2615686,29.7384103 62.8056863,29.2366154 62.8056863,31.1444103 C62.8056863,32.248359 62.19,32.9878974 60.685098,32.9878974" id="Fill-13" fill="#005DA1"></path>
                    <path d="M65.6071569,28.4067538 L65.6071569,31.2353179 C65.6071569,31.6650103 65.8277451,31.8472154 66.2679412,31.8472154 C66.415,31.8472154 66.6071569,31.8199333 66.7091176,31.7829077 L66.7914706,32.8137795 C66.5983333,32.8966 66.2316667,32.9696769 65.8355882,32.9696769 C64.7257843,32.9696769 64.1836275,32.3304974 64.1836275,31.2811128 L64.1836275,28.4067538 L63.5591176,28.4067538 L63.5591176,27.3486 L64.2473529,27.3486 L64.4855882,26.0975231 L65.6071569,25.9971641 L65.6071569,27.3486 L66.8473529,27.3486 L66.8473529,28.4067538 L65.6071569,28.4067538 Z" id="Fill-15" fill="#005DA1"></path>
                    <path d="M69.6014706,32.9878974 C68.9308824,32.9878974 68.325,32.8602564 67.8563725,32.6049744 L68.0034314,31.4367179 C68.4632353,31.7007692 69.1151961,31.8284103 69.5926471,31.8284103 C70.1622549,31.8284103 70.4004902,31.6004103 70.4004902,31.2720513 C70.4004902,30.386359 67.8210784,30.8978974 67.8210784,28.9637949 C67.8210784,27.9689744 68.4995098,27.2567179 69.9328431,27.2567179 C70.4916667,27.2567179 71.0436275,27.3668205 71.5112745,27.5577949 L71.3926471,28.7163077 C70.9328431,28.5253333 70.3181373,28.4337436 69.9053922,28.4337436 C69.4367647,28.4337436 69.1789216,28.6169231 69.1789216,28.8994872 C69.1789216,29.7384103 71.7230392,29.2366154 71.7230392,31.1444103 C71.7230392,32.248359 71.1073529,32.9878974 69.6014706,32.9878974" id="Fill-17" fill="#005DA1"></path>
                    <path d="M76.5533333,28.6983795 C76.2690196,28.5980205 75.9288235,28.5249436 75.6072549,28.5249436 C74.5709804,28.5249436 74.2298039,28.9536615 74.2298039,30.1219179 C74.2298039,31.3086872 74.7170588,31.7734564 75.5798039,31.7734564 C75.947451,31.7734564 76.2964706,31.7003795 76.5905882,31.5639692 L76.692549,32.6679179 C76.3621569,32.8686359 75.865098,32.9875077 75.2680392,32.9875077 C73.624902,32.9875077 72.7513725,32.0560205 72.7513725,30.1219179 C72.7513725,28.2872 73.5141176,27.2563282 75.2954902,27.2563282 C75.7631373,27.2563282 76.2876471,27.3566872 76.6356863,27.4940718 L76.5533333,28.6983795 Z" id="Fill-19" fill="#005DA1"></path>
                    <path d="M81.2465686,32.8779897 L81.2465686,29.3556821 C81.2465686,28.7895795 80.9622549,28.4972718 80.3563725,28.4972718 C79.9426471,28.4972718 79.5848039,28.6804513 79.4102941,28.9172205 L79.4102941,32.8779897 L77.9867647,32.8779897 L77.9867647,25.7788103 L79.4102941,25.7057333 L79.4102941,26.9646051 L79.3916667,27.6944 L79.4191176,27.7138872 C79.8328431,27.366041 80.3357843,27.2384 80.8063725,27.2384 C81.9808824,27.2384 82.6691176,28.0237333 82.6691176,29.3556821 L82.6691176,32.8779897 L81.2465686,32.8779897 Z" id="Fill-21" fill="#005DA1"></path>
                    <path d="M84.1676471,32.8779897 L84.1676471,27.3845538 L85.304902,27.3299897 L85.4343137,28.2517333 L85.4607843,28.2517333 C85.8107843,27.5852718 86.3529412,27.2569128 86.9862745,27.2569128 C87.2343137,27.2569128 87.445098,27.2939385 87.5911765,27.338759 L87.4990196,28.7350154 C87.3264706,28.6804513 87.1147059,28.6434256 86.8931373,28.6434256 C86.15,28.6434256 85.6,29.1822462 85.6,30.1039897 L85.6,32.8779897 L84.1676471,32.8779897 Z" id="Fill-23" fill="#005DA1"></path>
                    <path d="M88.9517647,32.8779897 L88.9517647,27.3845538 L90.4115686,27.3202462 L90.4115686,32.8779897 L88.9517647,32.8779897 Z M89.6860784,26.7551179 C89.135098,26.7551179 88.8694118,26.5992205 88.8694118,26.1529641 C88.8694118,25.7602974 89.135098,25.5410667 89.6860784,25.5410667 C90.2468627,25.5410667 90.4939216,25.7515282 90.4939216,26.1529641 C90.4939216,26.5544 90.2468627,26.7551179 89.6860784,26.7551179 L89.6860784,26.7551179 Z" id="Fill-25" fill="#005DA1"></path>
                    <path d="M92.4598039,32.8779897 L92.4598039,28.3978872 L91.7617647,28.3978872 L91.7617647,27.3485026 L92.4598039,27.3485026 L92.4598039,27.110759 C92.4598039,26.2806051 93.0382353,25.5966051 94.3686275,25.5966051 C94.6823529,25.5966051 95.0294118,25.6414256 95.2696078,25.7145026 L95.1862745,26.6274769 C95.0205882,26.5904513 94.8382353,26.5729128 94.6529412,26.5729128 C94.095098,26.5729128 93.8823529,26.7911692 93.8823529,27.1477846 L93.8823529,27.3485026 L95.0666667,27.3485026 L95.0666667,28.3978872 L93.8823529,28.3978872 L93.8823529,32.8779897 L92.4598039,32.8779897 Z" id="Fill-27" fill="#005DA1"></path>
                    <path d="M97.9878431,28.4067538 L97.9878431,31.2353179 C97.9878431,31.6650103 98.2084314,31.8472154 98.6486275,31.8472154 C98.7947059,31.8472154 98.9878431,31.8199333 99.0898039,31.7829077 L99.1721569,32.8137795 C98.9790196,32.8966 98.6123529,32.9696769 98.2162745,32.9696769 C97.1064706,32.9696769 96.5643137,32.3304974 96.5643137,31.2811128 L96.5643137,28.4067538 L95.9388235,28.4067538 L95.9388235,27.3486 L96.6270588,27.3486 L96.8662745,26.0975231 L97.9878431,25.9971641 L97.9878431,27.3486 L99.2270588,27.3486 L99.2270588,28.4067538 L97.9878431,28.4067538 Z" id="Fill-29" fill="#005DA1"></path>
                    <path d="M16.5118627,18.8220821 C16.4648039,18.884441 16.3932353,18.9156205 16.3197059,18.9312103 C16.2373529,18.9409538 16.1520588,18.922441 16.0814706,18.8698256 L12.2667647,16.0217744 L7.16186275,12.2110564 L3.34617647,9.36203077 C3.27656863,9.30941538 3.23539216,9.23341538 3.22068627,9.15156923 C3.21578431,9.07751795 3.22656863,9.00054359 3.27362745,8.93818462 L4.31382353,7.56141538 C4.31382353,7.56141538 5.45598039,6.09305641 6.45892157,4.76695385 L10.7520588,7.97259487 L15.4030392,11.4452103 L19.6971569,14.6508513 C18.6942157,15.9769538 17.5520588,17.4453128 17.5520588,17.4453128 L16.5118627,18.8220821 Z M9.33637255,1.46192821 L13.1285294,4.29438974 L13.1285294,4.2953641 L15.6922549,6.20803077 L18.2540196,8.12264615 L18.2540196,8.12167179 L22.0481373,10.953159 C22.1942157,11.0613128 22.2246078,11.2649538 22.1167647,11.4072103 L21.2069608,12.652441 L16.9138235,9.4468 L12.2628431,5.97418462 L7.96970588,2.76854359 L8.87852941,1.52331282 C8.98539216,1.38105641 9.19127451,1.35377436 9.33637255,1.46192821 L9.33637255,1.46192821 Z M22.482451,10.4016718 L16.1148039,5.64874872 L9.74813725,0.893876923 C9.30401961,0.563569231 8.67460784,0.651261538 8.3422549,1.09069744 L2.73735294,8.50654359 C2.64813725,8.62249231 2.59519608,8.75110769 2.56382353,8.88459487 C2.4677451,9.26264615 2.60107843,9.68064615 2.93343137,9.93008205 L6.72852941,12.7625436 L11.855,16.5898256 L15.6481373,19.4213128 C15.9814706,19.6707487 16.4226471,19.6814667 16.7608824,19.4826974 C16.8814706,19.4174154 16.9902941,19.3297231 17.0785294,19.2137744 L22.6834314,11.7989026 C23.0157843,11.3594667 22.9255882,10.7329538 22.482451,10.4016718 L22.482451,10.4016718 Z" id="Fill-31" fill="#A4AAB6"></path>
                    <path d="M1.86058824,37.1388615 L6.33313725,22.3782974 L18.4517647,22.3782974 L17.4076471,23.7677333 L15.9037255,25.8324 L15.7331373,26.1373744 L15.5752941,26.492041 L15.4135294,26.8915282 L15.244902,27.3153744 L15.0831373,27.7772205 L14.9233333,28.2312718 L14.7733333,28.6882462 L14.6252941,29.1364513 L14.4919608,29.5612718 L14.3694118,29.9529641 L14.2605882,30.2949641 L14.1782353,30.5804513 L14.1145098,30.7977333 L14.0615686,30.9331692 C14.0615686,30.9331692 14.0527451,30.9624 14.0262745,30.9974769 C13.9958824,31.0393744 13.812549,31.2059897 13.6635294,31.0958872 C13.5203922,30.9896821 13.535098,30.6155282 13.5498039,30.4372205 C13.594902,29.8906051 13.6390196,29.3439897 13.6841176,28.7983487 C13.6978431,28.6064 13.462549,28.4982462 13.3105882,28.5849641 C12.6409804,28.9678872 12.2419608,29.4316821 11.8762745,29.9617333 C11.9105882,29.8379897 11.944902,29.7132718 11.9782353,29.5895282 C12.1331373,29.0263487 12.3498039,28.4436821 12.4331373,27.8649128 C12.4801961,27.5346051 12.3958824,27.1419385 12.0076471,27.0786051 C11.5703922,27.0055282 11.2841176,27.4625026 11.0703922,27.7635795 C10.4223529,28.6716821 10.0409804,29.8253231 9.23705882,30.6155282 C8.93411765,30.9127077 8.59882353,31.1319385 8.1645098,31.0091692 C7.65960784,30.8669128 7.46352941,31.4564 8.35372549,31.5362974 C9.22921569,31.6142462 9.88019608,30.6954256 10.2772549,30.0533231 C10.5654902,29.5866051 10.8194118,29.0994256 11.0998039,28.6288103 C11.235098,28.402759 11.3752941,28.1796308 11.5301961,27.9662462 C11.5978431,27.8756308 11.7243137,27.632041 11.8419608,27.5998872 C11.9968627,27.5570154 11.9566667,27.6456821 11.9478431,27.7674769 C11.9272549,28.0422462 11.8096078,28.3248103 11.7370588,28.5898359 C11.6586275,28.8792205 11.5792157,29.1686051 11.4998039,29.4579897 C11.3301961,30.0786564 11.1615686,30.6993231 10.9919608,31.3190154 C10.9154902,31.6006051 11.2880392,31.7311692 11.444902,31.5090154 C12.0684314,30.6262462 12.3792157,29.8779385 13.1478431,29.2874769 C13.1311765,29.4813744 13.1154902,29.6752718 13.0998039,29.8701436 C13.0743137,30.1907077 13.012549,30.5297846 13.0341176,30.8503487 C13.0713725,31.3745538 13.4694118,31.7379897 13.9703922,31.5090154 C14.2321569,31.3881949 14.4203922,31.2059897 14.4203922,31.2059897 L14.4498039,31.1845538 L14.5556863,31.1056308 L14.7488235,30.9789641 L15.0105882,30.7996821 L15.3017647,30.5833744 L15.6233333,30.3573231 L16.0017647,30.0932718 L16.3860784,29.8116821 L16.7694118,29.5310667 L17.1537255,29.2494769 L17.5272549,28.9669128 L17.8782353,28.7028615 L18.2017647,28.440759 L18.485098,28.2225026 L18.7105882,28.0139897 L18.8860784,27.8464 L18.8929412,27.8366564 L18.8968627,27.8405538 L20.0919608,26.4374769 L23.1458824,22.3782974 L28.567451,22.3782974 L32.785098,37.1388615 L1.86058824,37.1388615 Z M23.6272549,21.7391179 L33.2311765,8.97501538 L34.2105882,7.69178462 C34.3115686,7.5544 34.2968627,7.42870769 34.2007843,7.35952821 L31.4821569,5.40204103 C31.3870588,5.33286154 31.262549,5.36014359 31.1919608,5.45465641 C31.1854248,5.46375043 31.0530719,5.63231453 30.794902,5.96034872 L18.9321569,21.7391179 L5.86843137,21.7391179 L0.973333333,37.778041 L33.6586275,37.778041 L29.0409804,21.7391179 L23.6272549,21.7391179 Z" id="Fill-33" fill="#005DA1"></path>
                    <path d="M35.4428431,8.29442564 L35.0840196,8.02647692 C35.012451,7.97288718 34.9095098,7.98750256 34.8555882,8.05863077 L30.2908824,14.095759 C30.2359804,14.1659128 30.2516667,14.2682205 30.3222549,14.3218103 L30.6820588,14.589759 C30.7536275,14.6433487 30.8546078,14.6287333 30.9095098,14.5576051 L35.4751961,8.52047692 C35.5291176,8.44934872 35.5144118,8.34801538 35.4428431,8.29442564" id="Fill-35" fill="#0062A5"></path>
                    <polygon id="Fill-37" fill="#005DA1" points="17.1045098 33.9984051 26.1878431 33.9984051 25.9947059 33.2832256 17.1045098 33.2832256 8.21431373 33.2832256 8.02215686 33.9984051"></polygon>
                </g>
            </g>
        </g>
    </g>
</svg>