<?xml version="1.0" encoding="UTF-8" standalone="no"?>
<svg width="120px" height="80px" viewBox="0 0 120 80" version="1.1" xmlns="http://www.w3.org/2000/svg" xmlns:xlink="http://www.w3.org/1999/xlink" xmlns:sketch="http://www.bohemiancoding.com/sketch/ns">
    <!-- Generator: Sketch 3.3.2 (12043) - http://www.bohemiancoding.com/sketch -->
    <title>card_giftcard</title>
    <desc>Created with Sketch.</desc>
    <defs></defs>
    <g id="assets-card-icons" stroke="none" stroke-width="1" fill="none" fill-rule="evenodd" sketch:type="MSPage">
        <g id="production-final" sketch:type="MSArtboardGroup" transform="translate(-36.000000, -3157.000000)">
            <g id="card_giftcard" sketch:type="MSLayerGroup" transform="translate(36.000000, 3157.000000)">
                <rect id="Rectangle-11" fill="#FFFFFF" sketch:type="MSShapeGroup" x="0" y="0" width="120" height="80" rx="4"></rect>
                <g id="giftcard1-copy-2" transform="translate(30.000000, 13.000000)" fill="#000000" sketch:type="MSShapeGroup">
                    <g id="Group">
                        <path d="M0,42.5036667 C0,44.37975 1.48565217,45.9281389 3.36,45.9281389 L56.5682609,45.9281389 C58.443913,45.9281389 59.9621739,44.3771389 59.9621739,42.5036667 L59.9621739,36.7996944 L0,36.7996944 L0,42.5036667 L0,42.5036667 Z M33.8778261,39.386 L54.7473913,39.386 C55.826087,39.386 56.703913,40.2398333 56.703913,41.3234444 C56.703913,42.4031389 55.8273913,43.2608889 54.7473913,43.2608889 L33.8778261,43.2608889 C32.7978261,43.2608889 31.9213043,42.4031389 31.9213043,41.3234444 C31.9213043,40.2398333 32.7978261,39.386 33.8778261,39.386 L33.8778261,39.386 Z" id="Shape"></path>
                        <path d="M56.5682609,8.04483333 L41.5604348,8.04483333 L41.5604348,11.59725 C41.5604348,13.14825 40.8521739,14.5830556 39.6273913,15.5335 C38.7613043,16.2097778 37.6708696,16.5831667 36.5686957,16.5831667 C36.4395652,16.5831667 36.3130435,16.5766389 36.1865217,16.5661944 L37.473913,19.4762778 C38.0321739,20.73875 37.77,22.19575 36.8191304,23.1749167 C36.1904348,23.8329167 35.3034783,24.2089167 34.3943478,24.2089167 C33.9586957,24.2089167 33.5347826,24.1266667 33.1356522,23.9634722 L32.8891304,23.8629444 L32.7952174,24.1214444 C32.3165217,25.4087222 31.1191304,26.2625556 29.7378261,26.3069444 L29.6765217,26.2978056 L29.6373913,26.2978056 C28.3043478,26.2978056 27.093913,25.5196944 26.5565217,24.3042222 L22.7634783,15.7463056 L18.9704348,24.2976944 C18.4330435,25.5196944 17.223913,26.2978056 15.8895652,26.2978056 L15.8230435,26.2978056 L15.78,26.3069444 C14.403913,26.2625556 13.2065217,25.4048056 12.7317391,24.1070833 L12.6404348,23.8616389 L12.3978261,23.9608611 C11.9947826,24.1240556 11.5695652,24.2063056 11.1365217,24.2063056 C10.226087,24.2063056 9.34304348,23.8303056 8.71695652,23.1814444 C7.75695652,22.1879167 7.49869565,20.7322222 8.05956522,19.46975 L9.34695652,16.5635833 C9.21782609,16.5740278 9.09,16.5805556 8.96217391,16.5805556 C7.86,16.5805556 6.76043478,16.2071667 5.89173913,15.5282778 C4.68913043,14.5948056 3.95478261,13.1234444 3.95478261,11.5959444 L3.95478261,8.04222222 L3.36,8.04222222 C1.48565217,8.04483333 0,9.5645 0,11.4392778 L0,28.9650556 L59.9621739,28.9650556 L59.9621739,11.4392778 C59.9621739,9.5645 58.443913,8.04483333 56.5682609,8.04483333 L56.5682609,8.04483333 Z" id="Shape"></path>
                        <path d="M28.9421739,23.2584722 C29.0634783,23.53525 29.3373913,23.7128056 29.6373913,23.7128056 L29.6595652,23.7128056 C29.9686957,23.7128056 30.2426087,23.5039167 30.3495652,23.2166944 L31.1008696,21.1761111 C31.1726087,20.9828889 31.3173913,20.8249167 31.5065217,20.7426667 C31.6030435,20.6995833 31.7073913,20.6760833 31.8117391,20.6760833 C31.9082609,20.6760833 32.0047826,20.6956667 32.0973913,20.7309167 L34.11,21.5403611 C34.2013043,21.5782222 34.2991304,21.5965 34.3956522,21.5965 C34.5965217,21.5965 34.7947826,21.5168611 34.9395652,21.3641111 C35.1547826,21.1421667 35.2121739,20.8118611 35.0882609,20.5285556 L33.0065217,15.8311667 L26.4026087,14.1443889 C26.0217391,14.3924444 25.6108696,14.5935 25.1726087,14.7410278 L28.9421739,23.2584722 L28.9421739,23.2584722 Z" id="Shape"></path>
                        <path d="M10.4426087,20.5285556 C10.3173913,20.8118611 10.376087,21.1421667 10.5913043,21.3641111 C10.7373913,21.5168611 10.9343478,21.5965 11.1365217,21.5965 C11.2317391,21.5965 11.3269565,21.5782222 11.4195652,21.5442778 L13.4321739,20.7309167 C13.5234783,20.6943611 13.62,20.6747778 13.7152174,20.6747778 C13.8208696,20.6747778 13.9252174,20.6995833 14.0230435,20.7413611 C14.2108696,20.8249167 14.3556522,20.9828889 14.4273913,21.1721944 L15.1786957,23.2153889 C15.2869565,23.5039167 15.5582609,23.7128056 15.866087,23.7128056 L15.8895652,23.7128056 C16.1895652,23.7128056 16.4634783,23.5339444 16.5847826,23.2584722 L20.3569565,14.7423333 C19.9186957,14.5974167 19.5065217,14.3950556 19.1269565,14.1483056 L12.5230435,15.8324722 L10.4426087,20.5285556 L10.4426087,20.5285556 Z" id="Shape"></path>
                        <path d="M7.52086957,13.4707222 C8.09869565,13.9185278 8.84608696,14.0765 9.55434783,13.8963333 L17.2147826,11.9445278 C16.8821739,11.2460556 16.706087,10.4640278 16.706087,9.64022222 L16.706087,5.58516667 C16.706087,4.68302778 16.916087,3.83441667 17.3113043,3.08502778 L9.55434783,1.10841667 C8.84608696,0.926944444 8.1026087,1.08230556 7.52478261,1.53402778 C6.94565217,1.98444444 6.61826087,2.67508333 6.61826087,3.4075 L6.61826087,11.5959444 C6.61826087,12.3283611 6.94173913,13.0203056 7.52086957,13.4707222 L7.52086957,13.4707222 Z" id="Shape"></path>
                        <path d="M28.8913043,9.64022222 C28.8913043,10.4640278 28.6852174,11.24475 28.3513043,11.9445278 L35.9817391,13.8976389 C36.6913043,14.0765 37.4647826,13.9185278 38.0426087,13.4681111 C38.6204348,13.0203056 38.9791304,12.3283611 38.9791304,11.5959444 L38.9791304,3.4075 C38.9791304,2.67508333 38.6217391,1.98183333 38.0426087,1.53402778 C37.4647826,1.08361111 36.7030435,0.926944444 35.9947826,1.10841667 L28.2586957,3.08502778 C28.6526087,3.83441667 28.8913043,4.68302778 28.8913043,5.58516667 L28.8913043,9.64022222 L28.8913043,9.64022222 Z" id="Shape"></path>
                        <path d="M22.046087,12.4053889 L23.4704348,12.4053889 C24.9926087,12.4053889 26.2278261,11.1716389 26.2278261,9.64805556 L26.2278261,5.55383333 C26.2278261,4.03025 24.9926087,2.79519444 23.4704348,2.79519444 L22.046087,2.79519444 C20.5226087,2.79519444 19.2886957,4.03025 19.2886957,5.55383333 L19.2886957,9.64805556 C19.2886957,11.1703333 20.5213043,12.4053889 22.046087,12.4053889 L22.046087,12.4053889 Z" id="Shape"></path>
                    </g>
                </g>
            </g>
        </g>
    </g>
</svg>