<?xml version="1.0" encoding="UTF-8" standalone="no"?>
<svg width="120px" height="80px" viewBox="0 0 120 80" version="1.1" xmlns="http://www.w3.org/2000/svg" xmlns:xlink="http://www.w3.org/1999/xlink">
    <!-- Generator: Sketch 40.3 (33839) - http://www.bohemiancoding.com/sketch -->
    <title>card_giropay</title>
    <desc>Created with Sketch.</desc>
    <defs></defs>
    <g id="export-badges" stroke="none" stroke-width="1" fill="none" fill-rule="evenodd">
        <g id="production-final" transform="translate(-36.000000, -4327.000000)">
            <g id="card_giropay" transform="translate(36.000000, 4327.000000)">
                <rect id="Rectangle-11" fill="#FFFFFF" x="0" y="0" width="120" height="80" rx="4"></rect>
                <g id="Giropay" transform="translate(15.000000, 21.000000)">
                    <g id="svg2226">
                        <g id="layer1">
                            <path d="M0.0719495265,6.81251048 C0.0719495265,3.05787035 3.15804891,0.0136445864 6.96295694,0.0136445864 L82.0631494,0.0136445864 C85.8696924,0.0136445864 88.9541214,3.05787035 88.9541214,6.81251048 L88.9541214,31.1092153 C88.9541214,34.8616705 85.8696924,37.9064593 82.0631494,37.9064593 L6.96295694,37.9064593 C3.15804891,37.9064593 0.0719495265,34.8616705 0.0719495265,31.1092153 L0.0719495265,6.81251048 L0.0719495265,6.81251048 L0.0719495265,6.81251048 Z" id="_92653320" fill="#000268"></path>
                            <path d="M2.9001836,7.04514439 L2.9001836,30.878802 C2.9001836,33.2246325 4.82917793,35.1272249 7.20862764,35.1272249 L46.5543237,35.1272249 L46.5543237,2.79672112 L7.20862764,2.79672112 C4.82917793,2.79672112 2.9001836,4.69927855 2.9001836,7.04514439 L2.9001836,7.04514439 L2.9001836,7.04514439 Z M56.7205358,18.8429247 C56.7205358,20.3603672 55.963508,21.4032722 54.7101613,21.4032722 C53.6029009,21.4032722 52.6798766,20.3603672 52.6798766,18.970732 C52.6798766,17.5443692 53.491656,16.4839116 54.7101613,16.4839116 C56.0022607,16.4839116 56.7205358,17.5811327 56.7205358,18.8429247 L56.7205358,18.8429247 Z M49.3614038,27.546004 L52.6798766,27.546004 L52.6798766,22.3709939 L52.7169586,22.3709939 C53.3455695,23.5049776 54.6005869,23.9251989 55.7621011,23.9251989 C58.6201992,23.9251989 60.1507875,21.5853957 60.1507875,18.7693977 C60.1507875,16.466358 58.6943632,13.9597636 56.037671,13.9597636 C54.5264591,13.9597636 53.1247863,14.5638004 52.4590934,15.8990836 L52.4220114,15.8990836 L52.4220114,14.1808708 L49.3614038,14.1808708 L49.3614038,27.546004 L49.3614038,27.546004 Z M64.6833217,20.6889796 C64.6833217,19.7755392 65.5675934,19.4293731 66.69423,19.4293731 C67.191722,19.4293731 67.672042,19.4639512 68.0959038,19.4836903 C68.0959038,20.598464 67.3029318,21.7324139 66.0479134,21.7324139 C65.2732161,21.7324139 64.6833217,21.3489551 64.6833217,20.6889796 L64.6833217,20.6889796 Z M71.3773307,23.7063119 C71.2306744,22.9574772 71.1935934,22.2064231 71.1935934,21.4575883 L71.1935934,17.9102744 C71.1935934,15.0032316 69.0736796,13.9597636 66.6201021,13.9597636 C65.2007237,13.9597636 63.9650816,14.1610969 62.7841921,14.6372916 L62.8406504,16.8690257 C63.7597636,16.3560684 64.8316125,16.1547341 65.9012581,16.1547341 C67.0981816,16.1547341 68.0759936,16.5031215 68.0959038,17.801677 C67.672042,17.7281499 67.080477,17.6721765 66.5459392,17.6721765 C64.776861,17.6721765 61.585632,18.0205639 61.585632,20.9270775 C61.585632,22.9942407 63.281684,23.9251989 65.1813474,23.9251989 C66.5459392,23.9251989 67.4689284,23.3969084 68.2248183,22.2064231 L68.2619003,22.2064231 C68.2619003,22.7018267 68.316118,23.1933537 68.3360633,23.7063119 L71.3773307,23.7063119 L71.3773307,23.7063119 Z M72.8708019,27.546004 C73.5536306,27.6930571 74.2353937,27.7671123 74.935928,27.7671123 C77.979435,27.7671123 78.6976751,25.4442986 79.6384051,23.048522 L83.162196,14.1808708 L79.8414836,14.1808708 L77.86819,20.3971307 L77.831108,20.3971307 L75.765413,14.1808708 L72.189075,14.1808708 L76.0797366,23.9251989 C75.839576,24.7667696 75.2131695,25.2429643 74.4008564,25.2429643 C73.938242,25.2429643 73.5342904,25.1869909 73.0910523,25.0416299 L72.8708019,27.546004 L72.8708019,27.546004 Z" id="_92186184" fill="#FFFFFF"></path>
                            <path d="M11.0074558,18.8621346 C11.0074558,17.5635791 11.6537724,16.4839116 12.8894145,16.4839116 C14.3829559,16.4839116 15.0093634,17.6721765 15.0093634,18.7326352 C15.0093634,20.1957963 14.0686334,21.182728 12.8894145,21.182728 C11.8939329,21.182728 11.0074558,20.3428136 11.0074558,18.8621346 L11.0074558,18.8621346 Z M18.2188308,14.1808708 L15.2124409,14.1808708 L15.2124409,15.8990836 L15.1775633,15.8990836 C14.4747894,14.7283713 13.3304481,13.9597636 11.9116376,13.9597636 C8.92458888,13.9597636 7.57773794,16.0828643 7.57773794,18.9164159 C7.57773794,21.7324139 9.21953609,23.7063119 11.8546465,23.7063119 C13.1843607,23.7063119 14.2910872,23.1933537 15.0834912,22.0786148 L15.1205722,22.0786148 L15.1205722,22.5915372 C15.1205722,24.4557097 14.0880097,25.3515975 12.1711744,25.3515975 C10.7872064,25.3515975 9.93781124,25.0591836 8.92458888,24.5660003 L8.75859234,27.1630754 C9.53165517,27.4379358 10.8414592,27.7671123 12.4290396,27.7671123 C16.3019955,27.7671123 18.2188308,26.5047563 18.2188308,22.5915372 L18.2188308,14.1808708 L18.2188308,14.1808708 Z M23.8293296,10.2133356 L20.5091851,10.2133356 L20.5091851,12.6266659 L23.8293296,12.6266659 L23.8293296,10.2133356 L23.8293296,10.2133356 Z M20.5108557,23.7063119 L23.8293296,23.7063119 L23.8293296,14.1808708 L20.5108557,14.1808708 L20.5108557,23.7063119 L20.5108557,23.7063119 Z M33.0726599,14.0700531 C32.7406307,14.0162652 32.3344746,13.9597636 31.9482277,13.9597636 C30.509508,13.9597636 29.680023,14.7283713 29.1078343,15.9358471 L29.0707523,15.9358471 L29.0707523,14.1808708 L26.0466577,14.1808708 L26.0466577,23.7063119 L29.3656995,23.7063119 L29.3656995,19.6850236 C29.3656995,17.8192296 30.2339371,16.7044548 31.7822311,16.7044548 C32.1706825,16.7044548 32.5375521,16.7044548 32.9066633,16.812524 L33.0726599,14.0700531 L33.0726599,14.0700531 Z M38.7883593,21.6221592 C37.25777,21.6221592 36.6313635,20.3603672 36.6313635,18.9531784 C36.6313635,17.5268156 37.25777,16.2650236 38.7883593,16.2650236 C40.3206182,16.2650236 40.9475585,17.5268156 40.9475585,18.9531784 C40.9475585,20.3603672 40.3206182,21.6221592 38.7883593,21.6221592 L38.7883593,21.6221592 Z M38.7883593,23.9251989 C41.9607447,23.9251989 44.3772763,22.0983539 44.3772763,18.9531784 C44.3772763,15.7888299 41.9607447,13.9597636 38.7883593,13.9597636 C35.6165056,13.9597636 33.2016457,15.7888299 33.2016457,18.9531784 C33.2016457,22.0983539 35.6165056,23.9251989 38.7883593,23.9251989 L38.7883593,23.9251989 Z" id="_47303032" fill="#FF0007"></path>
                        </g>
                    </g>
                </g>
            </g>
        </g>
    </g>
</svg>