<?xml version="1.0" encoding="UTF-8" standalone="no"?>
<svg width="120px" height="80px" viewBox="0 0 120 80" version="1.1" xmlns="http://www.w3.org/2000/svg" xmlns:xlink="http://www.w3.org/1999/xlink">
    <!-- Generator: Sketch 40.3 (33839) - http://www.bohemiancoding.com/sketch -->
    <title>card_eps</title>
    <desc>Created with Sketch.</desc>
    <defs>
        <polygon id="path-1" points="0 69.9393922 106.939851 69.9393922 106.939851 0 0 0"></polygon>
        <polygon id="path-3" points="0 57.3756349 1970.74869 57.3756349 1970.74869 0.0606060591 0 0.0606060591"></polygon>
    </defs>
    <g id="export-badges" stroke="none" stroke-width="1" fill="none" fill-rule="evenodd">
        <g id="production-final" transform="translate(-36.000000, -4240.000000)">
            <g id="card_eps" transform="translate(36.000000, 4240.000000)">
                <rect id="Rectangle-11" fill="#FFFFFF" x="0" y="0" width="120" height="80" rx="4"></rect>
                <g id="eps-Logo-RGB" transform="translate(7.000000, 5.000000)">
                    <g id="svg2">
                        <g id="g10" transform="translate(53.469926, 34.969698) scale(1, -1) translate(-53.469926, -34.969698) translate(0.000000, 0.000001)">
                            <g id="g12">
                                <g id="g14-Clipped">
                                    <mask id="mask-2" fill="white">
                                        <use xlink:href="#path-1"></use>
                                    </mask>
                                    <g id="path16"></g>
                                    <g id="g14" mask="url(#mask-2)">
                                        <g transform="translate(-929.979741, 5.454545)" id="g20">
                                            <g transform="translate(985.374343, 28.727272) scale(1, -1) translate(-985.374343, -28.727272) ">
                                                <g id="g22">
                                                    <g id="g24-Clipped">
                                                        <mask id="mask-4" fill="white">
                                                            <use xlink:href="#path-3"></use>
                                                        </mask>
                                                        <g id="path26"></g>
                                                        <g id="g24" mask="url(#mask-4)">
                                                            <g transform="translate(937.076986, -0.121212)">
                                                                <g id="g30" transform="translate(51.725687, 20.242424)">
                                                                    <path d="M20.9308595,8.60606039 L20.9308595,8.60606039 L13.5627158,8.60606039 C12.7432847,8.60606039 12.0765045,7.94812101 12.0765045,7.12448467 C12.0765045,6.30084833 12.7432847,5.57575744 13.5627158,5.57575744 L24.780213,5.57575744 L24.780213,0 L13.5627158,0 C9.64756243,0 6.46210214,3.21624234 6.46210214,7.15151497 C6.46210214,11.0867876 9.64756243,14.3030299 13.5627158,14.3030299 L20.8307763,14.3030299 C21.6503277,14.3030299 22.3171079,14.9583027 22.3171079,15.781939 C22.3171079,16.6055753 21.6503277,17.2121208 20.8307763,17.2121208 L5.24546586,17.2121208 C3.9222506,19.7575753 2.63560421,21.9393934 0.0236975823,23.0303025 L20.9308595,23.0303025 C24.780213,22.9744237 27.9289841,19.6918783 27.9289841,15.7913935 C27.9289841,11.8911512 24.780213,8.66193918 20.9308595,8.60606039" id="path32" fill="#71706F"></path>
                                                                </g>
                                                                <g id="g34" transform="translate(32.983775, 20.242424)">
                                                                    <path d="M11.4277681,17.2121208 L5.75033263,17.2121208 L5.75033263,11.4707876 C5.75033263,8.26254525 8.28525218,5.6523635 11.4277681,5.6523635 C14.5702841,5.6523635 17.1268562,8.26254525 17.1268562,11.4707876 C17.1268562,14.6791511 14.5702841,17.2121208 11.4277681,17.2121208 M11.4277681,0 C5.18291387,0 0.0965947137,5.15575745 0.0965947137,11.4909088 L0.0965947137,11.733333 L0.0965947137,35.3939385 L5.75033263,35.3939385 L5.75033263,23.0303025 L11.4159795,23.0303025 C17.660954,23.0303025 22.7293496,17.8059389 22.7293496,11.4707876 C22.7293496,5.13563624 17.6727427,0 11.4277681,0" id="path36" fill="#71706F"></path>
                                                                </g>
                                                                <g id="g38" transform="translate(0.024371, 16.606060)">
                                                                    <path d="M15.1568293,26.666666 C9.81103966,26.666666 5.3166789,22.8282419 4.10052379,17.8136965 C4.10052379,17.8136965 3.74914999,16.1557572 3.74914999,15.0639996 C3.74914999,13.9722421 4.08175819,12.2972118 4.08175819,12.2972118 C5.30669464,7.29503012 9.79552196,3.57018173 15.1325303,3.57018173 C21.4095026,3.57018173 26.5601781,8.71175736 26.5601781,15.0366057 L26.5601781,17.8181814 L9.88345563,17.8181814 C10.8682887,19.7575753 12.8599682,20.8484843 15.1568293,20.8484843 L30.148377,20.8484843 L30.168947,4.44618171 C30.168947,2.00072722 28.1835226,0 25.7566256,0 L4.50843496,0 C2.08153789,0 0.0958729599,1.94012116 0.0958729599,4.38557565 L0.0958729599,25.7962418 C0.0958729599,28.2416963 2.08153789,30.3030295 4.50843496,30.3030295 L25.7566256,30.3030295 C27.9345176,30.3030295 29.7512921,28.727272 30.102305,26.666666 L15.1568293,26.666666 Z" id="path40" fill="#C8036F"></path>
                                                                </g>
                                                                <g id="g42" transform="translate(9.864052, 25.618933)">
                                                                    <path d="M5.29286103,0 C3.00490156,0 1.01514669,1.4113939 0.0263440128,3.22957568 L10.5596186,3.22957568 C9.57081595,1.4113939 7.58118137,0 5.29286103,0" id="path44" fill="#C8036F"></path>
                                                                </g>
                                                                <g id="g46" transform="translate(5.413153, 0.067758)">
                                                                    <path d="M19.3670597,9.57575734 C19.3670597,4.35018171 15.0572273,0.114060603 9.74090926,0.114060603 C4.51264519,0.114060603 0.260432821,4.21163626 0.120773465,9.31745431 C0.118487912,9.33903007 0.120292296,9.35999977 0.120292296,9.38218158 L0.120292296,12.2255755 C0.120292296,12.5656967 0.395160192,12.9019391 0.741120836,12.9019391 L4.28264632,12.9019391 C4.62860697,12.9019391 4.93198414,12.5656967 4.93198414,12.2255755 L4.93198414,9.57575734 C4.93198414,6.96630286 7.08882501,4.84327261 9.74367598,4.84327261 C12.398527,4.84327261 14.5553678,6.96630286 14.5553678,9.57575734 L14.5553678,12.2255755 C14.5553678,12.5656967 14.8360097,12.9019391 15.1819704,12.9019391 L18.7236162,12.9019391 C19.0695768,12.9019391 19.3670597,12.5656967 19.3670597,12.2255755 L19.3670597,9.57575734 Z" id="path48" fill="#C8036F"></path>
                                                                </g>
                                                                <g id="g50" transform="translate(45.872481, 49.138968)">
                                                                    <path d="M3.48847659,0.606060591 C3.48847659,0.856727251 3.68046309,0.971272703 3.88676438,0.971272703 C4.10713986,0.971272703 4.39872839,0.792242404 4.39872839,0.462666655 C4.39872839,0.226424237 4.22791333,0.097454543 4.03604712,0.097454543 C3.78006511,0.097454543 3.48847659,0.2620606 3.48847659,0.606060591 L3.48847659,0.606060591 Z M1.78176949,0.613212106 C1.78176949,0.856727251 1.96677904,0.971272703 2.16586279,0.971272703 C2.41474755,0.971272703 2.68504434,0.792242404 2.68504434,0.45551514 C2.68504434,0.21915151 2.52842377,0.097454543 2.32224277,0.097454543 C2.06638106,0.097454543 1.78176949,0.2620606 1.78176949,0.613212106 L1.78176949,0.613212106 Z M4.88218313,1.52775754 L4.37021912,4.44872716 C4.11423711,5.92509076 3.15418429,6.60121196 1.85286224,6.60121196 C0.75074422,6.60121196 -0.102609329,5.87733319 0.146395724,4.4511514 L0.658239444,1.52775754 L1.44771778,1.52775754 L0.935513186,4.44872716 C0.779133201,5.35915138 1.18451824,5.8774544 1.95246426,5.8774544 C2.7418223,5.8774544 3.41738384,5.4043635 3.58086107,4.4511514 L4.09282508,1.52775754 L4.88218313,1.52775754 Z" id="path52" fill="#71706F"></path>
                                                                </g>
                                                                <g id="g54" transform="translate(51.025153, 50.557781)">
                                                                    <path d="M1.08263066,3.51515143 C1.05424168,4.10266656 1.43099715,4.48242413 1.97856769,4.48242413 C2.66832371,4.48242413 3.33666771,3.94484839 3.37937147,3.12824235 C3.40776045,2.53345448 3.02390774,2.18230298 2.4904114,2.18230298 C1.80775262,2.18230298 1.12509384,2.73418175 1.08263066,3.51515143 L1.08263066,3.51515143 Z M1.63729844,0.108848482 L1.28171441,2.12727267 C1.58737714,1.71187875 2.19894317,1.49212117 2.62561995,1.49212117 C3.50736248,1.49212117 4.11892851,2.01284843 4.11892851,2.97999993 C4.11892851,4.34860595 3.17307018,5.17163623 1.96437319,5.17163623 C1.49499266,5.17163623 1.09670486,4.99587866 0.85503764,4.55175746 L0.719949392,5.07854533 L0.030073074,5.07854533 L0.904718358,0.108848482 L1.63729844,0.108848482 Z" id="path56" fill="#71706F"></path>
                                                                </g>
                                                                <g id="g58" transform="translate(55.821760, 51.999999)">
                                                                    <path d="M3.0073074,1.57575754 C3.06408536,0.969696945 2.70862163,0.723030285 2.11834733,0.723030285 C1.58521188,0.723030285 1.0945396,0.969696945 0.881020776,1.57575754 L3.0073074,1.57575754 Z M0.760247311,2.18181813 C0.731738037,2.6666666 1.1086138,3.06254538 1.74868911,3.06254538 C2.10427313,3.06254538 2.57341309,2.92242417 2.8293951,2.67890902 L3.22768289,3.14266659 C2.79402916,3.54363628 2.15395385,3.74327263 1.61360086,3.74327263 C0.603867326,3.74327263 0.0135930295,3.13393932 0.0135930295,2.20242419 C0.0135930295,0.962787855 0.980622797,0.0390303021 2.21794935,0.0390303021 C3.34869694,0.0390303021 3.98865195,0.727272709 3.60467894,2.18181813 L0.760247311,2.18181813 Z" id="path60" fill="#71706F"></path>
                                                                </g>
                                                                <g id="g62" transform="translate(60.059862, 51.999999)">
                                                                    <path d="M1.32321526,0.121212118 L1.28760874,0.588484834 C1.62911857,0.136606057 2.04148056,0.0444848474 2.41823603,0.0444848474 C2.75962556,0.0444848474 3.06528829,0.16654545 3.22888581,0.345575749 L2.78813484,0.99054543 C2.63163456,0.847636342 2.47525458,0.775999981 2.20495779,0.775999981 C1.69997073,0.775999981 1.20244179,1.08109088 1.08852499,1.73321208 L0.754473281,3.63636355 L0.0218931979,3.63636355 L0.640556476,0.121212118 L1.32321526,0.121212118 Z" id="path64" fill="#71706F"></path>
                                                                </g>
                                                                <g id="g66" transform="translate(63.569053, 52.121211)">
                                                                    <polygon id="path68" fill="#71706F" points="3.24789199 0 3.61755022 2.77987872 4.9544788 0 5.77222583 0 3.93764802 3.51515143 3.07719722 3.51515143 2.72883074 1.19624239 2.16694542 2.34824237 1.55549968 3.51515143 0.702146132 3.51515143 0.0834828534 0 0.908327127 0 1.27112869 2.77987872 2.61491393 0"></polygon>
                                                                </g>
                                                                <g id="g70" transform="translate(69.521573, 51.999999)">
                                                                    <path d="M3.0073074,1.57575754 C3.06408536,0.969696945 2.70862163,0.723030285 2.11834733,0.723030285 C1.58521188,0.723030285 1.0945396,0.969696945 0.881020776,1.57575754 L3.0073074,1.57575754 Z M0.760247311,2.18181813 C0.731738037,2.6666666 1.1086138,3.06254538 1.74868911,3.06254538 C2.10427313,3.06254538 2.57341309,2.92242417 2.8293951,2.67890902 L3.22768289,3.14266659 C2.79402916,3.54363628 2.15395385,3.74327263 1.61360086,3.74327263 C0.603867326,3.74327263 0.0135930295,3.13393932 0.0135930295,2.20242419 C0.0135930295,0.962787855 0.980622797,0.0390303021 2.21794935,0.0390303021 C3.34869694,0.0390303021 3.98865195,0.727272709 3.60467894,2.18181813 L0.760247311,2.18181813 Z" id="path72" fill="#71706F"></path>
                                                                </g>
                                                                <g id="g74" transform="translate(73.763934, 50.557562)">
                                                                    <path d="M0.721753776,0.606060591 C0.721753776,0.856727251 0.906763328,0.986181794 1.10596737,0.986181794 C1.39033836,0.986181794 1.65341761,0.799515132 1.65341761,0.448727262 C1.65341761,0.211999995 1.4755053,0.0757575739 1.28363909,0.0757575739 C1.02043955,0.0757575739 0.721753776,0.247999994 0.721753776,0.606060591 L0.721753776,0.606060591 Z M1.36880604,1.56363632 L0.750383343,5.07878775 L0.0178032598,5.07878775 L0.636466538,1.56363632 L1.36880604,1.56363632 Z" id="path76" fill="#71706F"></path>
                                                                </g>
                                                                <g id="g78" transform="translate(75.496095, 52.021041)">
                                                                    <path d="M2.8870151,0.969696945 C2.65942208,0.711757558 2.36795385,0.640121196 2.01958736,0.640121196 C1.53577174,0.640121196 1.19462279,0.805090889 1.19462279,1.11309088 C1.19462279,1.37103027 1.47177624,1.47878784 1.88437882,1.5144242 C2.52433383,1.57163632 3.34208086,1.78678783 3.17138609,2.69672721 C3.05061263,3.3558787 2.39634283,3.74278779 1.48609103,3.74278779 C0.91734905,3.74278779 0.369658226,3.61381809 0,3.0907878 L0.476357492,2.56775751 C0.739436744,2.93296962 1.20172004,3.08363629 1.61408203,3.0907878 C1.96244852,3.0907878 2.37505109,2.96181811 2.43904659,2.63224236 C2.5030421,2.31696964 2.22564806,2.19527267 1.71368405,2.14484843 C1.11631251,2.0875151 0.462283294,1.86569692 0.462283294,1.19915149 C0.462283294,0.317696962 1.40778074,0.00969696945 2.11906909,0.00969696945 C2.65942208,0.00969696945 3.05770987,0.131393936 3.38490492,0.482666655 L2.8870151,0.969696945 Z" id="path80" fill="#71706F"></path>
                                                                </g>
                                                                <g id="g82" transform="translate(79.492120, 52.121211)">
                                                                    <path d="M1.20292296,0 L0.868871254,1.89296965 C0.762171988,2.49503024 1.03246878,2.91103023 1.64391452,2.91103023 C2.21987403,2.91103023 2.71054631,2.43018176 2.80990774,1.84266662 L3.12988525,0 L3.86234504,0 L3.24392235,3.51515143 L2.5825553,3.51515143 L2.63223602,3.00581811 C2.21987403,3.3998787 1.8143687,3.58569688 1.32393701,3.58569688 C0.463486217,3.58569688 -0.0484777953,2.96412114 0.136291171,1.89684844 L0.470583462,0 L1.20292296,0 Z" id="path84" fill="#71706F"></path>
                                                                </g>
                                                                <g id="g86" transform="translate(83.803396, 51.999999)">
                                                                    <path d="M2.76672281,3.63636355 L3.1010151,1.75490905 C3.20747378,1.14569694 3.00165366,0.7421818 2.33306908,0.7421818 C1.75001232,0.7421818 1.25909946,1.21478785 1.15973803,1.79515147 L0.839760519,3.63636355 L0.107300728,3.63636355 L0.726084299,0.121212118 L1.394308,0.121212118 L1.34462729,0.634909075 C1.75001232,0.255151509 2.16935127,0.0678787862 2.62441702,0.0678787862 C3.47777057,0.0678787862 4.03267893,0.666060589 3.84069243,1.74824238 L3.50640014,3.63636355 L2.76672281,3.63636355 Z" id="path88" fill="#71706F"></path>
                                                                </g>
                                                                <g id="g90" transform="translate(88.296723, 52.033950)">
                                                                    <path d="M0.962338368,2.06060601 C0.962338368,2.66218175 1.35340862,3.02787871 1.91553452,3.02787871 C3.42977394,3.02787871 3.83527927,0.684848468 2.32043839,0.684848468 C1.60229338,0.684848468 0.962338368,1.22193936 0.962338368,2.06060601 L0.962338368,2.06060601 Z M0.756037081,4.08727263 C0.706356362,4.5721211 1.07601459,4.76824231 1.69491845,4.76824231 C2.23539174,4.76824231 2.81856879,4.4641211 2.95365704,3.69042415 L3.06023601,3.0867878 C2.7402585,3.53818173 2.15708145,3.71636354 1.72354802,3.71636354 C0.82725012,3.71636354 0.201609888,3.1787878 0.201609888,2.20399994 C0.201609888,0.814181798 1.22541762,0.0113939391 2.38443389,0.0113939391 C2.87534675,0.0113939391 3.31621802,0.246181812 3.47271829,0.647515135 L3.59361205,0.0872727251 L4.30465981,0.0872727251 L3.69297349,3.706909 C3.46562105,5.04703018 2.47705896,5.46290895 1.57402469,5.46290895 C0.492957829,5.46290895 -0.104052836,4.93575745 0.0449893187,4.08727263 L0.756037081,4.08727263 Z" id="path92" fill="#71706F"></path>
                                                                </g>
                                                            </g>
                                                        </g>
                                                    </g>
                                                </g>
                                            </g>
                                        </g>
                                    </g>
                                </g>
                            </g>
                        </g>
                    </g>
                </g>
            </g>
        </g>
    </g>
</svg>