<svg width="120" height="80" viewBox="0 0 120 80" fill="none" xmlns="http://www.w3.org/2000/svg">
<path d="M116 0H4C1.79086 0 0 1.79086 0 4V76C0 78.2091 1.79086 80 4 80H116C118.209 80 120 78.2091 120 76V4C120 1.79086 118.209 0 116 0Z" fill="white"/>
<path d="M89.8784 62.4467C94.6322 62.4467 98.7831 60.9846 99.7382 56.2832C100.692 51.5818 106.904 21.3444 106.904 21.3444H29.4291C24.6714 21.3444 20.5052 23.0382 19.568 27.5053C18.6295 31.9711 12.4212 62.4403 12.4212 62.4403L89.8784 62.4467Z" fill="#B3131B"/>
<path d="M89.8784 62.7874V62.4468V62.1037C94.5913 62.0832 98.4899 60.6928 99.4015 56.2129C100.291 51.8355 105.738 25.3174 106.485 21.6864H29.4291C24.7277 21.7004 20.7933 23.3316 19.9022 27.5746C19.4336 29.8062 17.6462 38.5393 15.9754 46.7154C14.535 53.7752 13.183 60.4098 12.8386 62.0973L89.8784 62.1037V62.4468L89.8771 62.7874L12 62.7797L12.0845 62.37C12.0845 62.37 18.2915 31.9021 19.2313 27.4337C20.2171 22.7465 24.6151 20.9847 29.4291 21.0001H107.324L107.24 21.4124C107.24 21.4277 105.688 28.9701 104.014 37.1194C102.341 45.2661 100.55 54.0005 100.075 56.3499C99.0839 61.2446 94.7295 62.7887 89.9706 62.7887C89.9411 62.7887 89.9091 62.7887 89.8784 62.7874Z" fill="white"/>
<path d="M20.7682 47.5929L21.4122 44.3076L22.0652 40.8405L22.6247 37.349L23.1483 34.0675L23.1944 33.8576H25.5144C25.49 33.9626 25.49 34.0266 25.4696 34.0675C25.3863 34.4644 25.2199 35.3427 24.9894 36.6986C24.864 37.431 24.695 38.267 24.508 39.2093L24.4671 39.5038H24.6553L27.6832 39.5422L30.6318 39.5038H30.8649L30.9045 39.2093C31.03 38.3938 31.1555 37.5359 31.3219 36.6154C31.6587 34.7768 31.6791 34.6501 31.7841 33.8589H34.1425C34.1054 34.0061 34.1054 34.0061 34.081 34.0688C34.0388 34.2775 33.8327 35.3645 33.4754 37.349L32.8289 40.8405L32.2425 44.3089C31.9096 46.2755 31.7406 47.3625 31.7035 47.5929C31.7035 47.6723 31.7035 47.6723 31.6791 47.799H29.3169L29.3618 47.5929C29.4194 47.3407 29.5256 46.7351 29.6908 45.7736C29.7535 45.4138 29.8803 44.812 30.0467 43.8902L30.3822 42.0504C30.4872 41.4883 30.5499 41.1503 30.5691 41.0671C30.5691 41.0248 30.5909 40.9659 30.6101 40.8597H30.3399C29.9443 40.8405 28.5219 40.8405 27.1634 40.8405C25.805 40.8405 24.9024 40.8405 24.485 40.8584H24.2161C24.1739 41.2591 24.1534 41.3385 24.0279 42.0504C23.9229 42.5932 23.8218 43.2206 23.7155 43.8889C23.5491 44.8748 23.4415 45.4996 23.4006 45.7723C23.2341 46.7761 23.1278 47.3791 23.0869 47.5929C23.0869 47.63 23.0869 47.7158 23.0677 47.7978H20.726L20.7682 47.5929Z" fill="white"/>
<path d="M33.7891 47.6017L34.2283 45.3624L34.7084 42.8466L35.1079 40.4088C35.3089 39.1682 35.4279 38.3911 35.4663 38.071C35.4663 38.03 35.4663 37.9698 35.4868 37.8712H37.5418C37.5251 37.9698 37.5033 38.03 37.4867 38.071C37.406 38.3911 37.2665 39.1682 37.0232 40.4088L36.5649 42.8466L36.1488 45.3624C35.9644 46.5403 35.844 47.2996 35.8031 47.6017C35.8031 47.6401 35.8031 47.7208 35.7877 47.7989H33.7277L33.7891 47.6017ZM35.8889 35.2914C35.8889 34.2748 36.3869 33.673 37.2665 33.673C37.8657 33.673 38.1653 33.9547 38.1653 34.5334C38.1653 35.5334 37.6442 36.1518 36.7851 36.1518C36.2858 36.1518 35.9862 35.9495 35.9042 35.5731C35.8889 35.4706 35.8889 35.3912 35.8889 35.2914Z" fill="white"/>
<path d="M36.8861 52.0134C36.9834 51.5756 37.2241 50.3375 37.6044 48.2608L38.2625 44.6823L38.8424 41.2472C39.1228 39.5687 39.2842 38.5098 39.3443 38.0707C39.3443 37.99 39.3443 37.99 39.3623 37.8697H41.1432L41.0997 38.0707L41.0036 38.6263L40.9639 38.8478C41.9229 38.0092 42.9011 37.652 44.2185 37.652C46.4553 37.652 47.6549 38.8683 47.6549 41.1473C47.6549 42.4059 47.3156 43.8245 46.7344 45.0843C45.7921 47.0611 44.2377 48.0611 42.1406 48.0611C40.8193 48.0611 40.2201 47.7 39.7425 46.6629L39.7028 46.8998L39.2432 49.8574C39.0831 50.8573 38.9589 51.5756 38.9218 51.9955C38.9218 52.0134 38.9218 52.0941 38.9052 52.2349H36.8246C36.8631 52.0941 36.8631 52.0941 36.8861 52.0134ZM40.8782 40.3048L40.2201 44.0229C40.1791 44.2828 40.142 44.521 40.142 44.7847C40.142 46.0817 40.8026 46.7244 42.0983 46.7244C42.9587 46.7244 43.6577 46.4197 44.1776 45.841C44.997 44.9038 45.5565 43.0665 45.5565 41.388C45.5565 39.7684 44.8382 38.9669 43.2788 38.9669C42.339 38.9669 41.5593 39.3292 40.9383 40.0065L40.8782 40.3048Z" fill="white"/>
<path d="M52.2075 48.0185C49.515 48.0185 48.1911 46.8637 48.1911 44.4631C48.1911 43.143 48.5329 41.6655 49.1129 40.4288C49.9912 38.5697 51.6326 37.6517 54.0473 37.6517C56.3442 37.6517 57.4876 38.5275 57.4876 40.2674C57.4876 40.7655 57.3646 41.5478 57.1662 42.444L56.946 42.4235C56.5875 42.4056 55.4659 42.4056 53.5877 42.4056C51.9898 42.4056 51.0129 42.4056 50.634 42.4235L50.4291 42.444C50.2511 43.3428 50.2345 43.5655 50.2345 44.2044C50.2345 45.8048 51.1499 46.6627 52.8694 46.6627C53.991 46.6627 55.0665 46.4437 56.2687 45.9226L55.9665 47.5205C54.8078 47.8406 53.4468 48.0185 52.2075 48.0185ZM50.9105 41.2853C51.1307 41.3071 51.8708 41.3071 53.1101 41.3071H53.4289C54.3277 41.3071 54.9474 41.3071 55.3059 41.2853H55.4877L55.5261 41.0254C55.5658 40.7872 55.5875 40.5657 55.5875 40.3686C55.5875 39.3878 54.9256 38.9103 53.6479 38.9103C52.0282 38.9103 51.109 39.6273 50.6903 41.2853H50.9105Z" fill="white"/>
<path d="M57.7827 47.6017L58.2244 45.3624L58.7032 42.8466L59.1027 40.4088C59.3024 39.1682 59.4215 38.3911 59.4625 38.071C59.4625 38.03 59.4829 37.9698 59.4829 37.8712H61.2792L61.2408 38.071L61.0053 39.3295L60.9412 39.6074C61.2792 39.0709 61.4009 38.9275 61.6582 38.6266C62.2228 37.9903 62.9603 37.6497 63.7388 37.6497C64.1408 37.6497 64.4801 37.7304 64.8565 37.9096L64.5991 39.3487C64.1587 39.2092 63.7989 39.1516 63.4199 39.1516C62.2228 39.1516 61.1615 40.2296 60.7402 41.8851C60.584 42.506 60.4393 43.2256 60.3049 44.0655C59.9042 46.5621 59.8606 46.7605 59.7825 47.7989H57.7443L57.7827 47.6017Z" fill="white"/>
<path d="M72.0451 39.4277C71.2052 39.1294 70.3064 38.9668 69.4845 38.9668C68.5076 38.9668 67.7637 39.2088 67.2682 39.6876C66.4488 40.4673 65.8099 42.4057 65.8099 44.1431C65.8099 45.8434 66.5512 46.6628 68.0697 46.6628C68.9685 46.6628 70.1272 46.3824 70.9235 45.983L70.6432 47.4989C69.6253 47.8407 68.5485 48.0187 67.45 48.0187C65.888 48.0187 65.0302 47.6576 64.3696 46.7614C63.9304 46.1225 63.7512 45.4631 63.7512 44.4043C63.7512 43.0254 64.0904 41.5876 64.7306 40.3265C65.0123 39.7465 65.4092 39.228 65.9098 38.7875C66.7894 37.9899 67.9084 37.6493 69.7264 37.6493C70.3653 37.6493 71.0426 37.6903 72.1232 37.7889L72.3229 37.8081L72.0451 39.4277Z" fill="white"/>
<path d="M75.0408 48.0185C73.0218 48.0185 72.0654 47.1786 72.0654 45.4233C72.0654 42.8242 73.9014 41.3288 77.0791 41.3288C77.5772 41.3288 78.5579 41.3659 79.2147 41.4069L79.2582 41.188C79.3965 40.4672 79.3965 40.4083 79.3965 40.1676C79.3965 39.3686 78.7371 38.9666 77.3774 38.9666C76.3417 38.9666 75.343 39.1292 74.0409 39.4903L74.4429 37.8489C74.521 37.8694 74.5812 37.8694 74.6209 37.8694C74.9384 37.8694 75.4416 37.8297 76.1394 37.749C76.7386 37.6901 77.3378 37.6517 77.896 37.6517C80.2735 37.6517 81.3349 38.2714 81.3349 39.649C81.3349 40.0062 81.276 40.4083 81.1147 41.2853L80.7946 43.1046C80.4387 45.0443 80.2377 46.5833 80.2377 47.4808C80.2377 47.5602 80.2377 47.6792 80.2543 47.7983H78.4568V47.6408C78.4568 47.3579 78.5387 46.7395 78.6168 46.1595C77.718 47.4808 76.6605 48.0185 75.0408 48.0185ZM78.7973 42.5464C78.1956 42.4875 77.896 42.4875 77.4786 42.4875C76.2584 42.4875 75.5402 42.6437 74.982 43.0854C74.384 43.5451 74.0217 44.3017 74.0217 45.1416C74.0217 46.1441 74.6209 46.6793 75.7169 46.6793C76.8192 46.6793 77.7974 46.0814 78.2801 45.1045C78.5784 44.4631 78.7973 43.6833 78.9958 42.5643L78.7973 42.5464Z" fill="white"/>
<path d="M81.9751 47.6017L82.4104 45.3624L82.8957 42.8466L83.2951 40.4088C83.4923 39.1682 83.6127 38.3911 83.6498 38.071C83.6498 38.03 83.6715 37.9698 83.6715 37.8712H85.4717L85.4269 38.071L85.1887 39.3295L85.1298 39.6074C85.4717 39.0709 85.5895 38.9275 85.8494 38.6266C86.4114 37.9903 87.1476 37.6497 87.9286 37.6497C88.3268 37.6497 88.6661 37.7304 89.0464 37.9096L88.7864 39.3487C88.346 39.2092 87.9888 39.1516 87.6047 39.1516C86.4114 39.1516 85.3513 40.2296 84.9327 41.8851C84.7726 42.506 84.6318 43.2256 84.4922 44.0655C84.0928 46.5621 84.0518 46.7605 83.9699 47.7989H81.9341L81.9751 47.6017Z" fill="white"/>
<path d="M91.3776 48.0185C89.0397 48.0185 87.9412 46.9405 87.9412 44.6052C87.9412 43.2455 88.2804 41.8051 88.9193 40.5657C89.8783 38.6504 91.5389 37.6517 93.7334 37.6517C94.3556 37.6517 94.974 37.7093 95.472 37.8297C95.6346 37.8886 95.7358 37.9091 96.0341 38.0089L96.0725 37.7682C96.1532 37.3688 96.253 36.7324 96.3913 35.8516C96.5501 34.8926 96.6525 34.1936 96.7114 33.7506L96.7332 33.5918H98.7702L98.7318 33.7326C98.5691 34.5341 98.3336 35.7325 98.0327 37.3688C97.4898 40.2892 97.2927 41.3877 96.9918 43.2032C96.6307 45.4233 96.472 46.7804 96.472 47.6575V47.7983H94.6142C94.6321 47.4808 94.6321 47.3796 94.6949 46.961C94.7551 46.6383 94.7768 46.5231 94.8152 46.1813C94.0189 47.541 93.0983 48.0185 91.3776 48.0185ZM93.8345 38.95C92.9562 38.95 92.2405 39.1881 91.7168 39.649C90.7195 40.5273 90.0396 42.4235 90.0396 44.3837C90.0396 45.9623 90.6798 46.6793 92.0753 46.6793C93.1162 46.6793 94.0957 46.0814 94.5323 45.1596C94.7359 44.7242 94.8933 44.1827 95.0342 43.5655C95.2749 42.3454 95.595 40.6067 95.7742 39.5466L95.7947 39.329C95.0764 39.0703 94.5118 38.95 93.8345 38.95Z" fill="white"/>
</svg>
