<?xml version="1.0" encoding="UTF-8" standalone="no"?>
<svg width="120px" height="80px" viewBox="0 0 120 80" version="1.1" xmlns="http://www.w3.org/2000/svg" xmlns:xlink="http://www.w3.org/1999/xlink" xmlns:sketch="http://www.bohemiancoding.com/sketch/ns">
    <!-- Generator: Sketch 3.3.2 (12043) - http://www.bohemiancoding.com/sketch -->
    <title>card_ideal@1x</title>
    <desc>Created with Sketch.</desc>
    <defs>
        <path id="path-1" d="M0,0.00277798861 L69.9301157,0.00277798861 L69.9301157,60.993055 L0,60.993055"></path>
    </defs>
    <g id="assets-card-icons" stroke="none" stroke-width="1" fill="none" fill-rule="evenodd" sketch:type="MSPage">
        <g id="production-final" sketch:type="MSArtboardGroup" transform="translate(-36.000000, -2826.000000)">
            <g id="card_ideal" sketch:type="MSLayerGroup" transform="translate(36.000000, 2826.000000)">
                <rect id="Rectangle-11" fill="#FFFFFF" sketch:type="MSShapeGroup" x="0" y="0" width="120" height="80" rx="4"></rect>
                <g id="iDeal_betalen-Copy" transform="translate(28.000000, 9.512397)">
                    <path d="M7.77312397,34.3367495 L18.9790248,34.3367495 L18.9790248,52.951241 L7.77312397,52.951241 L7.77312397,34.3367495 Z" id="Fill-1" fill="#0A0B09" sketch:type="MSShapeGroup"></path>
                    <g id="Group-5">
                        <mask id="mask-2" sketch:name="Clip 3" fill="white">
                            <use xlink:href="#path-1"></use>
                        </mask>
                        <g id="Clip-3"></g>
                        <path d="M19.8250413,25.0300247 C19.8250413,28.5344573 16.9848926,31.3770342 13.4818843,31.3770342 C9.97899174,31.3770342 7.13872727,28.5344573 7.13872727,25.0300247 C7.13872727,21.525592 9.97899174,18.6842884 13.4818843,18.6842884 C16.9848926,18.6842884 19.8250413,21.525592 19.8250413,25.0300247" id="Fill-2" fill="#0A0B09" sketch:type="MSShapeGroup" mask="url(#mask-2)"></path>
                        <path d="M39.4440165,4.05401139 C47.2358843,4.05401139 53.7299174,6.16597723 58.2241488,10.1616509 C63.3045289,14.6784288 65.8805289,21.5216565 65.8805289,30.501389 C65.8805289,48.2976471 57.2330413,56.9487666 39.4440165,56.9487666 L4.04958678,56.9487666 L4.04958678,4.05401139 L39.4440165,4.05401139 L39.4440165,4.05401139 Z M40.2047603,0.00277798861 L0,0.00277798861 L0,61 L40.2047603,61 L40.2047603,60.988425 C48.9869256,60.86874 55.9441157,58.686167 60.8812562,54.4839962 C66.8856364,49.3734231 69.9301157,41.304408 69.9301157,30.501389 C69.9301157,25.3373397 69.1293388,20.7052751 67.5501157,16.7340247 C66.0392727,12.9350095 63.806562,9.70490323 60.9142314,7.13329602 C55.8200826,2.60424858 48.6693223,0.155335863 40.2047603,0.0162049336 L40.2047603,0.00277798861 L40.2047603,0.00277798861 Z" id="Fill-4" fill="#0A0B09" sketch:type="MSShapeGroup" mask="url(#mask-2)"></path>
                    </g>
                    <path d="M38.3379008,52.9720759 L24.1239669,52.9720759 L24.1239669,8.98598292 L38.3379008,8.98598292 L37.7642479,8.98598292 C49.6181983,8.98598292 62.2359008,13.6660835 62.2359008,31.0368463 C62.2359008,49.4008558 49.6181983,52.9720759 37.7642479,52.9720759 L38.3379008,52.9720759" id="Fill-6" fill="#B9215E" sketch:type="MSShapeGroup"></path>
                    <path d="M23.8072893,22.134666 L23.8072893,29.1302201 L25.4054876,29.1302201 C26.0032066,29.1302201 26.4346612,29.0966528 26.6998512,29.0294023 C27.0469587,28.9429374 27.3349421,28.7963985 27.5640331,28.5899013 C27.7928926,28.3834042 27.9798678,28.0435636 28.1244959,27.5704953 C28.269124,27.0974269 28.341438,26.4525863 28.341438,25.6360892 C28.341438,24.819592 28.269124,24.1928083 28.1244959,23.7556224 C27.9798678,23.3186679 27.7773884,22.9776698 27.5170579,22.7327438 C27.2567273,22.4877021 26.9263967,22.3220645 26.5262975,22.2354839 C26.2273223,22.1683491 25.6416364,22.134666 24.769124,22.134666 L23.8072893,22.134666 L23.8072893,22.134666 Z M21.6740826,20.3405484 L25.5766116,20.3405484 C26.4567603,20.3405484 27.1276033,20.4079146 27.5893719,20.5426471 C28.2096529,20.7255313 28.7410744,21.0504402 29.1835207,21.5173738 C29.6259669,21.9841917 29.9625455,22.5557628 30.1934876,23.2319715 C30.424314,23.9081803 30.5397851,24.7420398 30.5397851,25.7334345 C30.5397851,26.6046812 30.4314876,27.3554326 30.215124,27.9859203 C29.9506281,28.7561176 29.5730909,29.3793131 29.0826281,29.8558539 C28.7122645,30.2168767 28.2120826,30.4983795 27.5820826,30.7004782 C27.1107107,30.8497951 26.4808264,30.9243378 25.6920826,30.9243378 L21.6740826,30.9243378 L21.6740826,20.3405484 L21.6740826,20.3405484 Z" id="Fill-7" fill="#FFFFFF" sketch:type="MSShapeGroup"></path>
                    <path d="M25.5766116,20.6299222 C26.4251736,20.6299222 27.0750744,20.6939317 27.5082645,20.8204459 C28.0753223,20.9875882 28.5686777,21.2891157 28.9736364,21.716463 C29.3850744,22.1506395 29.7033719,22.692 29.9197355,23.3254972 C30.1392231,23.9684858 30.2505289,24.7786167 30.2505289,25.7334345 C30.2505289,26.5684516 30.1465124,27.2946641 29.9414876,27.8919317 C29.6931901,28.615019 29.3363636,29.2059203 28.8810744,29.6481992 C28.5443802,29.9764649 28.0777521,30.2375958 27.4938017,30.4249943 C27.0539008,30.564241 26.4473884,30.6349639 25.6920826,30.6349639 L21.9633388,30.6349639 L21.9633388,20.6299222 L25.5766116,20.6299222 L25.5766116,20.6299222 Z M21.3848264,20.0511746 L21.3848264,31.2137116 L25.6920826,31.2137116 C26.5066281,31.2137116 27.1719174,31.1338444 27.6693223,30.976425 C28.3403967,30.7611309 28.8835041,30.4540474 29.2845289,30.0630455 C29.8053058,29.5572201 30.2104959,28.8899241 30.4886446,28.0800247 C30.7144959,27.4219886 30.8290413,26.6324611 30.8290413,25.7334345 C30.8290413,24.7148387 30.7072066,23.84174 30.467124,23.1384459 C30.2238017,22.4255446 29.8625785,21.8132296 29.393405,21.3181689 C28.917405,20.8160474 28.3379669,20.4616224 27.6710579,20.2650797 C27.1777025,20.1210873 26.4927438,20.0511746 25.5766116,20.0511746 L21.3848264,20.0511746 L21.3848264,20.0511746 Z" id="Fill-8" fill="#FFFFFF" sketch:type="MSShapeGroup"></path>
                    <path d="M24.769124,22.4240398 C25.8238678,22.4240398 26.2724463,22.4750854 26.4628926,22.517797 C26.8113884,22.5932657 27.098562,22.7362163 27.3188595,22.9435237 C27.5425124,23.1539564 27.721157,23.4577989 27.8499339,23.8466015 C27.9840331,24.2523036 28.0521818,24.8543169 28.0521818,25.6360892 C28.0521818,26.4200607 27.9833388,27.0423302 27.8478512,27.4858824 C27.7195372,27.9057059 27.5588264,28.2049184 27.3703471,28.3750702 C27.1780496,28.548463 26.9289421,28.674167 26.6299669,28.7485939 C26.3881488,28.8099412 25.976595,28.8408463 25.4054876,28.8408463 L24.0965455,28.8408463 L24.0965455,22.4240398 L24.769124,22.4240398 L24.769124,22.4240398 Z M23.5180331,21.8452922 L23.5180331,29.4195939 L25.4054876,29.4195939 C26.0331736,29.4195939 26.4799008,29.3837116 26.7708926,29.3098634 C27.1617355,29.2126338 27.4940331,29.042482 27.757719,28.8048482 C28.0289256,28.5601537 28.2393884,28.1840835 28.4010248,27.6549924 C28.5556033,27.1497457 28.6306942,26.4892789 28.6306942,25.6360892 C28.6306942,24.7805844 28.5549091,24.1357438 28.3990579,23.664759 C28.2398512,23.1835882 28.009719,22.7990683 27.7152562,22.5219639 C27.4173223,22.2416186 27.0379339,22.0501689 26.5875041,21.952592 C26.2665455,21.8804801 25.6710248,21.8452922 24.769124,21.8452922 L23.5180331,21.8452922 L23.5180331,21.8452922 Z" id="Fill-9" fill="#FFFFFF" sketch:type="MSShapeGroup"></path>
                    <path d="M32.9534545,30.9243378 L32.9534545,20.3405484 L40.785124,20.3405484 L40.785124,22.134666 L35.0867769,22.134666 L35.0867769,24.4785939 L40.3873388,24.4785939 L40.3873388,26.2727116 L35.0867769,26.2727116 L35.0867769,29.1302201 L40.9876033,29.1302201 L40.9876033,30.9243378 L32.9534545,30.9243378" id="Fill-10" fill="#FFFFFF" sketch:type="MSShapeGroup"></path>
                    <path d="M40.4958678,20.6299222 L40.4958678,21.8452922 L34.7975207,21.8452922 L34.7975207,24.7679677 L40.0980826,24.7679677 L40.0980826,25.9833378 L34.7975207,25.9833378 L34.7975207,29.4195939 L40.6983471,29.4195939 L40.6983471,30.6349639 L33.2427107,30.6349639 L33.2427107,20.6299222 L40.4958678,20.6299222 L40.4958678,20.6299222 Z M32.6641983,20.0511746 L32.6641983,31.2137116 L41.2768595,31.2137116 L41.2768595,28.8408463 L35.3760331,28.8408463 L35.3760331,26.5620854 L40.676595,26.5620854 L40.676595,24.1892201 L35.3760331,24.1892201 L35.3760331,22.4240398 L41.0743802,22.4240398 L41.0743802,20.0511746 L32.6641983,20.0511746 L32.6641983,20.0511746 Z" id="Fill-11" fill="#FFFFFF" sketch:type="MSShapeGroup"></path>
                    <path d="M49.0013884,26.7284175 L47.5430744,22.8074023 L46.1140331,26.7284175 L49.0013884,26.7284175 L49.0013884,26.7284175 Z M52.934,30.9243378 L50.6101157,30.9243378 L49.6869256,28.5225351 L45.460314,28.5225351 L44.5846777,30.9243378 L42.3182975,30.9243378 L46.4295537,20.3405484 L48.7032231,20.3405484 L52.934,30.9243378 L52.934,30.9243378 Z" id="Fill-12" fill="#FFFFFF" sketch:type="MSShapeGroup"></path>
                    <path d="M48.5074545,20.6299222 C48.642595,20.9679108 52.2181488,29.9128027 52.5068264,30.6349639 L50.8086612,30.6349639 C50.6872893,30.3190835 49.8855868,28.2331613 49.8855868,28.2331613 L45.2579504,28.2331613 C45.2579504,28.2331613 44.4998678,30.31237 44.382314,30.6349639 L42.7410744,30.6349639 C43.0198017,29.9174326 46.4942314,20.9727723 46.6275207,20.6299222 L48.5074545,20.6299222 L48.5074545,20.6299222 Z M46.2315868,20.0511746 L41.8956364,31.2137116 L44.7870413,31.2137116 C44.7870413,31.2137116 45.545124,29.1345028 45.6626777,28.8119089 L49.4882645,28.8119089 C49.6096364,29.1279051 50.4114545,31.2137116 50.4114545,31.2137116 L53.3612893,31.2137116 L48.8989917,20.0511746 L46.2315868,20.0511746 L46.2315868,20.0511746 Z" id="Fill-13" fill="#FFFFFF" sketch:type="MSShapeGroup"></path>
                    <path d="M47.5457355,23.6446186 C47.8627603,24.4969981 48.3988099,25.9380797 48.5852066,26.4390436 L46.5273223,26.4390436 C46.7092066,25.9401632 47.2346116,24.4986186 47.5457355,23.6446186 L47.5457355,23.6446186 Z M45.7007438,27.0177913 L49.417686,27.0177913 L47.5402975,21.970186 L45.7007438,27.0177913 L45.7007438,27.0177913 Z" id="Fill-14" fill="#FFFFFF" sketch:type="MSShapeGroup"></path>
                    <path d="M54.718595,30.9243378 L54.718595,20.4273605 L56.8519174,20.4273605 L56.8519174,29.1302201 L62.1669421,29.1302201 L62.1669421,30.9243378 L54.718595,30.9243378" id="Fill-15" fill="#FFFFFF" sketch:type="MSShapeGroup"></path>
                    <path d="M56.5626612,20.7167343 L56.5626612,29.4195939 L61.877686,29.4195939 L61.877686,30.6349639 L55.0078512,30.6349639 L55.0078512,20.7167343 L56.5626612,20.7167343 L56.5626612,20.7167343 Z M54.4293388,20.1379867 L54.4293388,31.2137116 L62.4561983,31.2137116 L62.4561983,28.8408463 L57.1411736,28.8408463 L57.1411736,20.1379867 L54.4293388,20.1379867 L54.4293388,20.1379867 Z" id="Fill-16" fill="#FFFFFF" sketch:type="MSShapeGroup"></path>
                </g>
            </g>
        </g>
    </g>
</svg>