<?xml version="1.0" encoding="UTF-8"?>
<svg width="120px" height="80px" viewBox="0 0 120 80" version="1.1" xmlns="http://www.w3.org/2000/svg" xmlns:xlink="http://www.w3.org/1999/xlink">
    <title>ideal copy</title>
    <g id="export-badges" stroke="none" stroke-width="1" fill="none" fill-rule="evenodd">
        <g id="production" transform="translate(-45.000000, -8932.000000)">
            <g id="ideal-copy" transform="translate(45.000000, 8932.000000)">
                <rect id="Rectangle-11" fill="#FFFFFF" x="0" y="0" width="120" height="80" rx="4"></rect>
                <g id="Group-39" transform="translate(15.000000, 0.000000)">
                    <path d="M0,5.93031875 L0,74.0696812 C0,77.3313566 2.67559621,80 5.94576936,80 L46.763476,80 C77.6220189,80 91,62.772424 91,39.9110452 C91,17.1682728 77.6220189,0 46.763476,0 L5.94576936,0 C2.67559621,0 0,2.66864344 0,5.93031875" id="Fill-1" fill="#FFFFFF"></path>
                    <path d="M27,16.7853231 L27,67 L48.7225162,67 C68.4462081,67 77,55.7918949 77,39.9408543 C77,24.769989 68.4462081,13 48.7225162,13 L30.7624927,13 C28.675485,13 27,14.7152245 27,16.7853231" id="Fill-3" fill="#CC0066"></path>
                    <path d="M46.25,5 C79.9702381,5 85,26.5791506 85,39.4259974 C85,61.7155727 71.2202381,74 46.25,74 L10.7142857,74 C7.55952381,74 5,71.4546075 5,68.3166023 L5,10.6833977 C5,7.54568855 7.55952381,5 10.7142857,5 L46.25,5 Z M46.25,6.89446589 L10.7142857,6.89446589 C8.60119048,6.89446589 6.9047619,8.58172458 6.9047619,10.6833977 L6.9047619,68.3166023 C6.9047619,70.4185714 8.60119048,72.1055341 10.7142857,72.1055341 L46.25,72.1055341 C70,72.1055341 83.0952381,60.5022265 83.0952381,39.4259974 C83.0952381,11.1274131 60,6.89446589 46.25,6.89446589 Z" id="Combined-Shape" fill="#000000"></path>
                    <path d="M17,48 C19.1971831,48 21,49.8532066 21,52.1767001 L21,67 L20.971831,67 C16.5492958,67 13,63.2647637 13,58.6765994 L13,52.1767001 C13,49.8826179 14.7746479,48 17,48 Z M17.5,34 C20.5376471,34 23,36.4626471 23,39.5 C23,42.5376471 20.5376471,45 17.5,45 C14.4623529,45 12,42.5376471 12,39.5 C12,36.4626471 14.4623529,34 17.5,34 Z" id="Combined-Shape" fill="#000000"></path>
                    <path d="M35.3156425,33 L35.3156425,33.0292618 C36.1145251,33.0292618 36.8519553,33.1477869 37.5586592,33.3842459 C38.2653631,33.6204094 38.849162,34.0049509 39.3715084,34.4778689 C39.8631285,34.9803443 40.2625698,35.6010493 40.5698324,36.3104264 C40.8463687,37.0493608 41,37.9062292 41,38.9114757 C41,39.798197 40.877095,40.5962462 40.6620112,41.3351807 C40.4162011,42.0741151 40.0782123,42.7240819 39.6173184,43.2564103 C39.1564246,43.7884431 38.5726257,44.2019508 37.8659218,44.5273775 C37.1592179,44.8229513 36.3296089,45 35.377095,45 L30,45 L30,33 L35.3156425,33 Z M34.6703911,35.2759181 L32.7039106,35.2759181 L32.7039106,42.842607 L35.1312849,42.842607 L35.1312849,42.8130496 C35.5307263,42.8130496 35.8994413,42.7539348 36.2988827,42.6354097 C36.6675978,42.5174758 37.0055866,42.3105742 37.2821229,42.0150004 C37.5586592,41.7194266 37.8044693,41.364738 37.9888268,40.89182 C38.1731844,40.4186064 38.2653631,39.8868691 38.2653631,39.2070494 C38.2653631,38.6159019 38.2039106,38.0540161 38.0810056,37.5813936 C37.9581006,37.1084756 37.7430168,36.6651149 37.4664804,36.3399837 C37.1899441,36.0148526 36.8212291,35.7192788 36.3603352,35.541639 C35.8994413,35.3645903 35.3463687,35.2759181 34.6703911,35.2759181 Z" id="Combined-Shape" fill="#FFFFFF"></path>
                    <path d="M60.4170854,33 L65,45 L62.1959799,45 L61.261608,42.3399015 L56.6786935,42.3399015 L55.7135678,45 L53,45 L57.6130653,33 L60.4170854,33 Z M59.0301508,35.955665 L59.0003015,35.955665 L57.4020101,40.3596059 L60.5678392,40.3596059 L59.0301508,35.955665 Z" id="Combined-Shape" fill="#FFFFFF"></path>
                    <polygon id="Fill-9" fill="#FFFFFF" points="50.8538961 33.0295567 50.8538961 35.2463054 44.6006494 35.2463054 44.6006494 37.817734 50.3571429 37.817734 50.3571429 39.8571429 44.6006494 39.8571429 44.6006494 42.7832512 51 42.7832512 51 45 42 45 42 33 50.8538961 33"></polygon>
                    <polygon id="Fill-13" fill="#FFFFFF" points="68.7907244 33 68.7907244 42.7833058 75 42.7833058 75 45 66 45 66 33"></polygon>
                </g>
            </g>
        </g>
    </g>
</svg>