<svg width="120" height="80" viewBox="0 0 120 80" fill="none" xmlns="http://www.w3.org/2000/svg">
<rect width="120" height="80" rx="4" fill="white"/>
<g clip-path="url(#clip0_804_15)">
<rect x="5" y="7" width="20" height="4" rx="2" fill="#707070"/>
<rect x="5" y="14" width="17" height="4" rx="2" fill="#707070"/>
<rect x="5" y="21" width="22" height="4" rx="2" fill="#707070"/>
</g>
<g clip-path="url(#clip1_804_15)">
<rect x="81" y="7" width="20" height="4" rx="2" fill="#707070"/>
<rect x="81" y="14" width="17" height="4" rx="2" fill="#707070"/>
<rect x="81" y="21" width="22" height="4" rx="2" fill="#707070"/>
</g>
<g clip-path="url(#clip2_804_15)">
<rect width="3" height="3" transform="translate(40 7)" fill="black"/>
<rect width="3" height="3" transform="translate(43 7)" fill="white"/>
<rect width="3" height="3" transform="translate(46 7)" fill="black"/>
<rect width="3" height="3" transform="translate(49 7)" fill="white"/>
<rect width="3" height="3" transform="translate(52 7)" fill="black"/>
<rect width="3" height="3" transform="translate(55 7)" fill="white"/>
<rect width="3" height="3" transform="translate(58 7)" fill="black"/>
<rect width="3" height="3" transform="translate(61 7)" fill="white"/>
<rect width="3" height="3" transform="translate(64 7)" fill="black"/>
<rect width="3" height="3" transform="translate(67 7)" fill="white"/>
<rect width="3" height="3" transform="translate(70 7)" fill="black"/>
<rect width="3" height="3" transform="translate(73 7)" fill="white"/>
<rect width="3" height="3" transform="translate(40 10)" fill="white"/>
<rect width="3" height="3" transform="translate(43 10)" fill="white"/>
<rect width="3" height="3" transform="translate(46 10)" fill="white"/>
<rect width="3" height="3" transform="translate(49 10)" fill="black"/>
<rect width="3" height="3" transform="translate(52 10)" fill="black"/>
<rect width="3" height="3" transform="translate(55 10)" fill="white"/>
<rect width="3" height="3" transform="translate(58 10)" fill="white"/>
<rect width="3" height="3" transform="translate(61 10)" fill="black"/>
<rect width="3" height="3" transform="translate(64 10)" fill="white"/>
<rect width="3" height="3" transform="translate(67 10)" fill="black"/>
<rect width="3" height="3" transform="translate(70 10)" fill="white"/>
<rect width="3" height="3" transform="translate(73 10)" fill="black"/>
<rect width="3" height="3" transform="translate(40 13)" fill="black"/>
<rect width="3" height="3" transform="translate(43 13)" fill="white"/>
<rect width="3" height="3" transform="translate(46 13)" fill="black"/>
<rect width="3" height="3" transform="translate(49 13)" fill="white"/>
<rect width="3" height="3" transform="translate(52 13)" fill="black"/>
<rect width="3" height="3" transform="translate(55 13)" fill="white"/>
<rect width="3" height="3" transform="translate(58 13)" fill="black"/>
<rect width="3" height="3" transform="translate(61 13)" fill="white"/>
<rect width="3" height="3" transform="translate(64 13)" fill="black"/>
<rect width="3" height="3" transform="translate(67 13)" fill="white"/>
<rect width="3" height="3" transform="translate(70 13)" fill="black"/>
<rect width="3" height="3" transform="translate(73 13)" fill="white"/>
<rect width="3" height="3" transform="translate(40 16)" fill="white"/>
<rect width="3" height="3" transform="translate(43 16)" fill="black"/>
<rect width="3" height="3" transform="translate(46 16)" fill="white"/>
<rect width="3" height="3" transform="translate(49 16)" fill="black"/>
<rect width="3" height="3" transform="translate(52 16)" fill="white"/>
<rect width="3" height="3" transform="translate(55 16)" fill="black"/>
<rect width="3" height="3" transform="translate(58 16)" fill="white"/>
<rect width="3" height="3" transform="translate(61 16)" fill="white"/>
<rect width="3" height="3" transform="translate(64 16)" fill="black"/>
<rect width="3" height="3" transform="translate(67 16)" fill="white"/>
<rect width="3" height="3" transform="translate(70 16)" fill="white"/>
<rect width="3" height="3" transform="translate(73 16)" fill="black"/>
<rect width="3" height="3" transform="translate(40 19)" fill="black"/>
<rect width="3" height="3" transform="translate(43 19)" fill="white"/>
<rect width="3" height="3" transform="translate(46 19)" fill="white"/>
<rect width="3" height="3" transform="translate(49 19)" fill="white"/>
<rect width="3" height="3" transform="translate(52 19)" fill="black"/>
<rect width="3" height="3" transform="translate(55 19)" fill="black"/>
<rect width="3" height="3" transform="translate(58 19)" fill="black"/>
<rect width="3" height="3" transform="translate(61 19)" fill="white"/>
<rect width="3" height="3" transform="translate(64 19)" fill="black"/>
<rect width="3" height="3" transform="translate(67 19)" fill="white"/>
<rect width="3" height="3" transform="translate(70 19)" fill="black"/>
<rect width="3" height="3" transform="translate(73 19)" fill="white"/>
<rect width="3" height="3" transform="translate(40 22)" fill="white"/>
<rect width="3" height="3" transform="translate(43 22)" fill="black"/>
<rect width="3" height="3" transform="translate(46 22)" fill="white"/>
<rect width="3" height="3" transform="translate(49 22)" fill="black"/>
<rect width="3" height="3" transform="translate(52 22)" fill="white"/>
<rect width="3" height="3" transform="translate(55 22)" fill="black"/>
<rect width="3" height="3" transform="translate(58 22)" fill="white"/>
<rect width="3" height="3" transform="translate(61 22)" fill="black"/>
<rect width="3" height="3" transform="translate(64 22)" fill="white"/>
<rect width="3" height="3" transform="translate(67 22)" fill="black"/>
<rect width="3" height="3" transform="translate(70 22)" fill="white"/>
<rect width="3" height="3" transform="translate(73 22)" fill="black"/>
<rect width="3" height="3" transform="translate(40 25)" fill="black"/>
<rect width="3" height="3" transform="translate(43 25)" fill="white"/>
<rect width="3" height="3" transform="translate(46 25)" fill="black"/>
<rect width="3" height="3" transform="translate(49 25)" fill="white"/>
<rect width="3" height="3" transform="translate(52 25)" fill="black"/>
<rect width="3" height="3" transform="translate(55 25)" fill="white"/>
<rect width="3" height="3" transform="translate(58 25)" fill="black"/>
<rect width="3" height="3" transform="translate(61 25)" fill="white"/>
<rect width="3" height="3" transform="translate(64 25)" fill="black"/>
<rect width="3" height="3" transform="translate(67 25)" fill="white"/>
<rect width="3" height="3" transform="translate(70 25)" fill="black"/>
<rect width="3" height="3" transform="translate(73 25)" fill="white"/>
<rect width="3" height="3" transform="translate(40 28)" fill="white"/>
<rect width="3" height="3" transform="translate(43 28)" fill="black"/>
<rect width="3" height="3" transform="translate(46 28)" fill="white"/>
<rect width="3" height="3" transform="translate(49 28)" fill="black"/>
<rect width="3" height="3" transform="translate(52 28)" fill="white"/>
<rect width="3" height="3" transform="translate(55 28)" fill="black"/>
<rect width="3" height="3" transform="translate(58 28)" fill="white"/>
<rect width="3" height="3" transform="translate(61 28)" fill="black"/>
<rect width="3" height="3" transform="translate(64 28)" fill="white"/>
<rect width="3" height="3" transform="translate(67 28)" fill="black"/>
<rect width="3" height="3" transform="translate(70 28)" fill="white"/>
<rect width="3" height="3" transform="translate(73 28)" fill="black"/>
</g>
<rect width="1" height="80" transform="translate(35)" fill="#707070"/>
<rect x="10" y="26" width="110" height="54" rx="4" fill="#FAEEDE"/>
<g clip-path="url(#clip3_804_15)">
<rect x="15" y="33" width="20" height="4" rx="2" fill="#707070"/>
<rect x="15" y="40" width="17" height="4" rx="2" fill="#707070"/>
<rect x="15" y="47" width="22" height="4" rx="2" fill="#707070"/>
</g>
<g clip-path="url(#clip4_804_15)">
<rect x="51" y="33" width="20" height="4" rx="2" fill="#707070"/>
<rect x="51" y="40" width="17" height="4" rx="2" fill="#707070"/>
<rect x="51" y="47" width="22" height="4" rx="2" fill="#707070"/>
</g>
<g clip-path="url(#clip5_804_15)">
<rect width="1" height="54" transform="translate(45 26)" fill="#F2A43A"/>
</g>
<circle cx="105" cy="41" r="7.25" stroke="#F2A43A" stroke-width="1.5"/>
<rect width="74" height="14" transform="translate(46 66)" fill="white"/>
<rect x="1.5" y="1.5" width="117" height="77" rx="2.5" stroke="black" stroke-opacity="0.08" stroke-width="3"/>
<defs>
<clipPath id="clip0_804_15">
<rect width="22" height="18" fill="white" transform="translate(5 7)"/>
</clipPath>
<clipPath id="clip1_804_15">
<rect width="22" height="18" fill="white" transform="translate(81 7)"/>
</clipPath>
<clipPath id="clip2_804_15">
<rect width="36" height="24" fill="white" transform="translate(40 7)"/>
</clipPath>
<clipPath id="clip3_804_15">
<rect width="22" height="18" fill="white" transform="translate(15 33)"/>
</clipPath>
<clipPath id="clip4_804_15">
<rect width="22" height="18" fill="white" transform="translate(51 33)"/>
</clipPath>
<clipPath id="clip5_804_15">
<rect width="1" height="54" fill="white" transform="translate(45 26)"/>
</clipPath>
</defs>
</svg>
