<?xml version="1.0" encoding="UTF-8" standalone="no"?>
<svg width="120px" height="80px" viewBox="0 0 120 80" version="1.1" xmlns="http://www.w3.org/2000/svg" xmlns:xlink="http://www.w3.org/1999/xlink" xmlns:sketch="http://www.bohemiancoding.com/sketch/ns">
    <!-- Generator: Sketch 3.3 (11970) - http://www.bohemiancoding.com/sketch -->
    <title>card_jcb v02</title>
    <desc>Created with Sketch.</desc>
    <defs>
        <linearGradient x1="0%" y1="43.2432432%" x2="100%" y2="43.2432443%" id="linearGradient-1">
            <stop stop-color="#1D2970" offset="0%"></stop>
            <stop stop-color="#006DBA" offset="100%"></stop>
        </linearGradient>
        <linearGradient x1="0%" y1="43.2432432%" x2="100%" y2="43.2432443%" id="linearGradient-2">
            <stop stop-color="#6F2B2F" offset="0%"></stop>
            <stop stop-color="#E30138" offset="100%"></stop>
        </linearGradient>
        <linearGradient x1="0%" y1="43.2432432%" x2="100%" y2="43.2432443%" id="linearGradient-3">
            <stop stop-color="#007B40" offset="0%"></stop>
            <stop stop-color="#55B330" offset="100%"></stop>
        </linearGradient>
    </defs>
    <g id="assets-various" stroke="none" stroke-width="1" fill="none" fill-rule="evenodd" sketch:type="MSPage">
        <g id="Artboard-2" sketch:type="MSArtboardGroup" transform="translate(-208.000000, -863.000000)">
            <g id="card_jcb-v02" sketch:type="MSLayerGroup" transform="translate(208.000000, 863.000000)">
                <rect id="Rectangle-11" fill="#FFFFFF" sketch:type="MSShapeGroup" x="0" y="0" width="120" height="80" rx="4"></rect>
                <g id="Group-Copy" transform="translate(20.000000, 9.000000)" sketch:type="MSShapeGroup">
                    <rect id="Rectangle-24" stroke="#979797" fill="url(#linearGradient-1)" x="4.5" y="4.01619433" width="22.25" height="53.7165992"></rect>
                    <rect id="Rectangle-24-Copy" stroke="#979797" fill="url(#linearGradient-2)" x="28.25" y="3.51417004" width="23.25" height="54.2186235"></rect>
                    <rect id="Rectangle-24-Copy-2" stroke="#979797" fill="url(#linearGradient-3)" x="52.5" y="4.01619433" width="23.25" height="53.9676113"></rect>
                    <path d="M79.9802185,49.2982834 C79.9802185,52.6608421 78.5964685,55.9292713 76.1854685,58.2629312 C73.8814685,60.4931741 70.7744685,61.7407045 67.5772185,61.7489879 C67.1997185,61.7499919 66.8219685,61.7489879 66.4442185,61.7489879 L63.4642185,61.7489879 L58.9409685,61.7489879 L53.2057185,61.7489879 L46.6059685,61.7489879 L39.4454685,61.7489879 L32.0197185,61.7489879 L24.7012185,61.7489879 L17.7854685,61.7489879 L11.5747185,61.7489879 L6.41721852,61.7489879 L2.64696852,61.7489879 L0.565968523,61.7489879 C0.521718523,61.7489879 0.292968523,61.7818704 0.258718523,61.7489879 C0.225218523,61.7166073 0.257468523,61.4791498 0.257468523,61.4342186 L0.257468523,58.8267045 L0.257468523,54.10617 L0.257468523,47.8757976 L0.257468523,40.7184372 L0.257468523,33.2663887 L0.257468523,26.1564696 L0.257468523,19.9712794 L0.257468523,15.3059676 L0.257468523,12.7971012 C0.257468523,10.7500972 0.662468523,8.75204049 1.58721852,6.91764372 C3.06571852,3.9845668 5.70071852,1.7091417 8.81471852,0.691036437 C10.1962185,0.239214575 11.6202185,0.0813279352 13.0649685,0.0813279352 L15.2944685,0.0813279352 L19.1869685,0.0813279352 L24.4414685,0.0813279352 L30.7229685,0.0813279352 L37.6829685,0.0813279352 L45.0199685,0.0813279352 L52.4379685,0.0813279352 L59.5882185,0.0813279352 L66.1262185,0.0813279352 L71.7552185,0.0813279352 L76.1667185,0.0813279352 L79.0157185,0.0813279352 L79.9802185,0.0813279352 L79.9802185,1.40391093 L79.9802185,5.00242105 L79.9802185,10.3017895 L79.9802185,16.7625911 L79.9802185,23.8619676 L79.9802185,31.0245992 L79.9802185,37.696753 L79.9802185,43.3071255 L79.9802185,47.3321053 C79.9802185,47.9631498 79.9797185,48.5939433 79.9802185,49.2249879 L79.9802185,49.2982834 M4.86921852,35.1816113 C4.71271852,35.1070607 4.71346852,35.1384372 4.68596852,35.0274899 C4.66921852,34.9612227 4.68596852,34.8665911 4.68596852,34.7985668 L4.68596852,33.9220324 L4.68596852,30.7678138 L4.68596852,21.6957328 L4.68596852,14.2509636 C4.68596852,13.7474332 4.67296852,13.2411417 4.69421852,12.7378623 C4.79946852,10.2598704 5.96546852,7.90035628 7.85646852,6.30818623 C9.20521852,5.17260729 10.8844685,4.45672065 12.6362185,4.278 C13.6704685,4.1725749 14.7332185,4.23206478 15.7719685,4.23206478 L21.1712185,4.23206478 L23.8597185,4.23206478 L25.2047185,4.23206478 L25.8877185,4.23206478 L26.2069685,4.23206478 C26.2554685,4.23206478 26.5034685,4.19792713 26.5354685,4.23206478 C26.5534685,4.25139271 26.5354685,4.37740081 26.5354685,4.402 L26.5354685,4.8814332 L26.5354685,6.69901215 L26.5354685,13.060413 L26.5354685,21.7075304 L26.5354685,31.1794737 L26.5354685,39.8757895 L26.5354685,46.2371903 C26.5354685,47.0595061 26.5389685,47.8818219 26.5354685,48.7041377 C26.5247185,51.1941781 25.4794685,53.5946073 23.6464685,55.2758866 C22.3259685,56.4867692 20.6404685,57.2827287 18.8667185,57.5184291 C17.7987185,57.660502 16.6992185,57.598502 15.6234685,57.598502 L12.9144685,57.598502 L7.53721852,57.598502 L4.85571852,57.598502 C4.68596852,57.598502 4.71821852,57.6338947 4.68596852,57.535498 C4.66371852,57.4679757 4.68596852,57.3550202 4.68596852,57.2849879 L4.68596852,56.3060405 L4.68596852,48.2513117 L4.68596852,40.2008502 L4.68596852,38.853919 C6.41321852,39.3218057 8.21221852,39.5866235 9.99046852,39.7648421 C11.7182185,39.9380405 13.4614685,40.0073198 15.1967185,39.9259919 C17.6229685,39.8120324 20.2812185,39.4259757 22.2807185,37.9412389 C23.1154685,37.3214899 23.7819685,36.5019352 24.1877185,35.5393036 C24.5757185,34.6195951 24.7117185,33.6233279 24.7132185,32.6303239 C24.7144685,31.7264291 24.7132185,30.8225344 24.7132185,29.9186397 L24.7132185,22.5002267 C24.7132185,22.402332 24.7289685,22.3983158 24.6707185,22.3636761 C24.6104685,22.3282834 24.4242185,22.3636761 24.3514685,22.3636761 L24.0099685,22.3636761 L22.7077185,22.3636761 L20.0837185,22.3636761 L17.4789685,22.3636761 C17.3809685,22.3636761 17.1344685,22.3252713 17.0952185,22.3955547 C17.0622185,22.4542915 17.0952185,22.6249798 17.0952185,22.691749 L17.0952185,24.0424453 L17.0952185,32.0655466 C17.0952185,32.2716275 17.0964685,32.4777085 17.0952185,32.6835385 C17.0864685,33.9062186 16.6754685,35.1153441 15.7517185,35.9449393 C14.5297185,37.0423644 12.8522185,37.1703806 11.2927185,37.0468826 C9.49771852,36.9043077 7.74721852,36.4093117 6.08621852,35.7237976 C5.67571852,35.5543644 5.27021852,35.3726316 4.86921852,35.1816113 M29.3769685,24.6187692 C29.3152185,24.6689717 29.2539685,24.7199271 29.1937185,24.7718866 L29.1937185,18.7488502 L29.1937185,14.7622753 C29.1937185,13.9946802 29.1614685,13.2152874 29.2192185,12.4491984 C29.5317185,8.29846154 32.8042185,4.83348988 36.9102185,4.30586235 C37.9082185,4.17759514 38.9339685,4.23231579 39.9387185,4.23231579 L42.4362185,4.23231579 L47.4942185,4.23231579 L50.0107185,4.23231579 L50.6302185,4.23231579 C50.6934685,4.23231579 51.0087185,4.19566802 51.0439685,4.23708502 C51.0652185,4.26193522 51.0439685,4.3999919 51.0439685,4.43111741 L51.0439685,7.73845344 L51.0439685,14.1475466 L51.0439685,22.4472632 L51.0439685,31.2778704 L51.0439685,39.4212065 L51.0439685,45.6161862 C51.0439685,46.6134575 51.0447185,47.6107287 51.0439685,48.608 C51.0412185,52.0046964 49.1497185,55.1712146 46.1064685,56.6813036 C44.7884685,57.3354413 43.3749685,57.598502 41.9129685,57.598502 L39.3854685,57.598502 L34.3497185,57.598502 L31.8299685,57.598502 L30.5719685,57.598502 L29.9317185,57.598502 C29.7279685,57.598502 29.4854685,57.6354008 29.2854685,57.598502 C29.1529685,57.5741538 29.2237185,57.6231012 29.1937185,57.5407692 C29.1744685,57.4883077 29.1937185,57.391668 29.1937185,57.3361943 L29.1937185,56.5266802 L29.1937185,53.5855709 L29.1937185,45.1382591 L29.1937185,38.1583644 L29.1937185,37.0624453 C30.6407185,38.3089717 32.4744685,39.0135628 34.3164685,39.4234656 C35.7137185,39.7342186 37.1442185,39.8820648 38.5732185,39.9360324 C39.9727185,39.9887449 41.3822185,39.9641457 42.7774685,39.8388907 C44.2032185,39.7106235 45.6204685,39.4857166 47.0232185,39.2023239 C47.3802185,39.1302834 47.7364685,39.0539757 48.0917185,38.9726478 C48.1789685,38.9525668 48.5337185,38.9234494 48.5812185,38.8551741 C48.6164685,38.8044696 48.5812185,38.6031579 48.5812185,38.54417 L48.5812185,35.3630931 L48.5812185,35.0935061 C47.0622185,35.8545749 45.4707185,36.4612713 43.8019685,36.7926073 C41.7672185,37.1964858 39.5134685,37.3091903 37.5709685,36.4718138 C35.6049685,35.6241457 34.4372185,33.8063158 34.2419685,31.6862672 C34.0414685,29.5072308 34.6909685,27.2159919 36.5467185,25.9250364 C38.4694685,24.5873927 40.9889685,24.5773522 43.2154685,24.9305263 C44.8727185,25.193336 46.4694685,25.7274899 47.9842185,26.4463887 C48.1844685,26.5415223 48.3834685,26.639668 48.5812185,26.7395709 L48.5812185,23.9879757 L48.5812185,23.2866478 C48.5812185,23.2324291 48.6157185,23.0215789 48.5812185,22.9766478 C48.5262185,22.9048583 48.1847185,22.8792551 48.0917185,22.857919 C47.9174685,22.8180081 47.7432185,22.7796032 47.5684685,22.7419514 C46.1762185,22.4424939 44.7687185,22.2032794 43.3529685,22.0499109 C41.9652185,21.8995547 40.5659685,21.8528664 39.1704685,21.8794737 C37.7524685,21.906834 36.3312185,22.0205425 34.9359685,22.2828502 C33.2089685,22.6074089 31.4877185,23.1593846 30.0169685,24.1463644 C29.7967185,24.2942105 29.5829685,24.4518462 29.3769685,24.6187692 M58.0317185,31.9965182 L61.4099685,31.9965182 C61.9759685,31.9965182 62.5424685,31.992251 63.1084685,31.9965182 C63.7382185,32.0012874 64.3307185,32.1594251 64.8082185,32.5896599 C65.3982185,33.1208016 65.6627185,33.9313198 65.5462185,34.7139757 C65.4444685,35.3987368 65.0394685,36.0134656 64.4449685,36.3653846 C63.9557185,36.6553036 63.4262185,36.6889393 62.8742185,36.6889393 L61.1757185,36.6889393 L59.4864685,36.6889393 L58.6314685,36.6889393 C58.4972185,36.6889393 58.0772185,36.745668 58.0317185,36.6452632 C58.0017185,36.578996 58.0317185,36.4271336 58.0317185,36.3550931 L58.0317185,35.8500567 L58.0317185,34.4674818 L58.0317185,32.1260405 L58.0317185,31.9965182 L58.0317185,31.9965182 Z M64.9154685,26.6856032 C65.0697185,27.3929555 64.8882185,28.1633117 64.3812185,28.6874251 C63.9334685,29.1502915 63.3232185,29.3390526 62.6927185,29.3505992 C62.1839685,29.3598866 61.6739685,29.3505992 61.1652185,29.3505992 L59.6152185,29.3505992 L58.8349685,29.3505992 L58.4297185,29.3505992 C58.3562185,29.3505992 58.1109685,29.3915142 58.0542185,29.3505992 C57.9879685,29.3029069 58.0317185,28.9783482 58.0317185,28.8839676 L58.0317185,27.7541619 L58.0317185,25.336664 C58.0317185,25.2691417 58.0042185,25.130332 58.0317185,25.0675789 C58.0627185,24.9972955 58.0794685,25.0203887 58.1842185,25.0203887 L58.9537185,25.0203887 L60.5334685,25.0203887 L62.0832185,25.0203887 C62.3714685,25.0203887 62.6617185,25.0095951 62.9492185,25.0331903 C63.5547185,25.0823887 64.1257185,25.3484615 64.5097185,25.8291498 C64.7097185,26.0796599 64.8449685,26.3728421 64.9154685,26.6856032 L64.9154685,26.6856032 Z M75.5172185,4.23206478 L75.5522185,4.23206478 L75.5522185,5.25443725 L75.5522185,8.05924696 L75.5522185,12.234081 L75.5522185,17.422251 L75.5522185,23.1910121 L75.5522185,29.1974818 L75.5522185,35.0257328 L75.5522185,40.2623482 L75.5522185,44.5599271 L75.5522185,47.493004 C75.5522185,47.8936194 75.5537185,48.2944858 75.5522185,48.6951012 C75.5409685,51.5024211 74.2129685,54.1729393 71.9689685,55.8494494 C70.3274685,57.0758947 68.4012185,57.598502 66.3797185,57.598502 L62.9594685,57.598502 L59.5504685,57.598502 L56.1304685,57.598502 L54.4204685,57.598502 C54.3122185,57.598502 53.7587185,57.6635142 53.7009685,57.5939838 C53.6774685,57.5656194 53.7009685,57.4162672 53.7009685,57.3813765 L53.7009685,54.0183158 L53.7009685,48.3564858 L53.7009685,42.7835142 L53.7009685,39.6059514 C53.7009685,39.5060486 53.6794685,39.4957571 53.7487185,39.4656356 C53.8534685,39.4199514 54.0887185,39.4656356 54.2052185,39.4656356 L54.6327185,39.4656356 L56.3427185,39.4656356 L59.7627185,39.4656356 L63.1622185,39.4656356 L66.5822185,39.4656356 C67.2169685,39.4656356 67.8527185,39.4811984 68.4837185,39.4016275 C69.7454685,39.2424858 71.0179685,38.7718381 71.9259685,37.8506235 C73.0749685,36.6851741 73.4267185,34.8259271 72.6957185,33.3406883 C72.0692185,32.0683077 70.7739685,31.3069879 69.4464685,30.9610931 C69.0334685,30.8534089 68.6109685,30.7828745 68.1862185,30.7439676 C68.1579685,30.7412065 68.0172185,30.7482348 67.9997185,30.7284049 C67.9204685,30.6395466 68.0624685,30.6219757 68.1007185,30.6096761 C68.3679685,30.5235789 68.6622185,30.5007368 68.9334685,30.4181538 C70.3264685,29.9939433 71.5304685,28.9964211 71.9069685,27.5413036 C72.2962185,26.0374899 71.7777185,24.4315142 70.5367185,23.497247 C69.6472185,22.8275466 68.5327185,22.5185506 67.4372185,22.4214089 C66.3202185,22.3222591 65.1912185,22.3636761 64.0709685,22.3636761 L60.6622185,22.3636761 L57.2419685,22.3636761 L53.8374685,22.3636761 C53.6459685,22.3636761 53.7009685,22.3112146 53.7009685,22.133247 L53.7009685,21.3771984 L53.7009685,18.8648178 L53.7009685,13.6656032 C53.7009685,12.8591012 53.7267185,12.0611336 53.8954685,11.2671822 C54.2227185,9.7257166 54.9642185,8.287417 56.0229685,7.12447773 C57.4812185,5.52226721 59.5137185,4.49311741 61.6659685,4.27674494 C62.9119685,4.15148988 64.1984685,4.23231579 65.4502185,4.23231579 L68.8592185,4.23231579 L72.2792185,4.23231579 C73.3584685,4.23231579 74.4379685,4.23357085 75.5172185,4.23206478 L75.5172185,4.23206478 Z" id="Fill-1" fill="#FFFFFF"></path>
                </g>
            </g>
        </g>
    </g>
</svg>