<?xml version="1.0" encoding="UTF-8"?>
<svg width="120px" height="80px" viewBox="0 0 120 80" version="1.1" xmlns="http://www.w3.org/2000/svg" xmlns:xlink="http://www.w3.org/1999/xlink">
    <!-- Generator: Sketch 55.2 (78181) - https://sketchapp.com -->
    <title>card_klarna</title>
    <desc>Created with Sketch.</desc>
    <g id="export-badges" stroke="none" stroke-width="1" fill="none" fill-rule="evenodd">
        <g id="production" transform="translate(-36.000000, -7917.000000)">
            <g id="card_klarna" transform="translate(36.000000, 7917.000000)">
                <rect id="Rectangle-11" fill="#FEB3C7" x="0" y="0" width="120" height="80" rx="4"></rect>
                <g id="klarna" transform="translate(17.000000, 30.000000)" fill="#000000">
                    <path d="M18.6524659,19.4190345 L22.8927229,19.4190345 L22.8927229,6.89655172e-05 L18.6524659,6.89655172e-05 L18.6524659,19.4190345 Z M45.502008,8.19006897 L45.502008,6.45317241 L45.4486426,6.45317241 L45.4486426,6.45248276 L41.7480482,6.45248276 L41.7480482,6.45317241 L41.540241,6.45317241 L41.540241,19.4190345 L45.5504257,19.4190345 L45.5504257,12.6238621 C45.5504257,10.6521379 47.8295904,9.78731034 49.3937992,10.2245517 C49.4093494,10.2290345 49.4248996,10.2262759 49.4411566,10.2262759 L49.4411566,6.45351724 C47.7991968,6.45351724 46.2897671,7.14972414 45.502008,8.19006897 L45.502008,8.19006897 Z M31.8616546,16.415931 C29.7842892,16.415931 28.1006265,14.858 28.1006265,12.935931 C28.1006265,11.0138621 29.7842892,9.45593103 31.8616546,9.45593103 C33.9386667,9.45593103 35.6226827,11.0138621 35.6226827,12.935931 C35.6226827,14.858 33.9386667,16.415931 31.8616546,16.415931 L31.8616546,16.415931 Z M35.5848675,7.35144828 C34.4408675,6.56041379 33.0445301,6.09386207 31.5358072,6.09386207 C27.6631004,6.09386207 24.5237269,9.15731034 24.5237269,12.935931 C24.5237269,16.7145517 27.6631004,19.778 31.5358072,19.778 C33.0445301,19.778 34.4408675,19.3114483 35.5848675,18.5207586 L35.5848675,19.4190345 L39.0486747,19.4190345 L39.0486747,6.45317241 L35.5848675,6.45317241 L35.5848675,7.35144828 Z M59.3568835,6.10386207 C57.7672289,6.10386207 56.2631004,6.58524138 55.2576386,7.91351724 L55.2576386,6.45317241 L55.2042731,6.45317241 L55.2042731,6.45248276 L51.5036787,6.45248276 L51.5036787,6.45317241 L51.2958715,6.45317241 L51.2958715,19.4190345 L55.3060562,19.4190345 L55.3060562,12.3269655 C55.3060562,10.3552414 56.6613976,9.38972414 58.2931084,9.38972414 C60.0417992,9.38972414 61.0469076,10.4090345 61.0469076,12.300069 L61.0469076,19.4190345 L65.0210442,19.4190345 L65.0210442,11.1735172 C65.0210442,8.15558621 62.561992,6.10386207 59.3568835,6.10386207 L59.3568835,6.10386207 Z M85.1762249,14.8197241 C83.7968514,14.8197241 82.6786506,15.9107586 82.6786506,17.2566207 C82.6786506,18.6021379 83.7968514,19.6931724 85.1762249,19.6931724 C86.555245,19.6931724 87.6734458,18.6021379 87.6734458,17.2566207 C87.6734458,15.9107586 86.555245,14.8197241 85.1762249,14.8197241 L85.1762249,14.8197241 Z M73.7648514,16.415931 C71.6874859,16.415931 70.0038233,14.858 70.0038233,12.935931 C70.0038233,11.0138621 71.6874859,9.45593103 73.7648514,9.45593103 C75.8418635,9.45593103 77.5255261,11.0138621 77.5255261,12.935931 C77.5255261,14.858 75.8418635,16.415931 73.7648514,16.415931 L73.7648514,16.415931 Z M77.4880643,7.35144828 C76.3440643,6.56041379 74.9477269,6.09386207 73.439004,6.09386207 C69.5662972,6.09386207 66.4265703,9.15731034 66.4265703,12.935931 C66.4265703,16.7145517 69.5662972,19.778 73.439004,19.778 C74.9477269,19.778 76.3440643,19.3114483 77.4880643,18.5207586 L77.4880643,19.4190345 L80.9515181,19.4190345 L80.9515181,6.45317241 L77.4880643,6.45317241 L77.4880643,7.35144828 Z M83.4699438,6.68972414 L83.663261,6.68972414 C83.7844819,6.68972414 83.8360803,6.74731034 83.8360803,6.83558621 C83.8360803,6.92351724 83.802506,6.98903448 83.663261,6.98903448 L83.4699438,6.98903448 L83.4699438,6.68972414 Z M83.4727711,7.14731034 L83.6657349,7.14731034 L83.8283052,7.50937931 L84.0216225,7.50937931 L83.8410281,7.11696552 C83.9573012,7.06696552 84.0163213,6.96868966 84.0163213,6.83558621 C84.0163213,6.6517931 83.8721285,6.52868966 83.663261,6.52868966 L83.2946506,6.52868966 L83.2946506,7.50696552 L83.4727711,7.50696552 L83.4727711,7.14731034 Z M0,19.4190345 L4.41979116,19.4190345 L4.41979116,6.89655172e-05 L0,6.89655172e-05 L0,19.4190345 Z M15.7636627,0.00179310345 L11.4725141,0.00179310345 C11.3848675,4.38558621 8.78939759,8.16972414 5.02660241,10.0424828 L11.620241,19.4190345 L17.0041446,19.4190345 L11.0106024,10.890069 C14.0033092,8.02558621 15.7032289,4.1642069 15.7636627,0.00179310345 L15.7636627,0.00179310345 Z M83.6194378,6.28213793 C84.0396466,6.28213793 84.3799839,6.61937931 84.3799839,7.0342069 C84.3799839,7.44903448 84.0396466,7.78593103 83.6194378,7.78593103 C83.1995823,7.78593103 82.859245,7.44903448 82.859245,7.0342069 C82.859245,6.61937931 83.1995823,6.28213793 83.6194378,6.28213793 L83.6194378,6.28213793 Z M83.6194378,7.96455172 C84.1400161,7.96455172 84.5626988,7.54696552 84.5626988,7.0342069 C84.5626988,6.52110345 84.1400161,6.10386207 83.6194378,6.10386207 C83.0988594,6.10386207 82.6786506,6.52110345 82.6786506,7.0342069 C82.6786506,7.54696552 83.0988594,7.96455172 83.6194378,7.96455172 L83.6194378,7.96455172 Z" id="Shape"></path>
                </g>
            </g>
        </g>
    </g>
</svg>