<?xml version="1.0" encoding="UTF-8"?>
<svg width="120px" height="80px" viewBox="0 0 120 80" version="1.1" xmlns="http://www.w3.org/2000/svg" xmlns:xlink="http://www.w3.org/1999/xlink">
    <title>Lunch-Check</title>
    <g id="Page-1" stroke="none" stroke-width="1" fill="none" fill-rule="evenodd">
        <g id="lunch-check" fill-rule="nonzero">
            <rect id="Background" fill="#FFFFFE" x="0" y="0" width="120" height="80" rx="4"></rect>
            <g id="Text" transform="translate(32.800000, 65.100000)" fill="#000000">
                <polygon id="Path" points="55.8 6.3 54.1 3.6 53.3 3.6 53.3 6.3 52.2 6.3 52.2 0.1 53.3 0.1 53.3 2.6 54.1 2.6 55.8 0.1 57.1 0.1 55.1 3 57.2 6.3"></polygon>
                <path d="M51.1,1.3 C50.8,1.2 50.3,1.1 49.9,1.1 C48.7,1.1 48.2,1.6 48.2,3.2 C48.2,4.9 48.7,5.4 49.9,5.4 C50.4,5.4 50.8,5.3 51.1,5.1 L51.2,6 C50.8,6.2 50.2,6.3 49.7,6.3 C47.8,6.3 47,5.3 47,3.1 C47,1 47.9,-3.55271368e-15 49.8,-3.55271368e-15 C50.3,-3.55271368e-15 50.9,0.1 51.2,0.3 L51.1,1.3 Z" id="Path"></path>
                <polygon id="Path" points="46.3 5.3 46.3 6.3 42.2 6.3 42.2 0.1 46.2 0.1 46.2 1.1 43.4 1.1 43.4 2.6 45.8 2.6 45.8 3.5 43.4 3.5 43.4 5.3"></polygon>
                <polygon id="Path" points="39.7 6.3 39.7 3.6 37.2 3.6 37.2 6.3 36.1 6.3 36.1 0.1 37.2 0.1 37.2 2.6 39.7 2.6 39.7 0.1 40.9 0.1 40.9 6.3"></polygon>
                <path d="M35,1.3 C34.7,1.2 34.2,1.1 33.8,1.1 C32.6,1.1 32.1,1.6 32.1,3.2 C32.1,4.9 32.6,5.4 33.8,5.4 C34.3,5.4 34.7,5.3 35,5.1 L35.1,6 C34.7,6.2 34.1,6.3 33.6,6.3 C31.7,6.3 30.9,5.3 30.9,3.1 C30.9,1 31.8,-3.55271368e-15 33.7,-3.55271368e-15 C34.2,-3.55271368e-15 34.8,0.1 35.1,0.3 L35,1.3 Z" id="Path"></path>
                <rect id="Rectangle" x="27.7" y="3.1" width="2.3" height="1"></rect>
                <polygon id="Path" points="25.4 6.3 25.4 3.6 22.9 3.6 22.9 6.3 21.7 6.3 21.7 0.1 22.9 0.1 22.9 2.6 25.4 2.6 25.4 0.1 26.5 0.1 26.5 6.3"></polygon>
                <path d="M20.6,1.3 C20.3,1.2 19.8,1.1 19.3,1.1 C18.1,1.1 17.6,1.6 17.6,3.2 C17.6,4.9 18.1,5.4 19.3,5.4 C19.8,5.4 20.2,5.3 20.5,5.1 L20.6,6 C20.2,6.2 19.6,6.3 19.1,6.3 C17.2,6.3 16.4,5.3 16.4,3.1 C16.4,1 17.3,-3.55271368e-15 19.2,-3.55271368e-15 C19.7,-3.55271368e-15 20.3,0.1 20.6,0.3 L20.6,1.3 Z" id="Path"></path>
                <polygon id="Path" points="14.6 6.3 12 2.5 11.6 1.9 11.6 2 11.6 2.6 11.6 6.3 10.6 6.3 10.6 0.1 11.6 0.1 14.1 3.7 14.4 4.2 14.5 4.2 14.4 3.6 14.4 0.1 15.4 0.1 15.4 6.3"></polygon>
                <path d="M9.4,4 C9.4,5.6 8.6,6.3 7,6.3 C5.4,6.3 4.6,5.6 4.6,4 L4.6,1.42108547e-14 L5.7,1.42108547e-14 L5.7,4 C5.7,4.9 6.1,5.3 7,5.3 C7.9,5.3 8.3,4.9 8.3,4 L8.3,1.42108547e-14 L9.4,1.42108547e-14 L9.4,4 L9.4,4 Z" id="Path"></path>
                <polygon id="Path" points="3.8 5.2 3.8 6.3 7.10542736e-15 6.3 7.10542736e-15 0.1 1.1 0.1 1.1 5.2"></polygon>
            </g>
            <g id="Image" transform="translate(32.000000, 9.000000)">
                <path d="M1.1,11.8 C1.1,11.4 1.1,11 1.1,10.6 C1.1,7.6 1.1,4.7 1.1,1.7 C1.1,1.5 1.1,1.2 1.1,1 C19.5,1 37.9,1 56.3,1 C56.8,1 56.8,0.8 56.9,1.6 C57,10.1 56.9,18.6 56.9,27 C56.7,27.1 56.5,27.2 56.4,27.5 C56.4,27.5 56.3,27.6 56.3,27.6 C55.8,27.7 55.4,27.5 55,27.5 C54.6,27.7 54.7,28 54.8,28.3 C55,28.9 54.8,29.3 54.1,29.4 C53.7,29.5 53.2,29.6 52.7,29.7 C51.7,29.9 50.7,30.1 49.9,30.7 C49.3,31.2 48.5,31.4 47.8,31.3 C46.5,31.3 45.3,31.2 44,31.4 C43.9,31.4 43.9,31.4 43.8,31.4 C43.7,31.6 43.9,31.5 43.9,31.6 C44.1,31.7 44.4,31.8 44.7,31.9 C44.9,32 45.2,32 45.4,32 C47,32.2 48.5,32.1 49.8,31 C50.4,30.4 51.2,30 52,29.9 C52.6,29.8 52.7,29.9 52.7,30.5 C52.7,30.8 52.7,31 52.8,31.2 C53.2,31.7 53.2,32.3 53.4,32.8 C53.4,32.9 53.5,33 53.4,33.1 C53,33.9 53.5,34.7 53.4,35.5 C53.4,35.6 53.4,35.7 53.5,35.8 C54.2,37.1 53.9,38.6 54.2,39.9 C54.3,40.1 54.2,40.4 54.1,40.6 C53.8,41.1 53.9,41.6 54,42.1 C54.1,42.5 54.2,43 54.3,43.4 C54.3,43.5 54.3,43.5 54.3,43.6 C54,44.1 53.6,44.2 53.1,43.9 C52,43.4 50.9,42.9 49.9,42.2 C49.3,41.8 48.7,41.5 48.2,41.1 C47.5,40.5 47.1,39.9 47.2,39 C47.3,38.3 46.8,37.9 46.5,37.4 C44.9,35 43,32.8 40.3,31.4 C40,31.3 39.7,31.1 39.6,30.8 C39.6,30.7 39.6,30.5 39.6,30.4 C39.8,29.8 40,29.2 40,28.6 C40,27.9 40.3,27.2 40.6,26.6 C40.7,26.4 40.8,26.2 40.9,25.9 C41.1,25.1 41.3,24.4 41.3,23.6 C41.3,23.5 41.3,23.4 41.4,23.3 C41.9,22.9 42.1,22.4 41.9,21.6 C41.7,21 41.9,20.3 42,19.6 C42.1,19.3 42.6,19.2 42.4,18.8 C42.4,18.4 42.6,18.1 42.8,17.9 C43.4,17.5 43.4,17.4 43,16.7 C42.8,16.1 42.6,15.4 42.7,14.8 C42.9,14.5 42.8,14.1 42.8,13.7 C42.8,12.5 43.2,11.4 43.6,10.3 C43.7,10 43.7,9.6 43.3,9.5 C42.1,9.1 41.4,8.2 40.4,7.5 C38.4,6 36.2,5.2 33.7,5 C33.6,5 33.7,5 33.6,5 C31.5,5.3 29.5,5.8 27.7,7.1 C27.1,7.6 26.7,8.3 26.3,8.9 C26,10 25.6,11 25.1,11.9 C24.5,13.2 24.2,14.6 24.4,16 C24.6,17.2 24.4,18.4 24.5,19.5 C24.6,20.5 25.1,21.3 25.2,22.2 C25.2,22.3 25.3,22.3 25.3,22.4 C26.5,23.7 26.4,25.3 26,26.9 C25.9,27.4 25.6,27.6 25.1,27.5 C24.7,27.5 24.3,27.3 24,27.8 C23.6,28.3 23.2,28.7 22.6,29 C22.4,28.9 22.3,29.1 22.2,29.2 C22,29.6 21.7,29.8 21.5,30.2 C21,30.8 20.5,31.3 19.7,31.5 C19.4,31.6 19.1,31.7 18.7,31.9 C18.4,32 18.2,32.1 17.9,32.2 C17.5,32.4 17.2,32.5 16.8,32.7 C16.6,32.8 16.4,32.7 16.3,32.8 C16.2,32.9 16.1,33 16,33.1 C15.9,33.2 15.7,33.2 15.6,33.2 C15,33.1 14.7,32.5 14.2,32.3 C14.1,32.2 14,32.1 13.9,32.1 C13.6,31.9 13.6,31.7 13.9,31.5 C14.6,31.1 15.1,30.4 15.7,29.9 C15.8,29.8 15.9,29.6 15.9,29.5 C15.9,29.4 16,29.2 16.1,29.1 C16.5,28.2 16.7,28.1 17.3,28.6 C17.2,28.9 17.2,28.9 17,29.2 C17.1,29.1 17.2,29 17.3,28.8 C17.5,28.6 17.6,28.2 17.7,27.9 C17.8,27.6 17.8,27.3 18.1,27.1 C18.2,27 18.3,27 18.4,27 C19,26.7 19.1,26.2 19,25.7 C18.9,25.1 19,24.5 18.9,23.8 C18.8,22.9 19.3,22.5 19.9,22.2 C21.3,21.5 22,20.3 22.5,18.9 C22.6,18.7 22.6,18.5 22.5,18.2 C22.3,17.1 22.4,16 22.6,14.9 C22.9,13.3 22.9,11.8 22.4,10.3 C22.4,10.2 22.4,10.2 22.4,10.1 C22.3,9 22,7.9 21,7.1 C20.8,6.9 20.6,6.7 20.6,6.4 C20.4,5.2 19.6,4.7 18.6,4.3 C17.9,4.1 17.2,3.8 16.6,3.5 C16,3.2 15.4,3.2 14.8,3 C14.5,2.8 14.1,2.8 13.7,2.6 C13,2.4 12.4,2.4 11.8,2.8 C11.8,2.8 11.7,2.8 11.6,2.8 C11.4,2.7 11.1,2.6 11,3 C11,3.3 11,3.3 10.9,3.3 C9.9,3.5 9,3.9 8.2,4.5 C7.8,4.8 7.2,4.9 6.6,4.9 C5.8,4.9 5.2,5.1 4.9,5.9 C4.8,6.1 4.7,6.2 4.5,6.3 C4.2,6.5 4,6.8 3.9,7.1 C3.8,7.4 3.6,7.6 3.3,7.7 C2.4,8.1 1.9,8.8 2,9.8 C2,10 2,10.2 2,10.5 C2,10.6 2.1,10.8 2,11 C1.9,11.1 1.8,11.3 1.7,11.4 C1.5,11.5 1.4,11.8 1.1,11.8" id="Path" fill="#0092D8"></path>
                <path d="M1,51 C1,43.9 1,36.8 1,29.8 C1,29.4 0.9,28.8 1.2,28.8 C1.5,28.8 1.5,28.6 1.9,28.6 C2.2,28.6 2.5,28.7 2.8,28.8 C3,28.9 3.2,29 3.4,29.1 C3.6,29.2 3.8,29.3 3.9,29.4 C4.2,29.6 4.5,29.7 4.8,29.9 C5,30 5.1,30.1 5.3,30.3 C5.6,30.5 5.8,30.9 6.1,31.1 C6.3,31.2 6.5,31.4 6.7,31.5 C6.7,31.5 6.8,31.6 6.8,31.6 C7,31.9 7.4,32.2 7.6,32.5 C7.7,32.6 7.9,32.8 8,32.9 C8.2,33.2 8.4,33.5 8.7,33.7 C9,34 9.2,34.3 9.4,34.7 C9.5,34.9 9.6,35 9.7,35.2 C9.9,35.4 10,35.7 10.2,35.9 C10.4,36.1 10.5,36.4 10.8,36.6 C11,36.9 11.3,37.2 11.3,37.5 C11.4,37.8 11.6,38.1 11.8,38.3 C12.4,39 13,39.8 13.4,40.7 C13.5,40.8 13.6,41 13.8,40.9 C14,40.8 13.9,40.7 13.9,40.5 C13.9,39.5 13.8,38.5 13.6,37.5 C13.5,36.9 13.5,36.3 13.3,35.7 C13.2,34.7 13,33.7 12.8,32.7 C12.7,32.4 12.6,32.1 12.9,31.9 C13.2,31.7 13.4,32 13.7,32.1 C13.8,32.2 14,32.3 14.1,32.4 C15,32.9 15.7,33.6 16.6,34.1 C16.7,34.2 16.8,34.2 16.9,34.3 C17,34.4 17.1,34.6 17.2,34.8 C17.4,34.9 17.4,35.2 17.7,35.2 C17.8,35.3 17.8,35.4 17.9,35.5 C18,35.8 18.1,36 18.3,36.3 C18.4,36.4 18.4,36.5 18.4,36.6 C18.4,36.8 18.5,36.9 18.6,37 C18.7,37.1 18.8,37.3 18.8,37.4 C18.8,37.6 18.9,37.8 18.9,38 C18.9,38.1 19,38.2 19,38.4 C19,38.5 19.1,38.6 19.1,38.8 C19.2,38.9 19.2,39.1 19.3,39.3 C19.4,39.6 19.5,40 19.7,40.2 C19.7,40.2 19.7,40.3 19.7,40.4 C19.7,40.9 19.9,41.3 20.1,41.7 C20.2,41.9 20.2,42.2 20.4,42.4 C20.5,42.5 20.5,42.6 20.5,42.7 C20.5,42.9 20.6,43.1 20.7,43.3 C21,44.3 21.5,45.4 21.9,46.4 C22,46.8 21.9,47.1 21.8,47.5 C21.8,47.8 21.6,48.1 21.4,48.4 C20.9,49 20.5,49.7 20.1,50.3 C19.9,50.7 19.6,51.1 19.2,51.4 L1,51.4 L1,51 Z" id="Path" fill="#E83C3A"></path>
                <path d="M39.6,30.9 C40.2,31.5 41,31.7 41.6,32.2 C42.7,33.1 43.8,33.9 44.7,35.1 C45.5,36.1 46.3,37.1 46.9,38.2 C47,38.4 47.2,38.7 47.1,38.9 C47,40 47.5,40.8 48.4,41.4 C49.9,42.4 51.3,43.3 53,44 C53.4,44.2 53.7,44.1 53.9,43.7 C54.3,44 54.3,44.4 54.2,44.9 C54,45.5 54,46.2 54,46.9 C54,47.5 54.3,48.1 54.6,48.6 C54.9,49.2 55.3,49.8 55.8,50.5 C55.3,49.8 54.9,49.2 54.6,48.5 C54.2,47.7 53.9,46.9 54.1,46 C54.1,45.8 54.1,45.5 54.4,45.5 C54.7,45.5 54.7,45.8 54.8,46 C55.1,46.7 55.4,47.4 55.8,48 C55.9,48.1 56,48.3 55.9,48.4 C55.5,48.8 55.9,49.1 56.1,49.3 C56.3,49.5 56.4,49.8 56.5,50 C56.5,50.4 56.6,50.9 56.5,51 C56.3,51.2 55.8,51 55.5,51 L54.9,51 C54.9,51 54.8,50.9 54.8,50.9 C54.6,50.3 54.2,49.7 53.9,49.1 C53.8,48.7 53.7,48.3 53.5,48 C53.5,47.9 53.4,47.8 53.4,47.6 C53.2,47.1 53.4,46.7 53.3,46.2 C53.3,46.2 53.3,46.2 53.3,46.2 C53.3,46.2 53.3,46.2 53.3,46.2 C53.3,46.5 53.3,46.9 53.1,47.2 C52.8,47.6 52.3,47.8 51.9,48.1 C51.5,48.5 50.9,48 50.6,48.4 C51.6,48.5 51.7,49 51.1,50.3 C51.4,49.6 51.8,49.3 52.1,49.5 C52.3,49.6 52.5,50.3 52.4,50.8 C52.4,50.9 52.3,50.9 52.3,51 L47,51 C46.4,50.4 46.5,50.1 47.3,49.8 C46.8,49.8 46.6,49.5 46.9,49.2 C47.2,48.8 47.2,48.5 46.9,48.1 C46.7,47.8 46.6,47.5 46.7,47.1 C46.8,46.7 46.5,46.3 46.5,45.9 C46.5,45.8 46.4,45.6 46.4,45.5 C46.5,46.1 46.3,46.9 46.5,47.5 C46.5,48.4 46.7,49.3 46.5,50.3 C46.5,50.5 46.5,50.7 46.3,50.9 L42.7,50.9 C42.6,50.6 42.6,50.3 42.5,50 C42.5,49.8 42.5,49.6 42.4,49.4 C42.4,49.3 42.4,49.2 42.4,49.2 C42.4,49.3 42.4,49.4 42.4,49.5 C42.5,49.8 42.5,50.1 42.6,50.4 C42.6,50.6 42.7,50.8 42.6,51 L37,51 C36.6,50 36.4,48.9 36.1,47.8 C36,47.5 36,47.3 35.9,47 C35.9,46.9 35.9,46.9 35.9,46.8 C35.9,46.5 35.9,46.3 35.8,46 C35.6,45.2 35.4,44.5 35.1,43.8 C34.8,43.1 34.9,42.3 35.1,41.5 C35.6,39.3 35.9,37 35.8,34.7 C35.8,33.8 35.9,33 36.1,32.2 C36.2,31.6 37,30.9 37.6,31 C38.4,31.1 39,31 39.6,30.9" id="Path" fill="#FFFFFF"></path>
                <path d="M19,51 C19.8,49.9 20.4,48.7 21.3,47.7 C21.5,47.5 21.4,47.3 21.5,47.1 C22.4,46.5 22.8,45.4 23.5,44.6 C24,44 24.5,43.2 25.1,42.7 C25.5,42.3 26,42 26.6,41.9 C26.9,41.9 27,41.8 26.8,41.5 C26.4,40.6 26.6,39.8 27.4,39.2 C27.5,39.1 27.7,39 27.8,38.9 C27.8,38.9 27.9,38.8 27.9,38.8 C28.3,38.5 28.8,38.4 29,38 C29.2,37.8 29.4,37.8 29.6,37.6 C29.9,37.4 30.1,37.2 30.4,37.1 C30.7,37.2 30.4,36.9 30.6,36.9 C30.7,36.8 30.8,36.6 30.9,36.5 C31.1,36.4 31.3,36.3 31.5,36.1 C31.5,36.1 31.6,36.1 31.7,36 C31.9,35.9 32.1,35.8 32.4,35.7 C32.8,35.6 33.2,35.5 33.6,35.3 C34,35.1 34.4,35.2 34.7,35.5 C34.9,35.7 35,36 34.8,36.3 C34.6,36.4 34.7,36.5 34.7,36.7 C34.4,37.3 33.7,37.5 33.2,37.8 C32.3,38.4 31.2,38.8 30.4,39.7 C30.3,39.8 30.3,39.9 30.4,40.1 C30.5,40.3 30.7,40.4 30.9,40.3 C31.7,39.9 32.6,39.5 33.1,38.7 C33.6,38.5 34,38.6 34.2,39 C34.5,39.5 34.5,40 34,40.4 C33.6,40.8 33.1,41.1 32.7,41.3 C32.1,41.6 31.4,41.9 30.8,42.3 C30.8,42.3 30.7,42.3 30.7,42.4 C30.7,42.4 30.8,42.4 30.8,42.4 C31,42.4 31.2,42.4 31.4,42.4 C31.8,42.5 32.1,42.2 32.4,42.2 C32.5,42.2 32.6,42.2 32.6,42.2 C32.6,42.2 32.7,42.2 32.7,42.3 C32.7,42.2 32.6,42.2 32.6,42.1 C32.8,41.6 33.4,41.2 33.9,41.4 C34.5,41.6 34.7,42.2 34.4,42.7 C34.3,42.9 34.2,43 34.1,43.2 C34.1,43.2 34,43.3 34,43.3 C33.5,43.3 33.5,43.3 33.3,42.9 C33.3,43.5 32.9,43.9 32.4,44.1 C32.1,44.2 31.9,44.4 31.7,44.6 C31.5,44.8 31.2,44.9 31,45.1 C30,45.4 29.2,44.9 29.1,43.9 C29.1,43.8 29.2,43.7 29.1,43.6 C28.6,43.4 28.4,43.1 28.3,42.6 C28.2,42.4 27.9,42.3 27.7,42.3 C27.5,42.4 27.6,42.6 27.7,42.8 C27.8,43.3 27.9,43.8 28.5,44.1 C29,44.3 29,44.9 29,45.4 C29.1,45.9 29.1,46.3 29.7,46.5 C30.1,46.7 30.1,47.1 30,47.4 C29.6,48.2 29.2,48.9 28.3,49.2 C27.4,49.5 26.8,50.2 26.1,50.9 L19,50.9 L19,51 Z" id="Path" fill="#FFFFFF"></path>
                <path d="M34.2,43.2 L34.2,43.2 C34.9,42.8 34.9,42.9 35.1,43.5 C35.6,44.9 35.6,46.3 36.1,47.7 C36.1,48.6 36.4,49.5 36.7,50.3 C36.8,50.5 36.9,50.7 36.8,51 L27.4,51 C27.1,50.8 27.2,50.6 27.3,50.4 C27.4,50.3 27.5,50.2 27.6,50.1 C29,49.2 30.3,48.3 31.5,47.2 C31.6,47.2 31.5,47.1 31.6,47.2 C31.6,47.2 31.6,47.2 31.5,47.2 C31,47.1 30.7,46.8 30.4,46.5 C30.1,46.1 30.2,45.6 30.6,45.3 C30.8,45.2 30.9,45.2 31.1,45.1 C31.3,44.9 31.6,44.7 31.9,44.6 C32.5,44.7 33,44.4 33.2,43.9 C33.5,43.5 33.9,43.4 34.2,43.2" id="Path" fill="#FFFFFF"></path>
                <path d="M53.8,40.7 C53.9,40.4 53.9,40 53.8,39.7 C53.7,39 53.6,38.3 53.5,37.6 C53.5,37.1 53.4,36.6 53.1,36.1 C53,35.9 53,35.7 53,35.5 C53,35.1 53,34.7 52.9,34.3 C52.9,34.2 52.8,34 52.8,34 C53.1,33.5 53,33 52.8,32.4 C52.7,32.1 52.7,31.9 52.5,31.7 C52.2,31.4 52.1,31 52.2,30.5 C52.3,30.1 52.2,30 51.8,30.1 C51,30.3 50.2,30.5 49.7,31.1 C48.4,32.5 46.7,32.6 45,32.3 C45,32.3 44.9,32.2 44.9,32.2 C45.1,31.9 45.4,32.1 45.6,32.1 C45.8,32.1 46,32 46.3,32 C46.2,31.7 45.7,32 45.7,31.6 C46.2,31.5 46.7,31.5 47.3,31.6 C47.4,31.6 47.5,31.7 47.5,31.7 C47.5,31.6 47.4,31.6 47.4,31.6 C47.4,31.5 47.4,31.5 47.4,31.5 C48.2,31.5 48.9,31.2 49.6,30.8 C50.6,30.1 51.9,29.9 53.1,29.7 C53.3,29.7 53.6,29.6 53.8,29.6 C54.3,29.5 54.4,29.2 54.2,28.7 C54,28.3 54,27.8 54.5,27.6 C54.7,27.8 54.6,28.2 55,28.3 C55,27.8 55.3,27.8 55.6,28 C55.8,28.1 56,28.3 56,28.5 C56,29 56.3,29.4 56.6,29.8 L56.6,31.5 C56.2,31.6 56,31.3 55.8,31.1 C55.5,31 55.2,30.6 55,31 C54.8,31.3 54.9,31.7 55.3,31.9 C55.6,32.1 55.9,32.3 56.2,32.4 C56.4,32.5 56.6,32.5 56.7,32.7 L56.7,32.9 C56.4,33.1 56.1,32.9 55.9,32.8 C55.7,32.8 55.6,32.7 55.4,32.7 C55.1,32.7 54.9,32.4 54.6,32.7 C54.4,32.9 54.6,33.5 54.9,33.7 C55.3,33.9 55.6,34.2 56.1,34.3 C56.3,34.3 56.6,34.4 56.7,34.6 L56.7,35.2 C56.1,35.3 55.5,35 54.9,34.8 C54.7,34.8 54.4,34.5 54.3,34.8 C54.2,35.1 54.4,35.3 54.5,35.5 C55.1,36.1 55.9,36.5 56.7,36.6 L56.7,37.8 C56.5,38.2 56.2,38.3 55.9,38.5 C55.4,38.8 55.1,39.1 55.1,39.7 C55.2,39.7 55.3,39.6 55.4,39.7 C55.5,39.7 55.5,39.8 55.5,39.9 C55,40.4 54.4,40.6 53.9,41 C53.8,40.8 53.8,40.8 53.8,40.7" id="Path" fill="#0A0A0A"></path>
                <path d="M54,40.8 C54.3,40.1 55,40.1 55.6,39.7 C55.9,39.4 56.3,39.1 56.8,39.1 L56.8,48.9 C56.5,48.9 56.5,48.7 56.4,48.5 C55.5,46.9 54.7,45.2 54.2,43.4 C54.1,43.1 54,42.7 54.6,42.8 C54.7,42.8 54.8,42.8 54.9,42.7 C55,42.5 55,42.4 54.9,42.3 C54.8,42.1 54.6,42.1 54.4,42 C53.6,41.7 53.6,41.4 54,40.8" id="Path" fill="#FFFFFF"></path>
                <path d="M31.3,45.2 C31,45.4 30.5,45.4 30.5,46 C30.5,46.6 31.3,47.2 32,47 C31.4,47.5 30.9,48 30.4,48.4 C29.8,48.8 29.3,49.3 28.6,49.6 C28.3,49.8 27.9,50 27.6,50.3 C27.4,50.5 27.3,50.7 27.4,51 L26.2,51 C26.2,50.7 26.5,50.4 26.7,50.3 C27.2,49.8 27.8,49.4 28.5,49.1 C29.4,48.8 29.8,48 30.1,47.2 C30.2,47 30,46.7 29.7,46.7 C29.1,46.6 28.9,46 29,45.4 C29,45.2 28.7,45 29,44.7 C28.8,44.5 28.7,44.2 28.4,44.1 C27.7,44 27.8,43.3 27.7,42.9 C27.6,42.7 27.5,42.5 27.5,42.2 C28.2,42.1 28.3,42.2 28.7,43 C28.9,43.3 29.3,43.5 29.7,43.5 C29.2,44 29.5,44.4 29.8,44.8 C30.2,45.2 30.6,45.3 31.1,45.1 C31.2,45 31.3,45.1 31.3,45.2" id="Path" fill="#0A0A0A"></path>
                <path d="M52.4,51 C52.4,50.7 52.4,50.4 52.4,50.1 C52.4,49.9 52.5,49.6 52.2,49.5 C51.9,49.4 51.7,49.6 51.6,49.9 C51.4,50.2 51.3,50.5 51,50.7 C51.2,50.3 51.4,49.9 51.5,49.5 C51.7,48.7 51.4,48.4 50.6,48.6 C50.5,48.6 50.5,48.6 50.4,48.6 C50.5,48.2 51,48 51.2,48.1 C52,48.3 52.3,47.7 52.9,47.4 C53,47.3 53.1,47.2 53.2,47.2 C53.6,47.2 53.4,47.6 53.5,47.8 C53.5,47.9 53.5,47.9 53.5,48 C53.5,48.9 53.3,49.9 53.5,50.8 C53.5,50.9 53.5,51 53.4,51.1 L52.4,51.1 L52.4,51 Z" id="Path" fill="#1B1B1A"></path>
                <path d="M54.2,43.4 C54.8,45.2 55.6,46.8 56.4,48.4 C56.5,48.6 56.6,48.8 56.7,48.9 L56.7,49.9 C56.2,49.4 55.9,48.9 55.5,48.4 C55.7,48.1 55.8,48.6 55.9,48.4 C56,48.2 55.8,48.1 55.7,47.9 C55.4,47.3 55,46.6 54.8,46 C54.7,45.8 54.7,45.6 54.4,45.4 C54.1,46.5 54.3,47.4 54.7,48.4 C54.7,48.5 54.8,48.7 54.6,48.7 C53.7,47.6 53.8,46.4 54,45.2 C54.1,44.6 54,44.2 53.9,43.7 L53.9,43.7 C54,43.5 54,43.4 54.2,43.4" id="Path" fill="#1B1B1A"></path>
                <path d="M56.8,36.3 C56,36.4 55.3,36 54.7,35.4 C54.4,35.1 54.1,34.9 54.1,34.4 C54.1,34.1 54.3,34 54.5,34.1 C55.2,34.3 56,34.6 56.7,34.8 L56.7,36.3 L56.8,36.3 Z" id="Path" fill="#FDFDFD"></path>
                <path d="M56.8,34.3 C56.2,34.1 55.6,34.1 55.1,33.7 C54.6,33.4 54.3,32.7 54.5,32.2 C54.6,32 54.8,32 54.9,32 C55.5,32.1 56.1,32.5 56.7,32.5 L56.7,34.3 L56.8,34.3 Z" id="Path" fill="#FDFDFD"></path>
                <path d="M46.7,45.9 C46.8,46.4 47.1,46.8 46.8,47.3 C46.7,47.5 46.9,47.8 47.1,48.1 C47.4,48.4 47.6,48.7 47.2,49.1 C47,49.2 46.8,49.4 46.9,49.6 C47,49.8 47.3,49.6 47.4,49.6 C47.5,49.6 47.5,49.6 47.7,49.6 C46.7,50.3 46.7,50.3 47,50.9 L46.4,50.9 C46.6,49.7 46.4,48.6 46.4,47.4 C46.3,46.9 46.4,46.5 46.4,46 C46.4,45.9 46.5,45.8 46.7,45.9" id="Path" fill="#1B1B1A"></path>
                <path d="M53.4,51 C53.2,50 53.4,48.9 53.4,47.9 C53.6,47.7 53.6,47.9 53.7,48 C53.9,48.4 53.9,48.8 54.2,49.1 C54.5,49.7 54.7,50.3 55.1,50.8 C55.1,50.8 55.1,50.9 55.1,50.9 L53.4,50.9 L53.4,51 Z" id="Path" fill="#FBFBFB"></path>
                <path d="M56.8,32.4 C56.2,32.2 55.7,32 55.2,31.6 C54.8,31.3 54.8,30.8 55.1,30.4 C55.3,30.2 55.5,30.3 55.7,30.4 C56.1,30.6 56.5,30.9 56.8,31.1 L56.8,32.4 Z" id="Path" fill="#FDFDFD"></path>
                <path d="M36.8,51 C36.3,50 36,48.9 36,47.7 C36.1,47.5 35.8,47.1 36.3,46.9 C36.7,48.2 37.1,49.6 37.2,50.9 L36.8,50.9 L36.8,51 Z" id="Path" fill="#212121"></path>
                <path d="M55.4,39.6 C54.9,39.7 54.9,39.4 55,39.1 C55.1,38.8 55.2,38.5 55.6,38.3 C56,38.1 56.4,37.8 56.7,37.5 L56.7,38.8 C56.4,39.3 55.9,39.5 55.4,39.6" id="Path" fill="#FBFBFB"></path>
                <path d="M56.8,29.5 C56.4,29.3 56.2,28.9 56.2,28.6 C56.2,28.3 56,28.1 55.9,27.8 C55.8,27.5 56.2,27.7 56.3,27.5 C56.3,27.5 56.3,27.4 56.3,27.4 C56.5,27.3 56.7,27.4 56.9,27.5 L56.9,29.5 L56.8,29.5 Z" id="Path" fill="#FFFFFF"></path>
                <path d="M55.4,39.6 C55.8,39.3 56.2,39 56.7,38.9 L56.7,39.1 C56.3,39.3 55.9,39.5 55.5,39.7 C55.5,39.7 55.5,39.6 55.4,39.6" id="Path" fill="#3C3C3B"></path>
                <path d="M56.8,27.5 C56.6,27.6 56.4,27.4 56.2,27.4 C56.2,27 56.5,26.9 56.8,27 L56.8,27.5 Z" id="Path" fill="#4A4A49"></path>
                <path d="M42.7,51 C42.7,50.8 42.6,50.6 42.6,50.4 C42.7,50.3 42.6,50.1 42.7,50 C42.8,50.3 42.8,50.7 42.8,51 L42.7,51 Z" id="Path" fill="#797979"></path>
                <path d="M3,29 C2.5,28.8 2,28.8 1.5,28.8 C1.2,28.8 1.1,28.7 1.1,28.4 C1.1,28.3 1.1,28.2 1.1,28 C1.1,23.4 1.1,18.9 1.1,14.3 C1.1,14.1 1.1,13.9 1.1,13.6 C1.2,13.2 1.7,13.2 1.9,13 C2.1,12.9 2.4,12.8 2.3,12.5 C2.2,12.1 1.9,12.5 1.7,12.5 C1.5,12.5 1.3,12.8 1.1,12.7 C0.9,12.5 1.2,12.3 1.2,12.1 C1.2,11.8 1.5,11.6 1.5,11.2 C1.5,11 1.6,10.9 1.7,10.8 C1.9,10.7 2,10.6 1.7,10.5 C1.8,9.7 1.7,8.8 2.5,8 C2.8,7.7 3.1,7.6 3.4,7.5 C3.6,7.4 3.8,7.3 3.8,7.2 C3.7,6.7 4.2,6.5 4.5,6.2 C4.7,6 4.8,5.9 4.9,5.6 C4.9,5.2 6.1,4.6 6.5,4.7 C6.9,4.8 7.2,4.6 7.6,4.6 C7.9,4.5 8.4,4.6 8.4,4.1 C8.4,4.1 8.5,4 8.5,4 C9.4,3.9 10,3.1 11,3.2 C11.3,3.2 11.5,3.2 11.8,3.1 C11.9,3.1 11.8,3.1 11.8,3.1 C11.8,3.1 12.1,3.1 11.9,2.9 C12.4,2.4 13.6,2.4 14.3,2.7 C14.9,2.9 15.5,3.3 16.3,3.2 C16.6,3.2 16.9,3.4 17,3.5 C17.6,4 18.4,4 19,4.3 C20,4.7 20.9,5.3 21,6.5 C21,6.8 21.2,7 21.4,7.2 C22.5,7.9 22.7,9.1 22.8,10.2 C22.3,10.3 22.3,9.8 22,9.6 C21.9,9.4 22,9.2 21.9,8.9 C21.7,9.3 21.9,9.5 22.1,9.8 C22.3,10 22.4,10.3 22.8,10.4 C23.4,11.7 23.4,13.1 23.2,14.4 C23,15.7 22.7,17 23,18.4 C23.2,19.2 22.6,19.8 22.3,20.5 C22,20.9 21.8,21.4 21.4,21.7 C21,21.9 20.8,22.5 20.2,22.4 C20.1,22.4 20,22.5 20,22.5 C19.8,22.9 19.1,23 19.3,23.7 C19.5,24.4 19.3,25.2 19.5,25.9 C19.6,26.4 19.3,27.1 18.7,27.2 C18.5,26.9 18.8,26.6 18.6,26.3 C18.5,26.7 18.6,27.1 18.4,27.3 C18.1,27.5 18.1,27.9 18.1,28.2 C18,28.5 17.9,28.8 17.7,28.9 C17.5,28.9 17.5,28.8 17.6,28.7 C17.5,28.2 17.2,28.6 17,28.5 C16.8,28.4 16.8,28.6 16.8,28.8 C16.8,29 16.7,29.2 16.5,29.3 C16.4,29.4 16.3,29.1 16.2,29.4 C16.1,29.6 16.3,29.6 16.4,29.7 C16.4,29.8 16.4,30 16.3,30.1 C15.5,30.6 15,31.6 14,31.9 C14.2,32.1 14.4,32.2 14.6,32.4 C14.6,32.5 14.6,32.6 14.5,32.5 C14.5,32.5 14.4,32.5 14.4,32.4 C14,32.3 13.6,31.7 13.3,32 C13,32.2 13.4,32.8 13.4,33.2 C13.6,34 13.7,34.9 13.7,35.7 C13.8,35.9 13.8,36 13.6,36.1 C13.3,36 13.3,35.7 13.3,35.4 C13.1,34.3 13,33.2 12.7,32.1 C12.4,32.2 12.4,32.5 12.4,32.7 C12.3,32.8 12.3,32.9 12.2,32.9 C12,32.9 12,32.7 12,32.6 C12.2,31.7 12,30.8 12,29.9 C12,29.3 12.6,28.7 12.7,28.1 C12.8,27.8 12.8,27.5 12.8,27.1 C12.7,26.7 12.3,26.4 12,26.8 C11.3,27.6 10.4,27.6 9.5,27.7 C9.3,27.7 9,27.8 8.8,27.9 C8.1,28.2 7.5,28.1 6.8,27.9 C5.9,27.6 4.9,27.8 4.1,28.3 C3.8,28.5 3.4,28.5 3.4,28.9 C3.1,28.9 3.1,29 3,29" id="Path" fill="#0A0A0A"></path>
                <path d="M1.6,11.3 C1.8,11.7 1.4,11.9 1.3,12.2 C1.1,12.1 1.1,11.9 1.2,11.8 C1.3,11.6 1.5,11.5 1.6,11.3" id="Path" fill="#4A4A49"></path>
                <path d="M36.2,46.9 C36,47.1 36.2,47.5 35.9,47.7 C35.6,46.8 35.3,45.8 35.2,44.8 C35.1,44.2 34.9,43.7 34.8,43.2 C34.7,42.7 34.3,43.2 34.1,43.2 C34.2,42.9 34.5,42.8 34.6,42.5 C34.7,42.2 34.6,41.9 34.3,41.7 C34.1,41.5 33.7,41.4 33.5,41.6 C33.3,41.8 32.8,41.7 33,42.2 C33,42.3 33,42.4 32.9,42.3 C32.8,42.3 32.7,42.3 32.6,42.2 C32.3,42.1 32,42.2 31.7,42.3 C31.5,42.5 31.3,42.2 31.1,42.3 C31,42.4 30.9,42.3 31,42.2 C31.5,41.7 32.1,41.5 32.7,41.2 C33.2,41 33.7,40.7 34.2,40.3 C34.6,40 34.8,39.5 34.5,39 C34.3,38.6 33.9,38.4 33.4,38.7 C33,38.5 32.6,38.6 32.3,38.9 C32,39.2 31.6,39.4 31.2,39.7 C31,39.9 30.8,39.9 30.6,39.9 C30.5,39.9 30.5,39.8 30.5,39.7 C31.3,38.8 32.4,38.3 33.3,37.7 C33.8,37.4 34.5,37.2 34.9,36.7 C35,36.6 34.8,36.5 34.9,36.3 C35.2,36.3 35.2,36 35.1,35.9 C35,35.6 34.8,35.4 34.4,35.4 C34.2,35.4 34,35.5 33.8,35.5 C33.5,35.4 33.6,35.1 33.6,34.8 C33.6,34 33.9,33.3 33.8,32.5 C33.8,32.4 33.6,32.2 33.7,32.1 C34,31.6 34,31.1 34.1,30.5 C34.1,30.1 33.8,30 33.6,30 C33,30 32.5,30 31.9,29.9 C30.8,29.8 29.6,29.7 28.5,29.7 C28.1,29.7 27.9,29.8 27.9,30.3 C27.9,30.8 27.9,31.3 27.9,31.7 C27.9,32 28,32.2 28.3,32.3 C28.4,32.4 28.6,32.4 28.5,32.6 C28.3,32.8 28.1,32.9 28.1,33.2 C28.1,35.1 27.8,36.9 28,38.8 C28,38.9 28.1,39 28,39.1 C27.2,39.8 26.9,40.3 27.5,41.4 C27.7,41.7 27.6,41.8 27.2,41.8 C26,41.8 25.3,42.7 24.7,43.6 C24,44.6 23.3,45.5 22.6,46.4 C22.4,46.6 22.2,46.9 21.9,46.9 C22,46.6 22.3,46.2 22.1,45.8 C22,45.7 22.1,45.6 22.1,45.6 C22.8,44.3 23.9,43.3 24.6,42 C24.9,41.5 24.9,40.9 25.4,40.5 C25.5,40.5 25.6,40.4 25.6,40.4 C26,40.3 26.2,40.1 26.3,39.8 C26.1,39.9 26,40.3 25.7,40.4 C25.6,40.4 25.6,40.3 25.5,40.2 C25.5,39.8 25.7,39.5 25.8,39.2 C25.9,38.9 26,38.6 26.1,38.3 C26.4,37.5 26.1,36.9 25.6,36.4 C25.6,36.2 25.7,36.2 25.9,36.1 C27.1,34.9 27.7,33.5 27.4,31.7 C27.3,31.4 27.2,31.2 27,30.9 C26.2,30.1 25.3,29.3 24.6,28.4 C24.4,28.2 24.3,28 24.2,27.7 C24.1,27.4 24.1,27.2 24.5,27.2 C24.8,27.2 25.1,27.1 25.3,27.2 C25.8,27.3 26,27.1 26.1,26.6 C26.6,25.3 26.3,24.1 26,22.9 C26,22.9 26,22.8 25.9,22.8 C24.8,22.3 25.1,21.1 24.7,20.3 C24.3,19.4 24.4,18.4 24.5,17.5 C24.5,16.9 24.5,16.2 24.4,15.6 C24.2,14.5 24.4,13.5 24.8,12.5 C25.3,11.3 25.9,10 26.5,8.8 C27.4,7 29,6 30.9,5.5 C31.3,5.4 31.8,5.2 32.2,5.1 C34.3,4.5 36.3,5.1 38.2,5.9 C39.8,6.6 41.2,7.6 42.4,8.8 C42.7,9.1 43.1,9.2 43.5,9.3 C43.8,9.4 44.1,9.6 44,9.9 C43.8,10.3 43.9,10.8 43.5,11.2 C43.2,11.5 43.3,12 43.2,12.4 C43.1,12.8 43.1,13.2 43,13.7 C43.1,13.8 43,13.9 42.9,13.9 C42.6,13.8 42.6,13.6 42.5,13.4 C42.4,13.1 42.1,13 41.8,13.1 C41,13.4 40.3,13.4 39.5,13.1 C38.2,12.7 36.9,12 35.5,11.7 C34.8,11.5 34.4,11.6 34.2,12.2 C34.2,12.3 34.1,12.4 34.1,12.5 C34.3,13.2 34,13.8 34,14.4 C34,14.7 33.8,14.8 33.6,15 C32.9,15.5 32.7,16.2 32.6,16.9 C32.6,17.4 32.5,17.9 32.4,18.5 C32.3,18.9 32.4,19.3 32.6,19.7 C33.4,21.1 33.4,22.4 32.8,23.9 C32.6,24.4 32.5,24.9 32.5,25.4 C32.4,26 33,27.1 33.6,27.4 C33.8,27.5 33.9,27.5 34,27.3 C34,27 34.2,26.9 34.5,26.8 C34.8,26.7 35.1,26.6 35.2,27.1 C35.3,27.6 35.5,28.1 36,28.4 C36.3,28.6 36.4,28.9 36.6,29.2 C36.9,29.8 37.5,30.2 38,30.6 C38.3,30.9 38.8,30.8 39.2,30.7 C39.4,30.7 39.6,30.5 39.8,30.7 C39.8,30.8 39.8,30.9 39.8,31 C39.2,31.5 38.4,31.4 37.7,31.4 C37.5,31.4 37.2,31.3 37.3,31.7 C37.3,31.7 37.2,31.8 37.2,31.8 C36.4,32.5 36.5,33.5 36.4,34.3 C36.4,36.9 36.2,39.5 35.6,42 C35.4,42.8 35.4,43.7 35.9,44.5 C36.2,45 36.2,45.6 36.3,46.2 C36.2,46.4 36,46.6 36.2,46.9 C36.2,46.9 36.2,46.9 36.2,46.9" id="Path" fill="#0A0A0A"></path>
                <path d="M39.6,30.6 C39.2,30.7 38.8,31 38.3,30.8 C38.1,30.7 37.9,30.7 37.8,30.6 C37.1,30 36.3,29.4 36,28.6 C36,28.5 36,28.5 35.9,28.4 C35.2,28.2 35.3,27.6 35.1,27.1 C35,27 35.3,26.7 34.9,26.8 C34.6,26.9 34.3,26.8 34.2,27.2 C34.2,27.4 34.2,27.6 34.1,27.8 C33.4,27.5 32.9,26.9 32.5,26.3 C32.3,26 32.4,25.6 32.5,25.2 C32.6,24.6 32.7,24 33,23.4 C33.5,22.3 33.3,21.2 32.7,20.2 C32.4,19.6 32.3,19 32.5,18.3 C32.7,17.6 32.4,16.9 32.8,16.2 C33.1,15.8 33.1,15.2 33.7,15 C33.9,14.9 34,14.7 34,14.5 C33.9,14.2 34.1,14 34.2,13.7 C34.3,13.4 34.1,13 34,12.7 C34,12.6 34.4,11.8 34.6,11.7 C34.9,11.6 35.2,11.6 35.4,11.6 C36.1,11.8 36.9,12 37.6,12.3 C38.3,12.6 39,12.8 39.6,13.1 C40.2,13.4 40.8,13.3 41.5,13.2 C41.7,13.2 41.8,12.8 42.1,12.9 C42.7,13.1 42.6,13.6 42.8,14 C42.9,14.3 43,14.6 42.9,15 C42.6,15.7 43,16.3 43.1,17 C43.1,17.3 42.9,17.5 42.6,17.5 C42.1,17.6 41.8,18 41.5,18.3 C41.1,19 41.4,19.6 42.1,19.7 C42.1,20.6 41.8,21.5 42.1,22.5 C42.3,23 41.6,23.2 41.4,23.5 C40.6,23.3 40.4,22.6 40.4,21.8 C40.2,22 40.2,22.1 40.3,22.3 C40.3,22.6 40.2,23 39.9,23.1 C39.5,23.2 39.4,22.9 39.2,22.6 C39.2,22.5 39.2,22.5 39.1,22.5 C38.7,22.9 38.8,23.2 39.2,23.4 C39.7,23.6 40.2,23.6 40.6,23.8 C40.8,23.9 41,23.6 41.3,23.7 C41.3,24.6 41.2,25.4 40.8,26.2 C40.5,26.4 40.2,26.3 39.9,26.2 C39.7,26.1 39.5,26 39.3,26 C38.6,26.2 37.9,26.3 37,26.2 C37.4,26.5 37.7,26.7 38,26.7 C38.8,26.8 39.6,27 40.4,26.7 C40.5,26.7 40.6,26.7 40.6,26.8 C40,27.9 40.1,29.2 39.7,30.3 C39.7,30.3 39.7,30.4 39.6,30.6" id="Path" fill="#FFFFFF"></path>
                <path d="M25.1,40.7 C24.6,41.7 24.2,42.7 23.4,43.6 C22.8,44.3 22.3,45.1 21.8,45.9 C21.6,45.8 21.6,45.7 21.5,45.5 C21.2,44.6 20.8,43.7 20.5,42.8 C20.5,42.6 20.3,42.5 20.3,42.3 C20.3,42.2 20.3,42.1 20.2,42.1 C20.1,41.9 20.1,41.6 20,41.4 C19.7,41 19.7,40.5 19.6,40 L19.6,40 L19.6,40 C19.4,39.7 19.3,39.3 19.2,39 C19.1,38.9 19.1,38.7 19,38.5 C18.9,38.4 18.9,38.2 18.9,38.1 C18.8,37.9 18.8,37.8 18.7,37.7 C18.7,37.5 18.5,37.4 18.6,37.2 C18.5,37.1 18.5,37 18.4,36.9 C18.2,36.8 18.3,36.6 18.2,36.4 C18.2,36.3 18.2,36.3 18.1,36.2 C18,35.9 17.8,35.6 17.6,35.3 C17.6,35.2 17.5,35.2 17.5,35.1 C17.3,35 17.2,34.8 17.1,34.6 C17,34.5 16.9,34.3 16.8,34.2 C16.7,34.2 16.6,34.1 16.6,34.1 C16.4,33.7 15.8,33.6 15.6,33.1 C15.7,33.1 15.9,33.1 16,32.9 C16.2,32.8 16.3,32.8 16.5,32.7 C16.6,32.7 16.7,32.6 16.8,32.6 C17.2,32.4 17.6,32.3 17.9,32.1 C18.2,32 18.4,31.9 18.7,31.8 C19.5,31.5 20.3,31.3 21,30.8 C21.2,30.7 21.4,30.6 21.6,30.8 C21.6,30.8 21.7,30.9 21.7,30.9 C21.8,31.1 21.8,31.2 21.9,31.4 C22,31.7 22,31.9 22.1,32.2 C22.6,33.4 23.4,34.4 24.3,35.3 C24.6,35.7 25.1,36 25.3,36.4 C26.2,37.2 26.3,37.6 25.8,38.7 C25.6,39.2 25.4,39.7 25.3,40.3 C25.3,40.5 25.2,40.6 25.1,40.7" id="Path" fill="#FFFFFF"></path>
                <path d="M23.9,27.9 C24.7,29 25.7,29.9 26.6,30.8 C27,31.2 27.2,31.6 27.2,32.2 C27.3,33.7 26.8,35 25.8,36.1 C25.7,36.2 25.7,36.3 25.6,36.4 C25.4,36.3 25.3,36.2 25.1,36.1 C23.9,34.8 22.7,33.5 21.9,31.9 C21.9,31.7 21.8,31.6 21.7,31.4 C21.6,31.3 21.6,31.1 21.5,31 L21.5,31 C21.2,30.7 21.2,30.3 21.5,30 C21.8,29.7 21.9,29.2 22.3,29 C22.4,29 22.6,29 22.6,28.9 C23,28.4 23.6,28.3 23.9,27.9" id="Path" fill="#FFFFFF"></path>
                <path d="M40.7,26.7 C39.3,27.3 38,26.9 36.7,26.1 C38.1,26 39.5,25.5 40.9,26.1 C40.9,26.3 41,26.6 40.7,26.7" id="Path" fill="#131313"></path>
                <path d="M41.4,23.6 C41,23.8 40.7,24.1 40.2,23.7 C40,23.5 39.7,23.6 39.4,23.6 C39.1,23.6 38.8,23.5 38.7,23.1 C38.6,22.7 38.8,22.5 39,22.2 C39.1,22.1 39.3,22 39.3,22.3 C39.3,22.4 39.3,22.4 39.3,22.5 C39.4,22.8 39.5,23.1 39.8,23 C40.1,22.9 40.1,22.6 40.1,22.3 C40,22.1 40.1,22 40.2,21.8 C40.2,21.6 40.3,21.5 40.5,21.5 C40.6,21.5 40.7,21.7 40.7,21.9 C40.6,22.6 40.9,23.1 41.5,23.4 C41.4,23.5 41.4,23.6 41.4,23.6" id="Path" fill="#1B1B1A"></path>
                <path d="M54.2,43.4 C54.2,43.5 54.1,43.6 54.1,43.7 C53.9,42.9 53.6,42.2 53.7,41.4 C53.7,41.2 53.8,41 53.9,40.8 C53.9,40.9 54,40.9 54,41 C53.8,41.5 53.7,41.9 54.5,42.1 C55.1,42.2 55.2,42.6 54.9,43.2 C54.8,43.3 54.8,43.4 54.8,43.6 C54.6,43.4 54.5,43.1 54.2,43.2 C54,43 54.3,43.2 54.2,43.4" id="Path" fill="#0A0A0A"></path>
                <path d="M22.5,29 C22.2,29.4 22.1,29.8 21.7,30.1 C21.4,30.3 21.6,30.6 21.6,30.9 C21.4,30.7 21.2,30.8 21,31 C20.3,31.4 19.5,31.8 18.7,31.9 C18.6,31.9 18.5,31.9 18.6,31.8 C18.7,31.7 18.9,31.6 19,31.6 C20.5,31.3 21.3,30.3 22,29.1 C22.2,28.9 22.3,28.6 22.5,29" id="Path" fill="#282727"></path>
                <path d="M41.4,18.2 C41.7,17.8 42,17.4 42.6,17.3 C42.8,17.3 43,17 43.1,16.9 C43.7,17.4 43.6,17.9 42.9,18.1 C42.4,18.1 42,18.3 41.5,18.4 C41.4,18.4 41.3,18.3 41.4,18.2" id="Path" fill="#0A0A0A"></path>
                <path d="M41.4,18.2 C41.4,18.2 41.5,18.3 41.5,18.3 C41.8,18.6 42.1,18.9 42.5,19 C42.8,19.4 42.5,19.6 42.2,19.6 C41.9,19.9 41.6,19.8 41.5,19.4 C41.3,19.1 40.9,18.6 41.4,18.2" id="Path" fill="#0A0A0A"></path>
                <path d="M42.5,19.1 C41.9,19.2 41.7,18.8 41.5,18.4 C41.9,18.2 42.4,17.9 42.9,18.1 C42.8,18.4 42.4,18.7 42.5,19.1" id="Path" fill="#F2F4F6"></path>
                <path d="M47.6,31.3 C47.6,31.3 47.6,31.4 47.6,31.4 C47.6,31.5 47.6,31.5 47.6,31.5 C47.1,31.3 46.5,31.3 46,31.5 C45.7,31.8 45.4,31.6 45.1,31.7 C44.7,31.7 44.3,31.6 44,31.8 C44,31.8 43.9,31.9 43.9,31.9 C43.6,31.9 43.4,31.7 43,31.4 C44.5,31.3 46.1,31.3 47.6,31.3" id="Path" fill="#3A3938"></path>
                <path d="M56.2,27.5 C56.1,27.6 55.9,27.7 55.8,27.8 C55.6,27.8 55.5,27.6 55.3,27.7 C55.3,27.9 55.6,28.1 55.4,28.3 C55.3,28.4 55.2,28.4 55.1,28.3 C54.9,28.1 54.5,28 54.6,27.6 C54.6,27.5 54.6,27.5 54.7,27.4 C55.2,27.4 55.6,27.5 56.2,27.5" id="Path" fill="#FFFFFF"></path>
                <path d="M15.7,33.1 C16,33.5 16.5,33.6 16.7,34.1 C16.2,33.8 15.7,33.5 15.2,33.1 C14.9,32.8 14.6,32.6 14.2,32.4 C14.2,32.4 14.3,32.3 14.3,32.3 C14.9,32.4 15.2,32.9 15.7,33.1" id="Path" fill="#3C3C3B"></path>
                <path d="M18.2,27.3 C18.2,27 18.2,26.6 18.2,26.3 C18.2,26.2 18.2,25.9 18.4,25.9 C18.6,25.9 18.6,26.1 18.7,26.3 C18.8,26.6 18.5,26.9 18.5,27.2 C18.4,27.3 18.3,27.3 18.2,27.3" id="Path" fill="#E5E9EB"></path>
                <path d="M18.1,32.2 C17.7,32.5 17.3,32.7 16.9,32.7 C16.9,32.7 16.8,32.7 16.9,32.6 C16.9,32.6 16.9,32.6 16.9,32.6 C17.2,32.3 17.6,32.2 18,32.1 C18.1,32 18.1,32.1 18.1,32.2" id="Path" fill="#4A4A49"></path>
                <path d="M16.1,29.6 C16,29.7 15.8,29.7 15.7,29.8 C15.6,29.5 15.8,29.2 16,29 C16.1,28.9 16,29.3 16.3,29.2 C16.2,29.4 16.2,29.5 16.1,29.6" id="Path" fill="#D0D0D0"></path>
                <path d="M11.1,3.1 C11,3 10.9,3 11,2.9 C11.2,2.8 11.5,2.7 11.7,3 C11.7,3.1 11.7,3.1 11.7,3.2 C11.5,3.3 11.3,3.3 11.1,3.1" id="Path" fill="#282727"></path>
                <path d="M21.9,9.6 C22.1,9.8 22.3,10.1 22.6,10.3 C22.6,10.3 22.6,10.3 22.6,10.4 C22.1,10.6 22,10.2 21.9,10 C21.9,9.8 21.9,9.7 21.9,9.6" id="Path" fill="#EFEEEE"></path>
                <path d="M18.1,32.2 C18.1,32.2 18,32.1 18,32.1 C18.2,31.9 18.5,31.8 18.7,31.7 C18.7,31.7 18.8,31.8 18.8,31.8 C18.6,32.1 18.3,32.1 18.1,32.2" id="Path" fill="#575756"></path>
                <path d="M17.3,28.7 C17.3,28.8 17.3,28.9 17.4,28.9 C17.3,29.2 17.1,29.3 16.8,29.6 C16.9,29.2 17.2,29 17.3,28.7" id="Path" fill="#4A4A49"></path>
                <path d="M42.9,14.9 C42.9,14.6 42.8,14.3 42.8,13.9 C42.8,13.9 42.9,13.8 42.9,13.8 C43,14.2 43.1,14.6 42.9,14.9" id="Path" fill="#575756"></path>
                <path d="M11.1,3.1 C11.3,3.1 11.5,3.1 11.7,3 C11.8,3.1 11.8,3.1 11.7,3.2 C11.4,3.4 11.2,3.3 10.9,3.2 C10.9,3.2 11,3.2 11.1,3.1" id="Path" fill="#FFFFFF"></path>
                <path d="M43.7,31.9 C43.7,31.9 43.7,31.8 43.7,31.8 C44,31.7 44.2,31.8 44.4,32 C44.4,32.1 44.4,32.1 44.4,32.2 C44.1,32.1 43.9,32 43.7,31.9" id="Path" fill="#575756"></path>
                <path d="M44.4,32.1 C44.4,32.1 44.4,32 44.4,32 C44.7,31.8 44.9,31.8 45.1,32.1 C45.1,32.1 45.1,32.2 45.1,32.2 C44.9,32.3 44.7,32.2 44.4,32.1" id="Path" fill="#4A4A49"></path>
                <path d="M16.6,32.8 C16.4,33 16.3,33 16,32.9 C16.1,32.8 16.1,32.7 16.2,32.7 C16.4,32.7 16.6,32.6 16.6,32.8" id="Path" fill="#282727"></path>
                <path d="M16.6,32.8 C16.5,32.7 16.4,32.7 16.2,32.7 C16.4,32.5 16.6,32.6 16.8,32.6 C16.8,32.6 16.8,32.7 16.8,32.7 C16.8,32.7 16.7,32.8 16.6,32.8" id="Path" fill="#3C3C3B"></path>
                <path d="M1.9,10.6 C2,10.6 2.2,10.6 2.1,10.8 C2.1,11 2,11 1.9,10.9 C1.9,10.8 2,10.8 1.9,10.6" id="Path" fill="#D0D0D0"></path>
                <path d="M11.7,3.3 C11.7,3.2 11.7,3.2 11.7,3.1 C11.7,3.1 11.7,3 11.7,3 C11.7,3 11.8,3 11.8,3 C11.8,3.1 12.1,2.9 12,3.2 C11.9,3.2 11.8,3.2 11.7,3.3" id="Path" fill="#D1D2D2"></path>
                <path d="M3.1,28.9 C3,28.8 2.9,28.8 2.7,28.6 C3.3,28.5 3.7,28.1 4.1,27.9 C4.5,27.7 5,27.7 5.4,27.6 C6.1,27.4 6.6,27.7 7.2,27.9 C7.5,28 7.8,28 8,27.9 C8.8,27.5 9.6,27.5 10.4,27.4 C10.9,27.4 11.2,27 11.5,26.6 C11.8,26.3 12,26.4 12.2,26.5 C12.5,26.6 12.5,26.7 12.5,27 C12.5,27.8 12.3,28.6 11.8,29.3 C11.6,29.6 11.4,30.1 11.6,30.5 C11.8,31 11.8,31.5 11.6,32 C11.5,32.3 11.6,32.5 11.6,32.8 C11.7,32.4 11.9,32 12.2,31.5 C12.7,33 12.8,34.5 13.1,36 C13.4,36.5 13.3,37.1 13.4,37.6 C13.6,38.5 13.6,39.4 13.6,40.3 C13.6,40.5 13.6,40.7 13.4,40.8 C13.2,40.9 13.1,40.6 12.9,40.6 C12.7,39.8 12.2,39.3 11.7,38.7 C11.6,38.5 11.4,38.4 11.4,38.2 C11.2,38 11,37.7 10.8,37.4 C10.7,37.1 10.5,36.8 10.3,36.5 C10.1,36.3 9.9,36 9.8,35.8 C9.7,35.6 9.5,35.4 9.3,35.2 C9.2,35 9.1,34.9 9,34.7 C8.8,34.4 8.6,34.1 8.4,33.7 C8.1,33.4 7.9,33.1 7.7,32.8 C7.6,32.7 7.4,32.5 7.3,32.4 C7,32.1 6.8,31.9 6.5,31.6 C6.5,31.6 6.4,31.5 6.4,31.5 C6.2,31.4 6.1,31.2 5.9,31.1 C5.6,30.9 5.3,30.6 5.1,30.3 C5.2,30.2 5,30.1 4.8,30 C4.5,29.8 4.2,29.6 4,29.5 C3.8,29.4 3.7,29.3 3.5,29.2 C3.3,29.1 3.2,29 3.1,28.9" id="Path" fill="#FFFFFF"></path>
                <path d="M14.9,42.8 C15.1,43.7 15.2,44.7 15.4,45.6 C15.6,46.6 15.8,47.6 16,48.5 C16,48.6 16.1,48.8 16,48.9 C15.8,48.9 15.5,48.9 15.5,48.5 C15.5,48.1 15.1,48.1 15,47.8 C14.1,46.3 13.6,44.6 13.2,42.9 C13.1,42.4 12.9,41.8 12.7,41.3 C12.7,41.2 12.6,41 12.7,40.8 C13.2,41.6 13.8,42.2 14.7,42.3 C14.4,42.7 14.9,42.6 14.9,42.8" id="Path" fill="#FFFFFF"></path>
                <path d="M9.5,40.6 C9.7,40.7 9.8,40.3 10,40.7 C10.5,42 11,43.3 11.5,44.6 C11.5,44.7 11.5,44.8 11.5,44.9 C10.7,44.6 10.1,43.9 9.5,43.4 C9.5,43.4 9.4,43.3 9.5,43.2 C9.6,42.8 9.4,42.2 9.1,42.1 C8.9,42 8.9,41.8 8.8,41.7 C8.8,41.6 8.6,41.6 8.7,41.4 C8.8,41.2 8.9,41.3 9,41.3 C9.5,41.4 9.6,41.3 9.3,40.7 C9.3,40.6 9.4,40.5 9.5,40.6" id="Path" fill="#FFFDFD"></path>
                <path d="M13.3,40.6 C13.7,40.8 13.8,40.7 13.8,40.2 C13.8,38.8 13.5,37.4 13.4,36 C13.5,35.9 13.5,35.7 13.5,35.6 C13.8,36.6 13.8,37.6 14,38.6 C14.1,39.2 14.1,39.9 14.1,40.6 C14.1,40.8 14.2,41 14,41.1 C13.8,41.2 13.6,41 13.5,40.9 C13.4,40.8 13.3,40.7 13.3,40.6" id="Path" fill="#282727"></path>
                <path d="M18.5,43.4 C18.8,44.2 19.3,45 19.5,45.9 C19.6,46 19.5,46.1 19.4,46 C19,45.2 18.3,44.5 18.3,43.5 C18.4,43.4 18.4,43.3 18.5,43.4" id="Path" fill="#FEF6F2"></path>
                <path d="M12.1,47.5 C12.3,47.2 12,47 12.1,46.7 C12.2,46.6 12.2,46.5 12.3,46.3 C12.6,46.8 12.7,47.4 13,48 C12.6,48 12.5,47.6 12.1,47.7 C12.1,47.6 12.1,47.6 12.1,47.5" id="Path" fill="#FEF2EF"></path>
                <path d="M20.6,42.8 C21,43.8 21.4,44.9 21.8,45.9 C21.8,45.9 21.7,46 21.7,46 C21.2,45 20.8,43.9 20.5,42.8 C20.4,42.8 20.5,42.7 20.6,42.8" id="Path" fill="#3C3C3B"></path>
                <path d="M18.5,43.4 C18.4,43.4 18.3,43.5 18.3,43.5 C18.2,43.1 18.1,42.7 17.9,42.3 C17.8,42.1 17.8,41.9 17.9,41.6 C18.1,42.3 18.3,42.8 18.5,43.4" id="Path" fill="#FEF0EC"></path>
                <path d="M11.1,46.9 C10.6,46.8 10.3,46.4 9.9,46.1 C10.4,46.2 10.8,46.6 11.1,46.9" id="Path" fill="#FCE5DD"></path>
                <path d="M16,48.9 C16,48.8 16,48.6 16,48.5 C16.1,49.1 16.2,49.7 16.3,50.3 C16,49.9 16,49.4 16,48.9" id="Path" fill="#FBDACF"></path>
                <path d="M19.6,40.1 C19.9,40.5 19.9,41 20.1,41.5 C20.1,41.6 20,41.6 20,41.5 C19.7,41 19.6,40.6 19.6,40.1" id="Path" fill="#3C3C3B"></path>
                <path d="M5.4,30.3 C5.7,30.5 6,30.7 6.2,31 C6.2,31.1 6.2,31.1 6.1,31.1 C5.7,31 5.5,30.6 5.2,30.3 C5.3,30.3 5.3,30.2 5.4,30.3" id="Path" fill="#3C3C3B"></path>
                <path d="M19.3,38.9 C19.5,39.2 19.6,39.6 19.7,40 C19.3,39.8 19.4,39.4 19.2,39 C19.2,39 19.2,38.9 19.3,38.9" id="Path" fill="#4A4A49"></path>
                <path d="M8,32.7 C8.3,33 8.6,33.3 8.7,33.7 C8.2,33.6 8.2,33.2 8,32.9 C8,32.8 8,32.8 8,32.7" id="Path" fill="#3C3C3B"></path>
                <path d="M6.8,31.6 C7.2,31.8 7.4,32.1 7.6,32.4 C7.7,32.5 7.7,32.5 7.6,32.6 C7.4,32.2 7,32 6.8,31.6" id="Path" fill="#4A4A49"></path>
                <path d="M14.6,41.3 C14.7,41.9 14.7,41.9 14.2,41.7 C14.3,41.5 14.4,41.4 14.6,41.3" id="Path" fill="#FACEC1"></path>
                <path d="M6,33.4 C5.7,33.3 5.5,33.2 5.5,32.8 C5.8,33 6,33.1 6.1,33.4 C6.1,33.5 6,33.5 6,33.4" id="Path" fill="#FEF2EF"></path>
                <path d="M9.8,35.1 C10,35.3 10.2,35.4 10.3,35.7 C10.4,35.8 10.3,35.8 10.2,35.8 C10,35.6 9.9,35.3 9.7,35.1 C9.7,35.1 9.7,35.1 9.8,35.1" id="Path" fill="#4A4A49"></path>
                <path d="M10.1,35.9 C10.1,35.9 10.2,35.8 10.2,35.8 C10.4,36 10.6,36.3 10.7,36.6 C10.3,36.5 10.3,36.1 10.1,35.9" id="Path" fill="#4A4A49"></path>
                <path d="M9.9,45.9 C9.4,45.9 9.3,45.6 9.1,45.3 C9.5,45.4 9.7,45.6 9.9,45.9" id="Path" fill="#FCE3DB"></path>
                <path d="M11.2,37.4 C11.5,37.6 11.7,37.8 11.8,38.2 C11.4,38.1 11.3,37.8 11.2,37.4" id="Path" fill="#4A4A49"></path>
                <path d="M17.7,35.2 C18,35.5 18.2,35.7 18.2,36.1 C18,35.9 17.7,35.6 17.7,35.2" id="Path" fill="#4A4A49"></path>
                <path d="M10.1,37.6 C10.3,37.8 10.4,38 10.3,38.4 C10.2,38.1 10.1,37.9 10.1,37.6" id="Path" fill="#FACBBE"></path>
                <path d="M6,33.4 C6.1,33.4 6.1,33.4 6.2,33.4 C6.4,33.5 6.5,33.6 6.6,33.8 C6.2,33.9 6.1,33.7 6,33.4" id="Path" fill="#FCDCD2"></path>
                <path d="M9.5,47.7 C9.2,47.7 9,47.6 9,47.3 C9.1,47.4 9.3,47.6 9.5,47.7" id="Path" fill="#FAD2C5"></path>
                <path d="M14.9,42.8 C14.7,42.7 14.5,42.9 14.3,42.8 C14.4,42.6 14.6,42.7 14.6,42.5 C14.9,42.5 14.9,42.6 14.9,42.8" id="Path" fill="#E83C3A"></path>
                <path d="M17.2,34.5 C17.4,34.6 17.5,34.8 17.6,35 C17.3,35 17.2,34.8 17.1,34.5 C17.1,34.5 17.1,34.5 17.2,34.5" id="Path" fill="#4A4A49"></path>
                <path d="M19.4,46 C19.4,46 19.5,45.9 19.5,45.9 C19.6,46.1 19.7,46.3 19.8,46.5 C19.5,46.4 19.4,46.2 19.4,46" id="Path" fill="#FCE3DC"></path>
                <path d="M20,41.4 C20,41.4 20.1,41.4 20.1,41.4 C20.3,41.6 20.2,41.9 20.2,42.1 C20,42 20,41.7 20,41.4" id="Path" fill="#282727"></path>
                <path d="M6.1,31.1 C6.1,31.1 6.2,31 6.2,31 C6.4,31.1 6.6,31.2 6.7,31.5 C6.4,31.5 6.3,31.3 6.1,31.1" id="Path" fill="#4A4A49"></path>
                <path d="M5.4,30.3 C5.3,30.3 5.3,30.3 5.2,30.3 C5,30.3 4.9,30.1 4.8,29.9 C5.1,29.9 5.2,30.1 5.4,30.3" id="Path" fill="#4A4A49"></path>
                <path d="M17.2,34.5 C17.2,34.5 17.1,34.6 17.1,34.6 C16.9,34.6 16.8,34.4 16.8,34.2 C17,34.3 17.2,34.4 17.2,34.5" id="Path" fill="#4A4A49"></path>
                <path d="M3.5,29.1 C3.8,29.1 3.9,29.3 4,29.4 C3.7,29.4 3.5,29.4 3.5,29.1 L3.5,29.1 L3.5,29.1 Z" id="Path" fill="#282727"></path>
                <path d="M3.5,29.1 C3.5,29.1 3.5,29.1 3.5,29.1 C3.3,29.3 3.2,29.1 3,29 C3,29 3.1,28.9 3.1,28.9 C3.2,28.9 3.4,28.9 3.5,29.1" id="Path" fill="#4A4A49"></path>
                <path d="M19.3,38.9 C19.3,38.9 19.2,39 19.2,39 C19.1,38.8 19,38.7 19.1,38.5 C19.1,38.4 19.1,38.4 19.2,38.4 C19.2,38.6 19.2,38.7 19.3,38.9" id="Path" fill="#282727"></path>
                <path d="M20.6,42.8 C20.6,42.8 20.5,42.9 20.5,42.9 C20.4,42.7 20.3,42.6 20.4,42.3 C20.5,42.5 20.6,42.6 20.6,42.8" id="Path" fill="#575756"></path>
                <path d="M7.7,32.5 C7.7,32.4 7.7,32.4 7.7,32.3 C7.9,32.4 8,32.6 8,32.7 C8,32.8 8,32.8 8,32.9 C7.9,32.8 7.8,32.6 7.7,32.5" id="Path" fill="#4A4A49"></path>
                <path d="M18.7,37.2 C18.8,37.3 18.8,37.5 18.8,37.7 C18.8,37.8 18.8,37.8 18.8,37.9 C18.7,37.6 18.5,37.4 18.7,37.2" id="Path" fill="#4A4A49"></path>
                <path d="M18.3,36.3 C18.5,36.4 18.4,36.6 18.5,36.8 C18.2,36.7 18.2,36.6 18.3,36.3" id="Path" fill="#4A4A49"></path>
                <path d="M9.8,35.1 C9.8,35.1 9.7,35.1 9.7,35.1 C9.6,35 9.4,34.8 9.4,34.6 C9.6,34.7 9.7,34.9 9.8,35.1" id="Path" fill="#3C3C3B"></path>
                <path d="M9.5,40.6 C9.5,40.6 9.4,40.7 9.4,40.7 C9.3,40.6 9.2,40.5 9,40.4 C9.3,40.3 9.4,40.4 9.5,40.6" id="Path" fill="#FCDCD2"></path>
                <path d="M11.3,47.1 C11.4,47.1 11.4,47 11.3,47.1 C11.5,47 11.5,47 11.6,47.1 C11.6,47.1 11.5,47.2 11.5,47.2 C11.4,47.3 11.4,47.2 11.3,47.1" id="Path" fill="#FDEDE8"></path>
                <path d="M18.8,37.8 C18.8,37.7 18.8,37.7 18.8,37.6 C19,37.7 19,37.9 19,38 C19,38.1 19,38.1 18.9,38.1 C18.8,38.1 18.8,37.9 18.8,37.8" id="Path" fill="#4A4A49"></path>
                <path d="M12.1,47.5 C12.1,47.6 12.1,47.6 12.1,47.7 C11.9,47.7 11.9,47.5 11.8,47.4 C12,47.3 12.1,47.5 12.1,47.5" id="Path" fill="#F8BFB2"></path>
                <path d="M18.9,38.2 C18.9,38.2 19,38.1 19,38.1 C19,38.2 19.1,38.3 19.1,38.5 C19.1,38.5 19,38.6 19,38.6 C18.9,38.4 18.9,38.3 18.9,38.2" id="Path" fill="#4A4A49"></path>
                <path d="M7.2,34.6 C7,34.6 6.9,34.5 6.9,34.4 C6.9,34.2 7,34.4 7.1,34.4 C7.1,34.5 7.1,34.5 7.2,34.6" id="Path" fill="#F8BFB0"></path>
                <path d="M38.1,35.2 C37.8,34.7 37.7,34.3 37.4,33.9 C37.1,33.6 37.5,33.3 37.6,33.2 C37.9,33.1 38,33.4 38,33.6 C38.2,34.2 38.2,34.7 38.1,35.2" id="Path" fill="#373636"></path>
                <path d="M45.6,39.8 C45.3,39 45.1,38.2 45,37.4 C45.7,38.1 45.6,39 45.6,39.8" id="Path" fill="#3C3C3B"></path>
                <path d="M54.7,48.7 C54.7,48.6 54.8,48.5 54.8,48.4 C55.3,49.1 55.7,49.9 56.2,50.6 C55.5,50.1 55,49.5 54.7,48.7" id="Path" fill="#454444"></path>
                <path d="M55.1,50.8 C54.9,50.8 54.8,50.7 54.7,50.5 C54.5,50.1 54.2,49.7 54.1,49.2 C54,49.1 54.1,49.1 54.2,49 C54.5,49.6 54.9,50.2 55.1,50.8" id="Path" fill="#504F4E"></path>
                <path d="M46.7,45.9 C46.4,45.9 46.5,46.2 46.5,46.4 C46.5,46.8 46.5,47.2 46.5,47.5 C46.3,46.7 46.4,45.9 46.4,45 C46.6,45.3 46.7,45.6 46.7,45.9" id="Path" fill="#373636"></path>
                <path d="M54.2,49 C54.2,49.1 54.1,49.1 54.1,49.2 C53.9,48.9 53.7,48.5 53.6,48.1 C53.6,48 53.7,48 53.7,47.9 C54,48.2 54.1,48.6 54.2,49" id="Path" fill="#504F4E"></path>
                <path d="M53.4,47.7 C53.3,47.5 53.5,47.2 53.3,47.1 C53.4,46.7 53.4,46.4 53.5,46 C53.6,46 53.6,46 53.7,46.1 C53.7,46.6 53.7,47.1 53.7,47.5 C53.5,47.6 53.5,47.7 53.4,47.7" id="Path" fill="#3C3C3B"></path>
                <path d="M46.6,42 C46.6,41.7 46.5,41.4 46.4,41 C46.9,41.4 46.8,41.7 46.6,42" id="Path" fill="#5A5A59"></path>
                <path d="M53.5,47.7 C53.5,47.1 53.5,46.6 53.5,46 C53.4,45.9 53.5,45.9 53.6,45.9 C53.7,46.5 53.5,47 53.7,47.6 C53.6,47.7 53.6,47.7 53.5,47.7" id="Path" fill="#FBFBFB"></path>
                <path d="M42.1,47.1 C42.3,47.4 42.3,47.6 42.3,47.9 C42.1,47.7 42,47.4 42.1,47.1" id="Path" fill="#7E7E7D"></path>
                <path d="M46,43.4 C45.9,43.1 45.9,42.7 45.9,42.3 C46.1,42.6 46.2,42.8 46.1,43 C46,43.1 46.1,43.3 46,43.4" id="Path" fill="#706F6F"></path>
                <path d="M41.9,46.5 C41.8,46.2 41.7,45.9 41.7,45.6 C41.7,45.6 41.8,45.6 41.8,45.6 C42,45.8 42,46.1 42,46.3 C42,46.4 41.9,46.5 41.9,46.5" id="Path" fill="#5C5C5B"></path>
                <path d="M42.8,50 C42.8,50.1 42.8,50.3 42.7,50.4 C42.7,50.1 42.6,49.8 42.6,49.4 C42.6,49.3 42.7,49.3 42.7,49.4 C42.8,49.6 42.7,49.8 42.8,50" id="Path" fill="#686867"></path>
                <path d="M43.9,44.8 C43.7,44.8 43.5,44.9 43.3,44.9 C43.5,44.7 43.6,44.6 43.9,44.6 C43.8,44.7 43.9,44.7 43.9,44.8" id="Path" fill="#8A8989"></path>
                <path d="M41.8,45.7 C41.8,45.7 41.7,45.7 41.7,45.7 C41.6,45.3 41.6,45.2 42.1,45.2 L42.1,45.2 C41.9,45.3 41.7,45.4 41.8,45.7" id="Path" fill="#818080"></path>
                <path d="M46.1,43.1 C46.2,43.3 46.2,43.6 46.2,43.8 C46.2,43.9 46.1,43.9 46,43.9 C46,43.8 46,43.7 46,43.5 C46.1,43.4 46,43.2 46.1,43.1" id="Path" fill="#575756"></path>
                <path d="M46,44 C46.1,44 46.1,43.9 46.2,43.9 C46.2,44.1 46.2,44.2 46.3,44.4 C46,44.3 45.9,44.2 46,44" id="Path" fill="#4A4A49"></path>
                <path d="M44.1,44.6 C44.4,44.3 44.6,44.4 44.8,44.4 C44.7,44.6 44.5,44.6 44.1,44.6" id="Path" fill="#757474"></path>
                <path d="M53.5,47.7 C53.6,47.7 53.7,47.6 53.8,47.6 C53.8,47.7 53.8,47.8 53.8,47.9 C53.8,48 53.7,48 53.7,48.1 C53.7,48 53.6,47.9 53.5,47.9 C53.4,47.8 53.4,47.8 53.5,47.7 C53.4,47.7 53.4,47.7 53.5,47.7" id="Path" fill="#373636"></path>
                <path d="M42.6,49.4 L42.6,49.4 L42.5,49.4 C42.5,49.2 42.4,49 42.3,48.7 C42.7,49 42.6,49.2 42.6,49.4" id="Path" fill="#5C5C5B"></path>
                <path d="M41.9,46.5 C41.9,46.4 42,46.4 42,46.3 C42,46.3 42,46.4 42.1,46.4 C42.1,46.5 42.3,46.7 42,46.8 C41.8,46.9 41.9,46.7 41.9,46.5" id="Path" fill="#454444"></path>
                <path d="M36.2,46.9 C36,46.7 36.1,46.4 36.1,46.2 C36.2,46.4 36.2,46.6 36.2,46.9" id="Path" fill="#212121"></path>
                <path d="M42,45.2 C42.1,45 42.4,45.1 42.6,44.9 C42.4,45.3 42.2,45.2 42,45.2 L42,45.2 Z" id="Path" fill="#858584"></path>
                <path d="M53.6,45.9 C53.6,45.9 53.5,46 53.5,46 C53.5,46 53.4,46 53.4,46 C53.4,45.9 53.3,45.7 53.5,45.7 C53.6,45.7 53.6,45.8 53.6,45.9" id="Path" fill="#686867"></path>
                <path d="M46.1,43.1 C46,43.3 46.1,43.5 46,43.6 C46,43.5 46,43.5 46,43.4 C46.1,43.3 46,43.1 46.1,43.1 C46.1,43 46.1,43.1 46.1,43.1" id="Path" fill="#0A0A0A"></path>
                <path d="M42.4,48.6 C42.3,48.5 42.3,48.4 42.3,48.3 C42.3,48.2 42.3,48.1 42.4,48.2 C42.5,48.2 42.5,48.3 42.5,48.4 C42.5,48.4 42.4,48.5 42.4,48.6" id="Path" fill="#797979"></path>
                <path d="M27.5,39.1 C27.3,38.1 27.4,37 27.4,36 C27.4,35.1 27.5,34.2 27.5,33.4 C27.5,32.9 27.6,32.7 28.1,32.7 C28.2,32.6 28.4,32.6 28.5,32.7 C28.8,33.3 28.6,34 28.6,34.6 C28.6,35 28.5,35.4 28.5,35.8 C29.3,35.6 29.2,35.6 29.3,34.8 C29.3,34 29.3,33.2 29.6,32.4 C29.7,32.3 29.7,32.3 29.8,32.3 C31,32.3 32.2,32.1 33.3,32.2 C33.4,32.3 33.6,32.3 33.7,32.3 C33.9,32.5 33.8,32.7 33.8,32.8 C33.7,33.5 33.6,34.3 33.5,35 C33.5,35.1 33.5,35.2 33.6,35.3 C33.3,35.5 32.9,35.6 32.5,35.6 C32.3,35.7 32,35.8 31.8,35.9 L31.8,35.9 C31.5,35.9 31.3,36.1 31.1,36.3 C31,36.4 31,36.7 30.7,36.6 C30.6,36.6 30.5,36.7 30.4,36.7 C30.1,36.9 29.8,37 29.7,37.4 C29.6,37.6 29.3,37.6 29.1,37.7 C28.8,38.1 28.2,38.2 27.9,38.5 L27.9,38.5 C27.8,39 27.7,39.1 27.5,39.1" id="Path" fill="#E83C3A"></path>
                <path d="M30.4,39.9 C31.1,39.7 31.5,39.1 32.1,38.8 C32.7,38.5 32.7,38.4 33.1,38.9 C33.2,39.4 32.8,39.5 32.5,39.6 C32,40 31.5,40.2 30.9,40.5 C30.5,40.7 30.2,40.7 30.1,40.1 C30.2,40 30.3,39.9 30.4,39.9" id="Path" fill="#E83C3A"></path>
                <path d="M34.2,43.2 C33.7,43.7 33.2,44.3 32.7,44.8 C32.5,45 32.3,44.7 32,44.7 C31.9,44.8 31.8,44.7 31.8,44.6 C31.9,44.4 32.2,44.3 32.4,44.2 C33.2,43.6 33.2,43.6 33.4,42.8 C33.6,43 33.7,43.5 34.2,43.2" id="Path" fill="#282727"></path>
                <path d="M31.5,42.4 C31.7,41.9 32,41.8 32.4,42.3 C32.2,42.3 31.9,42.7 31.5,42.4" id="Path" fill="#E83C3A"></path>
                <path d="M28,38.9 C28.3,38.5 28.8,38.3 29.2,38.1 C29,38.6 28.4,38.7 28,38.9" id="Path" fill="#4A4A49"></path>
                <path d="M29.8,37.7 C29.9,37.3 30.2,37.1 30.6,36.9 C30.8,36.9 30.8,37 30.7,37.1 C30.4,37.4 30.1,37.5 29.8,37.7" id="Path" fill="#4A4A49"></path>
                <path d="M31.8,44.6 C31.9,44.6 32,44.7 32,44.7 C31.8,44.9 31.5,45 31.3,45.2 C31.2,45.1 31.2,45.1 31.1,45 C31.3,44.8 31.5,44.7 31.8,44.6" id="Path" fill="#555454"></path>
                <path d="M31.1,36.6 C31.2,36.3 31.4,36.1 31.8,36.2 C31.6,36.4 31.4,36.5 31.1,36.6" id="Path" fill="#575756"></path>
                <path d="M32.8,42.3 C32.8,42.3 32.9,42.2 32.9,42.2 C33.1,42.3 33.2,42.4 33.2,42.7 C33,42.6 32.9,42.5 32.8,42.3" id="Path" fill="#5C5C5B"></path>
                <path d="M31.8,36.2 C31.9,35.9 32.2,35.9 32.5,35.8 C32.3,36.2 32,36.2 31.8,36.2" id="Path" fill="#575756"></path>
                <path d="M30.6,37.2 C30.6,37.1 30.5,37 30.5,37 C30.6,36.9 30.7,36.9 30.7,37 C30.5,37.2 30.9,37.3 30.9,37.5 C30.7,37.5 30.7,37.3 30.6,37.2" id="Path" fill="#575756"></path>
                <path d="M27.5,39.1 C27.6,38.9 27.8,38.8 28,38.9 C27.9,39.1 27.8,39.2 27.6,39.3 C27.6,39.2 27.5,39.2 27.5,39.1" id="Path" fill="#3C3C3B"></path>
                <path d="M31.4,38.1 C31.5,38 31.6,38 31.6,38 C31.7,38 31.8,38 31.8,38.2 C31.8,38.2 31.7,38.3 31.7,38.3 C31.6,38.2 31.5,38.2 31.4,38.1" id="Path" fill="#878787"></path>
                <path d="M30.4,39.9 C30.3,40 30.3,40.1 30.2,40.1 C30.1,40.1 30,40.2 30,40 C30,39.9 30.1,39.8 30.2,39.7 C30.3,39.8 30.4,39.8 30.4,39.9" id="Path" fill="#4A4847"></path>
                <path d="M34.6,36.4 C34.6,36.5 34.8,36.6 34.6,36.8 C34.6,36.6 34.3,36.7 34.4,36.5 C34.4,36.4 34.6,36.4 34.6,36.4" id="Path" fill="#777776"></path>
                <path d="M30.8,42.3 C30.8,42.3 30.9,42.4 30.9,42.4 C30.8,42.5 30.6,42.7 30.5,42.5 C30.4,42.4 30.6,42.3 30.8,42.3" id="Path" fill="#4A4A49"></path>
                <path d="M33.3,45.9 C33.6,45.6 34,45.4 34,44.9 C34.3,45.3 34.1,45.6 33.9,45.8 C33.7,46 33.5,46.1 33.2,46.2 C33.1,46 33.2,45.9 33.3,45.9" id="Path" fill="#525251"></path>
                <path d="M33.3,45.9 C33.3,46 33.2,46.1 33.2,46.2 C33.1,46.5 32.9,46.5 32.6,46.4 C33.1,45.6 33.1,45.6 33.3,45.9" id="Path" fill="#424241"></path>
                <path d="M32.1,46.9 C32.1,46.6 32.3,46.7 32.4,46.6 C32.3,46.7 32.2,46.8 32.1,46.9" id="Path" fill="#8C8C8B"></path>
                <path d="M45.1,32.1 C44.9,32.1 44.6,32 44.4,32 C44.2,31.9 43.9,31.8 43.7,31.7 C43.5,31.4 43.8,31.5 43.9,31.5 C44.6,31.5 45.2,31.5 45.9,31.5 C46.1,31.5 46.3,31.5 46.4,31.5 C46.5,31.5 46.7,31.5 46.7,31.7 C46.7,31.9 46.6,32 46.4,32 C46,32 45.6,32.1 45.1,32.1" id="Path" fill="#F4F4F4"></path>
                <path d="M53.6,29.8 C53.5,29.8 53.4,29.8 53.3,29.9 C53.3,29.8 53.3,29.8 53.3,29.7 C53.7,29.6 54.1,29.6 54.5,29.7 C54.5,29.7 54.5,29.7 54.5,29.7 C54.5,29.7 54.5,29.7 54.5,29.8 C54.1,29.9 53.8,29.9 53.6,29.8" id="Path" fill="#C8C8C8"></path>
                <path d="M47.5,31.5 C47.5,31.5 47.5,31.4 47.5,31.4 C47.7,31.4 47.9,31.3 48.1,31.5 C48,31.6 47.8,31.8 47.5,31.5" id="Path" fill="#BBBABA"></path>
                <path d="M53.6,29.8 C53.9,29.8 54.2,29.8 54.4,29.8 C54.1,29.9 53.8,30 53.6,29.8" id="Path" fill="#C2C2C2"></path>
                <path d="M56.5,44.1 C56.3,44.1 56.3,44 56.2,43.9 C56.2,43.9 56.3,43.9 56.3,43.9 C56.4,43.9 56.5,44 56.5,44.1" id="Path" fill="#C4C4C4"></path>
                <path d="M53.1,47.6 C53.3,48.4 53,49.1 52.4,49.3 C52.1,49.4 51.9,49.4 52,48.9 C52.2,48.3 52.3,48 53.1,47.6" id="Path" fill="#FBFBFB"></path>
                <path d="M16.9,9.3 C17,9.2 17.2,9.1 17.3,9 C17.4,8.9 17.5,8.8 17.7,8.9 C18,9.2 18.6,9.2 18.8,9.7 C18.9,9.9 19,10 19.1,9.7 C19.2,9.5 19.4,9.6 19.5,9.7 C20.2,10.4 21.1,10.9 21.2,12 C21.3,12.6 21.5,13.2 21.4,13.8 C21.4,14.3 21.2,14.5 20.7,14.4 C20.1,14.3 19.5,14.3 18.9,14.5 C18.5,14.7 18.1,15 18,15.4 C17.9,15.6 17.7,16 18.2,16.1 C18.2,16.1 18.3,16.1 18.3,16.1 C18.5,17 19.4,17 20,17.2 C20.4,17.3 20.5,17.5 20.5,17.9 C20.3,19.5 19.8,20.8 18.9,22.1 C18,23.4 16.8,24.6 16.1,26 C15.9,26.5 15.5,26.7 14.8,26.5 C13,26 11.4,25 9.8,24 C9.1,23.5 8.7,22.7 8.3,22 C8.2,21.8 8.1,21.6 7.9,21.4 C7.1,20.4 7.1,19.4 7.5,18.3 C7.8,17.5 8.1,16.6 8,15.7 C7.8,14.3 8.2,13.6 9.5,13.1 C10.1,12.9 10.7,12.6 11.3,12.3 C11.4,12.3 12,12.3 11.5,11.9 C11.4,11.8 11.5,11.8 11.6,11.7 C12.1,11.4 12.3,10.9 12.7,10.6 C13.5,10 14.4,9.4 15.6,9.7 C15.7,9.7 15.8,9.7 15.8,9.6 C16,9.2 16.3,9.4 16.5,9.5 C17,9.8 16.7,9.3 16.9,9.3" id="Path" fill="#FFFFFF"></path>
                <path d="M19.4,15.1 C19.9,15.1 20.2,14.8 20.6,14.8 C21.4,14.8 21.5,14.9 21.4,15.6 C21.4,15.7 21.4,15.9 21.2,16 C20.7,15.5 20,15.5 19.4,15.1" id="Path" fill="#FAFAFA"></path>
                <path d="M6.7,13.1 C7,13.3 7,13.6 7,13.9 C7.1,14.2 6.9,14.7 6.7,14.7 C6.4,14.7 6.6,14.3 6.6,14 C6.6,13.7 6.5,13.4 6.7,13.1" id="Path" fill="#F0F0F0"></path>
                <path d="M2.3,19.2 C2.6,19.3 2.6,19.5 2.6,19.7 C2.7,19.9 2.6,20.1 2.4,20.3 C2.3,20.1 2,20.1 2,19.8 C1.9,19.5 2.3,19.5 2.3,19.2" id="Path" fill="#EDEDED"></path>
                <path d="M21.9,9.6 C21.9,9.7 21.9,9.8 21.9,9.9 C21.4,9.5 21.3,9 21.7,8.8 C21.8,8.8 21.8,8.6 21.9,8.7 C22.1,8.8 22.1,8.9 22,9 C21.9,9.2 22,9.4 21.9,9.6" id="Path" fill="#EFEEEE"></path>
                <path d="M3.4,13.6 C3.2,14 3,14.3 2.6,14.3 C2.5,14.3 2.4,14.4 2.3,14.3 C2.2,14.1 2.4,14 2.5,14 C2.8,13.9 3.1,13.7 3.4,13.6" id="Path" fill="#E5E5E5"></path>
                <path d="M2.3,10.1 C2.1,9.7 2,9.5 2.2,9.2 C2.2,9.1 2.5,9 2.5,9.1 C2.6,9.4 2.4,9.7 2.3,10.1" id="Path" fill="#D6D6D6"></path>
                <path d="M4.1,7.4 C4.4,8.1 3.8,8 3.4,8.2 C3.5,7.7 3.8,7.5 4.1,7.4" id="Path" fill="#CECECE"></path>
                <path d="M19.7,16.1 C20,16.3 20,16.5 19.9,16.7 C19.9,16.7 19.7,16.8 19.6,16.7 C19.6,16.6 19.7,16.4 19.7,16.1" id="Path" fill="#E7E7E7"></path>
                <path d="M13,27.4 C13.2,27.5 13.4,27.6 13.2,27.9 C13.2,28 13,28 12.9,28 C12.8,27.8 12.9,27.6 13,27.4" id="Path" fill="#F6F6F6"></path>
                <path d="M2.2,16.2 C2.1,15.9 2.3,15.7 2.4,15.6 C2.4,15.6 2.5,15.7 2.5,15.7 C2.6,15.9 2.3,16 2.2,16.2" id="Path" fill="#E7E7E7"></path>
                <path d="M5.1,24.7 C5.1,24.9 5,24.9 4.9,24.9 C4.7,24.9 4.8,24.8 4.8,24.7 C4.8,24.6 4.8,24.5 5,24.5 C5.1,24.6 5.1,24.6 5.1,24.7" id="Path" fill="#E9E9E9"></path>
                <path d="M16.9,9.3 C16.8,9.5 17,9.7 17,9.9 C16.8,10 16.7,9.8 16.6,9.7 C16.8,9.6 16.7,9.3 16.9,9.3" id="Path" fill="#575756"></path>
                <path d="M12.2,6.7 C12.2,6.7 12.1,6.6 12.1,6.6 C12.1,6.5 12.2,6.5 12.2,6.5 C12.3,6.5 12.4,6.5 12.4,6.6 C12.4,6.8 12.3,6.7 12.2,6.7" id="Path" fill="#686867"></path>
                <path d="M1.8,24.5 C1.7,24.5 1.7,24.6 1.6,24.6 C1.5,24.6 1.4,24.6 1.4,24.5 C1.4,24.5 1.5,24.4 1.5,24.4 C1.5,24.3 1.6,24.4 1.8,24.5" id="Path" fill="#B2B2B2"></path>
                <path d="M27.8,32.6 C27.5,32.6 27.4,32.6 27.4,32.3 C27.4,31.6 27.4,30.9 27.4,30.2 C27.4,29.9 27.5,29.7 27.8,29.7 C29.7,29.8 31.6,29.9 33.6,30 C34,30 34.1,30.1 34,30.5 C33.9,30.9 33.8,31.4 33.8,31.8 C33.8,32.1 33.7,32.2 33.4,32.3 C32.9,32.5 32.3,32.3 31.7,32.5 C31,32.6 30.3,32.5 29.7,32.6 C29.4,32.7 29.2,32.7 28.9,32.7 C28.5,32.7 28.2,32.5 27.8,32.6" id="Path" fill="#FFFFFF"></path>
                <path d="M22.2,31.8 C23.1,33.5 24.4,35 25.8,36.4 C25.7,36.4 25.5,36.4 25.4,36.5 C24,35.4 22.9,34 22.1,32.3 C22,32.1 21.9,31.9 22.2,31.8" id="Path" fill="#212121"></path>
                <path d="M27.4,21.2 C27.8,21.3 27.9,20.9 28.1,20.6 C28.4,20.9 29,21 28.7,21.7 C28.7,21.8 28.8,21.9 28.8,21.9 C29.3,21.6 29.2,22.1 29.1,22.2 C29,22.4 28.9,22.7 28.4,22.6 C27.9,22.5 27.8,22 27.4,21.7 C27.3,21.6 27.2,21.5 27.2,21.4 C27.3,21.2 27.3,21.2 27.4,21.2" id="Path" fill="#FDFDFD"></path>
                <path d="M27,19.9 C26.8,19.2 26.9,18.5 26.8,17.9 C26.8,17.8 26.8,17.7 26.9,17.7 C27,17.7 27.1,17.7 27.2,17.9 C27.3,18.2 27.5,18.4 27.2,18.8 C27,19.1 26.9,19.4 27.1,19.8 C27.1,19.8 27.1,19.9 27,19.9" id="Path" fill="#F0F0F0"></path>
                <path d="M27,19.9 C27,19.8 27.1,19.7 27.1,19.7 C27.1,19.7 27.2,19.8 27.2,19.8 C27.5,19.9 27.2,19.3 27.5,19.5 C27.7,19.7 27.7,20 27.7,20.3 C27.7,20.5 27.6,20.6 27.5,20.8 C27.3,20.5 27.1,20.3 27,19.9" id="Path" fill="#F8F8F8"></path>
                <path d="M27.1,34.7 C27.2,35.2 27.2,35.6 27.1,36 C26.5,35.8 26.3,35.9 27.1,34.7" id="Path" fill="#F0F0F0"></path>
                <path d="M26.1,19.3 C25.8,18.8 25.8,18.2 25.9,17.7 C25.9,17.5 26.1,17.5 26.2,17.5 C26.4,17.6 26.3,17.7 26.2,17.8 C26,18.1 26,18.4 26.1,18.7 C26.2,19 26.2,19.1 26.1,19.3" id="Path" fill="#E0E0E0"></path>
                <path d="M25.4,40.5 C25.5,40.3 25.8,40.1 25.8,39.9 C25.8,39.6 26,39.7 26.1,39.7 C26.3,39.8 26.3,40 26.2,40.1 C25.9,40.3 25.8,40.7 25.3,40.8 C25.2,40.6 25.3,40.5 25.4,40.5" id="Path" fill="#E2E1E1"></path>
                <path d="M35.4,34.9 C35.3,34.4 35.5,34 35.5,33.5 C35.8,34.1 35.8,34.4 35.4,34.9" id="Path" fill="#E0E0E0"></path>
                <path d="M27.4,21.2 C27.4,21.2 27.3,21.3 27.3,21.3 C27,21.1 26.9,20.9 26.7,20.6 C26.6,20.5 26.7,20.5 26.8,20.5 C26.9,20.8 27.4,20.8 27.4,21.2" id="Path" fill="#E0E0E0"></path>
                <path d="M31.7,32.3 C32.3,32.2 32.8,32.2 33.4,32.2 C33.5,32.3 33.6,32.3 33.6,32.4 C33.5,32.4 33.4,32.4 33.2,32.4 C32.8,32.3 32.2,32.5 31.7,32.3" id="Path" fill="#4A4A49"></path>
                <path d="M27.8,32.6 C28.1,32.5 28.5,32.5 28.8,32.5 C28.8,32.6 28.9,32.6 28.8,32.7 C28.7,32.9 28.5,32.9 28.4,32.8 C28.3,32.8 28.2,32.8 28,32.8 C28,32.7 27.9,32.6 27.8,32.6" id="Path" fill="#575756"></path>
                <path d="M25.4,40.5 C25.4,40.6 25.3,40.7 25.3,40.7 C25.2,40.7 25.1,40.7 25.1,40.7 C25.1,40.5 25.2,40.4 25.3,40.3 C25.3,40.4 25.4,40.4 25.4,40.5" id="Path" fill="#3F3F3E"></path>
                <path d="M26.8,20.5 C26.8,20.5 26.7,20.6 26.7,20.6 C26.6,20.5 26.5,20.3 26.5,20.1 C26.6,20.2 26.7,20.3 26.8,20.5" id="Path" fill="#D0D0D0"></path>
                <path d="M42.9,10 C43.1,10 43.1,10.1 43.1,10.2 C43.1,10.2 43,10.3 43,10.3 C42.9,10.3 42.9,10.2 42.9,10.1 C42.8,10 42.9,10 42.9,10" id="Path" fill="#B2B2B2"></path>
                <path d="M40,18.4 C39.9,18.6 40,18.7 40.1,18.8 C40.2,19 40,19.1 39.9,19.2 C39.7,19.3 39.7,19.2 39.6,19.1 C39.4,18.7 39,19 38.8,18.8 C38.7,18.7 38.7,18.9 38.7,19 C38.4,19.8 37,20.1 36.4,19.4 C36.1,19.1 35.6,18.8 35.8,18.2 C35.8,18 35.6,17.9 35.4,18 C35,18.2 34.7,17.9 34.3,18 C34.1,18.1 34,17.9 33.9,17.8 C33.8,17.6 33.9,17.5 34.1,17.4 C35,16.9 36,16.6 37.1,16.9 C37.5,17 38.1,17 38.6,17 C39.4,16.8 40.1,17.4 40,18.4" id="Path" fill="#0A0A0A"></path>
                <path d="M39.8,28 C38.8,28.8 38.8,28.8 37.3,27.2 C38.2,27.4 38.8,28.3 39.8,28" id="Path" fill="#282727"></path>
                <path d="M40.1,19.7 C40,19.5 40,19.3 40.1,19.2 C40.3,19.3 40.2,19.5 40.1,19.7" id="Path" fill="#212121"></path>
                <path d="M22.2,31.8 C22,31.9 22.1,32.2 22.1,32.3 C22,32 21.9,31.7 21.9,31.4 C21.8,31.3 21.9,31.2 22,31.3 C22,31.4 22.1,31.6 22.2,31.8" id="Path" fill="#454444"></path>
                <path d="M21.9,31.3 C21.9,31.4 21.8,31.4 21.8,31.5 C21.6,31.4 21.7,31.2 21.7,31 C21.9,31 21.9,31.1 21.9,31.3" id="Path" fill="#5A5A59"></path>
                <path d="M54.6,42.2 C54.8,42.3 54.8,42.4 54.8,42.6 C54.8,42.6 54.7,42.7 54.7,42.7 C54.5,42.5 54.6,42.4 54.6,42.2" id="Path" fill="#B4B4B4"></path>
                <path d="M28.5,32.7 C28.6,32.7 28.8,32.7 28.9,32.6 C29.1,32.5 29.4,32.5 29.6,32.6 C29.6,33.6 29.5,34.6 29.5,35.6 C29.5,35.9 29.4,36 29.1,36 C28.9,36 28.6,36 28.5,36.5 C28.3,35.1 28.6,33.9 28.5,32.7" id="Path" fill="#FFFDFD"></path>
                <path d="M31.7,32.3 C32.2,32.4 32.8,32.2 33.3,32.4 C32.1,32.4 30.9,32.6 29.7,32.5 C29.7,32.5 29.7,32.4 29.7,32.4 C29.7,32.4 29.7,32.4 29.7,32.4 C30.3,32.3 31,32.3 31.7,32.3" id="Path" fill="#3C3C3B"></path>
                <path d="M29.7,32.5 C29.7,32.5 29.7,32.6 29.7,32.6 C29.7,32.6 29.6,32.6 29.6,32.6 C29.4,32.6 29.1,32.6 28.9,32.6 C28.9,32.6 28.9,32.5 28.9,32.5 C29.1,32.5 29.4,32.5 29.7,32.5" id="Path" fill="#4A4A49"></path>
                <path d="M13.2,21.7 C12.8,21.6 12.6,21.2 12.3,20.9 C12.2,20.8 12.1,20.7 12.1,20.5 C12.2,20.4 12.3,20.4 12.5,20.4 C13.5,20.4 14.4,20.6 15.3,20.9 C15.8,21.1 16.2,21.2 16.7,21.2 C17,21.2 17.4,21.1 17.4,21.7 C17.4,21.8 17.5,21.8 17.6,21.8 C17.7,21.8 17.8,21.8 17.8,21.9 C17.9,22.1 17.8,22.2 17.7,22.3 C17.4,22.5 17.4,23.1 17,23 C16.3,22.8 15.6,22.8 15,22.5 C15,22.3 15.1,22.3 15.2,22.3 C15.5,22.2 15.9,22.4 16.2,22.4 C16.3,22.4 16.4,22.4 16.4,22.3 C16.4,22.2 16.3,22.2 16.3,22.1 C15.6,21.7 14.8,21.5 14,21.5 C13.8,21.5 13.7,21.7 13.6,21.8 C13.5,21.8 13.4,21.8 13.2,21.7" id="Path" fill="#131313"></path>
                <path d="M13.3,13.4 C13.9,13.5 14.5,13.5 15,13.7 C15.3,13.8 15.5,14.1 15.6,14.3 C15.7,14.6 15.2,14.8 15.4,15.1 C15.1,15.2 14.8,15.3 14.6,15.3 C13.7,15 12.7,14.8 11.9,14 C11.8,13.9 11.7,13.8 11.9,13.7 C12.4,13.5 12.9,13.4 13.3,13.4" id="Path" fill="#131313"></path>
                <path d="M18.1,21.3 C17.7,20.7 16.9,21 16.7,20.4 C16.4,19.7 15.9,19.2 15.1,19 C15,19 15,18.8 14.9,18.7 C15.4,18.8 15.9,18.8 16.4,18.9 C16.7,18.9 16.9,19.1 17.1,19.3 C17.3,19.6 17.6,19.8 18,19.6 C18.2,19.5 18.4,19.6 18.3,19.9 C18.2,20.3 18.2,20.7 18.1,21.3" id="Path" fill="#131313"></path>
                <path d="M14.7,12.2 C15.3,12.4 15.9,12.6 16.3,13.1 C16.5,13.4 16.7,13.7 16.4,14 C16,13.2 15.3,12.7 14.5,12.3 C14.6,12.2 14.6,12.1 14.7,12.2" id="Path" fill="#333332"></path>
                <path d="M15,23.3 C15.6,23.4 16.1,23.6 16.7,23.3 C16.8,23.3 16.9,23.3 16.9,23.4 C16.9,23.5 16.9,23.6 16.8,23.7 C16.4,24 15.9,24 15.4,23.8 C15.2,23.7 15,23.6 14.8,23.5 C14.8,23.3 14.8,23.2 15,23.3" id="Path" fill="#3A3938"></path>
                <path d="M15.2,22.3 C15.1,22.3 15,22.4 14.9,22.4 C14.3,22.3 13.7,22 13.2,21.7 C13.3,21.7 13.4,21.6 13.4,21.6 C14.2,21.5 14.7,21.9 15.2,22.3" id="Path" fill="#3C3C3B"></path>
                <path d="M13.4,19.1 C13,19.4 12.5,19.7 11.9,19.8 C12.3,19.2 12.9,19.2 13.3,19 C13.4,18.9 13.4,18.9 13.4,19.1" id="Path" fill="#3A3938"></path>
                <path d="M13.4,19.1 C13.4,19.1 13.3,19 13.3,19 C13.4,18.9 13.6,18.8 13.8,18.8 C13.7,18.9 13.5,19 13.4,19.1" id="Path" fill="#777776"></path>
                <path d="M15,23.3 C14.9,23.3 14.9,23.4 14.8,23.4 C14.7,23.3 14.6,23.3 14.5,23.2 C14.7,23.1 14.8,23.2 15,23.3" id="Path" fill="#727271"></path>
                <path d="M13.3,12.2 C13.2,12.2 13.2,12.1 13.1,12.1 C13,12 13.1,12 13.2,12 C13.3,12 13.3,12 13.3,12.1 C13.4,12 13.4,12.1 13.3,12.2" id="Path" fill="#646363"></path>
                <path d="M14.7,12.2 C14.7,12.2 14.6,12.3 14.6,12.3 C14.5,12.3 14.3,12.3 14.2,12.1 C14.4,12 14.6,12 14.7,12.2" id="Path" fill="#555454"></path>
                <path d="M36.9,18.2 C36.6,18.1 36.2,18.1 35.9,17.9 C36.7,17.7 37.5,17.7 38.2,17.7 C38.5,17.7 38.7,17.8 38.3,18.3 C37.7,18.9 37.7,19 36.9,18.7 C36.8,18.7 36.6,18.7 36.6,18.5 C36.6,18.3 36.8,18.4 36.9,18.3 C37,18.2 37.2,18.2 37.3,18.2 C37.3,18.3 37.1,18.2 36.9,18.2" id="Path" fill="#FBFBFB"></path>
                <path d="M36.9,18.2 C37.2,18 37.4,18.1 37.8,18.1 C37.5,18.3 37.3,18.3 37,18.3 C37,18.3 37,18.2 36.9,18.2" id="Path" fill="#7C7C7B"></path>
                <path d="M15.2,22.3 C14.6,22.1 14.1,21.7 13.5,21.6 C13.4,21.3 13.5,21.1 13.9,21.1 C14.6,21.2 15.4,21.3 16.1,21.6 C16.2,21.7 16.4,21.7 16.5,21.8 C16.6,21.9 16.9,22 16.7,22.2 C16.6,22.4 16.4,22.4 16.2,22.4 C15.9,22.4 15.5,22.4 15.2,22.3" id="Path" fill="#FBFBFB"></path>
                <path d="M14.5,15 C14.4,14.9 14,15 14,14.8 C14,14.6 14.1,14.3 14.4,14.3 C14.6,14.3 14.8,14.6 14.8,14.8 C14.9,15.1 14.6,15 14.5,15" id="Path" fill="#EBEBEB"></path>
            </g>
        </g>
    </g>
</svg>