<svg xmlns="http://www.w3.org/2000/svg" width="120" height="80" viewBox="0 0 120 80">
  <g fill="none" fill-rule="evenodd">
    <rect width="120" height="80" fill="#000000" rx="4"/>
    <g transform="translate(22 10)">
      <path fill="#FFFFFF" d="M64.7120591,58.7021115 L64.7120591,58.8565085 L64.85463,58.8565085 C64.8874804,58.8565085 64.9131038,58.8499384 64.932814,58.8374552 C64.9518673,58.8249721 64.9617224,58.8052618 64.9617224,58.7783245 C64.9617224,58.7533581 64.9518673,58.7343049 64.932814,58.7211647 C64.9131038,58.7086816 64.8874804,58.7021115 64.85463,58.7021115 L64.7120591,58.7021115 Z M64.855944,58.5937051 C64.930843,58.5937051 64.9880027,58.6101303 65.0280803,58.6429807 C65.0688148,58.6764881 65.0885251,58.7211647 65.0885251,58.7783245 C65.0885251,58.8262861 65.0727569,58.8663636 65.0405634,58.897243 C65.00837,58.9281224 64.9630364,58.9471757 64.9032486,58.9544028 L65.0931241,59.1731866 L64.9446402,59.1731866 L64.7692189,58.9563738 L64.7120591,58.9563738 L64.7120591,59.1731866 L64.5885415,59.1731866 L64.5885415,58.5937051 L64.855944,58.5937051 Z M64.8191515,59.3722602 C64.8868234,59.3722602 64.9492392,59.3597771 65.007713,59.3341537 C65.0661868,59.3085304 65.1167764,59.2737089 65.160796,59.2303464 C65.2048156,59.1863268 65.23898,59.1344231 65.2639463,59.0752923 C65.2889127,59.0161616 65.3013958,58.9530887 65.3013958,58.8854169 C65.3013958,58.818402 65.2889127,58.7553292 65.2639463,58.6961984 C65.23898,58.6370676 65.2048156,58.5851639 65.160796,58.5411444 C65.1167764,58.4977818 65.0661868,58.4636174 65.007713,58.437994 C64.9492392,58.4130277 64.8868234,58.4005445 64.8191515,58.4005445 C64.7508227,58.4005445 64.6870928,58.4130277 64.627305,58.437994 C64.5675173,58.4636174 64.5162706,58.4977818 64.472251,58.5411444 C64.4282314,58.5851639 64.394067,58.6370676 64.3691007,58.6961984 C64.3441344,58.7553292 64.3316512,58.818402 64.3316512,58.8854169 C64.3316512,58.9530887 64.3441344,59.0161616 64.3691007,59.0752923 C64.394067,59.1344231 64.4282314,59.1863268 64.472251,59.2303464 C64.5162706,59.2737089 64.5675173,59.3085304 64.627305,59.3341537 C64.6870928,59.3597771 64.7508227,59.3722602 64.8191515,59.3722602 Z M64.8191515,58.2612587 C64.9071907,58.2612587 64.9893168,58.2776839 65.0668438,58.3105344 C65.1437138,58.3433848 65.2107287,58.3874044 65.2685454,58.4445641 C65.3257052,58.5010668 65.3716958,58.5674247 65.4045462,58.6429807 C65.4373966,58.7191937 65.4544788,58.8000057 65.4544788,58.8854169 C65.4544788,58.971485 65.4373966,59.052297 65.4045462,59.127853 C65.3716958,59.202752 65.3257052,59.2691099 65.2685454,59.3256126 C65.2107287,59.3821153 65.1437138,59.4267919 65.0668438,59.4602994 C64.9893168,59.4931498 64.9071907,59.510232 64.8191515,59.510232 C64.7297984,59.510232 64.6457013,59.4931498 64.5675173,59.4602994 C64.4899903,59.4267919 64.4223184,59.3821153 64.3651586,59.3256126 C64.3079989,59.2691099 64.2626653,59.202752 64.2298149,59.127853 C64.1963074,59.052297 64.1798822,58.971485 64.1798822,58.8854169 C64.1798822,58.8000057 64.1963074,58.7191937 64.2298149,58.6429807 C64.2626653,58.5674247 64.3079989,58.5010668 64.3651586,58.4445641 C64.4223184,58.3874044 64.4899903,58.3433848 64.5675173,58.3105344 C64.6457013,58.2776839 64.7297984,58.2612587 64.8191515,58.2612587 Z M55.3720253,52.7450148 C55.6479689,52.7450148 56.041517,52.7975754 56.343084,52.915837 L55.9232555,54.2016028 C55.6348287,54.0833412 55.345745,54.0439207 55.0704584,54.0439207 C54.1782407,54.0439207 53.7321319,54.6214312 53.7321319,55.6581908 L53.7321319,59.1745006 L52.3675251,59.1745006 L52.3675251,52.9026968 L53.7189917,52.9026968 L53.7189917,53.6635127 C54.0731194,53.1122826 54.584929,52.7450148 55.3720253,52.7450148 Z M50.6494477,54.1490421 L48.4189036,54.1490421 L48.4189036,56.9833771 C48.4189036,57.6127913 48.6422865,58.0332767 49.3242614,58.0332767 C49.678389,58.0332767 50.1244979,57.9150152 50.5318432,57.6784921 L50.9253913,58.8466534 C50.4924227,59.1482203 49.8097908,59.3321827 49.21914,59.3321827 C47.605527,59.3321827 47.0411566,58.4662454 47.0411566,57.0096574 L47.0411566,54.1490421 L45.768531,54.1490421 L45.768531,52.9026968 L47.0411566,52.9026968 L47.0411566,51 L48.4189036,51 L48.4189036,52.9026968 L50.6494477,52.9026968 L50.6494477,54.1490421 Z M44.0925022,54.5031697 C43.7120942,54.2673036 42.9381381,53.9657367 42.1372447,53.9657367 C41.3895689,53.9657367 40.9434601,54.2410233 40.9434601,54.7002723 C40.9434601,55.1201007 41.4158493,55.2383623 42.0065,55.3165463 L42.6490543,55.4085275 C44.0136611,55.6056301 44.8401779,56.1831406 44.8401779,57.284944 C44.8401779,58.4787286 43.7909352,59.3321827 41.9802196,59.3321827 C40.9566003,59.3321827 40.0118219,59.0693793 39.2641462,58.5181491 L39.9067006,57.4557662 C40.3659496,57.8098938 41.0485815,58.1114608 41.9933598,58.1114608 C42.9249979,58.1114608 43.4236674,57.8361742 43.4236674,57.3506448 C43.4236674,56.9965172 43.0688828,56.7994147 42.3212071,56.6949503 L41.6779957,56.6029691 C40.2746254,56.4058665 39.5131524,55.7757953 39.5131524,54.752833 C39.5131524,53.5058307 40.5367718,52.7450148 42.1247615,52.7450148 C43.1214435,52.7450148 44.0268013,52.9683977 44.6831529,53.4013663 L44.0925022,54.5031697 Z M33.6749743,55.4873685 C33.8188592,54.5820107 34.3700893,53.9657367 35.341148,53.9657367 C36.2202255,53.9657367 36.7845958,54.5163099 36.9284807,55.4873685 L33.6749743,55.4873685 Z M38.3456482,56.0385987 C38.332508,54.0833412 37.1255833,52.7450148 35.3674284,52.7450148 C33.5304324,52.7450148 32.2446666,54.0833412 32.2446666,56.0385987 C32.2446666,58.0332767 33.5829931,59.3321827 35.4594096,59.3321827 C36.4041879,59.3321827 37.2701252,59.0956596 38.0309411,58.4531052 L37.3614494,57.442626 C36.8364995,57.8624545 36.1676648,58.0983206 35.5375936,58.0983206 C34.6585161,58.0983206 33.8582797,57.6916323 33.6611771,56.5635486 L38.3193679,56.5635486 C38.332508,56.3927263 38.3456482,56.2225611 38.3456482,56.0385987 Z M60.1195692,54.0281525 C59.8403406,54.0281525 59.5801652,54.0774281 59.3403571,54.1753224 C59.0998919,54.2738737 58.8929342,54.4111885 58.71817,54.5879238 C58.5434057,54.7646591 58.4060909,54.9768729 58.3055686,55.2232511 C58.2050463,55.4702863 58.1551136,55.7416309 58.1551136,56.0385987 C58.1551136,56.3355666 58.2050463,56.6075681 58.3055686,56.8539464 C58.4060909,57.1003246 58.5434057,57.3125383 58.71817,57.4892737 C58.8929342,57.666009 59.0998919,57.8033237 59.3403571,57.901875 C59.5801652,58.0004263 59.8403406,58.049045 60.1195692,58.049045 C60.3987979,58.049045 60.6589733,58.0004263 60.8987814,57.901875 C61.1392465,57.8033237 61.3475183,57.666009 61.5242536,57.4892737 C61.7009889,57.3125383 61.8396177,57.1003246 61.94014,56.8539464 C62.0406623,56.6075681 62.091252,56.3355666 62.091252,56.0385987 C62.091252,55.7416309 62.0406623,55.4702863 61.94014,55.2232511 C61.8396177,54.9768729 61.7009889,54.7646591 61.5242536,54.5879238 C61.3475183,54.4111885 61.1392465,54.2738737 60.8987814,54.1753224 C60.6589733,54.0774281 60.3987979,54.0281525 60.1195692,54.0281525 Z M60.1195692,52.7377877 C60.6044416,52.7377877 61.0531784,52.8218848 61.4657798,52.990079 C61.8783812,53.1582732 62.2351368,53.3895402 62.5360468,53.68388 C62.8376137,53.9788769 63.0734798,54.3270914 63.243645,54.7285236 C63.4138102,55.1306129 63.4992213,55.5668666 63.4992213,56.0385987 C63.4992213,56.5103309 63.4138102,56.9465846 63.243645,57.3480168 C63.0734798,57.7501061 62.8376137,58.0983206 62.5360468,58.3933174 C62.2351368,58.6876573 61.8783812,58.9189243 61.4657798,59.0871185 C61.0531784,59.2553127 60.6044416,59.3394098 60.1195692,59.3394098 C59.6353539,59.3394098 59.1866171,59.2553127 58.7740157,59.0871185 C58.3607573,58.9189243 58.0053157,58.6876573 57.7063768,58.3933174 C57.4067809,58.0983206 57.1722288,57.7501061 57.0020636,57.3480168 C56.8318984,56.9465846 56.7464872,56.5103309 56.7464872,56.0385987 C56.7464872,55.5668666 56.8318984,55.1306129 57.0020636,54.7285236 C57.1722288,54.3270914 57.4067809,53.9788769 57.7063768,53.68388 C58.0053157,53.3895402 58.3607573,53.1582732 58.7740157,52.990079 C59.1866171,52.8218848 59.6353539,52.7377877 60.1195692,52.7377877 Z M25.8427751,56.0385987 C25.8427751,54.9361383 26.5641705,54.0314375 27.7448149,54.0314375 C28.8735556,54.0314375 29.6343716,54.8967178 29.6343716,56.0385987 C29.6343716,57.1798226 28.8735556,58.0457599 27.7448149,58.0457599 C26.5641705,58.0457599 25.8427751,57.1404021 25.8427751,56.0385987 Z M30.9201373,56.0385987 L30.9201373,52.9026968 L29.5555305,52.9026968 L29.5555305,53.6635127 C29.1225619,53.0991424 28.4668673,52.7450148 27.5746497,52.7450148 C25.8158378,52.7450148 24.4387478,54.1227617 24.4387478,56.0385987 C24.4387478,57.9544357 25.8158378,59.3321827 27.5746497,59.3321827 C28.4668673,59.3321827 29.1225619,58.9773981 29.5555305,58.4136847 L29.5555305,59.1745006 L30.9201373,59.1745006 L30.9201373,56.0385987 Z M23.231166,59.1745006 L23.231166,55.2383623 C23.231166,53.7554939 22.2863877,52.7581549 20.7647559,52.7450148 C19.9645194,52.7318746 19.1373456,52.9815378 18.5604921,53.8606153 C18.1268665,53.1648432 17.4448916,52.7450148 16.4869731,52.7450148 C15.8174813,52.7450148 15.1617868,52.9421173 14.6499771,53.6766529 L14.6499771,52.9026968 L13.2853703,52.9026968 L13.2853703,59.1745006 L14.6631173,59.1745006 L14.6631173,55.6976113 C14.6631173,54.6082911 15.2669082,54.0314375 16.1985463,54.0314375 C17.1039041,54.0314375 17.5631531,54.6214312 17.5631531,55.6844711 L17.5631531,59.1745006 L18.9409001,59.1745006 L18.9409001,55.6976113 C18.9409001,54.6082911 19.5703143,54.0314375 20.4756721,54.0314375 C21.4073103,54.0314375 21.8534191,54.6214312 21.8534191,55.6844711 L21.8534191,59.1745006 L23.231166,59.1745006 L23.231166,59.1745006 Z"/>
      <polygon fill="#7375CF" points="28.014 42.573 48.709 42.573 48.709 5.383 28.014 5.383"/>
      <path fill="#EB001B" d="M29.3275486,23.9788418 C29.3275486,16.4337554 32.8602837,9.71387171 38.3614164,5.38287122 C34.3385529,2.21608991 29.2618477,0.32653326 23.7442897,0.32653326 C10.6823023,0.32653326 0.0939522256,10.9155404 0.0939522256,23.9788418 C0.0939522256,37.0414862 10.6823023,47.6304933 23.7442897,47.6304933 C29.2618477,47.6304933 34.3385529,45.7409367 38.3614164,42.5741554 C32.8602837,38.2431549 29.3275486,31.5232712 29.3275486,23.9788418"/>
      <path fill="#00A1DF" d="M75.890403,38.634732 L75.890403,37.716891 L75.6505948,37.716891 L75.3753082,38.3482762 L75.0993646,37.716891 L74.8595565,37.716891 L74.8595565,38.634732 L75.0290647,38.634732 L75.0290647,37.9422449 L75.2872691,38.5394657 L75.4626904,38.5394657 L75.7215518,37.9409309 L75.7215518,38.634732 L75.890403,38.634732 Z M74.3727132,38.634732 L74.3727132,37.873259 L74.6795362,37.873259 L74.6795362,37.718205 L73.897696,37.718205 L73.897696,37.873259 L74.204519,37.873259 L74.204519,38.634732 L74.3727132,38.634732 L74.3727132,38.634732 Z"/>
      <path fill="#00A2E5" d="M76.6288806,23.9788418 C76.6288806,37.0414862 66.0405305,47.6304933 52.9785431,47.6304933 C47.4609851,47.6304933 42.3842799,45.7409367 38.3614164,42.5741554 C43.8625492,38.2431549 47.3952843,31.5232712 47.3952843,23.9788418 C47.3952843,16.4337554 43.8625492,9.71387171 38.3614164,5.38287122 C42.3842799,2.21608991 47.4609851,0.32653326 52.9785431,0.32653326 C66.0405305,0.32653326 76.6288806,10.9155404 76.6288806,23.9788418"/>
    </g>
  </g>
</svg>
