<svg xmlns="http://www.w3.org/2000/svg" width="120" height="80" viewBox="0 0 120 80">
  <g fill="none" fill-rule="evenodd">
    <rect width="120" height="80" fill="#000000" rx="4"/>
    <g transform="translate(22 10)">
      <polygon fill="#FF5F00" points="28.014 42.573 48.709 42.573 48.709 5.383 28.014 5.383"/>
      <path fill="#EB001B" d="M29.3275486,23.9788418 C29.3275486,16.4337554 32.8602837,9.71387171 38.3614164,5.38287122 C34.3385529,2.21608991 29.2618477,0.32653326 23.7442897,0.32653326 C10.6823023,0.32653326 0.0939522256,10.9155404 0.0939522256,23.9788418 C0.0939522256,37.0414862 10.6823023,47.6304933 23.7442897,47.6304933 C29.2618477,47.6304933 34.3385529,45.7409367 38.3614164,42.5741554 C32.8602837,38.2431549 29.3275486,31.5232712 29.3275486,23.9788418"/>
      <path fill="#F79E1B" d="M75.890403 38.634732L75.890403 37.716891 75.6505948 37.716891 75.3753082 38.3482762 75.0993646 37.716891 74.8595565 37.716891 74.8595565 38.634732 75.0290647 38.634732 75.0290647 37.9422449 75.2872691 38.5394657 75.4626904 38.5394657 75.7215518 37.9409309 75.7215518 38.634732 75.890403 38.634732zM74.3727132 38.634732L74.3727132 37.873259 74.6795362 37.873259 74.6795362 37.718205 73.897696 37.718205 73.897696 37.873259 74.204519 37.873259 74.204519 38.634732 74.3727132 38.634732 74.3727132 38.634732zM76.6288806 23.9788418C76.6288806 37.0414862 66.0405305 47.6304933 52.9785431 47.6304933 47.4609851 47.6304933 42.3842799 45.7409367 38.3614164 42.5741554 43.8625492 38.2431549 47.3952843 31.5232712 47.3952843 23.9788418 47.3952843 16.4337554 43.8625492 9.71387171 38.3614164 5.38287122 42.3842799 2.21608991 47.4609851.32653326 52.9785431.32653326 66.0405305.32653326 76.6288806 10.9155404 76.6288806 23.9788418"/>
    </g>
    <g fill="#FFFFFF" transform="translate(26 61)">
      <path d="M10.7913388 8.64314353L10.7913388 4.77307926C10.7913388 3.28955463 9.89427293 2.32203856 8.3564457 2.32203856 7.58753209 2.32203856 6.75454234 2.58004284 6.17785713 3.41855677 5.72932419 2.70904499 5.08856284 2.32203856 4.12742082 2.32203856 3.48665948 2.32203856 2.84589813 2.51554177 2.33328905 3.22505355L2.33328905 2.4510407.987690229 2.4510407.987690229 8.64314353 2.33328905 8.64314353 2.33328905 5.22458676C2.33328905 4.12806855 2.90997427 3.61205998 3.80704015 3.61205998 4.70410603 3.61205998 5.15263897 4.19256962 5.15263897 5.22458676L5.15263897 8.64314353 6.4982378 8.64314353 6.4982378 5.22458676C6.4982378 4.12806855 7.13899915 3.61205998 7.97198889 3.61205998 8.86905478 3.61205998 9.31758772 4.19256962 9.31758772 5.22458676L9.31758772 8.64314353 10.7913388 8.64314353zM30.7190167 2.45145321L28.5404281 2.45145321 28.5404281.58050964 27.1948293.58050964 27.1948293 2.45145321 25.9773827 2.45145321 25.9773827 3.67724383 27.1948293 3.67724383 27.1948293 6.51591684C27.1948293 7.93525334 27.7715145 8.77395219 29.3093417 8.77395219 29.8860269 8.77395219 30.5267883 8.5804063 30.9753212 8.32234512L30.5908644 7.1610698C30.2064076 7.41913098 29.7578746 7.48364627 29.437494 7.48364627 28.7967326 7.48364627 28.5404281 7.0965545 28.5404281 6.45140154L28.5404281 3.67724383 30.7190167 3.67724383 30.7190167 2.45145321zM42.1245686 2.32203856C41.355655 2.32203856 40.8430459 2.70904499 40.5226652 3.22505355L40.5226652 2.4510407 39.1770664 2.4510407 39.1770664 8.64314353 40.5226652 8.64314353 40.5226652 5.16008569C40.5226652 4.12806855 40.9711982 3.54755891 41.8041879 3.54755891 42.0604925 3.54755891 42.3808731 3.61205998 42.6371777 3.67656105L43.0216345 2.38653963C42.76533 2.32203856 42.3808731 2.32203856 42.1245686 2.32203856L42.1245686 2.32203856zM24.8880884 2.96704927C24.2473271 2.51554177 23.3502612 2.32203856 22.3891192 2.32203856 20.8512919 2.32203856 19.8260738 3.09605141 19.8260738 4.32157176 19.8260738 5.3535889 20.5949874 5.93409854 21.9405862 6.12760175L22.5813476 6.19210283C23.2861851 6.32110497 23.6706419 6.51460818 23.6706419 6.83711354 23.6706419 7.28862103 23.1580328 7.61112639 22.2609669 7.61112639 21.363901 7.61112639 20.6590635 7.28862103 20.2105306 6.96611568L19.5697692 7.99813282C20.2746067 8.51414138 21.2357487 8.77214567 22.1968908 8.77214567 23.9910225 8.77214567 25.0162407 7.93363174 25.0162407 6.77261246 25.0162407 5.67609426 24.1832509 5.09558462 22.9017282 4.9020814L22.2609669 4.83758033C21.6842817 4.77307926 21.2357487 4.64407712 21.2357487 4.25707069 21.2357487 3.80556319 21.6842817 3.54755891 22.3891192 3.54755891 23.1580328 3.54755891 23.9269464 3.87006427 24.3114032 4.06356748L24.8880884 2.96704927zM60.6425715 2.32203856C59.8736579 2.32203856 59.3610488 2.70904499 59.0406681 3.22505355L59.0406681 2.4510407 57.6950693 2.4510407 57.6950693 8.64314353 59.0406681 8.64314353 59.0406681 5.16008569C59.0406681 4.12806855 59.4892011 3.54755891 60.3221908 3.54755891 60.5784954 3.54755891 60.898876 3.61205998 61.1551806 3.67656105L61.5396374 2.38653963C61.2833328 2.32203856 60.898876 2.32203856 60.6425715 2.32203856L60.6425715 2.32203856zM43.4701674 5.54709211C43.4701674 7.41762318 44.7516901 8.77214567 46.7380503 8.77214567 47.6351162 8.77214567 48.2758775 8.57864246 48.9166389 8.06263389L48.2758775 6.96611568C47.7632684 7.3531221 47.2506594 7.54662532 46.6739742 7.54662532 45.5846799 7.54662532 44.8157663 6.77261246 44.8157663 5.54709211 44.8157663 4.38607283 45.5846799 3.61205998 46.6739742 3.54755891 47.2506594 3.54755891 47.7632684 3.74106212 48.2758775 4.12806855L48.9166389 3.03155034C48.2758775 2.51554177 47.6351162 2.32203856 46.7380503 2.32203856 44.7516901 2.32203856 43.4701674 3.67656105 43.4701674 5.54709211L43.4701674 5.54709211zM55.9009375 5.54709211L55.9009375 2.4510407 54.5553387 2.4510407 54.5553387 3.22505355C54.1068058 2.64454391 53.4660444 2.32203856 52.6330547 2.32203856 50.902999 2.32203856 49.5574002 3.67656105 49.5574002 5.54709211 49.5574002 7.41762318 50.902999 8.77214567 52.6330547 8.77214567 53.5301206 8.77214567 54.1708819 8.44964031 54.5553387 7.86913067L54.5553387 8.64314353 55.9009375 8.64314353 55.9009375 5.54709211zM50.9670752 5.54709211C50.9670752 4.45057391 51.6719127 3.54755891 52.8252831 3.54755891 53.9145774 3.54755891 54.683491 4.38607283 54.683491 5.54709211 54.683491 6.64361032 53.9145774 7.54662532 52.8252831 7.54662532 51.6719127 7.48212425 50.9670752 6.64361032 50.9670752 5.54709211L50.9670752 5.54709211zM34.8839654 2.32203856C33.0898336 2.32203856 31.8083109 3.61205998 31.8083109 5.54709211 31.8083109 7.48212425 33.0898336 8.77214567 34.9480415 8.77214567 35.8451074 8.77214567 36.7421733 8.51414138 37.4470108 7.93363174L36.8062494 6.96611568C36.2936404 7.3531221 35.652879 7.61112639 35.0121177 7.61112639 34.1791279 7.61112639 33.3461382 7.22411996 33.1539098 6.12760175L37.7033153 6.12760175 37.7033153 5.61159319C37.7673915 3.61205998 36.614021 2.32203856 34.8839654 2.32203856L34.8839654 2.32203856zM34.8839654 3.48305784C35.7169552 3.48305784 36.2936404 3.99906641 36.4217926 4.96658247L33.2179859 4.96658247C33.3461382 4.12806855 33.9228234 3.48305784 34.8839654 3.48305784L34.8839654 3.48305784zM68.2676315 5.54709211L68.2676315 0 66.9220327 0 66.9220327 3.22505355C66.4734997 2.64454391 65.8327384 2.32203856 64.9997486 2.32203856 63.269693 2.32203856 61.9240942 3.67656105 61.9240942 5.54709211 61.9240942 7.41762318 63.269693 8.77214567 64.9997486 8.77214567 65.8968145 8.77214567 66.5375759 8.44964031 66.9220327 7.86913067L66.9220327 8.64314353 68.2676315 8.64314353 68.2676315 5.54709211zM63.3337691 5.54709211C63.3337691 4.45057391 64.0386066 3.54755891 65.191977 3.54755891 66.2812713 3.54755891 67.0501849 4.38607283 67.0501849 5.54709211 67.0501849 6.64361032 66.2812713 7.54662532 65.191977 7.54662532 64.0386066 7.48212425 63.3337691 6.64361032 63.3337691 5.54709211L63.3337691 5.54709211zM18.3523227 5.54709211L18.3523227 2.4510407 17.0067239 2.4510407 17.0067239 3.22505355C16.5581909 2.64454391 15.9174296 2.32203856 15.0844398 2.32203856 13.3543842 2.32203856 12.0087854 3.67656105 12.0087854 5.54709211 12.0087854 7.41762318 13.3543842 8.77214567 15.0844398 8.77214567 15.9815057 8.77214567 16.6222671 8.44964031 17.0067239 7.86913067L17.0067239 8.64314353 18.3523227 8.64314353 18.3523227 5.54709211zM13.3543842 5.54709211C13.3543842 4.45057391 14.0592217 3.54755891 15.2125921 3.54755891 16.3018864 3.54755891 17.0708 4.38607283 17.0708 5.54709211 17.0708 6.64361032 16.3018864 7.54662532 15.2125921 7.54662532 14.0592217 7.48212425 13.3543842 6.64361032 13.3543842 5.54709211zM70.1811729 8.36357913L70.1811729 8.48517174 70.2911949 8.48517174C70.3165455 8.48517174 70.3363191 8.47999759 70.3515295 8.47016669 70.3662329 8.4603358 70.3738381 8.44481334 70.3738381 8.42359931 70.3738381 8.40393753 70.3662329 8.38893249 70.3515295 8.37858418 70.3363191 8.36875329 70.3165455 8.36357913 70.2911949 8.36357913L70.1811729 8.36357913zM70.2922089 8.2782056C70.3500085 8.2782056 70.3941186 8.29114099 70.4250465 8.31701175 70.4564813 8.34339994 70.4716917 8.37858418 70.4716917 8.42359931 70.4716917 8.46137063 70.4595234 8.49293297 70.4346797 8.51725149 70.4098361 8.54157001 70.3748521 8.55657506 70.3287139 8.56226662L70.4752408 8.73456593 70.3606557 8.73456593 70.2252831 8.56381887 70.1811729 8.56381887 70.1811729 8.73456593 70.0858543 8.73456593 70.0858543 8.2782056 70.2922089 8.2782056zM70.2638161 8.89134278C70.3160385 8.89134278 70.3642048 8.88151189 70.4093291 8.86133269 70.4544533 8.84115349 70.4934933 8.81373048 70.5274632 8.77958107 70.5614332 8.74491424 70.5877979 8.70403843 70.6070644 8.65747105 70.6263309 8.61090367 70.6359642 8.56123179 70.6359642 8.50793801 70.6359642 8.45516165 70.6263309 8.40548978 70.6070644 8.3589224 70.5877979 8.31235502 70.5614332 8.2714792 70.5274632 8.23681238 70.4934933 8.20266296 70.4544533 8.17575737 70.4093291 8.15557817 70.3642048 8.13591639 70.3160385 8.12608549 70.2638161 8.12608549 70.2110867 8.12608549 70.1619064 8.13591639 70.1157681 8.15557817 70.0696299 8.17575737 70.0300828 8.20266296 69.9961129 8.23681238 69.962143 8.2714792 69.9357783 8.31235502 69.9165117 8.3589224 69.8972452 8.40548978 69.887612 8.45516165 69.887612 8.50793801 69.887612 8.56123179 69.8972452 8.61090367 69.9165117 8.65747105 69.9357783 8.70403843 69.962143 8.74491424 69.9961129 8.77958107 70.0300828 8.81373048 70.0696299 8.84115349 70.1157681 8.86133269 70.1619064 8.88151189 70.2110867 8.89134278 70.2638161 8.89134278zM70.2638161 8.01639344C70.331756 8.01639344 70.3951327 8.02932883 70.4549603 8.05519959 70.5142809 8.08107036 70.5659963 8.11573719 70.6106135 8.16075232 70.6547237 8.20525004 70.6902146 8.25750899 70.7155653 8.31701175 70.740916 8.37703193 70.7540984 8.44067402 70.7540984 8.50793801 70.7540984 8.57571942 70.740916 8.63936151 70.7155653 8.69886427 70.6902146 8.75784962 70.6547237 8.81010857 70.6106135 8.85460629 70.5659963 8.89910401 70.5142809 8.93428825 70.4549603 8.96067643 70.3951327 8.9865472 70.331756 9 70.2638161 9 70.1948623 9 70.1299645 8.9865472 70.0696299 8.96067643 70.0098023 8.93428825 69.9575799 8.89910401 69.9134697 8.85460629 69.8693595 8.81010857 69.8343755 8.75784962 69.8090248 8.69886427 69.7831671 8.63936151 69.7704918 8.57571942 69.7704918 8.50793801 69.7704918 8.44067402 69.7831671 8.37703193 69.8090248 8.31701175 69.8343755 8.25750899 69.8693595 8.20525004 69.9134697 8.16075232 69.9575799 8.11573719 70.0098023 8.08107036 70.0696299 8.05519959 70.1299645 8.02932883 70.1948623 8.01639344 70.2638161 8.01639344z"/>
    </g>
  </g>
</svg>
