<svg xmlns="http://www.w3.org/2000/svg" width="120" height="80" viewBox="0 0 120 80">
  <g fill="none" fill-rule="evenodd">
    <rect width="120" height="80" fill="#FFFFFF" rx="4"/>
    <path fill="#000000" d="M97.890403,69.917841 L97.890403,69 L97.6505948,69 L97.3753082,69.6313852 L97.0993646,69 L96.8595565,69 L96.8595565,69.917841 L97.0290647,69.917841 L97.0290647,69.2253539 L97.2872691,69.8225747 L97.4626904,69.8225747 L97.7215518,69.2240399 L97.7215518,69.917841 L97.890403,69.917841 Z M96.3727132,69.156368 L96.6795362,69.156368 L96.6795362,69.001314 L95.897696,69.001314 L95.897696,69.156368 L96.204519,69.156368 L96.204519,69.917841 L96.3727132,69.917841 L96.3727132,69.156368 Z"/>
    <path fill="#000000" d="M10.5275291,8.85884333 L10.5275291,5.0494791 C10.5275291,3.61507658 9.61318875,2.64995799 8.14028769,2.63701452 C7.36600238,2.62440292 6.56583013,2.86568257 6.0072694,3.71630119 C5.58843183,3.04357238 4.92798273,2.63701452 4.00136268,2.63701452 C3.35385705,2.63701452 2.7192949,2.82751591 2.22379213,3.53874327 L2.22379213,2.78968114 L0.903225806,2.78968114 L0.903225806,8.85884333 L2.23640372,8.85884333 L2.23640372,5.49387174 C2.23640372,4.44014013 2.82051951,3.88157941 3.72191638,3.88157941 C4.59809006,3.88157941 5.0424827,4.45308361 5.0424827,5.48126015 L5.0424827,8.85884333 L6.37566061,8.85884333 L6.37566061,5.49387174 C6.37566061,4.44014013 6.98499958,3.88157941 7.86117327,3.88157941 C8.76223825,3.88157941 9.19401929,4.45308361 9.19401929,5.48126015 L9.19401929,8.85884333 L10.5275291,8.85884333 Z M30.2573674,2.78945383 L28.099126,2.78945383 L28.099126,0.948388869 L26.7662799,0.948388869 L26.7662799,2.78945383 L25.5343266,2.78945383 L25.5343266,3.99537128 L26.7662799,3.99537128 L26.7662799,6.76261005 C26.7662799,8.17227911 27.3118972,9.00985084 28.8737431,9.00985084 C29.4449155,9.00985084 30.1053646,8.83231483 30.5242021,8.53996115 L30.1428675,7.41036758 C29.7499168,7.63900741 29.3181358,7.7531614 28.9756315,7.7531614 C28.3151824,7.7531614 28.099126,7.34665373 28.099126,6.73772182 L28.099126,3.99503944 L30.2573674,3.99503944 L30.2573674,2.78945383 L30.2573674,2.78945383 Z M41.5195181,2.63701452 C40.7578444,2.63701452 40.2626735,2.99279413 39.9198374,3.52613167 L39.9198374,2.78968114 L38.6122145,2.78968114 L38.6122145,8.85884333 L39.9327808,8.85884333 L39.9327808,5.45570508 C39.9327808,4.45308361 40.3645619,3.894191 41.2277921,3.894191 C41.4946268,3.894191 41.7734093,3.93235766 42.0531875,4.04652574 L42.4597454,2.80229273 C42.1670237,2.68812465 41.7860209,2.63701452 41.5195181,2.63701452 L41.5195181,2.63701452 Z M24.4932066,3.27190855 C23.8586445,2.85307098 22.9824708,2.63701452 22.0176841,2.63701452 C20.4813932,2.63701452 19.4913833,3.37379693 19.4913833,4.57986328 C19.4913833,5.57020505 20.2278338,6.17987591 21.5862349,6.37004542 L22.2085173,6.45899033 C22.9320244,6.56054682 23.2748605,6.75071634 23.2748605,7.09388437 C23.2748605,7.56350019 22.7926331,7.83000301 21.8905725,7.83000301 C20.9768959,7.83000301 20.3167787,7.53794512 19.8723861,7.19544086 L19.2504355,8.22394929 C19.9739426,8.75662306 20.8882829,9.01117807 21.8779609,9.01117807 C23.6306402,9.01117807 24.6462051,8.18611452 24.6462051,7.03049453 C24.6462051,5.96348756 23.8466966,5.40525872 22.5257984,5.21475732 L21.9038479,5.1261443 C21.3320118,5.04981099 20.8746757,4.9356429 20.8746757,4.52941692 C20.8746757,4.08502428 21.3064567,3.81818957 22.0302957,3.81818957 C22.804581,3.81818957 23.5536431,4.11024746 23.9217024,4.33891552 L24.4932066,3.27190855 L24.4932066,3.27190855 Z M34.3714011,2.63701452 C32.5944943,2.63701452 31.3495976,3.93235766 31.3495976,5.82409629 C31.3495976,7.75400159 32.6446088,9.01084618 34.460346,9.01084618 C35.3750183,9.01084618 36.2123615,8.78251001 36.9491439,8.15989568 L36.3016383,7.18282927 C35.7938558,7.58938714 35.1463502,7.81739142 34.5370112,7.81739142 C33.6863926,7.81739142 32.9117754,7.42377703 32.721274,6.33187877 L37.2282584,6.33187877 C37.2408699,6.16693243 37.2541453,6.00165422 37.2541453,5.82409629 C37.2405381,3.93235766 36.0729703,2.63701452 34.3714011,2.63701452 L34.3714011,2.63701452 Z M34.3458461,3.81785769 C35.1967966,3.81785769 35.7427457,4.35119523 35.882137,5.29075875 L32.7338856,5.29075875 C32.8732769,4.41491695 33.4059507,3.81785769 34.3458461,3.81785769 L34.3458461,3.81785769 Z M17.9673721,5.82409629 L17.9673721,2.78968114 L16.6471376,2.78968114 L16.6471376,3.52613167 C16.2279682,2.98018254 15.5930741,2.63701452 14.7298439,2.63701452 C13.0286067,2.63701452 11.6954288,3.97019243 11.6954288,5.82409629 C11.6954288,7.67733639 13.0286067,9.01084618 14.7298439,9.01084618 C15.5930741,9.01084618 16.2279682,8.66834193 16.6471376,8.12206091 L16.6471376,8.85884333 L17.9673721,8.85884333 L17.9673721,5.82409629 L17.9673721,5.82409629 Z M13.0538299,5.82409629 C13.0538299,4.75742121 13.7521138,3.88157941 14.8947903,3.88157941 C15.9866885,3.88157941 16.723471,4.71958644 16.723471,5.82409629 C16.723471,6.92893803 15.9866885,7.76661318 14.8947903,7.76661318 C13.7521138,7.76661318 13.0538299,6.89043949 13.0538299,5.82409629 L13.0538299,5.82409629 Z M57.0725967,5.82409629 L57.0725967,2.78968114 L55.7523622,2.78968114 L55.7523622,3.52613167 C55.332529,2.98018254 54.6982987,2.63701452 53.8347366,2.63701452 C52.1338313,2.63701452 50.8006534,3.97019243 50.8006534,5.82409629 C50.8006534,7.67733639 52.1338313,9.01084618 53.8347366,9.01084618 C54.6986306,9.01084618 55.3328609,8.66834193 55.7523622,8.12206091 L55.7523622,8.85884333 L57.0725967,8.85884333 L57.0725967,5.82409629 L57.0725967,5.82409629 Z M52.1590545,5.82409629 C52.1590545,4.75742121 52.8573383,3.88157941 54.0003467,3.88157941 C55.092245,3.88157941 55.8290274,4.71958644 55.8290274,5.82409629 C55.8290274,6.92893803 55.092245,7.76661318 54.0003467,7.76661318 C52.8573383,7.76661318 52.1590545,6.89043949 52.1590545,5.82409629 L52.1590545,5.82409629 Z M43.5639234,5.8114847 L43.5639234,11.042308 L44.8844897,11.042308 L44.8844897,8.10944932 C45.3033273,8.65539845 45.9378894,8.99823459 46.8014515,8.99823459 C48.5030206,8.99823459 49.8358667,7.66505668 49.8358667,5.8114847 C49.8358667,3.95758084 48.5030206,2.62440292 46.8014515,2.62440292 C45.9375575,2.62440292 45.3029954,2.96723907 44.8844897,3.5131882 L44.8844897,2.77673767 L43.5639234,2.77673767 L43.5639234,5.8114847 L43.5639234,5.8114847 Z M48.4774656,5.8114847 C48.4774656,6.8778279 47.7788498,7.75400159 46.6361733,7.75400159 C45.5439431,7.75400159 44.8078245,6.91566267 44.8078245,5.8114847 C44.8078245,4.70664296 45.5439431,3.86896782 46.6361733,3.86896782 C47.7785179,3.86896782 48.4774656,4.74480962 48.4774656,5.8114847 L48.4774656,5.8114847 Z M63.5987631,3.28485203 C62.963869,2.86568257 62.0873635,2.64995799 61.1229086,2.64995799 C59.5866177,2.64995799 58.5959441,3.38640852 58.5959441,4.59247487 C58.5959441,5.58281664 59.3330584,6.19215562 60.6911276,6.38265702 L61.31341,6.47160192 C62.0369171,6.5734903 62.3797532,6.76332793 62.3797532,7.10649596 C62.3797532,7.57611178 61.8971939,7.84261461 60.996129,7.84261461 C60.0814567,7.84261461 59.4216714,7.55088859 58.9772788,7.20805245 L58.3549963,8.23656088 C59.0788353,8.76989842 59.9931756,9.02378966 60.9828536,9.02378966 C62.735201,9.02378966 63.7507659,8.19872611 63.7507659,7.04310612 C63.7507659,5.97643103 62.9512574,5.41820219 61.631023,5.2277008 L61.0087406,5.13875589 C60.4372364,5.06242258 59.9802321,4.94825449 59.9802321,4.54202851 C59.9802321,4.09763587 60.4113494,3.83080116 61.1355202,3.83080116 C61.9094737,3.83080116 62.6585358,4.12285905 63.0265951,4.35152711 L63.5987631,3.28485203 L63.5987631,3.28485203 Z M69.9340962,3.28485203 C69.299534,2.86568257 68.4233604,2.64995799 67.4582418,2.64995799 C65.9219509,2.64995799 64.931941,3.38640852 64.931941,4.59247487 C64.931941,5.58281664 65.6683915,6.19215562 67.0267926,6.38265702 L67.6487432,6.47160192 C68.372914,6.5734903 68.7157501,6.76332793 68.7157501,7.10649596 C68.7157501,7.57611178 68.2331908,7.84261461 67.331794,7.84261461 C66.4177855,7.84261461 65.7576683,7.55088859 65.3132757,7.20805245 L64.6906613,8.23656088 C65.4145003,8.76989842 66.3291725,9.02378966 67.3191824,9.02378966 C69.070866,9.02378966 70.0870947,8.19872611 70.0870947,7.04310612 C70.0870947,5.97643103 69.2872543,5.41820219 67.9663561,5.2277008 L67.3444056,5.13875589 C66.7732333,5.06242258 66.3158971,4.94825449 66.3158971,4.54202851 C66.3158971,4.09763587 66.7473463,3.83080116 67.4708534,3.83080116 C68.2458024,3.83080116 68.9948646,4.12285905 69.362592,4.35152711 L69.9340962,3.28485203 L69.9340962,3.28485203 Z" transform="translate(25 61)"/>
    <g transform="translate(22 10)">
      <polygon fill="#FF5F00" points="28.014 42.573 48.709 42.573 48.709 5.383 28.014 5.383"/>
      <path fill="#EB001B" d="M29.3275486,23.9788418 C29.3275486,16.4337554 32.8602837,9.71387171 38.3614164,5.38287122 C34.3385529,2.21608991 29.2618477,0.32653326 23.7442897,0.32653326 C10.6823023,0.32653326 0.0939522256,10.9155404 0.0939522256,23.9788418 C0.0939522256,37.0414862 10.6823023,47.6304933 23.7442897,47.6304933 C29.2618477,47.6304933 34.3385529,45.7409367 38.3614164,42.5741554 C32.8602837,38.2431549 29.3275486,31.5232712 29.3275486,23.9788418"/>
      <path fill="#F79E1B" d="M75.890403 38.634732L75.890403 37.716891 75.6505948 37.716891 75.3753082 38.3482762 75.0993646 37.716891 74.8595565 37.716891 74.8595565 38.634732 75.0290647 38.634732 75.0290647 37.9422449 75.2872691 38.5394657 75.4626904 38.5394657 75.7215518 37.9409309 75.7215518 38.634732 75.890403 38.634732zM74.3727132 38.634732L74.3727132 37.873259 74.6795362 37.873259 74.6795362 37.718205 73.897696 37.718205 73.897696 37.873259 74.204519 37.873259 74.204519 38.634732 74.3727132 38.634732 74.3727132 38.634732zM76.6288806 23.9788418C76.6288806 37.0414862 66.0405305 47.6304933 52.9785431 47.6304933 47.4609851 47.6304933 42.3842799 45.7409367 38.3614164 42.5741554 43.8625492 38.2431549 47.3952843 31.5232712 47.3952843 23.9788418 47.3952843 16.4337554 43.8625492 9.71387171 38.3614164 5.38287122 42.3842799 2.21608991 47.4609851.32653326 52.9785431.32653326 66.0405305.32653326 76.6288806 10.9155404 76.6288806 23.9788418"/>
    </g>
  </g>
</svg>
