<?xml version="1.0" encoding="UTF-8"?>
<svg width="120px" height="80px" viewBox="0 0 120 80" version="1.1" xmlns="http://www.w3.org/2000/svg" xmlns:xlink="http://www.w3.org/1999/xlink">
    <!-- Generator: Sketch 55.2 (78181) - https://sketchapp.com -->
    <title>card_master</title>
    <desc>Created with Sketch.</desc>
    <g id="export-badges" stroke="none" stroke-width="1" fill="none" fill-rule="evenodd">
        <g id="production" transform="translate(-1062.000000, -288.000000)">
            <g id="card_master" transform="translate(1062.000000, 288.000000)">
                <rect id="bg" fill="#FFFFFF" x="0" y="0" width="120" height="80" rx="4"></rect>
                <g id="logo" transform="translate(22.000000, 10.000000)">
                    <polygon id="Fill-2" fill="#FF5F00" points="28.0135314 42.5734984 48.7093014 42.5734984 48.7093014 5.38287122 28.0135314 5.38287122"></polygon>
                    <path d="M29.3275486,23.9788418 C29.3275486,16.4337554 32.8602837,9.71387171 38.3614164,5.38287122 C34.3385529,2.21608991 29.2618477,0.32653326 23.7442897,0.32653326 C10.6823023,0.32653326 0.0939522256,10.9155404 0.0939522256,23.9788418 C0.0939522256,37.0414862 10.6823023,47.6304933 23.7442897,47.6304933 C29.2618477,47.6304933 34.3385529,45.7409367 38.3614164,42.5741554 C32.8602837,38.2431549 29.3275486,31.5232712 29.3275486,23.9788418" id="Fill-3" fill="#EB001B"></path>
                    <path d="M75.890403,38.634732 L75.890403,37.716891 L75.6505948,37.716891 L75.3753082,38.3482762 L75.0993646,37.716891 L74.8595565,37.716891 L74.8595565,38.634732 L75.0290647,38.634732 L75.0290647,37.9422449 L75.2872691,38.5394657 L75.4626904,38.5394657 L75.7215518,37.9409309 L75.7215518,38.634732 L75.890403,38.634732 Z M74.3727132,38.634732 L74.3727132,37.873259 L74.6795362,37.873259 L74.6795362,37.718205 L73.897696,37.718205 L73.897696,37.873259 L74.204519,37.873259 L74.204519,38.634732 L74.3727132,38.634732 L74.3727132,38.634732 Z" id="Fill-4" fill="#F79E1B"></path>
                    <path d="M76.6288806,23.9788418 C76.6288806,37.0414862 66.0405305,47.6304933 52.9785431,47.6304933 C47.4609851,47.6304933 42.3842799,45.7409367 38.3614164,42.5741554 C43.8625492,38.2431549 47.3952843,31.5232712 47.3952843,23.9788418 C47.3952843,16.4337554 43.8625492,9.71387171 38.3614164,5.38287122 C42.3842799,2.21608991 47.4609851,0.32653326 52.9785431,0.32653326 C66.0405305,0.32653326 76.6288806,10.9155404 76.6288806,23.9788418" id="Fill-5" fill="#F79E1B"></path>
                </g>
                <g id="text" transform="translate(26.000000, 61.000000)" fill="#000000">
                    <path d="M10.7913388,8.64314353 L10.7913388,4.77307926 C10.7913388,3.28955463 9.89427293,2.32203856 8.3564457,2.32203856 C7.58753209,2.32203856 6.75454234,2.58004284 6.17785713,3.41855677 C5.72932419,2.70904499 5.08856284,2.32203856 4.12742082,2.32203856 C3.48665948,2.32203856 2.84589813,2.51554177 2.33328905,3.22505355 L2.33328905,2.4510407 L0.987690229,2.4510407 L0.987690229,8.64314353 L2.33328905,8.64314353 L2.33328905,5.22458676 C2.33328905,4.12806855 2.90997427,3.61205998 3.80704015,3.61205998 C4.70410603,3.61205998 5.15263897,4.19256962 5.15263897,5.22458676 L5.15263897,8.64314353 L6.4982378,8.64314353 L6.4982378,5.22458676 C6.4982378,4.12806855 7.13899915,3.61205998 7.97198889,3.61205998 C8.86905478,3.61205998 9.31758772,4.19256962 9.31758772,5.22458676 L9.31758772,8.64314353 L10.7913388,8.64314353 Z M30.7190167,2.45145321 L28.5404281,2.45145321 L28.5404281,0.58050964 L27.1948293,0.58050964 L27.1948293,2.45145321 L25.9773827,2.45145321 L25.9773827,3.67724383 L27.1948293,3.67724383 L27.1948293,6.51591684 C27.1948293,7.93525334 27.7715145,8.77395219 29.3093417,8.77395219 C29.8860269,8.77395219 30.5267883,8.5804063 30.9753212,8.32234512 L30.5908644,7.1610698 C30.2064076,7.41913098 29.7578746,7.48364627 29.437494,7.48364627 C28.7967326,7.48364627 28.5404281,7.0965545 28.5404281,6.45140154 L28.5404281,3.67724383 L30.7190167,3.67724383 L30.7190167,2.45145321 Z M42.1245686,2.32203856 C41.355655,2.32203856 40.8430459,2.70904499 40.5226652,3.22505355 L40.5226652,2.4510407 L39.1770664,2.4510407 L39.1770664,8.64314353 L40.5226652,8.64314353 L40.5226652,5.16008569 C40.5226652,4.12806855 40.9711982,3.54755891 41.8041879,3.54755891 C42.0604925,3.54755891 42.3808731,3.61205998 42.6371777,3.67656105 L43.0216345,2.38653963 C42.76533,2.32203856 42.3808731,2.32203856 42.1245686,2.32203856 L42.1245686,2.32203856 Z M24.8880884,2.96704927 C24.2473271,2.51554177 23.3502612,2.32203856 22.3891192,2.32203856 C20.8512919,2.32203856 19.8260738,3.09605141 19.8260738,4.32157176 C19.8260738,5.3535889 20.5949874,5.93409854 21.9405862,6.12760175 L22.5813476,6.19210283 C23.2861851,6.32110497 23.6706419,6.51460818 23.6706419,6.83711354 C23.6706419,7.28862103 23.1580328,7.61112639 22.2609669,7.61112639 C21.363901,7.61112639 20.6590635,7.28862103 20.2105306,6.96611568 L19.5697692,7.99813282 C20.2746067,8.51414138 21.2357487,8.77214567 22.1968908,8.77214567 C23.9910225,8.77214567 25.0162407,7.93363174 25.0162407,6.77261246 C25.0162407,5.67609426 24.1832509,5.09558462 22.9017282,4.9020814 L22.2609669,4.83758033 C21.6842817,4.77307926 21.2357487,4.64407712 21.2357487,4.25707069 C21.2357487,3.80556319 21.6842817,3.54755891 22.3891192,3.54755891 C23.1580328,3.54755891 23.9269464,3.87006427 24.3114032,4.06356748 L24.8880884,2.96704927 Z M60.6425715,2.32203856 C59.8736579,2.32203856 59.3610488,2.70904499 59.0406681,3.22505355 L59.0406681,2.4510407 L57.6950693,2.4510407 L57.6950693,8.64314353 L59.0406681,8.64314353 L59.0406681,5.16008569 C59.0406681,4.12806855 59.4892011,3.54755891 60.3221908,3.54755891 C60.5784954,3.54755891 60.898876,3.61205998 61.1551806,3.67656105 L61.5396374,2.38653963 C61.2833328,2.32203856 60.898876,2.32203856 60.6425715,2.32203856 L60.6425715,2.32203856 Z M43.4701674,5.54709211 C43.4701674,7.41762318 44.7516901,8.77214567 46.7380503,8.77214567 C47.6351162,8.77214567 48.2758775,8.57864246 48.9166389,8.06263389 L48.2758775,6.96611568 C47.7632684,7.3531221 47.2506594,7.54662532 46.6739742,7.54662532 C45.5846799,7.54662532 44.8157663,6.77261246 44.8157663,5.54709211 C44.8157663,4.38607283 45.5846799,3.61205998 46.6739742,3.54755891 C47.2506594,3.54755891 47.7632684,3.74106212 48.2758775,4.12806855 L48.9166389,3.03155034 C48.2758775,2.51554177 47.6351162,2.32203856 46.7380503,2.32203856 C44.7516901,2.32203856 43.4701674,3.67656105 43.4701674,5.54709211 L43.4701674,5.54709211 Z M55.9009375,5.54709211 L55.9009375,2.4510407 L54.5553387,2.4510407 L54.5553387,3.22505355 C54.1068058,2.64454391 53.4660444,2.32203856 52.6330547,2.32203856 C50.902999,2.32203856 49.5574002,3.67656105 49.5574002,5.54709211 C49.5574002,7.41762318 50.902999,8.77214567 52.6330547,8.77214567 C53.5301206,8.77214567 54.1708819,8.44964031 54.5553387,7.86913067 L54.5553387,8.64314353 L55.9009375,8.64314353 L55.9009375,5.54709211 Z M50.9670752,5.54709211 C50.9670752,4.45057391 51.6719127,3.54755891 52.8252831,3.54755891 C53.9145774,3.54755891 54.683491,4.38607283 54.683491,5.54709211 C54.683491,6.64361032 53.9145774,7.54662532 52.8252831,7.54662532 C51.6719127,7.48212425 50.9670752,6.64361032 50.9670752,5.54709211 L50.9670752,5.54709211 Z M34.8839654,2.32203856 C33.0898336,2.32203856 31.8083109,3.61205998 31.8083109,5.54709211 C31.8083109,7.48212425 33.0898336,8.77214567 34.9480415,8.77214567 C35.8451074,8.77214567 36.7421733,8.51414138 37.4470108,7.93363174 L36.8062494,6.96611568 C36.2936404,7.3531221 35.652879,7.61112639 35.0121177,7.61112639 C34.1791279,7.61112639 33.3461382,7.22411996 33.1539098,6.12760175 L37.7033153,6.12760175 L37.7033153,5.61159319 C37.7673915,3.61205998 36.614021,2.32203856 34.8839654,2.32203856 L34.8839654,2.32203856 Z M34.8839654,3.48305784 C35.7169552,3.48305784 36.2936404,3.99906641 36.4217926,4.96658247 L33.2179859,4.96658247 C33.3461382,4.12806855 33.9228234,3.48305784 34.8839654,3.48305784 L34.8839654,3.48305784 Z M68.2676315,5.54709211 L68.2676315,0 L66.9220327,0 L66.9220327,3.22505355 C66.4734997,2.64454391 65.8327384,2.32203856 64.9997486,2.32203856 C63.269693,2.32203856 61.9240942,3.67656105 61.9240942,5.54709211 C61.9240942,7.41762318 63.269693,8.77214567 64.9997486,8.77214567 C65.8968145,8.77214567 66.5375759,8.44964031 66.9220327,7.86913067 L66.9220327,8.64314353 L68.2676315,8.64314353 L68.2676315,5.54709211 Z M63.3337691,5.54709211 C63.3337691,4.45057391 64.0386066,3.54755891 65.191977,3.54755891 C66.2812713,3.54755891 67.0501849,4.38607283 67.0501849,5.54709211 C67.0501849,6.64361032 66.2812713,7.54662532 65.191977,7.54662532 C64.0386066,7.48212425 63.3337691,6.64361032 63.3337691,5.54709211 L63.3337691,5.54709211 Z M18.3523227,5.54709211 L18.3523227,2.4510407 L17.0067239,2.4510407 L17.0067239,3.22505355 C16.5581909,2.64454391 15.9174296,2.32203856 15.0844398,2.32203856 C13.3543842,2.32203856 12.0087854,3.67656105 12.0087854,5.54709211 C12.0087854,7.41762318 13.3543842,8.77214567 15.0844398,8.77214567 C15.9815057,8.77214567 16.6222671,8.44964031 17.0067239,7.86913067 L17.0067239,8.64314353 L18.3523227,8.64314353 L18.3523227,5.54709211 Z M13.3543842,5.54709211 C13.3543842,4.45057391 14.0592217,3.54755891 15.2125921,3.54755891 C16.3018864,3.54755891 17.0708,4.38607283 17.0708,5.54709211 C17.0708,6.64361032 16.3018864,7.54662532 15.2125921,7.54662532 C14.0592217,7.48212425 13.3543842,6.64361032 13.3543842,5.54709211 Z" id="XMLID_1775_"></path>
                    <path d="M70.1811729,8.36357913 L70.1811729,8.48517174 L70.2911949,8.48517174 C70.3165455,8.48517174 70.3363191,8.47999759 70.3515295,8.47016669 C70.3662329,8.4603358 70.3738381,8.44481334 70.3738381,8.42359931 C70.3738381,8.40393753 70.3662329,8.38893249 70.3515295,8.37858418 C70.3363191,8.36875329 70.3165455,8.36357913 70.2911949,8.36357913 L70.1811729,8.36357913 Z M70.2922089,8.2782056 C70.3500085,8.2782056 70.3941186,8.29114099 70.4250465,8.31701175 C70.4564813,8.34339994 70.4716917,8.37858418 70.4716917,8.42359931 C70.4716917,8.46137063 70.4595234,8.49293297 70.4346797,8.51725149 C70.4098361,8.54157001 70.3748521,8.55657506 70.3287139,8.56226662 L70.4752408,8.73456593 L70.3606557,8.73456593 L70.2252831,8.56381887 L70.1811729,8.56381887 L70.1811729,8.73456593 L70.0858543,8.73456593 L70.0858543,8.2782056 L70.2922089,8.2782056 Z M70.2638161,8.89134278 C70.3160385,8.89134278 70.3642048,8.88151189 70.4093291,8.86133269 C70.4544533,8.84115349 70.4934933,8.81373048 70.5274632,8.77958107 C70.5614332,8.74491424 70.5877979,8.70403843 70.6070644,8.65747105 C70.6263309,8.61090367 70.6359642,8.56123179 70.6359642,8.50793801 C70.6359642,8.45516165 70.6263309,8.40548978 70.6070644,8.3589224 C70.5877979,8.31235502 70.5614332,8.2714792 70.5274632,8.23681238 C70.4934933,8.20266296 70.4544533,8.17575737 70.4093291,8.15557817 C70.3642048,8.13591639 70.3160385,8.12608549 70.2638161,8.12608549 C70.2110867,8.12608549 70.1619064,8.13591639 70.1157681,8.15557817 C70.0696299,8.17575737 70.0300828,8.20266296 69.9961129,8.23681238 C69.962143,8.2714792 69.9357783,8.31235502 69.9165117,8.3589224 C69.8972452,8.40548978 69.887612,8.45516165 69.887612,8.50793801 C69.887612,8.56123179 69.8972452,8.61090367 69.9165117,8.65747105 C69.9357783,8.70403843 69.962143,8.74491424 69.9961129,8.77958107 C70.0300828,8.81373048 70.0696299,8.84115349 70.1157681,8.86133269 C70.1619064,8.88151189 70.2110867,8.89134278 70.2638161,8.89134278 Z M70.2638161,8.01639344 C70.331756,8.01639344 70.3951327,8.02932883 70.4549603,8.05519959 C70.5142809,8.08107036 70.5659963,8.11573719 70.6106135,8.16075232 C70.6547237,8.20525004 70.6902146,8.25750899 70.7155653,8.31701175 C70.740916,8.37703193 70.7540984,8.44067402 70.7540984,8.50793801 C70.7540984,8.57571942 70.740916,8.63936151 70.7155653,8.69886427 C70.6902146,8.75784962 70.6547237,8.81010857 70.6106135,8.85460629 C70.5659963,8.89910401 70.5142809,8.93428825 70.4549603,8.96067643 C70.3951327,8.9865472 70.331756,9 70.2638161,9 C70.1948623,9 70.1299645,8.9865472 70.0696299,8.96067643 C70.0098023,8.93428825 69.9575799,8.89910401 69.9134697,8.85460629 C69.8693595,8.81010857 69.8343755,8.75784962 69.8090248,8.69886427 C69.7831671,8.63936151 69.7704918,8.57571942 69.7704918,8.50793801 C69.7704918,8.44067402 69.7831671,8.37703193 69.8090248,8.31701175 C69.8343755,8.25750899 69.8693595,8.20525004 69.9134697,8.16075232 C69.9575799,8.11573719 70.0098023,8.08107036 70.0696299,8.05519959 C70.1299645,8.02932883 70.1948623,8.01639344 70.2638161,8.01639344 Z" id="Fill-1"></path>
                </g>
            </g>
        </g>
    </g>
</svg>