<svg xmlns="http://www.w3.org/2000/svg" xmlns:xlink="http://www.w3.org/1999/xlink" width="120" height="80" viewBox="0 0 120 80">
  <defs>
    <path id="a" d="M0,0 L0,50 L0,50 C-3.65367767e-15,52.209139 1.790861,54 4,54 L116,54 L116,54 C118.209139,54 120,52.209139 120,50 L120,0 L0,0 Z"/>
    <radialGradient id="b" r="69.371%" fx="50%" fy="50%" gradientTransform="matrix(0 1 -.98898 0 .994 0)">
      <stop offset="0%" stop-color="#DF0000"/>
      <stop offset="100%" stop-color="#C20000"/>
    </radialGradient>
    <linearGradient id="d" x1="46.523%" x2="46.523%" y1="20.814%" y2="100%">
      <stop offset="0%" stop-color="#FFFFFF"/>
      <stop offset="100%" stop-color="#F0F0F0"/>
    </linearGradient>
  </defs>
  <g fill="none" fill-rule="evenodd">
    <g transform="translate(0 26)">
      <mask id="c" fill="white">
        <use xlink:href="#a"/>
      </mask>
      <use fill="#DF0000" xlink:href="#a"/>
      <path fill="url(#b)" d="M147.440366,73.5941265 C145.531273,54.5290653 136.468739,33.7823635 136.468739,33.7823635 C121.612091,3.31232963 88.8804666,-6.98987493 69.5135725,9.355456 C68.425896,9.72843525 67.3921182,10.2049001 66.4219409,10.80641 C81.097489,-9.46921682 114.998716,-7.80374585 137.05408,17.5674675 C137.055158,17.5674675 147.142845,29.6871375 154.323235,47.7259667 C156.240952,41.3702277 157.403009,34.7654765 157.744727,28.0399921 C145.925812,12.0320673 132.59881,2.64829719 132.59881,2.64829719 C104.927199,-16.030849 71.9972263,-9.08976971 62.8193494,13.920679 C61.8502501,15.0590203 61.0568607,16.3601358 60.4725984,17.7582691 C63.0284765,-7.12677772 93.2225488,-22.6388342 124.995854,-11.6941567 C124.995854,-11.6941567 140.393645,-6.03586729 155.949899,6.49019915 C155.726758,5.48444872 155.524099,4.48732209 155.267541,3.50313115 C153.589134,-3.11132183 151.125962,-9.39052467 147.992289,-15.2547072 C129.869378,-23.116377 113.773059,-24.5576292 113.773059,-24.5576292 C79.5031644,-26.9604349 53.9993601,-3.10916588 59.3482707,22.2049149 C59.3062297,22.6727559 59.2879041,23.1556886 59.2879041,23.6310754 C59.2879041,24.3856577 59.3396469,25.141318 59.4474444,25.8614052 C47.9551557,2.8186172 66.4154731,-26.6467442 100.021335,-33.1738813 C100.021335,-33.1738813 115.76839,-35.9259508 135.16439,-33.0240428 C130.246669,-38.2155691 124.6412,-42.7732463 118.411584,-46.6097584 C98.9498286,-44.32014 84.4780178,-37.6043574 84.4780178,-37.6043574 C53.5875737,-22.5579861 43.4244279,10.889414 60.7496379,30.133419 C61.299405,31.2954758 61.9936207,32.355125 62.8042577,33.3220683 C41.1639149,19.2016772 42.3593889,-15.6805073 68.2609658,-38.1896977 C68.2609658,-38.1896977 80.4517821,-48.3625453 98.6016428,-55.5526368 C91.1086404,-57.8023701 83.3515342,-58.9471792 75.5265156,-59 C60.3712688,-47.4624364 51.4973807,-34.9029527 51.4973807,-34.9029527 C32.1509681,-6.20726527 40.3123149,28.1100605 65.353668,35.7938644 C66.5243485,36.5419788 67.3037243,36.9828705 68.1369988,37.3536938 C42.3626228,35.8887262 26.0075901,5.11470338 37.1678626,-27.3032309 C37.1678626,-27.3032309 42.356155,-41.4128422 53.788077,-56.2554763 C47.2523162,-54.5436524 41.0507276,-52.089104 35.2425997,-48.9511195 C27.8573948,-31.3391683 26.4754311,-15.9834182 26.4754311,-15.9834182 C24.1006528,18.0008134 47.5336676,43.3709488 72.6235296,38.5588696 C75.0414269,38.6418736 75.9070407,38.5588696 76.745705,38.4057972 C53.7309444,49.7514813 24.3712245,31.2943978 17.863491,-2.24031824 C17.863491,-2.24031824 15.2224529,-17.4128127 17.863491,-36.3248014 C12.3550401,-31.1041698 7.51816744,-25.0955386 3.52642699,-18.4002375 C6.00576888,0.239023652 12.3313246,13.9163671 12.3313246,13.9163671 C27.503819,45.0224061 61.3047949,55.1111716 80.4776535,37.2663779 C81.8542273,36.5031718 82.6497726,35.980354 83.4054329,35.3712983 C69.3551102,57.2390938 34.3273991,56.119078 11.7535302,30.1215613 C11.7535302,30.1215613 0.716146852,15.455715 -5.35824079,-1.46417643 C-5.55443219,-2.10018153 -5.98454411,-3.103776 -6.55479274,-3.6503092 C-7.2479305,-4.31541961 -8.24397915,-4.57844544 -9.22062427,-4.57844544 L-10,20.8391209 C1.05031902,33.93328 15.4617633,45.1086441 15.4617633,45.1086441 C43.291837,63.8891199 76.4169227,56.760473 85.3899844,33.4578931 C86.2696118,32.4251933 87.0101804,31.285774 87.5879749,30.0450251 C84.980354,54.9063564 54.814309,70.3871516 23.0625631,59.4457081 C23.0625631,59.4457081 8.93354827,54.2552597 -5.9080079,42.8104019 C-5.78835271,43.3558572 -5.68163321,43.9110141 -5.53610662,44.4640152 C-3.78547565,51.3231684 -1.22420767,57.8071865 2.07655097,63.8481569 C19.3748116,70.9617122 34.2961379,72.3005568 34.2961379,72.3005568 C68.3030069,74.6915048 93.685,51.2078251 88.8244119,26.08239 C88.9526909,25.2868446 89.0195253,24.461116 89.0195253,23.6149058 C89.0195253,23.3033711 89.0098236,22.9961483 88.9958099,22.6900035 C99.6720717,45.6055904 81.2559513,74.4705199 48.0327699,80.9135749 C48.0327699,80.9135749 33.1933697,83.512572 14.5896817,81.0062808 C19.0352495,85.691159 24.0629237,89.9028063 29.6026359,93.4956961 C48.8886819,91.1694266 63.1847828,84.5237123 63.1847828,84.5237123 C93.4413777,69.7813298 103.812573,37.3968128 87.9307709,17.9857217 C87.3810037,16.5929784 86.6199536,15.3134224 85.6896614,14.1556775 C106.465468,28.64258 104.957382,62.8995391 79.3986008,85.1284562 C79.3986008,85.1284562 66.9695521,95.4716237 48.5469639,102.681119 C55.7704726,105.105484 63.2656309,106.548892 70.8534951,106.896 C86.8042873,95.0910987 96.1546401,81.8244636 96.1546401,81.8244636 C115.468713,53.1956105 107.373123,18.9709906 82.4762187,11.1869351 C81.5071194,10.5272145 80.45825,9.96882362 79.3457801,9.55488132 C105.223642,10.9120515 121.685394,41.739973 110.490626,74.2473792 C110.490626,74.2473792 104.872222,89.5556984 92.3925083,105.063443 C93.3896349,104.84138 94.3630461,104.636565 95.3547829,104.381085 C101.681417,102.775981 107.630759,100.442165 113.172627,97.5715185 C120.902784,79.5768863 122.319243,63.6843047 122.319243,63.6843047 C124.681086,30.1733041 101.934741,5.05325882 77.2545091,8.94043572 C76.2552265,8.73023065 75.2171368,8.61919925 74.1574877,8.61919925 C96.2495019,-1.3035582 124.573288,17.0715992 130.941963,49.9293471 C130.941963,49.9293471 134.779553,65.5308754 131.92831,84.0062845 C131.370997,86.6688821 130.253137,90.5409673 128.100421,94.6696105 C127.440701,95.8316673 126.63222,97.1608102 125.648029,98.744355 C125.17911,99.5937991 125.105808,100.582302 125.435668,101.309935 C125.837752,102.18525 126.693664,102.745797 127.651984,102.745797 L147.440366,73.5941265 Z" mask="url(#c)"/>
    </g>
    <rect width="103" height="4" x="8" y="51" fill="#FFFFFF" opacity=".3" rx="1"/>
    <rect width="46" height="4" x="8" y="60" fill="#FFFFFF" opacity=".3" rx="1"/>
    <path fill="url(#d)" d="M0,4 L0,26 L120,26 L120,4 L120,4 C120,1.790861 118.209139,-4.05812251e-16 116,0 L4,0 L4,0 C1.790861,4.05812251e-16 -2.705415e-16,1.790861 0,4 Z"/>
    <g fill="#DF0000" transform="translate(8 6)">
      <path d="M103.432632 4.63896774C103.512568 4.63896774 103.587535 4.67446452 103.639019 4.73579355 103.68129 4.78465806 103.703239 4.84716129 103.704052 4.91282581 103.704052 4.92781935 103.703329 4.94317419 103.700168 4.95916129L103.462077 6.33287742C103.439406 6.46294194 103.326594 6.5584129 103.193819 6.5584129 103.193819 6.5584129 101.852168 6.56030968 101.493587 6.56030968 101.420155 6.98365161 100.227626 13.4135355 100.227445 13.4135355 100.204684 13.5430581 100.093316 13.6341935 99.9616258 13.6355484L98.1914839 13.6355484C98.1484 13.6355484 98.1063097 13.6063742 98.0681032 13.5871355 98.0380258 13.5977935 98.0066839 13.6355484 97.9732645 13.6355484L96.2767355 13.6341935C96.1848774 13.6341935 96.0989806 13.5906581 96.0490323 13.5146968 96.0490323 13.5146968 94.4006452 10.7732258 93.8382968 9.91778065 93.6189935 11.1876258 93.2215742 13.2985548 93.1746065 13.4479484 93.1391097 13.5619355 93.0338839 13.633471 92.9143871 13.633471L91.3925419 13.633471C91.3118839 13.633471 91.2367355 13.5984258 91.1847097 13.5373677 91.1329548 13.4764 91.1114581 13.4013419 91.1250065 13.3229419 91.1350323 13.2609806 91.7515742 9.5816 92.2749935 6.47233548 92.2430194 6.49283871 92.0870323 6.49085161 92.0479226 6.4968129 91.2863226 6.60863226 90.4250968 6.99485161 90.0817806 8.29423226L89.0447871 13.4210323C89.0194065 13.5481161 88.9098452 13.6333806 88.7805935 13.6333806L87.4255742 13.6333806C87.3439226 13.6342839 87.2618194 13.6050194 87.2093419 13.5429677 87.1565935 13.4803742 87.1304903 13.4098323 87.1447613 13.3295355L88.6564903 5.06763871 88.6952387 4.8532129C88.7215226 4.72423226 88.8354194 4.64646452 88.9662968 4.6471871L90.3806581 4.6471871C90.4619484 4.6471871 90.5380903 4.66904516 90.5889419 4.73082581 90.6402452 4.79341935 90.6621935 4.87443871 90.6472 4.95509677L90.6144129 5.15100645C91.1260903 4.82150968 91.8381032 4.55569032 92.4866194 4.53717419 92.5674581 4.5351871 92.646129 4.58712258 92.7075484 4.66019355 92.9176387 3.41220645 93.1304387 2.41134194 93.1671097 2.20179355 93.1892387 2.07127742 93.3022323 1.97643871 93.4353677 1.97770323L94.9836774 1.97978065C95.0632516 1.98113548 95.1392129 2.01690323 95.1904258 2.07705806 95.2323355 2.12673548 95.2546452 2.1887871 95.2546452 2.25282581 95.2546452 2.26754839 95.2539226 2.28263226 95.2511226 2.29843871 95.2511226 2.29843871 94.5804774 5.86374194 94.3610839 7.1464129 95.1071484 6.3364 96.3799742 4.72739355 96.3799742 4.72739355 96.432 4.67094194 96.5042581 4.64492903 96.5799484 4.64492903L98.3905548 4.64492903C98.4811484 4.64492903 98.5644258 4.68756129 98.6135613 4.76289032 98.6626968 4.68403871 98.750671 4.64285161 98.8483097 4.64492903L99.1015742 4.64646452 99.3384903 4.64556129C99.3384903 4.64556129 99.5834452 4.64845161 99.7225419 4.64492903 99.7857677 4.2747871 100.173523 2.20621935 100.173523 2.20621935 100.196284 2.07452903 100.309819 1.98077419 100.44151 1.98077419L102.015832 1.98077419C102.095587 1.98077419 102.172452 2.01645161 102.224116 2.07669677 102.264761 2.12637419 102.287523 2.18842581 102.287523 2.25255484 102.287523 2.26754839 102.286981 2.28389677 102.283639 2.29898065 102.283639 2.29898065 101.928581 4.14996129 101.843406 4.63851613 102.303148 4.63851613 103.432632 4.63896774 103.432632 4.63896774zM98.1951871 12.8852387C98.4278581 11.4626581 99.2761677 7.03847742 99.3548387 6.55705806L98.5846581 6.55705806C98.5033677 6.55705806 98.4264129 6.52047742 98.3756516 6.45860645 98.3233548 6.39610323 98.3014065 6.31372903 98.3173935 6.23397419L98.5143871 5.18207742C98.0645806 5.71335484 95.8340645 8.42935484 95.6228903 8.67882581 95.7850194 8.93741935 97.5672645 11.8768774 98.1951871 12.8852387zM104.212172 2.02475777L104.212172 2.38365207 104.536914 2.38365207C104.611739 2.38365207 104.670103 2.36837997 104.714998 2.33936298 104.758397 2.310346 104.780845 2.2645297 104.780845 2.2019141 104.780845 2.14388013 104.758397 2.09959105 104.714998 2.06904685 104.670103 2.04002987 104.611739 2.02475777 104.536914 2.02475777L104.212172 2.02475777zM104.539907 1.77276815C104.710509 1.77276815 104.840705 1.8109484 104.931992 1.88730889 105.024776 1.96519659 105.069671 2.06904685 105.069671 2.2019141 105.069671 2.31340042 105.033755 2.40656021 104.960426 2.47833907 104.887097 2.55011793 104.783838 2.59440702 104.647655 2.61120633L105.080146 3.11976719 104.741935 3.11976719 104.342368 2.61578796 104.212172 2.61578796 104.212172 3.11976719 103.930828 3.11976719 103.930828 1.77276815 104.539907 1.77276815zM104.456102 3.58251175C104.610243 3.58251175 104.752411 3.55349477 104.8856 3.49393358 105.018789 3.4343724 105.134021 3.35343028 105.234287 3.25263444 105.334553 3.15031138 105.412371 3.02966181 105.469238 2.89221293 105.526106 2.75476405 105.554539 2.60815191 105.554539 2.4508493 105.554539 2.2950739 105.526106 2.14846176 105.469238 2.01101288 105.412371 1.873564 105.334553 1.75291443 105.234287 1.65059137 105.134021 1.54979552 105.018789 1.47038061 104.8856 1.41081943 104.752411 1.35278546 104.610243 1.32376847 104.456102 1.32376847 104.300466 1.32376847 104.155304 1.35278546 104.019122 1.41081943 103.88294 1.47038061 103.766212 1.54979552 103.665946 1.65059137 103.56568 1.75291443 103.487862 1.873564 103.430994 2.01101288 103.374127 2.14846176 103.345693 2.2950739 103.345693 2.4508493 103.345693 2.60815191 103.374127 2.75476405 103.430994 2.89221293 103.487862 3.02966181 103.56568 3.15031138 103.665946 3.25263444 103.766212 3.35343028 103.88294 3.4343724 104.019122 3.49393358 104.155304 3.55349477 104.300466 3.58251175 104.456102 3.58251175zM104.456102 1C104.656635 1 104.843698 1.03818024 105.020286 1.11454073 105.195377 1.19090122 105.348021 1.29322428 105.479714 1.42609153 105.60991 1.55743157 105.714666 1.71167976 105.789491 1.88730889 105.864317 2.06446522 105.903226 2.25231203 105.903226 2.4508493 105.903226 2.65091378 105.864317 2.83876058 105.789491 3.01438971 105.714666 3.18849163 105.60991 3.34273981 105.479714 3.47407986 105.348021 3.6054199 105.195377 3.70927016 105.020286 3.78715786 104.843698 3.86351835 104.656635 3.90322581 104.456102 3.90322581 104.252577 3.90322581 104.061024 3.86351835 103.88294 3.78715786 103.706352 3.70927016 103.552212 3.6054199 103.422015 3.47407986 103.291819 3.34273981 103.18856 3.18849163 103.113735 3.01438971 103.037413 2.83876058 103 2.65091378 103 2.4508493 103 2.25231203 103.037413 2.06446522 103.113735 1.88730889 103.18856 1.71167976 103.291819 1.55743157 103.422015 1.42609153 103.552212 1.29322428 103.706352 1.19090122 103.88294 1.11454073 104.061024 1.03818024 104.252577 1 104.456102 1zM.0764129032 13.4202194L.0764129032 13.4046839C.0783096774 13.3591613.0956516129 13.3144516.127083871 13.2788645L11.4567871.222825806C11.4958065.177935484 11.5521677.146683871 11.611329.146683871L13.3959226.144787097C13.4577032.144787097 13.515871.171883871 13.5544387.220025806 13.5842452.256245161 13.6006839.30836129 13.6006839.354335484 13.6006839.367793548 13.5989677.382516129 13.5964387.396064516 13.5964387.396064516 12.3819613 7.392 12.1180387 8.65886452 13.0121419 7.64996129 18.7217032.221109677 18.7217032.221109677 18.7606323.176941935 18.8163613.146503226 18.8746194.146503226L20.7143097.146503226C20.776271.146503226 20.8358839.175045161 20.8748129.225535484 20.9131097.274490323 20.927471.344309677 20.9123871.405548387L19.5700129 7.74064516C19.583471 7.71535484 19.5962065 7.68825806 19.6106581 7.66269677 20.4716129 5.98938065 22.2437419 4.81464516 24.0124387 4.59732903 24.0188516 4.59624516 24.0252645 4.59552258 24.0325806 4.59552258 25.6311097 4.51531613 26.8670839 5.11975484 27.6069161 6.34371613 27.6108 6.35003871 27.6145032 6.35618065 27.6182065 6.36331613 27.8834839 6.89757419 28.0824645 7.61464516 28.1175097 8.35384516 28.4204516 7.47193548 28.9556129 6.65740645 29.7032129 5.9704129 30.9660129 4.79459355 32.5079097 4.3324129 34.0430323 4.66814194 34.0601935 4.67310968 34.0788903 4.67816774 34.0945161 4.68611613L34.2375871 4.74699355C34.5780129 4.89268387 34.9485161 5.05580645 35.2628387 5.3376129 35.4284903 4.55523871 35.9154194 2.19899355 35.9154194 2.19899355 35.9417032 2.07254194 36.0541548 1.97923871 36.1826839 1.97923871L37.5956 1.97923871C37.6768 1.97923871 37.7542065 2.01771613 37.8059613 2.08003871 37.8579871 2.14263226 37.8795742 2.22536774 37.8644 2.30494194L35.8051355 13.4517419C35.7808387 13.5818065 35.6668516 13.6315742 35.5353419 13.6309419L34.1334452 13.6336516C34.0514323 13.6316645 33.9746581 13.6371742 33.9226323 13.5748516 33.8812645 13.5259871 33.8594968 13.4647484 33.8594968 13.4007097 33.8594968 13.3848129 33.8608516 13.3681032 33.8642839 13.3510323 33.8642839 13.3510323 33.8989677 13.165329 33.9225419 13.0415871 32.7796903 13.7478194 31.6219355 14.0209548 30.5397806 13.8244129 29.3004645 13.5781935 28.1470452 12.3679613 27.9141032 11.0682194 27.8509677 10.7206581 27.8218839 10.3726452 27.826129 10.0288774 27.7768129 10.0734968 27.7116 10.1005935 27.641871 10.1005935 27.641871 10.1005935 21.4431226 10.1038452 21.1360258 10.1038452 21.1302452 10.127871 21.1252774 10.1537032 21.1252774 10.1828774 21.1252774 10.2829548 21.1592387 10.4090452 21.2032258 10.5582581 21.2032258 10.5582581 21.2226452 10.6252774 21.2315871 10.6548129 21.5410323 11.4127097 22.2820387 11.889071 23.1218581 11.8686581 23.9588774 11.8491484 24.7317677 11.4497419 25.4201161 10.6806452 25.4711484 10.6222968 25.5458452 10.589329 25.6233419 10.589329L27.0732903 10.589329C27.1679484 10.589329 27.254929 10.6373806 27.305329 10.7163226 27.3550065 10.7953548 27.3605161 10.8948903 27.3208645 10.9803355 26.4982968 12.7119097 24.6508387 13.8741806 22.7122452 13.8741806 21.3646323 13.8217935 20.2321677 13.1667742 19.603071 12.0686323 19.2884774 11.4837032 19.1400774 10.7564258 19.1484774 10.0160516L18.5005935 13.4721548C18.4787355 13.5642839 18.396 13.6310323 18.3023355 13.6310323L16.6090581 13.6330194C16.5465548 13.6330194 16.4875742 13.6038452 16.4485548 13.5548 16.4201032 13.5175871 16.4050194 13.4737806 16.4050194 13.4283484 16.4050194 13.411729 16.4064645 13.3963742 16.4106194 13.3795742 17.1267871 10.3960387 17.6894065 6.06868387 18.0548516 4.3904 17.1767355 5.41890323 11.203071 13.5548903 11.203071 13.5548903 11.1645032 13.6002323 11.1085032 13.6305806 11.0492516 13.6314839L9.30322581 13.6314839C9.24045161 13.633471 9.18219355 13.6012258 9.14227097 13.5529935 9.11336774 13.5165032 9.09710968 13.4703484 9.09710968 13.4235613 9.09710968 13.4100129 9.09846452 13.3958323 9.10171613 13.3803871 9.75664516 10.3610839 10.4281032 6.07536774 10.7516387 4.40187097 9.90585806 5.41249032 2.7179871 13.5551613 2.7179871 13.5551613 2.67770323 13.6037548 2.61754839 13.6303097 2.55414194 13.6310323 2.02882581 13.6364516.280270968 13.6337419.280270968 13.6337419.199793548 13.6337419.127896774 13.5696129.0953806452 13.4971742.0832774194 13.4728774.0771354839 13.4464129.0764129032 13.4202194zM34.8510581 8.76029677C34.8626194 8.34101935 34.764529 7.93068387 34.571329 7.61726452 34.2167226 7.03883871 33.7432516 6.78304516 33.358929 6.69407742 32.6783484 6.53682581 31.9011226 6.68865806 31.3291097 7.0876129 30.3352 7.83430968 29.7649032 8.81015484 29.7645419 9.82050323 29.7645419 9.98209032 29.7689677 10.1148645 29.8125032 10.3107742 29.9133032 10.7957161 30.189871 11.2728 30.6123097 11.5625548 31.0118968 11.8219613 31.6271742 11.9242968 32.4187613 11.7705677 33.4445548 11.5201935 34.4722452 10.4892516 34.7651613 9.36852903 34.8176387 9.16891613 34.8443742 9.03126452 34.8510581 8.76029677zM21.7531097 8.08215484C22.4035226 8.07637419 25.5155871 8.0892 25.9634065 8.08504516 25.9314323 7.78255484 25.7724645 7.47058065 25.4387226 7.13647742 25.0719226 6.82061935 24.6919355 6.61811613 23.8507613 6.67673548 23.0748 6.78412903 22.1767226 7.2763871 21.7531097 8.08215484zM88.2298065 4.9092129L87.9292129 6.72370323 86.662529 13.4516516C86.6385935 13.5817161 86.5247871 13.6339226 86.3923742 13.6320258L84.9899355 13.6320258C84.9090968 13.6313935 84.8314194 13.6371742 84.7794839 13.5735871 84.7387484 13.5248129 84.7168 13.4642065 84.7167097 13.4000774 84.7167097 13.384 84.7180645 13.367471 84.7207742 13.350671 84.7207742 13.350671 84.7567226 13.1647871 84.7793032 13.0405935 83.6372645 13.7469161 82.479329 14.019329 81.3971742 13.8236 80.1579484 13.5777419 79.0036258 12.3676 78.7709548 11.0673161 78.708271 10.7193032 78.8274065 10.3717419 78.8316516 10.0277032 78.8316516 10.0277032 78.8368903 9.92590968 78.8346323 9.79692903L78.1993935 13.4719742C78.1774452 13.5633806 78.0957935 13.6333806 78.0011355 13.6333806L76.2798581 13.6333806C76.2178065 13.6333806 76.1582839 13.5989677 76.1200774 13.5490194 76.0907226 13.5137032 76.075729 13.468 76.075729 13.4227484 76.075729 13.4075742 76.0776258 13.3905935 76.081329 13.3755097 76.683871 10.4010968 77.3022194 6.33170323 77.6673935 4.65378065 76.7883742 5.68147097 70.8719742 13.5591355 70.8719742 13.5591355 70.8334968 13.6048387 70.7782194 13.6300387 70.7180645 13.6308516L68.9717677 13.6308516C68.9096258 13.6315742 68.8511871 13.6039355 68.8110839 13.5555226 68.781729 13.5185806 68.7657419 13.4724258 68.7657419 13.426 68.7657419 13.4123613 68.767729 13.398271 68.7699871 13.3834581 69.3729806 10.3605419 70.0201419 6.32384516 70.3440387 4.6508 69.4974452 5.66087742 62.1493419 13.5582323 62.1493419 13.5582323 62.1090581 13.6065548 62.0489032 13.6332 61.9859484 13.630671L59.7566065 13.630671C59.6763097 13.630671 59.6045935 13.5837032 59.5709032 13.5103613 59.5432645 13.4493935 59.5494065 13.3665677 59.5828258 13.3103871 59.5834581 13.3073161 59.5820129 13.3057806 59.5834581 13.3038839 59.5868 13.2992774 59.5886968 13.2961161 59.5914065 13.2925032 59.5902323 13.2935871 59.5895097 13.2944 59.5886968 13.2953935 59.6711613 13.1627097 59.7389032 13.0513419 59.7941806 12.9539742 59.9745548 12.6080387 60.0682194 12.2836 60.1149161 12.0605032 60.3538194 10.5124645 60.032271 9.20522581 60.032271 9.20522581 59.4986452 6.45210323 57.1254194 4.91246452 55.2159097 5.74532903 55.2349677 5.74442581 55.2542065 5.74388387 55.2743484 5.74388387 55.3631355 5.74388387 55.4501161 5.7531871 55.5338452 5.7708 57.6017806 5.44509677 59.5076774 7.54988387 59.3097806 10.3577419 59.3097806 10.3577419 59.1910968 11.6893677 58.5433935 13.1971226 58.0790452 13.4376516 57.5805548 13.6332 57.0504516 13.7676903 56.9673548 13.7890968 56.8857935 13.8062581 56.8022452 13.8248645 57.8479097 12.5254839 58.318671 11.2428129 58.318671 11.2428129 59.256671 8.51904516 57.8773548 5.936 55.709071 5.82228387 55.8022839 5.85696774 55.8901677 5.90375484 55.9713677 5.95903226 58.0574581 6.61125161 58.7357806 9.47890323 57.117471 11.8776903 57.117471 11.8776903 56.3340129 12.9892903 54.9975097 13.9784129 54.361729 13.949329 53.7337161 13.8283871 53.1284645 13.6252516 54.6720774 13.0211742 55.7134968 12.154529 55.7134968 12.154529 57.8550452 10.2919871 57.9814065 7.42162581 56.2406194 6.20778065 56.3185677 6.3047871 56.3823355 6.412 56.4284 6.52869677 57.7591226 8.15513548 56.890129 10.8686065 54.3549548 12.1038581 54.3549548 12.1038581 53.1570968 12.6606968 51.5411355 12.8556129 51.0769677 12.5545677 50.6557032 12.2016774 50.2832129 11.8091355 51.842 12.0191355 53.0853806 11.8013677 53.0853806 11.8013677 55.8691226 11.2615097 57.4121935 8.84294194 56.5176387 6.92286452 56.5188129 6.94851613 56.5196258 6.97425806 56.5196258 7.00036129 56.5196258 7.07126452 56.5140258 7.14045161 56.5032774 7.20710968 56.9105419 9.31234839 54.7838065 11.2800258 51.9344 11.0796903 51.9344 11.0796903 50.6841548 10.9675097 49.2347484 10.371471 48.9581806 9.86530323 48.7435742 9.3220129 48.5968903 8.74729032 48.5846968 8.70095484 48.5757548 8.65443871 48.565729 8.60873548 49.8092903 9.56769032 50.9931484 10.0025935 50.9931484 10.0025935 53.6536 10.9193677 56.1811871 9.62224516 56.3996774 7.53913548 56.3512645 7.64309677 56.2892129 7.73856774 56.2155097 7.82509677 55.4636645 9.7776 52.6881419 10.3749032 50.3562839 8.80130323 50.3562839 8.80130323 49.1487613 7.86492903 48.2228645 6.76778065L46.9929419 13.4512903C46.9687355 13.5812645 46.8548387 13.6309419 46.7234194 13.6303097L45.3208903 13.6274194C45.2392387 13.6274194 45.1522581 13.6079097 45.0996 13.5455871 45.0590452 13.4964516 45.0469419 13.4636645 45.0469419 13.3998065 45.0469419 13.3834581 45.0482065 13.366929 45.0510968 13.3502194 45.0510968 13.3502194 45.0868645 13.1640645 45.1106194 13.0400516 43.9674968 13.7465548 42.8097419 14.0187871 41.7275871 13.8231484 40.488271 13.5772 39.334671 12.3670581 39.1014581 11.0667742 39.0388645 10.7193032 39.0089677 10.0145161 39.0027355 9.9912129L38.3786968 13.4474065C38.3565677 13.5787355 38.2420387 13.6307613 38.1084516 13.6299484L36.5441548 13.6314839C36.4629548 13.6309419 36.386271 13.6366323 36.3342452 13.5731355 36.2820387 13.5113548 36.2610839 13.4294323 36.2753548 13.3503097L37.8326065 4.85845161C37.8560903 4.72829677 37.9691742 4.63354839 38.1016774 4.63210323L39.6687742 4.63210323C39.7489806 4.63110968 39.8259355 4.66705806 39.8779613 4.72892903 39.9303484 4.79061935 39.9520258 4.86992258 39.9388387 4.94985806L39.2938452 8.40903226C39.3102839 8.3728129 39.3209419 8.35276129 39.3209419 8.35276129 39.6245161 7.47076129 40.1429677 6.65569032 40.8902968 5.96896774 42.1531871 4.79332903 43.7065548 4.30910968 45.234 4.68042581 45.2518839 4.68530323 45.4344258 4.74834839 45.4344258 4.74834839 45.7750323 4.89476129 46.1356903 5.05472258 46.4499226 5.33689032 46.499329 5.01209032 46.5755613 4.84698065 46.5755613 4.84698065 46.642671 4.70625806 46.7463613 4.63806452 46.8760645 4.63806452L48.2881677 4.63806452C48.37 4.63806452 48.4534581 4.66010323 48.5115355 4.71583226 48.5593161 4.76162581 48.5953548 4.84571613 48.6117935 4.89900645 49.1207613 6.31670968 50.0455742 7.54554839 50.0455742 7.54554839 51.9370194 9.72385806 54.8719613 9.81770323 56.0492258 7.98541935 55.9859097 8.03645161 55.9192516 8.08025806 55.8481677 8.11837419L55.8152903 8.14203871 55.8039097 8.14420645C54.1974323 9.63940645 51.3652774 8.79407742 50.0939871 6.18772903 50.0939871 6.18772903 49.5639742 5.04171613 49.3562323 3.47994839 49.6906968 2.91895484 50.0959742 2.41549677 50.5575226 1.97806452 50.3362323 3.56268387 50.5575226 4.83397419 50.5575226 4.83397419 51.1028 7.64381935 53.5628258 9.19032258 55.4912129 8.23967742 55.4209419 8.25250323 55.3484129 8.25945806 55.2744387 8.25945806 55.2308129 8.25945806 55.1884516 8.25701935 55.1458194 8.25250323 53.0435613 8.65570323 51.080129 6.52996129 51.2791097 3.68245161 51.2791097 3.68245161 51.3949032 2.39580645 52.0137032.920116129 52.5003613.657187097 53.0199871.451522581 53.5676129.308090323 52.6097419 1.55174194 52.1750194 2.73397419 52.1750194 2.73397419 51.2399097 5.45024516 52.6102839 8.02877419 54.7698968 8.15152258 54.7000774 8.12045161 54.6347742 8.08350968 54.5731742 8.04169032L54.5451742 8.02886452 54.5366839 8.02082581C52.4384903 7.37700645 51.7546581 4.5015871 53.3756774 2.0972 53.3756774 2.0972 54.1192129 1.04485161 55.3890581.0781290323 56.0447097.0825548387 56.694671.178477419 57.3225032.366980645 55.8017419.969432258 54.7802839 1.82180645 54.7802839 1.82180645 52.6100129 3.70783226 52.5098452 6.63058065 54.323071 7.81371613 54.2551484 7.73269677 54.1969806 7.64390968 54.1509161 7.54654194 52.6992516 5.93410323 53.5508129 3.13157419 56.1390968 1.87085161 56.1390968 1.87085161 57.3516774 1.30814194 58.9823613 1.11629677 59.5043355 1.43775484 59.9740129 1.81963871 60.3860645 2.25463226 58.7608903 2.01148387 57.4414581 2.24207742 57.4414581 2.24207742 54.6256516 2.78898065 53.0788774 5.25785806 54.0418065 7.18859355 54.0327742 7.12825806 54.0284387 7.06494194 54.0284387 7.00171613 54.0284387 6.96188387 54.0299742 6.92141935 54.0334968 6.88221935 53.5853161 4.76117419 55.7222581 2.76269677 58.5937032 2.96402581 58.5937032 2.96402581 59.9424 3.0847871 61.4609032 3.74350968 61.723471 4.23486452 61.9298581 4.76099355 62.0704903 5.3152129 62.0919871 5.39767742 62.1089677 5.48122581 62.1276645 5.56549677 60.8242194 4.51594839 59.5340516 4.04184516 59.5340516 4.04184516 56.8717935 3.1248 54.3418581 4.42454194 54.1277032 6.50963871 54.1766581 6.39249032 54.2431355 6.28347097 54.3243355 6.18809032 55.0933419 4.26006452 57.8525161 3.67847742 60.1710968 5.2435871 60.1710968 5.2435871 61.2877548 6.02984516 62.2780516 7.37113548 62.2494194 7.93465806 62.1520516 8.48806452 61.9913677 9.02060645 61.389729 7.50914839 60.5444903 6.49365161 60.5444 6.49365161 58.6964 4.36781935 55.8558452 4.22827097 54.6261935 5.92714839 54.7074839 5.87674839 54.7941032 5.83682581 54.8852387 5.80557419 56.5079742 4.4360129 59.250529 5.29922581 60.4953548 7.85228387 60.4953548 7.85228387 61.2546968 9.59063226 61.4146581 11.1880774L70.9106323.222193548C70.9486581.177664516 71.0061032.145148387 71.0648129.145148387L73.0457677.145148387C73.1065548.145148387 73.1652645.173780645 73.2043742.220748387 73.2338194.257509677 73.2497161.3192 73.2497161.366348387 73.2497161.380619355 73.2491742.39443871 73.2455613.40843871 73.2455613.40843871 72.0698323 7.43138065 71.7470194 8.67304516 72.6409419 7.66405161 78.3080516.221019355 78.3080516.221019355 78.346529.177574194 78.4017161.145058065 78.4610581.145058065L80.3477161.142980645C80.4100387.142980645 80.4699226.17116129 80.5084903.221019355 80.547329.270425806 80.561871.342141935 80.5466968.403380645L79.1406452 7.94685161C79.4577677 7.22174194 79.9280774 6.55037419 80.5591613 5.97032258 81.8221419 4.79468387 83.3633161 4.33250323 84.8988 4.66805161 84.9167742 4.67229677 84.9342968 4.67771613 84.9506452 4.68503226L85.0938065 4.74690323C85.5412645 4.92131613 85.8546839 5.10105806 86.1689161 5.38430968L86.2770323 4.84806452C86.3042194 4.72152258 86.4158581 4.64122581 86.5451097 4.64122581L87.9576645 4.64122581C88.0385032 4.64122581 88.1159097 4.66778065 88.1676645 4.73010323 88.2105677 4.78140645 88.2315226 4.84445161 88.2298065 4.9092129zM45.9752774 9.36870968C46.0356129 9.17072258 46.0650581 8.95385806 46.0646968 8.73500645 46.0646968 8.33686452 45.9676 7.9268 45.7844258 7.60498065 45.4557419 7.01165161 44.929071 6.78205161 44.5450194 6.69407742 43.864529 6.53682581 43.0873032 6.68865806 42.5155613 7.08770323 41.5212903 7.8344 40.9800774 8.80726452 40.9800774 9.8176129 40.9800774 9.9800129 40.9788129 10.0838839 41.0308387 10.304271 41.1652387 10.7851484 41.3992645 11.2638581 41.8216129 11.5539742 42.2213806 11.812929 42.9005161 11.8984645 43.6669935 11.7537677 44.6928774 11.5034839 45.6573419 10.477329 45.9752774 9.36870968zM85.6458581 9.36870968C85.7067355 9.17072258 85.7274194 8.95385806 85.7272387 8.73491613 85.7272387 8.33686452 85.6381806 7.9268 85.4549161 7.60498065 85.1264129 7.01165161 84.5995613 6.78205161 84.2156 6.69407742 83.5342065 6.53691613 82.7574323 6.68856774 82.1852387 7.08770323 81.1920516 7.8344 80.6506581 8.80726452 80.6506581 9.8176129 80.6506581 9.9800129 80.6660129 10.1415097 80.6936516 10.304271 80.8142323 10.7727742 81.0695742 11.2638581 81.4920129 11.5539742 81.8916903 11.812929 82.4672258 11.9130065 83.2514065 11.7829419 84.2776516 11.5338323 85.3035355 10.4716387 85.6458581 9.36870968z"/>
      <path d="M38.2547742,4.38714839 L39.8163613,4.38714839 C39.9485935,4.38714839 40.0615871,4.25464516 40.0851613,4.12449032 L40.4243226,2.30412903 C40.4384129,2.22365161 40.4171871,2.14190968 40.3660645,2.08003871 C40.314129,2.01807742 40.2380774,1.97842581 40.1569677,1.97743226 L38.5839097,1.97887742 C38.4524,1.97806452 38.3390452,2.08202581 38.3133935,2.21046452 L37.9857032,4.02341935 C37.9698065,4.10371613 37.9913032,4.22384516 38.0432387,4.28698065 C38.0952645,4.35002581 38.1728516,4.38714839 38.2547742,4.38714839 L38.2547742,4.38714839 Z"/>
    </g>
    <g fill="#FFFFFF" transform="translate(53 31)">
      <path d="M4.62624204.636541193L4.29002687 2.45472301C4.29002687 2.45472301 3.02380242 2.18199574 2.93974863 2.40926847 2.85569483 2.63654119 2.98177552 3.63654119 3.3179907 4.27290483 3.65420588 4.90926847 3.86434037 6.0456321 3.69623278 6.5456321 3.52812519 7.0456321 3.2759638 7.77290483 2.64556035 8.0456321 2.01515689 8.31835938.586242383 8.22745028.0398927188 8.0456321-.00213417837 7.13654119.124767351 6.13227983.124767351 6.13227983.124767351 6.13227983 1.51165496 6.49591619 1.67976255 6.4050071 1.84787014 6.31409801 1.59390291 5.13227983 1.38376842 4.67773438 1.17363394 4.22318892.627284274 3.08682528.837418761 2.35955256 1.04755325 1.63227983 1.25768773.72318892 1.97214499.586825284 2.68660224.450461648 3.02281742.22318892 3.52714018.314098011 4.03146295.405007102 4.62624204.636541193 4.62624204.636541193zM5.29226987.405007102L4.03228379 8.08682528 5.88146726 8.13227983 6.59592452 4.04137074C6.59592452 4.04137074 7.31038177 3.67773437 7.43646246 3.76864347 7.56254315 3.85955256 7.43646246 4.58682528 7.43646246 4.58682528L6.76386794 8.13441051 8.65507831 8.13441051 9.62186112 3.17773437C9.62186112 3.17773437 9.41172663 2.08682528 9.07551145 1.95046165 8.73929627 1.81409801 7.68862384 1.95046165 7.43646246 2.08682528 7.18430108 2.22318892 6.8901128 2.45046165 6.8901128 2.45046165L7.22632797.13227983 5.29226987.405007102zM9.70591491 6.77272727C9.62069446 6.26644075 9.7273552 5.35476865 9.8319956 4.77272727 10.1261839 3.13636364 11.0951009 1.90909091 12.3956363 1.90909091 13.0331912 1.90909091 13.8829247 2.15752647 14.2448198 2.68181818 14.6211473 3.22701865 14.4549543 4.20083152 14.4549543 5.04545455 14.4549543 5.89925449 14.1273262 6.95233036 13.4883357 7.54545455 12.8873235 8.10332637 11.9915157 8.22727273 11.4290177 8.22727273 10.68805 8.22727273 9.85641459 7.66683145 9.70591491 6.77272727zM12.7717442 3.54723011C12.7717442 3.54723011 12.1413408 3.54723011 11.9732332 4.04723011 11.8051256 4.54723011 11.7210718 5.2290483 11.6790449 5.50177557 11.637018 5.77450284 11.3864983 6.50177557 11.7630987 6.50177557 12.1396991 6.50177557 12.5599681 5.45809659 12.6440219 4.95809659 12.7280757 4.45809659 12.7717442 3.54723011 12.7717442 3.54723011zM15.6758685 2.13636364L17.525052 1.95454545 17.6091058 2.36363636C17.6091058 2.36363636 18.5757244 1.86363636 18.9539665 1.86363636 19.3322086 1.86363636 19.7945044 2.45454545 19.8785582 3.18181818 19.962612 3.90909091 19.7104506 5.18181818 19.4582892 6.31818182 19.2061279 7.45454545 18.0714016 8.04545455 17.8612671 8.09090909 17.6511327 8.13636364 16.4743795 8.13636364 16.4743795 8.13636364L16.2222182 9.63636364 14.2889809 9.81818182 15.6758685 2.13636364zM17.9830795 3.7290483C17.9830795 3.7290483 17.352676 3.7290483 17.1845684 4.2290483 17.0164608 4.7290483 16.9324071 5.41086648 16.8903802 5.68359375 16.8483533 5.95632102 16.5978336 6.68359375 16.974434 6.68359375 17.3510343 6.68359375 17.7713033 5.63991477 17.8553571 5.13991477 17.9394109 4.63991477 17.9830795 3.7290483 17.9830795 3.7290483zM20.8872037 2.13636364L22.7363872 1.95454545 22.820441 2.36363636C22.820441 2.36363636 23.7870597 1.86363636 24.1653017 1.86363636 24.5435438 1.86363636 25.0058397 2.45454545 25.0898935 3.18181818 25.1739473 3.90909091 24.9217859 5.18181818 24.6696245 6.31818182 24.4174631 7.45454545 23.2827369 8.04545455 23.0726024 8.09090909 22.8624679 8.13636364 21.6857148 8.13636364 21.6857148 8.13636364L21.4335534 9.63636364 19.5003161 9.81818182 20.8872037 2.13636364zM23.1944147 3.7290483C23.1944147 3.7290483 22.5640113 3.7290483 22.3959037 4.2290483 22.2277961 4.7290483 22.1437423 5.41086648 22.1017154 5.68359375 22.0596885 5.95632102 21.8091688 6.68359375 22.1857692 6.68359375 22.5623696 6.68359375 22.9826386 5.63991477 23.0666924 5.13991477 23.1507462 4.63991477 23.1944147 3.7290483 23.1944147 3.7290483z"/>
      <polygon points="26.141 2.046 25.091 8.001 26.982 8.092 28.033 2.001"/>
      <polygon points="26.394 .228 26.183 1.546 28.159 1.41 28.369 .092"/>
      <path d="M28.7470544 2.04545455L27.7384088 8.04545455 29.6708253 8.04545455 30.3012287 4.09090909C30.3012287 4.09090909 31.3098743 3.5 31.2678474 3.81818182 31.2258205 4.13636364 30.595417 8.04545455 30.595417 8.04545455L32.4446005 8.04545455 33.2431115 3.54545455C33.2431115 3.54545455 33.3691922 1.90909091 32.6967619 1.90909091 32.0243315 1.90909091 30.5113632 2.59090909 30.5113632 2.59090909L30.595417 1.90909091 28.7470544 2.04545455zM36.5212095 1.95454545L36.8574247.545454545 38.8747158.409090909 37.8240433 2.22727273C37.8240433 2.22727273 38.1182316 2.31818182 38.2863392 2.63636364 38.4544468 2.95454545 38.3283661 3.95454545 38.3283661 4.31818182 38.3283661 4.68181818 37.4037744 5.81818182 36.8994516 5.95454545 36.3951288 6.09090909 35.1763488 5.95454545 35.1763488 5.95454545L35.0082412 6.54545455C35.0082412 6.54545455 36.3531019 6.63636364 36.9835054 6.59090909 37.6139088 6.54545455 37.6559357 7.22727273 37.6979626 7.54545455 37.7399895 7.86363636 37.529855 8.68181818 37.3617475 8.95454545 37.1936399 9.22727273 35.8487792 9.90909091 34.4198647 9.90909091 32.9909501 9.90909091 32.9909501 9.13636364 32.9909501 8.59090909 32.9909501 8.04545455 33.1170308 7.81818182 33.7894612 7.5 33.453246 7.09090909 33.5372998 6.81818182 33.5793267 6.63636364 33.6213536 6.45454545 33.8314881 5.77272727 33.9575688 5.5 33.6633805 5.31818182 33.6633805 5 33.6213536 4.63636364 33.5793267 4.27272727 33.7474343 3.59090909 33.9575688 3.09090909 34.1677033 2.59090909 34.5459453 2.31818182 34.7981067 2.04545455 35.0502681 1.77272727 36.5212095 1.95454545 36.5212095 1.95454545zM36.3892188 3.91264205C36.3892188 3.91264205 36.8515147 3.23082386 36.2211112 3.18536932 35.5907077 3.13991477 35.6327346 4.18536932 35.6327346 4.18536932 35.6327346 4.18536932 35.464627 4.77627841 35.8428691 4.82173295 36.2211112 4.8671875 36.3892188 3.91264205 36.3892188 3.91264205zM35.5907077 7.90909091C35.5907077 7.90909091 35.2965195 7.81818182 35.1284119 7.90909091 34.9603043 8 34.8762505 8.13636364 34.8342236 8.31818182 34.7921967 8.5 35.086385 8.54634233 35.4226002 8.5 35.7588153 8.45365767 35.9689498 8.31729403 36.0109767 8.13547585 36.0530036 7.95365767 35.5907077 7.90909091 35.5907077 7.90909091zM44.5483469.545454545C44.5483469.545454545 41.8165986-.0909090909 41.1021413 1.40909091 40.3876841 2.90909091 40.2616034 3.81818182 40.1775496 4.68181818 40.0934958 5.54545455 39.9253882 6.54545455 40.0514689 7.04545455 40.1775496 7.54545455 40.7659261 8.13636364 41.3543027 8.18181818 41.9426793 8.22727273 43.2455131 7.95454545 43.2455131 7.95454545L43.5817282 6.13636364 41.9830645 6.31818182C41.9830645 6.31818182 41.8990107 6.04545455 41.9410376 5.54545455 41.9830645 5.04545455 42.2772528 3.36363636 42.4033334 3.04545455 42.5294141 2.72727273 42.9496831 2.31818182 43.411979 2.36363636 43.8742748 2.40909091 44.21049 2.40909091 44.21049 2.40909091L44.5483469.545454545zM44.8408935 2.18181818C44.8408935 2.18181818 46.3958887 1.81818182 47.068319 1.86363636 47.7407494 1.90909091 48.8334487 2.31818182 48.7914218 3.04545455 48.7493949 3.77272727 48.0769646 8.04545455 48.0769646 8.04545455L46.3538618 8.13636364 46.3118349 7.77272727C46.3118349 7.77272727 45.5973776 8.18181818 45.1771087 8.22727273 44.7568397 8.27272727 44.0003555 7.81818182 44.0003555 6.90909091 44.0003555 6 44.0844093 5.13636364 44.6727859 4.86363636 45.2611625 4.59090909 46.3538618 4.36363636 46.690077 4.36363636 47.0262921 4.36363636 46.9002114 3.68181818 46.9002114 3.68181818 46.9002114 3.68181818 45.3031894 3.63636364 44.8829204 3.86363636 44.7988666 3.04545455 44.8408935 2.18181818 44.8408935 2.18181818zM46.517701 5.95454545C46.517701 5.95454545 46.7278355 5.68181818 46.5597279 5.54545455 46.3916203 5.40909091 46.1814858 5.5 45.9713514 5.77272727 45.7612169 6.04545455 45.6771631 6.63636364 45.9713514 6.63636364 46.2655396 6.63636364 46.517701 5.95454545 46.517701 5.95454545zM49.7580405 2.09090909L48.707368 8.04545455 50.5985784 8.09090909 51.2289819 4.40909091C51.2289819 4.40909091 52.2796543 4 52.5738426 4 52.8680309 4 53.0361384 1.90909091 53.0361384 1.90909091 53.0361384 1.90909091 52.0695198 1.86363636 51.3970894 2.77272727 51.3970894 2.31818182 51.4811432 1.86363636 51.4811432 1.86363636L49.7580405 2.09090909zM56.062075 1.95454545L56.3554425.365411932 58.3307067.138139205 56.943819 8.1381392 55.2215371 8.04723011 55.2215371 7.41086648C55.2215371 7.41086648 54.843295 8.27450284 53.8346495 8.2290483 52.826004 8.18359375 52.7839771 7 52.7839771 7 52.7839771 7 52.5738426 6.22727273 53.0361384 4.04545455 53.4984343 1.86363636 56.062075 1.95454545 56.062075 1.95454545zM55.7636184 3.95454545C55.7636184 3.95454545 55.7636184 3.5 55.511457 3.5 55.2592956 3.5 54.9651074 3.95454545 54.8390267 4.45454545 54.712946 4.95454545 54.6288922 5.40909091 54.6709191 5.68181818 54.712946 5.95454545 54.712946 6.13636364 55.091188 6.13636364 55.4694301 6.13636364 55.5570956 5.7253196 55.5570956 5.45259233 55.5570956 5.17986506 55.7636184 3.95454545 55.7636184 3.95454545z"/>
    </g>
  </g>
</svg>
