<?xml version="1.0" encoding="UTF-8" standalone="no"?>
<svg width="120px" height="80px" viewBox="0 0 120 80" version="1.1" xmlns="http://www.w3.org/2000/svg" xmlns:xlink="http://www.w3.org/1999/xlink" xmlns:sketch="http://www.bohemiancoding.com/sketch/ns">
    <!-- Generator: Sketch 3.2.2 (9983) - http://www.bohemiancoding.com/sketch -->
    <title>card_migros@1x</title>
    <desc>Created with Sketch.</desc>
    <defs></defs>
    <g id="assets-various" stroke="none" stroke-width="1" fill="none" fill-rule="evenodd" sketch:type="MSPage">
        <g id="Artboard-2" sketch:type="MSArtboardGroup" transform="translate(-36.000000, -1818.000000)">
            <g id="card_migros" sketch:type="MSLayerGroup" transform="translate(36.000000, 1818.000000)">
                <rect id="Rectangle-11" fill="#FFFFFF" sketch:type="MSShapeGroup" x="0" y="0" width="120" height="80" rx="4"></rect>
                <g id="Group-2" transform="translate(10.000000, 24.000000)" sketch:type="MSShapeGroup">
                    <path d="M16.1312929,18.8048793 L16.1312929,8.24187451 L11.7930333,18.8048793 L9.38424867,18.8048793 L5.11800788,8.24187451 L5.11800788,18.8048793 L0.63431223,18.8048793 L0.63431223,0.508910926 L6.63564709,0.508910926 L10.7581998,10.8400948 L15.071987,0.508910926 L20.6139397,0.508910926 L20.6139397,18.8048793 L16.1312929,18.8048793" id="Fill-1" fill="#FF6616"></path>
                    <path d="M24.0628019,18.8048793 L24.0628019,0.508910926 L27.8955314,0.508910926 C28.2336003,0.508910926 28.5667747,0.86084072 28.5667747,1.24015094 L28.5667747,18.8048793 L24.0628019,18.8048793" id="Fill-2" fill="#FF6616"></path>
                    <path d="M41.0057526,8.27035015 L46.7004831,8.27035015 C47.1504259,8.27035015 47.4059878,8.65404125 47.4059878,9.10381044 L47.4059878,18.5566301 C45.8026951,18.9300992 43.2995169,19.1582694 41.4378655,19.1582694 C34.9037312,19.1582694 31.4590643,15.9083949 31.4590643,9.63243528 C31.4590643,4.03441509 34.9037312,0.156250987 40.6463577,0.156250987 C43.1750572,0.156250987 45.3919082,0.86084072 46.8196987,1.86734533 L45.0538393,5.01463449 C43.8211289,4.4378201 42.1573544,4.03441509 40.9816298,4.03441509 C37.6806509,4.03441509 36.1374905,6.32195875 36.1374905,9.63243528 C36.1374905,13.1703519 37.923627,15.3545801 41.2204106,15.3545801 C41.825928,15.3545801 42.5747839,15.3297552 43.1750572,15.233376 L43.1750572,12.0083265 L41.0057526,12.0083265 L41.0057526,8.27035015" id="Fill-3" fill="#FF6616"></path>
                    <path d="M60.7203788,18.8048793 L58.6419718,13.7683405 C58.2172006,12.7424871 57.9210844,12.2343063 57.02015,12.2343063 L55.1980041,12.2343063 L55.1980041,18.8048793 L50.7940186,18.8048793 L50.7940186,1.24015094 C50.7940186,0.86084072 51.1936181,0.508910926 51.4795957,0.508910926 L57.6976862,0.508910926 C61.0748792,0.508910926 63.9706649,1.24015094 63.9706649,5.79698464 C63.9706649,7.83627907 62.8886346,9.92485827 60.8626684,10.346882 C61.8716311,10.7046529 62.8886346,12.0579763 63.441012,13.5244721 L65.4435545,18.8048793 L60.7203788,18.8048793 L60.7203788,18.8048793 Z M57.4019197,4.03441509 L55.1980041,4.03441509 L55.1980041,8.62227995 L57.4019197,8.62227995 C58.7178363,8.62227995 59.7537185,7.8888495 59.7537185,6.15000965 C59.7537185,4.38597982 58.7178363,4.03441509 57.4019197,4.03441509 L57.4019197,4.03441509 Z" id="Fill-4" fill="#FF6616"></path>
                    <path d="M75.1779812,19.1582694 C69.4409484,19.1582694 66.4063692,14.9281755 66.4063692,9.63243528 C66.4063692,4.38597982 69.4409484,0.156250987 75.1779812,0.156250987 C80.5517735,0.156250987 83.5901983,4.38597982 83.5901983,9.63243528 C83.5901983,14.9281755 80.5517735,19.1582694 75.1779812,19.1582694 L75.1779812,19.1582694 Z M75.1779812,4.03441509 C72.8146453,4.03441509 71.1330409,5.79698464 71.1330409,9.63243528 C71.1330409,13.5244721 72.8146453,15.2812005 75.1779812,15.2812005 C77.2046466,15.2812005 78.8638762,13.5244721 78.8638762,9.63243528 C78.8638762,5.79698464 77.2046466,4.03441509 75.1779812,4.03441509 L75.1779812,4.03441509 Z" id="Fill-5" fill="#FF6616"></path>
                    <path d="M92.2170735,19.1582694 C89.2559115,19.1582694 86.5038139,18.0499096 85.2770468,17.169355 L87.2743453,13.4708065 C88.3885393,14.174301 90.555047,15.2574708 92.553744,15.2574708 C93.6850686,15.2574708 95.1142576,15.0289355 95.1142576,13.7175954 C95.1142576,12.4858412 93.5172578,12.1087214 91.4231185,11.4833523 C88.894419,10.7261922 85.9514366,9.67514875 85.9514366,6.12335937 C85.9514366,2.29594032 89.2080155,0.156250987 93.4455886,0.156250987 C96.2438342,0.156250987 98.4117404,1.1905011 99.5178935,2.29594032 L97.0863844,5.18804388 C95.8826913,4.4378201 94.653477,3.85370426 93.2756801,3.85370426 C91.6150521,3.85370426 90.6760107,4.51119965 90.6760107,5.46914963 C90.6760107,6.41870294 91.880403,6.90315401 93.3969934,7.37884335 C96.076373,8.24187451 99.7349987,9.12571479 99.7349987,12.7903115 C99.7349987,16.5658903 96.845506,19.1582694 92.2170735,19.1582694" id="Fill-6" fill="#FF6616"></path>
                    <path d="M4.08174819,31.3081395 C3.85152361,31.4166672 3.60007307,31.511143 3.32738904,31.5915698 C3.05470501,31.6719965 2.79098859,31.7122093 2.53623188,31.7122093 C2.20787879,31.7122093 1.90689297,31.6656981 1.6332654,31.5726744 C1.35963782,31.4796507 1.12658611,31.3401172 0.934103261,31.1540698 C0.739733328,30.9660843 0.589712183,30.7311061 0.484035326,30.4491279 C0.378358469,30.1671498 0.325520833,29.8372112 0.325520833,29.4593023 C0.325520833,28.7674384 0.522246674,28.2214167 0.915704257,27.8212209 C1.30916184,27.4210251 1.84933231,27.2209302 2.53623188,27.2209302 C2.7758919,27.2209302 3.02073773,27.2504842 3.27077672,27.309593 C3.52081571,27.3687018 3.7901933,27.4689915 4.07891757,27.6104651 L4.07891757,28.2936047 L4.02796649,28.2936047 C3.9694668,28.2470928 3.88454917,28.1860469 3.77321105,28.1104651 C3.66187293,28.0348833 3.55242355,27.9718995 3.4448596,27.9215116 C3.31465062,27.8614338 3.1669883,27.8115312 3.00186821,27.7718023 C2.83674812,27.7320734 2.64945757,27.7122093 2.43999094,27.7122093 C1.96821926,27.7122093 1.59505346,27.867731 1.32048234,28.1787791 C1.04591122,28.4898271 0.908627717,28.9108501 0.908627717,29.4418605 C0.908627717,30.0019408 1.05204416,30.4374984 1.33888134,30.7485465 C1.62571852,31.0595946 2.01633962,31.2151163 2.51075634,31.2151163 C2.69191667,31.2151163 2.87260251,31.1967056 3.05281929,31.1598837 C3.23303608,31.1230618 3.39107722,31.0755817 3.52694746,31.0174419 L3.52694746,29.9563953 L2.3975317,29.9563953 L2.3975317,29.4505814 L4.08174819,29.4505814 L4.08174819,31.3081395 Z M11.8234828,31.627907 L9.04664855,31.627907 L9.04664855,27.2994186 L11.8234828,27.2994186 L11.8234828,27.8110465 L9.60711051,27.8110465 L9.60711051,28.997093 L11.8234828,28.997093 L11.8234828,29.5087209 L9.60711051,29.5087209 L9.60711051,31.1162791 L11.8234828,31.1162791 L11.8234828,31.627907 Z M19.7605299,30.3924419 C19.7605299,30.5610474 19.722317,30.7277124 19.6458899,30.8924419 C19.5694629,31.0571714 19.4623724,31.1967049 19.324615,31.3110465 C19.1736481,31.4350781 18.9976799,31.5319764 18.7967052,31.6017442 C18.5957304,31.671512 18.3537152,31.7063953 18.0706522,31.7063953 C17.7668312,31.7063953 17.4936795,31.6773259 17.2511889,31.619186 C17.0086982,31.5610462 16.7619653,31.4748068 16.5109828,31.3604651 L16.5109828,30.6395349 L16.5506114,30.6395349 C16.7638522,30.8217063 17.0101133,30.9622088 17.2894022,31.0610465 C17.568691,31.1598842 17.8309921,31.2093023 18.0763134,31.2093023 C18.4235374,31.2093023 18.6938585,31.1424425 18.8872849,31.0087209 C19.0807113,30.8749993 19.177423,30.6967065 19.177423,30.4738372 C19.177423,30.2819758 19.1316618,30.1405043 19.0401381,30.0494186 C18.9486144,29.9583329 18.8094439,29.8875972 18.6226223,29.8372093 C18.4810908,29.7984494 18.3277673,29.766473 18.1626472,29.7412791 C17.9975271,29.7160851 17.8225024,29.6841087 17.6375679,29.6453488 C17.2639248,29.5639531 16.9869989,29.4249041 16.8067822,29.2281977 C16.6265654,29.0314913 16.5364583,28.7751954 16.5364583,28.4593023 C16.5364583,28.0968974 16.6855359,27.7999043 16.9836957,27.568314 C17.2818554,27.3367236 17.6602106,27.2209302 18.1187726,27.2209302 C18.4150453,27.2209302 18.6867817,27.2499997 18.93399,27.3081395 C19.1811984,27.3662794 19.4000972,27.4379841 19.5906929,27.5232558 L19.5906929,28.2034884 L19.5510643,28.2034884 C19.3906619,28.0639528 19.1797832,27.9481594 18.9184216,27.8561047 C18.6570601,27.7640499 18.3895696,27.7180233 18.115942,27.7180233 C17.8158952,27.7180233 17.5748235,27.7819761 17.3927197,27.9098837 C17.2106158,28.0377913 17.1195652,28.2025184 17.1195652,28.4040698 C17.1195652,28.5843032 17.1648546,28.7257747 17.2554348,28.8284884 C17.3460149,28.9312021 17.5054714,29.0096897 17.7338089,29.0639535 C17.8545824,29.0910854 18.0263047,29.1240308 18.248981,29.1627907 C18.4716572,29.2015506 18.6603631,29.2412789 18.8151042,29.2819767 C19.1283606,29.3672485 19.3642429,29.4961232 19.5227582,29.6686047 C19.6812734,29.8410861 19.7605299,30.0823628 19.7605299,30.3924419 L19.7605299,30.3924419 Z M27.9013813,31.3139535 C27.7975916,31.3604653 27.7037104,31.4040696 27.6197351,31.4447674 C27.5357597,31.4854653 27.4258385,31.5281006 27.2899683,31.5726744 C27.174856,31.6094963 27.0498384,31.6409882 26.9149117,31.6671512 C26.779985,31.6933141 26.6313791,31.7063953 26.4690897,31.7063953 C26.1633816,31.7063953 25.8855123,31.6623066 25.6354733,31.5741279 C25.3854343,31.4859492 25.1679508,31.3478692 24.9830163,31.1598837 C24.801856,30.9757743 24.6603266,30.741765 24.5584239,30.4578488 C24.4565212,30.1739327 24.4055707,29.8439941 24.4055707,29.4680233 C24.4055707,29.1114323 24.4546342,28.7926371 24.5527627,28.5116279 C24.6508912,28.2306188 24.7924206,27.993218 24.9773551,27.7994186 C25.1566283,27.6114332 25.3731683,27.4680238 25.6269814,27.369186 C25.8807946,27.2703483 26.1624381,27.2209302 26.4719203,27.2209302 C26.6983707,27.2209302 26.9243459,27.2490307 27.1498528,27.3052326 C27.3753597,27.3614344 27.6258667,27.4602706 27.9013813,27.6017442 L27.9013813,28.2848837 L27.8589221,28.2848837 C27.6268104,28.0852703 27.3965893,27.9399229 27.1682518,27.8488372 C26.9399143,27.7577515 26.6955403,27.7122093 26.4351223,27.7122093 C26.2218815,27.7122093 26.0298733,27.7475772 25.8590919,27.818314 C25.6883106,27.8890507 25.5359306,27.9990303 25.4019475,28.1482558 C25.2717385,28.2936054 25.1703091,28.4772276 25.0976562,28.6991279 C25.0250034,28.9210282 24.9886775,29.1773241 24.9886775,29.4680233 C24.9886775,29.7722883 25.0287775,30.0339136 25.1089787,30.252907 C25.1891799,30.4719003 25.2924963,30.6501931 25.4189312,30.7877907 C25.5510272,30.9312023 25.7052943,31.0373059 25.8817369,31.1061047 C26.0581795,31.1749034 26.2445265,31.2093023 26.4407835,31.2093023 C26.7106369,31.2093023 26.9635027,31.1618222 27.1993886,31.0668605 C27.4352744,30.9718987 27.6560603,30.8294583 27.8617527,30.6395349 L27.9013813,30.6395349 L27.9013813,31.3139535 Z M35.9035326,31.627907 L35.3430707,31.627907 L35.3430707,29.5087209 L33.239923,29.5087209 L33.239923,31.627907 L32.6794611,31.627907 L32.6794611,27.2994186 L33.239923,27.2994186 L33.239923,28.997093 L35.3430707,28.997093 L35.3430707,27.2994186 L35.9035326,27.2994186 L35.9035326,31.627907 Z M43.7981205,31.627907 L41.0212862,31.627907 L41.0212862,27.2994186 L43.7981205,27.2994186 L43.7981205,27.8110465 L41.5817482,27.8110465 L41.5817482,28.997093 L43.7981205,28.997093 L43.7981205,29.5087209 L41.5817482,29.5087209 L41.5817482,31.1162791 L43.7981205,31.1162791 L43.7981205,31.627907 Z M51.8880208,31.627907 L51.1945199,31.627907 L49.1961051,27.755814 L49.1961051,31.627907 L48.6724411,31.627907 L48.6724411,27.2994186 L49.5414402,27.2994186 L51.3643569,30.8343023 L51.3643569,27.2994186 L51.8880208,27.2994186 L51.8880208,31.627907 Z M60.3826993,31.627907 L59.655231,31.627907 L57.9879982,29.7005814 L57.569067,30.1598837 L57.569067,31.627907 L57.0086051,31.627907 L57.0086051,27.2994186 L57.569067,27.2994186 L57.569067,29.5581395 L59.6156024,27.2994186 L60.2949502,27.2994186 L58.4125906,29.3343023 L60.3826993,31.627907 Z M68.3848505,31.627907 L67.6573822,31.627907 L65.9901495,29.7005814 L65.5712183,30.1598837 L65.5712183,31.627907 L65.0107563,31.627907 L65.0107563,27.2994186 L65.5712183,27.2994186 L65.5712183,29.5581395 L67.6177536,27.2994186 L68.2971014,27.2994186 L66.4147418,29.3343023 L68.3848505,31.627907 Z M76.3218976,31.627907 L75.7246377,31.627907 L75.3113678,30.4215116 L73.4884511,30.4215116 L73.0751812,31.627907 L72.5062274,31.627907 L74.0404212,27.2994186 L74.7877038,27.2994186 L76.3218976,31.627907 Z M75.1387002,29.9273256 L74.3999094,27.8023256 L73.658288,29.9273256 L75.1387002,29.9273256 Z M84.4344429,31.627907 L83.7069746,31.627907 L82.2973279,29.9069767 L81.5075861,29.9069767 L81.5075861,31.627907 L80.9471241,31.627907 L80.9471241,27.2994186 L82.1274909,27.2994186 C82.3822477,27.2994186 82.5945417,27.3163758 82.7643795,27.3502907 C82.9342173,27.3842056 83.0870691,27.444767 83.2229393,27.5319767 C83.3757933,27.6308144 83.4951498,27.7553287 83.5810122,27.9055233 C83.6668747,28.0557178 83.7098053,28.2461229 83.7098053,28.4767442 C83.7098053,28.7887612 83.6333794,29.049902 83.4805254,29.2601744 C83.3276713,29.4704468 83.1172643,29.6288754 82.849298,29.7354651 L84.4344429,31.627907 Z M83.1238678,28.5174419 C83.1238678,28.3934102 83.1026383,28.2834307 83.0601789,28.1875 C83.0177194,28.0915693 82.9474265,28.0106592 82.849298,27.9447674 C82.7681533,27.8885656 82.6719133,27.8493218 82.5605752,27.8270349 C82.4492371,27.804748 82.3180865,27.7936047 82.1671196,27.7936047 L81.5075861,27.7936047 L81.5075861,29.4273256 L82.0737092,29.4273256 C82.2510954,29.4273256 82.4058342,29.4113374 82.5379303,29.3793605 C82.6700263,29.3473836 82.7823063,29.2877911 82.8747736,29.2005814 C82.9596925,29.1191856 83.0224371,29.0256788 83.0630095,28.9200581 C83.1035819,28.8144375 83.1238678,28.6802334 83.1238678,28.5174419 L83.1238678,28.5174419 Z M91.7997056,27.8110465 L90.2938179,27.8110465 L90.2938179,31.627907 L89.733356,31.627907 L89.733356,27.8110465 L88.2274683,27.8110465 L88.2274683,27.2994186 L91.7997056,27.2994186 L91.7997056,27.8110465 Z M99.1281703,31.627907 L96.3513361,31.627907 L96.3513361,27.2994186 L99.1281703,27.2994186 L99.1281703,27.8110465 L96.911798,27.8110465 L96.911798,28.997093 L99.1281703,28.997093 L99.1281703,29.5087209 L96.911798,29.5087209 L96.911798,31.1162791 L99.1281703,31.1162791 L99.1281703,31.627907 Z" id="GESCHENKKARTE" fill="#010101"></path>
                </g>
            </g>
        </g>
    </g>
</svg>