<?xml version="1.0" encoding="UTF-8"?>
<svg width="120px" height="80px" viewBox="0 0 120 80" version="1.1" xmlns="http://www.w3.org/2000/svg" xmlns:xlink="http://www.w3.org/1999/xlink">
    <title>migros-bank</title>
    <g id="migros-bank" stroke="none" stroke-width="1" fill="none" fill-rule="evenodd">
        <rect id="Background" fill="#FFFFFE" fill-rule="nonzero" x="0" y="0" width="120" height="80" rx="4"></rect>
        <g id="MigrosBank_DFI_V_Green_RGB" transform="translate(30.000000, 12.000000)" fill="#144B3C" fill-rule="nonzero">
            <path d="M37.7005181,50.3179208 L41.7882225,55.9936537 L38.55501,55.9936537 L35.1013511,51.1514053 L35.1013511,55.9936537 L32.3615184,55.9936537 L32.3615184,45.7972197 C32.3721617,45.678469 32.4292987,45.568877 32.5203028,45.4926625 C32.6113069,45.4164479 32.7286859,45.3798854 32.8465003,45.3910547 L35.1013511,45.3910547 L35.1013511,49.903294 L38.6053977,45.3910547 L41.6496563,45.3910547 L37.7005181,50.3179208 Z M27.6670617,51.9552735 C27.0687075,50.8615896 23.440791,45.397401 23.440791,45.397401 L20.566591,45.397401 L20.566591,56 L23.2308422,56 L23.2308422,49.3025083 L27.6397684,55.9936537 L30.2914226,55.9936537 L30.2914226,45.3910547 L27.6670617,45.3910547 L27.6670617,51.9552735 Z M16.119874,45.397401 L19.2964004,56 L16.489384,56 L15.9687108,54.2145663 L12.3449934,54.2145663 L11.8432156,56 L9.02360232,56 L12.1518404,45.7549108 C12.2126867,45.5209073 12.4336791,45.3664737 12.6725136,45.3910547 L16.119874,45.397401 Z M15.5026244,52.1668178 L14.2156378,47.4218797 L14.087569,47.4218797 L12.8005824,52.1668178 L15.5026244,52.1668178 Z M8.44834242,53.06165 C8.44834242,55.2130553 6.67637398,55.9936537 4.27245945,55.9936537 L3.55271368e-15,55.9936537 L3.55271368e-15,45.8670293 C0.000541804436,45.7391193 0.0519302728,45.6167623 0.142675923,45.5273148 C0.233421573,45.4378672 0.355955839,45.3887896 0.482882395,45.3909796 L4.32914564,45.3909796 C6.27327215,45.3909796 8.03054417,46.0024176 8.03054417,48.0247809 C8.03054417,49.2940465 7.53296536,50.1867634 6.46222614,50.4808099 C7.58335309,50.700816 8.45674037,51.5300695 8.45674037,53.0595346 L8.44834242,53.06165 Z M2.51308794,49.6494409 L3.98273001,49.6494409 C5.0597677,49.6494409 5.53425214,49.3003929 5.53425214,48.4711393 C5.53425214,47.6418858 5.02617588,47.3245694 4.04781416,47.3245694 L2.51518743,47.3245694 L2.51308794,49.6494409 Z M5.87226982,52.7887579 C5.87226982,51.8981565 5.35159663,51.5194923 4.24306661,51.5194923 L2.51308794,51.5194923 L2.51308794,54.0580236 L4.15488808,54.0580236 C5.24662219,54.0495618 5.87856828,53.6983983 5.87856828,52.7887579 L5.87226982,52.7887579 Z M31.9290237,19.2103354 C31.9290237,16.1556361 33.7597779,13.6572983 37.2239342,13.6572983 C40.4676442,13.6572983 42.3004978,16.1556361 42.3004978,19.2103354 C42.3374683,20.58772 41.8813996,21.9325336 41.0156107,22.9990934 L42.8526633,24.397401 L41.3473299,25.9776367 L39.2604382,24.4058628 C38.6114515,24.6615591 37.9207712,24.7928529 37.2239342,24.7929888 C33.9865226,24.7929888 31.9290237,22.5231188 31.9290237,19.2103354 Z M34.7822288,19.2103354 C34.7822288,21.4780901 35.7962819,22.533696 37.2239342,22.533696 C38.4458366,22.533696 39.4472927,21.4759746 39.4472927,19.2103354 C39.4472927,16.9764279 38.4458366,15.9165911 37.2239342,15.9165911 C35.7962819,15.9165911 34.7822288,16.9764279 34.7822288,19.2103354 Z M43.9422979,13.9534603 L43.9422979,20.3844062 C43.9422979,23.2614083 45.4833226,24.7485645 48.5926653,24.7485645 C51.7880871,24.7485645 53.0204869,22.8235116 53.0204869,20.1284376 L53.0204869,13.9534603 L50.3205445,13.9534603 L50.3205445,20.1940163 C50.3205445,21.4907827 49.7242897,22.5040798 48.5044868,22.5040798 C47.1860079,22.5040798 46.6464393,21.5225144 46.6464393,20.0818979 L46.6464393,13.9534603 L43.9422979,13.9534603 Z M57.6330636,22.4448474 L57.6330636,20.0670898 L61.441536,20.0670898 L61.441536,18.1018435 L57.6330636,18.1018435 L57.6330636,16.0202478 L61.8866276,16.0202478 L61.8866276,13.9534019 L55.5503708,13.9534019 C55.3112473,13.9496189 55.1114471,14.136025 55.0968812,14.3765488 L55.0968812,24.545482 L62,24.545482 L62,22.4300393 L57.6330636,22.4448474 Z M23.2308422,17.8712602 L27.6397684,24.564521 L30.2914226,24.564521 L30.2914226,13.9534603 L27.6670617,13.9534603 L27.6670617,20.5113327 C27.0687075,19.4176488 23.440791,13.9534603 23.440791,13.9534603 L20.566591,13.9534603 L20.566591,24.5560592 L23.2308422,24.5560592 L23.2308422,17.8712602 Z M11.8432156,24.564521 L9.02360232,24.564521 L12.1518404,14.3236627 C12.2143027,14.0910489 12.4345302,13.9380446 12.6725136,13.961922 L16.1303715,13.961922 L19.3068978,24.564521 L16.489384,24.564521 L15.9687108,22.7769719 L12.3449934,22.7769719 L11.8432156,24.564521 Z M12.8089804,20.7355697 L15.5110223,20.7355697 L14.2240358,15.9885162 L14.0959669,15.9885162 L12.8089804,20.7355697 Z M4.2808574,24.5624056 L3.55271368e-15,24.5624056 L3.55271368e-15,14.4378966 C0.000541804436,14.3099867 0.0519302728,14.1876296 0.142675923,14.0981821 C0.233421573,14.0087346 0.355955839,13.959657 0.482882395,13.961847 L4.32914564,13.961847 C6.27327215,13.961847 8.03054417,14.5711695 8.03054417,16.5956482 C8.03054417,17.8649139 7.53296536,18.7555153 6.46222614,19.0495618 C7.58335309,19.2611061 8.45674037,20.1072832 8.45674037,21.6304019 C8.45674037,23.7818072 6.69316989,24.5624056 4.2808574,24.5624056 Z M2.51308794,18.2160774 L3.98273001,18.2160774 C5.0597677,18.2160774 5.53425214,17.8691448 5.53425214,17.0398912 C5.53425214,16.2106377 5.02617588,15.8933212 4.04781416,15.8933212 L2.51518743,15.8933212 L2.51308794,18.2160774 Z M4.15488808,22.6267755 C5.24662219,22.6267755 5.87856828,22.2734965 5.87856828,21.3575098 C5.87856828,20.4415231 5.35789509,20.0882442 4.24936507,20.0882442 L2.51308794,20.0882442 L2.51308794,22.6267755 L4.15488808,22.6267755 Z M37.2197352,11.0362647 C38.7754563,11.0362647 40.041448,10.507404 40.7216823,9.97854337 L39.671938,7.96464189 C39.1470658,8.34965246 38.6893773,8.72620127 37.5451559,8.72620127 C35.6388202,8.72620127 34.748637,7.36174071 34.748637,5.44091871 C34.748637,3.56875189 35.6829095,2.29525536 37.4947682,2.29525536 C38.271295,2.312662 39.0320519,2.51954012 39.7118282,2.89815654 L40.7615726,0.939256573 C39.9217771,0.378664249 38.649487,-3.55271368e-15 37.2659239,-3.55271368e-15 C33.5834208,-3.55271368e-15 31.9290237,2.60834089 31.9290237,5.5001511 C31.9290237,8.39196132 33.5183367,11.0362647 37.2197352,11.0362647 Z M23.2308422,4.13780598 L27.6397684,10.8310668 L30.2914226,10.8310668 L30.2914226,0.228467815 L27.6670617,0.228467815 L27.6670617,6.78634028 C27.0687075,5.69477183 23.440791,0.228467815 23.440791,0.228467815 L20.566591,0.228467815 L20.566591,10.8310668 L23.2308422,10.8310668 L23.2308422,4.13780598 Z M11.8432156,10.8310668 L9.02360232,10.8310668 L12.1518404,0.590208522 C12.2135408,0.357052671 12.4342983,0.203680121 12.6725136,0.228467815 L16.1303715,0.228467815 L19.3068978,10.8310668 L16.489384,10.8310668 L15.9687108,9.04351768 L12.3449934,9.04351768 L11.8432156,10.8310668 Z M12.8089804,7.00211544 L15.5110223,7.00211544 L14.2240358,2.25506195 L14.0959669,2.25506195 L12.8089804,7.00211544 Z M4.2808574,10.8289513 L3.55271368e-15,10.8289513 L3.55271368e-15,0.702326987 C0.000532054851,0.574603773 0.0519871437,0.45245508 0.142797417,0.363341702 C0.233607691,0.274228325 0.356152644,0.225628371 0.482882395,0.228467815 L4.32914564,0.228467815 C6.27327215,0.228467815 8.03054417,0.837715322 8.03054417,2.86219402 C8.03054417,4.13145966 7.53296536,5.02206105 6.46222614,5.31610759 C7.58335309,5.52765186 8.45674037,6.37382895 8.45674037,7.89694772 C8.45674037,10.048353 6.69316989,10.8289513 4.2808574,10.8289513 Z M2.51308794,4.48262315 L3.98273001,4.48262315 C5.0597677,4.48262315 5.53425214,4.1335751 5.53425214,3.30432155 C5.53425214,2.475068 5.02617588,2.15775159 4.04781416,2.15775159 L2.51518743,2.15775159 L2.51308794,4.48262315 Z M4.15488808,8.8763977 C5.24662219,8.8763977 5.87856828,8.52523421 5.87856828,7.60713206 C5.87856828,6.68902992 5.35789509,6.33786642 4.24936507,6.33786642 L2.51308794,6.33786642 L2.51308794,8.8763977 L4.15488808,8.8763977 Z M44.3118079,10.822605 L41.4921946,10.822605 L44.6204328,0.581746751 C44.6812461,0.348911381 44.9013099,0.195401816 45.1390065,0.220006044 L48.5968643,0.220006044 L51.7733907,10.822605 L48.9579764,10.822605 L48.4373032,9.03505591 L44.8156852,9.03505591 L44.3118079,10.822605 Z M45.2796722,6.99365367 L47.9817141,6.99365367 L46.6947276,2.25506195 L46.5666588,2.25506195 L45.2796722,6.99365367 Z M11.9985778,40.3964944 L3.55271368e-15,40.3964944 L3.55271368e-15,43.108492 L11.9985778,43.108492 L11.9985778,40.3964944 Z M30.5328638,27.703838 L34.2678541,27.703838 C36.2959602,27.703838 38.0343368,28.1269266 38.0343368,30.7691145 C38.0343368,31.951647 37.3855948,33.1616803 36.1678914,33.4070716 C36.7746436,33.6186159 37.3855948,34.3970988 37.717314,35.2475068 L38.920321,38.306437 L36.0860113,38.306437 L34.838915,35.3892415 C34.5827774,34.7948021 34.4043209,34.5007555 33.8647523,34.5007555 L32.7688192,34.5007555 L32.7688192,38.3085524 L30.1234635,38.3085524 L30.1234635,28.1269266 C30.1460099,27.9072843 30.3155185,27.7321082 30.5328638,27.703838 Z M32.7667197,32.4064672 L34.0893976,32.4064672 C34.8809048,32.4064672 35.5023535,31.9833787 35.5023535,30.9743125 C35.5023535,29.9652463 34.8725069,29.7473557 34.0893976,29.7473557 L32.7667197,29.7473557 L32.7667197,32.4064672 Z M14.0686736,27.703838 L14.0686736,38.306437 L16.7707155,38.306437 L16.7707155,28.1269266 C16.7628132,27.9030725 16.5892721,27.7209269 16.3676137,27.703838 L14.0686736,27.703838 Z M28.089059,38.1625869 L28.089059,32.6772439 C28.1007239,32.5562972 28.0622295,32.4358745 27.9827013,32.3445234 C27.9031731,32.2531723 27.7896924,32.1990269 27.6691612,32.1949229 L24.2448952,32.1949229 L24.2448952,34.3611363 L25.5465782,34.3611363 L25.5465782,36.2290722 C25.1574576,36.2797805 24.7653031,36.3031069 24.372964,36.2988818 C22.3931462,36.2988818 21.3203075,35.0296162 21.3203075,32.9839831 C21.3203075,31.0652765 22.246182,29.7388939 24.2301988,29.7388939 C25.0731041,29.7717677 25.9022526,29.9648397 26.6740036,30.307948 L27.7363449,28.4844364 C26.877654,27.9005742 25.5465782,27.4922937 24.0286479,27.4922937 C20.579188,27.4922937 18.5111916,29.7388939 18.5111916,32.9924448 C18.5111916,36.6288909 20.579188,38.5116349 24.5031323,38.5116349 C25.7070372,38.5082814 26.9078465,38.3885631 28.089059,38.1541251 L28.089059,38.1625869 Z M49.8187667,32.9924448 C49.8187667,36.0619523 47.9922116,38.5116349 44.7652975,38.5116349 C41.3200366,38.5116349 39.4976804,36.0619523 39.4976804,32.9924448 C39.4976804,29.9229374 41.3200366,27.4922937 44.7652975,27.4922937 C47.9922116,27.4922937 49.8187667,29.9440919 49.8187667,32.9924448 Z M46.980258,32.9924448 C46.980258,30.7691145 45.9830009,29.7473557 44.7652975,29.7473557 C43.3460431,29.7473557 42.3361891,30.7691145 42.3361891,32.9924448 C42.3361891,35.2157752 43.3460431,36.2650348 44.7652975,36.2650348 C45.9830009,36.256573 46.980258,35.239045 46.980258,32.9924448 L46.980258,32.9924448 Z M55.705733,31.6851012 C54.7966544,31.4100937 54.0723308,31.1308552 54.0723308,30.5808401 C54.0723308,30.030825 54.6370932,29.643699 55.6343503,29.643699 C56.4615489,29.643699 57.2005689,29.9821698 57.922793,30.4158356 L59.3819376,28.740405 C58.7184992,28.1057721 57.4168162,27.5007555 55.7351258,27.5007555 C53.1905455,27.5007555 51.2359216,28.740405 51.2359216,30.9595044 C51.2359216,33.0178302 53.003691,33.6270777 54.5216213,34.0649743 C55.7813146,34.426715 56.7386814,34.6467211 56.7386814,35.3596253 C56.7386814,36.1190692 55.8799905,36.2523421 55.1997562,36.2523421 C54.0009482,36.2523421 52.6992652,35.6177093 52.0295283,35.2157752 L50.8307203,37.3587186 C51.5676408,37.8706558 53.2199384,38.5116349 54.9982053,38.5116349 C57.7779283,38.5116349 59.5121059,37.0096706 59.5121059,34.8223028 C59.5121059,32.6899365 57.3160408,32.1779994 55.705733,31.6766395 L55.705733,31.6851012 Z M2.69154448,32.1779994 L5.25502015,38.2979752 L6.69316989,38.2979752 L9.29653584,32.1779994 L9.29653584,38.2979752 L11.9901798,38.2979752 L11.9901798,27.703838 L8.66878873,27.703838 L6.07801971,33.6841946 L3.60272256,27.703838 L3.55271368e-15,27.703838 L3.55271368e-15,38.306437 L2.69154448,38.306437 L2.69154448,32.1779994 Z" id="Shape"></path>
        </g>
    </g>
</svg>