<?xml version="1.0" encoding="UTF-8" standalone="no"?>
<svg width="120px" height="80px" viewBox="0 0 120 80" version="1.1" xmlns="http://www.w3.org/2000/svg" xmlns:xlink="http://www.w3.org/1999/xlink" xmlns:sketch="http://www.bohemiancoding.com/sketch/ns">
    <!-- Generator: Sketch 3.3.2 (12043) - http://www.bohemiancoding.com/sketch -->
    <title>card_migrosbank</title>
    <desc>Created with Sketch.</desc>
    <defs></defs>
    <g id="assets-card-icons" stroke="none" stroke-width="1" fill="none" fill-rule="evenodd" sketch:type="MSPage">
        <g id="production-final" sketch:type="MSArtboardGroup" transform="translate(-36.000000, -3047.000000)">
            <g id="card_migrosbank" sketch:type="MSLayerGroup" transform="translate(36.000000, 3047.000000)">
                <rect id="Rectangle-11" fill="#FFFFFF" sketch:type="MSShapeGroup" x="0" y="0" width="120" height="80" rx="4"></rect>
                <g id="Group-Copy-8" transform="translate(30.000000, 11.000000)" sketch:type="MSShapeGroup">
                    <path d="M0.683429402,39.0769305 C0.426221425,39.0769305 0.227232821,39.2763599 0.227232821,39.5341377 L0.227232821,49.2443479 L4.3547257,49.2443479 C6.67481117,49.2443479 8.37360034,48.5006241 8.37360034,46.4357893 C8.37360034,44.9666302 7.54288809,44.1654289 6.46191943,43.9538073 C7.49335818,43.672516 7.96085105,42.8234169 7.96085105,41.602456 C7.96085105,39.6595431 6.27596501,39.0769305 4.39817299,39.0769305 L0.683429402,39.0769305 L0.683429402,39.0769305 Z M12.457639,39.0769305 C12.120488,39.0769305 12.0057871,39.2728764 11.9579951,39.4252788 L8.93841516,49.2443479 L11.653864,49.2443479 L12.1317843,47.5243779 L15.6292914,47.5243779 L16.1289353,49.2443479 L18.8443911,49.2443479 L15.7813569,39.0769305 L12.457639,39.0769305 L12.457639,39.0769305 Z M20.082639,39.0769305 L20.082639,49.2443479 L22.6460293,49.2443479 L22.6460293,42.8216752 L26.903864,49.2443479 L29.4672544,49.2443479 L29.4672544,39.0769305 L26.9255877,39.0769305 L26.9255877,45.3689725 C26.3486146,44.3195731 22.8415421,39.0769305 22.8415421,39.0769305 L20.082639,39.0769305 L20.082639,39.0769305 Z M32.008921,39.0769305 C31.7612784,39.0769305 31.5475108,39.2241076 31.5310008,39.4688223 L31.5310008,49.2443479 L34.1812857,49.2443479 L34.1812857,44.6069605 L37.5267273,49.2443479 L40.6332088,49.2443479 L36.7012287,43.8014049 L40.5028669,39.0769305 L37.5701746,39.0769305 L34.1812857,43.409513 L34.1812857,39.0769305 L32.008921,39.0769305 L32.008921,39.0769305 Z M2.63855761,40.9275311 L4.11576558,40.9275311 C5.06204764,40.9275311 5.54952627,41.2706542 5.54952627,42.0378914 C5.54952627,42.8338674 5.1107086,43.1482518 4.07231829,43.1482518 L2.63855761,43.1482518 L2.63855761,40.9275311 L2.63855761,40.9275311 Z M13.8262287,41.0146181 L13.9565706,41.0146181 L15.1948185,45.5649184 L12.5879809,45.5649184 L13.8262287,41.0146181 L13.8262287,41.0146181 Z M2.63855761,44.9553088 L4.3112784,44.9553088 C5.38008182,44.9553088 5.89710462,45.3175911 5.89710462,46.174528 C5.89710462,47.0453989 5.27754621,47.3937473 4.22438382,47.3937473 L2.63855761,47.3937473 L2.63855761,44.9553088 L2.63855761,44.9553088 Z" id="path8172" fill="#000000"></path>
                    <path d="M0.000347578348,52.0485521 L0.000347578348,57.6917953 L47.183952,57.6917953 L47.2358974,57.584639 L47.2358974,52.1547343 L47.183952,52.0485521 L0.000347578348,52.0485521 L0.000347578348,52.0485521 Z" id="path8188" fill="#0CA440"></path>
                    <path d="M47.243287,57.6917953 L60.9717558,57.6917953 L60.9717558,52.0485521 L47.243287,52.0485521 L47.243287,57.6917953 L47.243287,57.6917953 Z" id="path8190" fill="#FF352E"></path>
                    <path d="M8.98316934,36.7106907 L8.98316934,30.8340541 L6.46843305,36.7106907 L5.07291293,36.7106907 L2.59901709,30.8340541 L2.59901709,36.7106907 L-8.8817842e-16,36.7106907 L-8.8817842e-16,26.5310811 L3.47925926,26.5310811 L5.8679984,32.2788288 L8.36969356,26.5310811 L11.5813175,26.5310811 L11.5813175,36.7106907 L8.98316934,36.7106907 L8.98316934,36.7106907 Z M13.580755,36.7106907 L13.580755,26.5310811 L15.8026565,26.5310811 C15.9981693,26.5310811 16.1919443,26.7278979 16.1919443,26.9386486 L16.1919443,36.7106907 L13.580755,36.7106907 L13.580755,36.7106907 Z M23.4024571,30.8497297 L26.7035755,30.8497297 C26.9642593,30.8497297 27.112849,31.063964 27.112849,31.313033 L27.112849,36.5730931 C26.1830839,36.7803604 24.7328132,36.9083784 23.6527066,36.9083784 C19.8649785,36.9083784 17.8681409,35.0987087 17.8681409,31.6073874 C17.8681409,28.4931532 19.8649785,26.3351351 23.1939101,26.3351351 C24.6598148,26.3351351 25.9449858,26.7278979 26.7722222,27.2878679 L25.7486109,29.0383183 C25.0343305,28.7178378 24.0698006,28.4931532 23.388547,28.4931532 C21.4751282,28.4931532 20.5801209,29.7663664 20.5801209,31.6073874 C20.5801209,33.5755556 21.6159044,34.7904204 23.5267094,34.7904204 C23.8777635,34.7904204 24.3122365,34.7773922 24.6598148,34.7242342 L24.6598148,32.9293694 L23.4024571,32.9293694 L23.4024571,30.8497297 L23.4024571,30.8497297 Z M34.8308332,36.7106907 L33.6256052,33.9082282 C33.3796866,33.3386787 33.2076353,33.0547748 32.6854058,33.0547748 L31.6296296,33.0547748 L31.6296296,36.7106907 L29.0766667,36.7106907 L29.0766667,26.9386486 C29.0766667,26.7278979 29.3086752,26.5310811 29.4737749,26.5310811 L33.0781693,26.5310811 C35.0358974,26.5310811 36.7147009,26.9386486 36.7147009,29.4737538 C36.7147009,30.6076276 36.0873289,31.7702402 34.9125141,32.0045045 C35.4981766,32.2030631 36.0873289,32.9563664 36.407963,33.7732432 L37.5688746,36.7106907 L34.8308332,36.7106907 L34.8308332,36.7106907 Z M32.9069801,28.4931532 L31.6296296,28.4931532 L31.6296296,31.0456757 L32.9069801,31.0456757 C33.6690456,31.0456757 34.2694941,30.6372372 34.2694941,29.6705706 C34.2694941,28.6882282 33.6690456,28.4931532 32.9069801,28.4931532 L32.9069801,28.4931532 Z M43.2109402,36.9083784 C39.8854913,36.9083784 38.1267379,34.5535435 38.1267379,31.6073874 C38.1267379,28.6882282 39.8854913,26.3351351 43.2109402,26.3351351 C46.3269801,26.3351351 48.0874713,28.6882282 48.0874713,31.6073874 C48.0874713,34.5535435 46.3269801,36.9083784 43.2109402,36.9083784 L43.2109402,36.9083784 Z M43.2109402,28.4931532 C41.8414815,28.4931532 40.8656553,29.4737538 40.8656553,31.6073874 C40.8656553,33.7732432 41.8414815,34.7503604 43.2109402,34.7503604 C44.3857619,34.7503604 45.3476781,33.7732432 45.3476781,31.6073874 C45.3476781,29.4737538 44.3857619,28.4931532 43.2109471,28.4931532 L43.2109402,28.4931532 Z M53.0882479,36.9083784 C51.3712108,36.9083784 49.7767021,36.2909309 49.0658974,35.8006306 L50.2233333,33.7427628 C50.8689601,34.1346547 52.1254558,34.7372973 53.2837676,34.7372973 C53.9398148,34.7372973 54.7679272,34.6101502 54.7679272,33.8803604 C54.7679272,33.1958559 53.8424998,32.985976 52.6277135,32.6376276 C51.1626638,32.2161261 49.4560611,31.6317718 49.4560611,29.6557658 C49.4560611,27.5256156 51.3442805,26.3351351 53.8007904,26.3351351 C55.4222365,26.3351351 56.6796011,26.9107808 57.3200212,27.5256156 L55.910584,29.134985 C55.2136895,28.7178378 54.5002849,28.3912613 53.7017306,28.3912613 C52.7398006,28.3912613 52.1949785,28.7587688 52.1949785,29.2917417 C52.1949785,29.8203604 52.892735,30.0894595 53.7721083,30.3542042 C55.3249145,30.8340541 57.4460114,31.3252252 57.4460114,33.3639339 C57.4460114,35.4644745 55.7715527,36.9083784 53.0882479,36.9083784 L53.0882479,36.9083784 Z" id="path8194" fill="#909697"></path>
                    <g id="Group" transform="translate(0.000000, 12.854054)" fill="#000000">
                        <path d="M31.2820513,5.50959382 C31.2820513,2.47904342 33.0653657,0 36.4369802,0 C39.5952979,0 41.3816594,2.47904342 41.3816594,5.50959382 C41.3816594,7.06867666 40.9047885,8.32345282 40.1300697,9.26922861 L41.9179487,10.6593391 L40.4522943,12.227027 L38.4206414,10.6655973 C37.9430148,10.8932406 37.0982006,11.0496965 36.4369802,11.0496965 C33.2885657,11.0496965 31.2820513,8.79829642 31.2820513,5.50959382 M36.4369802,2.24201276 C35.0482712,2.24201276 34.0594816,3.29339628 34.0594816,5.50959382 C34.0594816,7.75942937 35.0482712,8.80846605 36.4369802,8.80846605 C37.6284018,8.80846605 38.6034734,7.75942937 38.6034734,5.50959382 C38.6034734,3.29339628 37.6284018,2.24201276 36.4369802,2.24201276" id="path5094"></path>
                        <path d="M47.6559214,10.972973 C44.654225,10.972973 43.1692308,9.50383087 43.1692308,6.65902336 L43.1692308,0.313513514 L45.7775963,0.313513514 L45.7775963,6.35989793 C45.7775963,7.78385963 46.2985144,8.7529014 47.5706116,8.7529014 C48.7468297,8.7529014 49.3221045,7.75425867 49.3221045,6.47129099 L49.3221045,0.313513514 L51.9282051,0.313513514 L51.9282051,6.4058573 C51.9282051,9.06916422 50.7399138,10.972973 47.6559214,10.972973" id="path5098"></path>
                        <path d="M54.8676209,0.313513514 L60.8943207,0.313513514 L60.8943207,2.32208403 L56.8479923,2.32208403 L56.8479923,4.3514249 L60.470859,4.3514249 L60.470859,6.27152908 L56.8479923,6.27152908 L56.8479923,8.59857841 L61,8.59857841 L61,10.6594595 L54.4307692,10.6594595 L54.4344844,0.73584412 C54.4344844,0.51506291 54.6250049,0.313513514 54.8676209,0.313513514" id="path5102"></path>
                        <path d="M22.5907301,4.12833588 L22.5907301,10.6594595 L20.0205128,10.6594595 L20.0205128,0.313513514 L22.7938407,0.313513514 C22.7938407,0.313513514 26.2957995,5.65149544 26.8726638,6.71770713 L26.8726638,0.313513514 L29.4051282,0.313513514 L29.4051282,10.6594595 L26.8552975,10.6594595" id="path5106"></path>
                        <path d="M15.0767069,6.92310289 L12.4453976,6.92310289 L13.6993513,2.2920824 L13.8235272,2.2920824 L15.0767069,6.92310289 L15.0767069,6.92310289 Z M15.521613,8.91551869 L16.028214,10.6594595 L18.7692308,10.6594595 L15.6770233,0.313513514 L12.3113181,0.313513514 C11.9715486,0.313513514 11.85042,0.511216548 11.8031875,0.667378867 L8.75897436,10.6594595 L11.504556,10.6594595 L11.9936412,8.91551869 L15.521613,8.91551869 Z" id="path5110"></path>
                        <path d="M3.89060432,2.19851147 L2.41817647,2.19851147 L2.41817647,4.46820289 L3.82966071,4.46820289 C4.8641974,4.46820289 5.32014593,4.12736449 5.32014593,3.31950822 C5.32014593,2.53934988 4.83334939,2.19851147 3.89060432,2.19851147 M5.65496564,7.53267101 C5.65496564,6.66326378 5.15236289,6.29088051 4.08773661,6.29088051 L2.41817647,6.29088051 L2.41817647,8.76215131 L3.99669738,8.76215131 C5.04627585,8.76215131 5.65496564,8.41977413 5.65496564,7.53267101 M8.13333333,7.79810949 C8.13333333,9.89699702 6.42992165,10.6594595 4.11857859,10.6594595 L0,10.6594595 L0.000746371197,0.777453828 C0.000746371197,0.515092887 0.207653709,0.313513514 0.464218808,0.313513514 L4.16372201,0.313513514 C6.03417036,0.313513514 7.72328061,0.909018991 7.72328061,2.88326583 C7.72328061,4.12428694 7.24400798,4.99215539 6.21624882,5.27836732 C7.29366574,5.49379566 8.13333333,6.30472948 8.13333333,7.79810949" id="path5114"></path>
                    </g>
                    <g id="Group" fill="#000000">
                        <path d="M22.5907301,3.81482236 L22.5907301,10.3459459 L20.0205128,10.3459459 L20.0205128,0 L22.7938407,0 C22.7938407,0 26.2957995,5.33798193 26.8726638,6.40419362 L26.8726638,0 L29.4051282,0 L29.4051282,10.3459459 L26.8552975,10.3459459" id="path5106"></path>
                        <path d="M15.0767069,6.60958938 L12.4453976,6.60958938 L13.6993513,1.97856889 L13.8235272,1.97856889 L15.0767069,6.60958938 L15.0767069,6.60958938 Z M15.521613,8.60200517 L16.028214,10.3459459 L18.7692308,10.3459459 L15.6770233,0 L12.3113181,0 C11.9715486,0 11.85042,0.197703034 11.8031875,0.353865353 L8.75897436,10.3459459 L11.504556,10.3459459 L11.9936412,8.60200517 L15.521613,8.60200517 Z" id="path5110"></path>
                        <path d="M46.9843992,6.60958938 L44.3530899,6.60958938 L45.6070436,1.97856889 L45.7312195,1.97856889 L46.9843992,6.60958938 L46.9843992,6.60958938 Z M47.4293053,8.60200517 L47.9359063,10.3459459 L50.6769231,10.3459459 L47.5847156,0 L44.2190104,0 C43.8792409,0 43.7581123,0.197703034 43.7108798,0.353865353 L40.6666667,10.3459459 L43.4122483,10.3459459 L43.9013335,8.60200517 L47.4293053,8.60200517 Z" id="path5110-copy"></path>
                        <path d="M3.89060432,1.88499796 L2.41817647,1.88499796 L2.41817647,4.15468938 L3.82966071,4.15468938 C4.8641974,4.15468938 5.32014593,3.81385097 5.32014593,3.00599471 C5.32014593,2.22583637 4.83334939,1.88499796 3.89060432,1.88499796 M5.65496564,7.21915749 C5.65496564,6.34975027 5.15236289,5.977367 4.08773661,5.977367 L2.41817647,5.977367 L2.41817647,8.4486378 L3.99669738,8.4486378 C5.04627585,8.4486378 5.65496564,8.10626061 5.65496564,7.21915749 M8.13333333,7.48459598 C8.13333333,9.58348351 6.42992165,10.3459459 4.11857859,10.3459459 L0,10.3459459 L0.000746371197,0.463940314 C0.000746371197,0.201579374 0.207653709,0 0.464218808,0 L4.16372201,0 C6.03417036,0 7.72328061,0.595505478 7.72328061,2.56975232 C7.72328061,3.81077343 7.24400798,4.67864188 6.21624882,4.96485381 C7.29366574,5.18028215 8.13333333,5.99121596 8.13333333,7.48459598" id="path5114"></path>
                        <path d="M39.419915,0.903770378 C39.419915,0.903770378 37.4556173,-0.197374647 35.5457323,0.0312388411 C33.6358472,0.259852329 32.0633208,1.28550293 31.4430163,3.34685868 C31.2057911,4.1351898 31.2033879,4.68837592 31.2033879,5.35368122 C31.2033879,6.01898652 31.3999207,6.93356789 31.4536862,7.14237087 C31.5407465,7.48047684 32.0089081,8.98559374 33.6195234,9.77087213 C35.2301387,10.5561505 36.1333892,10.3380176 37.1781126,10.2507645 C38.2228361,10.1635113 39.445846,9.33626792 39.445846,9.33626792 L38.3969566,7.49138348 C38.3969566,7.49138348 37.7222394,7.97127583 37.286938,8.10215556 C36.8516366,8.23303529 35.4913196,8.36391502 34.6968945,7.61135657 C33.9024694,6.85879812 33.7285613,5.69178719 33.8045265,4.98285531 C33.8804917,4.27392344 34.0100194,2.92443924 35.0928317,2.44326877 C36.175644,1.9620983 36.8606487,2.11440789 37.3848808,2.28891419 C37.909113,2.4634205 38.4465232,2.70502823 38.4465232,2.70502823 L39.419915,0.903770378 Z" id="Path-1297-Copy"></path>
                    </g>
                </g>
            </g>
        </g>
    </g>
</svg>