<svg width="120" height="80" viewBox="0 0 120 80" fill="none" xmlns="http://www.w3.org/2000/svg">
<rect width="120" height="80" rx="4" fill="white"/>
<path d="M23.5655 55.5C22.5051 55.5001 21.5489 54.8616 21.1426 53.882L12.0969 32.045C11.5434 30.7088 12.1779 29.177 13.5139 28.6234L22.9884 24.6994C23.63 24.4336 24.3509 24.4335 24.9925 24.6993C25.6341 24.965 26.1439 25.4749 26.4095 26.1165L35.4553 47.9545C36.0078 49.2902 35.3735 50.8211 34.0382 51.3747L24.5637 55.3005C24.2473 55.4319 23.9081 55.4997 23.5655 55.5ZM23.9907 25.9089C23.8319 25.9091 23.6747 25.9407 23.5282 26.0019L14.0532 29.9259C13.7571 30.0486 13.5218 30.2839 13.3991 30.5801C13.2765 30.8763 13.2766 31.2091 13.3993 31.5052L22.4451 53.3436C22.7011 53.9598 23.4076 54.2525 24.0244 53.998L33.4989 50.0713C33.795 49.9486 34.0303 49.7133 34.153 49.4171C34.2756 49.1209 34.2756 48.7881 34.1528 48.492L25.1071 26.6558C24.9198 26.2043 24.4795 25.9097 23.9907 25.9089Z" fill="#5A78FF"/>
<path style="mix-blend-mode:multiply" opacity="0.7" d="M27.0068 27.5565L25.7042 28.0961L29.2858 36.7427L30.5883 36.2031L27.0068 27.5565Z" fill="url(#paint0_linear_302_2)"/>
<path style="mix-blend-mode:multiply" opacity="0.7" d="M33.551 47.0418L34.8535 46.5023L30.7994 36.7146L29.4968 37.2542L33.551 47.0418Z" fill="url(#paint1_linear_302_2)"/>
<path d="M31.906 40.5541C29.1964 41.6777 26.9339 43.2264 25.4526 45.0934L21.6333 35.8692C23.3754 33.8452 25.5929 32.2854 28.0867 31.3299C30.7963 30.2064 33.5338 29.6625 35.8597 29.9794L39.6798 39.2031C37.0167 39.0025 34.3454 39.4668 31.906 40.5541Z" fill="#5A78FF"/>
<g style="mix-blend-mode:multiply" opacity="0.4">
<path opacity="0.9" d="M31.906 40.5541C29.1964 41.6777 26.9339 43.2264 25.4526 45.0934L21.6333 35.8692C23.3754 33.8452 25.5929 32.2854 28.0867 31.3299C30.7963 30.2064 33.5338 29.6625 35.8597 29.9794L39.6798 39.2031C37.0167 39.0025 34.3454 39.4668 31.906 40.5541Z" fill="url(#paint2_linear_302_2)"/>
<path opacity="0.7" d="M31.906 40.5541C29.1964 41.6777 26.9339 43.2264 25.4526 45.0934L21.6333 35.8692C23.3754 33.8452 25.5929 32.2854 28.0867 31.3299C30.7963 30.2064 33.5338 29.6625 35.8597 29.9794L39.6798 39.2031C37.0167 39.0025 34.3454 39.4668 31.906 40.5541Z" fill="url(#paint3_linear_302_2)"/>
</g>
<path d="M33.1506 43.3662C30.2176 43.3662 27.5327 43.9329 25.4518 45.0898V35.7631C27.8358 34.5601 30.4812 33.9679 33.1506 34.0396C36.0836 34.0396 38.8211 34.5834 40.8489 35.7654V45.092C38.4653 43.888 35.82 43.295 33.1506 43.3662ZM48.1338 43.3747L50.5068 35.8737C50.5317 35.7698 50.6205 35.6937 50.727 35.6849H51.918C52.0248 35.6999 52.1146 35.7725 52.1517 35.8737L53.9989 40.6062C54.0348 40.7006 54.1292 40.7096 54.1607 40.6062L55.9944 35.8737C56.0315 35.7725 56.1213 35.6999 56.2281 35.6849H57.4191C57.5256 35.6937 57.6144 35.7698 57.6393 35.8737L59.9853 43.3747C60.0126 43.4325 60.0073 43.5004 59.9712 43.5531C59.9351 43.6058 59.8738 43.6355 59.8101 43.6309H58.3943C58.294 43.6355 58.2048 43.5672 58.1831 43.4691L56.6775 38.5973C56.655 38.5029 56.5472 38.5029 56.5157 38.5973L54.718 43.4332C54.6874 43.5496 54.5822 43.6308 54.4618 43.6309H53.6303C53.5 43.6309 53.4326 43.559 53.3832 43.4332L51.5495 38.5973C51.5135 38.5029 51.4191 38.5029 51.3967 38.5973L49.8551 43.4691C49.8312 43.5697 49.738 43.6381 49.6349 43.6309H48.2866C48.2258 43.63 48.1699 43.5976 48.1387 43.5455C48.1076 43.4933 48.1057 43.4287 48.1338 43.3747ZM60.4348 40.6781C60.4092 39.4003 61.1593 38.234 62.3326 37.7271C63.506 37.2203 64.8693 37.4737 65.7822 38.3683C66.695 39.2629 66.9759 40.6208 66.4929 41.8042C66.0099 42.9875 64.8589 43.761 63.5808 43.7613C62.749 43.7896 61.9419 43.476 61.3475 42.8935C60.7531 42.3109 60.4232 41.5103 60.4348 40.6781ZM65.1089 40.6781C65.0525 39.8377 64.3338 39.1971 63.4925 39.2373C62.6511 39.2775 61.9968 39.9838 62.0209 40.8258C62.0449 41.6677 62.7385 42.3355 63.5808 42.3276C64.4555 42.2911 65.1354 41.5529 65.0999 40.6781H65.1089ZM69.4953 43.1455C69.3785 43.0512 69.2751 43.0871 69.2751 43.2489V43.4017C69.2752 43.5199 69.182 43.6171 69.0639 43.6219H67.9673C67.8476 43.6173 67.7516 43.5214 67.747 43.4017V35.9007C67.7516 35.781 67.8476 35.6851 67.9673 35.6804H69.1223C69.2404 35.6853 69.3336 35.7825 69.3335 35.9007V38.04C69.3335 38.1928 69.4369 38.2377 69.6032 38.1209C70.0456 37.7895 70.5831 37.6098 71.1358 37.6085C72.7357 37.6085 73.9627 38.9568 73.9627 40.6916C73.9992 41.4843 73.7146 42.2583 73.1733 42.8385C72.632 43.4187 71.8796 43.7562 71.0863 43.7747C70.4965 43.7684 69.9299 43.5443 69.4953 43.1455ZM72.3717 40.6916C72.4159 40.1128 72.1322 39.5579 71.637 39.255C71.1417 38.952 70.5186 38.952 70.0233 39.255C69.5281 39.5579 69.2444 40.1128 69.2886 40.6916C69.2728 41.1111 69.4263 41.5192 69.7145 41.8243C70.0028 42.1295 70.4015 42.3059 70.8212 42.3141C71.2444 42.3047 71.6463 42.1266 71.9375 41.8193C72.2287 41.5121 72.385 41.1012 72.3717 40.6781V40.6916ZM74.929 36.2288C74.929 35.7323 75.3314 35.3299 75.8279 35.3299C76.3243 35.3299 76.7267 35.7323 76.7267 36.2288C76.7267 36.7252 76.3243 37.1276 75.8279 37.1276C75.3314 37.1276 74.929 36.7252 74.929 36.2288ZM75.0099 43.4197V37.9815C75.0098 37.8633 75.103 37.7661 75.2211 37.7613H76.3762C76.437 37.7589 76.4962 37.7807 76.5409 37.822C76.5856 37.8634 76.612 37.9207 76.6144 37.9815V43.4017C76.6098 43.5214 76.5138 43.6173 76.3941 43.6219H75.2211C75.103 43.6171 75.0098 43.5199 75.0099 43.4017V43.4197ZM77.8997 41.6399V35.9007C77.8996 35.7825 77.9929 35.6853 78.111 35.6804H79.266C79.3857 35.6851 79.4816 35.781 79.4862 35.9007V41.6759C79.4862 42.0489 79.648 42.2961 80.057 42.2961C80.1154 42.2961 80.1714 42.3193 80.2127 42.3606C80.254 42.4019 80.2772 42.4579 80.2772 42.5163V43.4736C80.2724 43.5917 80.1752 43.6849 80.057 43.6849C78.52 43.6849 77.8997 43.1815 77.8997 41.6399ZM80.7087 40.7141C80.7127 39.6287 81.2955 38.6278 82.2375 38.0886C83.1795 37.5493 84.3377 37.5536 85.2757 38.0998C86.2137 38.646 86.789 39.6511 86.785 40.7366C86.785 40.9478 86.7266 41.1231 86.5154 41.1231H82.4974C82.3941 41.1231 82.3581 41.1815 82.3671 41.2759C82.4669 41.9799 83.0963 42.4854 83.8053 42.4309C84.2319 42.4373 84.639 42.2526 84.9154 41.9276C85.0011 41.8071 85.1406 41.7365 85.2884 41.7388H86.3626C86.5513 41.7388 86.6322 41.8691 86.5603 42.0534C85.9302 43.338 84.4982 44.0192 83.104 43.6974C81.7099 43.3757 80.7211 42.1359 80.7177 40.7051L80.7087 40.7141ZM84.9738 40.1748C85.0547 40.1748 85.0907 40.1388 85.0772 40.0444C84.9547 39.3994 84.3854 38.9363 83.7289 38.9478C83.0868 38.9472 82.5286 39.3882 82.3806 40.013C82.3581 40.0939 82.3806 40.1748 82.475 40.1748H84.9738ZM87.7558 43.4017V35.9007C87.7557 35.7825 87.8489 35.6853 87.967 35.6804H91.6479C93.3288 35.6804 94.4748 36.6602 94.4748 38.3096C94.4748 39.9591 93.176 40.9748 91.567 40.9748H89.6165C89.5571 40.9686 89.4983 40.9902 89.457 41.0332C89.4157 41.0763 89.3966 41.136 89.4052 41.195V43.4017C89.4006 43.5214 89.3047 43.6173 89.185 43.6219H87.9715C87.8517 43.6195 87.7558 43.5216 87.7558 43.4017ZM91.567 39.6175C92.2635 39.5955 92.8116 39.0153 92.794 38.3186C92.804 37.9886 92.6776 37.6691 92.4446 37.4353C92.2116 37.2014 91.8925 37.0739 91.5625 37.0827H89.5985C89.4592 37.0827 89.4007 37.1546 89.4007 37.2939V39.4197C89.4007 39.5591 89.4592 39.631 89.5985 39.631L91.567 39.6175ZM95.0411 40.6781C95.0108 39.8833 95.3005 39.1095 95.8454 38.53C96.3903 37.9505 97.1448 37.6137 97.94 37.595C98.5138 37.5982 99.0668 37.8107 99.495 38.1928C99.5984 38.2872 99.7152 38.2737 99.7152 38.1344V37.9815C99.7152 37.8649 99.8098 37.7703 99.9265 37.7703H101.023C101.143 37.7749 101.239 37.8709 101.243 37.9905V41.8467C101.243 42.1388 101.347 42.2691 101.549 42.2961C101.654 42.2982 101.74 42.3802 101.747 42.4849V43.5006C101.747 43.6098 101.658 43.6983 101.549 43.6983C100.776 43.6983 100.322 43.4781 100.066 43.0332C99.9939 42.9163 99.913 42.8938 99.7961 43.0107C99.3024 43.5189 98.6215 43.8017 97.913 43.7927C97.116 43.7696 96.362 43.4261 95.8215 42.8399C95.281 42.2538 94.9996 41.4744 95.0411 40.6781ZM99.7152 40.6781C99.7594 40.1009 99.4765 39.5477 98.9827 39.2455C98.4889 38.9434 97.8675 38.9434 97.3736 39.2455C96.8799 39.5477 96.5969 40.1009 96.6411 40.6781C96.5969 41.2553 96.8799 41.8086 97.3736 42.1107C97.8675 42.4129 98.4889 42.4129 98.9827 42.1107C99.4765 41.8086 99.7594 41.2553 99.7152 40.6781ZM102.29 45.6803V44.723C102.295 44.6049 102.392 44.5117 102.511 44.5118C103.263 44.5681 103.956 44.1046 104.192 43.3882C104.231 43.2379 104.215 43.0783 104.147 42.9388L101.998 38.0759C101.961 38.0098 101.962 37.9289 102.001 37.8638C102.04 37.7988 102.111 37.7597 102.187 37.7613H103.342C103.459 37.7613 103.531 37.8557 103.576 37.9726L104.924 41.0826C105.019 41.3298 105.171 41.3163 105.275 41.0826L106.56 37.9636C106.605 37.8467 106.663 37.7748 106.78 37.7748H107.89C107.96 37.7712 108.026 37.8032 108.066 37.8597C108.106 37.9162 108.114 37.9893 108.088 38.0535L105.877 43.2849C105.072 45.1905 104.219 45.9006 102.511 45.9006C102.391 45.896 102.295 45.8 102.29 45.6803Z" fill="#5A78FF"/>
<defs>
<linearGradient id="paint0_linear_302_2" x1="29.0612" y1="34.4047" x2="28.4764" y2="27.582" gradientUnits="userSpaceOnUse">
<stop stop-color="#504678"/>
<stop offset="0.302" stop-color="#504678" stop-opacity="0.616"/>
<stop offset="0.608" stop-color="#504678" stop-opacity="0.283"/>
<stop offset="0.852" stop-color="#504678" stop-opacity="0.076"/>
<stop offset="1" stop-color="#504678" stop-opacity="0"/>
</linearGradient>
<linearGradient id="paint1_linear_302_2" x1="31.1374" y1="39.3265" x2="31.5041" y2="46.9711" gradientUnits="userSpaceOnUse">
<stop stop-color="#504678"/>
<stop offset="0.302" stop-color="#504678" stop-opacity="0.616"/>
<stop offset="0.608" stop-color="#504678" stop-opacity="0.283"/>
<stop offset="0.852" stop-color="#504678" stop-opacity="0.076"/>
<stop offset="1" stop-color="#504678" stop-opacity="0"/>
</linearGradient>
<linearGradient id="paint2_linear_302_2" x1="24.106" y1="39.9761" x2="31.2628" y2="35.0972" gradientUnits="userSpaceOnUse">
<stop stop-color="#504678"/>
<stop offset="0.179" stop-color="#504678" stop-opacity="0.872"/>
<stop offset="0.526" stop-color="#504678" stop-opacity="0.536"/>
<stop offset="1" stop-color="#504678" stop-opacity="0"/>
</linearGradient>
<linearGradient id="paint3_linear_302_2" x1="30.2458" y1="35.2068" x2="29.9284" y2="32.6678" gradientUnits="userSpaceOnUse">
<stop stop-color="#504678"/>
<stop offset="0.643" stop-color="#504678" stop-opacity="0.332"/>
<stop offset="1" stop-color="#504678" stop-opacity="0"/>
</linearGradient>
</defs>
</svg>
