<?xml version="1.0" encoding="UTF-8" standalone="no"?>
<svg width="120px" height="80px" viewBox="0 0 120 80" version="1.1" xmlns="http://www.w3.org/2000/svg" xmlns:xlink="http://www.w3.org/1999/xlink" xmlns:sketch="http://www.bohemiancoding.com/sketch/ns">
    <!-- Generator: Sketch 3.2.2 (9983) - http://www.bohemiancoding.com/sketch -->
    <title>card_moneybookers@1x</title>
    <desc>Created with Sketch.</desc>
    <defs></defs>
    <g id="assets-various" stroke="none" stroke-width="1" fill="none" fill-rule="evenodd" sketch:type="MSPage">
        <g id="Artboard-2" sketch:type="MSArtboardGroup" transform="translate(-36.000000, -1930.000000)">
            <g id="card_moneybookers" sketch:type="MSLayerGroup" transform="translate(36.000000, 1930.000000)">
                <rect id="Rectangle-11" fill="#FFFFFF" sketch:type="MSShapeGroup" x="0" y="0" width="120" height="80" rx="4"></rect>
                <g id="Imported-Layers-5" transform="translate(16.000000, 16.000000)" sketch:type="MSShapeGroup">
                    <path d="M73.876,0.973 C81.873,0.973 88.378,7.407 88.378,15.32 C88.378,23.213 81.873,29.666 73.876,29.666 C73.856,29.666 73.816,29.647 73.797,29.647 L73.797,25.556 C79.506,25.556 84.145,20.946 84.145,15.32 C84.145,9.673 79.506,5.063 73.797,5.063 L73.797,0.973 L73.876,0.973 L73.876,0.973 Z M73.797,29.647 C65.856,29.608 59.39,23.175 59.39,15.32 C59.39,7.445 65.856,1.03 73.797,0.973 L73.797,5.063 C68.088,5.063 63.43,9.673 63.43,15.32 C63.43,20.946 68.088,25.556 73.797,25.556 L73.797,29.647 L73.797,29.647 Z" id="Fill-1" fill="#9399AA"></path>
                    <path d="M58.517,0.973 C54.44,4.372 51.857,9.461 51.857,15.108 C51.857,21.101 54.751,26.439 59.235,29.839 L54.557,29.839 C50.109,26.439 47.217,21.12 47.217,15.127 C47.217,9.461 49.819,4.372 53.897,0.973 L58.517,0.973" id="Fill-2" fill="#9399AA"></path>
                    <path d="M46.731,0.973 C42.693,4.372 40.091,9.461 40.091,15.108 C40.091,21.101 43.002,26.439 47.45,29.839 L42.81,29.839 C38.343,26.439 35.451,21.12 35.451,15.127 C35.451,9.461 38.052,4.372 42.13,0.973 L46.731,0.973" id="Fill-3" fill="#9399AA"></path>
                    <path d="M34.966,0.973 C30.908,4.372 28.306,9.461 28.306,15.108 C28.306,21.101 31.219,26.439 35.704,29.839 L31.024,29.839 C26.558,26.439 23.665,21.12 23.665,15.127 C23.665,9.461 26.267,4.372 30.345,0.973 L34.966,0.973" id="Fill-4" fill="#9399AA"></path>
                    <path d="M23.18,0.973 C19.122,4.372 16.54,9.461 16.54,15.108 C16.54,21.101 19.433,26.439 23.918,29.839 L19.239,29.839 C14.773,26.439 11.899,21.12 11.899,15.127 C11.899,9.461 14.481,4.372 18.578,0.973 L23.18,0.973" id="Fill-5" fill="#9399AA"></path>
                    <path d="M11.394,0.973 C7.336,4.372 4.754,9.461 4.754,15.108 C4.754,21.101 7.648,26.439 12.132,29.839 L7.453,29.839 C2.987,26.439 0.114,21.12 0.114,15.127 C0.114,9.461 2.715,4.372 6.792,0.973 L11.394,0.973" id="Fill-6" fill="#9399AA"></path>
                    <path d="M73.764,43.107 L73.764,42 C73.945,42.045 74.129,42.067 74.357,42.067 C75.02,42.067 75.707,41.797 76.437,41.276 L76.437,42.385 C75.753,42.86 74.929,43.107 73.923,43.107 L73.764,43.107 L73.764,43.107 Z M73.764,40.505 L73.764,39.578 L74.976,39.578 C74.884,38.765 74.472,38.356 73.764,38.356 L73.764,37.316 C74.564,37.36 75.226,37.633 75.753,38.176 C76.324,38.765 76.576,39.533 76.53,40.505 L73.764,40.505 L73.764,40.505 Z M79.917,37.43 L79.917,39.036 L79.939,39.036 C80.441,37.882 81.037,37.316 81.723,37.316 C82.045,37.316 82.455,37.496 82.912,37.836 L82.409,39.375 C81.977,39.104 81.633,38.967 81.357,38.967 C80.945,38.967 80.602,39.216 80.329,39.714 C80.053,40.213 79.917,40.505 79.917,40.596 L79.917,42.995 L78.132,42.995 L78.132,37.43 L79.917,37.43 L79.917,37.43 Z M87.831,37.746 L87.831,38.989 C87.168,38.56 86.527,38.356 85.956,38.356 C85.544,38.356 85.315,38.515 85.315,38.786 C85.315,38.878 85.36,38.944 85.453,39.012 C85.544,39.081 85.888,39.238 86.482,39.488 C87.077,39.714 87.512,39.986 87.74,40.28 C87.992,40.596 88.13,40.936 88.13,41.299 C88.13,41.864 87.923,42.316 87.533,42.635 C87.121,42.951 86.553,43.107 85.817,43.107 C85.064,43.107 84.399,42.973 83.806,42.701 L83.806,41.456 C84.538,41.772 85.133,41.933 85.636,41.933 C86.209,41.933 86.482,41.797 86.482,41.525 C86.482,41.411 86.436,41.321 86.32,41.228 C86.23,41.14 85.864,40.959 85.269,40.732 C84.652,40.505 84.238,40.258 84.034,39.963 C83.806,39.691 83.691,39.375 83.691,39.036 C83.691,38.538 83.898,38.106 84.332,37.791 C84.767,37.474 85.315,37.316 86.023,37.316 C86.689,37.316 87.306,37.451 87.831,37.746 L87.831,37.746 Z M73.764,37.316 L73.764,38.356 C73.03,38.356 72.618,38.765 72.527,39.578 L73.764,39.578 L73.764,40.505 L72.505,40.505 C72.527,41.005 72.711,41.391 73.03,41.661 C73.236,41.819 73.465,41.933 73.764,42 L73.764,43.107 C72.847,43.085 72.115,42.815 71.543,42.316 C70.97,41.797 70.675,41.096 70.675,40.235 C70.675,39.396 70.949,38.695 71.498,38.153 C72.048,37.586 72.756,37.316 73.625,37.316 L73.764,37.316 L73.764,37.316 Z M59.396,43.107 L59.396,42.067 C60.242,42.067 60.677,41.434 60.677,40.168 C60.677,38.967 60.242,38.356 59.396,38.356 L59.396,37.316 C60.286,37.316 61.044,37.586 61.66,38.084 C62.256,38.606 62.575,39.307 62.575,40.235 C62.575,41.14 62.256,41.842 61.638,42.361 C61.02,42.86 60.264,43.107 59.396,43.107 L59.396,43.107 Z M65.961,34.758 L65.961,40.19 L66.006,40.19 L68.181,37.43 L70.263,37.43 L68.066,40.19 L70.354,42.995 L68.181,42.995 L66.006,40.258 L65.961,40.258 L65.961,42.995 L64.2,42.995 L64.2,34.758 L65.961,34.758 L65.961,34.758 Z M59.396,37.316 L59.396,38.356 C58.984,38.38 58.687,38.538 58.458,38.854 C58.228,39.17 58.116,39.625 58.116,40.213 C58.116,41.434 58.548,42.067 59.396,42.067 L59.396,43.107 C58.458,43.107 57.703,42.838 57.107,42.294 C56.514,41.772 56.216,41.072 56.216,40.213 C56.216,39.33 56.536,38.651 57.131,38.106 C57.725,37.586 58.481,37.316 59.396,37.316 L59.396,37.316 Z M51.755,43.107 L51.755,42.067 L51.777,42.067 C52.601,42.067 53.013,41.434 53.013,40.168 C53.013,38.967 52.601,38.356 51.777,38.356 L51.755,38.356 L51.755,37.316 L51.777,37.316 C52.624,37.316 53.38,37.586 53.996,38.084 C54.614,38.606 54.911,39.307 54.911,40.235 C54.911,41.14 54.592,41.842 53.975,42.361 C53.355,42.86 52.601,43.107 51.777,43.107 L51.755,43.107 L51.755,43.107 Z M51.755,37.316 L51.755,38.356 C51.366,38.38 51.046,38.538 50.817,38.854 C50.588,39.17 50.473,39.625 50.473,40.213 C50.473,41.434 50.908,42.067 51.755,42.067 L51.755,43.107 C50.817,43.107 50.062,42.838 49.468,42.294 C48.872,41.772 48.574,41.072 48.574,40.213 C48.574,39.33 48.895,38.651 49.489,38.106 C50.085,37.586 50.84,37.316 51.755,37.316 L51.755,37.316 Z M44.297,43.085 L44.297,41.933 C44.641,41.909 44.914,41.751 45.121,41.478 C45.372,41.162 45.487,40.732 45.487,40.168 C45.487,39.646 45.372,39.216 45.098,38.944 C44.892,38.673 44.617,38.538 44.297,38.515 L44.297,37.338 C44.366,37.338 44.457,37.316 44.525,37.316 C45.35,37.316 46.013,37.586 46.517,38.13 C47.02,38.651 47.271,39.353 47.271,40.19 C47.271,41.049 47.042,41.751 46.538,42.294 C46.057,42.838 45.418,43.107 44.664,43.107 C44.525,43.107 44.411,43.107 44.297,43.085 L44.297,43.085 Z M44.297,37.338 L44.297,38.515 C44.228,38.492 44.182,38.492 44.113,38.492 C43.794,38.492 43.451,38.629 43.084,38.878 L43.084,41.456 C43.451,41.772 43.794,41.933 44.137,41.933 L44.297,41.933 L44.297,43.085 C43.863,43.018 43.473,42.86 43.084,42.565 L43.084,42.995 L41.322,42.995 L41.322,34.758 L43.084,34.758 L43.084,37.746 C43.473,37.519 43.863,37.384 44.297,37.338 L44.297,37.338 Z M30.548,43.107 L30.548,42 C30.731,42.045 30.937,42.067 31.143,42.067 C31.806,42.067 32.515,41.797 33.248,41.276 L33.248,42.385 C32.561,42.86 31.714,43.107 30.731,43.107 L30.548,43.107 L30.548,43.107 Z M30.548,40.505 L30.548,39.578 L31.784,39.578 C31.692,38.765 31.28,38.356 30.548,38.356 L30.548,37.316 C31.371,37.36 32.035,37.633 32.561,38.176 C33.11,38.765 33.385,39.533 33.339,40.505 L30.548,40.505 L30.548,40.505 Z M40.178,37.43 L36.427,45.666 L34.529,45.666 L36.175,42.091 L33.979,37.43 L35.877,37.43 L37.068,40.302 L38.326,37.43 L40.178,37.43 L40.178,37.43 Z M30.548,37.316 L30.548,38.356 C29.815,38.356 29.427,38.765 29.335,39.578 L30.548,39.578 L30.548,40.505 L29.29,40.505 C29.335,41.005 29.519,41.391 29.838,41.661 C30.044,41.819 30.273,41.933 30.548,42 L30.548,43.107 C29.656,43.085 28.9,42.815 28.352,42.316 C27.757,41.797 27.459,41.096 27.459,40.235 C27.459,39.396 27.734,38.695 28.306,38.153 C28.855,37.586 29.564,37.316 30.433,37.316 L30.548,37.316 L30.548,37.316 Z M15.45,43.107 L15.45,42.067 L15.471,42.067 C16.318,42.067 16.73,41.434 16.73,40.168 C16.73,38.967 16.318,38.356 15.471,38.356 L15.45,38.356 L15.45,37.316 L15.471,37.316 C16.341,37.316 17.096,37.586 17.713,38.084 C18.332,38.606 18.629,39.307 18.629,40.235 C18.629,41.14 18.309,41.842 17.691,42.361 C17.073,42.86 16.318,43.107 15.471,43.107 L15.45,43.107 L15.45,43.107 Z M21.992,37.43 L21.992,38.221 C22.519,37.633 23.113,37.316 23.822,37.316 C24.416,37.316 24.897,37.496 25.286,37.882 C25.675,38.244 25.881,38.765 25.881,39.464 L25.881,42.995 L24.096,42.995 L24.096,39.601 C24.096,38.878 23.799,38.492 23.227,38.492 C22.816,38.492 22.404,38.81 21.992,39.419 L21.992,42.995 L20.23,42.995 L20.23,37.43 L21.992,37.43 L21.992,37.43 Z M2.249,37.43 L2.249,38.153 C2.866,37.586 3.507,37.316 4.216,37.316 C5.177,37.316 5.864,37.724 6.253,38.515 C6.916,37.724 7.671,37.316 8.472,37.316 C9.112,37.316 9.638,37.519 10.05,37.903 C10.462,38.288 10.668,38.81 10.668,39.419 L10.668,42.995 L8.883,42.995 L8.883,39.735 C8.883,39.353 8.792,39.036 8.608,38.832 C8.426,38.606 8.174,38.492 7.854,38.492 C7.328,38.492 6.871,38.81 6.459,39.441 L6.459,42.995 L4.696,42.995 L4.696,39.714 C4.696,39.307 4.606,39.012 4.4,38.81 C4.193,38.606 3.942,38.492 3.622,38.492 C3.141,38.492 2.707,38.765 2.249,39.263 L2.249,42.995 L0.487,42.995 L0.487,37.43 L2.249,37.43 L2.249,37.43 Z M15.45,37.316 L15.45,38.356 C15.06,38.38 14.739,38.538 14.511,38.854 C14.282,39.17 14.168,39.625 14.168,40.213 C14.168,41.434 14.602,42.067 15.45,42.067 L15.45,43.107 C14.511,43.107 13.756,42.838 13.161,42.294 C12.567,41.772 12.27,41.072 12.27,40.213 C12.27,39.33 12.589,38.651 13.185,38.106 C13.78,37.586 14.534,37.316 15.45,37.316 L15.45,37.316 Z" id="Fill-7" fill="#1A1918"></path>
                </g>
            </g>
        </g>
    </g>
</svg>