<?xml version="1.0" encoding="UTF-8" standalone="no"?>
<svg width="120px" height="80px" viewBox="0 0 120 80" version="1.1" xmlns="http://www.w3.org/2000/svg" xmlns:xlink="http://www.w3.org/1999/xlink" xmlns:sketch="http://www.bohemiancoding.com/sketch/ns">
    <!-- Generator: Sketch 3.2.2 (9983) - http://www.bohemiancoding.com/sketch -->
    <title>card_myone@1x</title>
    <desc>Created with Sketch.</desc>
    <defs></defs>
    <g id="assets-various" stroke="none" stroke-width="1" fill="none" fill-rule="evenodd" sketch:type="MSPage">
        <g id="Artboard-2" sketch:type="MSArtboardGroup" transform="translate(-36.000000, -1394.000000)">
            <g id="card_myone" sketch:type="MSLayerGroup" transform="translate(36.000000, 1394.000000)">
                <rect id="Rectangle-11" fill="#FFFFFF" sketch:type="MSShapeGroup" x="0" y="0" width="120" height="80" rx="4"></rect>
                <g id="Imported-Layers" transform="translate(8.000000, 9.000000)" sketch:type="MSShapeGroup">
                    <path d="M17.9776,16.9695652 L26.8445,16.9695652 L26.8445,16.1634783 L24.230275,16.1634783 L24.230275,9.43304348 C24.2687,7.77913043 24.230275,5.35695652 25.1273,3.85695652 C25.830875,2.66608696 27.2367,1.78043478 28.6041,1.78043478 C28.83995,1.78043478 29.384525,1.78043478 29.972825,2.1273913 C30.9096,2.70391304 31.024875,3.70434783 31.067275,4.66434783 C31.067275,5.04782609 31.1057,5.43391304 31.1057,5.8173913 L31.1057,16.1634783 L28.642525,16.1634783 L28.642525,16.9695652 L37.39415,16.9695652 L37.39415,16.1634783 L34.8157,16.1634783 L34.8157,6.70304348 C34.8157,5.51086957 34.8157,4.54956522 34.34665,3.47347826 C33.176675,0.896086957 30.285525,0.666521739 29.503775,0.666521739 C28.409325,0.666521739 25.987225,0.975652174 24.230275,3.39652174 L24.230275,1.12695652 L17.9776,1.12695652 L17.9776,1.93565217 L20.517625,1.93565217 L20.517625,16.1634783 L17.9776,16.1634783 L17.9776,16.9695652" id="Fill-1" fill="#1A1918"></path>
                    <path d="M41.860725,6.92347826 L41.897825,5.53826087 C41.897825,4.50130435 41.976,3.96130435 42.133675,3.46173913 C42.409275,2.77173913 43.228125,1.50130435 45.258025,1.50130435 C47.7583,1.50130435 48.146525,3.30913043 48.2247,4.19217391 C48.26445,4.61478261 48.30685,4.99956522 48.30685,5.42217391 L48.30685,6.92347826 L41.860725,6.92347826 M41.897825,7.74 L52.64225,7.74 C52.603825,6.89608696 52.407725,4.54956522 50.497075,2.70391304 C48.657975,0.85826087 46.392225,0.666521739 45.4952,0.666521739 C41.74545,0.666521739 39.674475,3.39652174 39.009325,4.39434783 C37.721425,6.35608696 37.60615,8.24086957 37.60615,9.16304348 C37.60615,10.5091304 37.87645,13.2013043 40.572825,15.5073913 C41.275075,16.083913 42.9936,17.4286957 45.57205,17.4286957 C49.243625,17.4286957 51.080075,14.7769565 51.628625,13.7386957 C52.055275,12.8947826 52.21295,12.0078261 52.29245,11.7 L51.315925,11.6621739 C51.040325,13.5078261 49.67425,15.3156522 47.9544,16.083913 C46.9792,16.5078261 46.159025,16.5456522 45.7284,16.5456522 C43.8151,16.5456522 42.915425,15.5073913 42.52455,14.8552174 C41.820975,13.6226087 41.86205,12.1630435 41.897825,9.39391304 L41.897825,7.74" id="Fill-2" fill="#1A1918"></path>
                    <path d="M17.721875,9.03782609 C17.721875,5.38434783 15.615125,3.30913043 14.560425,2.42347826 C13.11485,1.26913043 11.3579,0.654782609 9.4817,0.654782609 C5.886975,0.654782609 3.816,2.73130435 2.995825,3.73173913 C1.2773,5.80826087 1.08385,8.07782609 1.08385,9.03782609 C1.08385,12.9613043 3.504625,15.0743478 4.6746,15.8830435 C6.1215,16.9213043 7.64525,17.4208696 9.440625,17.4208696 C12.2536,17.4208696 14.051625,16.0747826 14.873125,15.3443478 C17.491325,13.076087 17.721875,10.3069565 17.721875,9.03782609 M13.269875,5.92434783 C13.3083,7.42434783 13.3878,11.9217391 13.15195,13.4230435 C12.6829,16.1908696 10.574825,16.5352174 9.4817,16.5352174 C9.169,16.5352174 8.427,16.5352174 7.6055,16.1504348 C5.8088,15.3443478 5.4961,13.6526087 5.4166,11.9217391 C5.4166,11.306087 5.380825,10.6526087 5.380825,10.0395652 C5.380825,7.38391304 5.380825,5.34782609 5.651125,4.27043478 C6.356025,1.77130435 8.6602,1.53913043 9.4817,1.53913043 C10.18395,1.53913043 10.92595,1.69434783 11.55135,2.04130435 C12.996925,2.88521739 13.190375,4.42434783 13.269875,5.92434783" id="Fill-3" fill="#1A1918"></path>
                    <path d="M18.72755,47.2473913 L12.4391,44.5056522 C11.5381,44.0921739 10.6,43.6708696 9.70165,43.1804348 C6.772075,41.5447826 5.24965,40.0434783 4.349975,38.7834783 C4.2347,38.643913 3.454275,37.5991304 3.454275,36.6756522 C3.454275,36.4082609 3.5298,35.3491304 4.702425,35.5865217 C5.404675,35.73 6.10825,36.0652174 6.811825,36.3626087 L14.5061,39.6978261 C15.09175,39.9326087 15.87615,40.2456522 16.4989,40.3734783 C16.69765,40.413913 17.515175,40.5795652 18.0995,40.3147826 C18.4917,40.1634783 19.115775,39.5986957 19.115775,38.4065217 C19.115775,37.1373913 18.413525,35.8408696 18.21875,35.5317391 C16.773175,33.0847826 13.99995,31.4021739 13.4143,31.053913 L13.14135,31.6904348 C13.68725,32.0321739 15.755575,33.3013043 17.1243,35.1534783 C17.594675,35.7495652 17.7497,36.2830435 17.7497,36.5504348 C17.7497,36.8204348 17.6331,37.2182609 17.006375,37.0917391 C16.42205,36.9743478 14.82145,36.2634783 13.179775,35.583913 L7.4359,33.1043478 C6.34145,32.6517391 5.796875,32.4626087 5.24965,32.3517391 C4.5474,32.2082609 3.019675,32.0908696 2.396925,33.7721739 C2.200825,34.3447826 2.200825,34.77 2.200825,35.0386957 C2.1624,37.0695652 3.4927,39.0678261 5.01645,40.6473913 C5.796875,41.4234783 6.499125,41.9504348 6.811825,42.2073913 C6.030075,41.8147826 5.6021,41.6517391 5.171475,41.5656522 C4.153875,41.3582609 3.2171,41.5917391 2.71095,42.3730435 C2.2419,43.083913 2.200825,44.036087 2.200825,44.2682609 C2.200825,46.4986957 3.68615,48.7226087 5.404675,50.306087 C5.87505,50.7052174 6.303025,51.1004348 6.772075,51.4278261 L2.6288,49.5456522 L2.6288,56.5069565 L3.4132,56.8578261 L3.4132,53.3973913 L18.72755,59.9765217 L18.72755,56.5134783 L12.514625,53.8669565 C11.812375,53.5291304 8.374,52.1386957 5.992975,49.9617391 C4.27445,48.3795652 3.4132,46.7452174 3.4132,45.9 C3.4132,45.1291304 3.8425,44.6008696 4.664,44.7704348 C5.404675,44.9217391 6.888675,45.6052174 7.593575,45.903913 L18.72755,50.7482609 L18.72755,47.2473913" id="Fill-4" fill="#D9222A"></path>
                    <path d="M14.52465,20.8056522 C11.147225,18.8778261 8.783425,17.1613043 7.13645,15.9326087 C6.321575,15.3247826 5.778325,14.5930435 5.5332,13.0343478 C5.285425,11.4626087 5.865775,8.54217391 3.197225,8.50695652 C2.076275,8.49521739 1.0865,9.48521739 1.262725,10.7126087 C1.397875,11.636087 1.803325,13.526087 4.26915,15.656087 C5.23375,16.4856522 7.241125,17.5265217 9.170325,18.6782609 C11.40295,20.0152174 14.955275,22.0069565 14.955275,22.0069565 L6.20365,22.6108696 C4.172425,22.7752174 3.1959,22.7686957 2.569175,23.5630435 C2.4115,23.7247826 2.1412,24.206087 2.1412,24.8973913 C2.1412,25.5534783 2.3373,26.0921739 2.452575,26.3073913 C2.805025,27.1486957 3.353575,27.9130435 4.83625,29.1 C5.460325,29.5734783 6.279175,30.2021739 7.765825,31.1582609 L8.0772,30.6052174 C6.74955,29.5656522 5.618,29.1065217 4.485125,27.836087 C4.249275,27.5947826 3.978975,27.2321739 3.978975,26.9256522 C3.978975,26.4247826 4.56065,26.2747826 5.031025,26.216087 C5.4219,26.1430435 5.8512,26.1156522 6.279175,26.0856522 L8.2733,25.9173913 L15.305075,25.4243478 C17.064675,25.2430435 18.156475,25.196087 18.9793,25.3643478 C19.79815,25.5326087 20.734925,25.9917391 22.22025,27.1408696 C22.884075,27.6221739 23.469725,28.1634783 24.09645,28.713913 C26.281375,30.6991304 27.4169,32.4273913 27.9999,33.51 C28.430525,34.2508696 28.666375,34.7217391 28.666375,35.0686957 C28.666375,35.4117391 28.430525,35.5578261 28.313925,35.5721739 C28.23575,35.5552174 28.040975,35.4769565 28.040975,35.4769565 C27.8462,35.3608696 27.7667,35.3465217 27.688525,35.3295652 C26.829925,35.1534783 26.363525,35.7130435 26.363525,36.4434783 C26.363525,36.7526087 26.3993,37.6826087 27.338725,38.2578261 C27.571925,38.4208696 27.8462,38.5134783 27.964125,38.5382609 C28.5882,38.6647826 28.939325,38.3908696 29.097,38.2682609 C29.79925,37.7191304 29.839,36.843913 29.839,36.536087 C29.839,35.1521739 28.939325,32.8147826 26.556975,30.0626087 C24.2104,27.3913043 20.8926,24.7173913 14.52465,20.8056522" id="Fill-5" fill="#D9222A"></path>
                </g>
            </g>
        </g>
    </g>
</svg>