<?xml version="1.0" encoding="UTF-8" standalone="no"?>
<svg width="120px" height="80px" viewBox="0 0 120 80" version="1.1" xmlns="http://www.w3.org/2000/svg" xmlns:xlink="http://www.w3.org/1999/xlink" xmlns:sketch="http://www.bohemiancoding.com/sketch/ns">
    <!-- Generator: Sketch 3.2.2 (9983) - http://www.bohemiancoding.com/sketch -->
    <title>card_paypal</title>
    <desc>Created with Sketch.</desc>
    <defs></defs>
    <g id="assets-various" stroke="none" stroke-width="1" fill="none" fill-rule="evenodd" sketch:type="MSPage">
        <g id="Artboard-2" sketch:type="MSArtboardGroup" transform="translate(-36.000000, -531.000000)">
            <g id="card_paypal" sketch:type="MSLayerGroup" transform="translate(36.000000, 531.000000)">
                <rect id="Rectangle-11" fill="#FFFFFF" sketch:type="MSShapeGroup" x="0" y="0" width="120" height="80" rx="4"></rect>
                <path d="M75.3592403,41.9722372 C74.983654,39.5079201 73.1004075,39.5079201 71.2782823,39.5079201 L70.2418767,39.5079201 L70.9691323,44.109041 C71.0125373,44.3869848 71.2525936,44.5914594 71.5342834,44.5914594 L72.009967,44.5914594 C73.2501105,44.5914594 74.4211603,44.5914594 75.0252874,43.8859778 C75.3867006,43.463751 75.4956561,42.8370497 75.3592403,41.9722372 M74.5664343,48.4021222 L67.6960392,48.4021222 C67.2256705,48.4021222 66.8261672,48.060446 66.7526444,47.5966162 L63.9747229,29.9923277 C63.9198023,29.6453405 64.1890906,29.3311047 64.539874,29.3311047 L68.0654248,29.3311047 C68.3940629,29.3311047 68.673981,29.570101 68.7253583,29.8940737 L69.5137353,34.8855551 C69.5863723,35.3493849 69.9867615,35.6910611 70.4562444,35.6910611 L72.6300388,35.6910611 C77.1556767,35.6910611 79.7679504,37.8792048 80.4500294,42.2174297 C80.7574078,44.1134668 80.4624308,45.6040954 79.5739566,46.6477125 C78.5969006,47.7948946 76.8651288,48.4021222 74.5664343,48.4021222" id="Shape" fill="#009CDE" sketch:type="MSShapeGroup" transform="translate(72.267704, 38.866613) scale(1, -1) translate(-72.267704, -38.866613) "></path>
                <path d="M26.3561213,41.9722372 C25.9805349,39.5079201 24.0972884,39.5079201 22.2751633,39.5079201 L21.2387577,39.5079201 L21.9660132,44.109041 C22.0094183,44.3869848 22.2494746,44.5914594 22.5311644,44.5914594 L23.006848,44.5914594 C24.2469915,44.5914594 25.4180413,44.5914594 26.0221683,43.8859778 C26.3835816,43.463751 26.492537,42.8370497 26.3561213,41.9722372 M25.5633152,48.4021222 L18.6929202,48.4021222 C18.2225515,48.4021222 17.8230481,48.060446 17.7495253,47.5966162 L14.9716039,29.9923277 C14.9166832,29.6453405 15.1850857,29.3311047 15.536755,29.3311047 L18.8178204,29.3311047 C19.2873033,29.3311047 19.6868066,29.6727808 19.7603294,30.1357255 L20.5106163,34.8855551 C20.5832532,35.3493849 20.9836424,35.6910611 21.4531253,35.6910611 L23.6269197,35.6910611 C28.1525577,35.6910611 30.7648314,37.8792048 31.4469103,42.2174297 C31.7542888,44.1134668 31.4593118,45.6040954 30.5708375,46.6477125 C29.5937816,47.7948946 27.8620098,48.4021222 25.5633152,48.4021222" id="Shape" fill="#003087" sketch:type="MSShapeGroup" transform="translate(23.264575, 38.866613) scale(1, -1) translate(-23.264575, -38.866613) "></path>
                <path d="M41.5135981,41.9986153 C41.1955898,40.1202817 39.7038744,38.8589124 37.8002541,38.8589124 C36.8462294,38.8589124 36.0817695,39.1660669 35.591027,39.7467393 C35.1047136,40.3221007 34.9213495,41.1426546 35.0754817,42.0552663 C35.3713445,43.9176669 36.8878628,45.2188688 38.7622511,45.2188688 C39.6967878,45.2188688 40.455047,44.9090589 40.9555335,44.3230754 C41.4595633,43.7326661 41.6579862,42.9076864 41.5135981,41.9986153 M46.0985858,48.3975193 L42.8086622,48.3975193 C42.5269725,48.3975193 42.2869161,48.1930447 42.2426253,47.9142157 L42.0982372,46.9954078 L41.8688106,47.3282323 C41.1557281,48.3612273 39.5674586,48.7073293 37.9818465,48.7073293 C34.3473403,48.7073293 31.2425524,45.9544463 30.6384254,42.0942139 C30.3239604,40.1680809 30.7704121,38.3278096 31.86351,37.0434259 C32.8671404,35.8634925 34.2995061,35.3722224 36.0064751,35.3722224 C38.936757,35.3722224 40.561345,37.2523264 40.561345,37.2523264 L40.4142994,36.3388295 C40.3593788,35.9918423 40.6277813,35.6776065 40.9803364,35.6776065 L43.9425077,35.6776065 C44.4128764,35.6776065 44.8123798,36.0183975 44.8859026,36.4822273 L46.6646227,47.7362963 C46.7195433,48.0832834 46.450255,48.3975193 46.0985858,48.3975193" id="Shape" fill="#003087" sketch:type="MSShapeGroup" transform="translate(38.605839, 42.039776) scale(1, -1) translate(-38.605839, -42.039776) "></path>
                <path d="M90.5168057,41.9986153 C90.1987975,40.1202817 88.707082,38.8589124 86.8034617,38.8589124 C85.849437,38.8589124 85.0849771,39.1660669 84.5942346,39.7467393 C84.1070354,40.3221007 83.9245571,41.1426546 84.0786893,42.0552663 C84.3745521,43.9176669 85.8910704,45.2188688 87.7654587,45.2188688 C88.6999955,45.2188688 89.4582546,44.9090589 89.9587411,44.3230754 C90.4627709,43.7326661 90.6611938,42.9076864 90.5168057,41.9986153 M95.1017934,48.3975193 L91.8118698,48.3975193 C91.5301801,48.3975193 91.2901237,48.1930447 91.2458329,47.9142157 L91.1014448,46.9954078 L90.8711324,47.3282323 C90.1589357,48.3612273 88.5706662,48.7073293 86.9850541,48.7073293 C83.3505479,48.7073293 80.24576,45.9544463 79.641633,42.0942139 C79.327168,40.1680809 79.7736197,38.3278096 80.8667176,37.0434259 C81.870348,35.8634925 83.3027138,35.3722224 85.0096827,35.3722224 C87.9399646,35.3722224 89.5645526,37.2523264 89.5645526,37.2523264 L89.4175071,36.3388295 C89.3625864,35.9918423 89.6309889,35.6776065 89.983544,35.6776065 L92.9457153,35.6776065 C93.416084,35.6776065 93.8155874,36.0183975 93.8891102,36.4822273 L95.6678303,47.7362963 C95.722751,48.0832834 95.4534627,48.3975193 95.1017934,48.3975193" id="Shape" fill="#009CDE" sketch:type="MSShapeGroup" transform="translate(87.609047, 42.039776) scale(1, -1) translate(-87.609047, -42.039776) "></path>
                <path d="M63.6206619,52.850905 L60.3139079,52.850905 C59.9976713,52.850905 59.7018085,52.6942297 59.5246451,52.432219 L54.9626886,45.7190792 L53.0298364,52.1702082 C52.9084795,52.5738464 52.5364365,52.850905 52.1147877,52.850905 L48.8647259,52.850905 C48.472309,52.850905 48.1959342,52.4649703 48.322606,52.0940835 L51.963313,41.4136056 L48.5387453,36.5849957 C48.2703428,36.2061423 48.5414027,35.6821209 49.0064566,35.6821209 L52.3096674,35.6821209 C52.6223607,35.6821209 52.915566,35.8352555 53.094501,36.0919552 L64.0910307,51.9524561 C64.3541182,52.3321946 64.0830583,52.850905 63.6206619,52.850905" id="Shape" fill="#003087" sketch:type="MSShapeGroup" transform="translate(56.242795, 44.266513) scale(1, -1) translate(-56.242795, -44.266513) "></path>
                <path d="M98.9793678,47.9192612 L96.159813,29.9927703 C96.1048923,29.6457831 96.3732948,29.3315473 96.7249641,29.3315473 L99.5613494,29.3315473 C100.030832,29.3315473 100.431222,29.6732234 100.503858,30.1370532 L103.284437,47.7413417 C103.339358,48.0883289 103.070956,48.4025648 102.7184,48.4025648 L99.5454047,48.4025648 C99.2628292,48.4025648 99.0227728,48.1980902 98.9793678,47.9192612" id="Shape" fill="#009CDE" sketch:type="MSShapeGroup" transform="translate(99.722125, 38.867056) scale(1, -1) translate(-99.722125, -38.867056) "></path>
            </g>
        </g>
    </g>
</svg>