<?xml version="1.0" encoding="UTF-8" standalone="no"?>
<svg width="120px" height="80px" viewBox="0 0 120 80" version="1.1" xmlns="http://www.w3.org/2000/svg" xmlns:xlink="http://www.w3.org/1999/xlink" xmlns:sketch="http://www.bohemiancoding.com/sketch/ns">
    <!-- Generator: Sketch 3.2.2 (9983) - http://www.bohemiancoding.com/sketch -->
    <title>card_paysafecard@1x</title>
    <desc>Created with Sketch.</desc>
    <defs>
        <linearGradient x1="5.10004783%" y1="5.10004783%" x2="100%" y2="100%" id="linearGradient-1">
            <stop stop-color="#8AC9E8" offset="0%"></stop>
            <stop stop-color="#0289CA" offset="100%"></stop>
        </linearGradient>
    </defs>
    <g id="assets-various" stroke="none" stroke-width="1" fill="none" fill-rule="evenodd" sketch:type="MSPage">
        <g id="Artboard-2" sketch:type="MSArtboardGroup" transform="translate(-36.000000, -2029.000000)">
            <g id="card_paysafecard" sketch:type="MSLayerGroup" transform="translate(36.000000, 2029.000000)">
                <rect id="Rectangle-11" fill="url(#linearGradient-1)" sketch:type="MSShapeGroup" x="0" y="0" width="120" height="80" rx="4"></rect>
                <g id="Group-3" transform="translate(8.000000, 31.000000)" sketch:type="MSShapeGroup">
                    <path d="M13.5377982,7.55566917 C13.5497522,6.7482406 13.7264061,6.13353383 14.0686897,5.71398496 C14.2476015,5.53777444 14.4730013,5.39039098 14.7456858,5.2687218 C15.0292618,5.13933835 15.3043372,5.07762406 15.5711775,5.07762406 L18.8046079,5.07762406 C20.2315198,5.0893985 20.9561992,5.88437594 20.9801073,7.46323308 L20.9801073,12.3236391 C20.969083,12.8842105 20.7539106,13.3710226 20.3360511,13.777985 C19.9240358,14.2053835 19.4316628,14.4232782 18.8581354,14.436 L15.7998978,14.436 L15.7998978,17.9399098 L13.5377982,17.9399098 L13.5377982,7.55566917 L13.5377982,7.55566917 Z M18.7158825,8.01365414 C18.7045926,7.64729323 18.5345798,7.45687218 18.2041175,7.44428571 L16.4426258,7.44428571 C16.0252976,7.47027068 15.8110549,7.70386466 15.7998978,8.14209023 L15.7998978,11.3712632 C15.8110549,11.8234286 16.0480102,12.0539098 16.5118263,12.0681203 L18.1264163,12.0681203 C18.2940383,12.0681203 18.4333691,12.0046466 18.5446743,11.8744511 C18.6603627,11.7774135 18.7158825,11.6526316 18.7158825,11.4982105 L18.7158825,8.01365414 L18.7158825,8.01365414 Z" id="Fill-1" fill="#FFFFFF"></path>
                    <path d="M28.0001737,7.95708271 C28.0113308,7.60263158 27.8095734,7.43345865 27.3910498,7.44509774 L22.835106,7.44509774 L22.835106,5.07762406 L27.9653742,5.07762406 C29.4592286,5.10171429 30.2177778,5.83809023 30.2431469,7.28986466 L30.2431469,12.2428421 C30.2306616,12.87 30.0424521,13.3859098 29.6774559,13.796797 C29.2953257,14.2224361 28.8029527,14.4365414 28.1992746,14.4365414 L25.0974713,14.4365414 C23.5891392,14.4232782 22.8238161,13.7215489 22.8001737,12.3252632 L22.8001737,10.414015 C22.8119949,8.95574436 23.5433155,8.21490226 24.9904163,8.18918797 L28.0001737,8.18918797 L28.0001737,7.95708271 L28.0001737,7.95708271 Z M25.0629374,11.5994436 C25.0629374,11.7342406 25.1236373,11.8416992 25.2441073,11.9208722 C25.3506309,12.0179098 25.484516,12.0681203 25.6537318,12.0681203 L27.3918467,12.0681203 C27.7850013,12.0681203 27.9884853,11.9130226 28.0001737,11.5994436 L28.0001737,10.9377744 C28.0001737,10.5769624 27.7931034,10.395203 27.3753768,10.395203 L25.6537318,10.395203 C25.4279336,10.395203 25.2718672,10.4336391 25.18447,10.5056391 C25.1039796,10.591985 25.0629374,10.7604812 25.0629374,11.0105865 L25.0629374,11.5994436 L25.0629374,11.5994436 Z" id="Fill-2" fill="#FFFFFF"></path>
                    <path d="M36.597507,15.5727068 C36.7773487,15.5605263 36.9315556,15.4948872 37.058401,15.3774135 C37.1795351,15.2675188 37.2403678,15.1412481 37.2403678,14.9980602 L37.2403678,14.4365414 L34.3440409,14.4365414 C33.9658953,14.4365414 33.6634585,14.3870075 33.4380587,14.2891579 C33.2011034,14.2003759 32.9629527,14.0349925 32.7252005,13.7997744 C32.4983397,13.5498045 32.3358978,13.2888722 32.2374764,13.0158947 C32.1344061,12.7674135 32.0812771,12.4490977 32.0812771,12.0681203 L32.0812771,5.07681203 L34.3440409,5.07681203 L34.3440409,11.3171278 C34.3440409,11.8181504 34.54447,12.0681203 34.949977,12.0681203 L36.5471673,12.0681203 C36.7368378,12.0681203 36.9023346,12.0046466 37.0402043,11.8744511 C37.1734253,11.7655038 37.2403678,11.6355789 37.2403678,11.4815639 L37.2403678,5.07681203 L39.483341,5.07681203 L39.483341,15.3905414 C39.4707229,16.1533083 39.2785287,16.7647669 38.9080868,17.2280301 C38.5314023,17.6916992 38.0177778,17.9282707 37.3624317,17.9399098 L32.0812771,17.9399098 L32.0812771,15.5727068 L36.597507,15.5727068" id="Fill-3" fill="#FFFFFF"></path>
                    <path d="M41.2597088,12.0681203 L45.290871,12.0681203 C45.6598519,12.0547218 45.8513819,11.9044962 45.8621405,11.6158195 L45.8621405,11.4034737 C45.8621405,11.3413534 45.8442095,11.2732782 45.8095428,11.1995188 C45.7190907,11.0207368 45.6085824,10.9320902 45.4772209,10.9320902 L43.4782427,10.9320902 C42.8858544,10.9196391 42.3791367,10.7120301 41.9537063,10.3095338 C41.5236271,9.93884211 41.3027433,9.48180451 41.2911877,8.94572932 L41.2911877,7.18010526 C41.3139004,5.80209023 42.048143,5.10103759 43.4955096,5.07762406 L48.1708608,5.07762406 L48.1708608,7.44428571 L44.2103602,7.44428571 C43.7444189,7.44428571 43.5106513,7.59004511 43.5106513,7.8793985 L43.5106513,8.10920301 C43.5106513,8.40938346 43.7502631,8.56001504 44.226963,8.56001504 L46.2191673,8.56001504 C46.7500587,8.57233083 47.2023193,8.7793985 47.5798008,9.18311278 C47.9611341,9.59061654 48.157977,10.0737744 48.1708608,10.6356992 L48.1708608,12.3631579 C48.157977,12.8490226 47.9384215,13.3327218 47.5144521,13.8164211 C47.3071162,14.0531278 47.0960613,14.2160752 46.8851392,14.3089173 C46.6658493,14.3936391 46.3688582,14.436 45.9892516,14.436 L41.2597088,14.436 L41.2597088,12.0681203" id="Fill-4" fill="#FFFFFF"></path>
                    <path d="M54.9813333,7.95708271 C54.9910294,7.60263158 54.7882095,7.43345865 54.3708812,7.44428571 L49.8152031,7.44428571 L49.8152031,5.07762406 L54.9461354,5.07762406 C56.439857,5.10103759 57.1974764,5.83714286 57.2212516,7.28986466 L57.2212516,12.2428421 C57.2095632,12.87 57.0194943,13.3859098 56.6563576,13.796797 C56.2766181,14.2224361 55.7833155,14.436 55.179106,14.436 L52.0766386,14.436 C50.5677752,14.4232782 49.8021865,13.7215489 49.780802,12.3252632 L49.780802,10.414015 C49.7910294,8.95574436 50.5212874,8.21409023 51.9711775,8.18918797 L54.9813333,8.18918797 L54.9813333,7.95708271 L54.9813333,7.95708271 Z M52.0418391,11.5994436 C52.0418391,11.7342406 52.1028046,11.8416992 52.2255326,11.9208722 C52.3303295,12.0179098 52.4660741,12.0681203 52.6328991,12.0681203 L54.3731392,12.0681203 C54.7672235,12.0681203 54.9692465,11.9130226 54.9813333,11.5994436 L54.9813333,10.9377744 C54.9813333,10.5769624 54.7708097,10.395203 54.3548097,10.395203 L52.6328991,10.395203 C52.4065696,10.395203 52.2515658,10.4336391 52.1646999,10.5056391 C52.0846079,10.591985 52.0418391,10.7604812 52.0418391,11.0105865 L52.0418391,11.5994436 L52.0418391,11.5994436 Z" id="Fill-5" fill="#FFFFFF"></path>
                    <path d="M59.0601788,3.73371429 C59.0746564,3.09478195 59.3053691,2.58144361 59.7593563,2.19654135 C60.1987331,1.80595489 60.7753155,1.6055188 61.4897676,1.59360902 L62.9266411,1.59360902 L62.9266411,3.88218045 L62.0563883,3.88218045 C61.5779617,3.89219549 61.333834,4.12565414 61.3244036,4.5766015 L61.3244036,5.07762406 L62.9266411,5.07762406 L62.9266411,7.4473985 L61.3244036,7.4473985 L61.3244036,14.4374887 L59.0601788,14.4374887 L59.0601788,3.73371429" id="Fill-6" fill="#FFFFFF"></path>
                    <path d="M66.5596015,11.2606917 L66.5596015,11.4071278 C66.5596015,11.5976842 66.6076833,11.7475038 66.7062375,11.8564511 C66.7775632,11.996797 66.8730626,12.0681203 67.0001737,12.0681203 L71.6476322,12.0681203 L71.6476322,14.436 L66.7062375,14.436 C66.2555709,14.436 65.9041226,14.3925564 65.6558774,14.3072932 C65.3841226,14.2160752 65.1407918,14.066797 64.9280102,13.8602707 C64.6791009,13.6094887 64.5094866,13.3546466 64.424613,13.0920902 C64.3315045,12.8184361 64.2851494,12.4546466 64.2851494,12.0023459 L64.2664215,7.26239098 C64.2913921,5.83010526 65.0252363,5.10103759 66.4686181,5.07681203 L69.5170268,5.07681203 C70.9266718,5.10103759 71.6408582,5.85609023 71.6631724,7.34237594 L71.6631724,9.21532331 L66.5596015,11.2606917 L66.5596015,11.2606917 Z M69.3605619,7.91242105 L69.3605619,7.85747368 C69.3605619,7.73580451 69.3127458,7.63240602 69.21459,7.55566917 C69.1092618,7.48109774 68.9800255,7.44428571 68.8254202,7.44428571 L67.2502784,7.44428571 C67.0489195,7.44428571 66.8858135,7.50221053 66.759765,7.62076692 C66.6031673,7.72984962 66.5234738,7.87317293 66.5234738,8.0512782 L66.5234738,9.00108271 L69.3605619,7.91242105 L69.3605619,7.91242105 Z" id="Fill-7" fill="#FFFFFF"></path>
                    <path d="M76.4515556,14.4365414 C76.1088736,14.4365414 75.7962095,14.4043308 75.5123678,14.345594 C75.2156424,14.2963308 74.9193155,14.1550376 74.6163474,13.9183308 C74.30541,13.643188 74.0911673,13.3342105 73.9737522,12.9924812 C73.8495632,12.6568421 73.7897931,12.2774887 73.7897931,11.8494135 L73.7897931,7.43007519 C73.7766437,7.06966917 73.8122401,6.75284211 73.8948557,6.47932331 C73.9714943,6.20418045 74.1307484,5.93675188 74.3723525,5.67487218 C74.6474278,5.3982406 74.9287458,5.21553383 75.2254713,5.12553383 C75.5110396,5.05258647 75.8323372,5.01550376 76.193083,5.01550376 L79.6600153,5.01550376 L79.6600153,5.56917293 L76.2727765,5.56917293 C75.6756066,5.56917293 75.2051494,5.69463158 74.8615377,5.94541353 C74.5096909,6.21906767 74.3309119,6.69018045 74.3309119,7.35415038 L74.3309119,11.7764662 C74.3309119,12.0877444 74.3772669,12.3894135 74.4698442,12.6818797 C74.5656092,12.969609 74.7232695,13.2205263 74.9509272,13.4409925 C75.1969144,13.6322256 75.442636,13.7505113 75.6818493,13.7997744 C75.9316884,13.8547218 76.1989272,13.8813835 76.4825032,13.8813835 L79.7142069,13.8813835 L79.7142069,14.4365414 L76.4515556,14.4365414" id="Fill-8" fill="#FFFFFF"></path>
                    <path d="M89.1173742,11.8870376 C89.1173742,12.2423008 89.0916066,12.5557444 89.0465798,12.8293985 C88.9721992,13.1289023 88.8225083,13.4174436 88.5940536,13.6909624 C88.1190805,14.2003759 87.5308097,14.4491278 86.8288429,14.436 L84.1253742,14.436 C83.4234074,14.436 82.8541303,14.2224361 82.412894,13.796797 C81.9627586,13.3758947 81.7340383,12.7919098 81.7340383,12.0414586 L81.7340383,10.6179699 C81.7574151,9.01001504 82.5437241,8.18661654 84.0916373,8.14980451 L88.5940536,8.14980451 L88.5940536,7.52589474 C88.5940536,7.01242105 88.4483474,6.56228571 88.1578646,6.17508271 C87.9731086,5.92416541 87.755014,5.75715789 87.5075658,5.66945865 C87.2573282,5.60273684 86.976143,5.56917293 86.6624163,5.56917293 L81.7506411,5.56917293 L81.7506411,5.01550376 L86.4071315,5.01550376 C86.8332261,5.01550376 87.2184112,5.04622556 87.5669374,5.10645113 C87.7459821,5.1427218 87.9089553,5.21323308 88.0602401,5.31595489 C88.2182989,5.41380451 88.3671928,5.55807519 88.5051954,5.7455188 C88.9225236,6.29418045 89.1269374,6.92769925 89.1173742,7.64093233 L89.1173742,11.8870376 L89.1173742,11.8870376 Z M88.5777165,8.70252632 L84.0316015,8.70252632 C83.487295,8.71524812 83.0618646,8.88685714 82.7535837,9.21694737 C82.4361379,9.5516391 82.2790089,10.0124662 82.2790089,10.5967218 L82.2790089,12.0070827 C82.2790089,12.2812782 82.3069017,12.5307068 82.3645466,12.7557744 C82.4221916,12.9924812 82.5647101,13.2041504 82.7902427,13.3867218 C83.1833972,13.7183008 83.617461,13.8819248 84.092567,13.8819248 L86.8469068,13.8819248 C87.9979464,13.8698797 88.5777165,13.2520602 88.5777165,12.0250827 L88.5777165,8.70252632 L88.5777165,8.70252632 Z" id="Fill-9" fill="#FFFFFF"></path>
                    <path d="M94.201553,5.56917293 C92.9401379,5.5933985 92.3191928,6.29418045 92.3425696,7.67409023 L92.3425696,14.436 L91.8003883,14.436 L91.8003883,7.67639098 C91.7754176,5.90142857 92.6040971,5.01645113 94.2878876,5.01645113 L94.8899719,5.01645113 L94.8899719,5.56917293 L94.201553,5.56917293" id="Fill-10" fill="#FFFFFF"></path>
                    <path d="M103.899188,11.8181504 C103.851239,13.6023158 102.923607,14.4763308 101.118549,14.4393835 L99.1104061,14.4393835 C98.6859055,14.4393835 98.306963,14.4021654 97.9711877,14.3305714 C97.6261149,14.2386767 97.2952542,14.0248421 96.9778084,13.690015 C96.7380639,13.3901053 96.5846539,13.0865414 96.5231571,12.7751278 C96.440143,12.4650677 96.4041481,12.1190075 96.4168991,11.7419549 L96.4168991,7.71793985 C96.440143,5.90548872 97.3364291,5.00467669 99.1065543,5.01875188 L103.357936,5.01875188 L103.357936,1.96362406 L103.899188,1.96362406 L103.899188,11.8181504 L103.899188,11.8181504 Z M103.357936,5.57215038 L99.0734815,5.57215038 C98.7646692,5.57215038 98.488,5.60760902 98.2382937,5.67419549 C97.977696,5.73442105 97.7252005,5.89615038 97.4899719,6.15870677 C97.2636424,6.39757895 97.1220536,6.63455639 97.0610881,6.8713985 C96.9823244,7.11027068 96.9463295,7.39813534 96.9596117,7.73201504 L96.9596117,12.0438947 C96.9596117,12.7603759 97.162963,13.248812 97.5763065,13.5098797 C97.7797905,13.6322256 98.0033308,13.7231729 98.2548966,13.7843459 C98.5055326,13.8518797 98.7836628,13.8854436 99.091014,13.8854436 L100.963678,13.8854436 C101.662856,13.8854436 102.235852,13.7215489 102.675361,13.3901053 C103.117527,13.0801805 103.342927,12.5438346 103.357936,11.780391 L103.357936,5.57215038 L103.357936,5.57215038 Z" id="Fill-11" fill="#FFFFFF"></path>
                    <path d="M0.971729246,4.72087218 C1.14904725,4.64088722 1.32729502,4.57890226 1.50408174,4.53978947 C1.8312235,2.95159398 3.21151469,1.75912782 4.86754534,1.75912782 C6.52370881,1.75912782 7.90559387,2.95308271 8.23100894,4.5412782 C8.73998467,4.6393985 9.15996935,4.84957895 9.48777522,5.16045113 C9.50119029,4.85553383 9.48936909,4.56171429 9.45390549,4.28508271 C9.24351469,1.88445113 7.26844444,0.00135338346 4.86063857,0.00135338346 C2.38057727,0.00135338346 0.362738186,2.00354887 0.257675607,4.50703759 C0.243065134,4.72303759 0.238947637,4.94810526 0.246252874,5.18345865 C0.453854406,5.00548872 0.692005109,4.84470677 0.971729246,4.72087218" id="Fill-12" fill="#E2011B"></path>
                    <path d="M7.5589272,5.07681203 L2.03351213,5.07681203 C1.76733589,5.07681203 1.49226054,5.13933835 1.20881737,5.2687218 C0.935203065,5.39120301 0.710201788,5.53777444 0.531289911,5.71330827 C0.187810983,6.13353383 0.011954023,6.74756391 0,7.55499248 L0,11.9568722 C0.011954023,12.7659248 0.187810983,13.3788722 0.531289911,13.797609 C0.710201788,13.9753083 0.935203065,14.1232331 1.20881737,14.2453083 C1.49226054,14.3722556 1.76733589,14.4365414 2.03351213,14.4365414 L7.5589272,14.4365414 C8.98570626,14.4232782 9.71197957,13.6258647 9.73469221,12.0493083 L9.73469221,7.46390977 C9.71197957,5.88437594 8.98570626,5.09007519 7.5589272,5.07681203" id="Fill-13" fill="#E2011B"></path>
                </g>
            </g>
        </g>
    </g>
</svg>