<?xml version="1.0" encoding="UTF-8"?>
<svg width="120px" height="80px" viewBox="0 0 120 80" version="1.1" xmlns="http://www.w3.org/2000/svg" xmlns:xlink="http://www.w3.org/1999/xlink">
    <title>Untitled 2</title>
    <g id="pointspay" stroke="none" stroke-width="1" fill="none" fill-rule="evenodd">
        <rect id="Background" fill="#FFFFFE" fill-rule="nonzero" x="0" y="0" width="120" height="80" rx="4"></rect>
        <g transform="translate(11.000000, 31.000000)" fill-rule="nonzero">
            <path d="M6,8 C6,6.21237585 4.72258364,5 2.98931227,5 C1.27788104,5 0,6.21237585 0,8 C0,9.78762412 1.27741636,11 2.98931227,11 C4.72258364,11 6,9.78762412 6,8" id="Fill-13" fill="#A78FFF"></path>
            <path d="M13.9072734,2.55595442 C16.6276592,2.55639032 18.8601403,4.88236289 18.8601403,7.89706047 C18.8601403,10.9108862 16.6276592,13.2368588 13.9072734,13.2368588 C12.4252134,13.2368588 11.3493768,12.6915455 10.6186116,11.7608949 L10.6186116,17 L8,17 L8,2.83972656 L10.6186116,2.83972656 L10.6186116,4.03279007 C11.3493768,3.1021395 12.4252134,2.55595442 13.9072734,2.55595442 Z M69.8267528,2.55595442 C72.5471387,2.55639032 74.7800565,4.88236289 74.7800565,7.89706047 C74.7800565,10.9108862 72.5471387,13.2368588 69.8267528,13.2368588 C68.3455664,13.2368588 67.2697299,12.6915455 66.5385279,11.7608949 L66.5385279,17 L63.9199163,17 L63.9199163,2.83972656 L66.5385279,2.83972656 L66.5385279,4.03279007 C67.2697299,3.1021395 68.3455664,2.55595442 69.8267528,2.55595442 Z M90.3035972,2.85310875 L92.9431751,9.63748598 L95.1974961,2.85310875 L98,2.85310875 L94.3042412,12.9507764 C93.2476241,15.858678 91.5218302,17.1306398 88.9425303,16.9894075 L88.9425303,14.565357 C90.3844044,14.5854086 91.1156063,13.9795049 91.6026382,12.6260294 L87.4399405,2.85310875 L90.3035972,2.85310875 Z M25.120129,2.5556057 C28.1052153,2.5556057 30.5001856,4.87329613 30.5001856,7.87622435 C30.5001856,10.8791526 28.105652,13.1959712 25.120129,13.1959712 C22.1350428,13.1959712 19.7601652,10.8782808 19.7601652,7.87622435 C19.7601652,4.87329613 22.1354796,2.5556057 25.120129,2.5556057 Z M58.8425178,2.55564928 C60.4861935,2.55564928 61.9066647,3.30147744 62.6972714,4.69156862 L60.4661007,5.90032461 C60.1607781,5.25606159 59.592939,4.87246791 58.8425178,4.87246791 C58.1929974,4.87246791 57.6657806,5.15493235 57.6657806,5.69893793 C57.6653438,7.19190196 62.8999463,6.2651745 62.8999463,9.97252023 C62.8999463,12.1485425 60.9928806,13.1960148 58.8215515,13.1960148 C56.7926189,13.1960148 55.2917766,12.3499292 54.559701,10.7989902 L56.8332412,9.52920798 C57.1180344,10.3552421 57.8077404,10.8360419 58.8219883,10.8360419 C59.6536541,10.8360419 60.2219299,10.5540134 60.2219299,9.9699048 C60.2219299,8.49960764 54.9873275,9.30559028 54.9873275,5.75952829 C54.9873275,3.70425081 56.7524334,2.55564928 58.8425178,2.55564928 Z M80.6121567,2.55582365 C82.0937797,2.55582365 83.1901457,3.12031661 83.9209115,4.02699258 L83.9209115,2.83872398 L86.5399595,2.83741627 L86.5399595,12.9137248 L83.9209115,12.9137248 L83.9209115,11.7250202 C83.1901457,12.6321321 82.0937797,13.1957533 80.6121567,13.1957533 C77.9127372,13.1957533 75.6802561,10.8784987 75.6802561,7.8760064 C75.6802561,4.87394998 77.9127372,2.55582365 80.6121567,2.55582365 Z M51.1955604,0 L51.1955604,2.81636221 L53.4787102,2.81636221 L53.4787102,5.31190063 L51.1929396,5.31190063 L51.1929396,9.49612305 C51.1929396,10.5819546 51.9826727,10.6020062 53.4800206,10.5218002 L53.4800206,12.8761064 C49.8165851,13.278008 48.5813167,12.2117919 48.5813167,9.49481534 L48.5813167,5.31190063 L46.8201421,5.31190063 L46.8201421,2.81636221 L48.5843744,2.81636221 L48.5843744,0.784623431 L51.1955604,0 Z M34.5802403,2.8533267 L34.5802403,12.8986861 L31.9402255,12.8986861 L31.9402255,2.8533267 L34.5802403,2.8533267 Z M42.0831414,2.55586704 C44.2352514,2.55543133 45.9199862,4.04447224 45.9199862,6.72090994 L45.9199862,12.8985117 L43.3013745,12.8985117 L43.3013745,7.04260555 C43.3013745,5.67430947 42.4692719,4.96989199 41.2920979,4.96989199 C40.0131496,4.96989199 39.0587432,5.71484834 39.0587432,7.4654304 L39.0587432,12.8985117 L36.4401316,12.8985117 L36.4401316,2.83702397 L39.0587432,2.83702397 L39.0587432,3.96426629 C39.6676414,3.05889803 40.7233853,2.55586704 42.0831414,2.55586704 Z M13.4198054,5.0449543 C11.8163153,5.0449543 10.6186116,6.19791484 10.6186116,7.89706047 C10.6186116,9.59620608 11.8158785,10.7491666 13.4198054,10.7491666 C15.0438251,10.7491666 16.2415286,9.59620608 16.2415286,7.89706047 C16.2415286,6.19791484 15.0442618,5.0449543 13.4198054,5.0449543 Z M69.3397216,5.0449543 C67.7362315,5.0449543 66.5385279,6.19791484 66.5385279,7.89706047 C66.5385279,9.59620608 67.7357947,10.7491666 69.3397216,10.7491666 C70.9637413,10.7491666 72.1614449,9.59620608 72.1614449,7.89706047 C72.1614449,6.19791484 70.9646149,5.0449543 69.3397216,5.0449543 Z M81.0991878,5.03392598 C79.4956978,5.03392598 78.2979942,6.1825275 78.2979942,7.8755705 C78.2979942,9.5686135 79.495261,10.7172151 81.0991878,10.7172151 C82.7245178,10.7172151 83.9209115,9.5686135 83.9209115,7.8755705 C83.9209115,6.1825275 82.7245178,5.03392598 81.0991878,5.03392598 Z M25.120129,5.0947343 C23.5769172,5.0947343 22.3792136,6.24377171 22.3792136,7.87622435 C22.3792136,9.50867695 23.5764804,10.6568426 25.120129,10.6568426 C26.6834336,10.6568426 27.8811373,9.50867695 27.8811373,7.87622435 C27.8811373,6.24377171 26.6838704,5.0947343 25.120129,5.0947343 Z" id="Combined-Shape" fill="#192451"></path>
        </g>
    </g>
</svg>