<?xml version="1.0" encoding="UTF-8" standalone="no"?>
<svg width="120px" height="80px" viewBox="0 0 120 80" version="1.1" xmlns="http://www.w3.org/2000/svg" xmlns:xlink="http://www.w3.org/1999/xlink">
    <!-- Generator: Sketch 39.1 (31720) - http://www.bohemiancoding.com/sketch -->
    <title>card_pointspay_v02</title>
    <desc>Created with Sketch.</desc>
    <defs></defs>
    <g id="export-badges" stroke="none" stroke-width="1" fill="none" fill-rule="evenodd">
        <g id="production-final" transform="translate(-36.000000, -4216.000000)">
            <g id="card_pointspay_v02" transform="translate(36.000000, 4216.000000)">
                <rect id="Rectangle-11" fill="#223066" x="0" y="0" width="120" height="80" rx="4"></rect>
                <g id="Group-6" transform="translate(30.000000, 19.000000)" fill="#FFFFFF">
                    <g id="Group" transform="translate(2.891344, 2.099448)">
                        <path d="M5.15653775,25.7826888 L5.15653775,36.4640884 C5.15653775,37.7532228 4.05156538,38.8581952 2.57826888,38.8581952 L2.57826888,38.8581952 C1.10497238,38.8581952 0,37.7532228 0,36.4640884 L0,14.732965" id="Shape"></path>
                        <path d="M14.732965,0.368324125 C22.8360958,0.368324125 29.46593,6.26151013 29.46593,14.5488029 C29.46593,22.8360958 22.8360958,28.9134438 14.732965,28.9134438 C6.62983425,28.9134438 0,22.8360958 0,14.5488029 C0,6.44567219 6.62983425,0.368324125 14.732965,0.368324125 L14.732965,0.368324125 Z M14.732965,24.4935543 C19.8895028,24.4935543 24.1252302,20.441989 24.1252302,14.732965 C24.1252302,9.02394107 19.8895028,4.97237569 14.732965,4.97237569 C9.57642726,4.97237569 5.34069982,9.02394107 5.34069982,14.732965 C5.34069982,20.2578269 9.57642726,24.4935543 14.732965,24.4935543 L14.732965,24.4935543 Z" id="Shape"></path>
                    </g>
                    <g id="Group" transform="translate(26.832413, 2.099448)">
                        <path d="M5.34069982,25.7826888 L5.34069982,36.4640884 C5.34069982,37.7532228 4.23572744,38.8581952 2.76243094,38.8581952 L2.76243094,38.8581952 C1.28913444,38.8581952 0.184162063,37.7532228 0.184162063,36.4640884 L0.184162063,14.732965" id="Shape"></path>
                        <path d="M14.9171271,0.368324125 C23.0202578,0.368324125 29.6500921,6.26151013 29.6500921,14.5488029 C29.6500921,22.8360958 23.0202578,28.9134438 14.9171271,28.9134438 C6.81399632,28.9134438 0.184162063,22.8360958 0.184162063,14.5488029 C0.184162063,6.44567219 6.62983425,0.368324125 14.9171271,0.368324125 L14.9171271,0.368324125 Z M14.9171271,24.4935543 C20.0736648,24.4935543 24.3093923,20.441989 24.3093923,14.732965 C24.3093923,9.02394107 20.0736648,4.97237569 14.9171271,4.97237569 C9.76058932,4.97237569 5.52486188,9.02394107 5.52486188,14.732965 C5.52486188,20.2578269 9.76058932,24.4935543 14.9171271,24.4935543 L14.9171271,24.4935543 Z" id="Shape"></path>
                    </g>
                </g>
            </g>
        </g>
    </g>
</svg>