<?xml version="1.0" encoding="UTF-8"?>
<svg width="140px" height="80px" viewBox="0 0 140 80" version="1.1" xmlns="http://www.w3.org/2000/svg" xmlns:xlink="http://www.w3.org/1999/xlink">
    <title>im/logo-pay/pointspay</title>
    <g id="im/logo-pay/pointspay" stroke="none" stroke-width="1" fill="none" fill-rule="evenodd">
        <g id="Group-14" transform="translate(9.000000, 29.000000)">
            <path d="M17.4668609,3.15748462 C20.8161409,3.15802308 23.5647231,6.03125385 23.5647231,9.75525385 C23.5647231,13.4781769 20.8161409,16.3514077 17.4668609,16.3514077 C15.6421809,16.3514077 14.3176342,15.6777923 13.417932,14.5281769 L13.417932,20.9999462 L10.1939542,20.9999462 L10.1939542,3.50802308 L13.417932,3.50802308 L13.417932,4.98179231 C14.3176342,3.83217692 15.6421809,3.15748462 17.4668609,3.15748462 Z M86.3137098,3.15748462 C89.6629898,3.15802308 92.4121098,6.03125385 92.4121098,9.75525385 C92.4121098,13.4781769 89.6629898,16.3514077 86.3137098,16.3514077 C84.4901053,16.3514077 83.1655587,15.6777923 82.2653187,14.5281769 L82.2653187,20.9999462 L79.0413409,20.9999462 L79.0413409,3.50802308 L82.2653187,3.50802308 L82.2653187,4.98179231 C83.1655587,3.83217692 84.4901053,3.15748462 86.3137098,3.15748462 Z M111.524356,3.52455385 L114.774147,11.9051692 L117.549618,3.52455385 L121,3.52455385 L116.449862,15.9980154 C115.148978,19.5900923 113.024218,21.1613231 109.84864,20.9868615 L109.84864,17.9924769 C111.623844,18.0172462 112.524084,17.2687846 113.123707,15.5968615 L107.998684,3.52455385 L111.524356,3.52455385 Z M31.2718853,3.15705385 C34.9470587,3.15705385 37.8956942,6.02005385 37.8956942,9.72951538 C37.8956942,13.4389769 34.9475964,16.3009 31.2718853,16.3009 C27.596712,16.3009 24.6728142,13.4379 24.6728142,9.72951538 C24.6728142,6.02005385 27.5972498,3.15705385 31.2718853,3.15705385 Z M72.7901582,3.15710769 C74.813816,3.15710769 76.5626693,4.07841538 77.5360471,5.79556923 L74.7890782,7.28872308 C74.4131716,6.49287692 73.7140604,6.01903077 72.7901582,6.01903077 C71.9904827,6.01903077 71.3413849,6.36795385 71.3413849,7.03995385 C71.3408471,8.88418462 77.785576,7.73941538 77.785576,12.3190308 C77.785576,15.0070308 75.4376382,16.3009538 72.7643449,16.3009538 C70.2663671,16.3009538 68.4185627,15.2558 67.5172471,13.3399538 L70.3163804,11.7714154 C70.6670116,12.7918 71.5161627,13.3857231 72.7648827,13.3857231 C73.7888116,13.3857231 74.4884604,13.0373385 74.4884604,12.3158 C74.4884604,10.4995692 68.0437316,11.4951846 68.0437316,7.1148 C68.0437316,4.57595385 70.2168916,3.15710769 72.7901582,3.15710769 Z M99.5924649,3.15732308 C101.416607,3.15732308 102.766429,3.85463077 103.666132,4.97463077 L103.666132,3.50678462 L106.890647,3.50516923 L106.890647,15.9522462 L103.666132,15.9522462 L103.666132,14.4838615 C102.766429,15.6044 101.416607,16.3006308 99.5924649,16.3006308 C96.2689982,16.3006308 93.520416,13.4381692 93.520416,9.72924615 C93.520416,6.02086154 96.2689982,3.15732308 99.5924649,3.15732308 Z M63.3753902,0.000161538461 L63.3753902,3.47916154 L66.1863547,3.47916154 L66.1863547,6.56185385 L63.3721636,6.56185385 L63.3721636,11.7305462 C63.3721636,13.0718538 64.3444658,13.0966231 66.187968,12.9975462 L66.187968,15.9057769 C61.6776258,16.4022385 60.1567902,15.0851615 60.1567902,11.7289308 L60.1567902,6.56185385 L57.9884702,6.56185385 L57.9884702,3.47916154 L60.1605547,3.47916154 L60.1605547,0.969392308 L63.3753902,0.000161538461 Z M42.9189689,3.52482308 L42.9189689,15.9336692 L39.66864,15.9336692 L39.66864,3.52482308 L42.9189689,3.52482308 Z M52.1563778,3.1573768 C54.8060089,3.15683846 56.8802178,4.99622308 56.8802178,8.30237692 L56.8802178,15.9334538 L53.65624,15.9334538 L53.65624,8.69976154 C53.65624,7.00953077 52.6317733,6.13937692 51.1824622,6.13937692 C49.6078489,6.13937692 48.4328044,7.05960769 48.4328044,9.22206923 L48.4328044,15.9334538 L45.2088267,15.9334538 L45.2088267,3.50468462 L48.4328044,3.50468462 L48.4328044,4.89714615 C49.1824667,3.77876154 50.4822756,3.1573768 52.1563778,3.1573768 Z M16.8667009,6.2321 C14.8925187,6.2321 13.417932,7.65633077 13.417932,9.75525385 C13.417932,11.8541769 14.8919809,13.2784077 16.8667009,13.2784077 C18.8661587,13.2784077 20.3407453,11.8541769 20.3407453,9.75525385 C20.3407453,7.65633077 18.8666964,6.2321 16.8667009,6.2321 Z M85.7140876,6.2321 C83.7399053,6.2321 82.2653187,7.65633077 82.2653187,9.75525385 C82.2653187,11.8541769 83.7393676,13.2784077 85.7140876,13.2784077 C87.7135453,13.2784077 89.188132,11.8541769 89.188132,9.75525385 C89.188132,7.65633077 87.7146209,6.2321 85.7140876,6.2321 Z M100.192087,6.21847692 C98.2179049,6.21847692 96.7433182,7.63732308 96.7433182,9.72870769 C96.7433182,11.8200923 98.2173671,13.2389385 100.192087,13.2389385 C102.193158,13.2389385 103.666132,11.8200923 103.666132,9.72870769 C103.666132,7.63732308 102.193158,6.21847692 100.192087,6.21847692 Z M31.2718853,6.29359231 C29.3719164,6.29359231 27.8973298,7.71297692 27.8973298,9.72951538 C27.8973298,11.7460538 29.3713787,13.1643615 31.2718853,13.1643615 C33.196592,13.1643615 34.6711787,11.7460538 34.6711787,9.72951538 C34.6711787,7.71297692 33.1971298,6.29359231 31.2718853,6.29359231 Z" id="Combined-Shape" fill="#192451"></path>
            <path d="M6.94384044,9.76580769 C6.94384044,7.66580769 5.46548933,6.24157692 3.45957822,6.24157692 C1.47894267,6.24157692 5.37777778e-05,7.66580769 5.37777778e-05,9.76580769 C5.37777778e-05,11.8658077 1.47840489,13.2900385 3.45957822,13.2900385 C5.46548933,13.2900385 6.94384044,11.8658077 6.94384044,9.76580769" id="Fill-13" fill="#A78FFF"></path>
        </g>
    </g>
</svg>