<?xml version="1.0" encoding="UTF-8" standalone="no"?>
<svg width="120px" height="80px" viewBox="0 0 120 80" version="1.1" xmlns="http://www.w3.org/2000/svg" xmlns:xlink="http://www.w3.org/1999/xlink" xmlns:sketch="http://www.bohemiancoding.com/sketch/ns">
    <!-- Generator: Sketch 3.2.2 (9983) - http://www.bohemiancoding.com/sketch -->
    <title>card_postfinance_v2</title>
    <desc>Created with Sketch.</desc>
    <defs></defs>
    <g id="assets-various" stroke="none" stroke-width="1" fill="none" fill-rule="evenodd" sketch:type="MSPage">
        <g id="Artboard-2" sketch:type="MSArtboardGroup" transform="translate(-35.000000, -2134.000000)">
            <g id="card_postfinance_v2" sketch:type="MSLayerGroup" transform="translate(35.000000, 2134.000000)">
                <rect id="Rectangle-11" fill="#FCD202" sketch:type="MSShapeGroup" x="0" y="0" width="120" height="80" rx="4"></rect>
                <path d="M93.9992748,0 C91.7905363,0 89.5820101,1.73684638 88.9985834,3.86403989 C88.9985834,3.86403989 79,53 27,80 L116.002512,80 C118.210264,80 120,78.2169203 120,76.0054168 L120,3.99458325 C120,1.78843584 118.213205,0 116.000725,0 L93.9992748,0 Z" id="Rectangle-12" fill="#FFDB28" sketch:type="MSShapeGroup"></path>
                <rect id="Rectangle-24" fill="#D9B23D" sketch:type="MSShapeGroup" x="9" y="29" width="23" height="21" rx="4"></rect>
                <g id="path24-+-path26-+-path28" transform="translate(8.000000, 11.000000)" sketch:type="MSShapeGroup">
                    <path d="M52.0361293,7.73545588 L52.6693486,10.7707721 L0.993719963,10.7707721 L0.359934114,7.73545588 L52.0361293,7.73545588" id="path24" fill="#FFFFFF" transform="translate(26.514641, 9.253114) scale(1, -1) translate(-26.514641, -9.253114) "></path>
                    <path d="M58.2602437,7.52486029 C58.2602437,7.52486029 58.9531678,10.7405956 58.9627554,10.7707721 L54.5594189,10.7707721 C54.5594189,10.7504338 53.64903,6.50327206 53.64903,6.48311029 L54.7773196,6.48311029 C54.7869072,6.48311029 55.4698079,9.688875 55.4698079,9.688875 L57.6069775,9.688875 C57.6069775,9.688875 56.9341003,6.47327206 56.9144892,6.45293382 L60.169925,6.45293382 L59.7445829,4.46971324 L56.5083224,4.46971324 C56.5083224,4.44955147 55.855492,1.44438971 55.855492,1.44438971 L53.4115183,1.44438971 C53.4115183,1.43455147 53.1936176,0.362629412 53.18403,0.352632353 L56.785492,0.352632353 C56.785492,0.362629412 57.4291706,3.38794853 57.4291706,3.38794853 L60.6649953,3.38794853 C60.6649953,3.39796324 61.5161153,7.50505147 61.5161153,7.52486029 L58.2602437,7.52486029" id="path26" fill="#ED1C24" transform="translate(57.350073, 5.561702) scale(1, -1) translate(-57.350073, -5.561702) "></path>
                    <path d="M50.2920525,5.65191176 C50.7570525,5.65191176 51.07388,5.33152941 51.07388,4.80057353 C51.07388,4.71061765 51.0638566,4.63045588 51.054269,4.54032353 L49.0452249,4.54032353 C49.2531022,5.21122059 49.6980553,5.65191176 50.2920525,5.65191176 L50.2920525,5.65191176 Z M51.2913449,1.66495588 L51.5489035,2.85714706 C51.113538,2.70719118 50.6877601,2.58710294 50.14388,2.58710294 C49.5102249,2.58710294 48.9563215,2.80716176 48.926687,3.57869118 L52.1921462,3.57869118 C52.3106842,3.96957353 52.3799766,4.35988235 52.3799766,4.72041176 C52.3799766,5.82251471 51.7467573,6.72432353 50.3909794,6.72432353 C48.6294705,6.72432353 47.5608857,5.26120588 47.5608857,3.64848529 C47.5608857,2.26636765 48.4712746,1.45469118 49.8863215,1.45469118 C50.4602718,1.45469118 50.9152484,1.54517647 51.2913449,1.66495588 L51.2913449,1.66495588 L51.2913449,1.66495588 Z M45.9183505,2.67705882 C45.2751078,2.67705882 44.8397423,2.95742647 44.8397423,3.76879412 C44.8397423,4.72041176 45.4333037,5.51197059 46.3737629,5.51197059 C46.6705436,5.51197059 47.0069822,5.42183824 47.3434208,5.29138235 L47.5809325,6.43341176 C47.1948126,6.57352941 46.7394002,6.67385294 46.2844236,6.67385294 C44.7307919,6.67385294 43.4046485,5.50195588 43.4046485,3.69847059 C43.4046485,2.21607353 44.3054499,1.51517647 45.601523,1.51517647 C46.0368885,1.51517647 46.4029616,1.59511765 46.6705436,1.70510294 L46.9276664,2.87748529 C46.6308857,2.76719118 46.3040347,2.67705882 45.9183505,2.67705882 L45.9183505,2.67705882 L45.9183505,2.67705882 Z M39.0807151,1.60513235 L39.6249438,4.13964706 C39.8424958,5.16127941 40.3375661,5.51197059 40.8519859,5.51197059 C41.5150576,5.51197059 41.5942427,5.01079412 41.4653763,4.44004412 L40.871597,1.60513235 L42.2868182,1.60513235 L42.9100141,4.51019118 C43.2168182,5.96263235 42.5539644,6.72432353 41.5150576,6.72432353 C40.9408458,6.72432353 40.3869424,6.49376471 39.9117882,5.98279412 L40.040306,6.57352941 L38.7244039,6.57352941 L37.6655375,1.60513235 L39.0807151,1.60513235 L39.0807151,1.60513235 Z M33.9946087,3.03758824 C33.9946087,3.53819118 34.4298871,3.81913235 35.1520098,3.81913235 C35.2909433,3.81913235 35.5971809,3.80876471 35.8746556,3.76879412 L35.8150815,3.48825 C35.6465572,2.89764706 35.1721003,2.49644118 34.6083041,2.49644118 C34.202268,2.49644118 33.9946087,2.69686765 33.9946087,3.03758824 L33.9946087,3.03758824 L33.9946087,3.03758824 Z M35.3602357,6.69419118 C34.7070131,6.69419118 34.043985,6.54370588 33.8263894,6.47360294 L33.5889213,5.32151471 C33.9050515,5.41147059 34.5286396,5.58211765 35.0830661,5.58211765 C35.8249742,5.58211765 36.0922512,5.35169118 36.0922512,4.96085294 C36.0922512,4.89101471 36.0922512,4.81054412 36.0726401,4.73077941 L36.0525933,4.63045588 C35.6964564,4.67042647 35.3602357,4.70025 35.2013861,4.70025 C33.7966242,4.70025 32.668814,4.14966176 32.668814,2.84713235 C32.668814,1.99583824 33.3216443,1.48482353 34.1725028,1.48482353 C34.7763055,1.48482353 35.2909433,1.72526471 35.627164,2.12594118 L35.5182137,1.60513235 L36.7748903,1.60513235 L37.3885858,4.44983824 C37.437962,4.66063235 37.4575295,4.88069118 37.4575295,5.09095588 C37.4575295,5.94277941 36.992791,6.69419118 35.3602357,6.69419118 L35.3602357,6.69419118 L35.3602357,6.69419118 Z M28.5026406,1.60513235 L29.0467385,4.13964706 C29.2646392,5.16127941 29.7589686,5.51197059 30.2741293,5.51197059 C30.937201,5.51197059 31.0161682,5.01079412 30.8878247,4.44004412 L30.2936968,1.60513235 L31.7087001,1.60513235 L32.3317652,4.51019118 C32.6387001,5.96263235 31.975977,6.72432353 30.937201,6.72432353 C30.3624663,6.72432353 29.8083449,6.49376471 29.3335829,5.98279412 L29.4621007,6.57352941 L28.1461987,6.57352941 L27.0873322,1.60513235 L28.5026406,1.60513235 L28.5026406,1.60513235 Z M25.9695455,7.94616176 C25.9394316,7.49554412 26.2662826,7.14480882 26.7015609,7.14480882 C27.1863899,7.14480882 27.5328083,7.49554412 27.5620942,7.94616176 C27.5920773,8.39682353 27.265575,8.74755882 26.8300787,8.74755882 C26.3454241,8.74755882 25.9990056,8.39682353 25.9695455,7.94616176 L25.9695455,7.94616176 L25.9695455,7.94616176 Z M25.7712559,6.57352941 L24.7125637,1.60513235 L26.1178486,1.60513235 L27.1767151,6.57352941 L25.7712559,6.57352941 L25.7712559,6.57352941 Z M21.7732582,1.60513235 L22.3273796,4.19964706 L24.4652029,4.19964706 L24.7227615,5.47182353 L22.5948308,5.47182353 L22.9216818,7.06469118 L25.1679325,7.06469118 L25.4448843,8.33704412 L21.7342976,8.33704412 L20.3290127,1.60513235 L21.7732582,1.60513235 L21.7732582,1.60513235 Z M20.3782146,5.48179412 L20.6059644,6.57352941 L19.0922521,6.57352941 L19.3887713,7.956 L17.914194,7.62564706 L16.9939124,3.37844118 C16.7370511,2.17592647 17.3897071,1.51517647 18.5770914,1.51517647 C18.8249752,1.51517647 19.2401631,1.56498529 19.5374231,1.66495588 L19.7748913,2.75717647 C19.5374231,2.69686765 19.2401631,2.63691176 18.9833018,2.63691176 C18.5770914,2.63691176 18.290247,2.77702941 18.3895225,3.27816176 L18.8547404,5.48179412 L20.3782146,5.48179412 L20.3782146,5.48179412 Z M15.0149386,3.06772059 C15.0149386,2.66673529 14.530284,2.59689706 14.1245965,2.59689706 C13.609828,2.59689706 13.0361392,2.73683824 12.7297273,2.83733824 L12.4917362,1.71542647 C12.9372123,1.60513235 13.5012263,1.51517647 14.0354316,1.51517647 C15.301783,1.51517647 16.3313636,1.99583824 16.3313636,3.19786765 C16.3313636,4.75058824 14.4908004,4.48001471 14.4908004,5.17107353 C14.4908004,5.48179412 14.7876682,5.59208824 15.2524067,5.59208824 C15.6975778,5.59208824 16.3216888,5.41147059 16.5291739,5.35169118 L16.766642,6.48339706 C16.3412563,6.60370588 15.8365112,6.67385294 15.3810989,6.67385294 C14.0059714,6.67385294 13.1748547,6.05258824 13.1748547,5.02080882 C13.1748547,3.50858824 15.0149386,3.75877941 15.0149386,3.06772059 L15.0149386,3.06772059 L15.0149386,3.06772059 Z M9.6913641,1.45469118 C11.2450829,1.45469118 12.293926,2.59689706 12.5313941,4.08935294 C12.7789292,5.58211765 11.9577052,6.72432353 10.4038121,6.72432353 C8.85039831,6.72432353 7.80142455,5.58211765 7.56391284,4.08935294 C7.3165956,2.59689706 8.13795033,1.45469118 9.6913641,1.45469118 L9.6913641,1.45469118 L9.6913641,1.45469118 Z M9.82040487,2.60673529 C9.25608575,2.60673529 8.81091471,3.05757353 9.01839972,4.08935294 C9.22610262,5.12108824 9.72112933,5.57175 10.2851434,5.57175 C10.8492882,5.57175 11.2946336,5.11129412 11.0767329,4.08935294 C10.8688557,3.06772059 10.384201,2.60673529 9.82040487,2.60673529 L9.82040487,2.60673529 L9.82040487,2.60673529 Z M3.85315183,3.65885294 L4.47673993,3.65885294 C6.46573711,3.65885294 7.57415417,4.65026471 7.57415417,6.30330882 C7.57415417,7.53551471 6.71257498,8.33704412 5.2383463,8.33704412 L3.398306,8.33704412 L1.99299494,1.60513235 L3.41787348,1.60513235 L3.85315183,3.65885294 L3.85315183,3.65885294 Z M4.10051265,4.89101471 L4.56559981,7.10466176 L5.1593791,7.10466176 C5.81255811,7.10466176 6.1288627,6.83408824 6.1288627,6.20302941 C6.1288627,5.39166176 5.62446626,4.89101471 4.69464058,4.89101471 L4.10051265,4.89101471 L4.10051265,4.89101471 Z" id="path28" fill="#231F20" transform="translate(27.186486, 5.101125) scale(1, -1) translate(-27.186486, -5.101125) "></path>
                </g>
            </g>
        </g>
    </g>
</svg>