<?xml version="1.0" encoding="UTF-8" standalone="no"?>
<svg width="120px" height="80px" viewBox="0 0 120 80" version="1.1" xmlns="http://www.w3.org/2000/svg" xmlns:xlink="http://www.w3.org/1999/xlink" xmlns:sketch="http://www.bohemiancoding.com/sketch/ns">
    <!-- Generator: Sketch 3.2.2 (9983) - http://www.bohemiancoding.com/sketch -->
    <title>card_powerpay@1x</title>
    <desc>Created with Sketch.</desc>
    <defs></defs>
    <g id="assets-various" stroke="none" stroke-width="1" fill="none" fill-rule="evenodd" sketch:type="MSPage">
        <g id="Artboard-2" sketch:type="MSArtboardGroup" transform="translate(-36.000000, -1708.000000)">
            <g id="card_powerpay" sketch:type="MSLayerGroup" transform="translate(36.000000, 1708.000000)">
                <rect id="Rectangle-11" fill="#FFFFFF" sketch:type="MSShapeGroup" x="0" y="0" width="120" height="80" rx="4"></rect>
                <g id="Imported-Layers-2" transform="translate(11.000000, 32.000000)" sketch:type="MSShapeGroup">
                    <path d="M0.113855422,0.738181818 L4.82349398,0.738181818 C7.62228916,0.738181818 9.3626506,2.41436364 9.3626506,4.95663636 L9.3626506,4.99227273 C9.3626506,7.82281818 7.2126506,9.30109091 4.58493976,9.30109091 L2.2126506,9.30109091 L2.2126506,13.3566364 L0.113855422,13.3566364 L0.113855422,0.738181818 L0.113855422,0.738181818 Z M4.65301205,7.29972727 C6.23975904,7.29972727 7.22951807,6.36236364 7.22951807,5.04636364 L7.22951807,5.01009091 C7.22951807,3.53245455 6.22289157,2.75736364 4.65301205,2.75736364 L2.2126506,2.75736364 L2.2126506,7.29972727 L4.65301205,7.29972727 L4.65301205,7.29972727 Z" id="Fill-1" fill="#DCA126"></path>
                    <path d="M24.4307229,0.738181818 L26.7006024,0.738181818 L29.55,10.094 L32.4849398,0.701909091 L34.2596386,0.701909091 L37.1951807,10.094 L40.0451807,0.738181818 L42.2463855,0.738181818 L38.0993976,13.447 L36.273494,13.447 L33.3385542,4.37945455 L30.403012,13.447 L28.5945783,13.447 L24.4307229,0.738181818" id="Fill-2" fill="#DCA126"></path>
                    <path d="M44.3963855,0.738181818 L53.253012,0.738181818 L53.253012,2.72109091 L46.4951807,2.72109091 L46.4951807,6.00154545 L52.4849398,6.00154545 L52.4849398,7.98445455 L46.4951807,7.98445455 L46.4951807,11.3737273 L53.3379518,11.3737273 L53.3379518,13.3566364 L44.3963855,13.3566364 L44.3963855,0.738181818" id="Fill-3" fill="#DCA126"></path>
                    <path d="M55.8295181,0.738181818 L61.1536145,0.738181818 C62.6554217,0.738181818 63.8325301,1.20718182 64.6006024,2.00009091 C65.2319277,2.68481818 65.5903614,3.62281818 65.5903614,4.72245455 L65.5903614,4.75809091 C65.5903614,6.83136364 64.4126506,8.07545455 62.7572289,8.58009091 L65.9831325,13.3566364 L63.4915663,13.3566364 L60.5560241,8.95872727 L57.9283133,8.95872727 L57.9283133,13.3566364 L55.8295181,13.3566364 L55.8295181,0.738181818 L55.8295181,0.738181818 Z M61,6.99363636 C62.5018072,6.99363636 63.4572289,6.16445455 63.4572289,4.88472727 L63.4572289,4.84845455 C63.4572289,3.49681818 62.5355422,2.75736364 60.9831325,2.75736364 L57.9283133,2.75736364 L57.9283133,6.99363636 L61,6.99363636 L61,6.99363636 Z" id="Fill-4" fill="#DCA126"></path>
                    <path d="M21.163253,1.89763636 L20.0253012,3.51845455 C20.8487952,4.34445455 21.5313253,5.72663636 21.5313253,7.04772727 L21.5313253,7.08336364 C21.5313253,9.53527273 19.6186747,11.7052727 17.2463855,11.7052727 C14.8746988,11.7052727 12.9325301,9.49963636 12.9325301,7.04772727 L12.9325301,7.01209091 C12.9325301,5.68781818 13.5114458,4.42209091 14.3289157,3.605 L13.3090361,1.918 C11.8590361,3.12136364 10.9837349,4.98590909 10.9837349,7.04772727 L10.9837349,7.08336364 C10.9837349,10.6349091 13.5433735,13.5736364 17.2126506,13.5736364 C20.8813253,13.5736364 23.4753012,10.5986364 23.4753012,7.04772727 L23.4753012,7.01209091 C23.4753012,4.94709091 22.6090361,3.09081818 21.163253,1.89763636" id="Fill-5" fill="#DCA126"></path>
                    <path d="M18.1662651,6.29236364 C18.1662651,6.839 17.746988,7.28254545 17.2289157,7.28254545 C16.7120482,7.28254545 16.2921687,6.839 16.2921687,6.29236364 L16.2921687,1.51136364 C16.2921687,0.964727273 16.7120482,0.521818182 17.2289157,0.521818182 C17.746988,0.521818182 18.1662651,0.964727273 18.1662651,1.51136364 L18.1662651,6.29236364" id="Fill-6" fill="#DCA126"></path>
                    <path d="M13.3090361,1.91736364 C13.6506024,1.55654545 14.2024096,1.70354545 14.5963855,2.11972727 C14.9903614,2.53590909 14.6710843,3.24418182 14.3289157,3.605 C13.9873494,3.96581818 13.7379518,3.82836364 13.3439759,3.41218182 C12.95,2.996 12.9674699,2.27818182 13.3090361,1.91736364" id="Fill-7" fill="#DCA126"></path>
                    <path d="M21.163253,1.89763636 C20.8216867,1.53681818 20.2481928,1.70418182 19.8542169,2.12036364 C19.4596386,2.53654545 19.6831325,3.157 20.0253012,3.51845455 C20.3668675,3.87990909 20.7120482,3.829 21.1060241,3.41154545 C21.5,2.99663636 21.5048193,2.25781818 21.163253,1.89763636" id="Fill-8" fill="#DCA126"></path>
                    <path d="M67.6373494,0.612181818 L72.3463855,0.612181818 C75.1439759,0.612181818 76.8843373,2.28836364 76.8843373,4.82936364 L76.8843373,4.86563636 C76.8843373,7.69490909 74.7349398,9.17254545 72.1072289,9.17254545 L69.7361446,9.17254545 L69.7361446,13.2274545 L67.6373494,13.2274545 L67.6373494,0.612181818 L67.6373494,0.612181818 Z M72.1753012,7.17181818 C73.7620482,7.17181818 74.7518072,6.23509091 74.7518072,4.91909091 L74.7518072,4.88345455 C74.7518072,3.40581818 73.7451807,2.63072727 72.1753012,2.63072727 L69.7361446,2.63072727 L69.7361446,7.17181818 L72.1753012,7.17181818 L72.1753012,7.17181818 Z" id="Fill-9" fill="#467BA8"></path>
                    <path d="M82.0728916,0.521818182 L84.0180723,0.521818182 L89.2722892,13.2274545 L87.0548193,13.2274545 L85.8433735,10.1818182 L80.1963855,10.1818182 L78.9680723,13.2274545 L76.8186747,13.2274545 L82.0728916,0.521818182 L82.0728916,0.521818182 Z M85.0759036,8.21736364 L83.0114458,3.171 L80.9638554,8.21736364 L85.0759036,8.21736364 L85.0759036,8.21736364 Z" id="Fill-10" fill="#467BA8"></path>
                    <path d="M92.9777108,8.25363636 L88.2349398,0.612181818 L90.7253012,0.612181818 L94.0524096,6.181 L97.4301205,0.612181818 L99.8361446,0.612181818 L95.0927711,8.19954545 L95.0927711,13.2274545 L92.9777108,13.2274545 L92.9777108,8.25363636" id="Fill-11" fill="#467BA8"></path>
                </g>
            </g>
        </g>
    </g>
</svg>