<?xml version="1.0" encoding="UTF-8"?>
<svg width="140px" height="80px" viewBox="0 0 140 80" version="1.1" xmlns="http://www.w3.org/2000/svg" xmlns:xlink="http://www.w3.org/1999/xlink" style="background: #FFFFFF;">
    <title>im/logo-pay/reka</title>
    <g id="im/logo-pay/reka" stroke="none" stroke-width="1" fill="none" fill-rule="evenodd">
        <rect fill="#FFFFFF" x="0" y="0" width="140" height="80"></rect>
        <g id="Group-9" transform="translate(16.000000, 21.000000)">
            <path d="M19.0371493,11 C16.2772864,11 13.5882772,11.9857047 11.889314,15.5796015 L12.0302594,11.9857047 L3.6085826,11.9857047 L0,37 L8.70432939,37 L10.1899699,26.8547131 C11.0402133,21.0064766 14.0118752,19.0320331 16.5599391,19.0320331 C17.9747259,19.0320331 19.0371493,19.5956181 19.5327437,19.8785483 L23,12.3384193 C22.4339329,11.8453774 20.8069661,11 19.0371493,11" id="Fill-1" fill="#153D8A"></path>
            <path d="M69.6641473,37 L79.5465624,37 L71.9063093,22.8340408 C76.6735918,20.2264087 80.1773709,15.9970677 82,11.9801612 L72.678597,11.9801612 C70.5748959,15.7159715 66.7194939,19.3110441 62.7244992,21.4247662 L65.7393262,0 L57.1883245,0 L52,37 L60.5525108,37 L62.4449363,23.6090469 L69.6641473,37 Z" id="Fill-3" fill="#DC0C23"></path>
            <path d="M37.9158641,11 C28.2368392,11 22,17.625087 22,26.245331 C22,32.7281533 26.3008027,38 35.2632201,38 C40.7830658,38 44.7261436,36.2203491 47.4521077,34.1546349 L43.3643192,29.2382582 C42.3613775,30.0926134 40.2825597,31.5171777 36.8399881,31.5171777 C33.6135178,31.5171777 31.3201423,29.4510801 30.9608738,26.1030663 L48.383273,26.1030663 C51.1076935,14.1351919 44.2970281,11 37.9158641,11 M40.4967316,21.9006973 L31.3201423,21.9006973 C32.1085263,18.7655054 34.2587347,16.4850521 37.0560894,16.4850521 C40.7116752,16.4850521 40.7830658,19.4066552 40.4967316,21.9006973" id="Fill-5" fill="#153D8A"></path>
            <path d="M96.724426,11 C91.5781034,11 86.9322939,12.6377697 84.073867,15.7016375 L88.4326795,20.1187457 C90.5051353,17.9820909 92.7934157,16.9129965 95.3663847,16.9129965 C98.5829806,16.9129965 99.440124,18.7655054 99.297395,21.8293733 L96.0100117,21.8293733 C86.1463227,21.8293733 81,24.9626479 81,31.019443 C81,34.8667254 84.3589402,38 88.7908485,38 C93.293929,38 95.866898,36.0780844 97.3676683,34.4387809 L97.3676683,37.2879096 L105.659415,37.2879096 L107.803043,22.5418472 C108.947183,14.5612191 105.087345,11 96.724426,11 M92.8645879,32.4440073 C90.72096,32.4440073 89.861893,31.374913 89.861893,29.7371433 C89.861893,26.3891295 93.9371712,26.0321257 98.6541528,26.0321257 C97.7970094,29.5948786 96.0100117,32.4440073 92.8645879,32.4440073" id="Fill-7" fill="#DC0C23"></path>
        </g>
    </g>
</svg>