<?xml version="1.0" encoding="UTF-8"?>
<svg width="120px" height="80px" viewBox="0 0 120 80" version="1.1" xmlns="http://www.w3.org/2000/svg" xmlns:xlink="http://www.w3.org/1999/xlink">
    <title>card_reka</title>
    <g id="export-badges" stroke="none" stroke-width="1" fill="none" fill-rule="evenodd">
        <g id="production" transform="translate(-45.000000, -8656.000000)">
            <g id="card_reka" transform="translate(45.000000, 8656.000000)">
                <rect id="Rectangle-11" fill="#FFFFFF" x="0" y="0" width="120" height="80" rx="4"></rect>
                <path d="M31.5540429,32 C29.1541621,32 26.8158932,32.8593323 25.3385339,35.9924731 L25.4610951,32.8593323 L18.1378979,32.8593323 L15,54.6666667 L22.5689821,54.6666667 L23.8608434,45.8220576 C24.6001855,40.723595 27.1842393,39.0022853 29.399947,39.0022853 C30.6301964,39.0022853 31.5540429,39.4936157 31.9849945,39.7402729 L35,33.1668271 C34.5077677,32.7369957 33.093014,32 31.5540429,32" id="Fill-1" fill="#153D8A"></path>
                <path d="M72.5830577,54.6666667 L80.9282082,54.6666667 L74.476439,42.9255113 C78.5021442,40.7642306 81.460891,37.2588309 83,33.929503 L75.128593,33.929503 C73.3521343,37.0258503 70.0964616,40.0055501 66.7229104,41.7574639 L69.2687643,24 L62.0479185,24 L57.6666667,54.6666667 L64.8887869,54.6666667 L66.4868351,43.5678587 L72.5830577,54.6666667 Z" id="Fill-3" fill="#DC0C23"></path>
                <path d="M47.0281328,33.3333333 C38.9025317,33.3333333 33.6666667,38.8951348 33.6666667,46.1318828 C33.6666667,51.5742521 37.2772171,56 44.8012218,56 C49.4351664,56 52.7454045,54.5059721 55.0338682,52.7717923 L51.6021445,48.6444637 C50.7601687,49.3617001 49.0149884,50.5576307 46.1249283,50.5576307 C43.4162866,50.5576307 41.4909837,48.823129 41.1893755,46.0124507 L55.8155872,46.0124507 C58.102755,35.9653463 52.3851594,33.3333333 47.0281328,33.3333333 M49.194787,42.484536 L41.4909837,42.484536 C42.1528369,39.852523 43.9579501,37.9380684 46.3063467,37.9380684 C49.3752335,37.9380684 49.4351664,40.3907723 49.194787,42.484536" id="Fill-5" fill="#153D8A"></path>
                <path d="M96.2007527,33.3333333 C91.8803831,33.3333333 87.9801974,34.7082511 85.5805303,37.2803871 L89.2397804,40.9885766 C90.9796197,39.1948417 92.9006453,38.2973304 95.0606686,38.2973304 C97.7610208,38.2973304 98.4805979,39.852523 98.3607761,42.424659 L95.6009974,42.424659 C87.3203697,42.424659 83,45.0550624 83,50.1397793 C83,53.3695966 85.8198511,56 89.5404654,56 C93.3208293,56 95.4808526,54.38654 96.7407586,53.0103346 L96.7407586,55.4021957 L103.701731,55.4021957 L105.50132,43.0227853 C106.461833,36.3229988 103.221475,33.3333333 96.2007527,33.3333333 M92.9603947,51.3357099 C91.1608059,51.3357099 90.4396139,50.4381986 90.4396139,49.0632808 C90.4396139,46.2526026 93.8608351,45.9528956 97.8207702,45.9528956 C97.1011931,48.9438487 95.6009974,51.3357099 92.9603947,51.3357099" id="Fill-7" fill="#DC0C23"></path>
            </g>
        </g>
    </g>
</svg>