<?xml version="1.0" encoding="UTF-8" standalone="no"?>
<svg width="120px" height="80px" viewBox="0 0 120 80" version="1.1" xmlns="http://www.w3.org/2000/svg" xmlns:xlink="http://www.w3.org/1999/xlink" xmlns:sketch="http://www.bohemiancoding.com/sketch/ns">
    <!-- Generator: Sketch 3.2.2 (9983) - http://www.bohemiancoding.com/sketch -->
    <title>reka</title>
    <desc>Created with Sketch.</desc>
    <defs></defs>
    <g id="assets-various" stroke="none" stroke-width="1" fill="none" fill-rule="evenodd" sketch:type="MSPage">
        <g id="Artboard-2" sketch:type="MSArtboardGroup" transform="translate(-36.000000, -1286.000000)">
            <g id="reka" sketch:type="MSLayerGroup" transform="translate(36.000000, 1286.000000)">
                <rect id="Rectangle-11" fill="#FFFFFF" sketch:type="MSShapeGroup" x="0" y="0" width="120" height="80" rx="4"></rect>
                <path d="M59.2862772,32.76775 L59.3464239,32.70615 L53.0540217,32.70615 L47.1513261,38.97945 L49.1358913,26.247775 L43.4055978,26.247775 L40.0961413,47.472275 L40.0903207,47.515175 L45.8206141,47.515175 L47.0473859,39.6444 L50.9308696,47.493175 L50.9405707,47.515175 L57.7465761,47.515175 L53.2430543,38.973675 L59.2862772,32.76775 L59.2862772,32.76775 Z M32.8208804,35.7702 C32.4502989,35.3819 31.8937337,35.185275 31.1661522,35.185275 C29.5463478,35.185275 28.4750707,36.198375 27.9817011,38.195975 L33.3644185,38.195975 C33.4084891,37.659725 33.4933043,36.473925 32.8208804,35.7702 L32.8208804,35.7702 Z M38.2817609,35.9616 C38.7321685,37.181225 38.7341087,38.512225 38.2897989,41.23335 L38.2853641,41.262775 L27.4182065,41.262775 L27.4123859,41.312825 C27.3317283,41.904625 27.1438043,43.142675 27.8946685,43.966575 C28.2915815,44.400525 28.9016413,44.62135 29.707663,44.62135 C31.2007989,44.62135 32.2651467,44.0004 32.6276902,42.654275 L32.633788,42.6287 L37.9946087,42.6287 L37.9813043,42.676 C37.500962,44.41895 36.3944837,45.757925 34.69125,46.652225 C33.2177935,47.427725 31.3263587,47.838025 29.2237174,47.838025 C26.5179457,47.838025 24.5497337,47.1662 23.3722989,45.840425 C22.240875,44.566625 21.8650272,42.7145 22.2563967,40.33905 C22.6522011,37.79035 23.6228641,35.7933 25.1406685,34.40345 C26.7535435,32.926975 28.9448804,32.1776 31.6534239,32.1776 C35.3123967,32.1776 37.4191957,33.380725 38.2817609,35.9616 L38.2817609,35.9616 Z M69.5616685,40.5585 C67.192663,40.58765 64.9633533,40.626975 64.6479293,42.701025 C64.5559076,43.275225 64.6737065,43.784525 64.9808152,44.1335 C65.2785,44.474775 65.7472011,44.654625 66.3337011,44.654625 C66.6893152,44.654625 67.9127609,44.5537 68.721,43.261475 C69.337712,42.293475 69.5128859,41.077975 69.5616685,40.5585 L69.5616685,40.5585 Z M75.308038,37.799425 L74.2253967,44.6692 C74.0809891,45.71475 74.0236141,46.078575 73.954875,47.4797 L73.9554293,47.515175 L68.5995978,47.515175 L68.5976576,47.47915 C68.5693859,46.9979 68.6738804,46.414075 68.7925109,45.484575 C67.7974565,46.651125 66.3855326,47.80915 63.5738804,47.80915 C61.802462,47.80915 60.5058424,47.356775 59.7219946,46.464675 C59.0251793,45.67075 58.7687935,44.536925 58.9819402,43.185575 C59.5351793,39.6301 62.6969022,37.90145 68.6483804,37.90145 C69.0863152,37.90145 69.5455924,37.91135 70.0148478,37.93115 C70.1733913,36.9681 70.2659674,35.917875 69.7883967,35.368975 C69.543375,35.0871 69.1702989,34.9507 68.6483804,34.9507 C68.0458043,34.9507 66.6161413,35.164375 66.3445109,37.1518 L66.3400761,37.182325 L60.9074674,37.182325 L60.9396196,37.025025 C61.0823641,36.314975 61.3207337,35.12725 62.5608098,34.03605 C63.9073207,32.871975 66.3445109,32.1776 69.0804946,32.1776 C70.577788,32.1776 73.2846685,32.40035 74.5957011,33.8936 C75.3595924,34.734825 75.5993478,36.0485 75.308038,37.799425 L75.308038,37.799425 Z M22.6857391,32.5901 L21.652712,37.229625 L20.4628043,37.229625 C17.9158533,37.229625 16.3755978,38.465475 15.8927609,41.075775 L14.7544076,47.515175 L9.11558152,47.515175 L9.12361957,47.472275 C9.12361957,47.472275 10.9324565,37.2882 11.1580761,35.876075 C11.3828641,34.46395 11.5527717,32.70615 11.5527717,32.70615 L16.9332717,32.70615 C16.9332717,32.70615 16.9052772,33.176125 16.8628696,33.763525 C16.8224022,34.32975 16.669125,35.6096 16.669125,35.6096 C18.2570543,32.900025 20.4370272,32.581575 21.9501196,32.581575 C22.1130978,32.581575 22.2641576,32.58515 22.3988641,32.58845 L22.6857391,32.5901 L22.6857391,32.5901 Z" id="Fill-1" fill="#043D80" sketch:type="MSShapeGroup"></path>
                <path d="M79.8074022,37.4422 L84.8458696,37.4422 L85.595625,32.711375 L80.5430217,32.711375 L79.8074022,37.4422" id="Fill-2" fill="#DE0722" sketch:type="MSShapeGroup"></path>
                <path d="M110.777152,32.711375 L91.312337,32.711375 L90.5739457,37.4422 L95.8845978,37.4422 L95.0564022,42.734575 L89.7471359,42.734575 L89.0001522,47.514075 L108.466076,47.514075 L110.777152,32.711375" id="Fill-3" fill="#DE0722" sketch:type="MSShapeGroup"></path>
                <path d="M78.2319457,47.514075 L83.2709674,47.514075 L84.0173967,42.734575 L78.9786522,42.734575 L78.2319457,47.514075" id="Fill-4" fill="#DE0722" sketch:type="MSShapeGroup"></path>
            </g>
        </g>
    </g>
</svg>