<?xml version="1.0" encoding="UTF-8"?>
<svg width="120px" height="80px" viewBox="0 0 120 80" version="1.1" xmlns="http://www.w3.org/2000/svg" xmlns:xlink="http://www.w3.org/1999/xlink">
    <!-- Generator: Sketch 49.3 (51167) - http://www.bohemiancoding.com/sketch -->
    <title>card_samsung_pay</title>
    <desc>Created with Sketch.</desc>
    <defs></defs>
    <g id="export-badges" stroke="none" stroke-width="1" fill="none" fill-rule="evenodd">
        <g id="production-final" transform="translate(-36.000000, -5916.000000)">
            <g id="card_samsung_pay" transform="translate(36.000000, 5916.000000)">
                <rect id="Rectangle-11" fill="#1428A0" x="0" y="0" width="120" height="80" rx="4"></rect>
                <g id="Page-1" transform="translate(19.000000, 24.000000)" fill="#FFFFFF">
                    <path d="M28.4653353,29.1938638 C27.7514529,29.9190979 26.8084529,30.3920766 25.6508059,30.3920766 C24.5068255,30.3920766 23.5244333,30.0937362 22.728551,29.243183 C21.9350804,28.3958638 21.631198,27.1459064 21.631198,25.8587574 C21.631198,24.6532681 21.9431196,23.4453532 22.7550804,22.596417 C23.5501588,21.7782043 24.5164725,21.4313532 25.6266882,21.4313532 C26.8164922,21.4313532 27.8053157,21.9002894 28.4910608,22.6287574 C29.2869431,23.4752681 29.677649,24.6621617 29.677649,25.9978213 C29.677649,27.2227149 29.288551,28.3578638 28.4653353,29.1938638 M25.7223549,18.7511404 C25.0470608,18.7511404 24.3773941,18.8586723 23.7350608,19.0729277 C23.0903157,19.2879915 22.2727275,19.7722894 21.8514725,20.4482043 L21.8514725,19.0567574 L18.8118451,19.0567574 L18.8118451,37.9734809 L21.805649,37.9734809 L21.805649,31.4196936 C22.1400804,32.0002043 23.0710216,32.5330128 23.7350608,32.7505021 C24.4103549,32.9801191 25.1274529,33.0973532 25.8638451,33.0973532 C26.8808059,33.0973532 27.6557863,32.9178638 28.4846294,32.5645447 C29.3142765,32.210417 30.0715706,31.6808426 30.7348059,30.9855234 C31.3634725,30.3419489 31.8530608,29.5690128 32.1931196,28.6877362 C32.547649,27.8105021 32.7269235,26.8960766 32.7269235,25.9711404 C32.7269235,23.9514809 32.0138451,22.2439064 30.6640608,20.8379064 C29.2049431,19.3195234 27.4073745,18.7511404 25.7223549,18.7511404" id="Fill-4"></path>
                    <polygon id="Fill-6" points="57.6624804 28.7769957 53.4724412 19.0578894 50.265598 19.0578894 56.1575392 32.0053787 53.5890098 37.9738043 56.7395784 37.9738043 64.7474412 19.0578894 61.5237157 19.0578894"></polygon>
                    <path d="M44.5147451,29.2435872 C43.7188627,30.0941404 42.7372745,30.3932894 41.594098,30.3932894 C40.4340392,30.3932894 39.4918431,29.9178851 38.7771569,29.1950766 C37.9563529,28.3582681 37.5648431,27.2206936 37.5648431,25.9966085 C37.5648431,24.662566 37.9563529,23.4756723 38.7538431,22.6275447 C39.4403922,21.9006936 40.4268039,21.4317574 41.6166078,21.4317574 C42.7268235,21.4317574 43.6939412,21.7786085 44.4866078,22.5960128 C45.2993725,23.4457574 45.6137059,24.6528638 45.6137059,25.8583532 C45.6137059,27.1446936 45.3074118,28.3954596 44.5147451,29.2435872 Z M45.3918235,20.4469915 C44.9705686,19.7718851 44.1521765,19.2883957 43.5098431,19.0749489 C42.8675098,18.8598851 42.1978431,18.7507362 41.522549,18.7507362 C39.8383333,18.7507362 38.0391569,19.3199277 36.5784314,20.8383106 C35.2302549,22.2443106 34.5163725,23.9518851 34.5163725,25.9715447 C34.5163725,26.8972894 34.6972549,27.8109064 35.0509804,28.6881404 C35.3886275,29.5686085 35.8806275,30.3399277 36.510098,30.9851191 C37.1733333,31.6812468 37.9298235,32.2108213 38.7586667,32.5657574 C39.5875098,32.9182681 40.3624902,33.0977574 41.379451,33.0977574 C42.117451,33.0977574 42.8329412,32.9813319 43.5082353,32.7517149 C44.1714706,32.533417 45.1032157,32.0006085 45.4368431,31.4176723 L45.4368431,32.8455021 L48.431451,32.8455021 L48.431451,19.0579702 L45.3918235,19.0579702 L45.3918235,20.4469915 Z" id="Fill-8"></path>
                    <polygon id="Fill-10" points="67.7955098 10.1852128 67.7344118 10.1852128 65.0509216 1.0223617 60.7258235 1.0223617 60.7258235 12.5792128 63.5901961 12.5792128 63.427 3.09457447 63.5001569 3.09457447 66.3749804 12.5792128 70.5280392 12.5792128 70.5280392 1.0223617 67.639549 1.0223617"></polygon>
                    <polygon id="Fill-12" points="17.9476294 1.02308936 12.7542961 1.02308936 10.5973745 12.6907064 13.7439235 12.6907064 15.3397078 2.0976 15.4072373 2.0976 16.9620216 12.6907064 20.1021392 12.6907064"></polygon>
                    <polygon id="Fill-14" points="25.4082627 2.19478298 25.4733804 2.19478298 27.4285176 12.6900596 30.3821255 12.6900596 32.3284196 2.19478298 32.3871059 2.19478298 32.4658902 12.6900596 35.3849294 12.6900596 35.1260667 1.02325106 30.3732824 1.02325106 28.9310471 9.94516596 28.869949 9.94516596 27.4397725 1.02325106 22.6837725 1.02325106 22.4216941 12.6900596 25.3351059 12.6900596"></polygon>
                    <path d="M57.4465471,10.1583702 C57.4586059,10.0419447 57.4843314,9.60454043 57.4843314,9.38543404 L57.4843314,1.02139149 L54.5259,1.02139149 L54.5259,9.65305106 C54.5259,9.80505106 54.5226843,9.97322128 54.4993706,10.0993489 C54.4414882,10.3839447 54.1914686,10.9361574 53.3779,10.9361574 C52.568351,10.9361574 52.3159196,10.3839447 52.2596451,10.0993489 C52.2443706,9.97322128 52.2282922,9.80505106 52.2387431,9.65305106 L52.2387431,1.02139149 L49.2867142,1.02139149 L49.2867431,9.38543404 C49.2859392,9.60454043 49.3020176,10.0419447 49.3156843,10.1583702 C49.5150569,12.3348809 51.2314294,13.0366681 53.3779,13.0366681 C55.520351,13.0366681 57.2487824,12.3348809 57.4465471,10.1583702" id="Fill-16"></path>
                    <path d="M3.37421961,4.02735319 C3.3179451,3.78560851 3.33080784,3.54709787 3.36216078,3.41692766 C3.44576863,3.03611915 3.70061176,2.62862979 4.42735686,2.62862979 C5.11390588,2.62862979 5.5134549,3.05714043 5.5134549,3.68292766 L5.5134549,4.41139574 L8.42043529,4.41139574 L8.42043529,3.58994894 C8.42043529,1.04637447 6.13810196,0.647778723 4.48523922,0.647778723 C2.41755294,0.647778723 0.726101961,1.33905532 0.410964706,3.2455234 C0.332984314,3.75731064 0.321729412,4.22301277 0.438298039,4.8108 C0.942356863,7.20237447 5.09139608,7.8888 5.68790588,9.39586383 C5.8004549,9.68045957 5.76588627,10.0410553 5.71282745,10.2609702 C5.61796471,10.6490553 5.35749412,11.0476511 4.57527843,11.0476511 C3.84853333,11.0476511 3.40798431,10.6239915 3.40798431,9.98769362 L3.39914118,8.85658723 L0.275905882,8.85658723 L0.275905882,9.75484255 C0.275905882,12.3614809 2.31867059,13.1433106 4.5069451,13.1433106 C6.62447451,13.1433106 8.35531765,12.4285872 8.63106275,10.4816936 C8.77737647,9.4694383 8.67125882,8.81050213 8.62463137,8.56309787 C8.13182745,6.11250213 3.70463137,5.3961617 3.37421961,4.02735319" id="Fill-18"></path>
                    <path d="M42.4295333,13.0844511 C44.5108863,13.0844511 46.2304745,12.3737702 46.5070235,10.4422383 C46.6477098,9.44857872 46.5448078,8.7928766 46.4909451,8.5422383 C46.0045725,6.12802553 41.6264157,5.41006809 41.3072588,4.05015319 C41.2485725,3.82215319 41.2638471,3.57879149 41.2895725,3.4502383 C41.3715725,3.08155745 41.6215922,2.67245106 42.3419059,2.67245106 C43.0260431,2.67245106 43.4191608,3.09206809 43.4191608,3.71300426 L43.4191608,4.4309617 L46.2931804,4.4309617 L46.2931804,3.6248766 C46.2931804,1.1096 44.0373765,0.714238298 42.4078275,0.714238298 C40.3562196,0.714238298 38.6728078,1.38449362 38.3729451,3.28045106 C38.2804941,3.78657872 38.2700431,4.24742979 38.3978667,4.83683404 C38.897102,7.20334468 42.9979059,7.87925957 43.5912,9.38066383 C43.7109843,9.65717447 43.6611412,10.0137277 43.6169255,10.2336426 C43.5236706,10.6168766 43.2567686,11.0025362 42.4906314,11.0025362 C41.7679059,11.0025362 41.3329843,10.5918128 41.3329843,9.95874894 L41.3329843,8.83572766 L38.2322588,8.83572766 L38.2322588,9.73074894 C38.2322588,12.3131319 40.2573373,13.0844511 42.4295333,13.0844511" id="Fill-20"></path>
                    <path d="M77.7165451,6.1295617 L77.7165451,7.84360426 L78.9095647,7.84360426 L78.9095647,9.53015745 C78.9103686,9.68054043 78.9023294,9.84466809 78.8806235,9.97322128 C78.8291725,10.2942 78.5341333,10.8205404 77.6932314,10.8205404 C76.8475059,10.8205404 76.5556824,10.2942 76.4953882,9.97322128 C76.4809176,9.84466809 76.4744863,9.68054043 76.4744863,9.53015745 L76.4744863,4.19237021 C76.4744863,4.00560426 76.4809176,3.79296596 76.517898,3.64258298 C76.5870353,3.35717872 76.8402706,2.79768936 77.676349,2.79768936 C78.568702,2.79768936 78.7913882,3.38871064 78.8436431,3.64258298 C78.8806235,3.80671064 78.8806235,4.08564681 78.8806235,4.08564681 L78.8806235,4.73811489 L81.8197608,4.73811489 L81.817349,4.35730638 C81.817349,4.35730638 81.8334275,3.95305106 81.7908196,3.59002979 C81.5842118,1.39168936 79.767349,0.707689362 77.6980549,0.707689362 C75.6351922,0.707689362 73.8729961,1.39734894 73.6181529,3.59002979 C73.5916235,3.77679574 73.5675059,4.1454766 73.5675059,4.35730638 L73.5675059,9.26658298 C73.5675059,9.48488085 73.5691137,9.64658298 73.6109176,10.0346681 C73.8030549,12.1513489 75.6351922,12.9153915 77.6980549,12.9153915 C79.767349,12.9153915 81.6099373,12.1513489 81.8044863,10.0346681 C81.8334275,9.64658298 81.8422706,9.48488085 81.8422706,9.26658298 L81.8422706,6.1295617 L77.7165451,6.1295617 Z" id="Fill-22"></path>
                </g>
            </g>
        </g>
    </g>
</svg>