<svg width="120" height="80" viewBox="0 0 120 80" fill="none" xmlns="http://www.w3.org/2000/svg">
<path d="M116 0H4C1.79086 0 0 1.79086 0 4V76C0 78.2091 1.79086 80 4 80H116C118.209 80 120 78.2091 120 76V4C120 1.79086 118.209 0 116 0Z" fill="white"/>
<path fill-rule="evenodd" clip-rule="evenodd" d="M41.8643 56.5219L38.457 48.2864H35.4471L40.464 59.9083L37.8925 66.1581H40.7567L48.0516 48.2864H45.0833L41.8643 56.5219Z" fill="black"/>
<path fill-rule="evenodd" clip-rule="evenodd" d="M27.5649 48.0354C29.1741 48.0354 30.6166 48.7046 31.4944 49.7497V48.2865H34.3163V60.5145H31.4944V58.9262C30.5957 60.0544 29.1325 60.7652 27.523 60.7652C24.5757 60.7652 21.5033 58.4033 21.5033 54.411C21.5033 50.356 24.4712 48.0354 27.5649 48.0354ZM27.9827 50.6068C25.8925 50.6068 24.2833 52.2583 24.2833 54.3694C24.2833 56.5011 25.8925 58.1732 27.9827 58.1732C30.0728 58.1732 31.6408 56.4802 31.6408 54.3694C31.6408 52.2998 30.0728 50.6068 27.9827 50.6068Z" fill="black"/>
<path fill-rule="evenodd" clip-rule="evenodd" d="M15.2513 45.2559C18.4075 45.2559 20.7488 47.6803 20.7488 50.6902C20.7488 53.7213 18.4075 56.146 15.2304 56.146H12.8685V60.5143H10.0256V45.2559H15.2513ZM15.0425 47.8892H12.8685V53.5121H15.0425C16.7355 53.5121 17.885 52.2581 17.885 50.6902C17.885 49.1435 16.7355 47.8892 15.0425 47.8892Z" fill="black"/>
<path fill-rule="evenodd" clip-rule="evenodd" d="M104.813 28.0288V30.1097H106.276V32.1824C106.278 32.3634 106.271 32.5631 106.242 32.724C106.177 33.1056 105.817 33.7599 104.783 33.7599C103.751 33.7599 103.39 33.1056 103.323 32.724C103.296 32.5631 103.29 32.3634 103.29 32.1828V25.6577C103.29 25.4253 103.307 25.1704 103.348 24.9824C103.427 24.6301 103.732 23.9466 104.77 23.9466C105.861 23.9466 106.133 24.6678 106.197 24.9824C106.24 25.1878 106.243 25.5272 106.242 25.5262V26.3259H109.841V25.8504C109.839 25.8504 109.854 25.3653 109.809 24.9107C109.545 22.2345 107.33 21.3843 104.799 21.3843C102.267 21.3843 100.107 22.2428 99.7886 24.9107C99.7593 25.1491 99.7289 25.5967 99.7289 25.8504L99.7276 31.8548C99.7289 32.1237 99.7359 32.3199 99.7768 32.7945C100.015 35.3945 102.267 36.3224 104.797 36.3224C107.327 36.3224 109.581 35.3945 109.817 32.7945C109.86 32.3199 109.866 32.1237 109.868 31.8548V28.0288H104.813Z" fill="black"/>
<path fill-rule="evenodd" clip-rule="evenodd" d="M92.6627 32.9759H92.584L89.304 21.7724H84.0062V35.8978H87.5167L87.3192 24.3076H87.398L90.9211 35.8978H96.0037V21.7724H92.4691L92.6627 32.9759Z" fill="black"/>
<path fill-rule="evenodd" clip-rule="evenodd" d="M80.0286 21.7698H76.4162V32.3285C76.4175 32.512 76.4127 32.7196 76.3822 32.8736C76.3118 33.2247 76.0064 33.9082 75.014 33.9082C74.0203 33.9082 73.714 33.2247 73.6445 32.8736C73.614 32.7196 73.607 32.512 73.6105 32.3285V21.7698H70.0003V32.0035C69.9934 32.2663 70.0203 32.8031 70.0334 32.9428C70.2835 35.6063 72.3892 36.4695 75.014 36.4695C77.6375 36.4695 79.7432 35.6063 79.9921 32.9428C80.0064 32.8031 80.0334 32.2663 80.0286 32.0035V21.7698Z" fill="black"/>
<path fill-rule="evenodd" clip-rule="evenodd" d="M60.2278 25.4853C60.1586 25.1999 60.176 24.9027 60.21 24.7443C60.3113 24.291 60.6189 23.7954 61.5008 23.7954C62.331 23.7954 62.8151 24.304 62.8151 25.0754V25.9494H66.3418V24.9558C66.3418 21.8777 63.576 21.3973 61.576 21.3973C59.0662 21.3973 57.0113 22.2275 56.6376 24.5329C56.5345 25.1634 56.5202 25.7272 56.6707 26.4377C57.2814 29.3278 62.304 30.1618 63.0322 31.9913C63.1684 32.3342 63.1262 32.77 63.0592 33.0364C62.944 33.5062 62.6246 33.9853 61.6827 33.9853C60.7986 33.9853 60.2618 33.4758 60.2618 32.7043L60.2595 31.3361H56.4697L56.4688 32.4259C56.4688 35.578 58.95 36.5291 61.6053 36.5291C64.1621 36.5291 66.264 35.6577 66.6002 33.2986C66.7716 32.0796 66.6459 31.2808 66.5846 30.9815C65.9872 28.0218 60.6259 27.1399 60.2278 25.4853Z" fill="black"/>
<path fill-rule="evenodd" clip-rule="evenodd" d="M46.8471 21.7723L45.0868 32.6859H45.0055L43.2477 21.7723H37.4261L37.1115 36.0447H40.6839L40.7731 23.2145H40.8518L43.236 36.0447H46.8575L49.2429 23.2155L49.3214 23.2145L49.4109 36.0447H52.9807L52.6661 21.7723H46.8471Z" fill="black"/>
<path fill-rule="evenodd" clip-rule="evenodd" d="M28.445 23.0946L28.525 23.0934L30.4272 36.0445H34.2618L31.631 21.7724H25.2812L22.6354 36.0445H26.4932L28.445 23.0946Z" fill="black"/>
<path fill-rule="evenodd" clip-rule="evenodd" d="M15.1872 36.6032C17.7698 36.6032 19.893 35.7226 20.2323 33.3398C20.4063 32.1077 20.278 31.301 20.2171 31.0004C19.6145 28.0115 14.1996 27.1201 13.7955 25.449C13.7276 25.1588 13.7441 24.8582 13.7803 24.6985C13.8812 24.2407 14.1914 23.7404 15.0837 23.7404C15.9199 23.7404 16.4098 24.2559 16.4098 25.0334V25.9175H19.9717V24.9125C19.9717 21.8039 17.179 21.3175 15.159 21.3175C12.6225 21.3175 10.5472 22.1585 10.1691 24.4861C10.0657 25.1226 10.0517 25.6921 10.2022 26.4109C10.8209 29.328 15.893 30.1712 16.6282 32.0185C16.7679 32.3636 16.7234 32.8064 16.6564 33.074C16.5403 33.5499 16.2171 34.0347 15.266 34.0347C14.3733 34.0347 13.832 33.5182 13.832 32.7407L13.8285 31.3572H10.0012L9.99994 32.4575C9.99994 35.6413 12.505 36.6032 15.1872 36.6032Z" fill="black"/>
</svg>
