<?xml version="1.0" encoding="UTF-8" standalone="no"?>
<svg width="120px" height="80px" viewBox="0 0 120 80" version="1.1" xmlns="http://www.w3.org/2000/svg" xmlns:xlink="http://www.w3.org/1999/xlink" xmlns:sketch="http://www.bohemiancoding.com/sketch/ns">
    <!-- Generator: Sketch 3.2.2 (9983) - http://www.bohemiancoding.com/sketch -->
    <title>card_skrill</title>
    <desc>Created with Sketch.</desc>
    <defs></defs>
    <g id="assets-various" stroke="none" stroke-width="1" fill="none" fill-rule="evenodd" sketch:type="MSPage">
        <g id="Artboard-2" sketch:type="MSArtboardGroup" transform="translate(-36.000000, -1071.000000)">
            <g id="card_skrill" sketch:type="MSLayerGroup" transform="translate(36.000000, 1071.000000)">
                <rect id="Rectangle-11" fill="#FFFFFF" sketch:type="MSShapeGroup" x="0" y="0" width="120" height="80" rx="4"></rect>
                <path d="M76.062365,32.0784771 C77.8864596,32.0784771 79.3649662,30.6147144 79.3649662,28.8093484 C79.3649662,27.0036309 77.8864596,25.5384624 76.062365,25.5384624 C74.2403993,25.5384624 72.7626024,27.0036309 72.7626024,28.8093484 C72.7626024,30.6147144 74.2403993,32.0784771 76.062365,32.0784771 L76.062365,32.0784771 L76.062365,32.0784771 Z M50.7684425,33.8434271 C50.6197758,34.2145516 49.5471755,37.2155289 46.9531363,40.3258051 L46.9531363,27.0264748 L40.0413754,28.3798842 L40.0413754,52.4854037 L46.9531363,52.4854037 L46.9531363,45.0340956 C48.9549923,48.0080117 49.9435018,52.4854037 49.9435018,52.4854037 L58.2223579,52.4854037 C57.4034491,49.1136534 53.8212552,42.895561 53.8212552,42.895561 C57.0362175,38.8581764 58.4483739,34.5565063 58.6729707,33.8434271 L50.7684425,33.8434271 L50.7684425,33.8434271 Z M68.9394903,33.5921449 C62.7487098,33.7889533 59.6061294,36.5400542 59.6061294,42.0088687 L59.6061294,52.4854037 L66.3599984,52.4854037 L66.3599984,43.9421602 C66.3599984,40.6670569 66.7928705,39.263391 70.7160399,39.1298424 L70.7160399,33.688089 C70.0557326,33.5492688 68.9394903,33.5921449 68.9394903,33.5921449 L68.9394903,33.5921449 L68.9394903,33.5921449 Z M28.4496285,36.4978809 C27.6030442,36.4427043 25.6430562,36.3175903 25.6430562,34.5698611 C25.6430562,32.4608478 28.4648855,32.4608478 29.5232932,32.4608478 C31.3842884,32.4608478 33.7945344,33.005234 35.5157331,33.5151787 C35.5157331,33.5151787 36.4758576,33.850456 37.2926376,34.1941679 L37.3689224,34.2145516 L37.3689224,28.4385753 L37.2646074,28.4079997 C35.2333018,27.7040581 32.8713105,27.0264748 28.4922061,27.0264748 C20.9417814,27.0264748 18.26649,31.3833216 18.26649,35.1160045 C18.26649,37.2675425 19.197165,42.3311425 27.844672,42.9152418 C28.5777161,42.9598752 30.522802,43.0705799 30.522802,44.8770003 C30.522802,46.3681756 28.9304004,47.2474876 26.2515608,47.2474876 C23.3158365,47.2474876 20.4681058,46.5059415 18.7383915,45.8027028 L18.7383915,51.7515893 C21.3278182,52.423901 24.2468663,52.7598812 27.667975,52.7598812 C35.0505731,52.7598812 38.3570772,48.6374472 38.3570772,44.5519149 C38.3570772,39.9195362 34.6570852,36.9101243 28.4496285,36.4978809 L28.4496285,36.4978809 L28.4496285,36.4978809 Z M72.7143478,52.4854037 L79.4135756,52.4854037 L79.4135756,33.8645137 L72.7143478,33.8645137 L72.7143478,52.4854037 L72.7143478,52.4854037 Z M92.0278941,28.2136514 L92.0278941,52.4854037 L98.7281863,52.4854037 L98.7281863,27.0264748 L92.0278941,28.2136514 L92.0278941,28.2136514 Z M82.2513715,28.2136514 L88.9452771,27.0264748 L88.9452771,52.4854037 L82.2513715,52.4854037 L82.2513715,28.2136514 L82.2513715,28.2136514 L82.2513715,28.2136514 Z" id="path3005" fill="#811963" sketch:type="MSShapeGroup"></path>
            </g>
        </g>
    </g>
</svg>