<?xml version="1.0" encoding="UTF-8" standalone="no"?>
<svg width="120px" height="80px" viewBox="0 0 120 80" version="1.1" xmlns="http://www.w3.org/2000/svg" xmlns:xlink="http://www.w3.org/1999/xlink" xmlns:sketch="http://www.bohemiancoding.com/sketch/ns">
    <!-- Generator: Sketch 3.2.2 (9983) - http://www.bohemiancoding.com/sketch -->
    <title>card_sofort</title>
    <desc>Created with Sketch.</desc>
    <defs></defs>
    <g id="assets-various" stroke="none" stroke-width="1" fill="none" fill-rule="evenodd" sketch:type="MSPage">
        <g id="Artboard-2" sketch:type="MSArtboardGroup" transform="translate(-36.000000, -1175.000000)">
            <g id="card_sofort" sketch:type="MSLayerGroup" transform="translate(36.000000, 1175.000000)">
                <rect id="Rectangle-11" fill="#FFFFFF" sketch:type="MSShapeGroup" x="0" y="0" width="120" height="80" rx="4"></rect>
                <path d="M92.3772765,25.8708434 C92.7025246,26.13 92.9831734,26.4260241 93.2170475,26.7643373 C93.8142421,27.6318072 94.043765,28.6640964 93.9077917,29.8460241 L96.96991,29.8460241 L92.3533452,42.6162651 L96.9655589,42.6162651 L101.583212,29.8460241 L107.507296,29.8460241 L108.945349,25.8708434 L92.3772765,25.8708434" id="Fill-1" fill="#ED7F02" sketch:type="MSShapeGroup"></path>
                <path d="M87.6715131,31.2122892 C87.1776581,32.5503614 86.2911123,33.3777108 84.6050436,33.3777108 L84.5985169,33.3777108 L83.7261123,33.3766265 L85.2174673,29.3277108 L86.0659406,29.3277108 C87.6182116,29.3287952 88.1980016,29.7853012 87.6715131,31.2122892 M92.1466658,27.5136145 C91.3884787,26.4140964 89.84491,25.8740964 87.4267612,25.8719277 L81.8290131,25.8719277 L75.7743948,42.6140964 L80.9174482,42.6140964 L83.1180398,36.7207229 C83.2257307,36.9625301 84.5245475,42.6140964 84.5245475,42.6140964 L89.9308452,42.6140964 C89.9308452,42.6140964 88.9474864,38.4610843 88.2241085,36.7836145 C88.0380971,36.3531325 87.8444711,35.8695181 87.585578,35.4661446 C89.1128299,34.8946988 91.3253871,33.6683133 92.2413032,31.1819277 C92.8047765,29.6540964 92.7721429,28.4201205 92.1466658,27.5136145" id="Fill-2" fill="#ED7F02" sketch:type="MSShapeGroup"></path>
                <path d="M30.9358452,25.8610843 C29.4325246,25.8610843 27.9727154,25.8610843 26.6641085,26.5290361 C25.3555016,27.1980723 24.2013604,28.5361446 23.3115513,31.2112048 C23.1190131,31.786988 23.0167612,32.2825301 23.0037078,32.7119277 C22.9906543,33.1445783 23.0646238,33.5110843 23.2267039,33.8298795 C23.4268566,34.2180723 23.7510169,34.5845783 24.1567612,34.8936145 C24.5625055,35.2015663 25.0487459,35.4531325 25.5719711,35.6136145 C25.5926391,35.6190361 25.867849,35.6981928 26.2007116,35.7936145 C26.5324864,35.8901205 26.9219139,36.0050602 27.1677536,36.0798795 C27.3113413,36.1243373 27.4701581,36.1818072 27.6137459,36.2685542 C27.7573337,36.3542169 27.8856925,36.4691566 27.9672765,36.6296386 C28.0194902,36.7359036 28.0488604,36.8508434 28.0521238,36.9755422 C28.0553871,37.100241 28.0347192,37.2346988 27.9857688,37.3756627 C27.8639368,37.74 27.6790131,37.9731325 27.3265704,38.1173494 C26.9752154,38.2593976 26.4563413,38.3060241 25.6709597,38.3125301 L15.8591276,38.3125301 L14.3079444,42.6021687 L24.8105207,42.6021687 C25.7982307,42.6021687 27.6050436,42.6021687 29.3411505,41.8593976 C31.0772574,41.1166265 32.7426581,39.6321687 33.4475436,36.6621687 C33.7129635,35.5453012 33.6313795,34.6366265 33.196265,33.9220482 C32.7611505,33.2074699 31.9725055,32.690241 30.8259787,32.3584337 C30.8259787,32.3584337 30.5692612,32.2836145 30.2668566,32.1957831 C29.9655398,32.1090361 29.618536,32.0092771 29.4401391,31.9572289 C29.1464368,31.8726506 28.921265,31.7013253 28.7874673,31.4833735 C28.6547574,31.266506 28.6145093,31.0019277 28.6906543,30.7319277 C28.7689749,30.4521687 28.9593375,30.2277108 29.2345475,30.0737349 C29.5108452,29.919759 29.8741658,29.8351807 30.2973146,29.8351807 L36.4019711,29.8351807 C36.4443948,29.7722892 36.4835551,29.7050602 36.5270665,29.6421687 C37.6420475,28.0536145 38.9919902,26.7686747 40.4702917,25.8610843 L30.9358452,25.8610843 Z" id="Fill-3" fill="#ED7F02" sketch:type="MSShapeGroup"></path>
                <path d="M44.9487078,34.1551807 C43.5237078,38.0815663 42.489223,39.0704819 40.9326009,39.0704819 L40.9293375,39.0704819 C39.4129635,39.0683133 38.881036,38.1021687 40.3005971,34.1942169 C41.3601009,31.2762651 42.7328871,29.4101205 44.392849,29.4101205 L44.3939368,29.4101205 C45.9734024,29.4122892 46.3356352,30.3339759 44.9487078,34.1551807 M49.838307,27.4301205 C49.0072383,26.233012 47.5855016,25.6246988 45.6068184,25.6225301 C44.3123528,25.6225301 43.0559597,25.9218072 41.8778871,26.4813253 C40.193994,27.2837349 38.6667421,28.6228916 37.4201391,30.4001205 C36.6108261,31.5538554 35.9179062,32.889759 35.3740131,34.3850602 C34.3504062,37.2075904 34.3623719,39.4977108 35.4088223,41.0071084 C36.0027536,41.8593976 37.2352154,42.8786747 39.7425627,42.8808434 L39.7523528,42.8808434 C44.3199673,42.8808434 47.731265,39.8663855 49.8905207,33.9209639 C50.4605207,32.346506 51.2132688,29.4112048 49.838307,27.4301205" id="Fill-4" fill="#ED7F02" sketch:type="MSShapeGroup"></path>
                <path d="M68.0924482,25.8610843 L58.3752536,25.8610843 C55.6590513,25.8610843 53.6368566,27.2446988 52.6817803,29.8351807 L48.0663032,42.6021687 L53.1223337,42.6021687 L55.4937078,36.0386747 L59.9623337,36.0419277 L61.2328681,32.5275904 L56.7794711,32.5243373 L57.4963223,30.4890361 C57.6464368,30.1246988 58.0032307,29.8340964 58.5264558,29.8340964 C58.8168948,29.8340964 62.0965704,29.8351807 63.7946047,29.8362651 C63.8381162,29.7733735 63.8772765,29.7050602 63.9207879,29.6421687 C65.0357688,28.0536145 66.6141467,26.7686747 68.0924482,25.8610843" id="Fill-5" fill="#ED7F02" sketch:type="MSShapeGroup"></path>
                <path d="M72.5121238,34.1551807 C71.0882116,38.0815663 70.0537268,39.0704819 68.4971047,39.0704819 L68.4938413,39.0704819 C66.9763795,39.0683133 66.4466276,38.1021687 67.8651009,34.1942169 C68.9235169,31.2762651 70.297391,29.4101205 71.9573528,29.4101205 L71.9595284,29.4101205 C73.5379062,29.4122892 73.9001391,30.3339759 72.5121238,34.1551807 M77.4028108,27.4301205 C76.5706543,26.233012 75.1500055,25.6246988 73.1702345,25.6225301 C71.8768566,25.6225301 70.6204635,25.9218072 69.4434787,26.4813253 C67.7584978,27.2837349 66.2323337,28.6228916 64.9846429,30.4001205 C64.1742421,31.5538554 63.48241,32.889759 62.9385169,34.3850602 C61.91491,37.2075904 61.9268757,39.4977108 62.9744139,41.0071084 C63.5672574,41.8593976 64.7997192,42.8786747 67.3092421,42.8808434 L67.3157688,42.8808434 C71.8855589,42.8808434 75.2968566,39.8663855 77.4539368,33.9209639 C78.0261123,32.346506 78.7777726,29.4112048 77.4028108,27.4301205" id="Fill-6" fill="#ED7F02" sketch:type="MSShapeGroup"></path>
                <path d="M22.6490894,45.1612048 C22.5403108,45.4604819 22.4043375,45.6708434 22.2422574,45.7901205 C22.0801772,45.9104819 21.8354253,45.9701205 21.5080016,45.9701205 C21.180578,45.9701205 20.9804253,45.9126506 20.9097192,45.7966265 C20.8390131,45.6816867 20.8564177,45.4789157 20.9608452,45.1872289 C21.0717994,44.8825301 21.2055971,44.6721687 21.3655016,44.5539759 C21.5254062,44.4368675 21.7690704,44.3772289 22.096494,44.3772289 C22.4239177,44.3772289 22.6240704,44.4346988 22.6980398,44.5474699 C22.7720093,44.6613253 22.7556925,44.8651807 22.6490894,45.1612048 M19.8610933,45.1612048 C19.7523146,45.4604819 19.6185169,45.6708434 19.4575246,45.7901205 C19.29762,45.9104819 19.0539558,45.9701205 18.7265322,45.9701205 C18.3980207,45.9701205 18.1989558,45.9126506 18.1260742,45.7966265 C18.0521047,45.6816867 18.0684215,45.4789157 18.1739368,45.1872289 C18.2838032,44.8825301 18.4197765,44.6721687 18.5807688,44.5539759 C18.7417612,44.4368675 18.9854253,44.3772289 19.3084978,44.3772289 C19.6402726,44.3772289 19.8426009,44.4346988 19.913307,44.5474699 C19.9851009,44.6613253 19.9676963,44.8651807 19.8610933,45.1612048 M21.3546238,51.9187952 C21.1707879,52.4284337 20.9303871,52.8838554 20.6355971,53.2861446 C20.3418948,53.6895181 20.0003299,54.03 19.6098146,54.3075904 C19.2203871,54.5862651 18.7863604,54.7977108 18.3088223,54.9440964 C17.8301963,55.0893976 17.3156734,55.1620482 16.763078,55.1620482 C16.2442039,55.1620482 15.8014749,55.096988 15.4359787,54.9657831 C15.0704826,54.8356627 14.7930971,54.6372289 14.6038223,54.3715663 C14.4156352,54.1059036 14.3177345,53.7762651 14.3090322,53.3793976 C14.3014177,52.9836145 14.3938795,52.5206024 14.5853299,51.9892771 L16.4128108,46.9340964 C16.4291276,46.8907229 16.4552345,46.8527711 16.493307,46.8180723 C16.5302917,46.7844578 16.5868566,46.7562651 16.6608261,46.7345783 C16.7337078,46.7139759 16.8261696,46.6966265 16.9371238,46.6836145 C17.048078,46.6706024 17.1862268,46.6640964 17.3526581,46.6640964 C17.5147383,46.6640964 17.6463604,46.6706024 17.7475246,46.6836145 C17.8486887,46.6966265 17.9280971,46.7139759 17.984662,46.7345783 C18.0401391,46.7562651 18.076036,46.7844578 18.091265,46.8180723 C18.106494,46.8527711 18.106494,46.8907229 18.091265,46.9340964 L16.3170856,51.8407229 C16.1974291,52.1714458 16.1343375,52.4577108 16.1278108,52.6984337 C16.1212841,52.9413253 16.1647955,53.1408434 16.2583452,53.2991566 C16.3529826,53.4585542 16.4900436,53.576747 16.6717039,53.6559036 C16.8533642,53.7350602 17.0741849,53.7751807 17.3341658,53.7751807 C17.59741,53.7751807 17.8486887,53.7339759 18.0858261,53.6526506 C18.3240513,53.5713253 18.5437841,53.4531325 18.7450246,53.2959036 C18.9451772,53.139759 19.1268375,52.9478313 19.2889177,52.7179518 C19.44991,52.4891566 19.5837078,52.2289157 19.689223,51.9372289 L21.4971238,46.9340964 C21.5134406,46.8907229 21.5395475,46.8527711 21.57762,46.8180723 C21.6156925,46.7844578 21.6700818,46.7562651 21.7418757,46.7345783 C21.8136696,46.7139759 21.9061314,46.6966265 22.0192612,46.6836145 C22.1313032,46.6706024 22.269452,46.6640964 22.4304444,46.6640964 C22.5925246,46.6640964 22.7230589,46.6706024 22.8231352,46.6836145 C22.9221238,46.6966265 23.0004444,46.7139759 23.0559215,46.7345783 C23.1124864,46.7562651 23.1462078,46.7844578 23.1592612,46.8180723 C23.1723146,46.8527711 23.1723146,46.8907229 23.1559978,46.9340964 L21.3546238,51.9187952" id="Fill-7" fill="#3A3A3A" sketch:type="MSShapeGroup"></path>
                <path d="M28.5862268,49.0214458 C28.6460551,48.8544578 28.6743375,48.7059036 28.6710742,48.5725301 C28.6688986,48.4391566 28.6319139,48.3296386 28.5612078,48.2418072 C28.4905016,48.1539759 28.387162,48.086747 28.2490131,48.0379518 C28.1097765,47.9913253 27.9117994,47.9674699 27.6518184,47.9674699 L26.8033452,47.9674699 L26.0234024,50.1263855 L26.9610742,50.1263855 C27.2036505,50.1263855 27.4070665,50.0981928 27.57241,50.0385542 C27.7388413,49.9821687 27.8867803,49.9019277 28.0184024,49.8021687 C28.1511123,49.7013253 28.2642421,49.5842169 28.3610551,49.4486747 C28.4567803,49.3142169 28.5307497,49.1721687 28.5862268,49.0214458 M27.7268757,52.580241 C27.7954062,52.3872289 27.826952,52.2159036 27.817162,52.063012 C27.8084597,51.9112048 27.7605971,51.7843373 27.6757497,51.6813253 C27.5887268,51.5783133 27.4603681,51.4991566 27.2884978,51.4438554 C27.1166276,51.3874699 26.8784024,51.3603614 26.5727345,51.3603614 L25.57741,51.3603614 L24.7234978,53.7220482 L25.9352917,53.7220482 C26.1691658,53.7220482 26.3736696,53.6981928 26.5509787,53.6504819 C26.7293757,53.6006024 26.8936314,53.5279518 27.0459215,53.4314458 C27.1971238,53.3338554 27.3320093,53.2145783 27.450578,53.0714458 C27.5680589,52.9272289 27.6594329,52.763494 27.7268757,52.580241 M29.4890894,52.5227711 C29.3824864,52.8177108 29.2454253,53.0855422 29.0768184,53.3262651 C28.9092994,53.5648193 28.7211123,53.7773494 28.5122574,53.9616867 C28.3034024,54.1449398 28.0760551,54.303253 27.8302154,54.4366265 C27.5843757,54.57 27.3276581,54.6784337 27.0578871,54.763012 C26.7892039,54.849759 26.5118184,54.9126506 26.2268184,54.9538554 C25.9429062,54.9950602 25.6339749,55.0145783 25.3022001,55.0145783 L23.1081352,55.0145783 C22.9678108,55.0145783 22.8644711,54.9733735 22.7981162,54.8887952 C22.732849,54.8053012 22.7350246,54.6708434 22.8024673,54.4810843 L25.4218566,47.2344578 C25.4903871,47.0468675 25.5872001,46.9124096 25.7133833,46.826747 C25.8395665,46.7443373 25.9722765,46.7031325 26.1126009,46.7031325 L28.1859215,46.7031325 C28.6917421,46.7031325 29.1051009,46.7443373 29.42491,46.8310843 C29.7447192,46.9156627 29.9938223,47.0457831 30.1711314,47.2192771 C30.3484406,47.3927711 30.4528681,47.6128916 30.4844139,47.8785542 C30.5170475,48.1442169 30.4680971,48.456506 30.3375627,48.816506 C30.264681,49.0181928 30.1700436,49.2068675 30.0547383,49.3846988 C29.9394329,49.5614458 29.806723,49.7240964 29.6576963,49.8693976 C29.506494,50.0146988 29.3400627,50.1437349 29.1573146,50.2554217 C28.9745665,50.3671084 28.778765,50.4560241 28.5720856,50.5243373 C28.7896429,50.5666265 28.9778299,50.6414458 29.1377345,50.7498795 C29.2965513,50.8572289 29.4183833,50.9949398 29.5043184,51.1640964 C29.5902536,51.3321687 29.6348528,51.5316867 29.6381162,51.7583133 C29.6402917,51.9849398 29.5913413,52.2386747 29.4890894,52.5227711" id="Fill-8" fill="#3A3A3A" sketch:type="MSShapeGroup"></path>
                <path d="M35.6590131,54.3531325 C35.6144139,54.476747 35.5709024,54.5808434 35.5306543,54.6643373 C35.4893184,54.7478313 35.4501581,54.8150602 35.4088223,54.8660241 C35.369662,54.9180723 35.3294139,54.9549398 35.2891658,54.9787952 C35.2489177,55.0026506 35.2097574,55.0145783 35.1705971,55.0145783 L31.0239558,55.0145783 C30.8847192,55.0145783 30.7813795,54.9722892 30.7161123,54.8887952 C30.6497574,54.8053012 30.6508452,54.669759 30.7193757,54.4810843 L33.338765,47.2355422 C33.4062078,47.0468675 33.5041085,46.9113253 33.6292039,46.8278313 C33.7553871,46.7443373 33.8891849,46.7020482 34.0295093,46.7020482 L38.1500436,46.7020482 C38.1892039,46.7020482 38.2185742,46.7139759 38.2403299,46.7345783 C38.2631734,46.7562651 38.2740513,46.7942169 38.2773146,46.8462651 C38.2794902,46.9004819 38.2697001,46.9698795 38.25012,47.0522892 C38.2305398,47.1368675 38.1979062,47.2420482 38.1511314,47.37 C38.10762,47.4903614 38.0651963,47.5922892 38.0249482,47.6757831 C37.9836123,47.7592771 37.944452,47.826506 37.9042039,47.8785542 C37.8639558,47.9295181 37.8247955,47.9663855 37.786723,47.990241 C37.7486505,48.0140964 37.710578,48.0260241 37.6714177,48.0260241 L34.7246047,48.0260241 L33.9914368,50.0559036 L36.4857307,50.0559036 C36.5238032,50.0559036 36.5542612,50.0678313 36.5781925,50.0906024 C36.601036,50.1144578 36.6151772,50.1513253 36.6184406,50.2001205 C36.6217039,50.25 36.6130016,50.3161446 36.5934215,50.3996386 C36.5738413,50.4831325 36.5433833,50.5839759 36.4998719,50.7043373 C36.4541849,50.8290361 36.4117612,50.9309639 36.3715131,51.0122892 C36.3323528,51.0936145 36.2931925,51.159759 36.2529444,51.2085542 C36.2148719,51.2573494 36.1746238,51.2931325 36.1354635,51.3148193 C36.0952154,51.336506 36.0571429,51.3473494 36.0179826,51.3473494 L33.5247765,51.3473494 L32.677391,53.6916867 L35.649223,53.6916867 C35.6883833,53.6916867 35.7188413,53.7036145 35.7427726,53.7263855 C35.7656162,53.750241 35.7786696,53.7871084 35.7808452,53.8391566 C35.7841085,53.8901205 35.7754062,53.9584337 35.7558261,54.0419277 C35.7351581,54.1243373 35.7036123,54.2295181 35.6590131,54.3531325" id="Fill-9" fill="#3A3A3A" sketch:type="MSShapeGroup"></path>
                <path d="M43.5302345,49.1559036 C43.629223,48.8826506 43.6509787,48.6506024 43.5955016,48.463012 C43.5400246,48.2743373 43.3866467,48.1420482 43.1321047,48.0639759 C43.0570475,48.0422892 42.9667612,48.0260241 42.8623337,48.013012 C42.7579062,48 42.6099673,47.993494 42.4196047,47.993494 L41.6668566,47.993494 L40.81512,50.3508434 L41.67012,50.3508434 C41.9083452,50.3508434 42.1259024,50.3226506 42.3249673,50.2640964 C42.52512,50.2066265 42.7035169,50.1253012 42.8590704,50.0201205 C43.0178871,49.9160241 43.1516849,49.790241 43.2648146,49.6438554 C43.3757688,49.4985542 43.4649673,49.3359036 43.5302345,49.1559036 M43.6531543,54.7955422 C43.6357497,54.843253 43.6129062,54.8833735 43.5846238,54.9148193 C43.5563413,54.9462651 43.5063032,54.9733735 43.4345093,54.9950602 C43.3638032,55.016747 43.2648146,55.0319277 43.1375436,55.0406024 C43.0124482,55.0481928 42.8427536,55.0525301 42.6295475,55.0525301 C42.4511505,55.0525301 42.3097383,55.0481928 42.2063986,55.0406024 C42.1041467,55.0319277 42.0258261,55.0156627 41.9725246,54.9918072 C41.919223,54.9690361 41.8855016,54.9375904 41.873536,54.9018072 C41.8604826,54.8660241 41.8572192,54.8215663 41.8572192,54.7706024 L41.7886887,52.9142169 C41.7756352,52.7038554 41.7549673,52.5173494 41.7299482,52.3546988 C41.7027536,52.1920482 41.6559787,52.056506 41.5939749,51.946988 C41.5287078,51.8374699 41.4373337,51.7561446 41.3220284,51.7008434 C41.2056352,51.6444578 41.0576963,51.6162651 40.8803871,51.6162651 L40.3560742,51.6162651 L39.2106352,54.7825301 C39.196494,54.8259036 39.1682116,54.8649398 39.1290513,54.8985542 C39.0888032,54.933253 39.0333261,54.9603614 38.9615322,54.9820482 C38.8908261,55.0037349 38.799452,55.0210843 38.6863223,55.0340964 C38.5764558,55.0460241 38.438307,55.0525301 38.2729635,55.0525301 C38.1108833,55.0525301 37.9781734,55.0460241 37.8737459,55.0340964 C37.7704062,55.0210843 37.6909978,55.0037349 37.6355207,54.9820482 C37.5767803,54.9603614 37.5441467,54.933253 37.5310933,54.8985542 C37.5180398,54.8649398 37.5180398,54.8259036 37.5343566,54.7825301 L40.2625246,47.2355422 C40.3310551,47.0468675 40.4278681,46.9113253 40.5540513,46.8278313 C40.6780589,46.7443373 40.8118566,46.7020482 40.9532688,46.7020482 L43.0907688,46.7020482 C43.3072383,46.7020482 43.4834597,46.7074699 43.6216085,46.7161446 C43.7575818,46.7237349 43.8815894,46.7345783 43.9925436,46.7475904 C44.3069139,46.7942169 44.5755971,46.8766265 44.799681,46.9915663 C45.023765,47.1075904 45.1956352,47.2583133 45.3120284,47.4448193 C45.4295093,47.6313253 45.4915131,47.8514458 45.4991276,48.1051807 C45.5045665,48.3610843 45.4458261,48.6527711 45.3272574,48.9824096 C45.227181,49.2621687 45.09991,49.5148193 44.9465322,49.7446988 C44.7942421,49.973494 44.6169329,50.1773494 44.4156925,50.3573494 C44.2155398,50.5373494 43.9903681,50.693494 43.7434406,50.8268675 C43.4943375,50.9591566 43.2278299,51.066506 42.9439177,51.1478313 C43.0461696,51.2074699 43.1342803,51.2801205 43.2115131,51.3657831 C43.2898337,51.4514458 43.3551009,51.5555422 43.4062268,51.6780723 C43.4573528,51.7995181 43.4986887,51.9393976 43.5269711,52.0944578 C43.5541658,52.2516867 43.5737459,52.4284337 43.5846238,52.6257831 L43.6868757,54.2631325 C43.6923146,54.4246988 43.6923146,54.5439759 43.6847001,54.6187952 C43.6792612,54.6936145 43.6694711,54.753253 43.6531543,54.7955422" id="Fill-10" fill="#3A3A3A" sketch:type="MSShapeGroup"></path>
                <path d="M54.0861123,54.5840964 C54.0241085,54.6871084 53.9588413,54.7695181 53.8903108,54.8313253 C53.8239558,54.8931325 53.7401963,54.9408434 53.6390322,54.9722892 C53.5378681,55.0048193 53.4149482,55.026506 53.2713604,55.0373494 C53.1277726,55.0481928 52.9461123,55.0536145 52.7296429,55.0536145 C52.4870665,55.0536145 52.2945284,55.0481928 52.1520284,55.0373494 C52.0095284,55.026506 51.9007497,55.0048193 51.8278681,54.9722892 C51.7538986,54.9408434 51.7092994,54.8931325 51.6929826,54.8313253 C51.6777536,54.7695181 51.6777536,54.6871084 51.6929826,54.5840964 L52.2771238,49.3174699 L52.2640704,49.3174699 L49.1094902,54.5840964 C49.0529253,54.6827711 48.9941849,54.7640964 48.9332688,54.8248193 C48.8723528,54.8877108 48.7940322,54.9354217 48.6993948,54.9690361 C48.6036696,55.0037349 48.4829253,55.026506 48.3360742,55.0373494 C48.1903108,55.0481928 47.9999482,55.0536145 47.7660742,55.0536145 C47.5202345,55.0536145 47.3244329,55.0481928 47.1819329,55.0373494 C47.0383452,55.026506 46.9306543,55.0048193 46.8577726,54.9722892 C46.7838032,54.9408434 46.7392039,54.8931325 46.7239749,54.8313253 C46.7076581,54.7695181 46.7054826,54.6871084 46.7174482,54.5840964 L47.4636696,47.3331325 C47.4810742,47.1780723 47.5028299,47.0566265 47.5311123,46.9698795 C47.558307,46.8820482 47.6061696,46.8137349 47.6779635,46.7671084 C47.7475818,46.7204819 47.8454826,46.6912048 47.970578,46.6803614 C48.0945856,46.6695181 48.2664558,46.6640964 48.4829253,46.6640964 C48.683078,46.6640964 48.8397192,46.6673494 48.9550246,46.6738554 C49.0692421,46.6803614 49.1519139,46.6955422 49.2041276,46.7183133 C49.2541658,46.743253 49.2824482,46.7768675 49.2878871,46.8224096 C49.2933261,46.8668675 49.2867994,46.929759 49.2704826,47.0110843 L48.4165704,53.3761446 L48.4241849,53.3761446 L52.2140322,47.0555422 C52.2597192,46.9753012 52.306494,46.9080723 52.3532688,46.8571084 C52.3989558,46.8061446 52.4598719,46.7660241 52.5360169,46.7389157 C52.612162,46.7107229 52.7089749,46.6912048 52.8286314,46.6803614 C52.9472001,46.6695181 53.1016658,46.6640964 53.2931162,46.6640964 C53.49762,46.6640964 53.6586123,46.6684337 53.777181,46.6771084 C53.8957497,46.6857831 53.9816849,46.7042169 54.0382497,46.7313253 C54.0937268,46.7595181 54.1263604,46.7996386 54.1383261,46.8506024 C54.1492039,46.9015663 54.1481162,46.9709639 54.1339749,47.0555422 L53.4062459,53.3761446 L53.4192994,53.3761446 L57.1612841,47.0295181 C57.1982688,46.9622892 57.2363413,46.9037349 57.2765894,46.8538554 C57.314662,46.8050602 57.3690513,46.7660241 57.4386696,46.7389157 C57.5082879,46.7107229 57.6007497,46.6912048 57.7149673,46.6803614 C57.8291849,46.6695181 57.9858261,46.6640964 58.1870665,46.6640964 C58.373078,46.6640964 58.5166658,46.6695181 58.6178299,46.6803614 C58.7179062,46.6912048 58.7831734,46.7204819 58.8136314,46.7671084 C58.8419139,46.8137349 58.8375627,46.8842169 58.7984024,46.9763855 C58.7581543,47.0674699 58.6907116,47.193253 58.5949864,47.3515663 L54.0861123,54.5840964" id="Fill-11" fill="#3A3A3A" sketch:type="MSShapeGroup"></path>
                <path d="M62.739452,54.3531325 C62.6948528,54.476747 62.6513413,54.5808434 62.6110933,54.6643373 C62.5697574,54.7478313 62.5305971,54.8150602 62.4892612,54.8660241 C62.4501009,54.9180723 62.4098528,54.9549398 62.3696047,54.9787952 C62.3293566,55.0026506 62.2901963,55.0145783 62.251036,55.0145783 L58.1043948,55.0145783 C57.9651581,55.0145783 57.8618184,54.9722892 57.7954635,54.8887952 C57.7301963,54.8053012 57.7312841,54.669759 57.7998146,54.4810843 L60.4192039,47.2355422 C60.4866467,47.0468675 60.5845475,46.9113253 60.7096429,46.8278313 C60.8358261,46.7443373 60.9696238,46.7020482 61.1099482,46.7020482 L65.2304826,46.7020482 C65.2696429,46.7020482 65.2990131,46.7139759 65.3207688,46.7345783 C65.3436123,46.7562651 65.355578,46.7942169 65.3577536,46.8462651 C65.3588413,46.9004819 65.3501391,46.9698795 65.3305589,47.0522892 C65.3109787,47.1368675 65.2783452,47.2420482 65.2315704,47.37 C65.1891467,47.4903614 65.1456352,47.5922892 65.1042994,47.6757831 C65.0651391,47.7592771 65.024891,47.826506 64.9846429,47.8785542 C64.9443948,47.9295181 64.9052345,47.9663855 64.867162,47.990241 C64.8290894,48.0140964 64.7899291,48.0260241 64.7518566,48.0260241 L61.8050436,48.0260241 L61.0707879,50.0559036 L63.5650818,50.0559036 C63.6042421,50.0559036 63.6336123,50.0678313 63.6586314,50.0906024 C63.6814749,50.1144578 63.6945284,50.1513253 63.6977917,50.2001205 C63.7021429,50.25 63.6934406,50.3161446 63.6738604,50.3996386 C63.6542803,50.4831325 63.6238223,50.5839759 63.5803108,50.7043373 C63.5346238,50.8290361 63.4922001,50.9309639 63.451952,51.0122892 C63.4117039,51.0936145 63.3725436,51.159759 63.3333833,51.2085542 C63.294223,51.2573494 63.2561505,51.2931325 63.2159024,51.3148193 C63.1756543,51.336506 63.136494,51.3473494 63.0984215,51.3473494 L60.6041276,51.3473494 L59.7567421,53.6916867 L62.7285742,53.6916867 C62.7677345,53.6916867 62.7981925,53.7036145 62.8221238,53.7263855 C62.8449673,53.750241 62.8580207,53.7871084 62.8612841,53.8391566 C62.8645475,53.8901205 62.8558452,53.9584337 62.836265,54.0419277 C62.8166849,54.1243373 62.7840513,54.2295181 62.739452,54.3531325" id="Fill-12" fill="#3A3A3A" sketch:type="MSShapeGroup"></path>
                <path d="M66.2976009,54.7825301 C66.2823719,54.8259036 66.2551772,54.8638554 66.2149291,54.8985542 C66.174681,54.9321687 66.1192039,54.9603614 66.04741,54.9809639 C65.9756162,55.0026506 65.8853299,55.02 65.7732879,55.033012 C65.6623337,55.0460241 65.5241849,55.0525301 65.3588413,55.0525301 C65.1967612,55.0525301 65.0640513,55.0460241 64.9607116,55.033012 C64.8562841,55.02 64.7768757,55.0026506 64.7203108,54.9809639 C64.6637459,54.9603614 64.627849,54.9321687 64.6137078,54.8985542 C64.597391,54.8638554 64.5984787,54.8259036 64.6137078,54.7825301 L67.4506543,46.933012 C67.4669711,46.8907229 67.4941658,46.8516867 67.5344139,46.8180723 C67.574662,46.7833735 67.6323146,46.7562651 67.7051963,46.7345783 C67.7791658,46.7128916 67.8705398,46.6955422 67.9825818,46.6825301 C68.093536,46.6706024 68.2295093,46.663012 68.3915894,46.663012 C68.5569329,46.663012 68.6907307,46.6706024 68.7929826,46.6825301 C68.8941467,46.6955422 68.9735551,46.7128916 69.0290322,46.7345783 C69.0855971,46.7562651 69.121494,46.7833735 69.136723,46.8180723 C69.151952,46.8516867 69.151952,46.8907229 69.1356352,46.933012 L66.2976009,54.7825301" id="Fill-13" fill="#3A3A3A" sketch:type="MSShapeGroup"></path>
                <path d="M74.4679635,52.5227711 C74.3091467,52.9586747 74.0894139,53.3425301 73.8098528,53.6721687 C73.5281162,54.0028916 73.2104826,54.2772289 72.8536887,54.4962651 C72.4979826,54.7185542 72.113994,54.8844578 71.7038986,54.9961446 C71.2938032,55.1056627 70.8782688,55.1620482 70.4572955,55.1620482 C70.1722955,55.1620482 69.915578,55.1371084 69.6882307,55.0904819 C69.4608833,55.0449398 69.2650818,54.9885542 69.1019139,54.9224096 C68.9398337,54.8551807 68.8082116,54.7857831 68.709223,54.7131325 C68.6102345,54.6404819 68.5417039,54.576506 68.5079826,54.5201205 C68.4731734,54.4637349 68.4612078,54.3845783 68.4764368,54.2793976 C68.490578,54.1742169 68.5330016,54.023494 68.6047955,53.8261446 C68.6526581,53.6927711 68.6972574,53.5821687 68.7385933,53.493253 C68.7799291,53.4021687 68.8201772,53.3295181 68.8593375,53.2742169 C68.8984978,53.2178313 68.9376581,53.1787952 68.978994,53.1549398 C69.0192421,53.1321687 69.060578,53.120241 69.1030016,53.120241 C69.1628299,53.120241 69.233536,53.1549398 69.3172955,53.2254217 C69.3999673,53.296988 69.5109215,53.3750602 69.6501581,53.4607229 C69.7893948,53.5442169 69.9645284,53.6244578 70.1744711,53.6949398 C70.3844139,53.7654217 70.6454826,53.8012048 70.9555016,53.8012048 C71.1600055,53.8012048 71.3514558,53.7762651 71.5309406,53.7253012 C71.7115131,53.6775904 71.8725055,53.6081928 72.0182688,53.5181928 C72.1629444,53.4281928 72.2891276,53.3154217 72.3968184,53.1842169 C72.5045093,53.0508434 72.5882688,52.9033735 72.6470093,52.7396386 C72.7155398,52.5520482 72.7220665,52.3915663 72.668765,52.2560241 C72.6154635,52.1204819 72.526265,52.0012048 72.4000818,51.8971084 C72.2738986,51.7908434 72.1237841,51.6921687 71.9497383,51.6 C71.7735169,51.5089157 71.5940322,51.4113253 71.4101963,51.3083133 C71.2263604,51.2063855 71.0534024,51.0881928 70.89241,50.9580723 C70.7314177,50.8279518 70.6008833,50.6718072 70.5029826,50.4896386 C70.4050818,50.3063855 70.3506925,50.0927711 70.3376391,49.8433735 C70.3256734,49.5961446 70.3822383,49.2979518 70.5084215,48.9498795 C70.6520093,48.5519277 70.8510742,48.2016867 71.1077917,47.8991566 C71.3634215,47.5987952 71.6516849,47.3472289 71.9725818,47.1498795 C72.2934787,46.9492771 72.6404826,46.8018072 73.014681,46.7031325 C73.3877917,46.6044578 73.7641658,46.5556627 74.1427154,46.5556627 C74.3385169,46.5556627 74.5277917,46.5708434 74.7138032,46.5990361 C74.8987268,46.6304819 75.0662459,46.6706024 75.218536,46.7226506 C75.3686505,46.7736145 75.4991849,46.8310843 75.6079635,46.8961446 C75.7167421,46.9601205 75.7852726,47.013253 75.8113795,47.0555422 C75.8385742,47.0978313 75.8538032,47.1357831 75.8581543,47.1661446 C75.8625055,47.1954217 75.8603299,47.2344578 75.8538032,47.2843373 C75.8472765,47.3342169 75.8320475,47.3960241 75.8081162,47.4708434 C75.7852726,47.5456627 75.7548146,47.6389157 75.7145665,47.7506024 C75.6688795,47.8742169 75.6275436,47.9793976 75.5905589,48.0639759 C75.5524864,48.1507229 75.5176772,48.2212048 75.4828681,48.2754217 C75.4469711,48.3318072 75.4110742,48.373012 75.3740894,48.3979518 C75.3371047,48.4239759 75.2957688,48.4359036 75.248994,48.4359036 C75.2022192,48.4359036 75.1380398,48.4066265 75.0575436,48.346988 C74.9781352,48.2873494 74.8758833,48.2222892 74.7518757,48.1518072 C74.6289558,48.0791566 74.4799291,48.0162651 74.3047955,47.9577108 C74.1307497,47.8991566 73.9262459,47.8720482 73.6923719,47.8720482 C73.5096238,47.8720482 73.3410169,47.8948193 73.1898146,47.9392771 C73.0364368,47.9848193 72.9004635,48.0466265 72.780807,48.1257831 C72.6611505,48.2049398 72.5578108,48.2992771 72.4740513,48.4120482 C72.3881162,48.5226506 72.322849,48.6408434 72.2782497,48.7655422 C72.2118948,48.9487952 72.2042803,49.1092771 72.2554062,49.2437349 C72.3065322,49.3781928 72.3968184,49.4985542 72.5273528,49.6026506 C72.6567994,49.706747 72.811265,49.806506 72.9918375,49.8986747 C73.1702345,49.9908434 73.3529826,50.0884337 73.5357307,50.1903614 C73.7206543,50.2933735 73.8947001,50.4104819 74.0611314,50.5406024 C74.2264749,50.6718072 74.3591849,50.8279518 74.4592612,51.0101205 C74.5593375,51.1922892 74.6148146,51.4059036 74.6289558,51.6509639 C74.6420093,51.8981928 74.58762,52.1877108 74.4679635,52.5227711" id="Fill-14" fill="#3A3A3A" sketch:type="MSShapeGroup"></path>
                <path d="M83.249662,51.9187952 C83.0647383,52.4284337 82.8254253,52.8838554 82.531723,53.2861446 C82.2369329,53.6895181 81.8953681,54.03 81.5048528,54.3075904 C81.1154253,54.5862651 80.6824864,54.7977108 80.2038604,54.9440964 C79.7252345,55.0893976 79.2107116,55.1620482 78.6570284,55.1620482 C78.1392421,55.1620482 77.6965131,55.096988 77.3310169,54.9657831 C76.9655207,54.8356627 76.6881352,54.6372289 76.4988604,54.3715663 C76.3106734,54.1059036 76.2116849,53.7762651 76.2051581,53.3793976 C76.1964558,52.9836145 76.2889177,52.5206024 76.4803681,51.9892771 L78.307849,46.9340964 C78.323078,46.8907229 78.3491849,46.8527711 78.3883452,46.8180723 C78.4264177,46.7844578 78.4818948,46.7562651 78.5547765,46.7345783 C78.6287459,46.7139759 78.7212078,46.6966265 78.832162,46.6836145 C78.9442039,46.6706024 79.0823528,46.6640964 79.2476963,46.6640964 C79.4097765,46.6640964 79.5413986,46.6706024 79.6425627,46.6836145 C79.7437268,46.6966265 79.8231352,46.7139759 79.8797001,46.7345783 C79.9351772,46.7562651 79.9710742,46.7844578 79.9852154,46.8180723 C80.0015322,46.8527711 80.0015322,46.8907229 79.9852154,46.9340964 L78.2121238,51.8407229 C78.0924673,52.1714458 78.0293757,52.4577108 78.022849,52.6984337 C78.0163223,52.9413253 78.0598337,53.1408434 78.1533833,53.2991566 C78.2469329,53.4585542 78.3850818,53.576747 78.5667421,53.6559036 C78.7484024,53.7350602 78.969223,53.7751807 79.2292039,53.7751807 C79.4913604,53.7751807 79.7426391,53.7339759 79.9808642,53.6526506 C80.2190894,53.5713253 80.4388223,53.4531325 80.6400627,53.2959036 C80.8413032,53.139759 81.0229635,52.9478313 81.1839558,52.7179518 C81.3449482,52.4891566 81.4787459,52.2289157 81.5842612,51.9372289 L83.3932497,46.9340964 C83.4084787,46.8907229 83.4345856,46.8527711 83.4726581,46.8180723 C83.5107307,46.7844578 83.56512,46.7562651 83.6369139,46.7345783 C83.7087078,46.7139759 83.8011696,46.6966265 83.9142994,46.6836145 C84.0274291,46.6706024 84.1644902,46.6640964 84.3254826,46.6640964 C84.4875627,46.6640964 84.6180971,46.6706024 84.7181734,46.6836145 C84.817162,46.6966265 84.8954826,46.7139759 84.9509597,46.7345783 C85.0075246,46.7562651 85.0412459,46.7844578 85.0542994,46.8180723 C85.0684406,46.8527711 85.0673528,46.8907229 85.0521238,46.9340964 L83.249662,51.9187952" id="Fill-15" fill="#3A3A3A" sketch:type="MSShapeGroup"></path>
                <path d="M91.5255398,54.4236145 C91.4896429,54.5222892 91.4417803,54.6101205 91.3786887,54.6871084 C91.3177726,54.7640964 91.2481543,54.8280723 91.1730971,54.8790361 C91.096952,54.9310843 91.0153681,54.9690361 90.9283452,54.9918072 C90.8402345,55.0156627 90.7564749,55.0275904 90.6759787,55.0275904 L89.9613032,55.0275904 C89.8122765,55.0275904 89.6893566,55.0124096 89.5914558,54.9820482 C89.4935551,54.9527711 89.4141467,54.8985542 89.3510551,54.8183133 C89.2879635,54.740241 89.2390131,54.6328916 89.2020284,54.4973494 C89.1661314,54.3628916 89.1334978,54.1883133 89.1052154,53.9746988 L88.4536314,50.0873494 C88.41991,49.8563855 88.3883642,49.6080723 88.3622574,49.340241 C88.3350627,49.0724096 88.3187459,48.8121687 88.313307,48.5595181 L88.3002536,48.5595181 C88.2056162,48.8674699 88.1077154,49.1754217 88.0054635,49.4812048 C87.9032116,49.786988 87.7922574,50.1025301 87.6747765,50.4289157 L86.1029253,54.7771084 C86.0876963,54.8193976 86.0615894,54.8584337 86.0256925,54.8931325 C85.9908833,54.926747 85.9397574,54.9549398 85.8734024,54.9787952 C85.8081352,55.0026506 85.7232879,55.0210843 85.6221238,55.0340964 C85.5187841,55.0471084 85.3904253,55.0536145 85.2370475,55.0536145 C85.0891085,55.0536145 84.9683642,55.0471084 84.8748146,55.0340964 C84.7823528,55.0210843 84.7116467,55.0026506 84.6648719,54.9787952 C84.6180971,54.9549398 84.5909024,54.926747 84.5811123,54.8931325 C84.57241,54.8584337 84.5756734,54.8193976 84.5909024,54.7771084 L87.2918757,47.3071084 C87.3647574,47.1054217 87.4767994,46.9546988 87.6301772,46.8538554 C87.7835551,46.7540964 87.946723,46.7031325 88.1164177,46.7031325 L89.0160169,46.7031325 C89.1759215,46.7031325 89.3086314,46.7161446 89.4087078,46.7443373 C89.5087841,46.7725301 89.5914558,46.8191566 89.6556352,46.8831325 C89.7187268,46.9471084 89.768765,47.0360241 89.804662,47.1498795 C89.8394711,47.2626506 89.8677536,47.4025301 89.8884215,47.5706024 L90.3975055,50.6078313 C90.4247001,50.7921687 90.450807,50.973253 90.4790894,51.1510843 C90.5062841,51.3289157 90.5313032,51.506747 90.5519711,51.6845783 C90.5726391,51.8613253 90.5922192,52.0359036 90.6107116,52.2083133 C90.6292039,52.3785542 90.6466085,52.5498795 90.6618375,52.7212048 L90.6672765,52.7212048 C90.7630016,52.4219277 90.8663413,52.1096386 90.9772955,51.783253 C91.0893375,51.4579518 91.1981162,51.1478313 91.3047192,50.8528916 L92.7144902,46.9536145 C92.7297192,46.910241 92.7569139,46.8722892 92.7949864,46.8375904 C92.8319711,46.8039759 92.8852726,46.7736145 92.954891,46.7475904 C93.0245093,46.7226506 93.1093566,46.7042169 93.2105207,46.6933735 C93.3127726,46.6825301 93.4400436,46.6771084 93.5923337,46.6771084 C93.7370093,46.6771084 93.855578,46.6825301 93.9502154,46.6933735 C94.0448528,46.7042169 94.1133833,46.7226506 94.1568948,46.7475904 C94.201494,46.7736145 94.2276009,46.8039759 94.2352154,46.8375904 C94.2460933,46.8722892 94.2417421,46.910241 94.2265131,46.9536145 L91.5255398,54.4236145" id="Fill-16" fill="#3A3A3A" sketch:type="MSShapeGroup"></path>
                <path d="M102.874414,47.993494 C102.829815,48.1181928 102.786303,48.2244578 102.741704,48.3144578 C102.69928,48.4044578 102.657944,48.4771084 102.62096,48.530241 C102.581799,48.5833735 102.544815,48.6213253 102.508918,48.643012 C102.473021,48.6636145 102.437124,48.6744578 102.399051,48.6744578 C102.343574,48.6744578 102.268517,48.6354217 102.171704,48.5584337 C102.077067,48.4825301 101.943269,48.3990361 101.772486,48.3079518 C101.600616,48.2190361 101.386322,48.1344578 101.132868,48.0574699 C100.877238,47.9804819 100.562868,47.9425301 100.187582,47.9425301 C99.7883642,47.9425301 99.4022001,48.0119277 99.0280016,48.1507229 C98.654891,48.2895181 98.3078871,48.4868675 97.9848146,48.7416867 C97.6628299,48.996506 97.3756543,49.3033735 97.1243757,49.6601205 C96.8720093,50.0179518 96.6664177,50.4126506 96.5097765,50.8453012 C96.3379062,51.3213253 96.2497955,51.7398795 96.2443566,52.1020482 C96.2389177,52.4631325 96.3052726,52.766747 96.4423337,53.0096386 C96.5793948,53.2546988 96.7838986,53.4379518 97.0558452,53.5626506 C97.3277917,53.6873494 97.6552154,53.7491566 98.0381162,53.7491566 C98.2241276,53.7491566 98.4188413,53.7274699 98.6168184,53.6851807 C98.8147955,53.6418072 99.0084215,53.5778313 99.1966085,53.4921687 L99.8927917,51.5653012 L98.3296429,51.5653012 C98.2534978,51.5653012 98.2110742,51.5175904 98.2034597,51.42 C98.1947574,51.323494 98.2339177,51.1608434 98.3176772,50.9287952 C98.3611887,50.8095181 98.4025246,50.7086747 98.4427726,50.6273494 C98.4819329,50.5449398 98.522181,50.4809639 98.5602536,50.4310843 C98.6005016,50.3822892 98.6385742,50.3454217 98.6766467,50.3226506 C98.7147192,50.2987952 98.7538795,50.2868675 98.791952,50.2868675 L101.579948,50.2868675 C101.647391,50.2868675 101.703956,50.2987952 101.748555,50.3226506 C101.793154,50.3454217 101.826876,50.3801205 101.850807,50.4278313 C101.874738,50.4755422 101.884528,50.5319277 101.881265,50.5980723 C101.879089,50.6642169 101.862773,50.7401205 101.832315,50.8268675 L100.63575,54.1340964 C100.590063,54.2631325 100.525883,54.3759036 100.447563,54.4713253 C100.367067,54.5678313 100.248498,54.6437349 100.089681,54.7001205 C99.931952,54.7554217 99.7394139,54.8128916 99.5142421,54.8736145 C99.2879826,54.933253 99.0584597,54.9842169 98.8234978,55.0275904 C98.588536,55.0698795 98.3557497,55.1013253 98.1251391,55.123012 C97.8945284,55.1446988 97.6660933,55.1555422 97.4398337,55.1555422 C96.7806352,55.1555422 96.2247765,55.0601205 95.7733452,54.8703614 C95.3208261,54.6784337 94.9792612,54.403012 94.7486505,54.0419277 C94.5180398,53.679759 94.4016467,53.2384337 94.3983833,52.7179518 C94.39512,52.1974699 94.5126009,51.6075904 94.7508261,50.9483133 C94.9966658,50.2673494 95.3197383,49.6568675 95.7189558,49.1146988 C96.1192612,48.5725301 96.5750436,48.1127711 97.0863032,47.733253 C97.5986505,47.3537349 98.1545093,47.0642169 98.7571429,46.8625301 C99.3597765,46.6619277 99.9852536,46.5610843 100.636838,46.5610843 C100.993631,46.5610843 101.310177,46.5860241 101.585387,46.6359036 C101.860597,46.6846988 102.095559,46.7443373 102.289185,46.8148193 C102.482811,46.8853012 102.637276,46.9622892 102.752582,47.0425301 C102.866799,47.1249398 102.942944,47.1943373 102.978841,47.2550602 C103.014738,47.3146988 103.025616,47.3992771 103.011475,47.5087952 C102.997334,47.6183133 102.951647,47.7798795 102.874414,47.993494" id="Fill-17" fill="#3A3A3A" sketch:type="MSShapeGroup"></path>
            </g>
        </g>
    </g>
</svg>