<?xml version="1.0" encoding="UTF-8"?>
<svg width="120px" height="80px" viewBox="0 0 120 80" version="1.1" xmlns="http://www.w3.org/2000/svg" xmlns:xlink="http://www.w3.org/1999/xlink">
    <!-- Generator: Sketch 46.2 (44496) - http://www.bohemiancoding.com/sketch -->
    <title>card_sofort</title>
    <desc>Created with Sketch.</desc>
    <defs></defs>
    <g id="export-badges" stroke="none" stroke-width="1" fill="none" fill-rule="evenodd">
        <g id="production-final" transform="translate(-36.000000, -5423.000000)">
            <g id="card_sofort" transform="translate(36.000000, 5423.000000)">
                <rect id="Rectangle-11" fill="#FA82A0" x="0" y="0" width="120" height="80" rx="4"></rect>
                <g id="Group-8" transform="translate(32.000000, 8.000000)" fill-rule="nonzero" fill="#FFFFFF">
                    <path d="M4.46406023,63.0613333 C7.01316661,63.0613333 8.96248326,61.3357037 8.96248326,58.7946667 C8.96248326,56.4432593 7.31306148,55.4192593 5.28877112,54.8124444 C3.9954745,54.4331852 3.18950704,54.1487407 3.18950704,53.2195556 C3.18950704,52.4420741 3.75180992,51.8352593 4.63275109,51.8352593 C5.38248827,51.8352593 5.94479114,52.2714074 6.33840316,52.9351111 L8.45641067,51.5887407 C7.80039064,50.1096296 6.31965973,49.3511111 4.70772481,49.3511111 C2.15861843,49.3511111 0.54668351,51.2094815 0.54668351,53.3522963 C0.54668351,55.058963 1.55882869,56.3863704 4.07044822,57.1259259 C5.43871855,57.5241481 6.3009163,57.7896296 6.3009163,58.8894815 C6.3009163,59.9134815 5.56992256,60.5582222 4.50154709,60.5582222 C3.3581979,60.5582222 2.49600016,59.8186667 1.97118414,59.136 L0.209301783,60.9374815 C1.14647325,62.226963 2.68343445,63.0613333 4.46406023,63.0613333 Z M14.7666985,63.0613333 C12.0676446,63.0613333 9.87466341,60.8805926 9.87466341,58.2257778 C9.87466341,55.570963 12.0676446,53.3902222 14.7666985,53.3902222 C17.4657523,53.3902222 19.6587335,55.570963 19.6587335,58.2257778 C19.6587335,60.8805926 17.4657523,63.0613333 14.7666985,63.0613333 Z M14.7666985,60.6340741 C16.0787385,60.6340741 17.1096271,59.5911111 17.1096271,58.2257778 C17.1096271,56.8604444 16.0787385,55.8174815 14.7666985,55.8174815 C13.4546584,55.8174815 12.4237698,56.8604444 12.4237698,58.2257778 C12.4237698,59.5911111 13.4546584,60.6340741 14.7666985,60.6340741 Z M25.9690213,51.968 L25.9690213,49.5407407 L25.5941527,49.5407407 C22.4827434,49.5407407 20.9645257,51.6266667 20.9645257,54.0918519 L20.9645257,62.8148148 L23.513632,62.8148148 L23.513632,58.9842963 C23.513632,57.7137778 24.4882904,56.8035556 25.8940476,56.7656296 L25.8940476,54.3004444 C24.8819024,54.3004444 24.0759349,54.6038519 23.513632,55.2106667 L23.513632,54.2245926 C23.513632,52.6317037 24.5445207,51.9111111 25.9690213,51.968 Z M31.529572,63.0613333 C28.8305182,63.0613333 26.637537,60.8805926 26.637537,58.2257778 C26.637537,55.570963 28.8305182,53.3902222 31.529572,53.3902222 C34.2286258,53.3902222 36.421607,55.570963 36.421607,58.2257778 C36.421607,60.8805926 34.2286258,63.0613333 31.529572,63.0613333 Z M31.529572,60.6340741 C32.8416121,60.6340741 33.8725007,59.5911111 33.8725007,58.2257778 C33.8725007,56.8604444 32.8416121,55.8174815 31.529572,55.8174815 C30.217532,55.8174815 29.1866433,56.8604444 29.1866433,58.2257778 C29.1866433,59.5911111 30.217532,60.6340741 31.529572,60.6340741 Z M40.2765056,54.6797037 L40.2765056,53.6367407 L37.8023729,53.6367407 L37.8023729,62.8148148 L40.3514793,62.8148148 L40.3514793,58.624 C40.3514793,57.106963 41.2324205,56.2536296 42.7693817,56.2536296 L42.7693817,53.485037 C41.6072891,53.4471111 40.7825782,53.8453333 40.2765056,54.6797037 Z M46.7742278,58.130963 L46.7742278,55.8933333 C47.3365307,56.5001481 48.1424981,56.8035556 49.1546433,56.8035556 L49.1546433,54.3383704 C47.7676295,54.3004444 46.7742278,53.3712593 46.7742278,52.1197037 L46.7742278,50.6785185 L44.2251214,50.6785185 L44.2251214,58.2637037 C44.2251214,60.7288889 45.7433392,62.8148148 48.8547484,62.8148148 L49.229617,62.8148148 L49.229617,60.3875556 C47.8051164,60.4444444 46.7742278,59.7238519 46.7742278,58.130963 Z M52.2785481,62.9665185 C53.2157196,62.9665185 53.9842002,62.189037 53.9842002,61.2408889 C53.9842002,60.2927407 53.2157196,59.5152593 52.2785481,59.5152593 C51.3413766,59.5152593 50.572896,60.2927407 50.572896,61.2408889 C50.572896,62.189037 51.3413766,62.9665185 52.2785481,62.9665185 Z" id="Shape"></path>
                    <g id="Group" transform="translate(11.714643, 0.000000)">
                        <path d="M11.1887394,30.5133547 C11.9826674,31.3033847 11.9996342,32.59225 11.2267836,33.4033586 L11.0716371,33.5680242 C10.2981831,34.3683176 9.01907689,34.387947 8.21458941,33.6044961 L3.71692871,29.0958846 C2.47871218,27.8380884 2.30087699,26.2881468 3.08890442,25.469221 L3.24682311,25.3016603 C3.89627836,24.625402 4.9549463,24.5540525 5.69350952,25.1420429 C6.04464031,25.4215878 6.55345339,25.3604442 6.82997534,25.0054748 C7.10649729,24.6505056 7.04601487,24.1361301 6.69488409,23.8565854 C5.3049173,22.7499945 3.31251737,22.8842733 2.08015528,24.167597 L1.92281731,24.3345537 C0.463088837,25.851452 0.756434475,28.4081374 2.57351909,30.2539176 L7.08333919,34.7746229 C8.53677025,36.1901668 10.8343797,36.1549071 12.2365298,34.7039302 L12.3956429,34.5351308 C13.780712,33.0815162 13.7502354,30.7663769 12.3241328,29.3472763 C12.0056112,29.0303186 11.4932319,29.0344091 11.1797017,29.3564128 C10.8661715,29.6784165 10.8702178,30.196397 11.1887394,30.5133547 Z M8.49681983,6.07101927 L10.3375901,21.3870145 C10.3914971,21.8355441 10.7948705,22.154971 11.2385497,22.1004747 C11.6822289,22.0459783 11.9982017,21.6381953 11.9442947,21.1896659 L10.0978136,5.82615419 L10.0795591,5.72640844 C9.76457056,4.45268072 10.5475975,3.02442354 11.5908342,2.79957618 C12.1756256,2.67335902 12.7858217,2.78969279 13.2847765,3.12243336 C13.7837312,3.45517394 14.1296782,3.97646839 14.2450176,4.56938438 L17.4501226,18.425001 C17.5519103,18.8649555 17.9872226,19.1381919 18.4224196,19.0352914 C18.8576166,18.9323909 19.1278983,18.4923199 19.0261105,18.0523653 L15.8270631,4.22520481 C15.6340768,3.23045148 15.0370677,2.33084115 14.1760095,1.75662275 C13.3149513,1.18240435 12.2619211,0.981644364 11.2531257,1.19937556 C9.29112341,1.6222432 8.00200233,3.94793743 8.49681983,6.07101927 Z" id="Shape"></path>
                        <path d="M25.4144952,24.0685856 L29.0542665,5.70918919 C29.4772672,3.73292399 28.3155791,1.7487602 26.3864999,1.16915618 C24.2266601,0.616733458 22.0623578,1.90377007 21.4985272,4.04768268 L17.4688111,18.0173446 C17.3436945,18.4511076 17.5900992,18.9052776 18.0191716,19.0317621 C18.4482438,19.1582465 18.8975027,18.9091481 19.0226193,18.4753851 L23.0575225,4.48690779 C23.39887,3.18987337 24.6892455,2.42253116 25.9577011,2.74653971 C27.0432357,3.07342671 27.7163955,4.22318401 27.4698218,5.3754419 L23.8275331,23.7470522 C23.7397043,24.1900704 24.0237585,24.6211852 24.461986,24.7099743 C24.9002134,24.7987633 25.3266663,24.5116038 25.4144952,24.0685856 Z M16.2472604,41.7563785 C10.4775139,41.7563785 5.65848933,37.4745303 5.65848933,31.3898491 C5.65848933,30.9380211 5.29617119,30.5717421 4.8492291,30.5717421 C4.40228702,30.5717421 4.03996888,30.9380211 4.03996888,31.3898491 C4.03996888,38.4285465 9.62677578,43.3925926 16.2472604,43.3925926 C16.6942025,43.3925926 17.0565207,43.0263136 17.0565207,42.5744856 C17.0565207,42.1226575 16.6942025,41.7563785 16.2472604,41.7563785 Z M13.3930413,27.4453847 C13.2671498,27.903883 12.9855012,28.302889 12.5975511,28.5723398 L12.4245464,28.6888411 C11.4936485,29.3218577 10.2355269,29.0763219 9.60649007,28.1412949 L6.06818674,22.8141732 C5.10285714,21.3322176 5.22907972,19.7730207 6.15824856,19.1282759 L6.33154741,19.0115704 C7.52341277,18.3131604 8.5360688,18.8430423 9.57708752,20.3762788 L12.535867,24.8323662 C12.7849637,25.2075134 13.2877247,25.3074898 13.658815,25.0556698 C14.0299054,24.80385 14.1288006,24.2955929 13.8797038,23.9204459 L10.9162157,19.4573457 C9.45262763,17.3016615 7.63913701,16.3527355 5.47603755,17.6235239 L5.2513853,17.7730661 C3.51204965,18.97989 3.30429761,21.5462005 4.72046404,23.7201843 L8.26547086,29.0574318 C9.39807076,30.7410016 11.6579862,31.1820481 13.3251231,30.0483693 L13.5047085,29.9273454 C14.2156217,29.4336774 14.7249407,28.7121353 14.9525963,27.8830104 C15.0721365,27.4476431 14.8199246,26.9967425 14.3892654,26.8758956 C13.9586062,26.7550485 13.5125815,27.0100175 13.3930413,27.4453847 Z" id="Shape"></path>
                        <path d="M18.7517621,30.1553006 C17.0702194,31.1049965 16.024702,32.893204 15.8948724,35.5982116 C15.8732119,36.0495087 16.2175451,36.4331085 16.6639619,36.4550057 C17.1103788,36.476903 17.4898305,36.1288057 17.5114909,35.6775086 C17.6290668,33.2278098 18.5706472,31.9053467 20.0935595,31.3258188 C20.9085611,31.0156786 21.79474,30.953794 22.5754107,31.0377856 C22.6803411,31.049075 22.7500506,31.0595789 22.7782338,31.064889 C23.8202817,31.2612241 24.1374606,29.6958874 23.1029789,29.4622125 L16.8796537,28.0564512 C13.9667877,27.2500277 13.5271752,26.1600335 14.0665017,24.3426259 C14.2993841,23.5507396 14.7777552,23.1442793 15.4992669,22.9821018 C15.9756327,22.8750268 16.5107619,22.888341 17.0193666,22.9784431 C17.1664044,23.0044916 17.2698128,23.0292488 17.3155726,23.0425396 L26.7622441,25.2729562 C26.8248037,25.2851324 26.8688845,25.2974907 26.9460406,25.3328358 C27.1022961,25.4044167 27.2649745,25.5194214 27.4236575,25.6908327 C28.056911,26.3748811 28.4063124,27.6652499 28.2294554,29.7847301 C27.613305,37.2148697 24.1887475,41.8285463 16.072006,41.7564102 C15.6250812,41.7524383 15.259592,42.1154831 15.255663,42.5672937 C15.251734,43.0191042 15.6108531,43.388589 16.0577778,43.3925609 C25.1799263,43.4736324 29.1635409,38.1067758 29.842283,29.921842 C30.0548796,27.3740567 29.5820267,25.6277717 28.6053926,24.5727993 C28.0668935,23.9911059 27.4986262,23.7307823 27.0626973,23.6666812 L17.7230057,21.4595541 C17.6643007,21.4414212 17.5057363,21.403459 17.2987387,21.3667881 C16.5986327,21.2427604 15.8618593,21.2244294 15.1479769,21.3848921 C13.8811055,21.6696527 12.9251852,22.4818748 12.5156656,23.8744084 C11.7370585,26.4981292 12.5685211,28.559694 16.4896648,29.6439878 L18.7517621,30.1553006 Z" id="Shape"></path>
                    </g>
                </g>
            </g>
        </g>
    </g>
</svg>