<?xml version="1.0" encoding="UTF-8"?>
<svg width="120px" height="80px" viewBox="0 0 120 80" version="1.1" xmlns="http://www.w3.org/2000/svg" xmlns:xlink="http://www.w3.org/1999/xlink">
    <!-- Generator: Sketch 52.5 (67469) - http://www.bohemiancoding.com/sketch -->
    <title>card_swisspass</title>
    <desc>Created with Sketch.</desc>
    <defs>
        <linearGradient x1="0%" y1="50%" x2="100%" y2="50%" id="linearGradient-1">
            <stop stop-color="#D82229" offset="0%"></stop>
            <stop stop-color="#9A1B1E" offset="100%"></stop>
        </linearGradient>
    </defs>
    <g id="export-badges" stroke="none" stroke-width="1" fill="none" fill-rule="evenodd">
        <g id="production-final" transform="translate(-36.000000, -6780.000000)">
            <g id="card_swisspass" transform="translate(36.000000, 6780.000000)">
                <rect id="Rectangle-11" fill="url(#linearGradient-1)" x="0" y="0" width="120" height="80" rx="4"></rect>
                <path d="M70.0222754,66.0290436 L70.0222754,67.0684774 L71.0683545,67.0684774 L71.0683545,67.9605662 L70.0222754,67.9605662 L70.0222754,69 L69.1235456,69 L69.1235456,67.9605662 L68.0774665,67.9605662 L68.0774665,67.0684774 L69.1235456,67.0684774 L69.1235456,66.0290436 L70.0222754,66.0290436 Z M55.6627835,66.0290436 L55.6627835,67.0684774 L56.7093672,67.0684774 L56.7093672,67.9605662 L55.6627835,67.9605662 L55.6627835,69 L54.7645583,69 L54.7645583,67.9605662 L53.7184792,67.9605662 L53.7184792,67.0684774 L54.7645583,67.0684774 L54.7645583,66.0290436 L55.6627835,66.0290436 Z M50.876959,66.0290436 L50.876959,67.0684774 L51.9230381,67.0684774 L51.9230381,67.9605662 L50.876959,67.9605662 L50.876959,69 L49.9782292,69 L49.9782292,67.9605662 L48.9321501,67.9605662 L48.9321501,67.0684774 L49.9782292,67.0684774 L49.9782292,66.0290436 L50.876959,66.0290436 Z M46.0906299,66.0290436 L46.0906299,67.0684774 L47.136709,67.0684774 L47.136709,67.9605662 L46.0906299,67.9605662 L46.0906299,69 L45.1919001,69 L45.1919001,67.9605662 L44.145821,67.9605662 L44.145821,67.0684774 L45.1919001,67.0684774 L45.1919001,66.0290436 L46.0906299,66.0290436 Z M41.3037962,66.0290436 L41.3037962,67.0684774 L42.3503799,67.0684774 L42.3503799,67.9605662 L41.3037962,67.9605662 L41.3037962,69 L40.405571,69 L40.405571,67.9605662 L39.3589873,67.9605662 L39.3589873,67.0684774 L40.405571,67.0684774 L40.405571,66.0290436 L41.3037962,66.0290436 Z M89.1675918,61.2754132 L89.1675918,62.314847 L90.2141755,62.314847 L90.2141755,63.2069358 L89.1675918,63.2069358 L89.1675918,64.2458684 L88.268862,64.2458684 L88.268862,63.2069358 L87.2227829,63.2069358 L87.2227829,62.314847 L88.268862,62.314847 L88.268862,61.2754132 L89.1675918,61.2754132 Z M74.8086045,61.2754132 L74.8086045,62.314847 L75.8546836,62.314847 L75.8546836,63.2069358 L74.8086045,63.2069358 L74.8086045,64.2458684 L73.9098747,64.2458684 L73.9098747,63.2069358 L72.8637956,63.2069358 L72.8637956,62.314847 L73.9098747,62.314847 L73.9098747,61.2754132 L74.8086045,61.2754132 Z M70.0222754,61.2754132 L70.0222754,62.314847 L71.0683545,62.314847 L71.0683545,63.2069358 L70.0222754,63.2069358 L70.0222754,64.2458684 L69.1235456,64.2458684 L69.1235456,63.2069358 L68.0774665,63.2069358 L68.0774665,62.314847 L69.1235456,62.314847 L69.1235456,61.2754132 L70.0222754,61.2754132 Z M65.2359463,61.2754132 L65.2359463,62.314847 L66.2820254,62.314847 L66.2820254,63.2069358 L65.2359463,63.2069358 L65.2359463,64.2458684 L64.3372165,64.2458684 L64.3372165,63.2069358 L63.2911374,63.2069358 L63.2911374,62.314847 L64.3372165,62.314847 L64.3372165,61.2754132 L65.2359463,61.2754132 Z M55.6627835,61.2754132 L55.6627835,62.314847 L56.7093672,62.314847 L56.7093672,63.2069358 L55.6627835,63.2069358 L55.6627835,64.2458684 L54.7645583,64.2458684 L54.7645583,63.2069358 L53.7184792,63.2069358 L53.7184792,62.314847 L54.7645583,62.314847 L54.7645583,61.2754132 L55.6627835,61.2754132 Z M50.876959,61.2754132 L50.876959,62.314847 L51.9230381,62.314847 L51.9230381,63.2069358 L50.876959,63.2069358 L50.876959,64.2458684 L49.9782292,64.2458684 L49.9782292,63.2069358 L48.9321501,63.2069358 L48.9321501,62.314847 L49.9782292,62.314847 L49.9782292,61.2754132 L50.876959,61.2754132 Z M46.0906299,61.2754132 L46.0906299,62.314847 L47.136709,62.314847 L47.136709,63.2069358 L46.0906299,63.2069358 L46.0906299,64.2458684 L45.1919001,64.2458684 L45.1919001,63.2069358 L44.145821,63.2069358 L44.145821,62.314847 L45.1919001,62.314847 L45.1919001,61.2754132 L46.0906299,61.2754132 Z M41.3037962,61.2754132 L41.3037962,62.314847 L42.3503799,62.314847 L42.3503799,63.2069358 L41.3037962,63.2069358 L41.3037962,64.2458684 L40.405571,64.2458684 L40.405571,63.2069358 L39.3589873,63.2069358 L39.3589873,62.314847 L40.405571,62.314847 L40.405571,61.2754132 L41.3037962,61.2754132 Z M31.731138,61.2754132 L31.731138,62.314847 L32.7777217,62.314847 L32.7777217,63.2069358 L31.731138,63.2069358 L31.731138,64.2458684 L30.8329128,64.2458684 L30.8329128,63.2069358 L29.7868337,63.2069358 L29.7868337,62.314847 L30.8329128,62.314847 L30.8329128,61.2754132 L31.731138,61.2754132 Z M26.9448089,61.2754132 L26.9448089,62.314847 L27.990888,62.314847 L27.990888,63.2069358 L26.9448089,63.2069358 L26.9448089,64.2458684 L26.0465837,64.2458684 L26.0465837,63.2069358 L25,63.2069358 L25,62.314847 L26.0465837,62.314847 L26.0465837,61.2754132 L26.9448089,61.2754132 Z M84.3812627,56.5217827 L84.3812627,57.5612165 L85.4273418,57.5612165 L85.4273418,58.4533053 L84.3812627,58.4533053 L84.3812627,59.4922379 L83.4830375,59.4922379 L83.4830375,58.4533053 L82.4364538,58.4533053 L82.4364538,57.5612165 L83.4830375,57.5612165 L83.4830375,56.5217827 L84.3812627,56.5217827 Z M79.5949336,56.5217827 L79.5949336,57.5612165 L80.6410127,57.5612165 L80.6410127,58.4533053 L79.5949336,58.4533053 L79.5949336,59.4922379 L78.6962038,59.4922379 L78.6962038,58.4533053 L77.6501247,58.4533053 L77.6501247,57.5612165 L78.6962038,57.5612165 L78.6962038,56.5217827 L79.5949336,56.5217827 Z M74.8086045,56.5217827 L74.8086045,57.5612165 L75.8546836,57.5612165 L75.8546836,58.4533053 L74.8086045,58.4533053 L74.8086045,59.4922379 L73.9098747,59.4922379 L73.9098747,58.4533053 L72.8637956,58.4533053 L72.8637956,57.5612165 L73.9098747,57.5612165 L73.9098747,56.5217827 L74.8086045,56.5217827 Z M70.0222754,56.5217827 L70.0222754,57.5612165 L71.0683545,57.5612165 L71.0683545,58.4533053 L70.0222754,58.4533053 L70.0222754,59.4922379 L69.1235456,59.4922379 L69.1235456,58.4533053 L68.0774665,58.4533053 L68.0774665,57.5612165 L69.1235456,57.5612165 L69.1235456,56.5217827 L70.0222754,56.5217827 Z M65.2359463,56.5217827 L65.2359463,57.5612165 L66.2820254,57.5612165 L66.2820254,58.4533053 L65.2359463,58.4533053 L65.2359463,59.4922379 L64.3372165,59.4922379 L64.3372165,58.4533053 L63.2911374,58.4533053 L63.2911374,57.5612165 L64.3372165,57.5612165 L64.3372165,56.5217827 L65.2359463,56.5217827 Z M60.4496172,56.5217827 L60.4496172,57.5612165 L61.4956963,57.5612165 L61.4956963,58.4533053 L60.4496172,58.4533053 L60.4496172,59.4922379 L59.5508874,59.4922379 L59.5508874,58.4533053 L58.5048083,58.4533053 L58.5048083,57.5612165 L59.5508874,57.5612165 L59.5508874,56.5217827 L60.4496172,56.5217827 Z M55.6627835,56.5217827 L55.6627835,57.5612165 L56.7093672,57.5612165 L56.7093672,58.4533053 L55.6627835,58.4533053 L55.6627835,59.4922379 L54.7645583,59.4922379 L54.7645583,58.4533053 L53.7184792,58.4533053 L53.7184792,57.5612165 L54.7645583,57.5612165 L54.7645583,56.5217827 L55.6627835,56.5217827 Z M50.876959,56.5217827 L50.876959,57.5612165 L51.9230381,57.5612165 L51.9230381,58.4533053 L50.876959,58.4533053 L50.876959,59.4922379 L49.9782292,59.4922379 L49.9782292,58.4533053 L48.9321501,58.4533053 L48.9321501,57.5612165 L49.9782292,57.5612165 L49.9782292,56.5217827 L50.876959,56.5217827 Z M46.0906299,56.5217827 L46.0906299,57.5612165 L47.136709,57.5612165 L47.136709,58.4533053 L46.0906299,58.4533053 L46.0906299,59.4922379 L45.1919001,59.4922379 L45.1919001,58.4533053 L44.145821,58.4533053 L44.145821,57.5612165 L45.1919001,57.5612165 L45.1919001,56.5217827 L46.0906299,56.5217827 Z M41.3037962,56.5217827 L41.3037962,57.5612165 L42.3503799,57.5612165 L42.3503799,58.4533053 L41.3037962,58.4533053 L41.3037962,59.4922379 L40.405571,59.4922379 L40.405571,58.4533053 L39.3589873,58.4533053 L39.3589873,57.5612165 L40.405571,57.5612165 L40.405571,56.5217827 L41.3037962,56.5217827 Z M36.5179717,56.5217827 L36.5179717,57.5612165 L37.5640508,57.5612165 L37.5640508,58.4533053 L36.5179717,58.4533053 L36.5179717,59.4922379 L35.6192419,59.4922379 L35.6192419,58.4533053 L34.5726582,58.4533053 L34.5726582,57.5612165 L35.6192419,57.5612165 L35.6192419,56.5217827 L36.5179717,56.5217827 Z M31.731138,56.5217827 L31.731138,57.5612165 L32.7777217,57.5612165 L32.7777217,58.4533053 L31.731138,58.4533053 L31.731138,59.4922379 L30.8329128,59.4922379 L30.8329128,58.4533053 L29.7868337,58.4533053 L29.7868337,57.5612165 L30.8329128,57.5612165 L30.8329128,56.5217827 L31.731138,56.5217827 Z M89.1675918,51.7681523 L89.1675918,52.8075861 L90.2141755,52.8075861 L90.2141755,53.6996748 L89.1675918,53.6996748 L89.1675918,54.7386075 L88.268862,54.7386075 L88.268862,53.6996748 L87.2227829,53.6996748 L87.2227829,52.8075861 L88.268862,52.8075861 L88.268862,51.7681523 L89.1675918,51.7681523 Z M84.3812627,51.7681523 L84.3812627,52.8075861 L85.4273418,52.8075861 L85.4273418,53.6996748 L84.3812627,53.6996748 L84.3812627,54.7386075 L83.4830375,54.7386075 L83.4830375,53.6996748 L82.4364538,53.6996748 L82.4364538,52.8075861 L83.4830375,52.8075861 L83.4830375,51.7681523 L84.3812627,51.7681523 Z M79.5949336,51.7681523 L79.5949336,52.8075861 L80.6410127,52.8075861 L80.6410127,53.6996748 L79.5949336,53.6996748 L79.5949336,54.7386075 L78.6962038,54.7386075 L78.6962038,53.6996748 L77.6501247,53.6996748 L77.6501247,52.8075861 L78.6962038,52.8075861 L78.6962038,51.7681523 L79.5949336,51.7681523 Z M74.8086045,51.7681523 L74.8086045,52.8075861 L75.8546836,52.8075861 L75.8546836,53.6996748 L74.8086045,53.6996748 L74.8086045,54.7386075 L73.9098747,54.7386075 L73.9098747,53.6996748 L72.8637956,53.6996748 L72.8637956,52.8075861 L73.9098747,52.8075861 L73.9098747,51.7681523 L74.8086045,51.7681523 Z M70.0222754,51.7681523 L70.0222754,52.8075861 L71.0683545,52.8075861 L71.0683545,53.6996748 L70.0222754,53.6996748 L70.0222754,54.7386075 L69.1235456,54.7386075 L69.1235456,53.6996748 L68.0774665,53.6996748 L68.0774665,52.8075861 L69.1235456,52.8075861 L69.1235456,51.7681523 L70.0222754,51.7681523 Z M65.2359463,51.7681523 L65.2359463,52.8075861 L66.2820254,52.8075861 L66.2820254,53.6996748 L65.2359463,53.6996748 L65.2359463,54.7386075 L64.3372165,54.7386075 L64.3372165,53.6996748 L63.2911374,53.6996748 L63.2911374,52.8075861 L64.3372165,52.8075861 L64.3372165,51.7681523 L65.2359463,51.7681523 Z M60.4496172,51.7681523 L60.4496172,52.8075861 L61.4956963,52.8075861 L61.4956963,53.6996748 L60.4496172,53.6996748 L60.4496172,54.7386075 L59.5508874,54.7386075 L59.5508874,53.6996748 L58.5048083,53.6996748 L58.5048083,52.8075861 L59.5508874,52.8075861 L59.5508874,51.7681523 L60.4496172,51.7681523 Z M55.6627835,51.7681523 L55.6627835,52.8075861 L56.7093672,52.8075861 L56.7093672,53.6996748 L55.6627835,53.6996748 L55.6627835,54.7386075 L54.7645583,54.7386075 L54.7645583,53.6996748 L53.7184792,53.6996748 L53.7184792,52.8075861 L54.7645583,52.8075861 L54.7645583,51.7681523 L55.6627835,51.7681523 Z M50.876959,51.7681523 L50.876959,52.8075861 L51.9230381,52.8075861 L51.9230381,53.6996748 L50.876959,53.6996748 L50.876959,54.7386075 L49.9782292,54.7386075 L49.9782292,53.6996748 L48.9321501,53.6996748 L48.9321501,52.8075861 L49.9782292,52.8075861 L49.9782292,51.7681523 L50.876959,51.7681523 Z M46.0906299,51.7681523 L46.0906299,52.8075861 L47.136709,52.8075861 L47.136709,53.6996748 L46.0906299,53.6996748 L46.0906299,54.7386075 L45.1919001,54.7386075 L45.1919001,53.6996748 L44.145821,53.6996748 L44.145821,52.8075861 L45.1919001,52.8075861 L45.1919001,51.7681523 L46.0906299,51.7681523 Z M41.3037962,51.7681523 L41.3037962,52.8075861 L42.3503799,52.8075861 L42.3503799,53.6996748 L41.3037962,53.6996748 L41.3037962,54.7386075 L40.405571,54.7386075 L40.405571,53.6996748 L39.3589873,53.6996748 L39.3589873,52.8075861 L40.405571,52.8075861 L40.405571,51.7681523 L41.3037962,51.7681523 Z M36.5179717,51.7681523 L36.5179717,52.8075861 L37.5640508,52.8075861 L37.5640508,53.6996748 L36.5179717,53.6996748 L36.5179717,54.7386075 L35.6192419,54.7386075 L35.6192419,53.6996748 L34.5726582,53.6996748 L34.5726582,52.8075861 L35.6192419,52.8075861 L35.6192419,51.7681523 L36.5179717,51.7681523 Z M31.731138,51.7681523 L31.731138,52.8075861 L32.7777217,52.8075861 L32.7777217,53.6996748 L31.731138,53.6996748 L31.731138,54.7386075 L30.8329128,54.7386075 L30.8329128,53.6996748 L29.7868337,53.6996748 L29.7868337,52.8075861 L30.8329128,52.8075861 L30.8329128,51.7681523 L31.731138,51.7681523 Z M84.3812627,47.0145218 L84.3812627,48.0539556 L85.4273418,48.0539556 L85.4273418,48.9460444 L84.3812627,48.9460444 L84.3812627,49.984977 L83.4830375,49.984977 L83.4830375,48.9460444 L82.4364538,48.9460444 L82.4364538,48.0539556 L83.4830375,48.0539556 L83.4830375,47.0145218 L84.3812627,47.0145218 Z M79.5949336,47.0145218 L79.5949336,48.0539556 L80.6410127,48.0539556 L80.6410127,48.9460444 L79.5949336,48.9460444 L79.5949336,49.984977 L78.6962038,49.984977 L78.6962038,48.9460444 L77.6501247,48.9460444 L77.6501247,48.0539556 L78.6962038,48.0539556 L78.6962038,47.0145218 L79.5949336,47.0145218 Z M74.8086045,47.0145218 L74.8086045,48.0539556 L75.8546836,48.0539556 L75.8546836,48.9460444 L74.8086045,48.9460444 L74.8086045,49.984977 L73.9098747,49.984977 L73.9098747,48.9460444 L72.8637956,48.9460444 L72.8637956,48.0539556 L73.9098747,48.0539556 L73.9098747,47.0145218 L74.8086045,47.0145218 Z M70.0222754,47.0145218 L70.0222754,48.0539556 L71.0683545,48.0539556 L71.0683545,48.9460444 L70.0222754,48.9460444 L70.0222754,49.984977 L69.1235456,49.984977 L69.1235456,48.9460444 L68.0774665,48.9460444 L68.0774665,48.0539556 L69.1235456,48.0539556 L69.1235456,47.0145218 L70.0222754,47.0145218 Z M65.2359463,47.0145218 L65.2359463,48.0539556 L66.2820254,48.0539556 L66.2820254,48.9460444 L65.2359463,48.9460444 L65.2359463,49.984977 L64.3372165,49.984977 L64.3372165,48.9460444 L63.2911374,48.9460444 L63.2911374,48.0539556 L64.3372165,48.0539556 L64.3372165,47.0145218 L65.2359463,47.0145218 Z M60.4496172,47.0145218 L60.4496172,48.0539556 L61.4956963,48.0539556 L61.4956963,48.9460444 L60.4496172,48.9460444 L60.4496172,49.984977 L59.5508874,49.984977 L59.5508874,48.9460444 L58.5048083,48.9460444 L58.5048083,48.0539556 L59.5508874,48.0539556 L59.5508874,47.0145218 L60.4496172,47.0145218 Z M55.6627835,47.0145218 L55.6627835,48.0539556 L56.7093672,48.0539556 L56.7093672,48.9460444 L55.6627835,48.9460444 L55.6627835,49.984977 L54.7645583,49.984977 L54.7645583,48.9460444 L53.7184792,48.9460444 L53.7184792,48.0539556 L54.7645583,48.0539556 L54.7645583,47.0145218 L55.6627835,47.0145218 Z M50.876959,47.0145218 L50.876959,48.0539556 L51.9230381,48.0539556 L51.9230381,48.9460444 L50.876959,48.9460444 L50.876959,49.984977 L49.9782292,49.984977 L49.9782292,48.9460444 L48.9321501,48.9460444 L48.9321501,48.0539556 L49.9782292,48.0539556 L49.9782292,47.0145218 L50.876959,47.0145218 Z M46.0906299,47.0145218 L46.0906299,48.0539556 L47.136709,48.0539556 L47.136709,48.9460444 L46.0906299,48.9460444 L46.0906299,49.984977 L45.1919001,49.984977 L45.1919001,48.9460444 L44.145821,48.9460444 L44.145821,48.0539556 L45.1919001,48.0539556 L45.1919001,47.0145218 L46.0906299,47.0145218 Z M41.3037962,47.0145218 L41.3037962,48.0539556 L42.3503799,48.0539556 L42.3503799,48.9460444 L41.3037962,48.9460444 L41.3037962,49.984977 L40.405571,49.984977 L40.405571,48.9460444 L39.3589873,48.9460444 L39.3589873,48.0539556 L40.405571,48.0539556 L40.405571,47.0145218 L41.3037962,47.0145218 Z M36.5179717,47.0145218 L36.5179717,48.0539556 L37.5640508,48.0539556 L37.5640508,48.9460444 L36.5179717,48.9460444 L36.5179717,49.984977 L35.6192419,49.984977 L35.6192419,48.9460444 L34.5726582,48.9460444 L34.5726582,48.0539556 L35.6192419,48.0539556 L35.6192419,47.0145218 L36.5179717,47.0145218 Z M79.5949336,42.2608914 L79.5949336,43.3003252 L80.6410127,43.3003252 L80.6410127,44.1924139 L79.5949336,44.1924139 L79.5949336,45.2313466 L78.6962038,45.2313466 L78.6962038,44.1924139 L77.6501247,44.1924139 L77.6501247,43.3003252 L78.6962038,43.3003252 L78.6962038,42.2608914 L79.5949336,42.2608914 Z M74.8086045,42.2608914 L74.8086045,43.3003252 L75.8546836,43.3003252 L75.8546836,44.1924139 L74.8086045,44.1924139 L74.8086045,45.2313466 L73.9098747,45.2313466 L73.9098747,44.1924139 L72.8637956,44.1924139 L72.8637956,43.3003252 L73.9098747,43.3003252 L73.9098747,42.2608914 L74.8086045,42.2608914 Z M70.0222754,42.2608914 L70.0222754,43.3003252 L71.0683545,43.3003252 L71.0683545,44.1924139 L70.0222754,44.1924139 L70.0222754,45.2313466 L69.1235456,45.2313466 L69.1235456,44.1924139 L68.0774665,44.1924139 L68.0774665,43.3003252 L69.1235456,43.3003252 L69.1235456,42.2608914 L70.0222754,42.2608914 Z M65.2359463,42.2608914 L65.2359463,43.3003252 L66.2820254,43.3003252 L66.2820254,44.1924139 L65.2359463,44.1924139 L65.2359463,45.2313466 L64.3372165,45.2313466 L64.3372165,44.1924139 L63.2911374,44.1924139 L63.2911374,43.3003252 L64.3372165,43.3003252 L64.3372165,42.2608914 L65.2359463,42.2608914 Z M60.4496172,42.2608914 L60.4496172,43.3003252 L61.4956963,43.3003252 L61.4956963,44.1924139 L60.4496172,44.1924139 L60.4496172,45.2313466 L59.5508874,45.2313466 L59.5508874,44.1924139 L58.5048083,44.1924139 L58.5048083,43.3003252 L59.5508874,43.3003252 L59.5508874,42.2608914 L60.4496172,42.2608914 Z M55.6627835,42.2608914 L55.6627835,43.3003252 L56.7093672,43.3003252 L56.7093672,44.1924139 L55.6627835,44.1924139 L55.6627835,45.2313466 L54.7645583,45.2313466 L54.7645583,44.1924139 L53.7184792,44.1924139 L53.7184792,43.3003252 L54.7645583,43.3003252 L54.7645583,42.2608914 L55.6627835,42.2608914 Z M50.876959,42.2608914 L50.876959,43.3003252 L51.9230381,43.3003252 L51.9230381,44.1924139 L50.876959,44.1924139 L50.876959,45.2313466 L49.9782292,45.2313466 L49.9782292,44.1924139 L48.9321501,44.1924139 L48.9321501,43.3003252 L49.9782292,43.3003252 L49.9782292,42.2608914 L50.876959,42.2608914 Z M46.0906299,42.2608914 L46.0906299,43.3003252 L47.136709,43.3003252 L47.136709,44.1924139 L46.0906299,44.1924139 L46.0906299,45.2313466 L45.1919001,45.2313466 L45.1919001,44.1924139 L44.145821,44.1924139 L44.145821,43.3003252 L45.1919001,43.3003252 L45.1919001,42.2608914 L46.0906299,42.2608914 Z M41.3037962,42.2608914 L41.3037962,43.3003252 L42.3503799,43.3003252 L42.3503799,44.1924139 L41.3037962,44.1924139 L41.3037962,45.2313466 L40.405571,45.2313466 L40.405571,44.1924139 L39.3589873,44.1924139 L39.3589873,43.3003252 L40.405571,43.3003252 L40.405571,42.2608914 L41.3037962,42.2608914 Z M79.5949336,37.5072609 L79.5949336,38.5466947 L80.6410127,38.5466947 L80.6410127,39.4387835 L79.5949336,39.4387835 L79.5949336,40.4777161 L78.6962038,40.4777161 L78.6962038,39.4387835 L77.6501247,39.4387835 L77.6501247,38.5466947 L78.6962038,38.5466947 L78.6962038,37.5072609 L79.5949336,37.5072609 Z M74.8086045,37.5072609 L74.8086045,38.5466947 L75.8546836,38.5466947 L75.8546836,39.4387835 L74.8086045,39.4387835 L74.8086045,40.4777161 L73.9098747,40.4777161 L73.9098747,39.4387835 L72.8637956,39.4387835 L72.8637956,38.5466947 L73.9098747,38.5466947 L73.9098747,37.5072609 L74.8086045,37.5072609 Z M70.0222754,37.5072609 L70.0222754,38.5466947 L71.0683545,38.5466947 L71.0683545,39.4387835 L70.0222754,39.4387835 L70.0222754,40.4777161 L69.1235456,40.4777161 L69.1235456,39.4387835 L68.0774665,39.4387835 L68.0774665,38.5466947 L69.1235456,38.5466947 L69.1235456,37.5072609 L70.0222754,37.5072609 Z M65.2359463,37.5072609 L65.2359463,38.5466947 L66.2820254,38.5466947 L66.2820254,39.4387835 L65.2359463,39.4387835 L65.2359463,40.4777161 L64.3372165,40.4777161 L64.3372165,39.4387835 L63.2911374,39.4387835 L63.2911374,38.5466947 L64.3372165,38.5466947 L64.3372165,37.5072609 L65.2359463,37.5072609 Z M60.4496172,37.5072609 L60.4496172,38.5466947 L61.4956963,38.5466947 L61.4956963,39.4387835 L60.4496172,39.4387835 L60.4496172,40.4777161 L59.5508874,40.4777161 L59.5508874,39.4387835 L58.5048083,39.4387835 L58.5048083,38.5466947 L59.5508874,38.5466947 L59.5508874,37.5072609 L60.4496172,37.5072609 Z M55.6627835,37.5072609 L55.6627835,38.5466947 L56.7093672,38.5466947 L56.7093672,39.4387835 L55.6627835,39.4387835 L55.6627835,40.4777161 L54.7645583,40.4777161 L54.7645583,39.4387835 L53.7184792,39.4387835 L53.7184792,38.5466947 L54.7645583,38.5466947 L54.7645583,37.5072609 L55.6627835,37.5072609 Z M50.876959,37.5072609 L50.876959,38.5466947 L51.9230381,38.5466947 L51.9230381,39.4387835 L50.876959,39.4387835 L50.876959,40.4777161 L49.9782292,40.4777161 L49.9782292,39.4387835 L48.9321501,39.4387835 L48.9321501,38.5466947 L49.9782292,38.5466947 L49.9782292,37.5072609 L50.876959,37.5072609 Z M46.0906299,37.5072609 L46.0906299,38.5466947 L47.136709,38.5466947 L47.136709,39.4387835 L46.0906299,39.4387835 L46.0906299,40.4777161 L45.1919001,40.4777161 L45.1919001,39.4387835 L44.145821,39.4387835 L44.145821,38.5466947 L45.1919001,38.5466947 L45.1919001,37.5072609 L46.0906299,37.5072609 Z M41.3037962,37.5072609 L41.3037962,38.5466947 L42.3503799,38.5466947 L42.3503799,39.4387835 L41.3037962,39.4387835 L41.3037962,40.4777161 L40.405571,40.4777161 L40.405571,39.4387835 L39.3589873,39.4387835 L39.3589873,38.5466947 L40.405571,38.5466947 L40.405571,37.5072609 L41.3037962,37.5072609 Z M74.8086045,32.7531293 L74.8086045,33.7930642 L75.8546836,33.7930642 L75.8546836,34.685153 L74.8086045,34.685153 L74.8086045,35.7240857 L73.9098747,35.7240857 L73.9098747,34.685153 L72.8637956,34.685153 L72.8637956,33.7930642 L73.9098747,33.7930642 L73.9098747,32.7531293 L74.8086045,32.7531293 Z M70.0222754,32.7531293 L70.0222754,33.7930642 L71.0683545,33.7930642 L71.0683545,34.685153 L70.0222754,34.685153 L70.0222754,35.7240857 L69.1235456,35.7240857 L69.1235456,34.685153 L68.0774665,34.685153 L68.0774665,33.7930642 L69.1235456,33.7930642 L69.1235456,32.7531293 L70.0222754,32.7531293 Z M65.2359463,32.7531293 L65.2359463,33.7930642 L66.2820254,33.7930642 L66.2820254,34.685153 L65.2359463,34.685153 L65.2359463,35.7240857 L64.3372165,35.7240857 L64.3372165,34.685153 L63.2911374,34.685153 L63.2911374,33.7930642 L64.3372165,33.7930642 L64.3372165,32.7531293 L65.2359463,32.7531293 Z M60.4496172,32.7531293 L60.4496172,33.7930642 L61.4956963,33.7930642 L61.4956963,34.685153 L60.4496172,34.685153 L60.4496172,35.7240857 L59.5508874,35.7240857 L59.5508874,34.685153 L58.5048083,34.685153 L58.5048083,33.7930642 L59.5508874,33.7930642 L59.5508874,32.7531293 L60.4496172,32.7531293 Z M55.6627835,32.7531293 L55.6627835,33.7930642 L56.7093672,33.7930642 L56.7093672,34.685153 L55.6627835,34.685153 L55.6627835,35.7240857 L54.7645583,35.7240857 L54.7645583,34.685153 L53.7184792,34.685153 L53.7184792,33.7930642 L54.7645583,33.7930642 L54.7645583,32.7531293 L55.6627835,32.7531293 Z M50.876959,32.7531293 L50.876959,33.7930642 L51.9230381,33.7930642 L51.9230381,34.685153 L50.876959,34.685153 L50.876959,35.7240857 L49.9782292,35.7240857 L49.9782292,34.685153 L48.9321501,34.685153 L48.9321501,33.7930642 L49.9782292,33.7930642 L49.9782292,32.7531293 L50.876959,32.7531293 Z M65.2359463,28 L65.2359463,29.0394338 L66.2820254,29.0394338 L66.2820254,29.9315226 L65.2359463,29.9315226 L65.2359463,30.9704552 L64.3372165,30.9704552 L64.3372165,29.9315226 L63.2911374,29.9315226 L63.2911374,29.0394338 L64.3372165,29.0394338 L64.3372165,28 L65.2359463,28 Z M93.9539209,51.7681523 L93.9539209,52.8075861 L95,52.8075861 L95,53.6996748 L93.9539209,53.6996748 L93.9539209,54.7386075 L93.0556957,54.7386075 L93.0556957,53.6996748 L92.009112,53.6996748 L92.009112,52.8075861 L93.0556957,52.8075861 L93.0556957,51.7681523 L93.9539209,51.7681523 Z M93.9539209,47.0145218 L93.9539209,48.0539556 L95,48.0539556 L95,48.9460444 L93.9539209,48.9460444 L93.9539209,49.984977 L93.0556957,49.984977 L93.0556957,48.9460444 L92.009112,48.9460444 L92.009112,48.0539556 L93.0556957,48.0539556 L93.0556957,47.0145218 L93.9539209,47.0145218 Z" id="Shape" fill="#FFFFFE"></path>
                <g id="Group-18" transform="translate(25.000000, 11.000000)" fill="#FFFFFE">
                    <path d="M1.30537037,9.02333333 C1.48361111,9.39866667 1.72731481,9.69866667 2.03842593,9.92133333 C2.34888889,10.1446667 2.71638889,10.304 3.14157407,10.4006667 C3.56546296,10.4973333 4.01851852,10.546 4.50268519,10.546 C4.78009259,10.546 5.08148148,10.5053333 5.40685185,10.4233333 C5.73222222,10.3433333 6.03555556,10.2126667 6.3175,10.0353333 C6.59814815,9.85866667 6.83277778,9.62933333 7.01944444,9.35 C7.20611111,9.07133333 7.30074074,8.73333333 7.30074074,8.338 C7.30074074,8.03333333 7.23398148,7.76933333 7.10046296,7.546 C6.96759259,7.32266667 6.79453704,7.13466667 6.58194444,6.982 C6.37,6.83 6.13666667,6.706 5.88,6.60866667 C5.62333333,6.51266667 5.3712037,6.43466667 5.12425926,6.37333333 L2.77083333,5.77866667 C2.46425926,5.698 2.16611111,5.59666667 1.87574074,5.47533333 C1.58407407,5.35266667 1.32935185,5.19066667 1.11287037,4.98666667 C0.896388889,4.78533333 0.720092593,4.536 0.587222222,4.24133333 C0.455,3.94733333 0.387592593,3.58666667 0.387592593,3.16066667 C0.387592593,2.89666667 0.436851852,2.58666667 0.53537037,2.23066667 C0.633240741,1.87666667 0.818611111,1.54066667 1.09148148,1.226 C1.36240741,0.912 1.73444444,0.644666667 2.20888889,0.426666667 C2.68138889,0.208666667 3.28805556,0.0993333333 4.02953704,0.0993333333 C4.55259259,0.0993333333 5.04972222,0.17 5.52481481,0.312666667 C5.99796296,0.455333333 6.41277778,0.668666667 6.76796296,0.952 C7.12314815,1.23733333 7.40638889,1.58933333 7.61833333,2.01066667 C7.83027778,2.432 7.93787037,2.92266667 7.93787037,3.48 L6.93194444,3.48 C6.9112037,3.064 6.81981481,2.70066667 6.65712963,2.39066667 C6.49444444,2.082 6.28185185,1.82333333 6.02064815,1.61533333 C5.7587963,1.40666667 5.45740741,1.24933333 5.11777778,1.14333333 C4.7775,1.03666667 4.41907407,0.983333333 4.0437963,0.983333333 C3.69833333,0.983333333 3.36583333,1.02066667 3.045,1.09733333 C2.72481481,1.17266667 2.44287037,1.29533333 2.20240741,1.46266667 C1.9587037,1.63 1.76490741,1.85066667 1.61583333,2.12466667 C1.46805556,2.4 1.39481481,2.73933333 1.39481481,3.14533333 C1.39481481,3.4 1.43564815,3.62 1.51990741,3.80733333 C1.60481481,3.99533333 1.72018519,4.15533333 1.86796296,4.28666667 C2.01703704,4.41933333 2.1862037,4.526 2.37740741,4.60666667 C2.57055556,4.68866667 2.77537037,4.754 2.99185185,4.80466667 L5.56953704,5.45933333 C5.94416667,5.56066667 6.29675926,5.686 6.62861111,5.832 C6.95851852,5.98 7.25018519,6.16333333 7.50037037,6.38133333 C7.7537963,6.59933333 7.95018519,6.866 8.09342593,7.18 C8.23537037,7.49533333 8.30796296,7.87533333 8.30796296,8.32266667 C8.30796296,8.444 8.29564815,8.60666667 8.27166667,8.81 C8.24638889,9.01333333 8.18740741,9.22866667 8.09342593,9.45666667 C7.99944444,9.68466667 7.86722222,9.91666667 7.69287037,10.15 C7.51981481,10.384 7.28388889,10.5946667 6.9825,10.7813333 C6.68111111,10.97 6.30907407,11.1226667 5.86444444,11.2386667 C5.42046296,11.3553333 4.88833333,11.4133333 4.26675926,11.4133333 C3.64518519,11.4133333 3.06703704,11.3406667 2.53425926,11.1926667 C2.00212963,11.0453333 1.54648148,10.82 1.17314815,10.5146667 C0.797222222,10.21 0.508148148,9.82 0.305277778,9.34266667 C0.103055556,8.866 0.0175,8.292 0.047962963,7.622 L1.05388889,7.622 C1.04287037,8.18066667 1.12712963,8.648 1.30537037,9.02333333" id="Fill-482"></path>
                    <polyline id="Fill-483" points="10.0255556 3.34266667 11.9803704 10.074 12.0088889 10.074 13.8736111 3.34266667 14.9262037 3.34266667 16.7902778 10.074 16.8207407 10.074 18.7749074 3.34266667 19.7665741 3.34266667 17.3100926 11.2006667 16.287963 11.2006667 14.4076852 4.592 14.3778704 4.592 12.5125 11.2006667 11.4910185 11.2006667 9.03324074 3.34266667 10.0255556 3.34266667"></polyline>
                    <polygon id="Fill-484" points="20.847037 1.866 21.7797222 1.866 21.7797222 0.328 20.847037 0.328"></polygon>
                    <polygon id="Fill-485" points="20.847037 11.2006667 21.7797222 11.2006667 21.7797222 3.34266667 20.847037 3.34266667"></polygon>
                    <path d="M28.0421296,4.87266667 C27.9338889,4.65466667 27.7874074,4.47533333 27.6059259,4.33266667 C27.4231481,4.19066667 27.2137963,4.08733333 26.9759259,4.02066667 C26.7387037,3.95466667 26.4878704,3.92133333 26.2201852,3.92133333 C26.0134259,3.92133333 25.8040741,3.94466667 25.5921296,3.99066667 C25.379537,4.03533333 25.1844444,4.112 25.0068519,4.21866667 C24.8305556,4.32533333 24.6853704,4.46533333 24.5771296,4.63733333 C24.4688889,4.81 24.4157407,5.02333333 24.4157407,5.27666667 C24.4157407,5.49 24.4662963,5.67133333 24.5693519,5.81733333 C24.6737037,5.96466667 24.8052778,6.08866667 24.9627778,6.19066667 C25.1202778,6.292 25.2933333,6.376 25.4806481,6.442 C25.6686111,6.50733333 25.8410185,6.56066667 25.9991667,6.602 L27.2416667,6.89066667 C27.51,6.93133333 27.7725,7.006 28.035,7.112 C28.2949074,7.21933333 28.5275926,7.35733333 28.7298148,7.53133333 C28.9326852,7.70333333 29.0973148,7.91666667 29.2262963,8.17066667 C29.3539815,8.42466667 29.4181481,8.72333333 29.4181481,9.06866667 C29.4181481,9.49533333 29.3235185,9.85866667 29.1368519,10.1566667 C28.9501852,10.4566667 28.7097222,10.7013333 28.4193519,10.888 C28.1289815,11.0766667 27.8003704,11.21 27.4348148,11.292 C27.0699074,11.3726667 26.709537,11.4133333 26.3537037,11.4133333 C25.4566667,11.4133333 24.7281481,11.1953333 24.1700926,10.7593333 C23.6133333,10.3233333 23.2957407,9.622 23.2160185,8.65733333 L24.1480556,8.65733333 C24.1869444,9.30666667 24.417037,9.79733333 24.8376852,10.1273333 C25.257037,10.4566667 25.7775,10.622 26.3990741,10.622 C26.6252778,10.622 26.8592593,10.5966667 27.102963,10.546 C27.3434259,10.4953333 27.567037,10.4086667 27.7750926,10.2866667 C27.9818519,10.164 28.152963,10.0106667 28.2858333,9.822 C28.4193519,9.634 28.485463,9.40333333 28.485463,9.13 C28.485463,8.89533333 28.4394444,8.70133333 28.3461111,8.54333333 C28.2514815,8.386 28.1263889,8.25333333 27.9675926,8.14733333 C27.8094444,8.04066667 27.6299074,7.95266667 27.4276852,7.88066667 C27.225463,7.81 27.0206481,7.74933333 26.8132407,7.69866667 L25.6135185,7.42466667 C25.3069444,7.34266667 25.0269444,7.24866667 24.7696296,7.142 C24.5136111,7.03533333 24.2893519,6.904 24.0962037,6.74666667 C23.905,6.58933333 23.7533333,6.396 23.6450926,6.168 C23.5362037,5.93866667 23.4824074,5.65733333 23.4824074,5.32266667 C23.4824074,4.926 23.567963,4.58666667 23.7410185,4.30266667 C23.9147222,4.018 24.1383333,3.79 24.4157407,3.618 C24.6905556,3.444 24.9990741,3.318 25.3412963,3.236 C25.6802778,3.15533333 26.017963,3.11466667 26.3537037,3.11466667 C26.7387037,3.11466667 27.0977778,3.16533333 27.4276852,3.26666667 C27.7575926,3.36866667 28.0499074,3.526 28.3007407,3.73933333 C28.5528704,3.95266667 28.7531481,4.21666667 28.8996296,4.53066667 C29.0493519,4.84533333 29.1323148,5.21666667 29.1530556,5.64266667 L28.2203704,5.64266667 C28.21,5.34733333 28.1510185,5.09266667 28.0421296,4.87266667" id="Fill-486"></path>
                    <path d="M35.2365741,4.87266667 C35.1283333,4.65466667 34.9831481,4.47533333 34.8010185,4.33266667 C34.6175926,4.19066667 34.4082407,4.08733333 34.1710185,4.02066667 C33.9337963,3.95466667 33.682963,3.92133333 33.4152778,3.92133333 C33.2085185,3.92133333 32.9985185,3.94466667 32.7865741,3.99066667 C32.5746296,4.03533333 32.3788889,4.112 32.2025926,4.21866667 C32.025,4.32533333 31.880463,4.46533333 31.7722222,4.63733333 C31.6639815,4.81 31.6108333,5.02333333 31.6108333,5.27666667 C31.6108333,5.49 31.6613889,5.67133333 31.7650926,5.81733333 C31.8681481,5.96466667 31.9997222,6.08866667 32.1572222,6.19066667 C32.3160185,6.292 32.4877778,6.376 32.6757407,6.442 C32.8637037,6.50733333 33.0361111,6.56066667 33.1936111,6.602 L34.4374074,6.89066667 C34.7044444,6.93133333 34.9669444,7.006 35.2300926,7.112 C35.49,7.21933333 35.7226852,7.35733333 35.9249074,7.53133333 C36.1271296,7.70333333 36.2924074,7.91666667 36.422037,8.17066667 C36.5490741,8.42466667 36.6125926,8.72333333 36.6125926,9.06866667 C36.6125926,9.49533333 36.5192593,9.85866667 36.3325926,10.1566667 C36.1459259,10.4566667 35.9048148,10.7013333 35.6137963,10.888 C35.3234259,11.0766667 34.9948148,11.21 34.6299074,11.292 C34.2643519,11.3726667 33.9046296,11.4133333 33.5494444,11.4133333 C32.6517593,11.4133333 31.9225926,11.1953333 31.3651852,10.7593333 C30.8077778,10.3233333 30.4901852,9.622 30.410463,8.65733333 L31.3437963,8.65733333 C31.3813889,9.30666667 31.6121296,9.79733333 32.0321296,10.1273333 C32.4521296,10.4566667 32.9719444,10.622 33.5935185,10.622 C33.8203704,10.622 34.0537037,10.5966667 34.2974074,10.546 C34.5378704,10.4953333 34.7621296,10.4086667 34.969537,10.2866667 C35.1769444,10.164 35.3474074,10.0106667 35.4802778,9.822 C35.6137963,9.634 35.6805556,9.40333333 35.6805556,9.13 C35.6805556,8.89533333 35.6351852,8.70133333 35.5405556,8.54333333 C35.4472222,8.386 35.3214815,8.25333333 35.162037,8.14733333 C35.004537,8.04066667 34.825,7.95266667 34.6227778,7.88066667 C34.4205556,7.81 34.2150926,7.74933333 34.0083333,7.69866667 L32.807963,7.42466667 C32.5026852,7.34266667 32.2213889,7.24866667 31.9653704,7.142 C31.7080556,7.03533333 31.4837963,6.904 31.2919444,6.74666667 C31.1000926,6.58933333 30.9477778,6.396 30.839537,6.168 C30.7312963,5.93866667 30.6768519,5.65733333 30.6768519,5.32266667 C30.6768519,4.926 30.7624074,4.58666667 30.9361111,4.30266667 C31.1091667,4.018 31.3334259,3.79 31.6108333,3.618 C31.8856481,3.444 32.1935185,3.318 32.5357407,3.236 C32.8760185,3.15533333 33.2130556,3.11466667 33.5494444,3.11466667 C33.9337963,3.11466667 34.2922222,3.16533333 34.6227778,3.26666667 C34.9526852,3.36866667 35.2443519,3.526 35.4964815,3.73933333 C35.747963,3.95266667 35.9475926,4.21666667 36.0953704,4.53066667 C36.2444444,4.84533333 36.3274074,5.21666667 36.3475,5.64266667 L35.415463,5.64266667 C35.4044444,5.34733333 35.345463,5.09266667 35.2365741,4.87266667" id="Fill-487"></path>
                    <path d="M44.5115741,4.538 C44.3981481,4.76666667 44.2490741,4.95 44.0669444,5.086 C43.8848148,5.22333333 43.6858333,5.32266667 43.4687037,5.38333333 C43.2502778,5.444 43.0383333,5.47533333 42.8309259,5.47533333 L40.1216667,5.47533333 L40.1216667,1.88133333 L42.8607407,1.88133333 C43.1063889,1.88133333 43.3390741,1.90666667 43.5562037,1.95733333 C43.7739815,2.008 43.9651852,2.102 44.1330556,2.24 C44.3022222,2.376 44.4344444,2.562 44.532963,2.79466667 C44.6321296,3.02933333 44.682037,3.32266667 44.682037,3.678 C44.682037,4.02333333 44.625,4.31066667 44.5115741,4.538 Z M46.3912037,2.59666667 C46.2972222,2.20133333 46.1222222,1.83533333 45.8662037,1.50133333 C45.6088889,1.16533333 45.2439815,0.886 44.7701852,0.663333333 C44.297037,0.440666667 43.6858333,0.328 42.9339815,0.328 L38.2705556,0.328 L38.2705556,11.2006667 L40.1216667,11.2006667 L40.1216667,7.028 L42.9339815,7.028 C43.6858333,7.028 44.297037,6.91866667 44.7701852,6.70066667 C45.2439815,6.48266667 45.6088889,6.206 45.8662037,5.87066667 C46.1222222,5.536 46.2972222,5.17333333 46.3912037,4.78266667 C46.4851852,4.39066667 46.5318519,4.028 46.5318519,3.69333333 C46.5318519,3.35866667 46.4851852,2.99333333 46.3912037,2.59666667 Z" id="Fill-488"></path>
                    <path d="M52.127963,8.55133333 C52.127963,8.82466667 52.0625,9.05666667 51.935463,9.244 C51.8077778,9.432 51.6463889,9.586 51.4538889,9.708 C51.262037,9.83 51.0565741,9.91666667 50.8394444,9.96733333 C50.6223148,10.018 50.4194444,10.0426667 50.2327778,10.0426667 C50.085,10.0426667 49.9190741,10.028 49.7369444,9.99666667 C49.5548148,9.96733333 49.3862963,9.914 49.2346296,9.83733333 C49.0803704,9.76133333 48.9500926,9.65733333 48.8418519,9.52533333 C48.732963,9.394 48.6778704,9.23133333 48.6778704,9.038 C48.6778704,8.81533333 48.7161111,8.624 48.7887037,8.46666667 C48.8632407,8.30933333 48.9643519,8.18333333 49.0913889,8.086 C49.2210185,7.98933333 49.3687963,7.914 49.537963,7.85866667 C49.704537,7.80266667 49.8775926,7.75933333 50.0564815,7.728 C50.4291667,7.65733333 50.8050926,7.604 51.1803704,7.568 C51.5543519,7.53333333 51.8706481,7.42933333 52.127963,7.256 L52.127963,8.55133333 Z M54.3925926,10.0426667 C54.3232407,10.0426667 54.2642593,10.0426667 54.215,10.0426667 C54.0575,10.0426667 53.9505556,9.99666667 53.8967593,9.90666667 C53.842963,9.81533333 53.8150926,9.66266667 53.8150926,9.44933333 L53.8150926,5.39866667 C53.8150926,4.982 53.7269444,4.63 53.5493519,4.34 C53.3711111,4.05133333 53.1364815,3.81466667 52.8461111,3.63266667 C52.5544444,3.44933333 52.2271296,3.31733333 51.8609259,3.236 C51.4966667,3.15533333 51.1259259,3.11466667 50.7512963,3.11466667 C50.3261111,3.11466667 49.9112963,3.15533333 49.5062037,3.236 C49.1017593,3.31733333 48.7400926,3.46 48.4192593,3.662 C48.0984259,3.86533333 47.8339815,4.13466667 47.6272222,4.47 C47.4198148,4.80466667 47.3025,5.226 47.272037,5.734 L48.9591667,5.734 C48.9980556,5.308 49.1711111,4.99333333 49.4776852,4.79 C49.7836111,4.58666667 50.1737963,4.48533333 50.6475926,4.48533333 C50.8148148,4.48533333 50.9930556,4.49733333 51.1803704,4.52333333 C51.3663889,4.54866667 51.5375,4.59933333 51.690463,4.676 C51.8440741,4.75133333 51.9717593,4.86066667 52.0748148,5.00333333 C52.1785185,5.14533333 52.2316667,5.328 52.2316667,5.55133333 C52.2316667,5.80466667 52.1687963,5.99533333 52.0462963,6.122 C51.9237963,6.248 51.7546296,6.34266667 51.5426852,6.40333333 C51.3307407,6.464 51.0876852,6.50733333 50.8102778,6.53333333 C50.5328704,6.55866667 50.2425,6.602 49.9365741,6.662 C49.5813889,6.70333333 49.2275,6.76133333 48.8775,6.83733333 C48.5281481,6.914 48.2131481,7.038 47.9305556,7.21133333 C47.6492593,7.384 47.4224074,7.622 47.25,7.92666667 C47.0775926,8.23133333 46.9907407,8.62666667 46.9907407,9.11466667 C46.9907407,9.5 47.0626852,9.83733333 47.2052778,10.1273333 C47.3472222,10.416 47.5403704,10.6553333 47.7821296,10.8426667 C48.0251852,11.0306667 48.3032407,11.1733333 48.6201852,11.2686667 C48.9358333,11.3653333 49.2657407,11.4133333 49.6099074,11.4133333 C50.0649074,11.4133333 50.535463,11.338 51.0248148,11.1853333 C51.5141667,11.0333333 51.9250926,10.7893333 52.2608333,10.4546667 C52.3301852,10.81 52.4773148,11.058 52.705463,11.2006667 C52.9316667,11.3433333 53.2175,11.4133333 53.5642593,11.4133333 C53.632963,11.4133333 53.7159259,11.4086667 53.8150926,11.3986667 C53.9136111,11.3873333 54.0121296,11.3726667 54.1112963,11.3526667 C54.2098148,11.3313333 54.3063889,11.3093333 54.4003704,11.2846667 C54.4943519,11.2586667 54.5708333,11.236 54.6291667,11.2153333 L54.6291667,10.0133333 C54.5403704,10.0333333 54.4619444,10.0426667 54.3925926,10.0426667 Z" id="Fill-489"></path>
                    <path d="M56.9689815,8.67266667 C57.0182407,9.18066667 57.2049074,9.536 57.5315741,9.738 C57.8582407,9.94133333 58.2471296,10.0426667 58.7014815,10.0426667 C58.8583333,10.0426667 59.0385185,10.0306667 59.2413889,10.0046667 C59.4436111,9.98 59.6341667,9.93133333 59.8117593,9.86066667 C59.9893519,9.78933333 60.1351852,9.68466667 60.247963,9.54866667 C60.3613889,9.41133333 60.4132407,9.23133333 60.4041667,9.008 C60.3931481,8.784 60.3147222,8.602 60.1662963,8.45933333 C60.0198148,8.318 59.8292593,8.20266667 59.5965741,8.11733333 C59.3638889,8.03066667 59.1013889,7.95733333 58.8051852,7.89666667 C58.5089815,7.83466667 58.2075926,7.76933333 57.9016667,7.69866667 C57.5860185,7.628 57.282037,7.54066667 56.9910185,7.43933333 C56.7006481,7.338 56.4387963,7.2 56.2061111,7.028 C55.9740741,6.856 55.7893519,6.63466667 55.6512963,6.366 C55.5138889,6.09733333 55.4438889,5.764 55.4438889,5.36866667 C55.4438889,4.942 55.5443519,4.584 55.7472222,4.294 C55.9494444,4.00533333 56.2061111,3.77266667 56.5178704,3.594 C56.8296296,3.41666667 57.1737963,3.292 57.5542593,3.22133333 C57.9327778,3.15066667 58.297037,3.11466667 58.6412037,3.11466667 C59.0365741,3.11466667 59.4144444,3.158 59.7741667,3.24466667 C60.1351852,3.33 60.4599074,3.47 60.7522222,3.662 C61.0425926,3.856 61.2843519,4.10733333 61.4775,4.41666667 C61.67,4.72666667 61.7905556,5.1 61.8398148,5.536 L60.0775,5.536 C59.9990741,5.12 59.8143519,4.84066667 59.5226852,4.69866667 C59.2316667,4.556 58.8991667,4.48533333 58.5232407,4.48533333 C58.4052778,4.48533333 58.2639815,4.49533333 58.1012963,4.516 C57.9392593,4.536 57.7856481,4.57466667 57.6424074,4.63 C57.4991667,4.686 57.3792593,4.76666667 57.2794444,4.87266667 C57.1809259,4.97933333 57.1316667,5.12 57.1316667,5.292 C57.1316667,5.50533333 57.202963,5.678 57.3475,5.81 C57.4900926,5.942 57.6780556,6.05133333 57.9113889,6.13666667 C58.1447222,6.224 58.4085185,6.29666667 58.7060185,6.35733333 C59.0022222,6.41933333 59.3087963,6.48533333 59.6263889,6.556 C59.932963,6.628 60.235,6.71333333 60.5331481,6.81466667 C60.8293519,6.91666667 61.0944444,7.054 61.3264815,7.22666667 C61.5591667,7.39866667 61.7471296,7.61666667 61.8903704,7.88066667 C62.0336111,8.14466667 62.1062037,8.46933333 62.1062037,8.856 C62.1062037,9.32333333 62.0025,9.718 61.7950926,10.0426667 C61.587037,10.368 61.3174074,10.6313333 60.9855556,10.8346667 C60.6543519,11.038 60.2868519,11.1853333 59.8811111,11.276 C59.4747222,11.368 59.075463,11.4133333 58.6794444,11.4133333 C58.1939815,11.4133333 57.7474074,11.3573333 57.3364815,11.2466667 C56.9255556,11.1346667 56.5690741,10.9646667 56.2683333,10.7353333 C55.9669444,10.508 55.7284259,10.224 55.5560185,9.88333333 C55.382963,9.54333333 55.2922222,9.13933333 55.2812037,8.67266667 L56.9689815,8.67266667" id="Fill-490"></path>
                    <path d="M64.7260185,8.67266667 C64.7765741,9.18066667 64.9638889,9.536 65.2892593,9.738 C65.6146296,9.94133333 66.0048148,10.0426667 66.4578704,10.0426667 C66.6166667,10.0426667 66.7975,10.0306667 66.9997222,10.0046667 C67.2012963,9.98 67.3918519,9.93133333 67.5687963,9.86066667 C67.747037,9.78933333 67.8915741,9.68466667 68.0056481,9.54866667 C68.1190741,9.41133333 68.1709259,9.23133333 68.1612037,9.008 C68.1521296,8.784 68.0724074,8.602 67.9252778,8.45933333 C67.7762037,8.318 67.5856481,8.20266667 67.3542593,8.11733333 C67.1228704,8.03066667 66.8584259,7.95733333 66.5628704,7.89666667 C66.2660185,7.83466667 65.9652778,7.76933333 65.6593519,7.69866667 C65.3437037,7.628 65.0397222,7.54066667 64.75,7.43933333 C64.4576852,7.338 64.1951852,7.2 63.9644444,7.028 C63.7324074,6.856 63.547037,6.63466667 63.4096296,6.366 C63.2696296,6.09733333 63.2028704,5.764 63.2028704,5.36866667 C63.2028704,4.942 63.3033333,4.584 63.5062037,4.294 C63.7071296,4.00533333 63.9644444,3.77266667 64.2749074,3.594 C64.5860185,3.41666667 64.9314815,3.292 65.3112963,3.22133333 C65.6917593,3.15066667 66.0527778,3.11466667 66.4001852,3.11466667 C66.7942593,3.11466667 67.1714815,3.158 67.5325,3.24466667 C67.8915741,3.33 68.2182407,3.47 68.507963,3.662 C68.8002778,3.856 69.0426852,4.10733333 69.2338889,4.41666667 C69.4263889,4.72666667 69.5469444,5.1 69.5975,5.536 L67.8358333,5.536 C67.7567593,5.12 67.5707407,4.84066667 67.2797222,4.69866667 C66.9893519,4.556 66.6555556,4.48533333 66.2822222,4.48533333 C66.1623148,4.48533333 66.0223148,4.49533333 65.8596296,4.516 C65.6969444,4.536 65.5433333,4.57466667 65.4000926,4.63 C65.2581481,4.686 65.1362963,4.76666667 65.0377778,4.87266667 C64.9386111,4.97933333 64.8887037,5.12 64.8887037,5.292 C64.8887037,5.50533333 64.9619444,5.678 65.104537,5.81 C65.2484259,5.942 65.4357407,6.05133333 65.6703704,6.13666667 C65.9011111,6.224 66.1662037,6.29666667 66.4624074,6.35733333 C66.7599074,6.41933333 67.0677778,6.48533333 67.3827778,6.556 C67.6919444,6.628 67.9933333,6.71333333 68.289537,6.81466667 C68.587037,6.91666667 68.8508333,7.054 69.0841667,7.22666667 C69.3168519,7.39866667 69.5048148,7.61666667 69.6480556,7.88066667 C69.7925926,8.14466667 69.8638889,8.46933333 69.8638889,8.856 C69.8638889,9.32333333 69.7601852,9.718 69.5521296,10.0426667 C69.3440741,10.368 69.0744444,10.6313333 68.7432407,10.8346667 C68.412037,11.038 68.0438889,11.1853333 67.6387963,11.276 C67.2330556,11.368 66.8318519,11.4133333 66.4358333,11.4133333 C65.9516667,11.4133333 65.5037963,11.3573333 65.0941667,11.2466667 C64.6832407,11.1346667 64.3274074,10.9646667 64.0253704,10.7353333 C63.7233333,10.508 63.4867593,10.224 63.3137037,9.88333333 C63.14,9.54333333 63.0486111,9.13933333 63.0388889,8.67266667 L64.7260185,8.67266667" id="Fill-491"></path>
                </g>
            </g>
        </g>
    </g>
</svg>