<?xml version="1.0" encoding="UTF-8" standalone="no"?>
<svg width="120px" height="80px" viewBox="0 0 120 80" version="1.1" xmlns="http://www.w3.org/2000/svg" xmlns:xlink="http://www.w3.org/1999/xlink">
    <!-- Generator: Sketch 3.7.2 (28276) - http://www.bohemiancoding.com/sketch -->
    <title>card_swissbilling</title>
    <desc>Created with Sketch.</desc>
    <defs>
        <polygon id="path-1" points="0 17.7780358 90.8525638 17.7780358 90.8525638 -5.37313433e-05 0 -5.37313433e-05"></polygon>
    </defs>
    <g id="assets-card-icons" stroke="none" stroke-width="1" fill="none" fill-rule="evenodd">
        <g id="production-final" transform="translate(-361.000000, -2607.000000)">
            <g id="card_swissbilling" transform="translate(361.000000, 2607.000000)">
                <rect id="Rectangle-11" fill="#FFFFFF" x="0" y="0" width="120" height="80" rx="4"></rect>
                <g id="Page-1" transform="translate(14.000000, 31.000000)">
                    <path d="M0.427862018,11.9939104 C0.933357567,12.3227463 1.82769585,12.6709254 2.68341988,12.6709254 C3.92771662,12.6709254 4.51098071,12.0519403 4.51098071,11.2779403 C4.51098071,10.465791 4.0249273,10.0206269 2.76118843,9.55638806 C1.06945252,8.95674627 0.272324926,8.02826866 0.272324926,6.90635821 C0.272324926,5.39731343 1.49717953,4.15907463 3.51943175,4.15907463 C4.47209644,4.15907463 5.30810831,4.43014925 5.83331602,4.73964179 L5.40558902,5.97761194 C5.0359184,5.74549254 4.35544362,5.436 3.48054748,5.436 C2.46955638,5.436 1.90546439,6.01629851 1.90546439,6.71265672 C1.90546439,7.48665672 2.46955638,7.83483582 3.69441098,8.29907463 C5.32782047,8.9180597 6.16383234,9.73047761 6.16383234,11.1234627 C6.16383234,12.7676418 4.88038131,13.9285075 2.64426558,13.9285075 C1.61383234,13.9285075 0.661167656,13.6770448 0.000135014837,13.2899104 L0.427862018,11.9939104 L0.427862018,11.9939104 Z" id="Fill-1" fill="#ED1C24"></path>
                    <path d="M9.04072849,4.37195821 L10.2850252,9.13067463 C10.5572151,10.1754806 10.8099629,11.1426448 10.9849421,12.1100776 L11.0435386,12.1100776 C11.257132,11.1619881 11.5684763,10.1561373 11.8795504,9.15028657 L13.4154792,4.37195821 L14.8544674,4.37195821 L16.3126276,9.05357015 C16.6625861,10.1754806 16.934776,11.1619881 17.1486395,12.1100776 L17.2069659,12.1100776 C17.362503,11.1619881 17.6152507,10.1754806 17.926595,9.07291343 L19.2681024,4.37195821 L20.9598383,4.37195821 L17.926595,13.7349134 L16.370954,13.7349134 L14.9322359,9.26634627 C14.6017196,8.2215403 14.3292596,7.29306269 14.096224,6.19049552 L14.0573398,6.19049552 C13.8237641,7.31240597 13.532132,8.27957015 13.2016157,9.28568955 L11.6848591,13.7349134 L10.1294881,13.7349134 L7.29066617,4.37195821 L9.04072849,4.37195821 Z" id="Fill-3" fill="#ED1C24"></path>
                    <mask id="mask-2" fill="white">
                        <use xlink:href="#path-1"></use>
                    </mask>
                    <g id="Clip-6"></g>
                    <path d="M22.6695312,13.7350209 L24.3804392,13.7350209 L24.3804392,4.37206567 L22.6695312,4.37206567 L22.6695312,13.7350209 Z M24.5748605,1.74111045 C24.5945727,2.32140896 24.1665757,2.78564776 23.4861009,2.78564776 C22.8833947,2.78564776 22.4556677,2.32140896 22.4556677,1.74111045 C22.4556677,1.14146866 22.9028368,0.677229851 23.5249852,0.677229851 C24.1665757,0.677229851 24.5748605,1.14146866 24.5748605,1.74111045 L24.5748605,1.74111045 Z" id="Fill-5" fill="#ED1C24" mask="url(#mask-2)"></path>
                    <path d="M26.9854424,11.9939104 C27.490938,12.3227463 28.3852763,12.6709254 29.2410003,12.6709254 C30.485297,12.6709254 31.0685611,12.0519403 31.0685611,11.2779403 C31.0685611,10.465791 30.5825077,10.0206269 29.3187688,9.55638806 C27.6270329,8.95674627 26.8299053,8.02826866 26.8299053,6.90635821 C26.8299053,5.39731343 28.0547599,4.15907463 30.0770122,4.15907463 C31.0296769,4.15907463 31.8656887,4.43014925 32.3908964,4.73964179 L31.9631694,5.97761194 C31.5934988,5.74549254 30.913024,5.436 30.0381279,5.436 C29.0271368,5.436 28.4630448,6.01629851 28.4630448,6.71265672 C28.4630448,7.48665672 29.0271368,7.83483582 30.2519914,8.29907463 C31.8854009,8.9180597 32.7214128,9.73047761 32.7214128,11.1234627 C32.7214128,12.7676418 31.4379617,13.9285075 29.201846,13.9285075 C28.1714128,13.9285075 27.2187481,13.6770448 26.5577154,13.2899104 L26.9854424,11.9939104 Z" id="Fill-7" fill="#ED1C24" mask="url(#mask-2)"></path>
                    <path d="M34.6844475,11.9939104 C35.189943,12.3227463 36.0842813,12.6709254 36.9400053,12.6709254 C38.1843021,12.6709254 38.7675662,12.0519403 38.7675662,11.2779403 C38.7675662,10.465791 38.2815128,10.0206269 37.0177739,9.55638806 C35.326038,8.95674627 34.5289104,8.02826866 34.5289104,6.90635821 C34.5289104,5.39731343 35.753765,4.15907463 37.7760172,4.15907463 C38.7286819,4.15907463 39.5646938,4.43014925 40.0899015,4.73964179 L39.6621745,5.97761194 C39.2925039,5.74549254 38.6120291,5.436 37.7371329,5.436 C36.7261418,5.436 36.1620499,6.01629851 36.1620499,6.71265672 C36.1620499,7.48665672 36.7261418,7.83483582 37.9509964,8.29907463 C39.5844059,8.9180597 40.4204178,9.73047761 40.4204178,11.1234627 C40.4204178,12.7676418 39.1369668,13.9285075 36.900851,13.9285075 C35.8704178,13.9285075 34.9177531,13.6770448 34.2567205,13.2899104 L34.6844475,11.9939104 Z" id="Fill-8" fill="#ED1C24" mask="url(#mask-2)"></path>
                    <path d="M44.308332,9.98199403 C44.308332,10.1947701 44.3472163,10.4075463 44.3861006,10.6009791 C44.7166169,11.7811881 45.7084359,12.593606 46.9524626,12.593606 C48.7414092,12.593606 49.8109967,11.142591 49.8109967,8.99548657 C49.8109967,7.1189194 48.8386199,5.51342687 47.0110591,5.51342687 C45.8442608,5.51342687 44.7555012,6.30650149 44.4055427,7.60250149 C44.3666585,7.79593433 44.308332,8.02832239 44.308332,8.2988597 L44.308332,9.98199403 Z M42.5388276,13.7348597 C42.5777119,13.0965313 42.6165961,12.1487104 42.6165961,11.3166806 L42.6165961,5.37313433e-05 L44.308332,5.37313433e-05 L44.308332,5.88094925 L44.3472163,5.88094925 C44.9499226,4.83614328 46.0389522,4.15912836 47.5554389,4.15912836 C49.8887653,4.15912836 51.5416169,6.09372537 51.5219047,8.93745672 C51.5219047,12.2841134 49.4027119,13.9476358 47.3026911,13.9476358 C45.9414715,13.9476358 44.8527119,13.4253672 44.152795,12.187397 L44.0944685,12.187397 L44.0167,13.7348597 L42.5388276,13.7348597 Z" id="Fill-9" fill="#ED1C24" mask="url(#mask-2)"></path>
                    <path d="M53.6791988,13.7350209 L55.3901068,13.7350209 L55.3901068,4.37206567 L53.6791988,4.37206567 L53.6791988,13.7350209 Z M55.5845282,1.74111045 C55.6039703,2.32140896 55.1762433,2.78564776 54.4957685,2.78564776 C53.8930623,2.78564776 53.4653353,2.32140896 53.4653353,1.74111045 C53.4653353,1.14146866 53.9125045,0.677229851 54.5346528,0.677229851 C55.1762433,0.677229851 55.5845282,1.14146866 55.5845282,1.74111045 L55.5845282,1.74111045 Z" id="Fill-10" fill="#ED1C24" mask="url(#mask-2)"></path>
                    <polygon id="Fill-11" fill="#ED1C24" mask="url(#mask-2)" points="58.2283887 13.7350209 59.9392967 13.7350209 59.9392967 -5.37313433e-05 58.2283887 -5.37313433e-05"></polygon>
                    <polygon id="Fill-12" fill="#ED1C24" mask="url(#mask-2)" points="62.8164629 13.7350209 64.5276409 13.7350209 64.5276409 -5.37313433e-05 62.8164629 -5.37313433e-05"></polygon>
                    <path d="M67.4048071,13.7350209 L69.1157151,13.7350209 L69.1157151,4.37206567 L67.4048071,4.37206567 L67.4048071,13.7350209 Z M69.3101365,1.74111045 C69.3298487,2.32140896 68.9021217,2.78564776 68.2213769,2.78564776 C67.6186706,2.78564776 67.1909436,2.32140896 67.1909436,1.74111045 C67.1909436,1.14146866 67.6381128,0.677229851 68.2602611,0.677229851 C68.9021217,0.677229851 69.3101365,1.14146866 69.3101365,1.74111045 L69.3101365,1.74111045 Z" id="Fill-13" fill="#ED1C24" mask="url(#mask-2)"></path>
                    <path d="M71.954078,6.90622388 C71.954078,5.93879104 71.9346359,5.14571642 71.8763095,4.37198507 L73.3927961,4.37198507 L73.4900068,5.91971642 L73.5288911,5.91971642 C73.9957724,5.02965672 75.0848021,4.15920896 76.640173,4.15920896 C77.9427961,4.15920896 79.9647783,4.9329403 79.9647783,8.14419403 L79.9647783,13.7349403 L78.2538703,13.7349403 L78.2538703,8.33762687 C78.2538703,6.82885075 77.6900484,5.57126866 76.076351,5.57126866 C74.9484371,5.57126866 74.0735409,6.36434328 73.7819089,7.31243284 C73.7038703,7.52520896 73.6649861,7.81535821 73.6649861,8.10550746 L73.6649861,13.7349403 L71.954078,13.7349403 L71.954078,6.90622388 Z" id="Fill-14" fill="#ED1C24" mask="url(#mask-2)"></path>
                    <path d="M89.0830323,8.06690149 C89.0830323,7.77675224 89.0635902,7.52528955 88.9860917,7.29317015 C88.6747475,6.30639403 87.8387356,5.49397612 86.5941688,5.49397612 C84.9607593,5.49397612 83.7942312,6.86761791 83.7942312,9.03406567 C83.7942312,10.8719463 84.7277237,12.4000657 86.5747267,12.4000657 C87.6248721,12.4000657 88.5775368,11.742394 88.9469374,10.6589015 C89.043878,10.3687522 89.0830323,10.0399164 89.0830323,9.74976716 L89.0830323,8.06690149 Z M90.8525368,4.37206567 C90.8133825,5.0490806 90.7747682,5.80346866 90.7747682,6.94472239 L90.7747682,12.3807224 C90.7747682,14.5280955 90.3467712,15.8434388 89.4329908,16.6561254 C88.5192104,17.5072299 87.1971451,17.7780358 86.0109047,17.7780358 C84.8832608,17.7780358 83.6386941,17.5072299 82.8801807,17.0043045 L83.3081777,15.7080358 C83.9303261,16.0949015 84.902703,16.4433493 86.0692312,16.4433493 C87.8192935,16.4433493 89.1024745,15.5339463 89.1024745,13.173797 L89.1024745,12.1292597 L89.0635902,12.1292597 C88.5386525,12.9997075 87.5276614,13.6963343 86.0692312,13.6963343 C83.7359047,13.6963343 82.063881,11.7230507 82.063881,9.13078209 C82.063881,5.95821493 84.1444596,4.15928955 86.3025368,4.15928955 C87.9359463,4.15928955 88.8302846,5.01039403 89.2385694,5.78412537 L89.2777237,5.78412537 L89.3552223,4.37206567 L90.8525368,4.37206567 Z" id="Fill-15" fill="#ED1C24" mask="url(#mask-2)"></path>
                </g>
            </g>
        </g>
    </g>
</svg>