<?xml version="1.0" encoding="UTF-8"?>
<svg width="120px" height="80px" viewBox="0 0 120 80" version="1.1" xmlns="http://www.w3.org/2000/svg" xmlns:xlink="http://www.w3.org/1999/xlink">
    <title>swisscom-pay</title>
    <defs>
        <linearGradient x1="62.2945079%" y1="80.2334697%" x2="42.6662693%" y2="38.5739484%" id="linearGradient-1">
            <stop stop-color="#0019CE" offset="0%"></stop>
            <stop stop-color="#00A4CE" stop-opacity="0.49803922" offset="100%"></stop>
        </linearGradient>
        <linearGradient x1="73.1643173%" y1="72.6915205%" x2="52.5034783%" y2="18.1499376%" id="linearGradient-2">
            <stop stop-color="#040D1A" offset="0%"></stop>
            <stop stop-color="#FD110D" stop-opacity="0.99444443" offset="100%"></stop>
        </linearGradient>
        <linearGradient x1="42.9576267%" y1="57.6573842%" x2="52.5610314%" y2="47.9369635%" id="linearGradient-3">
            <stop stop-color="#000000" offset="0%"></stop>
            <stop stop-color="#000000" stop-opacity="0" offset="100%"></stop>
        </linearGradient>
        <linearGradient x1="193.898922%" y1="121.341169%" x2="46.0381425%" y2="37.9544051%" id="linearGradient-4">
            <stop stop-color="#040D1A" offset="0%"></stop>
            <stop stop-color="#FD110D" stop-opacity="0.99444443" offset="100%"></stop>
        </linearGradient>
        <linearGradient x1="42.0680437%" y1="59.0464833%" x2="48.6972322%" y2="42.1834909%" id="linearGradient-5">
            <stop stop-color="#0019CE" offset="0%"></stop>
            <stop stop-color="#00A4CE" stop-opacity="0.49803922" offset="100%"></stop>
        </linearGradient>
        <linearGradient x1="54.600563%" y1="84.721182%" x2="50.708118%" y2="-3.16337847%" id="linearGradient-6">
            <stop stop-color="#0B4AD0" offset="0%"></stop>
            <stop stop-color="#0BB7D0" stop-opacity="0" offset="100%"></stop>
        </linearGradient>
    </defs>
    <g id="Dankort" stroke="none" stroke-width="1" fill="none" fill-rule="evenodd">
        <rect id="Background" fill="#FFFFFE" fill-rule="nonzero" x="0" y="0" width="120" height="80" rx="4"></rect>
        <g id="Swisscom-Pay" transform="translate(32.000000, 13.000000)" fill-rule="nonzero">
            <g id="Swisscom-Logo">
                <g id="Text" transform="translate(27.558666, 48.048520) scale(-1, 1) rotate(-180.000000) translate(-27.558666, -48.048520) translate(0.058666, 42.548520)" fill="#152168">
                    <path d="M33.9861343,0.142974429 C31.949134,0.142974429 30.6182733,1.1586035 30.6182733,3.58508381 C30.6182733,5.64085185 31.756597,7.23042113 34.2621381,7.23042113 C34.8013441,7.23042113 35.4844407,7.12267968 35.9401799,6.9429404 L35.5566421,5.50911113 C35.1495493,5.65208556 34.7537219,5.76033762 34.3097603,5.76033762 C33.028058,5.76033762 32.5001175,4.92342659 32.5001175,3.66882598 C32.5001175,2.44945834 32.9794117,1.63654659 34.238071,1.63654659 C34.8254112,1.63654659 35.2330161,1.78003164 35.6283314,1.93526102 L35.8321339,0.525431027 C35.4844407,0.31045876 34.7537219,0.142974429 33.9861343,0.142974429 L33.9861343,0.142974429 Z M17.5431687,7.97082442 C18.1658415,7.97082442 18.6692028,8.44927814 18.6692028,9.05845133 C18.6692028,9.6558802 18.1658415,10.1103346 17.5431687,10.1103346 C16.9681181,10.1103346 16.4524672,9.6558802 16.4524672,9.05845133 C16.4524672,8.44927814 16.9681181,7.97082442 17.5431687,7.97082442 Z M16.5717787,0.262460202 L18.3337993,0.262460202 L18.3337993,7.11042473 C17.506812,7.1941669 16.5717787,6.96693968 16.5717787,5.67608484 L16.5717787,0.262460202 Z M39.6552219,5.74808267 C38.8651034,5.74808267 38.1092933,5.16239814 38.1092933,3.65657102 C38.1092933,2.35346123 38.6003651,1.62480226 39.6316669,1.62480226 C40.5062764,1.62480226 41.1781075,2.32997257 41.1781075,3.71580329 C41.1781075,5.04291236 40.6983013,5.74808267 39.6552219,5.74808267 L39.6552219,5.74808267 Z M39.5840447,0.11897515 C37.6299991,0.11897515 36.2638059,1.18209216 36.2638059,3.57282886 C36.2638059,5.71233907 37.7016884,7.25390979 39.7873351,7.25390979 C41.729091,7.25390979 42.9872383,6.16628288 42.9872383,3.83579968 C42.9872383,1.60080298 41.6215571,0.11897515 39.5840447,0.11897515 Z M4.34721643,5.64085185 C3.96367866,5.78382628 3.37633845,5.92731133 2.89704425,5.92731133 C2.34554869,5.92731133 1.92616627,5.78382628 1.92616627,5.28188391 C1.92616627,4.09877051 4.97040129,4.82742947 4.97040129,2.38971546 C4.97040129,0.740403294 3.62776307,0.107230822 2.11767912,0.107230822 C1.42280496,0.107230822 0.727930793,0.214461644 0.0924563347,0.405945254 L0.199990288,1.85202948 C0.199990288,1.85202948 1.20671292,1.51706082 2.04598982,1.51706082 C2.63281797,1.51706082 3.11262423,1.69628948 3.11262423,2.2104868 C3.11262423,3.47734237 0.0560996171,2.66443061 0.0560996171,5.09091092 C0.0560996171,6.60848236 1.33882606,7.23042113 2.75315358,7.23042113 C3.59191842,7.23042113 4.26323753,7.07468113 4.67033035,6.93119607 L4.34721643,5.64085185 L4.34721643,5.64085185 Z M15.7688585,7.11042473 C15.3858328,5.07865597 14.4026652,1.87602876 13.7794803,0.262460202 L11.9094137,0.262460202 L10.5913547,4.82742947 L10.5672875,4.82742947 L9.2492285,0.262460202 L7.39145144,0.262460202 C6.79182163,1.85202948 5.7134097,5.16239814 5.4020733,7.11042473 L7.16358187,7.11042473 L8.32648477,2.40145979 L8.35003983,2.40145979 L9.74030022,7.11042473 L11.5023209,7.11042473 L12.8567366,2.43720339 L12.8808037,2.43720339 L14.0549721,7.11042473 L15.7688585,7.11042473 L15.7688585,7.11042473 Z M51.9048754,7.25390979 C53.2352241,7.25390979 54.0140771,6.53699515 54.0140771,4.97142515 L54.0140771,0.262460202 L52.240279,0.262460202 L52.240279,4.61245721 C52.240279,5.31762752 52.0359644,5.78382628 51.2811785,5.78382628 C50.5263926,5.78382628 49.866851,5.12665453 49.866851,3.94354113 L49.866851,0.262460202 L48.1294095,0.262460202 L48.1294095,4.61245721 C48.1294095,5.27013958 47.9138296,5.78382628 47.1580195,5.78382628 C46.3673889,5.78382628 45.7559816,5.05465669 45.7559816,3.87154329 L45.7559816,0.262460202 L43.9586283,0.262460202 L43.9586283,7.11042473 C45.1327967,7.25390979 45.5762462,6.77596669 45.6243805,6.0110535 C46.0555404,6.77596669 46.7990609,7.25390979 47.7699389,7.25390979 C49.004019,7.25390979 49.4950907,6.57273876 49.6748261,5.92731133 C49.9743849,6.60848236 50.7419725,7.25390979 51.9048754,7.25390979 L51.9048754,7.25390979 Z M23.6669713,5.64085185 C23.2721681,5.78382628 22.6960933,5.92731133 22.2173112,5.92731133 C21.6653036,5.92731133 21.2228782,5.78382628 21.2228782,5.28188391 C21.2228782,4.09877051 24.2906683,4.82742947 24.2906683,2.38971546 C24.2906683,0.740403294 22.9367646,0.107230822 21.4384582,0.107230822 C20.7425599,0.107230822 20.0476857,0.214461644 19.3886562,0.405945254 L19.5207693,1.85202948 C19.5207693,1.85202948 20.5269799,1.51706082 21.3662568,1.51706082 C21.9300419,1.51706082 22.4211137,1.69628948 22.4211137,2.2104868 C22.4211137,3.47734237 19.3522995,2.66443061 19.3522995,5.09091092 C19.3522995,6.60848236 20.6468034,7.23042113 22.0493534,7.23042113 C22.8881183,7.23042113 23.5835045,7.07468113 23.9911094,6.93119607 L23.6669713,5.64085185 L23.6669713,5.64085185 Z M29.25208,5.64085185 C28.8690543,5.78382628 28.2817141,5.92731133 27.8019079,5.92731133 C27.2509244,5.92731133 26.8192524,5.78382628 26.8192524,5.28188391 C26.8192524,4.09877051 29.875777,4.82742947 29.875777,2.38971546 C29.875777,0.740403294 28.5336508,0.107230822 27.0235669,0.107230822 C26.3281806,0.107230822 25.6327944,0.214461644 24.997832,0.405945254 L25.1176556,1.85202948 C25.1176556,1.85202948 26.1120886,1.51706082 26.9513655,1.51706082 C27.5387057,1.51706082 28.0179999,1.69628948 28.0179999,2.2104868 C28.0179999,3.47734237 24.9614753,2.66443061 24.9614753,5.09091092 C24.9614753,6.60848236 26.2442017,7.23042113 27.6585293,7.23042113 C28.4972941,7.23042113 29.1803907,7.07468113 29.5762181,6.93119607 L29.25208,5.64085185" id="path3212"></path>
                </g>
                <g id="Logo" transform="translate(11.956522, 0.000000)">
                    <path d="M9.40176681,22.4410669 C1.91183439,28.847523 6.78782039,33.5433201 13.3923701,36.2749519 L13.430018,28.9642782 C10.2009153,28.3049247 12.0855399,24.0434435 9.40163749,22.4408975 L9.40176681,22.4410669 Z" id="path7180" stroke="#999999" stroke-width="0.05" fill="url(#linearGradient-1)"></path>
                    <path d="M9.69275362,4.12184937 C9.53968605,4.13212858 6.38384221,6.46051255 5.00259078,7.57976987 C0.676586875,11.0849686 -0.682712913,13.7510209 0.312427943,16.7834372 C0.818438691,18.3254366 1.69895457,19.3732343 4.53462954,21.814249 C6.66683113,23.6496276 7.79946751,24.7761715 8.68774304,25.9659226 C8.78564053,26.0970392 8.87662921,26.2293251 8.96957482,26.3630937 C8.99661107,26.4024143 9.02096207,26.432586 9.04934095,26.4742993 C9.05070229,26.4763497 9.05327182,26.4775528 9.05465018,26.4795863 C9.0788157,26.5151331 9.10046954,26.5454454 9.12378082,26.5802008 C9.27165487,26.8010699 9.40636134,27.0155843 9.52792916,27.2262521 C9.66191923,27.4584408 9.78382739,27.6918665 9.89484481,27.9358494 C9.90039228,27.9480502 9.90529311,27.9606459 9.91078953,27.9729179 C9.94933422,28.0587576 9.98589476,28.1428484 10.0224621,28.232389 C10.05444,28.3112827 10.0868383,28.3919743 10.1181814,28.4759821 C10.1221634,28.486607 10.124852,28.4970574 10.1288169,28.5077551 C10.1609497,28.5947183 10.1926111,28.6842267 10.2245363,28.7778342 C10.2269356,28.7848836 10.2274632,28.7919499 10.2298455,28.7990162 C10.2632528,28.8974837 10.2972013,28.999093 10.3308826,29.1061553 C10.3313931,29.1078499 10.3303721,29.1097986 10.3308826,29.1114424 C10.5292301,29.7544773 10.7207709,30.5323484 10.9424314,31.5633022 C10.9770435,31.6175841 10.9899558,31.6398574 11.0221975,31.6903942 C11.0401604,31.7638738 11.0568675,31.8207466 11.0753749,31.8969273 C11.5739833,33.9490403 12.0909869,35.1809859 12.7451457,35.8738917 C12.7983078,35.9302054 12.9692906,36.041899 13.1280231,36.1227888 C13.286747,36.2036702 13.4474279,36.2616072 13.4843203,36.2498809 C13.5688987,36.2230017 13.5882979,29.2091507 13.5048731,28.9905524 C12.9874441,28.9443994 12.4437753,28.6453026 12.0697976,28.2430139 C11.842896,27.9929137 11.6437317,27.6207373 11.4742106,27.1468365 C11.4698543,27.1346696 11.4625711,27.1220722 11.4582659,27.109768 C11.4488046,27.0803504 11.4411521,27.0454289 11.4316772,27.014449 C11.3191878,26.6466276 11.2024953,26.1730996 11.0700708,25.5211174 C10.650284,23.4542617 10.3594163,23.0290964 8.43247103,21.6659918 C7.06081707,20.6957033 6.44916619,20.1139098 6.13520674,19.4789918 C5.91934898,19.0423374 5.90653535,18.9731485 5.90653535,18.3457544 C5.90653535,17.788837 5.93242637,17.6174831 6.06074985,17.339609 C6.38095446,16.6462287 6.87997132,16.2994538 8.47508954,15.6662303 C10.1832332,14.988101 10.4643502,14.6763527 11.2403151,12.6053454 C11.9543388,11.0647864 12.3047652,10.9542333 13.573023,10.3695421 C13.5859921,10.3720009 10.9898282,6.15228891 9.69297995,4.12184937 L9.69275362,4.12184937 Z" id="path8011" stroke="#4D4D4D" stroke-width="0.01" fill="url(#linearGradient-2)"></path>
                    <path d="M13.4670738,36.3347699 C17.1751987,30.9087866 21.0228611,29.7920711 24.513852,17.6590167 L10.8338984,5.63526151 L13.6598738,10.4959393 L13.4670738,36.3347699 Z" id="path8031" stroke="#000000" stroke-width="0.02" fill="url(#linearGradient-3)"></path>
                    <path d="M15.6758508,3.86760351 C14.9145034,3.90933621 14.1617325,3.94093469 13.500767,4.27002176 C13.4925138,4.25357266 13.5073184,4.23690326 13.51501,8.36594435 L24.4751729,17.6731494 C24.4751729,17.6731494 24.7203675,17.2854678 24.8489633,16.3861814 C25.0371518,15.0702364 25.0776177,14.0641249 24.9872246,13.0977169 C24.7972663,11.066786 24.2447147,9.45508933 23.2270096,7.96641778 C22.751544,7.27085146 21.4679858,6.01191151 20.7435818,5.53048682 C19.6482632,4.80253745 18.2858494,4.23306339 17.0424338,3.98420021 C16.6343035,3.902519 16.151878,3.86545895 15.6757828,3.86760351 L15.6758508,3.86760351 Z" id="path7153" stroke="#999999" stroke-width="0.1" fill="url(#linearGradient-4)"></path>
                    <path d="M13.4381453,40.4169665 C13.4645502,40.4045115 13.6533394,10.4046025 13.5830941,10.3707113 L10.4281845,5.27703138 C10.3431177,5.81310565 20.0464047,13.7608494 24.5247087,17.711887 L25.3067655,18.4819123 C27.2226839,20.3682973 28.4480617,21.8757785 29.2517639,23.5327199 C29.9760147,25.0256278 30.2021336,26.0898119 30.138661,27.7065923 C30.0729048,29.3814621 29.5962344,30.9798056 28.7146465,32.4813559 C27.8932979,33.8804021 26.302519,35.5364793 24.7592679,36.5993077 C22.1041409,38.4277387 18.4953939,39.786268 14.8532941,40.3281885 C13.9235827,40.4665409 13.5126447,40.492344 13.4371072,40.417114 L13.4381453,40.4169665 Z" id="path7161" fill="url(#linearGradient-5)"></path>
                    <path d="M9.6723335,3.96188285 C9.67199316,3.90442538 9.62666729,3.70990167 9.57174225,3.52960042 C9.35554415,2.81990146 9.50866788,2.00108975 9.97029208,1.39835146 C10.2039324,1.0933136 10.8307111,0.671520502 11.3227852,0.488185983 C12.2917883,0.127159833 13.3937264,-0.0381276151 13.4592409,0.167744561 C13.4592409,0.167744561 13.4859811,8.42093285 13.5301022,8.41059603 C13.5665368,8.53758471 9.90433847,5.299891 9.67222969,3.9618659 L9.6723335,3.96188285 Z" id="path7186" fill="url(#linearGradient-6)"></path>
                    <path d="M13.5096157,28.9956276 L13.6004444,10.3300418 C12.835064,10.6979987 12.0611242,10.6616674 11.1461153,12.8603598 C10.4341165,14.7328494 10.1213483,15.0475293 8.20748888,15.7682259 C4.90895769,16.7297536 4.97532311,19.5516715 8.46862827,21.7039331 C10.4291306,22.9775987 10.7881845,23.7770586 11.1594905,25.9776151 C11.510053,27.5076 11.9152394,28.7039937 13.509677,28.9963054 L13.5096157,28.9956276 Z" id="path8057" fill="#FFFFFF"></path>
                </g>
            </g>
        </g>
    </g>
</svg>