<?xml version="1.0" encoding="UTF-8"?>
<svg width="120px" height="80px" viewBox="0 0 120 80" version="1.1" xmlns="http://www.w3.org/2000/svg" xmlns:xlink="http://www.w3.org/1999/xlink">
    <!-- Generator: Sketch 55.2 (78181) - https://sketchapp.com -->
    <title>card_swissbilling</title>
    <desc>Created with Sketch.</desc>
    <g id="export-badges" stroke="none" stroke-width="1" fill="none" fill-rule="evenodd">
        <g id="production" transform="translate(-1042.000000, -3543.000000)">
            <g id="card_swissbilling" transform="translate(1042.000000, 3543.000000)">
                <rect id="Rectangle-11" fill="#FFFFFF" x="0" y="0" width="120" height="80" rx="4"></rect>
                <path d="M40.8000815,42.2939189 C40.8000815,42.6772542 40.7277945,43.0113724 40.5832183,43.2962838 C40.4386422,43.5811951 40.2424347,43.816891 39.9945899,44.0033784 C39.746745,44.1898658 39.4550154,44.3271392 39.1193922,44.4152027 C38.7837691,44.5032662 38.4197525,44.5472973 38.0273315,44.5472973 C37.6658911,44.5472973 37.2889661,44.5136265 36.8965452,44.4462838 C36.5041242,44.3789411 36.1581794,44.2623882 35.8587002,44.0966216 C35.8896808,43.9722967 35.9258243,43.8427935 35.9671318,43.7081081 C36.0084393,43.5734228 36.0549095,43.4490997 36.1065438,43.3351351 C36.4266767,43.5009017 36.7674582,43.6174546 37.1288985,43.6847973 C37.4903389,43.75214 37.8621005,43.7858108 38.2441946,43.7858108 C38.8534798,43.7858108 39.2872017,43.6666679 39.5453734,43.4283784 C39.8035451,43.1900889 39.932629,42.8482004 39.932629,42.4027027 C39.932629,42.0608091 39.8371069,41.7784921 39.6460598,41.5557432 C39.4550128,41.3329944 39.2149167,41.1361495 38.9257644,40.9652027 C38.6366122,40.7942559 38.3216474,40.636262 37.9808608,40.4912162 C37.6400742,40.3461704 37.3251095,40.1829964 37.0359572,40.0016892 C36.7468049,39.820382 36.5067089,39.6054066 36.3156618,39.3567568 C36.1246148,39.1081069 36.0290927,38.7972992 36.0290927,38.4243243 C36.0290927,38.0617099 36.098798,37.7379519 36.2382107,37.4530405 C36.3776234,37.1681292 36.5686676,36.9272532 36.811349,36.7304054 C37.0540303,36.5335576 37.3431783,36.3833339 37.6788015,36.2797297 C38.0144247,36.1761256 38.3732779,36.1243243 38.755372,36.1243243 C38.9928899,36.1243243 39.2768745,36.1424548 39.6073343,36.1787162 C39.937794,36.2149777 40.2527587,36.2745491 40.5522379,36.3574324 C40.5522379,36.471397 40.5367478,36.6060803 40.5057672,36.7614865 C40.4747866,36.9168927 40.4386431,37.051576 40.3973357,37.1655405 C40.1185102,37.0619364 39.8138722,36.9894146 39.4834125,36.947973 C39.1529527,36.9065313 38.8224979,36.8858108 38.4920382,36.8858108 C37.965368,36.8858108 37.5600445,36.9997736 37.2760557,37.2277027 C36.9920668,37.4556318 36.8500745,37.8234209 36.8500745,38.3310811 C36.8500745,38.6108122 36.9481783,38.843918 37.1443888,39.0304054 C37.3405992,39.2168928 37.583277,39.3878371 37.8724293,39.5432432 C38.1615815,39.6986494 38.4791279,39.8514632 38.825078,40.0016892 C39.171028,40.1519152 39.4885745,40.3280395 39.7777267,40.5300676 C40.066879,40.7320956 40.3095568,40.9729716 40.5057672,41.2527027 C40.7019777,41.5324338 40.8000815,41.8795024 40.8000815,42.2939189 Z M52.5140577,36.3263514 C51.9357532,39.1443835 51.2335367,41.8328701 50.4073874,44.3918919 L49.5864055,44.3918919 L47.541696,38.2533784 C47.4900617,38.1083326 47.4435915,37.9503387 47.402284,37.7793919 C47.3609766,37.6084451 47.3299964,37.4193704 47.3093427,37.2121622 L47.262872,37.2121622 C47.2215646,37.6058578 47.1441142,37.9581066 47.0305187,38.2689189 L45.0322799,44.3918919 L44.1958078,44.3918919 C43.8033869,43.138282 43.4264619,41.8147592 43.0650215,40.4212838 C42.7035812,39.0278083 42.3886164,37.6628445 42.1201179,36.3263514 C42.2130597,36.3056305 42.3369802,36.2875001 42.4918832,36.2719595 C42.6467863,36.2564188 42.7810335,36.2486486 42.8946291,36.2486486 L44.4126709,42.4648649 C44.4643053,42.6409919 44.5056121,42.8222964 44.5365927,43.0087838 C44.5675733,43.1952712 44.5933901,43.386936 44.6140438,43.5837838 L44.6605145,43.5837838 C44.6914951,43.386936 44.7276386,43.1952712 44.7689461,43.0087838 C44.8102535,42.8222964 44.8618871,42.6306316 44.9238483,42.4337838 L46.9220871,36.2797297 L47.6965983,36.2797297 L49.756798,42.4648649 C49.8084323,42.6409919 49.8549025,42.8171162 49.89621,42.9932432 C49.9375175,43.1693703 49.973661,43.3662151 50.0046416,43.5837838 L50.0511122,43.5837838 C50.071766,43.3765755 50.1027461,43.1823207 50.1440536,43.0010135 C50.185361,42.8197063 50.2318312,42.6306316 50.2834656,42.4337838 L51.770527,36.2486486 C52.0390256,36.2486486 52.2868667,36.2745493 52.5140577,36.3263514 Z M54.5311542,44.3918919 L54.5311542,36.2797297 L55.352136,36.2797297 L55.352136,44.3918919 L54.5311542,44.3918919 Z M55.4760578,33.9175676 C55.4760578,34.0936946 55.4295876,34.233558 55.3366458,34.3371622 C55.243704,34.4407663 55.1094567,34.4925676 54.9339,34.4925676 C54.7583433,34.4925676 54.6266777,34.4381762 54.5388993,34.3293919 C54.4511209,34.2206076 54.4072324,34.0833342 54.4072324,33.9175676 C54.4072324,33.751801 54.4537026,33.6119375 54.5466444,33.497973 C54.6395862,33.3840084 54.7738335,33.327027 54.9493902,33.327027 C55.124947,33.327027 55.2566126,33.3840084 55.3443909,33.497973 C55.4321693,33.6119375 55.4760578,33.751801 55.4760578,33.9175676 Z M62.3725746,42.2939189 C62.3725746,42.6772542 62.3002876,43.0113724 62.1557115,43.2962838 C62.0111354,43.5811951 61.8149278,43.816891 61.567083,44.0033784 C61.3192382,44.1898658 61.0275086,44.3271392 60.6918854,44.4152027 C60.3562622,44.5032662 59.9922456,44.5472973 59.5998247,44.5472973 C59.2383843,44.5472973 58.8614593,44.5136265 58.4690384,44.4462838 C58.0766174,44.3789411 57.7306725,44.2623882 57.4311934,44.0966216 C57.462174,43.9722967 57.4983175,43.8427935 57.539625,43.7081081 C57.5809324,43.5734228 57.6274026,43.4490997 57.679037,43.3351351 C57.9991699,43.5009017 58.3399514,43.6174546 58.7013917,43.6847973 C59.0628321,43.75214 59.4345937,43.7858108 59.8166878,43.7858108 C60.4259729,43.7858108 60.8596949,43.6666679 61.1178665,43.4283784 C61.3760382,43.1900889 61.5051221,42.8482004 61.5051221,42.4027027 C61.5051221,42.0608091 61.4096,41.7784921 61.218553,41.5557432 C61.027506,41.3329944 60.7874099,41.1361495 60.4982576,40.9652027 C60.2091053,40.7942559 59.8941406,40.636262 59.553354,40.4912162 C59.2125674,40.3461704 58.8976026,40.1829964 58.6084504,40.0016892 C58.3192981,39.820382 58.079202,39.6054066 57.888155,39.3567568 C57.6971079,39.1081069 57.6015859,38.7972992 57.6015859,38.4243243 C57.6015859,38.0617099 57.6712912,37.7379519 57.8107039,37.4530405 C57.9501166,37.1681292 58.1411608,36.9272532 58.3838421,36.7304054 C58.6265235,36.5335576 58.9156715,36.3833339 59.2512946,36.2797297 C59.5869178,36.1761256 59.9457711,36.1243243 60.3278652,36.1243243 C60.5653831,36.1243243 60.8493677,36.1424548 61.1798274,36.1787162 C61.5102872,36.2149777 61.8252519,36.2745491 62.1247311,36.3574324 C62.1247311,36.471397 62.109241,36.6060803 62.0782604,36.7614865 C62.0472798,36.9168927 62.0111363,37.051576 61.9698288,37.1655405 C61.6910034,37.0619364 61.3863654,36.9894146 61.0559056,36.947973 C60.7254459,36.9065313 60.3949911,36.8858108 60.0645314,36.8858108 C59.5378611,36.8858108 59.1325377,36.9997736 58.8485488,37.2277027 C58.56456,37.4556318 58.4225677,37.8234209 58.4225677,38.3310811 C58.4225677,38.6108122 58.5206715,38.843918 58.7168819,39.0304054 C58.9130924,39.2168928 59.1557701,39.3878371 59.4449224,39.5432432 C59.7340747,39.6986494 60.0516211,39.8514632 60.3975712,40.0016892 C60.7435212,40.1519152 61.0610676,40.3280395 61.3502199,40.5300676 C61.6393722,40.7320956 61.8820499,40.9729716 62.0782604,41.2527027 C62.2744709,41.5324338 62.3725746,41.8795024 62.3725746,42.2939189 Z M68.7114434,42.2939189 C68.7114434,42.6772542 68.6391564,43.0113724 68.4945803,43.2962838 C68.3500041,43.5811951 68.1537966,43.816891 67.9059518,44.0033784 C67.658107,44.1898658 67.3663774,44.3271392 67.0307542,44.4152027 C66.695131,44.5032662 66.3311144,44.5472973 65.9386934,44.5472973 C65.5772531,44.5472973 65.2003281,44.5136265 64.8079071,44.4462838 C64.4154862,44.3789411 64.0695413,44.2623882 63.7700622,44.0966216 C63.8010428,43.9722967 63.8371863,43.8427935 63.8784937,43.7081081 C63.9198012,43.5734228 63.9662714,43.4490997 64.0179057,43.3351351 C64.3380386,43.5009017 64.6788201,43.6174546 65.0402605,43.6847973 C65.4017008,43.75214 65.7734625,43.7858108 66.1555566,43.7858108 C66.7648417,43.7858108 67.1985636,43.6666679 67.4567353,43.4283784 C67.714907,43.1900889 67.8439909,42.8482004 67.8439909,42.4027027 C67.8439909,42.0608091 67.7484688,41.7784921 67.5574218,41.5557432 C67.3663747,41.3329944 67.1262787,41.1361495 66.8371264,40.9652027 C66.5479741,40.7942559 66.2330094,40.636262 65.8922228,40.4912162 C65.5514361,40.3461704 65.2364714,40.1829964 64.9473191,40.0016892 C64.6581669,39.820382 64.4180708,39.6054066 64.2270238,39.3567568 C64.0359767,39.1081069 63.9404546,38.7972992 63.9404546,38.4243243 C63.9404546,38.0617099 64.0101599,37.7379519 64.1495726,37.4530405 C64.2889853,37.1681292 64.4800295,36.9272532 64.7227109,36.7304054 C64.9653923,36.5335576 65.2545402,36.3833339 65.5901634,36.2797297 C65.9257866,36.1761256 66.2846398,36.1243243 66.6667339,36.1243243 C66.9042519,36.1243243 67.1882365,36.1424548 67.5186962,36.1787162 C67.849156,36.2149777 68.1641207,36.2745491 68.4635998,36.3574324 C68.4635998,36.471397 68.4481098,36.6060803 68.4171292,36.7614865 C68.3861486,36.9168927 68.3500051,37.051576 68.3086976,37.1655405 C68.0298722,37.0619364 67.7252342,36.9894146 67.3947744,36.947973 C67.0643147,36.9065313 66.7338599,36.8858108 66.4034001,36.8858108 C65.8767299,36.8858108 65.4714064,36.9997736 65.1874176,37.2277027 C64.9034288,37.4556318 64.7614365,37.8234209 64.7614365,38.3310811 C64.7614365,38.6108122 64.8595402,38.843918 65.0557507,39.0304054 C65.2519612,39.2168928 65.4946389,39.3878371 65.7837912,39.5432432 C66.0729435,39.6986494 66.3904899,39.8514632 66.7364399,40.0016892 C67.08239,40.1519152 67.3999364,40.3280395 67.6890887,40.5300676 C67.9782409,40.7320956 68.2209187,40.9729716 68.4171292,41.2527027 C68.6133396,41.5324338 68.7114434,41.8795024 68.7114434,42.2939189 Z M77.327375,40.025 C77.327375,41.4754577 77.0098286,42.5917754 76.3747263,43.3739865 C75.7396239,44.1561976 74.8437816,44.5472973 73.6871725,44.5472973 C73.0778874,44.5472973 72.5073365,44.4747755 71.9755028,44.3297297 C71.4436692,44.184684 70.9660587,43.9463981 70.5426572,43.6148649 L70.5426572,32.9540541 C70.790502,32.9229728 71.0770683,32.8944821 71.4023646,32.8685811 C71.7276609,32.8426801 72.0297172,32.8297297 72.3085426,32.8297297 L72.3085426,36.9790541 L72.401484,36.9790541 C72.7319437,36.6475209 73.0546535,36.4221853 73.3696229,36.3030405 C73.6845924,36.1838958 74.0331189,36.1243243 74.415213,36.1243243 C74.8282877,36.1243243 75.2103761,36.1942561 75.5614895,36.3341216 C75.912603,36.4739872 76.2198227,36.6993228 76.4831578,37.0101351 C76.7464929,37.3209475 76.9530272,37.7249975 77.1027668,38.2222973 C77.2525063,38.7195971 77.327375,39.320492 77.327375,40.025 Z M75.4375678,40.1959459 C75.4375678,39.7090066 75.4040059,39.3049566 75.3368813,38.9837838 C75.2697567,38.662611 75.1716529,38.4061947 75.0425671,38.214527 C74.9134812,38.0228594 74.7508355,37.8881761 74.554625,37.810473 C74.3584146,37.7327699 74.1312269,37.6939189 73.8730552,37.6939189 C73.26377,37.6939189 72.7422711,37.8804035 72.3085426,38.2533784 L72.3085426,42.6668919 C72.4737725,42.7808564 72.6699801,42.8663285 72.8971711,42.9233108 C73.1243622,42.9802931 73.3567132,43.0087838 73.5942312,43.0087838 C74.2344969,43.0087838 74.7017807,42.7989886 74.9960964,42.3793919 C75.2904121,41.9597952 75.4375678,41.2319872 75.4375678,40.1959459 Z M80.8625134,34.1195946 C80.8625134,34.3993257 80.777318,34.6427918 80.6069247,34.85 C80.4365314,35.0572082 80.1809452,35.1608108 79.8401586,35.1608108 C79.5096989,35.1608108 79.2618578,35.0546182 79.0966279,34.8422297 C78.931398,34.6298413 78.8487843,34.3889653 78.8487843,34.1195946 C78.8487843,33.8502239 78.931398,33.6041678 79.0966279,33.3814189 C79.2618578,33.1586701 79.5148622,33.0472973 79.8556488,33.0472973 C80.1964355,33.0472973 80.4494399,33.15608 80.6146698,33.3736486 C80.7798997,33.5912173 80.8625134,33.8398635 80.8625134,34.1195946 Z M78.9727061,44.3918919 L78.9727061,36.2797297 L80.7385916,36.2797297 L80.7385916,44.3918919 L78.9727061,44.3918919 Z M82.9105903,44.3918919 L82.9105903,32.9540541 C83.1584351,32.9229728 83.4450013,32.8944821 83.7702977,32.8685811 C84.095594,32.8426801 84.3976503,32.8297297 84.6764757,32.8297297 L84.6764757,44.3918919 L82.9105903,44.3918919 Z M86.8484744,44.3918919 L86.8484744,32.9540541 C87.0963192,32.9229728 87.3828855,32.8944821 87.7081818,32.8685811 C88.0334781,32.8426801 88.3355345,32.8297297 88.6143599,32.8297297 L88.6143599,44.3918919 L86.8484744,44.3918919 Z M92.6761658,34.1195946 C92.6761658,34.3993257 92.5909705,34.6427918 92.4205771,34.85 C92.2501838,35.0572082 91.9945977,35.1608108 91.6538111,35.1608108 C91.3233513,35.1608108 91.0755102,35.0546182 90.9102804,34.8422297 C90.7450505,34.6298413 90.6624368,34.3889653 90.6624368,34.1195946 C90.6624368,33.8502239 90.7450505,33.6041678 90.9102804,33.3814189 C91.0755102,33.1586701 91.3285147,33.0472973 91.6693013,33.0472973 C92.0100879,33.0472973 92.2630924,33.15608 92.4283223,33.3736486 C92.5935521,33.5912173 92.6761658,33.8398635 92.6761658,34.1195946 Z M90.7863586,44.3918919 L90.7863586,36.2797297 L92.552244,36.2797297 L92.552244,44.3918919 L90.7863586,44.3918919 Z M99.3868,44.3918919 L99.3868,38.7817568 C99.3868,38.4295027 99.3016046,38.1601361 99.1312113,37.9736486 C98.960818,37.7871612 98.6432716,37.6939189 98.1785625,37.6939189 C97.5589505,37.6939189 96.9961447,37.8700433 96.4901282,38.2222973 L96.4901282,44.3918919 L94.7242427,44.3918919 L94.7242427,36.3418919 C94.9720876,36.3108107 95.2586538,36.28491 95.5839501,36.2641892 C95.9092465,36.2434684 96.2113028,36.2331081 96.4901282,36.2331081 L96.4901282,37.0412162 L96.5830695,37.0412162 C96.9858174,36.6682414 97.365324,36.4221853 97.721601,36.3030405 C98.0778779,36.1838958 98.4418945,36.1243243 98.8136617,36.1243243 C99.1234677,36.1243243 99.4203607,36.1683554 99.7043495,36.2564189 C99.9883384,36.3444824 100.238761,36.4843459 100.455625,36.6760135 C100.67249,36.8676811 100.84288,37.1240975 100.966803,37.4452703 C101.090725,37.766443 101.152685,38.1601328 101.152685,38.6263514 L101.152685,44.3918919 L99.3868,44.3918919 Z M109.675676,44.8425676 C109.675676,45.2673445 109.600807,45.6584442 109.451067,46.0158784 C109.301328,46.3733126 109.07414,46.6815302 108.769498,46.9405405 C108.464855,47.1995508 108.085348,47.3989858 107.630966,47.5388514 C107.176584,47.6787169 106.639592,47.7486486 106.019983,47.7486486 C105.410698,47.7486486 104.896944,47.6864871 104.478706,47.5621622 C104.060468,47.4378372 103.724849,47.269483 103.471841,47.0570946 C103.218833,46.8447061 103.038116,46.59606 102.929683,46.3111486 C102.821251,46.0262373 102.767036,45.7180197 102.767036,45.3864865 C102.767036,45.0653137 102.828996,44.7881768 102.952919,44.5550676 C103.076841,44.3219583 103.262722,44.0810823 103.510567,43.8324324 C103.417625,43.6666658 103.327266,43.4931315 103.239488,43.3118243 C103.15171,43.1305171 103.082004,42.9466226 103.03037,42.7601351 C103.06135,42.6461706 103.105239,42.5037171 103.162037,42.3327703 C103.218835,42.1618235 103.285958,41.983109 103.36341,41.7966216 C103.440861,41.6101342 103.526057,41.4288297 103.618998,41.2527027 C103.71194,41.0765757 103.810044,40.9211718 103.913313,40.7864865 C103.634487,40.5792782 103.412463,40.3125016 103.247233,39.9861486 C103.082003,39.6597957 102.999389,39.2790562 102.999389,38.8439189 C102.999389,38.0358068 103.252394,37.3805205 103.75841,36.8780405 C104.264427,36.3755606 104.97697,36.1243243 105.896061,36.1243243 C106.102599,36.1243243 106.327205,36.1372746 106.569886,36.1631757 C106.812567,36.1890767 107.03201,36.2279277 107.22822,36.2797297 L109.629205,36.2797297 C109.629205,36.486938 109.62146,36.7019133 109.60597,36.9246622 C109.590479,37.147411 109.556918,37.3623864 109.505283,37.5695946 L108.59136,37.6628378 L108.57587,37.7405405 C108.679138,37.8855863 108.754007,38.0513504 108.800478,38.2378378 C108.846949,38.4243253 108.870184,38.6211701 108.870184,38.8283784 C108.870184,39.2738761 108.800479,39.6597957 108.661066,39.9861486 C108.521653,40.3125016 108.328027,40.5792782 108.080183,40.7864865 C107.832338,40.9936947 107.538027,41.1490986 107.19724,41.2527027 C106.856453,41.3563068 106.484692,41.4081081 106.081944,41.4081081 C105.885733,41.4081081 105.694689,41.3925677 105.508806,41.3614865 C105.322922,41.3304053 105.157695,41.2993245 105.013118,41.2682432 C104.868542,41.4650911 104.77302,41.6463956 104.726549,41.8121622 C104.680078,41.9779288 104.656843,42.1022518 104.656843,42.1851351 C104.656843,42.3612621 104.695568,42.4829952 104.77302,42.5503378 C104.850472,42.6176805 104.97181,42.6513514 105.13704,42.6513514 L107.352142,42.6513514 C107.703256,42.6513514 108.023384,42.6850222 108.312536,42.7523649 C108.601688,42.8197075 108.846948,42.9362604 109.048322,43.102027 C109.249696,43.2677936 109.404596,43.4931292 109.513028,43.7780405 C109.62146,44.0629519 109.675676,44.4177907 109.675676,44.8425676 Z M108.002732,45.0135135 C108.002732,44.7027011 107.945935,44.5006761 107.832339,44.4074324 C107.718744,44.3141887 107.522536,44.2675676 107.243711,44.2675676 L104.563902,44.2675676 C104.481287,44.3711717 104.42449,44.4980848 104.39351,44.6483108 C104.362529,44.7985368 104.347039,44.9306301 104.347039,45.0445946 C104.347039,45.5004527 104.473541,45.8216207 104.726549,46.0081081 C104.979558,46.1945955 105.446841,46.2878378 106.128415,46.2878378 C106.717046,46.2878378 107.176585,46.1920055 107.507044,46.0003378 C107.837504,45.8086702 108.002732,45.4797321 108.002732,45.0135135 Z M107.274691,38.7506757 C107.274691,38.2326551 107.155934,37.8726361 106.918416,37.6706081 C106.680898,37.4685801 106.365933,37.3675676 105.973512,37.3675676 C105.106055,37.3675676 104.672334,37.828599 104.672334,38.7506757 C104.672334,39.2479755 104.783346,39.6028143 105.005373,39.8152027 C105.227401,40.0275912 105.550111,40.1337838 105.973512,40.1337838 C106.37626,40.1337838 106.693807,40.0301812 106.926161,39.822973 C107.158516,39.6157647 107.274691,39.2583359 107.274691,38.7506757 Z M21.5,52.5 C14.5964406,52.5 9,46.9035594 9,40 C9,33.0964406 14.5964406,27.5 21.5,27.5 C28.4035594,27.5 34,33.0964406 34,40 C34,46.9035594 28.4035594,52.5 21.5,52.5 Z M14.9432639,40.6531518 C14.4814953,40.1913832 13.7328205,40.1913832 13.2710519,40.6531518 C12.8092834,41.1149204 12.8092834,41.8635952 13.2710519,42.3253638 L17.2853467,46.3396586 C17.7471153,46.8014272 18.4957901,46.8014272 18.9575587,46.3396586 L29.1701938,36.1270234 C29.6319624,35.6652548 29.6319624,34.91658 29.1701938,34.4548114 C28.7084252,33.9930429 27.9597504,33.9930429 27.4979818,34.4548114 L18.1214527,43.8313406 L14.9432639,40.6531518 Z" id="Combined-Shape" fill="#E11A27" fill-rule="nonzero"></path>
            </g>
        </g>
    </g>
</svg>