<?xml version="1.0" encoding="UTF-8" standalone="no"?>
<svg width="120px" height="80px" viewBox="0 0 120 80" version="1.1" xmlns="http://www.w3.org/2000/svg" xmlns:xlink="http://www.w3.org/1999/xlink" xmlns:sketch="http://www.bohemiancoding.com/sketch/ns">
    <!-- Generator: Sketch 3.2.2 (9983) - http://www.bohemiancoding.com/sketch -->
    <title>card_uatp@1x</title>
    <desc>Created with Sketch.</desc>
    <defs></defs>
    <g id="assets-various" stroke="none" stroke-width="1" fill="none" fill-rule="evenodd" sketch:type="MSPage">
        <g id="Artboard-2" sketch:type="MSArtboardGroup" transform="translate(-36.000000, -1500.000000)">
            <g id="card_uatp" sketch:type="MSLayerGroup" transform="translate(36.000000, 1500.000000)">
                <rect id="Rectangle-11" fill="#FFFFFF" sketch:type="MSShapeGroup" x="0" y="0" width="120" height="80" rx="4"></rect>
                <g id="Group" transform="translate(11.000000, 24.000000)" sketch:type="MSShapeGroup">
                    <path d="M0.251851852,3.84615385 L0.251851852,20.7692308 C0.251851852,20.7692308 0.105022222,24.1453846 2.49761481,26.7948718 C4.89020741,29.444359 9.16111111,30 11.8055556,29.9146154 C14.45,29.8289744 19.6444444,29.2735897 21.6592593,28.5469231 L21.6592593,3.84615385 L15.1111111,3.84615385 L15.1111111,24.1025641 C15.1111111,24.1025641 12.0679852,24.9146154 9.88518519,24.4017949 C7.70238519,23.8889744 6.54814815,22.0941026 6.54814815,19.6582051 L6.54814815,3.84615385 L0.251851852,3.84615385" id="Fill-1" fill="#052C18"></path>
                    <path d="M24.4087259,29.7435897 L34.3357185,3.84615385 L42.0592593,3.84615385 L45.7531704,13.7392308 L45.0814815,16.1005128 L40.5060889,16.8535897 L38.1134963,10.3071795 L31.1875704,29.7435897 L24.4087259,29.7435897" id="Fill-2" fill="#052C18"></path>
                    <path d="M41.9753926,21.1538462 L44.8296296,29.4871795 L51.7976148,29.444359 L47.7259259,18.6751282 C47.7259259,18.6751282 46.1203704,19.4871795 44.7351852,20.0961538 C43.1228296,20.8051282 41.9753926,21.1538462 41.9753926,21.1538462" id="Fill-3" fill="#052C18"></path>
                    <path d="M52.1333333,3.84615385 L52.1333333,9.48717949 L59.6888889,9.48717949 L59.6888889,29.7435897 L65.9851852,29.7435897 L65.9851852,9.48717949 L73.5407407,9.48717949 L73.5407407,3.84615385 L52.1333333,3.84615385" id="Fill-4" fill="#052C18"></path>
                    <path d="M79.0814815,3.84615385 L79.0814815,29.7435897 L85.3777778,29.7435897 L85.3777778,22.0512821 C85.3777778,22.0512821 89.1711704,22.1794872 91.2804296,21.6184615 C93.3899407,21.0576923 98.1436444,19.1505128 98.1436444,12.7723077 C98.1436444,6.39410256 94.0825333,3.66974359 88.462963,3.26923077 C85.3933926,3.07692308 79.0814815,3.84615385 79.0814815,3.84615385 Z M85.3777778,9.23076923 L85.3777778,16.4102564 C85.3777778,16.4102564 88.4778222,17.0123077 90.4777778,15.5982051 C91.9888889,14.53 91.7476148,12.4358974 91.6005333,11.7948718 C91.4537037,11.1538462 90.9026519,9.87179487 89.6224889,9.40179487 C87.8212444,8.74025641 85.3777778,9.23076923 85.3777778,9.23076923 Z" id="Fill-5" fill="#052C18"></path>
                    <path d="M26.8222222,23.4294872 L27.3574074,22.0192308 C27.3574074,22.0192308 24.2722222,22.9646154 22.5566074,23.3092308 C22.5407407,23.7179487 22.5407407,23.8141026 22.5407407,23.8141026 C22.5407407,23.8141026 23.6584593,23.7338462 24.7288296,23.6376923 C25.7992,23.5415385 26.8222222,23.4294872 26.8222222,23.4294872" id="Fill-7" fill="#43B748"></path>
                    <path d="M34.7714222,19.6312821 C34.7714222,19.6312821 39.0055556,18.4615385 52.1333333,9.48717949 L59.6888889,9.48717949 L59.6679852,10.555641 C59.6679852,10.555641 46.1833333,19.8397436 33.9055556,22.1474359 C34.6454963,19.9838462 34.7714222,19.6312821 34.7714222,19.6312821" id="Fill-8" fill="#43B748"></path>
                    <path d="M73.4986815,3.84615385 C73.4986815,3.84615385 75.5555556,2.78846154 80.812963,2.05128205 C85.1619407,1.44153846 91.5796296,2.30769231 91.5796296,2.30769231 C91.5796296,2.30769231 91.5796296,2.30769231 91.6111111,1.82692308 C87.9592593,0.705128205 82.2611111,0.192307692 80.5611111,0.128205128 C78.8611111,0.0641025641 74.4537037,0.256410256 70.7388889,0.833333333 C67.0240741,1.41025641 61.4309481,3.84615385 61.4309481,3.84615385 L73.4986815,3.84615385" id="Fill-9" fill="#43B748"></path>
                    <path d="M97.4273778,4.05051282 L97.4233481,4.45102564 L98.1355852,4.45512821 L98.1396148,6.45641026 L98.6040296,6.44923077 L98.611837,4.4525641 L99.3044296,4.43897436 L99.3004,4.05846154 L97.4273778,4.05051282" id="Fill-10" fill="#052C18"></path>
                    <path d="M99.5917926,4.05846154 L99.5955704,6.46230769 L100.028504,6.45435897 L100.024474,4.58333333 L100.532207,6.44641026 L100.943481,6.43820513 L101.460785,4.53512821 L101.484459,6.45820513 L101.909585,6.45025641 L101.901526,4.0425641 L101.228578,4.04641026 L100.760385,5.73307692 L100.292193,4.0425641 L99.5917926,4.05846154" id="Fill-11" fill="#052C18"></path>
                </g>
            </g>
        </g>
    </g>
</svg>