<?xml version="1.0" encoding="UTF-8" standalone="no"?>
<svg width="120px" height="80px" viewBox="0 0 120 80" version="1.1" xmlns="http://www.w3.org/2000/svg">
    <!-- Generator: Sketch 39.1 (31720) - http://www.bohemiancoding.com/sketch -->
    <title>card_unionpay</title>
    <desc>Created with Sketch.</desc>
    <defs></defs>
    <g id="export-badges" stroke="none" stroke-width="1" fill="none" fill-rule="evenodd">
        <g id="production-final" transform="translate(-36.000000, -4009.000000)">
            <g id="card_unionpay" transform="translate(36.000000, 4009.000000)">
                <rect id="Rectangle-11" fill="#FFFFFF" x="0" y="0" width="120" height="80" rx="4"></rect>
                <g id="UnionPay_logo" transform="translate(20.000000, 14.000000)">
                    <g id="Layer_1">
                        <g id="Group">
                            <path d="M57.0523235,0.125549074 C54.2662398,0.2121028 50.8593106,2.40636651 50.238812,5.11207594 L40.8222227,46.7838176 C40.2017238,49.5147922 41.8897931,51.7370064 44.6054144,51.7778987 L65.5238026,51.7778987 C68.1980315,51.6456003 70.7966667,49.4765727 71.4065639,46.8016076 L80.8234996,5.12952358 C81.4539152,2.37078592 79.7251388,0.130681474 76.9643671,0.130681474 L57.0523235,0.125549074 Z" id="path22" fill="#01798A"></path>
                            <path d="M40.8222227,46.7838176 L50.2388161,5.11207594 C50.8593149,2.40636623 54.2662398,0.212102526 57.001699,0.128288653 L49.0847032,0.123156253 L34.8207652,0.120416674 C32.0776772,0.176522484 28.6263537,2.38618339 28.0060929,5.11207594 L18.586729,46.7838176 C17.96394,49.5147922 19.6544727,51.7370064 22.3683821,51.7778987 L44.6054141,51.7778987 C41.8897928,51.7370064 40.2017235,49.5147922 40.8222224,46.7838176" id="path20" fill="#024381"></path>
                            <path d="M18.5867293,46.7838176 L28.006091,5.11208032 C28.6263496,2.38618339 32.0776753,0.176526863 34.8207633,0.120421053 L16.5477387,0.115631032 C13.7893264,0.115631032 10.2527247,2.35060745 9.62234136,5.11208032 L0.202964929,46.7838176 C0.145643199,47.0381373 0.113841943,47.2873621 0.0948685135,47.53125 L0.0948685135,48.3043403 C0.279260361,50.2950864 1.79942786,51.7447575 3.98459797,51.777899 L22.3683823,51.777899 C19.6544729,51.7370067 17.9639403,49.5147925 18.5867293,46.7838179" id="path16" fill="#DD0228"></path>
                            <path d="M35.2059243,30.4851705 L35.5517472,30.4851705 C35.8695231,30.4851705 36.0833111,30.378536 36.1835324,30.1673889 L37.0821267,28.8223687 L39.4885237,28.8223687 L38.9867232,29.707019 L41.8720054,29.707019 L41.5060019,31.0624731 L38.0727335,31.0624731 C37.6773134,31.6574281 37.1905614,31.9371342 36.6052959,31.9039845 L34.8170009,31.9039845 L35.2059237,30.4851705 L35.2059243,30.4851705 Z M34.810844,32.4278497 L41.1321273,32.4278497 L40.7291786,33.9002366 L38.1869845,33.9002366 L37.7990887,35.3214456 L40.2728705,35.3214456 L39.8699218,36.7936925 L37.3961399,36.7936925 L36.8214761,38.8937771 C36.6791777,39.2448108 36.866288,39.4026587 37.3797218,39.3668403 L39.3958263,39.3668403 L39.0222946,40.7349857 L35.1515374,40.7349857 C34.4178145,40.7349857 34.166127,40.315222 34.3962666,39.4737482 L35.1310105,36.7936925 L33.5497329,36.7936925 L33.9514163,35.3214456 L35.532932,35.3214456 L35.9204896,33.9002366 L34.4089229,33.9002366 L34.8108443,32.4278497 L34.810844,32.4278497 Z M44.9002705,28.8123436 L44.8007298,29.6742781 C44.8007298,29.6742781 45.9931532,28.7789202 47.0761188,28.7789202 L51.077888,28.7789202 L49.5475082,34.319451 C49.4206009,34.9528594 48.8763851,35.2678368 47.9151907,35.2678368 L43.3794652,35.2678368 L42.3170265,39.1583572 C42.2557962,39.3668359 42.3423387,39.4737438 42.5711752,39.4737438 L43.4636108,39.4737438 L43.1355755,40.681377 L40.8666875,40.681377 C39.9958021,40.681377 39.6335567,40.419461 39.7772247,39.8933365 L42.7794889,28.8123436 L44.9002659,28.8123436 L44.90027,28.8123436 L44.9002705,28.8123436 Z M48.2890651,30.378536 L44.7172647,30.378536 L44.290031,31.8735366 C44.290031,31.8735366 44.8848753,31.4440237 45.878906,31.4286618 C46.8701977,31.413131 48.0017332,31.4286618 48.0017332,31.4286618 L48.2890651,30.378536 L48.2890651,30.378536 Z M46.9950504,33.8466281 C47.2591203,33.8824465 47.4068889,33.7779337 47.4246766,33.5312749 L47.643254,32.7432029 L44.0659834,32.7432029 L43.7659955,33.8466281 L46.9950504,33.8466281 L46.9950504,33.8466281 Z M44.5821521,35.6366945 L46.6440957,35.6366945 L46.6057852,36.5290747 L47.1547903,36.5290747 C47.4322011,36.5290747 47.5697104,36.4402327 47.5697104,36.2649037 L47.7321893,35.6876011 L49.4459131,35.6876011 L49.2170763,36.5290747 C49.0234688,37.2309376 48.5103776,37.5970928 47.6764331,37.6329112 L46.5780764,37.6329112 L46.5729446,39.1583575 C46.5527641,39.4026546 46.773734,39.5271815 47.2286766,39.5271815 L48.261018,39.5271815 L47.9278469,40.734986 L45.4516723,40.734986 C44.7576295,40.7679981 44.4172807,40.4372518 44.4244626,39.7356604 L44.5821521,35.6366947 L44.5821521,35.6366945 Z" id="path24" fill="#FFFFFF"></path>
                            <path d="M19.5960821,21.4307734 C19.3164123,22.8013158 18.6681064,23.8539745 17.6624802,24.6015071 C16.6659889,25.3363839 15.3806951,25.7049345 13.8071131,25.7049345 C12.3262292,25.7049345 11.2405629,25.3286187 10.5477521,24.5734544 C10.0672593,24.0368979 9.82822804,23.3554916 9.82822804,22.5316348 C9.82822804,22.1909995 9.86900114,21.8248442 9.95037741,21.4307737 L11.626989,13.3451823 L14.1591962,13.3451823 L12.5054009,21.3392252 C12.454502,21.5604995 12.4341838,21.7664476 12.4368519,21.9520726 C12.4341838,22.3615381 12.5358438,22.6970766 12.7417649,22.9588547 C13.041752,23.3479995 13.5286416,23.5411184 14.2061951,23.5411184 C14.9853418,23.5411184 15.6273552,23.3505655 16.1256357,22.9664842 C16.6240186,22.585105 16.9493866,22.0436205 17.0955486,21.3392249 L18.7545446,13.345182 L21.2739235,13.345182 L19.5960821,21.4307734" id="path28" fill="#FFFFFF"></path>
                            <path d="M30.2305469,18.2498436 L32.2137126,18.2498436 L30.6602776,25.4660076 L28.681012,25.4660076 L30.2305469,18.2498436 M30.8548079,15.6208668 L32.8556236,15.6208668 L32.4818891,17.3724471 L30.4812091,17.3724471 L30.8548079,15.6208668" id="path34" fill="#FFFFFF"></path>
                            <path d="M33.9691689,24.9167579 C33.4504679,24.4209787 33.1885859,23.7522658 33.1860555,22.9030245 C33.1860555,22.7580055 33.1948804,22.5928371 33.2141047,22.4121711 C33.2332246,22.2290766 33.2574094,22.0510792 33.2916154,21.8859108 C33.5267822,20.7137889 34.0276955,19.78316 34.7992134,19.0965544 C35.5695349,18.4075205 36.4989158,18.061686 37.587009,18.061686 C38.4780791,18.061686 39.1847737,18.3109108 39.702312,18.8092561 C40.2195077,19.3102345 40.4787925,19.9864395 40.4787925,20.8461166 C40.4787925,20.9933571 40.4675018,21.1637605 40.4483485,21.3468213 C40.4254291,21.5324465 40.3977241,21.7104439 40.3655685,21.8859105 C40.1357047,23.0402424 39.6362967,23.9607442 38.8646053,24.6346587 C38.0929183,25.3135321 37.1662726,25.6514634 36.0857036,25.6514634 C35.1908755,25.6514634 34.4865693,25.4074734 33.9691689,24.9167576 M37.7484606,23.4877834 C38.0980501,23.1089368 38.3484367,22.534165 38.5009944,21.7689779 C38.5239139,21.6495144 38.5440944,21.5248521 38.5567506,21.4002918 C38.5694066,21.27816 38.5745383,21.1637603 38.5745383,21.0595208 C38.5745383,20.6145105 38.4613184,20.2688115 38.2338471,20.0246524 C38.0077455,19.7779603 37.6862075,19.6560687 37.2706028,19.6560687 C36.7212553,19.6560687 36.273837,19.84905 35.9232247,20.2356618 C35.5695349,20.6222758 35.3191483,21.2070368 35.1614547,21.9850863 C35.1399046,22.1045497 35.122121,22.2241486 35.1056986,22.3410813 C35.0930426,22.4605447 35.0892802,22.5724137 35.0916771,22.6740868 C35.0916771,23.1165666 35.204897,23.4573374 35.4323683,23.6987947 C35.6584699,23.9404234 35.9786383,24.0598866 36.3997173,24.0598866 C36.9514617,24.0598866 37.3988756,23.869196 37.7484606,23.4877831" id="path36" fill="#FFFFFF"></path>
                            <path d="" id="path14" fill="#E02F41"></path>
                            <path d="" id="path18" fill="#2E4F7D"></path>
                            <path d="M53.3457531,30.5462708 L53.8239535,28.8631123 L56.2416412,28.8631123 L56.1373111,29.4807831 C56.1373111,29.4807831 57.3728344,28.8631123 58.2625352,28.8631123 L61.2521475,28.8631123 L60.7770244,30.5462708 L60.3066908,30.5462708 L58.051482,38.4845828 L58.5218156,38.4845828 L58.0744014,40.0610734 L57.6040678,40.0610734 L57.4084101,40.7450083 L55.0670014,40.7450083 L55.2623209,40.0610734 L50.6431303,40.0610734 L51.0932834,38.4845828 L51.5560928,38.4845828 L53.8133518,30.5462708 L53.3457533,30.5462708 L53.3457531,30.5462708 Z M55.9543093,30.5462708 L55.3389422,32.6946913 C55.3389422,32.6946913 56.3918065,32.2905963 57.2992905,32.1761963 C57.4997417,31.4259597 57.7617573,30.5462705 57.7617573,30.5462705 L55.9543091,30.5462705 L55.9543093,30.5462708 Z M55.0540072,33.7017805 L54.4365858,35.9520476 C54.4365858,35.9520476 55.6033547,35.3774134 56.4041201,35.3290378 C56.6353535,34.45934 56.8669295,33.7017808 56.8669295,33.7017808 L55.0540072,33.7017808 L55.0540072,33.7017805 Z M55.5065531,38.4845828 L55.9693581,36.8522287 L54.1646491,36.8522287 L53.6994431,38.4845828 L55.5065531,38.4845828 L55.5065531,38.4845828 Z M61.354081,28.7589065 L63.6270735,28.7589065 L63.7235371,29.5977158 C63.7084842,29.8112582 63.8353915,29.9132381 64.1049357,29.9132381 L64.5065148,29.9132381 L64.1001463,31.3344471 L62.4295224,31.3344471 C61.7915782,31.3674592 61.4635389,31.1235734 61.433099,30.5970395 L61.354081,28.7589065 L61.354081,28.7589065 Z M68.0506063,31.8075105 L67.6185833,33.3331968 L65.2744394,33.3331968 L64.872518,34.7517352 L67.214269,34.7517352 L66.779507,36.2749263 L64.1712933,36.2749263 L63.5812384,37.1676155 L64.8578118,37.1676155 L65.152668,38.9549776 C65.187897,39.1329749 65.3455908,39.2194244 65.6151347,39.2194244 L66.0115821,39.2194244 L65.5949501,40.6913999 L64.1914779,40.6913999 C63.4642564,40.7272183 63.0883318,40.4830923 63.0575455,39.9568342 L62.7192468,38.3244759 L61.5576097,40.0610737 C61.2829338,40.5517558 60.8608277,40.7806932 60.2916423,40.7450086 L58.1482882,40.7450086 L58.5652584,39.2726237 L59.2339889,39.2726237 C59.5086649,39.2726237 59.737159,39.1505942 59.9430805,38.9040378 L61.7611345,36.2749263 L59.4169907,36.2749263 L59.8514104,34.7517352 L62.393947,34.7517352 L62.798261,33.3331968 L60.2533318,33.3331968 L60.6880897,31.8075105 L68.0506063,31.8075105 Z" id="path26" fill="#FFFFFF"></path>
                            <path d="M21.9286284,18.2473129 L23.7170925,18.2473129 L23.5125407,19.2897755 L23.7692242,18.9923147 C24.3489823,18.3719755 25.0531487,18.0642184 25.8845272,18.0642184 C26.637061,18.0642184 27.1798091,18.2829953 27.5205356,18.7227711 C27.8560283,19.1627179 27.9475646,19.7704684 27.7888479,20.5510505 L26.803542,25.4685403 L24.9654788,25.4685403 L25.855246,21.011285 C25.9469202,20.5510508 25.921539,20.2077468 25.7801655,19.9864392 C25.6405352,19.7652692 25.3734191,19.6560687 24.9883273,19.6560687 C24.5154633,19.6560687 24.1175442,19.8033447 23.7934068,20.0958798 C23.4679021,20.3908076 23.2531913,20.8002734 23.1476313,21.3214368 L22.3277439,25.4685403 L20.4858496,25.4685403 L21.9286284,18.2473129" id="path30" fill="#FFFFFF"></path>
                            <path d="M42.4388026,18.2473129 L44.2288054,18.2473129 L44.0256232,19.2897755 L44.2794337,18.9923147 C44.8595675,18.3719755 45.5662662,18.0642184 46.395079,18.0642184 C47.1476128,18.0642184 47.6914903,18.2829953 48.0294423,18.7227711 C48.3629516,19.1627179 48.4594152,19.7704684 48.2965937,20.5510505 L47.315219,25.4685403 L45.474592,25.4685403 L46.3646348,21.011285 C46.4559623,20.5510508 46.4306501,20.2077468 46.2907486,19.9864392 C46.1457151,19.7652692 45.8836954,19.6560687 45.5002466,19.6560687 C45.0271778,19.6560687 44.6307266,19.8033447 44.3026914,20.0958798 C43.977049,20.3908076 43.7612105,20.8002734 43.6596154,21.3214368 L42.8359344,25.4685403 L40.9963302,25.4685403 L42.438802,18.2473129" id="path32" fill="#FFFFFF"></path>
                            <path d="M51.2865445,13.7721286 L56.4831337,13.7721286 C57.482292,13.7721286 58.2550063,13.998602 58.7862278,14.4433388 C59.3150524,14.8935504 59.5798072,15.5394455 59.5798072,16.3810247 L59.5798072,16.4063402 C59.5798072,16.5664463 59.5692055,16.7470757 59.5541527,16.9427632 C59.5284981,17.1360504 59.4953193,17.3317347 59.4525617,17.5352876 C59.2237249,18.649011 58.6921611,19.5440952 57.8712151,20.2229689 C57.0471917,20.8992781 56.0712914,21.2400492 54.9476225,21.2400492 L52.1608498,21.2400492 L51.2992005,25.4685384 L48.8863022,25.4685384 L51.2865442,13.7721288 M52.585348,19.2059931 L54.8966554,19.2059931 C55.4990239,19.2059931 55.9768821,19.0659355 56.3254399,18.7889334 C56.6712669,18.5092273 56.9001037,18.0821428 57.0270069,17.5024471 C57.0471914,17.3953679 57.0598474,17.2988939 57.0752385,17.2099455 C57.0831054,17.1261302 57.0930262,17.0419726 57.0930262,16.9608917 C57.0930262,16.5462604 56.9459384,16.2462366 56.6507397,16.0580787 C56.3558835,15.8671812 55.8934206,15.7758418 55.2523948,15.7758418 L53.2896496,15.7758418 L52.5853475,19.2059931" id="path38" fill="#FFFFFF"></path>
                            <path d="M70.3793542,26.8646029 C69.6165569,28.4866942 68.8896777,29.4324116 68.4627863,29.8723251 C68.0352103,30.3073108 67.1889522,31.3193277 65.1499282,31.2429011 L65.3254057,30.0047532 C67.0411838,29.4758576 67.9691951,27.0931292 68.4980197,26.0380777 L67.8675997,18.2676339 L69.1947973,18.2498458 L70.3082028,18.2498458 L70.4279241,23.1241945 L72.5148373,18.2498458 L74.6277475,18.2498458 L70.3793539,26.8646029" id="path40" fill="#FFFFFF"></path>
                            <path d="M64.4712809,18.8371711 L63.6318623,19.4144737 C62.7548179,18.7280061 61.9540524,18.3033163 60.4086239,19.0202655 C58.3032379,19.9965997 56.5440214,27.4849424 62.3405828,25.0184666 L62.6710146,25.4100064 L64.9515313,25.4685406 L66.4490746,18.6642374 L64.4712809,18.8371713 M63.1745273,22.5571547 C62.8081815,23.6378661 61.9899704,24.3522845 61.3492914,24.1489026 C60.708612,23.9505842 60.4797714,22.9079505 60.8509063,21.8248439 C61.2169138,20.7416037 62.0405949,20.0297163 62.6761422,20.2331316 C63.3168257,20.43145 63.5480591,21.4739126 63.1745273,22.5571547" id="path42" fill="#FFFFFF"></path>
                        </g>
                    </g>
                </g>
            </g>
        </g>
    </g>
</svg>