<svg width="120" height="80" viewBox="0 0 120 80" fill="none" xmlns="http://www.w3.org/2000/svg">
<rect width="120" height="80" rx="4" fill="white"/>
<path d="M19.5226 28.995L23.3668 40.2261L27.1357 28.995H31.5829L24.9498 45.6533H21.6332L15 28.995H19.5226Z" fill="#FF5B24"/>
<path d="M41.6081 43.0151C44.397 43.0151 45.9799 41.6583 47.4875 39.6985C48.3166 38.6432 49.3719 38.4171 50.1257 39.0201C50.8794 39.6231 50.9548 40.7538 50.1257 41.8091C47.9397 44.6734 45.1508 46.407 41.6081 46.407C37.7638 46.407 34.3719 44.2965 32.0352 40.603C31.3568 39.6231 31.5076 38.5678 32.2613 38.0402C33.0151 37.5126 34.1457 37.7387 34.8241 38.794C36.4824 41.2814 38.7437 43.0151 41.6081 43.0151ZM46.8091 33.7437C46.8091 35.1005 45.7538 36.005 44.5478 36.005C43.3417 36.005 42.2865 35.1005 42.2865 33.7437C42.2865 32.3869 43.3417 31.4824 44.5478 31.4824C45.7538 31.4824 46.8091 32.4623 46.8091 33.7437Z" fill="#FF5B24"/>
<path d="M57.4372 28.995V31.2563C58.5679 29.6734 60.3016 28.5427 62.8644 28.5427C66.1056 28.5427 69.8744 31.2563 69.8744 37.0603C69.8744 43.1658 66.2563 46.1055 62.4875 46.1055C60.5277 46.1055 58.7186 45.3518 57.3619 43.4674V51.4573H53.2915V28.995H57.4372ZM57.4372 37.2864C57.4372 40.6784 59.397 42.4875 61.583 42.4875C63.6935 42.4875 65.8041 40.8292 65.8041 37.2864C65.8041 33.8191 63.6935 32.1608 61.583 32.1608C59.4724 32.1608 57.4372 33.7437 57.4372 37.2864Z" fill="#FF5B24"/>
<path d="M77.0352 28.995V31.2563C78.1659 29.6734 79.8995 28.5427 82.4624 28.5427C85.7036 28.5427 89.4724 31.2563 89.4724 37.0603C89.4724 43.1658 85.8543 46.1055 82.0855 46.1055C80.1257 46.1055 78.3166 45.3518 76.9598 43.4674V51.4573H72.8895V28.995H77.0352ZM77.0352 37.2864C77.0352 40.6784 78.995 42.4875 81.181 42.4875C83.2915 42.4875 85.4021 40.8292 85.4021 37.2864C85.4021 33.8191 83.2915 32.1608 81.181 32.1608C78.995 32.1608 77.0352 33.7437 77.0352 37.2864Z" fill="#FF5B24"/>
<path d="M98.1407 28.5427C101.533 28.5427 103.945 30.1256 105 34.0452L101.307 34.6483C101.231 32.6885 100.025 32.0101 98.2161 32.0101C96.8593 32.0101 95.804 32.6131 95.804 33.593C95.804 34.3467 96.3317 35.1005 97.9146 35.402L100.704 35.9297C103.417 36.4573 104.925 38.2663 104.925 40.6784C104.925 44.2965 101.683 46.1055 98.593 46.1055C95.3518 46.1055 91.7337 44.4472 91.206 40.3769L94.8995 39.7739C95.1256 41.8844 96.407 42.6382 98.5176 42.6382C100.101 42.6382 101.156 42.0352 101.156 41.0553C101.156 40.1508 100.628 39.4724 98.8945 39.1709L96.3317 38.7186C93.6181 38.191 91.9598 36.3065 91.9598 33.8945C92.0352 30.1256 95.4271 28.5427 98.1407 28.5427Z" fill="#FF5B24"/>
</svg>
