<?xml version="1.0" encoding="UTF-8" standalone="no"?>
<svg width="120px" height="80px" viewBox="0 0 120 80" version="1.1" xmlns="http://www.w3.org/2000/svg" xmlns:xlink="http://www.w3.org/1999/xlink" xmlns:sketch="http://www.bohemiancoding.com/sketch/ns">
    <!-- Generator: Sketch 3.3.1 (12002) - http://www.bohemiancoding.com/sketch -->
    <title>card_visa_v02</title>
    <desc>Created with Sketch.</desc>
    <defs></defs>
    <g id="assets-card-icons" stroke="none" stroke-width="1" fill="none" fill-rule="evenodd" sketch:type="MSPage">
        <g id="production-final" sketch:type="MSArtboardGroup" transform="translate(-192.000000, -38.000000)">
            <g id="card_visa_v02" sketch:type="MSLayerGroup" transform="translate(192.000000, 38.000000)">
                <rect id="Rectangle-11" fill="#FFFFFF" sketch:type="MSShapeGroup" x="0" y="10" width="120" height="60" rx="4"></rect>
                <path d="M0,4.009763 C0,1.79523205 1.78785828,0 3.99460217,0 L61.9716797,0 L116.000038,0 C118.209156,0 120,1.7877996 120,4.009763 L120,10 L0,10 L0,4.009763 Z" id="Rectangle-90" fill="#1A1F71" sketch:type="MSShapeGroup"></path>
                <path d="M0,70 L120,70 L120,75.990237 C120,78.204768 118.212616,80 116.009217,80 L59.1767578,80 L3.99775972,80 C1.78985799,80 0,78.2122004 0,75.990237 L0,70 Z" id="Rectangle-90-Copy" fill="#F7B600" sketch:type="MSShapeGroup"></path>
                <g id="Group-Copy-8" transform="translate(18.000000, 27.000000)" fill="#1A1F71" sketch:type="MSShapeGroup">
                    <path d="M35.7468637,25.825 L28.7142857,25.825 L33.1095566,0.15 L40.1428571,0.15 L35.7468637,25.825" id="Fill-1-Copy"></path>
                    <path d="M23.4065833,0.15 L17.0169252,17.8087738 L16.261596,14.0060113 L16.2622845,14.0073848 L14.0066251,2.46242577 C14.0066251,2.46242577 13.7346515,0.15 10.8276324,0.15 L0.266105936,0.15 L0.142857143,0.584052001 C0.142857143,0.584052001 3.37349032,1.25436015 7.15220193,3.52008413 L12.9745025,25.825 L19.9569942,25.825 L30.6190476,0.15 L23.4065833,0.15" id="Fill-2-Copy"></path>
                    <path d="M67.7619048,17.925 L71.4191334,8.05 L73.4761905,17.925 L67.7619048,17.925 L67.7619048,17.925 Z M82.047619,25.825 L76.9038542,0.15 L69.8335431,0.15 C67.4478185,0.15 66.8675606,2.06340012 66.8675606,2.06340012 L57.2857143,25.825 L63.9821145,25.825 L65.3221867,22.0119356 L73.4900258,22.0119356 L74.2432388,25.825 L82.047619,25.825 Z" id="Fill-3-Copy"></path>
                    <path d="M58.2818881,6.55863181 L59.1904762,1.23148564 C59.1904762,1.23148564 56.3848505,0.15 53.4600873,0.15 C50.2983579,0.15 42.7907236,1.55128692 42.7907236,8.36132904 C42.7907236,14.7699608 51.6023258,14.8495794 51.6023258,18.2141277 C51.6023258,21.578676 43.6986571,20.9775558 41.0907213,18.8550572 L40.1428571,24.4237131 C40.1428571,24.4237131 42.9871043,25.825 47.3349731,25.825 C51.6821873,25.825 58.2419574,23.5419374 58.2419574,17.3330155 C58.2419574,10.8839109 49.3504937,10.2834541 49.3504937,7.47955332 C49.3504937,4.67565251 55.5554694,5.03592656 58.2818881,6.55863181" id="Fill-4-Copy"></path>
                    <path d="M15.3809524,13.975 L13.2486214,2.45702161 C13.2486214,2.45702161 12.991518,0.15 10.2434407,0.15 L0.25936729,0.15 L0.142857143,0.583037617 C0.142857143,0.583037617 4.94190358,1.63068717 9.54568162,5.55269242 C13.9457296,9.30203078 15.3809524,13.975 15.3809524,13.975" id="Fill-5-Copy"></path>
                </g>
            </g>
        </g>
    </g>
</svg>