<?xml version="1.0" encoding="UTF-8"?>
<svg width="120px" height="80px" viewBox="0 0 120 80" version="1.1" xmlns="http://www.w3.org/2000/svg" xmlns:xlink="http://www.w3.org/1999/xlink">
    <!-- Generator: Sketch 52.5 (67469) - http://www.bohemiancoding.com/sketch -->
    <title>card_v_pay</title>
    <desc>Created with Sketch.</desc>
    <g id="export-badges" stroke="none" stroke-width="1" fill="none" fill-rule="evenodd">
        <g id="production-final" transform="translate(-406.000000, -6132.000000)">
            <g id="card_v_pay" transform="translate(406.000000, 6132.000000)">
                <rect id="Rectangle-11" fill="#FFFFFF" x="0" y="0" width="120" height="80" rx="4"></rect>
                <polygon id="path8681" fill="#191E70" points="90 8 30 8 30 72 90 72"></polygon>
                <polygon id="path8683" fill="#FFFFFF" points="88.308485 49.1865179 31.6915175 49.1865179 31.6915175 9.69372312 88.308485 9.69372312"></polygon>
                <path d="M74.3211725,16.0438135 L63.2128375,42.5961792 L55.95469,42.5961792 L50.4872375,21.4011728 C50.1577225,20.0987402 49.8672225,19.6211768 48.861315,19.06547 C47.2050325,18.1754719 44.4821525,17.3332205 42.088785,16.8079107 L42.24921,16.0438135 L53.9211975,16.0438135 C55.408385,16.0438135 56.7481475,17.0336609 57.086345,18.7442047 L59.9783175,34.1086227 L67.11506,16.0438135 L74.3211725,16.0438135" id="path8685" fill="#191E70"></path>
                <path d="M47.469515,59.5626109 C47.7339975,59.636407 48.0852025,59.6580802 48.5231175,59.6580802 C50.136045,59.6580802 51.1202725,58.8288555 51.1202725,57.3831506 C51.1202725,56.0112542 50.209745,55.2775439 48.7139,55.2775439 C48.12423,55.2775439 47.6993125,55.3340024 47.469515,55.3904184 L47.469515,59.5626109 Z M45.331965,53.8145114 C46.103735,53.6669042 47.1746875,53.5583629 48.6315175,53.5583629 C50.209745,53.5583629 51.36308,53.9056801 52.1175,54.5655819 C52.81991,55.1690476 53.2751625,56.1371982 53.2751625,57.2963701 C53.2751625,58.4642232 52.92397,59.4323638 52.2562475,60.0966112 C51.397765,60.9909432 50.0493225,61.412069 48.5231175,61.412069 C48.12423,61.412069 47.7513475,61.3903908 47.469515,61.3382705 L47.469515,65.9923154 L45.331965,65.9923154 L45.331965,53.8145114 Z" id="path8687" fill="#FFFFFF" fill-rule="nonzero"></path>
                <path d="M61.391795,60.7912457 L60.4639275,57.7522161 C60.2341325,57.0011457 60.0433625,56.1589065 59.86559,55.4425663 L59.8308475,55.4425663 C59.657415,56.1589065 59.479655,57.0228514 59.271535,57.7522161 L58.3610075,60.7912457 L61.391795,60.7912457 Z M58.00987,62.4930966 L56.990955,65.9923054 L54.76668,65.9923054 L58.551845,53.6495441 L61.3050825,53.6495441 L65.1466,65.9923054 L62.8312875,65.9923054 L61.760335,62.4930966 L58.00987,62.4930966 Z" id="path8689" fill="#FFFFFF" fill-rule="nonzero"></path>
                <path d="M69.6861975,65.9923054 L69.6861975,60.843336 L65.9530675,53.6495441 L68.4027975,53.6495441 L69.8249425,56.8144626 C70.2281725,57.734856 70.523,58.4251448 70.84386,59.2717296 L70.87416,59.2717296 C71.17333,58.4815833 71.511525,57.7131502 71.910415,56.8144626 L73.33256,53.6495441 L75.7692925,53.6495441 L71.8410425,60.7912457 L71.8410425,65.9923054 L69.6861975,65.9923054 Z" id="path8691" fill="#FFFFFF"></path>
            </g>
        </g>
    </g>
</svg>