<svg width="120" height="80" viewBox="0 0 120 80" fill="none" xmlns="http://www.w3.org/2000/svg">
<path d="M116 0H4C1.79086 0 0 1.79086 0 4V76C0 78.2091 1.79086 80 4 80H116C118.209 80 120 78.2091 120 76V4C120 1.79086 118.209 0 116 0Z" fill="white"/>
<path d="M37.621 61.7179L37.4438 62.3478C37.2955 62.8728 37.1643 63.3375 37.0512 63.7951C36.9071 63.1194 36.7071 62.364 36.5278 61.6974L35.3379 57.2093L35.3165 57.1302H34.5364L33.2054 61.7269C32.9675 62.5042 32.756 63.2058 32.6076 63.8201C32.4936 63.3344 32.3565 62.7934 32.2126 62.225L30.9216 57.2093L30.9007 57.1302H30L32.1627 65.3195L32.1836 65.4001H32.9508L34.3421 60.708C34.5842 59.9081 34.7675 59.2797 34.8998 58.7299C35.0178 59.3101 35.1825 59.947 35.3883 60.7021L36.5903 65.32L36.6117 65.4001H37.3904L39.8277 57.2682L39.8698 57.1302H38.9647L37.621 61.7179Z" fill="#222222"/>
<path d="M40.7455 61.6287C40.9645 60.3969 41.7731 59.9557 42.4654 59.9557C42.9051 59.9557 43.2579 60.0883 43.5151 60.35C43.8948 60.7356 43.981 61.2954 43.9959 61.6287H40.7455ZM42.5365 59.1728C40.9179 59.1728 39.8309 60.4692 39.8309 62.3987C39.8309 64.1939 40.9563 65.4001 42.6312 65.4001C43.6838 65.4001 44.282 65.1297 44.4898 65.014L44.6184 64.9427L44.2392 64.2858L44.1497 64.3265C43.8534 64.4641 43.4499 64.6044 42.7021 64.6044C41.4756 64.6044 40.7478 63.7977 40.6988 62.3885H44.8459L44.873 62.2665C44.8998 62.1438 44.8998 62.0538 44.8998 61.8901C44.8998 61.6695 44.869 60.8967 44.4698 60.2249C44.0547 59.5263 43.4042 59.1728 42.5365 59.1728" fill="#222222"/>
<path d="M51.7148 64.307H51.7144C51.2801 64.5072 50.671 64.6268 50.0849 64.6268C48.1343 64.6268 46.9702 63.3936 46.9702 61.3284C46.9702 59.1841 48.1689 57.9035 50.177 57.9035C50.7324 57.9035 51.2605 58.0083 51.664 58.1979L51.7509 58.2387L52.1433 57.5587L52.0262 57.4937C51.871 57.4089 51.2793 57.1314 50.1655 57.1314C47.731 57.1314 46.0948 58.8134 46.0948 61.3166C46.0948 64.3294 48.1458 65.3989 49.9019 65.3989C50.8914 65.3989 51.6628 65.1891 52.0557 64.9933L52.1829 64.9288L51.8011 64.2677L51.7148 64.307Z" fill="#222222"/>
<path d="M56.2326 59.2911C55.7898 59.2911 55.3656 59.4131 55.0092 59.642C54.8043 59.7598 54.6135 59.9216 54.4512 60.1154V57H53.5734V65.4001H54.4512V61.7847C54.4512 61.568 54.4606 61.4285 54.5134 61.2693C54.7591 60.5801 55.403 60.098 56.0788 60.098C57.3 60.098 57.4818 61.221 57.4818 61.8911V65.4001H58.3602V61.832C58.3602 59.4135 56.5873 59.2911 56.2326 59.2911Z" fill="#222222"/>
<path d="M66.704 58.1477H65.8257V59.4759H64.8694V60.1926H65.8257V63.6151C65.8257 64.2968 65.9531 64.7735 66.2129 65.0686C66.4484 65.3701 66.826 65.5293 67.3039 65.5293C67.6358 65.5293 67.9229 65.4775 68.1577 65.3748L68.2985 65.3136L67.9299 64.6748L67.8541 64.6915C67.7208 64.7198 67.5599 64.7346 67.3753 64.7346C66.9047 64.7346 66.704 64.4313 66.704 63.7211V60.1926H68.3216V59.4759H66.704V58.1477Z" fill="#222222"/>
<path d="M61.0192 62.9198C61.4007 62.5495 62.1184 62.3618 63.1512 62.3618L63.2582 62.3625L63.2598 63.4257C63.2598 63.5004 63.2511 63.6116 63.2087 63.7185C63.0394 64.2152 62.5487 64.7466 61.6794 64.7466C61.2281 64.7466 60.701 64.4778 60.701 63.7211C60.701 63.3946 60.8079 63.1249 61.0192 62.9198ZM64.1374 63.898V61.6783C64.1374 60.1165 63.4061 59.2911 62.0216 59.2911C61.4099 59.2911 60.7551 59.4812 60.2721 59.7997L60.1814 59.8541L60.563 60.5136L60.6583 60.4493C61.0133 60.2071 61.4766 60.0741 61.9625 60.0741H61.9828C62.3733 60.0741 62.6764 60.1789 62.8849 60.3854C63.1369 60.6346 63.2594 61.0261 63.2598 61.5805C61.9041 61.585 60.9252 61.8757 60.3491 62.4459C59.9845 62.807 59.7998 63.2681 59.7998 63.8155C59.7998 64.6413 60.3696 65.5295 61.6203 65.5295C62.4927 65.5295 63.0507 65.1079 63.3434 64.7991L63.4035 65.4H64.2467L64.218 65.22C64.1471 64.7829 64.1374 64.3264 64.1374 63.898" fill="#222222"/>
<path d="M74.4212 57.9225C74.5929 57.894 74.916 57.8547 75.3874 57.8547C76.6694 57.8547 77.4042 58.4605 77.4042 59.5173C77.4042 60.6566 76.6305 61.3104 75.2809 61.3104C75.0194 61.3104 74.6895 61.301 74.4212 61.232V57.9225ZM75.4107 57.0717C74.8284 57.0717 74.2431 57.1233 73.6717 57.227L73.5434 57.2498V65.3998H74.4212V62.0396C74.6579 62.0837 74.9198 62.0933 75.234 62.0933C76.2869 62.0933 77.1583 61.7608 77.6871 61.1573C78.0871 60.7178 78.2821 60.1624 78.2821 59.4582C78.2821 58.7709 78.0536 58.1931 77.6214 57.788C77.1407 57.3195 76.3766 57.0717 75.4107 57.0717Z" fill="#222222"/>
<path d="M88.4792 59.4208L87.0603 63.1929C86.947 63.4887 86.8465 63.7834 86.7619 64.0345C86.6717 63.7598 86.5723 63.4786 86.4764 63.2259L84.9888 59.5193L84.9504 59.4208H84.012L86.1994 64.8887C86.2581 65.0376 86.259 65.0774 86.259 65.0788C86.259 65.1165 86.2284 65.1961 86.2004 65.2665C85.918 65.9362 85.5494 66.3853 85.2905 66.6439C84.9356 66.9862 84.5505 67.1617 84.3531 67.2358L84.1941 67.2943L84.6091 68.0119L84.6939 67.9799C84.843 67.9234 85.238 67.7517 85.678 67.3809C86.4329 66.7221 86.9103 65.7214 87.6331 63.8618L89.4211 59.4208H88.4792Z" fill="#222222"/>
<path d="M82.1152 63.4258C82.1152 63.5007 82.1065 63.6123 82.0648 63.7183C81.8947 64.2148 81.4041 64.7462 80.5357 64.7462C80.0839 64.7462 79.557 64.4779 79.557 63.7212C79.557 63.3947 79.6637 63.125 79.8748 62.9199C80.2573 62.5494 80.9743 62.3617 82.0066 62.3617L82.1142 62.3624L82.1152 63.4258ZM82.993 63.8981V61.6786C82.993 60.1163 82.2617 59.291 80.8779 59.291C80.3011 59.291 79.6727 59.4658 79.1962 59.759L79.1076 59.8144L79.485 60.4663L79.5787 60.4077C79.9247 60.1926 80.3647 60.0741 80.8183 60.0741H80.8393C81.2286 60.0741 81.5322 60.179 81.7409 60.3851C81.9925 60.6342 82.1147 61.0262 82.1152 61.5806C80.7602 61.5853 79.7815 61.876 79.2054 62.446C78.8405 62.8071 78.6557 63.2678 78.6557 63.8154C78.6557 64.6412 79.2254 65.5296 80.4756 65.5296C81.3488 65.5296 81.907 65.1085 82.1993 64.7992L82.2596 65.4001H83.103L83.074 65.2194C83.0027 64.7813 82.993 64.3258 82.993 63.8981" fill="#222222"/>
<path d="M53.9176 34.7176C53.7259 34.8144 53.5096 34.8705 53.28 34.8705C52.7491 34.8705 52.287 34.5777 52.0444 34.1458L51.9518 33.9423L48.0834 25.4538C48.0417 25.3617 48.0156 25.2574 48.0156 25.1556C48.0156 24.7642 48.3328 24.4471 48.7241 24.4471C48.883 24.4471 49.0295 24.4994 49.148 24.588L53.7122 27.8379C54.0462 28.056 54.4443 28.1839 54.8729 28.1839C55.1289 28.1839 55.3723 28.1366 55.5998 28.0536L77.0669 18.4989C73.2192 13.9637 66.8819 11 59.7103 11C47.9746 11 38.4618 18.9276 38.4618 28.7075C38.4618 34.0431 41.3238 38.8461 45.8034 42.092C46.1633 42.3487 46.3984 42.7699 46.3984 43.2459C46.3984 43.403 46.3649 43.5474 46.324 43.6972C45.9659 45.0319 45.3934 47.1689 45.366 47.269C45.3218 47.4363 45.252 47.611 45.252 47.787C45.252 48.1777 45.5693 48.495 45.9605 48.495C46.1143 48.495 46.2396 48.438 46.3696 48.3631L51.0215 45.6775C51.3715 45.4754 51.742 45.3506 52.1497 45.3506C52.3671 45.3506 52.5769 45.3838 52.7743 45.4441C54.9445 46.0683 57.2857 46.4152 59.7103 46.4152C71.4454 46.4152 80.9586 38.4871 80.9586 28.7075C80.9586 25.7454 80.0815 22.9555 78.5387 20.5022L54.0726 34.6281L53.9176 34.7176Z" fill="#14AB39"/>
</svg>
