<svg width="120" height="80" viewBox="0 0 120 80" fill="none" xmlns="http://www.w3.org/2000/svg">
<g clip-path="url(#clip0_828_1381)">
<rect width="120" height="80" rx="4" fill="url(#paint0_linear_828_1381)"/>
<path d="M108.261 30.2978C108.277 27.824 107.055 26.0674 104.819 25.056C104.129 24.7437 103.363 24.5908 102.624 24.3985C102 24.2365 101.343 24.1834 100.737 23.9749C99.7051 23.6194 99.2539 22.8865 99.3803 21.9524C99.5357 20.804 100.26 20.0998 101.364 20.0224C102.463 19.9454 103.301 20.3167 103.925 21.2849C104.559 22.267 105.567 22.4612 106.441 21.9031C107.263 21.3771 107.515 20.2919 106.984 19.3275C106.401 18.2692 105.519 17.5075 104.444 16.9695C104.127 16.8109 103.796 16.6801 103.441 16.5233C103.441 15.9378 103.46 15.4141 103.437 14.8924C103.387 13.7492 102.678 13.0084 101.654 13.0001C100.625 12.9917 99.8861 13.714 99.8064 14.8492C99.7697 15.3717 99.8002 15.8989 99.8002 16.5306C99.5762 16.633 99.436 16.7047 99.2904 16.7626C96.4567 17.8886 95.5569 20.7956 95.7282 22.6973C95.9578 25.2472 97.617 27.0032 100.322 27.6828C100.634 27.7611 100.961 27.7809 101.275 27.8528C101.943 28.0057 102.633 28.1072 103.266 28.3535C104.25 28.7362 104.662 29.4421 104.626 30.4244C104.585 31.5006 104.004 32.3378 103.069 32.6659C101.238 33.3083 99.3971 32.5878 98.4785 30.8693C97.9383 29.8588 96.9824 29.4864 96.0499 29.9233C95.2018 30.3207 94.798 31.2041 95.0992 32.1488C95.6609 33.9104 96.8542 35.1138 98.5207 35.8667C98.919 36.0466 99.3313 36.1953 99.8057 36.3859C99.8057 36.9704 99.7655 37.5362 99.8144 38.0941C99.9053 39.1316 100.685 39.8757 101.621 39.8825C102.626 39.8898 103.378 39.1223 103.434 38.0009C103.46 37.4826 103.439 36.9618 103.439 36.4499C103.972 36.2315 104.427 36.0732 104.858 35.8634C107.175 34.7353 108.245 32.803 108.261 30.2978Z" fill="#F4F4F4"/>
<path d="M27.926 0V40.3359C23.3806 35.5601 17.1902 36.5336 14.0999 39.1237C10.0242 42.5396 10.4036 47.0286 15.2701 51.5382H0V54.7609H25.4308C23.3866 56.552 21.4988 58.2042 19.6135 59.8586C18.7997 60.5728 17.9608 61.2673 17.1887 62.0151C16.5079 62.6744 16.5508 63.5439 17.2017 64.1315C17.8566 64.7227 18.819 64.7601 19.6109 64.2043C19.8995 64.0017 20.1536 63.7603 20.416 63.53C22.6213 61.5944 24.8239 59.6564 27.0306 57.722C27.2803 57.5031 27.5505 57.3023 27.9352 56.9937V80H31.5708V56.8892C33.3701 58.4795 34.9862 59.9113 36.6066 61.3394C38.5726 63.072 40.5065 64.8349 42.5382 66.506C42.9818 66.8709 43.8178 67.1066 44.4036 67.0234C44.8766 66.9563 45.5598 66.3341 45.5838 65.932C45.6173 65.3728 45.2837 64.6513 44.8273 64.238C41.6216 61.3353 38.3434 58.4944 35.0902 55.6321C34.8067 55.3827 34.5364 55.1215 34.1355 54.7508H120V51.5387H44.0819C46.8049 49.7381 48.2627 47.5441 48.2151 44.6896C48.179 42.5254 47.2166 40.7137 45.4829 39.1938C42.58 36.6489 36.3638 35.4033 31.6031 40.2783V0H27.926ZM19.2161 49.5204C16.5286 49.0305 14.6559 46.9546 14.7719 44.6972C14.8893 42.409 16.9185 40.4066 19.4244 40.1061C22.3099 39.76 24.965 41.0961 25.6627 43.4719C26.3636 45.8583 26.808 48.303 27.4039 50.8921C24.5217 50.4125 21.8604 50.0024 19.2161 49.5204ZM33.6988 43.8277C34.3101 41.3838 36.8424 39.8657 39.7657 40.0884C42.3886 40.2883 44.5055 42.2343 44.7165 44.6396C44.9143 46.8942 43.0044 49.022 40.2433 49.5278C37.6042 50.0113 34.9488 50.4263 32.1214 50.9016C32.669 48.4235 33.1267 46.1146 33.6988 43.8277Z" fill="white"/>
</g>
<defs>
<linearGradient id="paint0_linear_828_1381" x1="34.9333" y1="15.4667" x2="54.9376" y2="59.9923" gradientUnits="userSpaceOnUse">
<stop stop-color="#DDBD68"/>
<stop offset="1" stop-color="#C6A34F"/>
</linearGradient>
<clipPath id="clip0_828_1381">
<rect width="120" height="80" rx="4" fill="white"/>
</clipPath>
</defs>
</svg>
