<svg width="120" height="80" viewBox="0 0 120 80" fill="none" xmlns="http://www.w3.org/2000/svg">
<rect width="120" height="80" rx="4" fill="white"/>
<mask id="mask0_828_1639" style="mask-type:luminance" maskUnits="userSpaceOnUse" x="5" y="7" width="22" height="18">
<path d="M27 7H5V25H27V7Z" fill="white"/>
</mask>
<g mask="url(#mask0_828_1639)">
<path d="M23 7H7C5.89543 7 5 7.89543 5 9C5 10.1046 5.89543 11 7 11H23C24.1046 11 25 10.1046 25 9C25 7.89543 24.1046 7 23 7Z" fill="#707070"/>
<path d="M20 14H7C5.89543 14 5 14.8954 5 16C5 17.1046 5.89543 18 7 18H20C21.1046 18 22 17.1046 22 16C22 14.8954 21.1046 14 20 14Z" fill="#707070"/>
<path d="M25 21H7C5.89543 21 5 21.8954 5 23C5 24.1046 5.89543 25 7 25H25C26.1046 25 27 24.1046 27 23C27 21.8954 26.1046 21 25 21Z" fill="#707070"/>
</g>
<mask id="mask1_828_1639" style="mask-type:luminance" maskUnits="userSpaceOnUse" x="81" y="7" width="22" height="18">
<path d="M103 7H81V25H103V7Z" fill="white"/>
</mask>
<g mask="url(#mask1_828_1639)">
<path d="M99 7H83C81.8954 7 81 7.89543 81 9C81 10.1046 81.8954 11 83 11H99C100.105 11 101 10.1046 101 9C101 7.89543 100.105 7 99 7Z" fill="#707070"/>
<path d="M96 14H83C81.8954 14 81 14.8954 81 16C81 17.1046 81.8954 18 83 18H96C97.1046 18 98 17.1046 98 16C98 14.8954 97.1046 14 96 14Z" fill="#707070"/>
<path d="M101 21H83C81.8954 21 81 21.8954 81 23C81 24.1046 81.8954 25 83 25H101C102.105 25 103 24.1046 103 23C103 21.8954 102.105 21 101 21Z" fill="#707070"/>
</g>
<mask id="mask2_828_1639" style="mask-type:luminance" maskUnits="userSpaceOnUse" x="40" y="7" width="36" height="24">
<path d="M76 7H40V31H76V7Z" fill="white"/>
</mask>
<g mask="url(#mask2_828_1639)">
<path d="M43 7H40V10H43V7Z" fill="black"/>
<path d="M46 7H43V10H46V7Z" fill="white"/>
<path d="M49 7H46V10H49V7Z" fill="black"/>
<path d="M52 7H49V10H52V7Z" fill="white"/>
<path d="M55 7H52V10H55V7Z" fill="black"/>
<path d="M58 7H55V10H58V7Z" fill="white"/>
<path d="M61 7H58V10H61V7Z" fill="black"/>
<path d="M64 7H61V10H64V7Z" fill="white"/>
<path d="M67 7H64V10H67V7Z" fill="black"/>
<path d="M70 7H67V10H70V7Z" fill="white"/>
<path d="M73 7H70V10H73V7Z" fill="black"/>
<path d="M76 7H73V10H76V7Z" fill="white"/>
<path d="M43 10H40V13H43V10Z" fill="white"/>
<path d="M46 10H43V13H46V10Z" fill="white"/>
<path d="M49 10H46V13H49V10Z" fill="white"/>
<path d="M52 10H49V13H52V10Z" fill="black"/>
<path d="M55 10H52V13H55V10Z" fill="black"/>
<path d="M58 10H55V13H58V10Z" fill="white"/>
<path d="M61 10H58V13H61V10Z" fill="white"/>
<path d="M64 10H61V13H64V10Z" fill="black"/>
<path d="M67 10H64V13H67V10Z" fill="white"/>
<path d="M70 10H67V13H70V10Z" fill="black"/>
<path d="M73 10H70V13H73V10Z" fill="white"/>
<path d="M76 10H73V13H76V10Z" fill="black"/>
<path d="M43 13H40V16H43V13Z" fill="black"/>
<path d="M46 13H43V16H46V13Z" fill="white"/>
<path d="M49 13H46V16H49V13Z" fill="black"/>
<path d="M52 13H49V16H52V13Z" fill="white"/>
<path d="M55 13H52V16H55V13Z" fill="black"/>
<path d="M58 13H55V16H58V13Z" fill="white"/>
<path d="M61 13H58V16H61V13Z" fill="black"/>
<path d="M64 13H61V16H64V13Z" fill="white"/>
<path d="M67 13H64V16H67V13Z" fill="black"/>
<path d="M70 13H67V16H70V13Z" fill="white"/>
<path d="M73 13H70V16H73V13Z" fill="black"/>
<path d="M76 13H73V16H76V13Z" fill="white"/>
<path d="M43 16H40V19H43V16Z" fill="white"/>
<path d="M46 16H43V19H46V16Z" fill="black"/>
<path d="M49 16H46V19H49V16Z" fill="white"/>
<path d="M52 16H49V19H52V16Z" fill="black"/>
<path d="M55 16H52V19H55V16Z" fill="white"/>
<path d="M58 16H55V19H58V16Z" fill="black"/>
<path d="M61 16H58V19H61V16Z" fill="white"/>
<path d="M64 16H61V19H64V16Z" fill="white"/>
<path d="M67 16H64V19H67V16Z" fill="black"/>
<path d="M70 16H67V19H70V16Z" fill="white"/>
<path d="M73 16H70V19H73V16Z" fill="white"/>
<path d="M76 16H73V19H76V16Z" fill="black"/>
<path d="M43 19H40V22H43V19Z" fill="black"/>
<path d="M46 19H43V22H46V19Z" fill="white"/>
<path d="M49 19H46V22H49V19Z" fill="white"/>
<path d="M52 19H49V22H52V19Z" fill="white"/>
<path d="M55 19H52V22H55V19Z" fill="black"/>
<path d="M58 19H55V22H58V19Z" fill="black"/>
<path d="M61 19H58V22H61V19Z" fill="black"/>
<path d="M64 19H61V22H64V19Z" fill="white"/>
<path d="M67 19H64V22H67V19Z" fill="black"/>
<path d="M70 19H67V22H70V19Z" fill="white"/>
<path d="M73 19H70V22H73V19Z" fill="black"/>
<path d="M76 19H73V22H76V19Z" fill="white"/>
<path d="M43 22H40V25H43V22Z" fill="white"/>
<path d="M46 22H43V25H46V22Z" fill="black"/>
<path d="M49 22H46V25H49V22Z" fill="white"/>
<path d="M52 22H49V25H52V22Z" fill="black"/>
<path d="M55 22H52V25H55V22Z" fill="white"/>
<path d="M58 22H55V25H58V22Z" fill="black"/>
<path d="M61 22H58V25H61V22Z" fill="white"/>
<path d="M64 22H61V25H64V22Z" fill="black"/>
<path d="M67 22H64V25H67V22Z" fill="white"/>
<path d="M70 22H67V25H70V22Z" fill="black"/>
<path d="M73 22H70V25H73V22Z" fill="white"/>
<path d="M76 22H73V25H76V22Z" fill="black"/>
<path d="M43 25H40V28H43V25Z" fill="black"/>
<path d="M46 25H43V28H46V25Z" fill="white"/>
<path d="M49 25H46V28H49V25Z" fill="black"/>
<path d="M52 25H49V28H52V25Z" fill="white"/>
<path d="M55 25H52V28H55V25Z" fill="black"/>
<path d="M58 25H55V28H58V25Z" fill="white"/>
<path d="M61 25H58V28H61V25Z" fill="black"/>
<path d="M64 25H61V28H64V25Z" fill="white"/>
<path d="M67 25H64V28H67V25Z" fill="black"/>
<path d="M70 25H67V28H70V25Z" fill="white"/>
<path d="M73 25H70V28H73V25Z" fill="black"/>
<path d="M76 25H73V28H76V25Z" fill="white"/>
<path d="M43 28H40V31H43V28Z" fill="white"/>
<path d="M46 28H43V31H46V28Z" fill="black"/>
<path d="M49 28H46V31H49V28Z" fill="white"/>
<path d="M52 28H49V31H52V28Z" fill="black"/>
<path d="M55 28H52V31H55V28Z" fill="white"/>
<path d="M58 28H55V31H58V28Z" fill="black"/>
<path d="M61 28H58V31H61V28Z" fill="white"/>
<path d="M64 28H61V31H64V28Z" fill="black"/>
<path d="M67 28H64V31H67V28Z" fill="white"/>
<path d="M70 28H67V31H70V28Z" fill="black"/>
<path d="M73 28H70V31H73V28Z" fill="white"/>
<path d="M76 28H73V31H76V28Z" fill="black"/>
</g>
<path d="M36 0H35V80H36V0Z" fill="#707070"/>
<path d="M116 26H14C11.7909 26 10 27.7909 10 30V76C10 78.2091 11.7909 80 14 80H116C118.209 80 120 78.2091 120 76V30C120 27.7909 118.209 26 116 26Z" fill="#FAEEDE"/>
<mask id="mask3_828_1639" style="mask-type:luminance" maskUnits="userSpaceOnUse" x="15" y="33" width="22" height="18">
<path d="M37 33H15V51H37V33Z" fill="white"/>
</mask>
<g mask="url(#mask3_828_1639)">
<path d="M33 33H17C15.8954 33 15 33.8954 15 35C15 36.1046 15.8954 37 17 37H33C34.1046 37 35 36.1046 35 35C35 33.8954 34.1046 33 33 33Z" fill="#707070"/>
<path d="M30 40H17C15.8954 40 15 40.8954 15 42C15 43.1046 15.8954 44 17 44H30C31.1046 44 32 43.1046 32 42C32 40.8954 31.1046 40 30 40Z" fill="#707070"/>
<path d="M35 47H17C15.8954 47 15 47.8954 15 49C15 50.1046 15.8954 51 17 51H35C36.1046 51 37 50.1046 37 49C37 47.8954 36.1046 47 35 47Z" fill="#707070"/>
</g>
<mask id="mask4_828_1639" style="mask-type:luminance" maskUnits="userSpaceOnUse" x="51" y="33" width="22" height="18">
<path d="M73 33H51V51H73V33Z" fill="white"/>
</mask>
<g mask="url(#mask4_828_1639)">
<path d="M69 33H53C51.8954 33 51 33.8954 51 35C51 36.1046 51.8954 37 53 37H69C70.1046 37 71 36.1046 71 35C71 33.8954 70.1046 33 69 33Z" fill="#707070"/>
<path d="M66 40H53C51.8954 40 51 40.8954 51 42C51 43.1046 51.8954 44 53 44H66C67.1046 44 68 43.1046 68 42C68 40.8954 67.1046 40 66 40Z" fill="#707070"/>
<path d="M71 47H53C51.8954 47 51 47.8954 51 49C51 50.1046 51.8954 51 53 51H71C72.1046 51 73 50.1046 73 49C73 47.8954 72.1046 47 71 47Z" fill="#707070"/>
</g>
<mask id="mask5_828_1639" style="mask-type:luminance" maskUnits="userSpaceOnUse" x="45" y="26" width="1" height="54">
<path d="M46 26H45V80H46V26Z" fill="white"/>
</mask>
<g mask="url(#mask5_828_1639)">
<path d="M46 26H45V80H46V26Z" fill="#F2A43A"/>
</g>
<path d="M105 48.25C109.004 48.25 112.25 45.0041 112.25 41C112.25 36.9959 109.004 33.75 105 33.75C100.996 33.75 97.75 36.9959 97.75 41C97.75 45.0041 100.996 48.25 105 48.25Z" stroke="#F2A43A" stroke-width="1.5"/>
<path d="M120 66H46V80H120V66Z" fill="white"/>
<rect x="1.5" y="1.5" width="117" height="77" rx="2.5" stroke="black" stroke-opacity="0.08" stroke-width="3"/>
</svg>
