<svg width="120" height="80" viewBox="0 0 120 80" fill="none" xmlns="http://www.w3.org/2000/svg">
<rect width="120" height="80" rx="4" fill="url(#paint0_linear_804_2)"/>
<path fill-rule="evenodd" clip-rule="evenodd" d="M65.3997 64.8343C79.0213 64.8992 91.4542 53.7631 91.4542 40.2157C91.4542 25.4007 79.0213 15.1605 65.3997 15.1654H53.6768C39.8921 15.1605 28.5459 25.4038 28.5459 40.2157C28.5459 53.7661 39.8921 64.8993 53.6768 64.8343H65.3997Z" fill="#3477B9"/>
<path fill-rule="evenodd" clip-rule="evenodd" d="M53.6852 17.1522C41.0891 17.1561 30.8821 27.3313 30.8792 39.8896C30.8821 52.4456 41.089 62.6199 53.6852 62.6238C66.2843 62.6199 76.4934 52.4456 76.4952 39.8896C76.4933 27.3313 66.2843 17.1561 53.6852 17.1522ZM39.2291 39.8896C39.241 33.7529 43.0866 28.5199 48.5095 26.4404V53.3355C43.0866 51.2572 39.2409 46.0271 39.2291 39.8896ZM58.859 53.3415V26.4396C64.2838 28.514 68.1355 33.7499 68.1453 39.8896C68.1355 46.0311 64.2838 51.263 58.859 53.3415Z" fill="white"/>
<defs>
<linearGradient id="paint0_linear_804_2" x1="1.68141e-06" y1="21" x2="120" y2="54" gradientUnits="userSpaceOnUse">
<stop stop-color="#3479C0"/>
<stop offset="1" stop-color="#133362"/>
</linearGradient>
</defs>
</svg>
