<svg width="120" height="80" viewBox="0 0 120 80" fill="none" xmlns="http://www.w3.org/2000/svg">
<rect width="120" height="80" rx="4" fill="black"/>
<path fill-rule="evenodd" clip-rule="evenodd" d="M27.708 30.5C28.695 30.1667 29.7508 29.9857 30.8495 29.9857C35.6441 29.9857 39.6435 33.4274 40.561 37.9996L47.3554 36.5996C45.7964 28.8289 38.9996 22.9796 30.8495 22.9796C28.9835 22.9796 27.1874 23.2868 25.5107 23.8527L27.708 30.5Z" fill="#FFF200"/>
<path fill-rule="evenodd" clip-rule="evenodd" d="M19.6909 52.7489L24.2846 47.5005C22.2341 45.6653 20.9399 42.9861 20.9399 39.9996C20.9399 37.0154 22.2329 34.3361 24.2828 32.5023L19.6867 27.2545C16.2025 30.3725 14.0068 34.9269 14.0068 39.9996C14.0068 45.0749 16.2057 49.631 19.6909 52.7489Z" fill="#00A4E0"/>
<path fill-rule="evenodd" clip-rule="evenodd" d="M40.5582 42.0099C39.6375 46.5784 35.6401 50.0137 30.8491 50.0137C29.7498 50.0137 28.6918 49.8323 27.7046 49.4981L25.5039 56.1447C27.1834 56.713 28.9803 57.0204 30.8491 57.0204C38.9928 57.0204 45.7859 51.1787 47.3513 43.416L40.5582 42.0099Z" fill="#EF4123"/>
<path fill-rule="evenodd" clip-rule="evenodd" d="M69.9706 46.706C68.8486 47.8089 67.3272 48.4809 65.6473 48.4568C64.4959 48.4373 63.429 48.0889 62.5219 47.5084L60.2731 51.1297C61.8132 52.1136 63.6292 52.6957 65.5869 52.7264C68.4367 52.7692 71.0341 51.6378 72.9227 49.7697L69.9706 46.706ZM59.7284 42.9824C59.7029 42.7418 59.6849 42.4951 59.6917 42.2461C59.7451 38.867 62.4965 36.1707 65.8375 36.2267C67.6561 36.2513 69.2709 37.0929 70.3625 38.3955L59.7284 42.9824ZM65.8988 31.9527C60.228 31.8648 55.5546 36.443 55.469 42.1784C55.4359 44.3279 56.0505 46.3378 57.1318 48.0084L75.7472 39.9676C74.6998 35.436 70.7119 32.029 65.8988 31.9527ZM81.5867 27.2724V47.3281L85.0304 48.7707L83.4013 52.7264L79.9958 51.2958C79.2301 50.9602 78.7119 50.4489 78.3181 49.8714C77.9401 49.2806 77.6598 48.473 77.6598 47.3833V27.2724H81.5867ZM94.0011 36.5405C94.6034 36.3362 95.2481 36.2266 95.9188 36.2266C98.8453 36.2266 101.286 38.3268 101.845 41.1183L105.993 40.2637C105.042 35.5205 100.893 31.9499 95.9188 31.9499C94.7791 31.9499 93.6838 32.1374 92.6611 32.4825L94.0011 36.5405ZM89.1084 50.12L91.9112 46.9168C90.6594 45.7968 89.8712 44.161 89.8712 42.3378C89.8712 40.5164 90.6594 38.8814 91.91 37.7622L89.1052 34.5591C86.9788 36.4623 85.6391 39.2432 85.6391 42.3378C85.6391 45.4363 86.9798 48.2162 89.1084 50.12ZM101.845 43.5654C101.283 46.3528 98.8426 48.4512 95.9187 48.4512C95.2475 48.4512 94.6024 48.3398 93.9991 48.1361L92.656 52.1926C93.6815 52.5394 94.7781 52.7275 95.9187 52.7275C100.888 52.7275 105.036 49.1617 105.992 44.4236L101.845 43.5654Z" fill="white"/>
</svg>
