<svg width="120" height="80" viewBox="0 0 120 80" fill="none" xmlns="http://www.w3.org/2000/svg">
<rect width="120" height="80" rx="4" fill="white"/>
<path d="M90.2165 60.5524C94.9703 60.5524 99.1212 59.0903 100.076 54.3889C101.03 49.6875 107.242 19.4501 107.242 19.4501H29.7672C25.0095 19.4501 20.8433 21.1439 19.9061 25.611C18.9676 30.0768 12.7593 60.546 12.7593 60.546L90.2165 60.5524Z" fill="#B3131B"/>
<path d="M90.2163 60.8931V60.5525V60.2094C94.9292 60.1889 98.8278 58.7984 99.7394 54.3186C100.629 49.9412 106.076 23.4231 106.823 19.7921H29.767C25.0656 19.8061 21.1312 21.4373 20.2401 25.6803C19.7715 27.9119 17.9841 36.645 16.3133 44.8211C14.8729 51.8809 13.5209 58.5155 13.1765 60.203L90.2163 60.2094V60.5525L90.215 60.8931L12.3379 60.8854L12.4224 60.4757C12.4224 60.4757 18.6294 30.0078 19.5692 25.5394C20.555 20.8522 24.953 19.0904 29.767 19.1058H107.662L107.578 19.5181C107.578 19.5334 106.026 27.0758 104.352 35.2251C102.679 43.3718 100.888 52.1062 100.413 54.4556C99.4218 59.3503 95.0674 60.8944 90.3085 60.8944C90.279 60.8944 90.247 60.8944 90.2163 60.8931Z" fill="white"/>
<path d="M21.1062 45.6986L21.7502 42.4133L22.4032 38.9462L23.4863 32.1732L23.5324 31.9633H25.8524C25.828 32.0683 25.828 32.1323 25.8076 32.1732C25.7243 32.5701 25.5579 33.4484 25.3274 34.8043C25.202 35.5367 25.033 36.3727 24.846 37.315L24.8051 37.6095H24.9933L28.0212 37.6479L30.9698 37.6095H31.2029L31.2425 37.315C31.368 36.4995 31.4935 35.6416 31.6599 34.7211C31.9967 32.8825 32.0171 32.7558 32.1221 31.9646H34.4805C34.4434 32.1118 34.4434 32.1118 34.419 32.1745C34.3768 32.3832 34.1707 33.4702 33.8134 35.4547L33.1669 38.9462L32.5805 42.4146C32.2476 44.3812 32.0786 45.4682 32.0415 45.6986C32.0415 45.778 32.0415 45.778 32.0171 45.9047H29.6549L29.6998 45.6986C29.7574 45.4464 29.8636 44.8408 30.0288 43.8793C30.0915 43.5195 30.2183 42.9177 30.3847 41.9959L30.7202 40.1561C30.8252 39.594 30.8879 39.256 30.9071 39.1728C30.9071 39.1305 30.9289 39.0716 30.9481 38.9654H30.6779C30.2823 38.9462 28.8599 38.9462 27.5014 38.9462C26.143 38.9462 25.2404 38.9462 24.823 38.9641H24.5541C24.5119 39.3648 24.4914 39.4442 24.3659 40.1561C24.2609 40.6989 24.1598 41.3263 24.0535 41.9946C23.8871 42.9805 23.7795 43.6053 23.7386 43.878C23.5721 44.8818 23.4658 45.4848 23.4249 45.6986C23.4249 45.7357 23.4249 45.8215 23.4057 45.9035H21.064L21.1062 45.6986Z" fill="white"/>
<path d="M34.1268 45.7074L34.566 43.4681L35.0461 40.9523L35.4456 38.5145C35.6466 37.2739 35.7656 36.4968 35.804 36.1767C35.804 36.1357 35.804 36.0755 35.8245 35.9769H37.8795C37.8628 36.0755 37.841 36.1357 37.8244 36.1767C37.7437 36.4968 37.6042 37.2739 37.3609 38.5145L36.9026 40.9523L36.4865 43.4681C36.3021 44.646 36.1817 45.4053 36.1408 45.7074C36.1408 45.7458 36.1408 45.8265 36.1254 45.9046H34.0654L34.1268 45.7074ZM36.2266 33.3971C36.2266 32.3805 36.7246 31.7787 37.6042 31.7787C38.2034 31.7787 38.503 32.0604 38.503 32.6391C38.503 33.6391 37.9819 34.2575 37.1228 34.2575C36.6235 34.2575 36.3239 34.0552 36.2419 33.6788C36.2266 33.5763 36.2266 33.4969 36.2266 33.3971Z" fill="white"/>
<path d="M37.2241 50.1191C37.3214 49.6813 37.5621 48.4432 37.9424 46.3665L38.6005 42.788L39.1804 39.3529C39.4608 37.6744 39.6222 36.6155 39.6823 36.1764C39.6823 36.0957 39.6823 36.0957 39.7003 35.9754H41.4812L41.4377 36.1764L41.3416 36.732L41.3019 36.9535C42.2609 36.1149 43.2391 35.7577 44.5565 35.7577C46.7933 35.7577 47.9929 36.974 47.9929 39.253C47.9929 40.5116 47.6536 41.9302 47.0724 43.19C46.1301 45.1668 44.5757 46.1668 42.4786 46.1668C41.1573 46.1668 40.5581 45.8057 40.0805 44.7686L40.0408 45.0055L39.5812 47.9631C39.4211 48.963 39.2969 49.6813 39.2598 50.1012C39.2598 50.1191 39.2598 50.1998 39.2432 50.3406H37.1626C37.2011 50.1998 37.2011 50.1998 37.2241 50.1191ZM41.2162 38.4105L40.5581 42.1286C40.5171 42.3885 40.48 42.6267 40.48 42.8904C40.48 44.1874 41.1406 44.8301 42.4363 44.8301C43.2967 44.8301 43.9957 44.5254 44.5156 43.9467C45.335 43.0095 45.8945 41.1722 45.8945 39.4937C45.8945 37.8741 45.1762 37.0726 43.6168 37.0726C42.677 37.0726 41.8973 37.4349 41.2763 38.1122L41.2162 38.4105Z" fill="white"/>
<path d="M52.5452 46.1242C49.8527 46.1242 48.5288 44.9694 48.5288 42.5688C48.5288 41.2487 48.8706 39.7712 49.4506 38.5345C50.3289 36.6754 51.9703 35.7574 54.385 35.7574C56.6819 35.7574 57.8253 36.6332 57.8253 38.3731C57.8253 38.8712 57.7023 39.6535 57.5039 40.5497L57.2837 40.5292C56.9252 40.5113 55.8036 40.5113 53.9254 40.5113C52.3275 40.5113 51.3506 40.5113 50.9717 40.5292L50.7668 40.5497C50.5888 41.4485 50.5722 41.6712 50.5722 42.3101C50.5722 43.9105 51.4876 44.7684 53.2071 44.7684C54.3287 44.7684 55.4042 44.5494 56.6064 44.0283L56.3042 45.6262C55.1455 45.9463 53.7845 46.1242 52.5452 46.1242ZM51.2482 39.391C51.4684 39.4128 52.2085 39.4128 53.4478 39.4128H53.7666C54.6654 39.4128 55.2851 39.4128 55.6436 39.391H55.8254L55.8638 39.1311C55.9035 38.8929 55.9252 38.6714 55.9252 38.4743C55.9252 37.4935 55.2633 37.016 53.9856 37.016C52.3659 37.016 51.4467 37.733 51.028 39.391H51.2482Z" fill="white"/>
<path d="M58.1204 45.7074L58.5621 43.4681L59.0409 40.9523L59.4404 38.5145C59.6401 37.2739 59.7592 36.4968 59.8002 36.1767C59.8002 36.1357 59.8206 36.0755 59.8206 35.9769H61.6169L61.5785 36.1767L61.343 37.4352L61.2789 37.7131C61.6169 37.1766 61.7386 37.0332 61.9959 36.7323C62.5605 36.096 63.298 35.7554 64.0765 35.7554C64.4785 35.7554 64.8178 35.8361 65.1942 36.0153L64.9368 37.4544C64.4964 37.3149 64.1366 37.2573 63.7576 37.2573C62.5605 37.2573 61.4992 38.3353 61.0779 39.9908C60.9217 40.6117 60.777 41.3313 60.6426 42.1712C60.2419 44.6678 60.1983 44.8662 60.1202 45.9046H58.082L58.1204 45.7074Z" fill="white"/>
<path d="M72.3828 37.5333C71.5429 37.235 70.6441 37.0724 69.8222 37.0724C68.8453 37.0724 68.1014 37.3144 67.6059 37.7932C66.7865 38.5729 66.1476 40.5113 66.1476 42.2487C66.1476 43.949 66.8889 44.7684 68.4074 44.7684C69.3062 44.7684 70.4649 44.488 71.2612 44.0886L70.9809 45.6045C69.963 45.9463 68.8862 46.1243 67.7877 46.1243C66.2257 46.1243 65.3679 45.7632 64.7073 44.867C64.2681 44.2281 64.0889 43.5687 64.0889 42.5099C64.0889 41.131 64.4281 39.6932 65.0683 38.4321C65.35 37.8521 65.7469 37.3336 66.2475 36.8931C67.1271 36.0955 68.2461 35.7549 70.0641 35.7549C70.703 35.7549 71.3803 35.7959 72.4609 35.8945L72.6606 35.9137L72.3828 37.5333Z" fill="white"/>
<path d="M75.3787 46.1242C73.3597 46.1242 72.4033 45.2843 72.4033 43.529C72.4033 40.9299 74.2393 39.4345 77.417 39.4345C77.9151 39.4345 78.8958 39.4716 79.5526 39.5126L79.5961 39.2937C79.7344 38.5729 79.7344 38.514 79.7344 38.2733C79.7344 37.4743 79.075 37.0723 77.7153 37.0723C76.6796 37.0723 75.6809 37.2349 74.3788 37.596L74.7808 35.9546C74.8589 35.9751 74.9191 35.9751 74.9588 35.9751C75.2763 35.9751 75.7795 35.9354 76.4773 35.8547C77.0765 35.7958 77.6757 35.7574 78.2339 35.7574C80.6114 35.7574 81.6728 36.3771 81.6728 37.7547C81.6728 38.1119 81.6139 38.514 81.4526 39.391L81.1325 41.2103C80.7766 43.15 80.5756 44.689 80.5756 45.5865C80.5756 45.6659 80.5756 45.7849 80.5922 45.904H78.7947V45.7465C78.7947 45.4636 78.8766 44.8452 78.9547 44.2652C78.0559 45.5865 76.9984 46.1242 75.3787 46.1242ZM79.1352 40.6521C78.5335 40.5932 78.2339 40.5932 77.8165 40.5932C76.5963 40.5932 75.8781 40.7494 75.3199 41.1911C74.7219 41.6508 74.3596 42.4074 74.3596 43.2473C74.3596 44.2498 74.9588 44.785 76.0548 44.785C77.1571 44.785 78.1353 44.1871 78.618 43.2102C78.9163 42.5688 79.1352 41.789 79.3337 40.67L79.1352 40.6521Z" fill="white"/>
<path d="M82.313 45.7074L82.7483 43.4681L83.2336 40.9523L83.633 38.5145C83.8302 37.2739 83.9506 36.4968 83.9877 36.1767C83.9877 36.1357 84.0094 36.0755 84.0094 35.9769H85.8096L85.7648 36.1767L85.5266 37.4352L85.4677 37.7131C85.8096 37.1766 85.9274 37.0332 86.1873 36.7323C86.7493 36.096 87.4855 35.7554 88.2665 35.7554C88.6647 35.7554 89.004 35.8361 89.3843 36.0153L89.1243 37.4544C88.6839 37.3149 88.3267 37.2573 87.9426 37.2573C86.7493 37.2573 85.6892 38.3353 85.2706 39.9908C85.1105 40.6117 84.9697 41.3313 84.8301 42.1712C84.4307 44.6678 84.3897 44.8662 84.3078 45.9046H82.272L82.313 45.7074Z" fill="white"/>
<path d="M91.7157 46.1241C89.3778 46.1241 88.2793 45.0461 88.2793 42.7108C88.2793 41.3511 88.6185 39.9107 89.2574 38.6713C90.2164 36.756 91.877 35.7573 94.0715 35.7573C94.6937 35.7573 95.3121 35.8149 95.8101 35.9353C95.9727 35.9942 96.0739 36.0147 96.3722 36.1145L96.4106 35.8738C96.4913 35.4744 96.5911 34.838 96.7294 33.9572C96.8882 32.9982 96.9906 32.2992 97.0495 31.8562L97.0713 31.6974H99.1083L99.0699 31.8382C98.9072 32.6397 98.6717 33.8381 98.3708 35.4744C97.8279 38.3948 97.6308 39.4933 97.3299 41.3088C96.9688 43.5289 96.8101 44.886 96.8101 45.7631V45.9039H94.9523C94.9702 45.5864 94.9702 45.4852 95.033 45.0666C95.0932 44.7439 95.1149 44.6287 95.1533 44.2869C94.357 45.6466 93.4364 46.1241 91.7157 46.1241ZM94.1726 37.0556C93.2943 37.0556 92.5786 37.2937 92.0549 37.7546C91.0576 38.6329 90.3777 40.5291 90.3777 42.4893C90.3777 44.0679 91.0179 44.7849 92.4134 44.7849C93.4543 44.7849 94.4338 44.187 94.8704 43.2652C95.074 42.8298 95.2314 42.2883 95.3723 41.6711C95.613 40.451 95.9331 38.7123 96.1123 37.6522L96.1328 37.4346C95.4145 37.1759 94.8499 37.0556 94.1726 37.0556Z" fill="white"/>
</svg>
