<svg width="120" height="80" viewBox="0 0 120 80" fill="none" xmlns="http://www.w3.org/2000/svg">
<rect width="120" height="80" rx="4" fill="white"/>
<path fill-rule="evenodd" clip-rule="evenodd" d="M49.6521 52.3399H70.3479V15.1492H49.6521V52.3399Z" fill="#7375CF"/>
<path fill-rule="evenodd" clip-rule="evenodd" d="M50.966 33.7452C50.966 26.2001 54.4988 19.4802 59.9999 15.1492C55.977 11.9825 50.9003 10.0929 45.3828 10.0929C32.3208 10.0929 21.7324 20.6819 21.7324 33.7452C21.7324 46.8078 32.3208 57.3969 45.3828 57.3969C50.9003 57.3969 55.977 55.5073 59.9999 52.3405C54.4988 48.0095 50.966 41.2896 50.966 33.7452Z" fill="#EB001B"/>
<path fill-rule="evenodd" clip-rule="evenodd" d="M97.5288 48.4011V47.4832H97.289L97.0137 48.1146L96.7378 47.4832H96.498V48.4011H96.6675V47.7086L96.9257 48.3058H97.1011L97.36 47.7073V48.4011H97.5288ZM96.0111 48.4011V47.6396H96.318V47.4846H95.5361V47.6396H95.843V48.4011H96.0111Z" fill="#00A2E5"/>
<path fill-rule="evenodd" clip-rule="evenodd" d="M98.2675 33.7452C98.2675 46.8078 87.6791 57.3969 74.6171 57.3969C69.0996 57.3969 64.0229 55.5073 60 52.3405C65.5011 48.0095 69.0339 41.2896 69.0339 33.7452C69.0339 26.2001 65.5011 19.4802 60 15.1492C64.0229 11.9825 69.0996 10.0929 74.6171 10.0929C87.6791 10.0929 98.2675 20.6819 98.2675 33.7452Z" fill="#00A2E5"/>
<path fill-rule="evenodd" clip-rule="evenodd" d="M85.3422 69.099V69.2534H85.4848C85.5176 69.2534 85.5433 69.2468 85.563 69.2343C85.582 69.2218 85.5919 69.2021 85.5919 69.1752C85.5919 69.1502 85.582 69.1312 85.563 69.118C85.5433 69.1055 85.5176 69.099 85.4848 69.099H85.3422ZM85.4861 68.9906C85.561 68.9906 85.6182 69.007 85.6582 69.0398C85.699 69.0733 85.7187 69.118 85.7187 69.1752C85.7187 69.2231 85.7029 69.2632 85.6707 69.2941C85.6385 69.325 85.5932 69.344 85.5334 69.3513L85.7233 69.57H85.5748L85.3994 69.3532H85.3422V69.57H85.2187V68.9906H85.4861ZM85.4493 69.7691C85.517 69.7691 85.5794 69.7566 85.6379 69.731C85.6963 69.7054 85.7469 69.6706 85.791 69.6272C85.835 69.5832 85.8691 69.5313 85.8941 69.4721C85.9191 69.413 85.9316 69.3499 85.9316 69.2823C85.9316 69.2153 85.9191 69.1522 85.8941 69.093C85.8691 69.0339 85.835 68.982 85.791 68.938C85.7469 68.8946 85.6963 68.8605 85.6379 68.8348C85.5794 68.8099 85.517 68.7974 85.4493 68.7974C85.381 68.7974 85.3172 68.8099 85.2575 68.8348C85.1977 68.8605 85.1464 68.8946 85.1024 68.938C85.0584 68.982 85.0242 69.0339 84.9993 69.093C84.9743 69.1522 84.9618 69.2153 84.9618 69.2823C84.9618 69.3499 84.9743 69.413 84.9993 69.4721C85.0242 69.5313 85.0584 69.5832 85.1024 69.6272C85.1464 69.6706 85.1977 69.7054 85.2575 69.731C85.3172 69.7566 85.381 69.7691 85.4493 69.7691ZM85.4493 68.6581C85.5373 68.6581 85.6195 68.6745 85.697 68.7074C85.7739 68.7402 85.8409 68.7843 85.8987 68.8414C85.9559 68.8979 86.0019 68.9643 86.0347 69.0398C86.0676 69.116 86.0846 69.1969 86.0846 69.2823C86.0846 69.3683 86.0676 69.4491 86.0347 69.5247C86.0019 69.5996 85.9559 69.666 85.8987 69.7225C85.8409 69.779 85.7739 69.8236 85.697 69.8572C85.6195 69.89 85.5373 69.9071 85.4493 69.9071C85.36 69.9071 85.2759 69.89 85.1977 69.8572C85.1202 69.8236 85.0525 69.779 84.9953 69.7225C84.9382 69.666 84.8928 69.5996 84.86 69.5247C84.8265 69.4491 84.81 69.3683 84.81 69.2823C84.81 69.1969 84.8265 69.116 84.86 69.0398C84.8928 68.9643 84.9382 68.8979 84.9953 68.8414C85.0525 68.7843 85.1202 68.7402 85.1977 68.7074C85.2759 68.6745 85.36 68.6581 85.4493 68.6581ZM76.0022 63.1419C76.2781 63.1419 76.6717 63.1944 76.9732 63.3127L76.5534 64.5985C76.265 64.4802 75.9759 64.4408 75.7006 64.4408C74.8084 64.4408 74.3623 65.0183 74.3623 66.055V69.5714H72.9977V63.2995H74.3491V64.0604C74.7033 63.5091 75.2151 63.1419 76.0022 63.1419ZM71.2796 64.5459H69.0491V67.3802C69.0491 68.0096 69.2724 68.4301 69.9544 68.4301C70.3085 68.4301 70.7547 68.3119 71.162 68.0753L71.5555 69.2435C71.1226 69.5451 70.4399 69.729 69.8493 69.729C68.2357 69.729 67.6713 68.8631 67.6713 67.4065V64.5459H66.3987V63.2995H67.6713V61.3969H69.0491V63.2995H71.2796V64.5459ZM64.7227 64.9C64.3423 64.6642 63.5683 64.3626 62.7674 64.3626C62.0197 64.3626 61.5736 64.6379 61.5736 65.0971C61.5736 65.517 62.046 65.6352 62.6367 65.7134L63.2792 65.8054C64.6438 66.0025 65.4703 66.58 65.4703 67.6818C65.4703 68.8756 64.4211 69.729 62.6104 69.729C61.5868 69.729 60.642 69.4662 59.8943 68.915L60.5369 67.8526C60.9961 68.2067 61.6787 68.5083 62.6235 68.5083C63.5552 68.5083 64.0538 68.233 64.0538 67.7475C64.0538 67.3934 63.699 67.1963 62.9514 67.0918L62.3082 66.9998C60.9048 66.8027 60.1433 66.1726 60.1433 65.1497C60.1433 63.9027 61.1669 63.1419 62.7549 63.1419C63.7516 63.1419 64.657 63.3652 65.3133 63.7982L64.7227 64.9ZM54.3051 65.8842C54.449 64.9789 55.0002 64.3626 55.9713 64.3626C56.8504 64.3626 57.4148 64.9132 57.5586 65.8842H54.3051ZM58.9758 66.4354C58.9627 64.4802 57.7557 63.1419 55.9976 63.1419C54.1606 63.1419 52.8748 64.4802 52.8748 66.4354C52.8748 68.4301 54.2131 69.729 56.0896 69.729C57.0343 69.729 57.9003 69.4925 58.6611 68.85L57.9916 67.8395C57.4667 68.2593 56.7978 68.4952 56.1678 68.4952C55.2887 68.4952 54.4884 68.0885 54.2913 66.9604H58.9495C58.9627 66.7896 58.9758 66.6194 58.9758 66.4354ZM80.7497 64.425C80.4705 64.425 80.2103 64.4743 79.9705 64.5722C79.7301 64.6707 79.5231 64.808 79.3483 64.9848C79.1736 65.1615 79.0362 65.3737 78.9357 65.6201C78.8352 65.8671 78.7853 66.1385 78.7853 66.4354C78.7853 66.7324 78.8352 67.0044 78.9357 67.2508C79.0362 67.4972 79.1736 67.7094 79.3483 67.8861C79.5231 68.0629 79.7301 68.2002 79.9705 68.2987C80.2103 68.3973 80.4705 68.4459 80.7497 68.4459C81.029 68.4459 81.2891 68.3973 81.5289 68.2987C81.7694 68.2002 81.9777 68.0629 82.1544 67.8861C82.3311 67.7094 82.4698 67.4972 82.5703 67.2508C82.6708 67.0044 82.7214 66.7324 82.7214 66.4354C82.7214 66.1385 82.6708 65.8671 82.5703 65.6201C82.4698 65.3737 82.3311 65.1615 82.1544 64.9848C81.9777 64.808 81.7694 64.6707 81.5289 64.5722C81.2891 64.4743 81.029 64.425 80.7497 64.425ZM80.7497 63.1346C81.2346 63.1346 81.6833 63.2187 82.0959 63.3869C82.5085 63.5551 82.8653 63.7864 83.1662 64.0807C83.4678 64.3757 83.7036 64.7239 83.8738 65.1254C84.044 65.5275 84.1294 65.9637 84.1294 66.4354C84.1294 66.9072 84.044 67.3434 83.8738 67.7449C83.7036 68.147 83.4678 68.4952 83.1662 68.7902C82.8653 69.0845 82.5085 69.3158 82.0959 69.484C81.6833 69.6522 81.2346 69.7363 80.7497 69.7363C80.2655 69.7363 79.8168 69.6522 79.4042 69.484C78.9909 69.3158 78.6355 69.0845 78.3365 68.7902C78.0369 68.4952 77.8024 68.147 77.6322 67.7449C77.4621 67.3434 77.3766 66.9072 77.3766 66.4354C77.3766 65.9637 77.4621 65.5275 77.6322 65.1254C77.8024 64.7239 78.0369 64.3757 78.3365 64.0807C78.6355 63.7864 78.9909 63.5551 79.4042 63.3869C79.8168 63.2187 80.2655 63.1346 80.7497 63.1346ZM46.4729 66.4354C46.4729 65.333 47.1943 64.4283 48.375 64.4283C49.5037 64.4283 50.2645 65.2936 50.2645 66.4354C50.2645 67.5767 49.5037 68.4426 48.375 68.4426C47.1943 68.4426 46.4729 67.5373 46.4729 66.4354ZM51.5503 66.4354V63.2995H50.1857V64.0604C49.7527 63.496 49.097 63.1419 48.2048 63.1419C46.446 63.1419 45.0689 64.5196 45.0689 66.4354C45.0689 68.3513 46.446 69.729 48.2048 69.729C49.097 69.729 49.7527 69.3742 50.1857 68.8105V69.5714H51.5503V66.4354ZM43.8613 69.5714V65.6352C43.8613 64.1523 42.9165 63.155 41.3949 63.1419C40.5947 63.1287 39.7675 63.3784 39.1906 64.2575C38.757 63.5617 38.075 63.1419 37.1171 63.1419C36.4476 63.1419 35.7919 63.339 35.2801 64.0735V63.2995H33.9155V69.5714H35.2933V66.0945C35.2933 65.0051 35.8971 64.4283 36.8287 64.4283C37.7341 64.4283 38.1933 65.0183 38.1933 66.0813V69.5714H39.5711V66.0945C39.5711 65.0051 40.2005 64.4283 41.1058 64.4283C42.0375 64.4283 42.4836 65.0183 42.4836 66.0813V69.5714H43.8613Z" fill="black"/>
</svg>
