<svg width="120" height="80" viewBox="0 0 120 80" fill="none" xmlns="http://www.w3.org/2000/svg">
<rect width="120" height="80" rx="4" fill="white"/>
<path fill-rule="evenodd" clip-rule="evenodd" d="M97.5288 48.1562V47.2384H97.289L97.0137 47.8698L96.7378 47.2384H96.498V48.1562H96.6675V47.4637L96.9257 48.0609H97.1011L97.36 47.4624V48.1562H97.5288ZM96.0111 48.1562V47.3947H96.318V47.2397H95.5361V47.3947H95.843V48.1562H96.0111Z" fill="#F79E1B"/>
<path fill-rule="evenodd" clip-rule="evenodd" d="M49.6521 52.095H70.3479V14.9044H49.6521V52.095Z" fill="#FF5F00"/>
<path fill-rule="evenodd" clip-rule="evenodd" d="M98.2675 33.5003C98.2675 46.563 87.6791 57.152 74.6171 57.152C69.0996 57.152 64.0229 55.2624 60 52.0956C65.5011 47.7646 69.0339 41.0448 69.0339 33.5003C69.0339 25.9552 65.5011 19.2354 60 14.9044C64.0229 11.7376 69.0996 9.84802 74.6171 9.84802C87.6791 9.84802 98.2675 20.437 98.2675 33.5003Z" fill="#F79E1B"/>
<path fill-rule="evenodd" clip-rule="evenodd" d="M50.966 33.5003C50.966 25.9552 54.4988 19.2354 59.9999 14.9044C55.977 11.7376 50.9003 9.84802 45.3828 9.84802C32.3208 9.84802 21.7324 20.437 21.7324 33.5003C21.7324 46.563 32.3208 57.152 45.3828 57.152C50.9003 57.152 55.977 55.2624 59.9999 52.0956C54.4988 47.7646 50.966 41.0448 50.966 33.5003Z" fill="#EB001B"/>
<path fill-rule="evenodd" clip-rule="evenodd" d="M34.9203 69.7951V65.9251C34.9203 64.4415 34.0233 63.474 32.4855 63.474C31.7165 63.474 30.8836 63.732 30.3069 64.5705C29.8583 63.861 29.2176 63.474 28.2564 63.474C27.6157 63.474 26.9749 63.6675 26.4623 64.377V63.603H25.1167V69.7951H26.4623V66.3766C26.4623 65.28 27.039 64.764 27.936 64.764C28.8331 64.764 29.2816 65.3445 29.2816 66.3766V69.7951H30.6272V66.3766C30.6272 65.28 31.268 64.764 32.101 64.764C32.9981 64.764 33.4466 65.3445 33.4466 66.3766V69.7951H34.9203ZM54.848 63.6034H52.6694V61.7325H51.3238V63.6034H50.1064V64.8292H51.3238V67.6679C51.3238 69.0872 51.9005 69.9259 53.4384 69.9259C54.015 69.9259 54.6558 69.7324 55.1043 69.4743L54.7199 68.313C54.3354 68.5711 53.8869 68.6356 53.5665 68.6356C52.9257 68.6356 52.6694 68.2485 52.6694 67.6034V64.8292H54.848V63.6034ZM66.2536 63.474C65.4847 63.474 64.9721 63.861 64.6517 64.377V63.603H63.3061V69.7951H64.6517V66.3121C64.6517 65.28 65.1002 64.6995 65.9332 64.6995C66.1895 64.6995 66.5099 64.764 66.7662 64.8285L67.1506 63.5385C66.8943 63.474 66.5099 63.474 66.2536 63.474ZM49.0171 64.119C48.3763 63.6675 47.4793 63.474 46.5181 63.474C44.9803 63.474 43.9551 64.248 43.9551 65.4735C43.9551 66.5056 44.724 67.0861 46.0696 67.2796L46.7104 67.3441C47.4152 67.4731 47.7997 67.6666 47.7997 67.9891C47.7997 68.4406 47.287 68.7631 46.39 68.7631C45.4929 68.7631 44.7881 68.4406 44.3395 68.1181L43.6988 69.1501C44.4036 69.6661 45.3648 69.9241 46.3259 69.9241C48.12 69.9241 49.1453 69.0856 49.1453 67.9246C49.1453 66.8281 48.3123 66.2476 47.0307 66.0541L46.39 65.9896C45.8133 65.9251 45.3648 65.7961 45.3648 65.409C45.3648 64.9575 45.8133 64.6995 46.5181 64.6995C47.287 64.6995 48.056 65.022 48.4404 65.2155L49.0171 64.119ZM84.7716 63.474C84.0027 63.474 83.4901 63.861 83.1697 64.377V63.603H81.8241V69.7951H83.1697V66.3121C83.1697 65.28 83.6182 64.6995 84.4512 64.6995C84.7075 64.6995 85.0279 64.764 85.2842 64.8285L85.6686 63.5385C85.4123 63.474 85.0279 63.474 84.7716 63.474ZM67.5992 66.6991C67.5992 68.5696 68.8807 69.9241 70.8671 69.9241C71.7641 69.9241 72.4049 69.7306 73.0456 69.2146L72.4049 68.1181C71.8923 68.5051 71.3797 68.6986 70.803 68.6986C69.7137 68.6986 68.9448 67.9246 68.9448 66.6991C68.9448 65.5381 69.7137 64.764 70.803 64.6995C71.3797 64.6995 71.8923 64.893 72.4049 65.28L73.0456 64.1835C72.4049 63.6675 71.7641 63.474 70.8671 63.474C68.8807 63.474 67.5992 64.8285 67.5992 66.6991ZM80.0299 63.603H78.6843V64.377C78.2358 63.7965 77.5951 63.474 76.7621 63.474C75.032 63.474 73.6864 64.8285 73.6864 66.6991C73.6864 68.5696 75.032 69.9241 76.7621 69.9241C77.6591 69.9241 78.2999 69.6016 78.6843 69.0211V69.7951H80.0299V63.603ZM75.0961 66.6991C75.0961 65.6026 75.8009 64.6995 76.9543 64.6995C78.0436 64.6995 78.8125 65.5381 78.8125 66.6991C78.8125 67.7956 78.0436 68.6986 76.9543 68.6986C75.8009 68.6341 75.0961 67.7956 75.0961 66.6991ZM59.013 63.474C57.2188 63.474 55.9373 64.764 55.9373 66.6991C55.9373 68.6341 57.2188 69.9241 59.077 69.9241C59.9741 69.9241 60.8712 69.6661 61.576 69.0856L60.9353 68.1181C60.4226 68.5051 59.7819 68.7631 59.1411 68.7631C58.3081 68.7631 57.4751 68.3761 57.2829 67.2796H61.8323V66.7636C61.8964 64.764 60.743 63.474 59.013 63.474ZM59.013 64.635C59.846 64.635 60.4226 65.151 60.5508 66.1186H57.347C57.4751 65.28 58.0518 64.635 59.013 64.635ZM92.3966 61.152H91.051V64.377C90.6025 63.7965 89.9617 63.474 89.1288 63.474C87.3987 63.474 86.0531 64.8285 86.0531 66.6991C86.0531 68.5696 87.3987 69.9241 89.1288 69.9241C90.0258 69.9241 90.6666 69.6016 91.051 69.0211V69.7951H92.3966V61.152ZM87.4628 66.6991C87.4628 65.6026 88.1676 64.6995 89.321 64.6995C90.4103 64.6995 91.1792 65.5381 91.1792 66.6991C91.1792 67.7956 90.4103 68.6986 89.321 68.6986C88.1676 68.6341 87.4628 67.7956 87.4628 66.6991ZM42.4813 63.603H41.1357V64.377C40.6872 63.7965 40.0464 63.474 39.2134 63.474C37.4834 63.474 36.1378 64.8285 36.1378 66.6991C36.1378 68.5696 37.4834 69.9241 39.2134 69.9241C40.1105 69.9241 40.7513 69.6016 41.1357 69.0211V69.7951H42.4813V63.603ZM37.4834 66.6991C37.4834 65.6026 38.1882 64.6995 39.3416 64.6995C40.4309 64.6995 41.1998 65.5381 41.1998 66.6991C41.1998 67.7956 40.4309 68.6986 39.3416 68.6986C38.1882 68.6341 37.4834 67.7956 37.4834 66.6991Z" fill="black"/>
<path fill-rule="evenodd" clip-rule="evenodd" d="M94.3102 69.5156V69.6371H94.4202C94.4455 69.6371 94.4653 69.632 94.4805 69.6221C94.4952 69.6123 94.5028 69.5968 94.5028 69.5756C94.5028 69.5559 94.4952 69.5409 94.4805 69.5306C94.4653 69.5207 94.4455 69.5156 94.4202 69.5156H94.3102ZM94.4212 69.4302C94.479 69.4302 94.5231 69.4431 94.5541 69.469C94.5855 69.4954 94.6007 69.5306 94.6007 69.5756C94.6007 69.6133 94.5885 69.6449 94.5637 69.6692C94.5388 69.6935 94.5039 69.7086 94.4577 69.7142L94.6042 69.8865H94.4897L94.3543 69.7158H94.3102V69.8865H94.2149V69.4302H94.4212ZM94.3928 70.0433C94.445 70.0433 94.4932 70.0335 94.5383 70.0133C94.5835 69.9931 94.6225 69.9657 94.6565 69.9316C94.6904 69.8969 94.7168 69.856 94.7361 69.8094C94.7553 69.7629 94.765 69.7132 94.765 69.6599C94.765 69.6071 94.7553 69.5575 94.7361 69.5109C94.7168 69.4643 94.6904 69.4235 94.6565 69.3888C94.6225 69.3546 94.5835 69.3277 94.5383 69.3076C94.4932 69.2879 94.445 69.2781 94.3928 69.2781C94.3401 69.2781 94.2909 69.2879 94.2448 69.3076C94.1986 69.3277 94.1591 69.3546 94.1251 69.3888C94.0912 69.4235 94.0648 69.4643 94.0455 69.5109C94.0263 69.5575 94.0166 69.6071 94.0166 69.6599C94.0166 69.7132 94.0263 69.7629 94.0455 69.8094C94.0648 69.856 94.0912 69.8969 94.1251 69.9316C94.1591 69.9657 94.1986 69.9931 94.2448 70.0133C94.2909 70.0335 94.3401 70.0433 94.3928 70.0433ZM94.3928 69.1684C94.4608 69.1684 94.5241 69.1813 94.584 69.2072C94.6433 69.233 94.695 69.2677 94.7396 69.3127C94.7837 69.3572 94.8192 69.4095 94.8446 69.469C94.8699 69.529 94.8831 69.5927 94.8831 69.6599C94.8831 69.7277 94.8699 69.7913 94.8446 69.8508C94.8192 69.9098 94.7837 69.9621 94.7396 70.0066C94.695 70.0511 94.6433 70.0863 94.584 70.1127C94.5241 70.1385 94.4608 70.152 94.3928 70.152C94.3239 70.152 94.259 70.1385 94.1986 70.1127C94.1388 70.0863 94.0866 70.0511 94.0425 70.0066C93.9984 69.9621 93.9634 69.9098 93.938 69.8508C93.9122 69.7913 93.8995 69.7277 93.8995 69.6599C93.8995 69.5927 93.9122 69.529 93.938 69.469C93.9634 69.4095 93.9984 69.3572 94.0425 69.3127C94.0866 69.2677 94.1388 69.233 94.1986 69.2072C94.259 69.1813 94.3239 69.1684 94.3928 69.1684Z" fill="black"/>
</svg>
