<svg width="120" height="80" viewBox="0 0 120 80" fill="none" xmlns="http://www.w3.org/2000/svg">
<rect width="120" height="80" rx="4" fill="white"/>
<path fill-rule="evenodd" clip-rule="evenodd" d="M19.3378 31.0612V44.5997C19.3378 44.5997 19.2204 47.3006 21.1344 49.4202C23.0485 51.5398 26.4652 51.9843 28.5808 51.916C30.6963 51.8475 34.8519 51.4032 36.4638 50.8219V31.0612H31.2252V47.2664C31.2252 47.2664 28.7907 47.916 27.0445 47.5058C25.2983 47.0955 24.3749 45.6596 24.3749 43.7109V31.0612H19.3378Z" fill="#052C18"/>
<path fill-rule="evenodd" clip-rule="evenodd" d="M38.6633 51.7792L46.6049 31.0612H52.7838L55.7389 38.9757L55.2015 40.8647L51.5412 41.4672L49.6271 36.2301L44.0864 51.7792H38.6633Z" fill="#052C18"/>
<path fill-rule="evenodd" clip-rule="evenodd" d="M52.7167 44.9074L55 51.5741L60.5744 51.5398L57.3171 42.9244C57.3171 42.9244 56.0326 43.5741 54.9245 44.0612C53.6346 44.6284 52.7167 44.9074 52.7167 44.9074Z" fill="#052C18"/>
<path fill-rule="evenodd" clip-rule="evenodd" d="M60.843 31.0612V35.5741H66.8875V51.7792H71.9245V35.5741H77.9689V31.0612H60.843Z" fill="#052C18"/>
<path fill-rule="evenodd" clip-rule="evenodd" d="M82.4015 31.0612V51.7792H87.4386V45.6253C87.4386 45.6253 90.4733 45.7279 92.1607 45.2791C93.8483 44.8305 97.6513 43.3047 97.6513 38.2022C97.6513 33.0996 94.4024 30.9201 89.9067 30.5997C87.4511 30.4459 82.4015 31.0612 82.4015 31.0612ZM87.4386 35.3689V41.1125C87.4386 41.1125 89.9186 41.5942 91.5186 40.4629C92.7275 39.6083 92.5344 37.933 92.4168 37.4202C92.2993 36.9074 91.8585 35.8818 90.8343 35.5058C89.3933 34.9765 87.4386 35.3689 87.4386 35.3689Z" fill="#052C18"/>
<path fill-rule="evenodd" clip-rule="evenodd" d="M97.0784 31.2247L97.0752 31.5451L97.645 31.5484L97.6482 33.1494L98.0197 33.1437L98.026 31.5464L98.5801 31.5355L98.5768 31.2311L97.0784 31.2247Z" fill="#052C18"/>
<path fill-rule="evenodd" clip-rule="evenodd" d="M98.8099 31.2311L98.813 33.1541L99.1593 33.1478L99.1561 31.651L99.5623 33.1414L99.8913 33.1349L100.305 31.6124L100.324 33.1509L100.664 33.1445L100.658 31.2184L100.119 31.2214L99.7448 32.5708L99.3703 31.2184L98.8099 31.2311Z" fill="#052C18"/>
<path fill-rule="evenodd" clip-rule="evenodd" d="M40.5936 46.7279L41.0218 45.5997C41.0218 45.5997 38.5536 46.356 37.1812 46.6317C37.1685 46.9587 37.1685 47.0356 37.1685 47.0356C37.1685 47.0356 38.0626 46.9714 38.9189 46.8945C39.7752 46.8175 40.5936 46.7279 40.5936 46.7279Z" fill="#43B748"/>
<path fill-rule="evenodd" clip-rule="evenodd" d="M77.9348 31.0612C77.9348 31.0612 79.5803 30.2151 83.7862 29.6253C87.2654 29.1375 92.3996 29.8305 92.3996 29.8305C92.3996 29.8305 92.3996 29.8305 92.4248 29.4459C89.5033 28.5484 84.9448 28.1382 83.5848 28.0869C82.2248 28.0356 78.6988 28.1894 75.727 28.651C72.7551 29.1125 68.2806 31.0612 68.2806 31.0612H77.9348Z" fill="#43B748"/>
<path fill-rule="evenodd" clip-rule="evenodd" d="M46.9529 43.6893C46.9529 43.6893 50.3402 42.7535 60.8424 35.5741H66.8868L66.8701 36.4288C66.8701 36.4288 56.0824 43.8561 46.2602 45.7023C46.8521 43.9714 46.9529 43.6893 46.9529 43.6893Z" fill="#43B748"/>
</svg>
