<svg width="120" height="80" viewBox="0 0 120 80" fill="none" xmlns="http://www.w3.org/2000/svg">
<rect width="120" height="80" rx="4" fill="white"/>
<rect width="54" height="57.6" transform="translate(33 11.2)" fill="#191E70"/>
<path d="M48.7226 57.6063C48.9607 57.6728 49.2767 57.6923 49.6709 57.6923C51.1225 57.6923 52.0083 56.946 52.0083 55.6448C52.0083 54.4101 51.1888 53.7498 49.8426 53.7498C49.3119 53.7498 48.9294 53.8006 48.7226 53.8514V57.6063ZM46.7988 52.433C47.4934 52.3002 48.4573 52.2025 49.7684 52.2025C51.1888 52.2025 52.2268 52.5151 52.9058 53.109C53.538 53.6521 53.9477 54.5235 53.9477 55.5667C53.9477 56.6178 53.6316 57.4891 53.0307 58.0869C52.258 58.8918 51.0444 59.2709 49.6709 59.2709C49.3119 59.2709 48.9763 59.2513 48.7226 59.2044V63.3931H46.7988V52.433Z" fill="white"/>
<path d="M61.2525 58.7121L60.4175 55.977C60.2106 55.301 60.039 54.543 59.879 53.8983H59.8477C59.6916 54.543 59.5316 55.3205 59.3443 55.977L58.5248 58.7121H61.2525ZM58.2088 60.2438L57.2918 63.3931H55.2899L58.6966 52.2846H61.1745L64.6319 63.3931H62.5481L61.5842 60.2438H58.2088Z" fill="white"/>
<path fill-rule="evenodd" clip-rule="evenodd" d="M68.7176 63.3931V58.759L65.3578 52.2846H67.5626L68.8425 55.133C69.2054 55.9613 69.4708 56.5826 69.7595 57.3445H69.7868C70.0561 56.6334 70.3604 55.9418 70.7194 55.133L71.9994 52.2846H74.1924L70.657 58.7121V63.3931H68.7176Z" fill="white"/>
<rect width="50.4" height="35.1" transform="translate(34.7998 13)" fill="white"/>
<path fill-rule="evenodd" clip-rule="evenodd" d="M74.5043 18.2951L64.5068 42.805H57.9744L53.0537 23.2404C52.7572 22.0381 52.4957 21.5973 51.5904 21.0843C50.0997 20.2628 47.6491 19.4853 45.4951 19.0004L45.6395 18.2951H56.1443C57.4828 18.2951 58.6885 19.2088 58.9929 20.7878L61.5957 34.9703L68.0188 18.2951H74.5043Z" fill="#191E70"/>
</svg>
