<?xml version="1.0" encoding="UTF-8"?>
<svg width="122px" height="80px" viewBox="0 0 122 80" version="1.1" xmlns="http://www.w3.org/2000/svg" xmlns:xlink="http://www.w3.org/1999/xlink">
    <!-- Generator: Sketch 55.2 (78181) - https://sketchapp.com -->
    <title>datatrans_security-logos-amex-safekey</title>
    <desc>Created with Sketch.</desc>
    <g id="datatrans_security-logos-amex-safekey" stroke="none" stroke-width="1" fill="none" fill-rule="evenodd">
        <g id="card_amex_safekey" transform="translate(0.000000, 22.000000)">
            <g id="amex_skr_rgb" transform="translate(0.333333, 0.062500)">
                <g id="Group-4" transform="translate(0.000000, 10.123437)">
                    <path d="M59.3325393,13.0880062 C59.1265422,10.7281797 57.9471822,9.47500469 55.7642607,9.47500469 C53.9954904,9.47500469 52.3739378,10.4660359 52.0196444,13.0880062 L59.3325393,13.0880062 Z M48.3332681,14.6038578 C48.3332681,8.71734531 52.5502756,6.56158594 55.7944593,6.56158594 C59.3039585,6.56158594 62.6657007,8.62996406 62.6657007,14.9235453 L62.6657007,15.7685859 L51.9608652,15.7685859 C52.108083,18.5658516 53.8482726,19.7891891 56.1482133,19.7891891 C58.1828385,19.7891891 59.3621985,19.1194437 60.542637,17.9834875 L62.4591644,19.8477984 C60.8365333,21.6252609 58.6843496,22.6450641 55.8823585,22.6450641 C51.9608652,22.6450641 48.3332681,20.2852375 48.3332681,14.6038578 Z M39.4268622,22.3243109 L39.4268622,9.70890937 L36.7138489,9.70890937 L36.7138489,6.85250156 L39.4268622,6.85250156 L39.4268622,5.28017187 C39.4268622,2.68697344 40.518323,0.676671875 44.4996741,0.676671875 C45.177523,0.676671875 46.3865422,0.792825 46.6518578,0.822129687 L46.6518578,3.58955781 C46.4162015,3.53094844 45.8262519,3.47340469 45.4131793,3.47340469 C44.1162607,3.47340469 43.0544593,3.8234625 43.0544593,5.48423906 L43.0544593,6.85250156 L46.4749807,6.85250156 L46.4749807,9.70890937 L43.0544593,9.70890937 L43.0544593,22.3243109 L39.4268622,22.3243109 Z M29.9019259,18.0127922 L29.9019259,14.6038578 C25.5668207,15.1862219 23.26688,16.2353297 23.26688,17.9248781 C23.26688,19.1487484 24.1216059,19.7891891 25.4492622,19.7891891 C27.3075496,19.7891891 28.7516859,19.0901391 29.9019259,18.0127922 Z M19.6986015,18.5946234 C19.6986015,15.2437656 22.5890311,13.000625 29.9019259,12.1848891 L29.9019259,11.7186781 C29.9019259,10.1745875 29.07632,9.50484219 27.3366696,9.50484219 C25.1542874,9.50484219 23.3844385,10.55395 22.0578607,11.602525 L20.2890904,9.35831875 C21.9699615,7.84406562 24.593997,6.56158594 27.8381807,6.56158594 C32.0255289,6.56158594 33.4702044,8.54311562 33.4702044,12.1555844 L33.4702044,18.5370797 C33.4702044,20.4019234 33.5883022,21.5384125 33.9129363,22.3243109 L30.2562193,22.3243109 C30.0502222,21.6833375 29.9019259,21.2176594 29.9019259,20.3433141 C28.3094933,21.9460141 26.4522844,22.5576828 24.1216059,22.5576828 C21.5854696,22.5576828 19.6986015,21.15905 19.6986015,18.5946234 Z M0,17.2551328 L2.91954963,15.7403469 C4.21592889,18.2744031 6.22143407,19.4982734 8.93444741,19.4982734 C11.5886815,19.4982734 13.3876504,18.6532328 13.3876504,16.7010078 C13.3876504,14.8361641 12.0314133,13.9623516 8.43347556,12.9132437 C4.21592889,11.6899062 0.825605926,10.55395 0.825605926,6.4449 C0.825605926,2.77435469 3.86271407,0.355385938 8.28625778,0.355385938 C12.5911644,0.355385938 15.1273007,2.45360156 16.454957,4.98765781 L13.7705244,6.8242625 C12.4741452,4.6674375 10.6158578,3.67693906 8.25713778,3.67693906 C5.83856,3.67693906 4.4526637,4.55181719 4.4526637,6.12414687 C4.4526637,8.13551406 6.01489778,8.80472656 9.5831763,9.85383437 C13.7122844,11.0489328 17.0147081,12.3889562 17.0147081,16.4388641 C17.0147081,19.9650172 13.9770607,22.7324453 8.78776889,22.7324453 C4.4526637,22.7324453 1.38535704,20.5175437 0,17.2551328 L0,17.2551328 Z" id="Fill-1" fill="#454748"></path>
                    <path d="M118.885096,9.08445312 C119.163354,9.08445312 119.3192,8.99280937 119.3192,8.75837187 C119.3192,8.53459062 119.163354,8.43175781 118.885096,8.43175781 L118.545363,8.43175781 L118.545363,9.08445312 L118.885096,9.08445312 Z M117.915508,7.88189531 L118.926619,7.88189531 C119.556474,7.88189531 119.926945,8.15735937 119.926945,8.72800156 C119.926945,9.12547969 119.752225,9.33967031 119.462643,9.47234062 L119.979793,10.4511172 L119.3192,10.4511172 L118.853819,9.5437375 L118.545363,9.5437375 L118.545363,10.4511172 L117.915508,10.4511172 L117.915508,7.88189531 Z M120.752551,9.22777969 C120.752551,8.13657969 119.93773,7.30059688 118.843034,7.30059688 C117.769908,7.30059688 116.966412,8.1158 116.966412,9.207 C116.966412,10.2976672 117.769908,11.1240594 118.87485,11.1240594 C119.947976,11.1240594 120.752551,10.3184469 120.752551,9.22777969 Z M116.480539,9.22777969 C116.480539,7.89201875 117.522388,6.86209219 118.87485,6.86209219 C120.206281,6.86209219 121.238424,7.88189531 121.238424,9.207 C121.238424,10.5422281 120.196575,11.5726875 118.843034,11.5726875 C117.502436,11.5726875 116.480539,10.5528844 116.480539,9.22777969 Z M100.648427,27.8607656 L101.238376,25.8504641 C101.680569,25.9666172 102.447396,26.112075 103.537778,26.112075 C105.131289,26.112075 105.897576,25.4423297 106.517185,23.9275437 L107.106056,22.4116922 L101.090619,6.93988281 L103.774513,6.93988281 L108.345813,19.3815875 L108.404593,19.3815875 L112.974815,6.93988281 L115.540071,6.93988281 L108.876444,24.0730016 C107.814643,26.7823531 106.604545,28.2390625 103.567976,28.2390625 C102.18208,28.2390625 101.326815,28.0648328 100.648427,27.8607656 Z M96.3721007,13.3213781 C96.1661037,10.5821891 94.8389867,8.71734531 92.2731911,8.71734531 C90.1792474,8.71734531 88.2034015,10.1458156 87.8507259,13.3213781 L96.3721007,13.3213781 Z M85.2541926,14.6320969 C85.2541926,9.03809844 89.0290074,6.62072812 92.3028504,6.62072812 C95.9886874,6.62072812 98.7896,9.18408906 98.7896,14.7493156 L98.7896,15.2736031 L87.7903289,15.2736031 C87.8787674,18.7411469 89.9139319,20.6059906 92.4797274,20.6059906 C94.7208889,20.6059906 95.9886874,19.7018078 97.1675081,18.1001734 L98.641843,19.3815875 C97.1971674,21.4217266 95.2224,22.6450641 92.3028504,22.6450641 C88.6164741,22.6450641 85.2541926,19.9927234 85.2541926,14.6320969 Z M67.206803,22.3243109 L67.206803,0.763520312 L69.8022578,0.763520312 L69.8022578,11.8939734 L79.6804089,0.763520312 L82.8064948,0.763520312 L75.3161837,8.98002187 L83.838637,22.3243109 L80.8603081,22.3243109 L73.6067319,10.9322469 L69.8022578,15.0396984 L69.8022578,22.3243109 L67.206803,22.3243109 L67.206803,22.3243109 Z" id="Fill-3" fill="#848885"></path>
                </g>
                <path d="M83.8936415,2.29162656 C83.4563022,2.29162656 82.7897778,2.29162656 82.7897778,2.29162656 L82.7897778,1.14980938 C82.7897778,1.14980938 83.7555911,1.14980938 83.8979556,1.14980938 C84.3379911,1.14980938 84.6550756,1.31018594 84.6550756,1.69967187 C84.6550756,2.09075625 84.3282844,2.29162656 83.8936415,2.29162656 Z M84.3514726,0.119882812 C83.9367822,0.119882812 83.3635496,0.119882812 82.7897778,0.119882812 C81.7344474,0.119882812 80.6882844,0.119882812 80.6882844,0.119882812 L80.6882844,5.14856719 L82.7897778,5.14856719 L82.7897778,3.36364531 C82.7897778,3.36364531 83.5657719,3.36364531 84.1632711,3.36364531 C84.7990578,3.36364531 85.3415526,3.31515937 85.8344356,3.11055937 C86.4087467,2.87239219 86.8277511,2.46265938 86.8277511,1.71832031 C86.8277511,0.34739375 85.6052504,0.119882812 84.3514726,0.119882812 Z M65.4817126,0.119882812 L70.7227733,0.119882812 L70.7227733,1.14980938 L67.7989096,1.14980938 L67.7989096,2.09075625 L70.7227733,2.09075625 L70.7227733,3.06367188 L67.7989096,3.06367188 L67.7989096,4.04671094 L70.7227733,4.04671094 L70.7227733,5.14856719 L65.4817126,5.14856719 L65.4817126,0.119882812 Z M47.3437274,3.01998125 L48.1326637,1.3981 L48.9189037,3.01998125 L47.3437274,3.01998125 Z M46.7818193,0.119882812 L44.1766578,5.14856719 L46.3137422,5.14856719 L46.7926044,4.15860156 L49.4705659,4.15860156 L49.9521244,5.14856719 L52.2153956,5.14856719 L49.6102341,0.119882812 L46.7818193,0.119882812 Z M58.606157,0.119882812 L60.7044148,0.119882812 L60.7044148,5.14856719 L58.2890726,5.14856719 L55.1931852,2.31080781 L55.1931852,5.14856719 L53.0938489,5.14856719 L53.0938489,0.119882812 L55.4833067,0.119882812 L58.606157,2.96883125 L58.606157,0.119882812 Z M91.1979081,2.3827375 C90.7638044,2.3827375 89.95168,2.3827375 89.95168,2.3827375 L89.95168,1.19136875 C89.95168,1.19136875 91.0609363,1.19136875 91.2022222,1.19136875 C91.6454933,1.19136875 91.9614993,1.4023625 91.9614993,1.79291406 C91.9614993,2.18399844 91.6357867,2.3827375 91.1979081,2.3827375 Z M94.1309393,1.71832031 C94.1309393,0.34739375 92.909517,0.119882812 91.6578963,0.119882812 C91.2178607,0.119882812 90.5793778,0.119882812 89.95168,0.119882812 C88.8877215,0.119882812 87.852883,0.119882812 87.852883,0.119882812 L87.852883,5.14856719 L89.95168,5.14856719 L89.95168,3.27999375 L90.1204681,3.27999375 L91.7139793,5.14856719 L94.6621096,5.14856719 L92.5185541,3.16810313 C93.5474607,2.99547188 94.1309393,2.46265938 94.1309393,1.71832031 Z M115.190631,3.65029844 C115.190631,4.16233125 114.768391,5.30894375 112.178329,5.30894375 C110.046637,5.30894375 109.271182,4.88322656 108.815508,4.63067344 L109.496593,3.73181875 C110.387988,4.07654844 111.084172,4.092 111.590536,4.08613906 C112.130874,4.07867969 112.633464,3.98010937 112.638317,3.65189687 C112.645867,3.30876562 112.303437,3.22724531 111.491852,3.16597187 C110.738507,3.10949375 109.087295,2.90222969 109.075431,1.71832031 C109.06195,0.565846875 110.301167,0.0047953125 112.082341,0.0047953125 C113.050311,0.0047953125 114.240456,0.150785938 115.081161,0.597815625 L114.357476,1.48175156 C113.701197,1.253175 113.195911,1.20415625 112.690086,1.20415625 C112.141659,1.20415625 111.578133,1.30112812 111.578133,1.67569531 C111.578133,2.05186094 112.161612,2.06411562 112.575224,2.11153594 C113.108551,2.173875 113.791793,2.18399844 114.345073,2.42642813 C115.002969,2.71681094 115.190631,3.11695312 115.190631,3.65029844 Z M108.130649,3.65029844 C108.130649,4.16233125 107.705173,5.30894375 105.115111,5.30894375 C102.984498,5.30894375 102.310424,4.88322656 101.855289,4.63067344 L102.434993,3.73181875 C103.32477,4.07654844 104.02419,4.092 104.529476,4.08613906 C105.069813,4.07867969 105.573481,3.98010937 105.575639,3.65189687 C105.58211,3.30876562 105.23968,3.22724531 104.427556,3.16597187 C103.677446,3.10949375 102.125997,2.90222969 102.114673,1.71832031 C102.100652,0.565846875 103.23741,0.0047953125 105.022359,0.0047953125 C105.987093,0.0047953125 107.179396,0.150785938 108.017944,0.597815625 L107.297493,1.48175156 C106.63744,1.253175 106.13485,1.20415625 105.627407,1.20415625 C105.078441,1.20415625 104.517073,1.30112812 104.517073,1.67569531 C104.517073,2.05186094 105.098394,2.06411562 105.514702,2.11153594 C106.046412,2.173875 106.729653,2.18399844 107.28509,2.42642813 C107.941908,2.71681094 108.130649,3.11695312 108.130649,3.65029844 Z M95.6327763,0.119882812 L100.872759,0.119882812 L100.872759,1.14980938 L97.9499733,1.14980938 L97.9499733,2.09075625 L100.872759,2.09075625 L100.872759,3.06367188 L97.9499733,3.06367188 L97.9499733,4.04671094 L100.872759,4.04671094 L100.872759,5.14856719 L95.6327763,5.14856719 L95.6327763,0.119882812 Z M77.2445748,2.55430312 L79.601677,5.14856719 L77.1000533,5.14856719 L75.7233244,3.53627656 L74.3519881,5.14856719 L71.8487467,5.14856719 L74.210163,2.55430312 L72.08656,0.119882812 L74.6280889,0.119882812 L75.7233244,1.46097188 L76.8239526,0.119882812 L79.3654815,0.119882812 L77.2445748,2.55430312 Z M17.2864948,0.119882812 L18.5170844,5.14856719 L16.4107378,5.14856719 L15.7156326,2.29908594 L14.3691022,5.14856719 L13.0403674,5.14856719 L11.6927585,2.29908594 L10.9987319,5.14856719 L9.02234667,5.14856719 L10.2534756,0.119882812 L12.5081185,0.119882812 L13.7074311,2.60598594 L14.9008119,0.119882812 L17.2864948,0.119882812 Z M3.94414222,3.01998125 L4.73146074,1.3981 L5.51770074,3.01998125 L3.94414222,3.01998125 Z M3.38169481,0.119882812 L0.777611852,5.14856719 L2.91253926,5.14856719 L3.39248,4.15860156 L6.07098074,4.15860156 L6.55092148,5.14856719 L8.81634963,5.14856719 L6.21010963,0.119882812 L3.38169481,0.119882812 Z M19.6322726,0.119882812 L24.8727941,0.119882812 L24.8727941,1.14980938 L21.9516267,1.14980938 L21.9516267,2.09075625 L24.8727941,2.09075625 L24.8727941,3.06367188 L21.9516267,3.06367188 L21.9516267,4.04671094 L24.8727941,4.04671094 L24.8727941,5.14856719 L19.6322726,5.14856719 L19.6322726,0.119882812 Z M34.1194726,5.14856719 L36.3428385,5.14856719 L36.3428385,0.119882812 L34.1194726,0.119882812 L34.1194726,5.14856719 Z M41.5580148,0 C42.4920119,0 43.187117,0.134801563 43.5678341,0.277595313 L43.5678341,1.50999063 C43.1790281,1.41301875 42.6300622,1.2958 41.9236326,1.2958 C41.5741926,1.2958 39.9289126,1.34854844 39.9289126,2.67525156 C39.9289126,4.00088906 41.5741926,4.01420937 41.9236326,4.01420937 C42.5691259,4.01420937 43.1790281,3.89752344 43.5678341,3.7978875 L43.5678341,5.03454531 C43.187117,5.17520781 42.4920119,5.30894375 41.5580148,5.30894375 C40.4584652,5.30894375 37.6036267,5.01589688 37.6036267,2.67525156 C37.6036267,0.334073437 40.4584652,0 41.5580148,0 Z M29.7563259,2.3827375 C29.3211437,2.3827375 28.5111763,2.3827375 28.5111763,2.3827375 L28.5111763,1.19136875 C28.5111763,1.19136875 29.6188148,1.19136875 29.7617185,1.19136875 C30.2028326,1.19136875 30.5193778,1.4023625 30.5193778,1.79291406 C30.5193778,2.18399844 30.1915081,2.3827375 29.7563259,2.3827375 Z M32.6898963,1.71832031 C32.6898963,0.34739375 31.4679348,0.119882812 30.2157748,0.119882812 C29.7762785,0.119882812 29.1399526,0.119882812 28.5111763,0.119882812 C27.4461393,0.119882812 26.4107615,0.119882812 26.4107615,0.119882812 L26.4107615,5.14856719 L28.5111763,5.14856719 L28.5111763,3.27999375 L28.6783467,3.27999375 L30.2729363,5.14856719 L33.2221452,5.14856719 L31.0769719,3.16810313 C32.1048,2.99547188 32.6898963,2.46265938 32.6898963,1.71832031 L32.6898963,1.71832031 Z" id="Fill-5" fill="#1C2548"></path>
            </g>
        </g>
    </g>
</svg>