<?xml version="1.0" encoding="UTF-8"?>
<svg width="90px" height="80px" viewBox="0 0 90 80" version="1.1" xmlns="http://www.w3.org/2000/svg" xmlns:xlink="http://www.w3.org/1999/xlink">
    <!-- Generator: Sketch 55.2 (78181) - https://sketchapp.com -->
    <title>datatrans_security-logos-diners-protectbuy</title>
    <desc>Created with Sketch.</desc>
    <defs>
        <path d="M87.9078958,5.96504854 L87.4489896,5.96504854 C87.3738958,5.83642718 87.3433021,5.78330097 87.2682083,5.64629126 C87.0763021,5.2967767 87.0178958,5.20170874 86.9483646,5.17095146 C86.9288958,5.16256311 86.9122083,5.15697087 86.8871771,5.15417476 L86.8871771,5.96504854 L86.5061458,5.96504854 L86.5061458,4.02174757 L87.2264896,4.02174757 C87.5685833,4.02174757 87.7938646,4.25102913 87.7938646,4.59215534 C87.7938646,4.88295146 87.6019583,5.12341748 87.3627708,5.12900971 C87.4017083,5.15976699 87.4183958,5.17654369 87.4434271,5.21009709 C87.5546771,5.34990291 87.9078958,5.96504854 87.9078958,5.96504854 Z M87.3850208,4.60054369 C87.3850208,4.48031068 87.3377396,4.39642718 87.2459583,4.36287379 C87.2014583,4.34609709 87.1208021,4.33491262 87.0262396,4.33491262 L86.8871771,4.33491262 L86.8871771,4.86058252 L87.0178958,4.86058252 C87.1847708,4.86058252 87.2570833,4.84380583 87.3099271,4.79627184 C87.3572083,4.75153398 87.3850208,4.68163107 87.3850208,4.60054369 Z" id="path-1"></path>
    </defs>
    <g id="datatrans_security-logos-diners-protectbuy" stroke="none" stroke-width="1" fill="none" fill-rule="evenodd">
        <g id="Group-32" transform="translate(0.000000, 8.000000)">
            <g id="dinersClub_accmark_eps" transform="translate(22.250000, 0.000000)">
                <g id="Group-4">
                    <path d="M40.6073829,26.5118235 C40.6073829,27.9591739 39.4121837,29.1322083 37.937637,29.1322083 L3.89579286,29.1322083 C2.42154151,29.1322083 1.22634225,27.9591739 1.22634225,26.5118235 L1.22634225,2.88580406 C1.22634225,1.43830538 2.42154151,0.265270962 3.89579286,0.265270962 L37.937637,0.265270962 C39.4121837,0.265270962 40.6073829,1.43830538 40.6073829,2.88580406 L40.6073829,26.5118235" id="Fill-1" fill="#FFFFFE"></path>
                    <rect id="Rectangle" stroke="#106AAC" x="1.25" y="0.5" width="39" height="28" rx="3"></rect>
                </g>
                <path d="M4.84471759,17.7329709 C4.84471759,17.0855852 4.50793569,17.1281412 4.18577079,17.1213204 L4.18577079,16.9341924 C4.46511817,16.9478341 4.75155258,16.9478341 5.03163819,16.9478341 C5.33254198,16.9478341 5.74108013,16.9341924 6.27186968,16.9341924 C8.12808279,16.9341924 9.13916674,18.1789938 9.13916674,19.4537476 C9.13916674,20.1671174 8.7233939,21.9592162 6.18564406,21.9592162 C5.82036636,21.9592162 5.48299387,21.9449815 5.14621196,21.9449815 C4.82389942,21.9449815 4.50793569,21.951654 4.18577079,21.9592162 L4.18577079,21.77194 C4.61542242,21.728346 4.82389942,21.7142595 4.84471759,21.2247908 L4.84471759,17.7329709 Z M5.54722014,21.1092816 C5.54722014,21.6638447 5.94187951,21.728346 6.29298314,21.728346 C7.84179603,21.728346 8.34999564,20.5551633 8.34999564,19.482662 C8.34999564,18.1364378 7.48995417,17.1647661 6.10665312,17.1647661 C5.81209815,17.1647661 5.67655856,17.1858217 5.54722014,17.1935322 L5.54722014,21.1092816 L5.54722014,21.1092816 Z" id="Fill-5" fill="#1A1919"></path>
                <path d="M9.39031362,21.77194 L9.5261485,21.77194 C9.72680023,21.77194 9.87031273,21.77194 9.87031273,21.5338041 L9.87031273,19.5830468 C9.87031273,19.2667679 9.76297365,19.2230256 9.49735741,19.0794916 L9.49735741,18.9645755 C9.83428696,18.8628561 10.2360334,18.7270327 10.2643815,18.7053839 C10.3148767,18.6764695 10.3572512,18.668759 10.3937199,18.668759 C10.4288598,18.668759 10.4436245,18.7120565 10.4436245,18.7701818 L10.4436245,21.5338041 C10.4436245,21.77194 10.6016064,21.77194 10.8025534,21.77194 L10.9239189,21.77194 L10.9239189,21.9592162 C10.6801544,21.9592162 10.4288598,21.9449815 10.1716595,21.9449815 C9.91357319,21.9449815 9.65533927,21.951654 9.39031362,21.9592162 L9.39031362,21.77194 Z M10.1571901,17.5605225 C9.97041713,17.5605225 9.80593881,17.3877776 9.80593881,17.2006496 C9.80593881,17.0203425 9.9782424,16.8544184 10.1571901,16.8544184 C10.3432248,16.8544184 10.508589,17.0061077 10.508589,17.2006496 C10.508589,17.3953398 10.3504595,17.5605225 10.1571901,17.5605225 L10.1571901,17.5605225 Z" id="Fill-6" fill="#1A1919"></path>
                <path d="M11.6051603,19.6263442 C11.6051603,19.3604801 11.5260218,19.2885649 11.1896828,19.1515552 L11.1896828,19.014842 C11.4973783,18.9141606 11.7910474,18.8201518 12.1355069,18.668759 C12.157211,18.668759 12.1780292,18.6831421 12.1780292,18.7406743 L12.1780292,19.2087908 C12.5873056,18.9141606 12.9385568,18.668759 13.4195895,18.668759 C14.0280411,18.668759 14.2430146,19.1152268 14.2430146,19.676759 L14.2430146,21.5338041 C14.2430146,21.77194 14.4011441,21.77194 14.6016482,21.77194 L14.7309866,21.77194 L14.7309866,21.9592162 C14.4792492,21.9592162 14.2286929,21.9449815 13.9709019,21.9449815 C13.712668,21.9449815 13.4544341,21.951654 13.1963478,21.9592162 L13.1963478,21.77194 L13.3256862,21.77194 C13.5264856,21.77194 13.6692599,21.77194 13.6692599,21.5338041 L13.6692599,19.6700865 C13.6692599,19.2592056 13.4195895,19.0578429 13.0104607,19.0578429 C12.7808703,19.0578429 12.4152973,19.2446743 12.1780292,19.4037776 L12.1780292,21.5338041 C12.1780292,21.77194 12.336454,21.77194 12.5372534,21.77194 L12.6660012,21.77194 L12.6660012,21.9592162 C12.4152973,21.9592162 12.164298,21.9449815 11.9057688,21.9449815 C11.6482731,21.9449815 11.3898916,21.951654 11.1321006,21.9592162 L11.1321006,21.77194 L11.261439,21.77194 C11.4619431,21.77194 11.6051603,21.77194 11.6051603,21.5338041 L11.6051603,19.6263442" id="Fill-7" fill="#1A1919"></path>
                <path d="M15.2758026,19.9724272 C15.2611856,20.0372251 15.2611856,20.1450238 15.2758026,20.3899806 C15.3180295,21.0736946 15.7562446,21.6349303 16.3291135,21.6349303 C16.7239205,21.6349303 17.0323542,21.4188879 17.2970846,21.1530238 L17.397189,21.2538535 C17.0673465,21.6929073 16.658956,22.0674598 16.0716178,22.0674598 C14.9314907,22.0674598 14.7021955,20.9581853 14.7021955,20.4977793 C14.7021955,19.086609 15.6481673,18.668759 16.1494275,18.668759 C16.7307122,18.668759 17.3548144,19.0358976 17.3614585,19.7992374 C17.3614585,19.8429797 17.3614585,19.885684 17.3548144,19.9289815 L17.2899976,19.9724272 L15.2758026,19.9724272 Z M16.5451204,19.7418535 C16.7239205,19.7418535 16.7448863,19.6481412 16.7448863,19.5613981 C16.7448863,19.1948526 16.5228258,18.8996293 16.121227,18.8996293 C15.6843407,18.8996293 15.3831417,19.2230256 15.2972113,19.7418535 L16.5451204,19.7418535 L16.5451204,19.7418535 Z" id="Fill-8" fill="#1A1919"></path>
                <path d="M17.5266751,21.77194 L17.7203874,21.77194 C17.9203009,21.77194 18.0638134,21.77194 18.0638134,21.5338041 L18.0638134,19.5112798 C18.0638134,19.2885649 17.7987878,19.2446743 17.6911534,19.1871421 L17.6911534,19.0794916 C18.214413,18.8561836 18.5012903,18.668759 18.5668454,18.668759 C18.608777,18.668759 18.6303334,18.6904078 18.6303334,18.7627679 L18.6303334,19.4107467 L18.6453934,19.4107467 C18.8240458,19.1300547 19.1256878,18.668759 19.5627218,18.668759 C19.7418171,18.668759 19.9709646,18.7910891 19.9709646,19.0504289 C19.9709646,19.2446743 19.835425,19.4183089 19.6347733,19.4183089 C19.4118269,19.4183089 19.4118269,19.2446743 19.1606801,19.2446743 C19.0390193,19.2446743 18.6375681,19.4107467 18.6375681,19.8429797 L18.6375681,21.5338041 C18.6375681,21.77194 18.7807853,21.77194 18.9815847,21.77194 L19.3825929,21.77194 L19.3825929,21.9592162 C18.9883765,21.951654 18.6883586,21.9449815 18.3797772,21.9449815 C18.0858128,21.9449815 17.7846137,21.951654 17.5266751,21.9592162 L17.5266751,21.77194" id="Fill-9" fill="#1A1919"></path>
                <path d="M20.2861901,20.9581853 C20.3796504,21.433271 20.6657895,21.8370344 21.1900826,21.8370344 C21.6123519,21.8370344 21.7698909,21.5775463 21.7698909,21.3257688 C21.7698909,20.4758341 20.2076421,20.7497052 20.2076421,19.5907573 C20.2076421,19.1871421 20.5303976,18.6689073 21.3189781,18.6689073 C21.547978,18.6689073 21.8561165,18.73415 22.1354639,18.8782771 L22.1858113,19.6119612 L22.0210377,19.6119612 C21.9494291,19.1586726 21.6988728,18.8996293 21.2395443,18.8996293 C20.9528145,18.8996293 20.6807019,19.0649603 20.6807019,19.3745666 C20.6807019,20.2173839 22.3433503,19.9577476 22.3433503,21.0880777 C22.3433503,21.5628667 21.9638985,22.0674598 21.1105011,22.0674598 C20.8240667,22.0674598 20.4865466,21.9664819 20.2364332,21.8225031 L20.157147,20.9945137 L20.2861901,20.9581853" id="Fill-10" fill="#1A1919"></path>
                <path d="M28.8163251,18.2368226 L28.637525,18.2368226 C28.5010996,17.3953398 27.9060838,17.0565225 27.1037721,17.0565225 C26.2784276,17.0565225 25.0817519,17.6104925 25.0817519,19.3382383 C25.0817519,20.7930026 26.1143922,21.8370344 27.2180506,21.8370344 C27.9270496,21.8370344 28.5161595,21.3472692 28.6592291,20.5908985 L28.8241503,20.6338994 L28.6592291,21.6853451 C28.3581777,21.8727696 27.5478931,22.0674598 27.0742428,22.0674598 C25.3975679,22.0674598 24.3367271,20.9801306 24.3367271,19.3604801 C24.3367271,17.8842154 25.6485672,16.8256523 27.0535723,16.8256523 C27.6339711,16.8256523 28.1929611,17.0133733 28.7450118,17.2079153 L28.8163251,18.2368226" id="Fill-11" fill="#1A1919"></path>
                <path d="M29.0751496,21.77194 L29.2108368,21.77194 C29.4122268,21.77194 29.5552963,21.77194 29.5552963,21.5338041 L29.5552963,17.5249356 C29.5552963,17.0565225 29.4479573,17.0422877 29.175254,16.9629585 L29.175254,16.8475975 C29.461836,16.7541818 29.7631828,16.6248826 29.9140776,16.5378429 C29.9918873,16.4952868 30.0497648,16.4585137 30.0708783,16.4585137 C30.1147293,16.4585137 30.1289034,16.502256 30.1289034,16.5600847 L30.1289034,21.5338041 C30.1289034,21.77194 30.2867376,21.77194 30.4872417,21.77194 L30.6086072,21.77194 L30.6086072,21.9592162 C30.3655809,21.9592162 30.1147293,21.9449815 29.8564954,21.9449815 C29.5985568,21.9449815 29.3407658,21.951654 29.0751496,21.9592162 L29.0751496,21.77194" id="Fill-12" fill="#1A1919"></path>
                <path d="M33.6777372,21.5628667 C33.6777372,21.6929073 33.7561375,21.6997282 33.8776507,21.6997282 C33.9641716,21.6997282 34.0712154,21.6929073 34.1651186,21.6929073 L34.1651186,21.8444484 C33.8566849,21.8729179 33.2686084,22.0241624 33.132183,22.0674598 L33.0964525,22.0455146 L33.0964525,21.4623336 C32.6668009,21.8149409 32.3366631,22.0674598 31.826987,22.0674598 C31.4400052,22.0674598 31.0388494,21.8149409 31.0388494,21.2110009 L31.0388494,19.3674492 C31.0388494,19.1800247 31.0103536,19.0000141 30.6094931,18.9645755 L30.6094931,18.8274175 C30.867727,18.8203001 31.4400052,18.7772992 31.5334655,18.7772992 C31.6130471,18.7772992 31.6130471,18.8274175 31.6130471,18.9860759 L31.6130471,20.8432692 C31.6130471,21.0594598 31.6130471,21.6779312 32.2365587,21.6779312 C32.4798803,21.6779312 32.8024881,21.491248 33.1033919,21.2396187 L33.1033919,19.3025031 C33.1033919,19.1586726 32.759523,19.0794916 32.5018796,19.0078729 L32.5018796,18.8784254 C33.1463571,18.8345349 33.5482511,18.7772992 33.6198597,18.7772992 C33.6777372,18.7772992 33.6777372,18.8274175 33.6777372,18.906895 L33.6777372,21.5628667" id="Fill-13" fill="#1A1919"></path>
                <path d="M35.1038557,19.1871421 C35.3904378,18.9429267 35.7777149,18.668759 36.1719313,18.668759 C37.0036246,18.668759 37.5054754,19.3966602 37.5054754,20.1812039 C37.5054754,21.1239612 36.8169993,22.0674598 35.791446,22.0674598 C35.2615423,22.0674598 34.9818997,21.8941218 34.7951267,21.8149409 L34.5807438,21.9805684 L34.4304396,21.901684 C34.4945182,21.4770132 34.5306916,21.0594598 34.5306916,20.6201094 L34.5306916,17.5249356 C34.5306916,17.0565225 34.422762,17.0422877 34.150354,16.9629585 L34.150354,16.8475975 C34.437379,16.7541818 34.7381351,16.6248826 34.888587,16.5378429 C34.9677256,16.4952868 35.0248648,16.4585137 35.0467165,16.4585137 C35.0893864,16.4585137 35.1038557,16.5024042 35.1038557,16.5600847 L35.1038557,19.1871421 Z M35.1038557,21.1454616 C35.1038557,21.4188879 35.3620897,21.8800353 35.8422364,21.8800353 C36.6091129,21.8800353 36.9315731,21.1239612 36.9315731,20.4829515 C36.9315731,19.7056734 36.3443825,19.0578429 35.7853925,19.0578429 C35.519038,19.0578429 35.2972728,19.2308844 35.1038557,19.3966602 L35.1038557,21.1454616 L35.1038557,21.1454616 Z" id="Fill-14" fill="#1A1919"></path>
                <path d="M4.17779788,26.1451297 L4.23257477,26.1451297 C4.37283904,26.1451297 4.52107623,26.1258535 4.52107623,25.92197 L4.52107623,23.8697899 C4.52107623,23.6656099 4.37283904,23.6461853 4.23257477,23.6461853 L4.17779788,23.6461853 L4.17779788,23.5284519 C4.32987388,23.5284519 4.56389375,23.5440212 4.75553904,23.5440212 C4.95043256,23.5440212 5.18415714,23.5284519 5.36753422,23.5284519 L5.36753422,23.6461853 L5.31246204,23.6461853 C5.17278835,23.6461853 5.02425586,23.6656099 5.02425586,23.8697899 L5.02425586,25.92197 C5.02425586,26.1258535 5.17278835,26.1451297 5.31246204,26.1451297 L5.36753422,26.1451297 L5.36753422,26.2628632 C5.18046597,26.2628632 4.94585552,26.2477387 4.75155258,26.2477387 C4.56005494,26.2477387 4.32987388,26.2628632 4.17779788,26.2628632 L4.17779788,26.1451297" id="Fill-15" fill="#1A1919"></path>
                <path d="M5.36753422,26.2796187 C5.17884186,26.2796187 4.94541258,26.2639011 4.75125729,26.2639011 C4.56035023,26.2639011 4.33090741,26.2796187 4.17779788,26.2796187 L4.16081852,26.2796187 L4.16081852,26.1282259 L4.23227948,26.1282259 C4.37387257,26.1248155 4.50262041,26.1133981 4.50380158,25.92197 L4.50380158,23.8697899 C4.50262041,23.6780653 4.37387257,23.6656099 4.23227948,23.6630891 L4.16081852,23.6630891 L4.16081852,23.5113998 L4.17779788,23.5113998 C4.33090741,23.5113998 4.56477963,23.5266726 4.75553904,23.5266726 C4.94954668,23.5266726 5.18312361,23.5113998 5.36753422,23.5113998 L5.38495652,23.5113998 L5.38495652,23.6630891 L5.31320027,23.6630891 C5.17145953,23.6656099 5.04197346,23.6780653 5.04123522,23.8697899 L5.04123522,25.92197 C5.04197346,26.1133981 5.17145953,26.1248155 5.31320027,26.1282259 L5.38495652,26.1282259 L5.38495652,26.2796187 L5.36753422,26.2796187 Z M5.35070251,26.2461077 L5.35085015,26.1627749 L5.31320027,26.1627749 C5.17367423,26.1627749 5.00786709,26.1381606 5.00698121,25.92197 L5.00698121,23.8697899 C5.00786709,23.6531545 5.17367423,23.628985 5.31320027,23.628985 L5.35070251,23.628985 L5.35070251,23.5453557 C5.1707213,23.545504 4.94467434,23.5612215 4.75553904,23.5612215 C4.57024255,23.5612215 4.34596736,23.5465419 4.19492488,23.5453557 L4.19492488,23.628985 L4.23227948,23.628985 C4.37136258,23.628985 4.53746501,23.6531545 4.53746501,23.8697899 L4.53746501,25.92197 C4.53746501,26.1381606 4.37136258,26.1627749 4.23227948,26.1627749 L4.19492488,26.1627749 L4.19492488,26.2461077 C4.34596736,26.2447732 4.5662561,26.2303901 4.75125729,26.2303901 C4.94127847,26.2303901 5.16673484,26.2450697 5.35070251,26.2461077 L5.35070251,26.2461077 Z" id="Fill-16" fill="#1A1919"></path>
                <path d="M8.04717245,25.4907749 L8.05499772,25.4830644 L8.05499772,24.0145102 C8.05499772,23.6930415 7.83234664,23.6460371 7.71541053,23.6460371 L7.62948021,23.6460371 L7.62948021,23.5284519 C7.81315258,23.5284519 7.99254321,23.5440212 8.175625,23.5440212 C8.33552627,23.5440212 8.49616578,23.5284519 8.65547647,23.5284519 L8.65547647,23.6460371 L8.59745135,23.6460371 C8.43312068,23.6460371 8.2497436,23.6773239 8.2497436,24.1435128 L8.2497436,25.9258252 C8.2497436,26.0631315 8.25358241,26.2001412 8.27277647,26.3217299 L8.12453927,26.3217299 L6.11610251,24.0727838 L6.11610251,25.6870962 C6.11610251,26.0281377 6.18210054,26.1451297 6.48241373,26.1451297 L6.54885471,26.1451297 L6.54885471,26.2628632 C6.38112816,26.2628632 6.21354927,26.2475905 6.04582272,26.2475905 C5.87071385,26.2475905 5.69102793,26.2628632 5.51532847,26.2628632 L5.51532847,26.1451297 L5.57010536,26.1451297 C5.83911748,26.1451297 5.92106134,25.9609673 5.92106134,25.6485437 L5.92106134,23.9980512 C5.92106134,23.778895 5.74108013,23.6460371 5.56626655,23.6460371 L5.51532847,23.6460371 L5.51532847,23.5284519 C5.66327037,23.5284519 5.81564167,23.5440212 5.96358356,23.5440212 C6.08096262,23.5440212 6.19405992,23.5284519 6.31099603,23.5284519 L8.04717245,25.4907749" id="Fill-17" fill="#1A1919"></path>
                <path d="M8.27277647,26.3381889 L8.11213696,26.3327026 L6.13263893,24.1169709 L6.13263893,25.6870962 C6.13736362,26.0276929 6.18889228,26.124519 6.48256138,26.1282259 L6.56612936,26.1282259 L6.56612936,26.2796187 L6.54885471,26.2796187 C6.38009464,26.2796187 6.21222045,26.2639011 6.04582272,26.2639011 C5.87115679,26.2639011 5.69191381,26.2796187 5.51518083,26.2796187 L5.49805382,26.2796187 L5.49805382,26.1282259 L5.57010536,26.1282259 C5.82789633,26.1267432 5.90157199,25.9603742 5.90437728,25.6483954 L5.90437728,23.9986443 C5.90363904,23.7900159 5.73325486,23.6630891 5.5664142,23.6630891 L5.49805382,23.6630891 L5.49805382,23.5113998 L5.51518083,23.5113998 C5.6643039,23.5113998 5.81697049,23.5266726 5.96328827,23.5266726 C6.0796338,23.5266726 6.19228816,23.5113998 6.32384128,23.5174793 L8.03801836,25.4553363 L8.03801836,24.0145102 C8.03609896,23.703421 7.82909842,23.6656099 7.71555818,23.6630891 L7.6123532,23.6630891 L7.6123532,23.5113998 L7.62962785,23.5113998 C7.81389082,23.5113998 7.99342909,23.5266726 8.175625,23.5266726 C8.3343451,23.5266726 8.49424637,23.5113998 8.65547647,23.5113998 L8.67260347,23.5113998 L8.67260347,23.6630891 L8.59745135,23.6630891 C8.4363689,23.667241 8.27115235,23.6814757 8.26642766,24.1435128 L8.26642766,25.9258252 C8.26642766,26.0629832 8.27070941,26.1996964 8.28946053,26.3186161 L8.29300405,26.3381889 L8.27277647,26.3381889 Z M8.12468692,26.3040847 L8.25373005,26.3040847 C8.23630775,26.186203 8.23320718,26.0561624 8.23320718,25.9258252 L8.23320718,24.1435128 C8.23320718,23.6733204 8.42942951,23.628985 8.59745135,23.6286884 L8.63849711,23.6286884 L8.63849711,23.5453557 C8.48479699,23.5465419 8.33080158,23.5607767 8.175625,23.5607767 C7.99697261,23.5607767 7.8233402,23.5465419 7.64705015,23.5453557 L7.64660721,23.6286884 L7.71555818,23.6286884 C7.83544722,23.628985 8.07182944,23.6825137 8.07182944,24.0145102 L8.06666181,25.4953716 L8.05898418,25.5029338 L8.04569599,25.5155375 L6.31099603,23.5453557 C6.19509344,23.5453557 6.08229144,23.5607767 5.96328827,23.5607767 C5.82036636,23.5607767 5.67390093,23.5465419 5.53245548,23.5453557 L5.53171725,23.6286884 L5.5664142,23.6286884 C5.74934834,23.628985 5.93759776,23.7692568 5.93759776,23.9986443 L5.93759776,25.6483954 C5.93759776,25.961857 5.85063391,26.1620335 5.57010536,26.1630715 L5.53245548,26.1620335 L5.53245548,26.2461077 C5.70136319,26.2447732 5.87543854,26.2303901 6.04582272,26.2303901 C6.20852928,26.2303901 6.37094055,26.2447732 6.53187535,26.2461077 L6.53187535,26.1630715 L6.48256138,26.1630715 C6.17560409,26.1620335 6.09956609,26.0276929 6.09927079,25.6870962 L6.09927079,24.0288932 L8.12468692,26.3040847 Z" id="Fill-18" fill="#1A1919"></path>
                <path d="M9.24000937,23.7243283 C8.94707851,23.7243283 8.93570972,23.7952056 8.87724167,24.0807908 L8.76015791,24.0807908 C8.77551316,23.9710644 8.79485486,23.8614863 8.80696188,23.7479047 C8.82261242,23.6377335 8.83043769,23.5284519 8.83043769,23.4151668 L8.92389799,23.4151668 C8.95534672,23.532752 9.05279348,23.5284519 9.1586561,23.5284519 L11.1704887,23.5284519 C11.2763514,23.5284519 11.3736505,23.5245966 11.3816234,23.4070115 L11.4747884,23.4230256 C11.4597284,23.5284519 11.4437826,23.634323 11.4324138,23.7403425 C11.4247362,23.8460653 11.4247362,23.9514916 11.4247362,24.0572145 L11.3075048,24.1008085 C11.2995319,23.9560883 11.2801902,23.7243283 11.0188557,23.7243283 L10.3791029,23.7243283 L10.3791029,25.8083883 C10.3791029,26.1105808 10.5158237,26.1451297 10.7027443,26.1451297 L10.7771582,26.1451297 L10.7771582,26.2628632 C10.6249345,26.2628632 10.3517883,26.2477387 10.1415395,26.2477387 C9.90722438,26.2477387 9.63393052,26.2628632 9.48170687,26.2628632 L9.48170687,26.1451297 L9.55612076,26.1451297 C9.77109421,26.1451297 9.87976211,26.1258535 9.87976211,25.8165437 L9.87976211,23.7243283 L9.24000937,23.7243283" id="Fill-19" fill="#1A1919"></path>
                <path d="M10.7774535,26.2796187 C10.6237534,26.2796187 10.3509024,26.2640494 10.1415395,26.2640494 C9.90751968,26.2640494 9.63466875,26.2796187 9.48170687,26.2796187 L9.4650228,26.2796187 L9.4650228,26.1282259 L9.55612076,26.1282259 C9.77109421,26.1231845 9.85746748,26.1203672 9.86233981,25.8165437 L9.86233981,23.7410838 L9.24000937,23.7410838 L9.24000937,23.7068314 L9.89615089,23.7068314 L9.89615089,25.8165437 C9.89615089,26.1310432 9.76991304,26.1627749 9.55612076,26.1630715 L9.49839093,26.1630715 L9.49839093,26.2458111 C9.6522387,26.2447732 9.91504965,26.2303901 10.1415395,26.2303901 C10.3445536,26.2303901 10.6051499,26.2447732 10.7597359,26.2458111 L10.7597359,26.1630715 L10.7027443,26.1630715 C10.5140519,26.1627749 10.3622712,26.1162154 10.3622712,25.8083883 L10.3622712,23.7068314 L11.0188557,23.7068314 C11.2804855,23.7078694 11.3151824,23.9311774 11.323303,24.0769356 L11.4077568,24.0456487 C11.4077568,23.9433363 11.4081998,23.8408756 11.4151392,23.73797 C11.4266556,23.6366955 11.4408297,23.5372004 11.4554467,23.4368155 L11.3962404,23.4268808 C11.3780799,23.5409073 11.2680831,23.5469868 11.1703411,23.545504 L9.13828086,23.545504 C9.04644468,23.5456523 8.94648792,23.5412039 8.91134803,23.4319223 L8.84697411,23.4319223 C8.84638353,23.5401659 8.8390012,23.6452957 8.82423654,23.749684 C8.81257245,23.8573345 8.79470721,23.9606849 8.78053314,24.0644801 L8.86380583,24.0644801 C8.9150392,23.7912021 8.94840733,23.7029762 9.24000937,23.7068314 L9.24000937,23.7410838 C8.95106497,23.7468667 8.95741377,23.7953539 8.89377809,24.0847944 L8.8909728,24.0981395 L8.74066856,24.0981395 L8.74273561,24.0778252 C8.75868144,23.9685437 8.77846609,23.8585207 8.78983488,23.7447908 C8.806076,23.6361024 8.81345833,23.5274139 8.81345833,23.4151668 L8.81345833,23.3978182 L8.93733383,23.3978182 L8.94028677,23.4101253 C8.96656786,23.5088791 9.03876705,23.5096205 9.13828086,23.5113998 L11.1703411,23.5113998 C11.279009,23.5096205 11.3581476,23.5081377 11.3647917,23.405677 L11.3661205,23.3871421 L11.3838381,23.3907008 L11.4941301,23.4081977 L11.4913248,23.4255463 C11.4758219,23.5306761 11.4606143,23.6361024 11.4488026,23.7410838 C11.4415679,23.8460653 11.4415679,23.9513433 11.4415679,24.0572145 L11.4415679,24.0690768 L11.4301991,24.0736734 L11.2921495,24.1243848 L11.2912637,24.1016981 C11.2804855,23.9543089 11.2654255,23.7410838 11.0188557,23.7410838 L10.3962299,23.7410838 L10.3962299,25.8083883 C10.4000687,26.1037599 10.5167096,26.124519 10.7027443,26.1282259 L10.7939899,26.1282259 L10.7939899,26.2796187 L10.7774535,26.2796187" id="Fill-20" fill="#1A1919"></path>
                <path d="M11.5994021,26.1451297 L11.6543267,26.1451297 C11.7942956,26.1451297 11.9429758,26.1258535 11.9429758,25.92197 L11.9429758,23.8697899 C11.9429758,23.6656099 11.7942956,23.6461853 11.6543267,23.6461853 L11.5994021,23.6461853 L11.5994021,23.5284519 C11.8365226,23.5284519 12.2431413,23.5440212 12.5701785,23.5440212 C12.898397,23.5440212 13.3035392,23.5284519 13.5687125,23.5284519 C13.5619208,23.6968967 13.565612,23.9560883 13.5771284,24.1280918 L13.4596017,24.1592304 C13.4408506,23.9044872 13.3940466,23.7013451 12.9843273,23.7013451 L12.4427595,23.7013451 L12.4427595,24.7269903 L12.9060746,24.7269903 C13.1400944,24.7269903 13.1910325,24.5942807 13.214213,24.3825384 L13.3311492,24.3825384 C13.3233239,24.5355622 13.3191898,24.6882895 13.3191898,24.8408685 C13.3191898,24.9900371 13.3233239,25.1387608 13.3311492,25.2873363 L13.214213,25.3107643 C13.1910325,25.0760388 13.1793684,24.9233116 12.9099134,24.9233116 L12.4427595,24.9233116 L12.4427595,25.8355234 C12.4427595,26.0905631 12.6680682,26.0905631 12.9178863,26.0905631 C13.3860737,26.0905631 13.5926313,26.0589797 13.709715,25.6129568 L13.8185306,25.6399435 C13.7678878,25.8479788 13.7213791,26.0549762 13.6863869,26.2628632 C13.4364212,26.2628632 12.9878708,26.2477387 12.6375054,26.2477387 C12.2856635,26.2477387 11.8219056,26.2628632 11.5994021,26.2628632 L11.5994021,26.1451297" id="Fill-21" fill="#1A1919"></path>
                <path d="M13.6860916,26.2796187 C13.4358306,26.2796187 12.9869849,26.263308 12.6370625,26.263308 C12.2856635,26.263308 11.8220532,26.2796187 11.5992545,26.2796187 L11.5828657,26.2796187 L11.5828657,26.1282259 L11.654179,26.1282259 C11.7953292,26.1258535 11.9237817,26.1133981 11.9255535,25.92197 L11.9255535,23.8697899 C11.9237817,23.6783619 11.7953292,23.6656099 11.654179,23.6630891 L11.5828657,23.6630891 L11.5828657,23.5113998 L11.5992545,23.5113998 C11.8375561,23.5113998 12.243289,23.5266726 12.5701785,23.5266726 C12.8981017,23.5266726 13.3030963,23.5113998 13.5687125,23.5113998 L13.5859872,23.5113998 L13.5853966,23.5294898 C13.5828866,23.58806 13.5812625,23.6577511 13.5812625,23.7314457 C13.5812625,23.8668244 13.5853966,24.0152515 13.5930742,24.1267573 L13.5938125,24.1406955 L13.5806719,24.144699 L13.4435082,24.1807308 L13.4429176,24.1605649 C13.4198848,23.9064148 13.385926,23.721511 12.9843273,23.7176558 L12.4585577,23.7176558 L12.4582624,24.7097899 L12.9059269,24.7097899 C13.1307927,24.7074175 13.1709526,24.5920565 13.197529,24.380759 L13.1984149,24.3650415 L13.3484238,24.3650415 L13.3481285,24.3829832 C13.3405985,24.5360071 13.3360215,24.6882895 13.3360215,24.8408685 C13.3360215,24.9889991 13.3405985,25.1377229 13.3481285,25.2865949 L13.3484238,25.3008297 L13.3342497,25.3040918 L13.1984149,25.3312268 L13.197529,25.3128402 C13.1705096,25.0736664 13.1687379,24.9425878 12.9099134,24.9397705 L12.4585577,24.9397705 L12.4585577,25.8355234 C12.4591483,26.0736593 12.6634912,26.0723248 12.9177387,26.0736593 C13.3874025,26.070842 13.5755043,26.0477105 13.693031,25.6083601 L13.6970174,25.5924943 L13.7134062,25.5951633 L13.8384629,25.6277846 L13.8349194,25.643947 C13.7842766,25.851241 13.7377679,26.0583866 13.7024804,26.2656805 L13.6995274,26.2796187 L13.6860916,26.2796187 Z M13.6716222,26.2458111 C13.7057286,26.0477105 13.7501702,25.8499064 13.7980077,25.6526955 L13.7212315,25.633271 C13.604443,26.0714351 13.3781008,26.1105808 12.9177387,26.1076152 C12.6719071,26.1076152 12.4262231,26.1076152 12.4248943,25.8355234 L12.4248943,24.9062595 L12.9099134,24.9062595 C13.1823214,24.9034422 13.2097836,25.0683283 13.229273,25.2911915 L13.3134316,25.2738429 C13.3059016,25.1294192 13.3020628,24.9844025 13.3020628,24.8408685 C13.3020628,24.6937758 13.3059016,24.5469797 13.3134316,24.3991456 L13.229273,24.3991456 C13.2072736,24.6037705 13.143638,24.7465631 12.9059269,24.7440424 L12.4248943,24.7440424 L12.4248943,23.6836999 L12.9843273,23.6836999 C13.3899125,23.6804378 13.4570917,23.8912904 13.4748093,24.1377299 L13.5588202,24.1147467 C13.5520285,24.0042789 13.5474514,23.8622277 13.5474514,23.7314457 C13.5474514,23.6644237 13.5492232,23.600812 13.5514379,23.5453557 C13.2864122,23.5465419 12.890867,23.5607767 12.5701785,23.5607767 C12.2496378,23.5607767 11.855126,23.5465419 11.6163815,23.5453557 L11.6163815,23.6286884 L11.654179,23.6286884 C11.7929668,23.628985 11.9589216,23.6531545 11.9598075,23.8697899 L11.9598075,25.92197 C11.9589216,26.1381606 11.7929668,26.1620335 11.654179,26.1630715 L11.6163815,26.1630715 L11.6163815,26.2458111 C11.843462,26.2450697 12.2943747,26.2303901 12.6370625,26.2303901 C12.9813743,26.2303901 13.4201801,26.2450697 13.6716222,26.2458111 L13.6716222,26.2458111 Z" id="Fill-22" fill="#1A1919"></path>
                <path d="M14.3453337,23.9433363 C14.3453337,23.6577511 14.1891236,23.6460371 14.0680534,23.6460371 L13.9976259,23.6460371 L13.9976259,23.5284519 C14.122535,23.5284519 14.3643801,23.5440212 14.6025341,23.5440212 C14.836111,23.5440212 15.0236222,23.5284519 15.2303274,23.5284519 C15.7211047,23.5284519 16.1588769,23.6614581 16.1588769,24.2180971 C16.1588769,24.5704078 15.9247094,24.7855605 15.6167186,24.9077423 L16.283343,25.9099594 C16.3928968,26.0757352 16.4702636,26.1221465 16.6619089,26.1451297 L16.6619089,26.2628632 C16.5328658,26.2628632 16.4081044,26.2477387 16.2797995,26.2477387 C16.1588769,26.2477387 16.033525,26.2628632 15.913193,26.2628632 C15.6125845,25.8674034 15.3549412,25.4445119 15.1015796,24.9932992 L14.8445269,24.9932992 L14.8445269,25.832113 C14.8445269,26.1337123 14.9846435,26.1451297 15.1634435,26.1451297 L15.2341662,26.1451297 L15.2341662,26.2628632 C15.0113675,26.2628632 14.7860588,26.2477387 14.5632601,26.2477387 C14.3760442,26.2477387 14.1926671,26.2628632 13.9976259,26.2628632 L13.9976259,26.1451297 L14.0680534,26.1451297 C14.2128947,26.1451297 14.3453337,26.0788491 14.3453337,25.9341289 L14.3453337,23.9433363 Z M14.8445269,24.8519894 L15.0351386,24.8519894 C15.4256639,24.8519894 15.6359127,24.7035622 15.6359127,24.2410803 C15.6359127,23.8927732 15.4135569,23.6694651 15.0659968,23.6694651 C14.948913,23.6694651 14.8990084,23.6814757 14.8445269,23.685331 L14.8445269,24.8519894 L14.8445269,24.8519894 Z" id="Fill-23" fill="#1A1919"></path>
                <path d="M16.6619089,26.2796187 C16.531094,26.2796187 16.4070709,26.2639011 16.278766,26.2639011 C16.1599105,26.2639011 16.0351491,26.2796187 15.8993142,26.2730944 C15.6000345,25.8786726 15.3435724,25.4581536 15.0916873,25.0109444 L14.8612109,25.0109444 L14.8612109,25.8313716 C14.8654927,26.1262983 14.983167,26.1240741 15.1634435,26.1282259 L15.250998,26.1282259 L15.250998,26.2796187 L15.2337233,26.2796187 C15.0107769,26.2796187 14.7841394,26.2639011 14.5631124,26.2639011 C14.3767824,26.2639011 14.193553,26.2796187 13.9976259,26.2796187 L13.9806466,26.2796187 L13.9806466,26.1282259 L14.0680534,26.1282259 C14.2083176,26.127188 14.3268779,26.0658005 14.3274684,25.9341289 L14.3274684,23.9433363 C14.3245155,23.6656099 14.1891236,23.6669444 14.0680534,23.6630891 L13.9806466,23.6630891 L13.9806466,23.5113998 L13.9976259,23.5113998 C14.1238638,23.5113998 14.3646754,23.5266726 14.6025341,23.5266726 C14.8353728,23.5266726 15.022441,23.5113998 15.2303274,23.5113998 C15.7221383,23.5124378 16.1746751,23.6484095 16.1758563,24.217504 C16.1758563,24.5710009 15.9431652,24.7919365 15.6424091,24.9151562 L16.2973694,25.9006178 C16.4064803,26.0631315 16.4743977,26.1037599 16.6641236,26.1282259 L16.6782977,26.1304501 L16.6782977,26.2796187 L16.6619089,26.2796187 Z M14.8443792,24.9763954 L15.1108813,24.9763954 L15.1157537,24.9851439 C15.3697058,25.4351703 15.6260203,25.8582101 15.913193,26.2461077 C16.0319008,26.2461077 16.1572528,26.2303901 16.278766,26.2303901 C16.4032321,26.2303901 16.5237117,26.2440318 16.6447819,26.2458111 L16.6447819,26.1598094 C16.4619954,26.1374192 16.3760651,26.0819629 16.2696119,25.9195975 L15.5905851,24.8998835 L15.6097792,24.8920247 C15.91526,24.7711774 16.1416023,24.5619559 16.1417499,24.217504 C16.1416023,23.6740618 15.7206618,23.5480247 15.2303274,23.5453557 C15.024951,23.5453557 14.8374398,23.5612215 14.6025341,23.5612215 C14.3733865,23.5612215 14.1418767,23.5465419 14.01431,23.5453557 L14.01431,23.6286884 L14.0680534,23.6286884 C14.1891236,23.628985 14.3614272,23.6491509 14.3614272,23.9433363 L14.3614272,25.9341289 C14.3614272,26.0913045 14.2148141,26.1627749 14.0680534,26.1630715 L14.01431,26.1630715 L14.01431,26.2458111 C14.2018212,26.2450697 14.379883,26.2303901 14.5631124,26.2303901 C14.7808912,26.2303901 15.0011799,26.2450697 15.2168916,26.2458111 L15.2168916,26.1630715 L15.1634435,26.1630715 C14.9858247,26.1627749 14.8271046,26.1406814 14.8271046,25.8313716 L14.8271046,24.9763954 L14.8443792,24.9763954 Z M14.8443792,24.8688932 L14.8271046,24.8688932 L14.8271046,23.6694651 L14.8420169,23.6682789 C14.8954649,23.6639788 14.9480271,23.6531545 15.0659968,23.6531545 C15.4212345,23.6531545 15.6525967,23.8849144 15.652892,24.2421183 C15.6518585,24.7097899 15.4286168,24.8687449 15.0351386,24.8688932 L14.8443792,24.8688932 Z M15.0351386,24.8355305 C15.4212345,24.8316752 15.6158327,24.6971862 15.6196715,24.2421183 C15.6173092,23.8998906 15.4057316,23.6875552 15.0659968,23.6860724 C14.9607247,23.6860724 14.9109678,23.6958588 14.8612109,23.700752 L14.8612109,24.8355305 L15.0351386,24.8355305 L15.0351386,24.8355305 Z" id="Fill-24" fill="#1A1919"></path>
                <path d="M19.3100984,25.4907749 L19.3168902,25.4830644 L19.3168902,24.0145102 C19.3168902,23.6930415 19.0952726,23.6460371 18.9781889,23.6460371 L18.8927015,23.6460371 L18.8927015,23.5284519 C19.0760785,23.5284519 19.2548786,23.5440212 19.4386986,23.5440212 C19.5990428,23.5440212 19.7577629,23.5284519 19.9188454,23.5284519 L19.9188454,23.6460371 L19.860082,23.6460371 C19.6961943,23.6460371 19.5129649,23.6773239 19.5129649,24.1435128 L19.5129649,25.9258252 C19.5129649,26.0631315 19.5168037,26.2001412 19.5359977,26.3217299 L19.3883511,26.3217299 L17.3797667,24.0727838 L17.3797667,25.6870962 C17.3797667,26.0281377 17.4456171,26.1451297 17.7459303,26.1451297 L17.8123713,26.1451297 L17.8123713,26.2628632 C17.6447924,26.2628632 17.4767705,26.2475905 17.3091916,26.2475905 C17.1330492,26.2475905 16.9539539,26.2628632 16.7785497,26.2628632 L16.7785497,26.1451297 L16.832736,26.1451297 C17.1020434,26.1451297 17.1844302,25.9609673 17.1844302,25.6485437 L17.1844302,23.9980512 C17.1844302,23.778895 17.0047443,23.6460371 16.8293402,23.6460371 L16.7785497,23.6460371 L16.7785497,23.5284519 C16.9261963,23.5284519 17.0794535,23.5440212 17.2273954,23.5440212 C17.343298,23.5440212 17.4569859,23.5284519 17.5742173,23.5284519 L19.3100984,25.4907749" id="Fill-25" fill="#1A1919"></path>
                <path d="M19.5358501,26.3381889 L19.3756535,26.3327026 L17.3958602,24.1172674 L17.3958602,25.6869479 C17.4004372,26.0281377 17.4518182,26.124519 17.7459303,26.1282259 L17.8286124,26.1282259 L17.8286124,26.2796187 L17.811633,26.2796187 C17.6430206,26.2796187 17.4755894,26.263308 17.3084534,26.263308 C17.134378,26.263308 16.9541015,26.2796187 16.7784021,26.2796187 L16.7609798,26.2796187 L16.7609798,26.1282259 L16.832736,26.1282259 C17.0903794,26.127188 17.1642027,25.9603742 17.1667127,25.6475057 L17.1667127,23.9980512 C17.1662697,23.7892745 16.9961808,23.6630891 16.8293402,23.6630891 L16.7609798,23.6630891 L16.7609798,23.5113998 L16.7784021,23.5113998 C16.9273775,23.5113998 17.0800441,23.5266726 17.2272478,23.5266726 C17.3418215,23.5266726 17.4547712,23.5113998 17.5855861,23.5164413 L19.3003537,25.4553363 L19.3003537,24.0145102 C19.2993202,23.703421 19.0915814,23.6648685 18.9781889,23.6630891 L18.8752792,23.6630891 L18.8752792,23.5113998 L18.8922585,23.5113998 C19.0765215,23.5113998 19.2563551,23.5266726 19.4386986,23.5266726 C19.5975664,23.5266726 19.75732,23.5113998 19.9181071,23.5113998 L19.9353818,23.5113998 L19.9353818,23.6630891 L19.860082,23.6630891 C19.6991472,23.6669444 19.5333401,23.6814757 19.5295013,24.1435128 L19.5295013,25.9258252 C19.5295013,26.0629832 19.5328971,26.1988067 19.5528294,26.3189126 L19.5547488,26.3381889 L19.5358501,26.3381889 Z M19.3882035,26.3040847 L19.5160654,26.3040847 C19.4989384,26.1869444 19.4955426,26.0561624 19.4955426,25.9258252 L19.4955426,24.1435128 C19.4958378,23.6733204 19.6930937,23.6297264 19.860082,23.6286884 L19.9011278,23.6286884 L19.9011278,23.5453557 C19.7475753,23.5465419 19.5934323,23.5607767 19.4386986,23.5607767 C19.2594556,23.5607767 19.0856756,23.5465419 18.9092379,23.5453557 L18.9092379,23.6286884 L18.9781889,23.6286884 C19.0983732,23.6297264 19.3346078,23.6825137 19.3346078,24.0145102 L19.3289972,25.4953716 L19.3219101,25.5029338 L19.3096555,25.5158341 L17.5742173,23.5453557 C17.4581671,23.5453557 17.3450698,23.5607767 17.2272478,23.5607767 C17.0825541,23.5607767 16.9368269,23.5465419 16.7950861,23.5453557 L16.7950861,23.6286884 L16.8293402,23.6286884 C17.0128649,23.6297264 17.2005237,23.7686637 17.2005237,23.9980512 L17.2005237,25.6475057 C17.2005237,25.961857 17.1123787,26.1620335 16.832736,26.1630715 L16.7950861,26.1627749 L16.7950861,26.2459594 C16.9635509,26.2447732 17.137331,26.2303901 17.3084534,26.2303901 C17.4720458,26.2303901 17.6341618,26.2447732 17.7953919,26.2459594 L17.7953919,26.1630715 L17.7459303,26.1630715 C17.438973,26.1627749 17.3624921,26.0281377 17.3616062,25.6869479 L17.3616062,24.0294863 L19.3882035,26.3040847 Z" id="Fill-26" fill="#1A1919"></path>
                <path d="M20.5459005,25.7028138 C20.5066265,25.8355234 20.4595272,25.9384289 20.4595272,26.0079718 C20.4595272,26.1258535 20.6238579,26.145278 20.7521628,26.145278 L20.7957186,26.145278 L20.7957186,26.2628632 C20.6390655,26.2544113 20.4799025,26.2477387 20.3229541,26.2477387 C20.1825422,26.2477387 20.0428685,26.2544113 19.9020137,26.2628632 L19.9020137,26.145278 L19.9257848,26.145278 C20.0775655,26.145278 20.2067562,26.0549762 20.2646337,25.8903866 L20.8887359,24.0929497 C20.939674,23.9476364 21.0099538,23.7519082 21.0337249,23.6065949 C21.157748,23.5637423 21.3144011,23.4858959 21.3882244,23.4382983 C21.4003314,23.4342948 21.4075661,23.4302913 21.4193778,23.4302913 C21.4311895,23.4302913 21.4384242,23.4302913 21.4469877,23.4425984 C21.4585042,23.4735887 21.469873,23.5088791 21.48198,23.5401659 L22.1999854,25.5892321 C22.2467894,25.7259453 22.2931504,25.8708138 22.343055,25.9889921 C22.3905972,26.0988667 22.472541,26.145278 22.6017318,26.145278 L22.62506,26.145278 L22.62506,26.2628632 C22.4493605,26.2544113 22.2733658,26.2477387 22.0870358,26.2477387 C21.8958334,26.2477387 21.7002017,26.2544113 21.5013217,26.2628632 L21.5013217,26.145278 L21.5442868,26.145278 C21.6334654,26.145278 21.7865749,26.1297087 21.7865749,26.0316964 C21.7865749,25.9811333 21.7512874,25.8752621 21.7077316,25.7493733 L21.5558033,25.2951951 L20.6705142,25.2951951 L20.5459005,25.7028138 Z M21.1153735,23.9673575 L21.1072529,23.9673575 L20.7447805,25.0760388 L21.4735641,25.0760388 L21.1153735,23.9673575 L21.1153735,23.9673575 Z" id="Fill-27" fill="#1A1919"></path>
                <path d="M22.6238788,26.2796187 C22.4486223,26.2720565 22.2727752,26.263308 22.0870358,26.263308 C21.8958334,26.263308 21.7012352,26.2720565 21.5022076,26.2796187 L21.4841947,26.2805084 L21.4841947,26.1274846 L21.5442868,26.1274846 C21.6346466,26.1274846 21.7687097,26.1071703 21.769005,26.0316964 C21.7698909,25.9870644 21.7348986,25.8797105 21.6919334,25.7551562 L21.543401,25.3119506 L20.6830642,25.3119506 L20.5616987,25.7078553 C20.5224247,25.8410097 20.4750301,25.9445084 20.4757684,26.0082683 C20.4770972,26.1039082 20.6226767,26.1274846 20.7521628,26.1274846 L20.8121073,26.1274846 L20.8121073,26.2805084 L20.7943897,26.2796187 C20.6384749,26.2720565 20.4793119,26.263308 20.3232494,26.263308 C20.1840187,26.263308 20.0430162,26.2720565 19.9033425,26.2796187 L19.8851819,26.2805084 L19.8851819,26.1274846 L19.9256371,26.1274846 C20.0706261,26.127188 20.1916963,26.0440035 20.2480973,25.8849003 L20.8727901,24.0868703 C20.9231376,23.9418535 20.9940079,23.747015 21.0276714,23.5904325 C21.1500704,23.5487661 21.3070187,23.4697335 21.3818756,23.4224325 C21.3928014,23.4185772 21.4035796,23.4135357 21.4192302,23.4135357 C21.4288272,23.4129426 21.449793,23.4154634 21.4624906,23.4359259 C21.4735641,23.4681024 21.4859664,23.5032445 21.4977782,23.5348279 L22.2159312,25.5835975 C22.2618493,25.7207555 22.3085057,25.8654757 22.3595914,25.9815781 C22.4047713,26.0859665 22.4763799,26.127188 22.6017318,26.1274846 L22.6411535,26.1274846 L22.6411535,26.2805084 L22.6238788,26.2796187 Z M21.518301,26.2447732 C21.7112752,26.2379523 21.9007057,26.2303901 22.0870358,26.2303901 C22.2679029,26.2303901 22.4379917,26.2379523 22.60749,26.2447732 L22.60749,26.1627749 L22.6017318,26.1627749 C22.467964,26.1636646 22.3759802,26.1108773 22.3281427,25.995368 C22.2773522,25.8770415 22.2299577,25.7315799 22.1838919,25.5944219 L21.4657389,23.545504 C21.4539271,23.5142171 21.4428536,23.4792233 21.432666,23.4513469 C21.4288272,23.4474916 21.4297131,23.4474916 21.4266125,23.4474916 L21.4192302,23.4474916 C21.4114049,23.4474916 21.4066802,23.4498641 21.3966402,23.4523848 C21.3216358,23.5013169 21.165278,23.5785702 21.0492278,23.6091156 C21.0254567,23.7575428 20.9551769,23.953271 20.9045341,24.098436 L20.2804319,25.8960212 C20.221078,26.0662454 20.0839143,26.1630715 19.9256371,26.1627749 L19.9191407,26.1627749 L19.9191407,26.2447732 C20.0529085,26.2379523 20.1878575,26.2303901 20.3232494,26.2303901 C20.4741443,26.2303901 20.627992,26.2379523 20.7772627,26.2447732 L20.7772627,26.1627749 L20.7521628,26.1627749 C20.6247438,26.1609956 20.4472726,26.1470574 20.4428432,26.0082683 C20.4431385,25.9305702 20.490976,25.8303336 20.5292164,25.6979206 L20.5457529,25.7028138 L20.5292164,25.6974757 L20.657669,25.2788844 L21.5671721,25.2788844 L21.7233822,25.7440353 C21.7672332,25.8700724 21.8026684,25.9744607 21.8026684,26.0316964 C21.7969102,26.151654 21.6327272,26.1605508 21.5442868,26.1627749 L21.518301,26.1627749 L21.518301,26.2447732 Z M20.7210094,25.0929426 L21.0944076,23.9500088 L21.1153735,23.9500088 L21.1153735,23.9673575 L21.1112394,23.9685437 L21.1153735,23.9673575 L21.1153735,23.9500088 L21.1270375,23.9500088 L21.4977782,25.0929426 L20.7210094,25.0929426 Z M20.7676657,25.0586902 L21.4505312,25.0586902 L21.1110917,24.0090238 L20.7676657,25.0586902 Z" id="Fill-28" fill="#1A1919"></path>
                <path d="M22.7964777,23.7243283 C22.5039898,23.7243283 22.492178,23.7952056 22.4334147,24.0807908 L22.3161833,24.0807908 C22.3315385,23.9710644 22.3514708,23.8614863 22.3635779,23.7479047 C22.3787855,23.6377335 22.3863154,23.5284519 22.3863154,23.4151668 L22.4806616,23.4151668 C22.5112245,23.532752 22.6089665,23.5284519 22.7142385,23.5284519 L24.7272524,23.5284519 C24.8320814,23.5284519 24.9295282,23.5245966 24.9372058,23.4070115 L25.0305185,23.4230256 C25.0160491,23.5284519 25.0005462,23.634323 24.9882916,23.7403425 C24.979728,23.8460653 24.979728,23.9514916 24.979728,24.0572145 L24.8632349,24.1008085 C24.8562955,23.9560883 24.8366585,23.7243283 24.5747334,23.7243283 L23.9351283,23.7243283 L23.9351283,25.8083883 C23.9351283,26.1105808 24.0718491,26.1451297 24.2587697,26.1451297 L24.3333312,26.1451297 L24.3333312,26.2628632 C24.1809599,26.2628632 23.9084043,26.2477387 23.6972696,26.2477387 C23.4636927,26.2477387 23.1899559,26.2628632 23.0378799,26.2628632 L23.0378799,26.1451297 L23.1121461,26.1451297 C23.3271196,26.1451297 23.4359351,26.1258535 23.4359351,25.8165437 L23.4359351,23.7243283 L22.7964777,23.7243283" id="Fill-29" fill="#1A1919"></path>
                <path d="M24.3333312,26.2796187 C24.180074,26.2796187 23.9066325,26.2640494 23.6969743,26.2640494 C23.463988,26.2640494 23.1908418,26.2796187 23.0380275,26.2796187 L23.0207529,26.2796187 L23.0207529,26.1282259 L23.1121461,26.1282259 C23.3272672,26.1231845 23.4134929,26.1203672 23.4186605,25.8165437 L23.4183652,23.7410838 L22.7964777,23.7410838 L22.7964777,23.7068314 L23.4527669,23.7068314 L23.4527669,25.8165437 C23.4527669,26.1310432 23.3263814,26.1620335 23.1121461,26.1627749 L23.0547116,26.1627749 L23.0547116,26.2461077 C23.2088547,26.2447732 23.4709274,26.2303901 23.6969743,26.2303901 C23.9008743,26.2303901 24.1619135,26.2447732 24.3159089,26.2461077 L24.3159089,26.1627749 L24.258622,26.1627749 C24.0706679,26.1620335 23.9187395,26.1166602 23.9184443,25.8083883 L23.9184443,23.7068314 L24.5747334,23.7068314 C24.8368061,23.7078694 24.8709125,23.9311774 24.8784425,24.0769356 L24.9631916,24.0456487 C24.9631916,23.9433363 24.9637822,23.8408756 24.9717551,23.7384148 C24.982238,23.6374369 24.9970027,23.5372004 25.0111768,23.4372604 L24.9522658,23.4268808 C24.9344005,23.5409073 24.8242562,23.5472833 24.7272524,23.545504 L22.6943062,23.545504 C22.6023224,23.5465419 22.5028086,23.5412039 22.4673734,23.4316258 L22.4035901,23.4316258 C22.4027042,23.5400177 22.3950266,23.6452957 22.3796713,23.749684 C22.3690408,23.8577793 22.3502897,23.9614263 22.3353774,24.0644801 L22.4192406,24.0644801 C22.470474,23.7912021 22.5042851,23.7025313 22.7964777,23.7068314 L22.7964777,23.7410838 C22.507238,23.7461253 22.5135868,23.7953539 22.4499511,24.0847944 L22.4471458,24.0981395 L22.2965463,24.0981395 L22.2989086,24.0787149 C22.3152974,23.9685437 22.3344915,23.8585207 22.3458603,23.7456805 C22.3618061,23.6361024 22.3690408,23.5274139 22.3690408,23.4151668 L22.3690408,23.3978182 L22.4929163,23.3978182 L22.4961645,23.4101253 C22.5234791,23.5088791 22.5944971,23.5096205 22.6943062,23.5113998 L24.7272524,23.5113998 C24.835182,23.5096205 24.9138777,23.5081377 24.9208171,23.4059735 L24.9214076,23.3871421 L24.9395682,23.3907008 L25.0503031,23.4081977 L25.0476455,23.4255463 C25.031552,23.5306761 25.0167873,23.6361024 25.0049756,23.7410838 C24.9970027,23.8460653 24.9970027,23.9514916 24.9970027,24.0572145 L24.9970027,24.0690768 L24.9856339,24.0736734 L24.8475843,24.1243848 L24.8469937,24.1016981 C24.8368061,23.9543089 24.8213032,23.7410838 24.5747334,23.7410838 L23.95196,23.7410838 L23.95196,25.8083883 C23.9559465,26.1037599 24.072735,26.124519 24.258622,26.1282259 L24.3495723,26.1282259 L24.3495723,26.2796187 L24.3333312,26.2796187" id="Fill-30" fill="#1A1919"></path>
                <path d="M25.1749169,26.1451297 L25.2295461,26.1451297 C25.3701057,26.1451297 25.5177523,26.1258535 25.5177523,25.92197 L25.5177523,23.8697899 C25.5177523,23.6656099 25.3701057,23.6461853 25.2295461,23.6461853 L25.1749169,23.6461853 L25.1749169,23.5284519 C25.3271405,23.5284519 25.5607174,23.5440212 25.7516245,23.5440212 C25.9471086,23.5440212 26.1812761,23.5284519 26.3649485,23.5284519 L26.3649485,23.6461853 L26.3101716,23.6461853 C26.1691691,23.6461853 26.0209319,23.6656099 26.0209319,23.8697899 L26.0209319,25.92197 C26.0209319,26.1258535 26.1691691,26.1451297 26.3101716,26.1451297 L26.3649485,26.1451297 L26.3649485,26.2628632 C26.177585,26.2628632 25.9432698,26.2477387 25.7485239,26.2477387 C25.5570263,26.2477387 25.3271405,26.2628632 25.1749169,26.2628632 L25.1749169,26.1451297" id="Fill-31" fill="#1A1919"></path>
                <path d="M26.3649485,26.2796187 C26.1764038,26.2796187 25.9431221,26.263308 25.7485239,26.263308 C25.5576169,26.263308 25.3272882,26.2796187 25.1749169,26.2796187 L25.1582328,26.2796187 L25.1582328,26.1282259 L25.2296937,26.1282259 C25.3702533,26.1258535 25.499887,26.1133981 25.5007729,25.92197 L25.5007729,23.8697899 C25.499887,23.6783619 25.3702533,23.6656099 25.2296937,23.6630891 L25.1582328,23.6630891 L25.1582328,23.5113998 L25.1749169,23.5113998 C25.3272882,23.5113998 25.5618986,23.5266726 25.7516245,23.5266726 C25.9460751,23.5266726 26.1800949,23.5113998 26.3649485,23.5113998 L26.3811896,23.5113998 L26.3811896,23.6630891 L26.3103193,23.6630891 C26.167545,23.6656099 26.0392401,23.6783619 26.0379113,23.8697899 L26.0379113,25.92197 C26.0392401,26.1133981 26.167545,26.1258535 26.3103193,26.1282259 L26.3811896,26.1282259 L26.3811896,26.2796187 L26.3649485,26.2796187 Z M26.3472309,26.2458111 L26.3472309,26.1627749 L26.3103193,26.1627749 C26.1703503,26.1627749 26.0048384,26.1381606 26.0048384,25.92197 L26.0048384,23.8697899 C26.0048384,23.6531545 26.1703503,23.628985 26.3103193,23.6286884 L26.3472309,23.6286884 L26.3472309,23.5453557 C26.1673973,23.5465419 25.941498,23.5607767 25.7516245,23.5607767 C25.5664757,23.5607767 25.343234,23.5465419 25.1918962,23.5453557 L25.1918962,23.6286884 L25.2296937,23.6286884 C25.3681863,23.628985 25.5344363,23.6531545 25.5348793,23.8697899 L25.5348793,25.92197 C25.5344363,26.1381606 25.3681863,26.1627749 25.2296937,26.1627749 L25.1918962,26.1627749 L25.1918962,26.2458111 C25.3422005,26.2440318 25.5627845,26.2303901 25.7485239,26.2303901 C25.9376592,26.2303901 26.1632632,26.2447732 26.3472309,26.2458111 L26.3472309,26.2458111 Z" id="Fill-32" fill="#1A1919"></path>
                <path d="M27.9202578,23.4697335 C28.7518035,23.4697335 29.4145891,23.9873751 29.4145891,24.8217405 C29.4145891,25.7228314 28.7708499,26.3217299 27.9403378,26.3217299 C27.1130738,26.3217299 26.4814417,25.7575287 26.4814417,24.9151562 C26.4814417,24.1008085 27.109235,23.4697335 27.9202578,23.4697335 M27.9791688,26.1492816 C28.736153,26.1492816 28.868149,25.4789126 28.868149,24.9077423 C28.868149,24.3352374 28.5607488,23.6421818 27.9128755,23.6421818 C27.2304529,23.6421818 27.0274388,24.2533875 27.0274388,24.77785 C27.0274388,25.4789126 27.3475367,26.1492816 27.9791688,26.1492816" id="Fill-33" fill="#1A1919"></path>
                <path d="M26.4640194,24.9151562 C26.4656435,24.0913186 27.1006715,23.4540159 27.9201102,23.4526814 L27.9201102,23.4869338 C27.1182415,23.4869338 26.4979781,24.1094086 26.4970922,24.9151562 C26.4987163,25.7480388 27.1211944,26.3037882 27.9404854,26.3040847 C28.7625817,26.3037882 29.3970192,25.7134898 29.3980527,24.8211474 C29.3973145,23.9971615 28.7450118,23.4876752 27.9201102,23.4869338 L27.9201102,23.4526814 C28.7575617,23.4535711 29.4297967,23.9762542 29.4312732,24.8211474 C29.4303873,25.7315799 28.7789705,26.3367061 27.9404854,26.3381889 C27.1061345,26.3367061 26.4656435,25.7668703 26.4640194,24.9151562 M27.0103118,24.77785 C27.011493,24.2507184 27.2162788,23.6246849 27.9127279,23.6246849 C28.5750705,23.6261677 28.8839472,24.3321236 28.885276,24.9077423 C28.8839472,25.4789126 28.7501794,26.1652957 27.9793165,26.1652957 L27.9793165,26.1320812 C28.7209454,26.1314881 28.8498409,25.4789126 28.851022,24.9077423 C28.851022,24.3402789 28.5467224,23.6602718 27.9127279,23.6592339 C27.2435934,23.6599753 27.0458946,24.2560565 27.0441229,24.77785 C27.0444182,25.4756505 27.3615631,26.1310432 27.9793165,26.1320812 L27.9793165,26.1652957 C27.3318861,26.1647026 27.011493,25.4830644 27.0103118,24.77785" id="Fill-34" fill="#1A1919"></path>
                <path d="M32.042994,25.4907749 L32.0511145,25.4830644 L32.0511145,24.0145102 C32.0511145,23.6930415 31.8280205,23.6460371 31.7110844,23.6460371 L31.6261876,23.6460371 L31.6261876,23.5284519 C31.8089741,23.5284519 31.9888077,23.5440212 32.1715942,23.5440212 C32.3319384,23.5440212 32.4918397,23.5284519 32.6518886,23.5284519 L32.6518886,23.6460371 L32.5932729,23.6460371 C32.4298281,23.6460371 32.2457128,23.6773239 32.2457128,24.1435128 L32.2457128,25.9258252 C32.2457128,26.0631315 32.2498469,26.2001412 32.2696315,26.3217299 L32.1212467,26.3217299 L30.1120717,24.0727838 L30.1120717,25.6870962 C30.1120717,26.0281377 30.1786603,26.1451297 30.4783829,26.1451297 L30.5452668,26.1451297 L30.5452668,26.2628632 C30.3773926,26.2628632 30.2099614,26.2475905 30.0422348,26.2475905 C29.8665354,26.2475905 29.6869971,26.2628632 29.5114453,26.2628632 L29.5114453,26.1451297 L29.5662222,26.1451297 C29.8358249,26.1451297 29.9171782,25.9609673 29.9171782,25.6485437 L29.9171782,23.9980512 C29.9171782,23.778895 29.7383781,23.6460371 29.5619404,23.6460371 L29.5114453,23.6460371 L29.5114453,23.5284519 C29.6596825,23.5284519 29.8116108,23.5440212 29.9601433,23.5440212 C30.0769318,23.5440212 30.1894385,23.5284519 30.3069652,23.5284519 L32.042994,25.4907749" id="Fill-35" fill="#1A1919"></path>
                <path d="M32.2697792,26.3381889 L32.1084014,26.3327026 L30.1289034,24.1172674 L30.1289034,25.6870962 C30.1334804,26.0281377 30.1850091,26.1240741 30.47794,26.1274846 L30.5619509,26.1274846 L30.5619509,26.2796187 L30.5454145,26.2796187 C30.3765068,26.2796187 30.2090755,26.2639011 30.0422348,26.2639011 C29.8674213,26.2639011 29.687883,26.2796187 29.5110024,26.2796187 L29.4950565,26.2796187 L29.4950565,26.1274846 L29.5660745,26.1274846 C29.8231273,26.1267432 29.8972459,25.9603742 29.9003465,25.6483954 L29.9003465,23.9980512 C29.9001988,23.7892745 29.729667,23.6630891 29.5620881,23.6630891 L29.4950565,23.6630891 L29.4950565,23.5113998 L29.5110024,23.5113998 C29.6605684,23.5113998 29.8126444,23.5266726 29.9599957,23.5266726 C30.0757506,23.5266726 30.1878144,23.5113998 30.3201057,23.5174793 L32.0339875,25.4553363 L32.0339875,24.0145102 C32.0326587,23.703421 31.8249199,23.6656099 31.7110844,23.6630891 L31.6083224,23.6630891 L31.6083224,23.5113998 L31.6261876,23.5113998 C31.8094171,23.5113998 31.9893983,23.5266726 32.1711512,23.5266726 C32.3307572,23.5266726 32.4899203,23.5113998 32.6520362,23.5113998 L32.668425,23.5113998 L32.668425,23.6630891 L32.5931252,23.6630891 C32.4323381,23.667241 32.2663833,23.6820688 32.2631351,24.1435128 L32.2631351,25.9258252 C32.2631351,26.0629832 32.2662356,26.1996964 32.2851344,26.3189126 L32.2885303,26.3381889 L32.2697792,26.3381889 Z M32.1212467,26.3040847 L32.2491086,26.3040847 C32.2325722,26.186203 32.2287334,26.0561624 32.2287334,25.9258252 L32.2287334,24.1435128 C32.2287334,23.672579 32.425694,23.6297264 32.5931252,23.6286884 L32.6353522,23.6286884 L32.6353522,23.5453557 C32.4804709,23.5465419 32.327066,23.5607767 32.1711512,23.5607767 C31.9935324,23.5607767 31.8191617,23.5465419 31.6425764,23.5453557 L31.6425764,23.6286884 L31.7110844,23.6286884 C31.831564,23.6297264 32.0670604,23.6832551 32.0670604,24.0145102 L32.0629263,25.4953716 L32.0553963,25.5029338 L32.042994,25.5158341 L30.3071128,23.5453557 C30.1916532,23.5453557 30.078113,23.5607767 29.9599957,23.5607767 C29.8161879,23.5607767 29.6697225,23.5465419 29.5278341,23.5453557 L29.5278341,23.6286884 L29.5620881,23.6286884 C29.7454652,23.6297264 29.9338622,23.7686637 29.9338622,23.9980512 L29.9338622,25.6483954 C29.9338622,25.961857 29.8467507,26.1620335 29.5660745,26.1630715 L29.5278341,26.1627749 L29.5278341,26.2459594 C29.6971847,26.2447732 29.8708171,26.2303901 30.0422348,26.2303901 C30.2049414,26.2303901 30.3666144,26.2447732 30.5282875,26.2459594 L30.5282875,26.1630715 L30.47794,26.1630715 C30.1718686,26.1627749 30.0950923,26.0281377 30.0950923,25.6870962 L30.0950923,24.0288932 L32.1212467,26.3040847 Z" id="Fill-36" fill="#1A1919"></path>
                <path d="M33.2785008,25.7028138 C33.2402603,25.8355234 33.193161,25.9384289 33.193161,26.0079718 C33.193161,26.1258535 33.3574917,26.145278 33.4853537,26.145278 L33.5289094,26.145278 L33.5289094,26.2628632 C33.3726993,26.2544113 33.2126504,26.2477387 33.0564403,26.2477387 C32.9160284,26.2477387 32.7757641,26.2544113 32.6359427,26.2628632 L32.6359427,26.145278 L32.6580897,26.145278 C32.8110516,26.145278 32.9402424,26.0549762 32.997234,25.8903866 L33.622665,24.0929497 C33.6730125,23.9476364 33.7435876,23.7519082 33.7660299,23.6065949 C33.8913818,23.5637423 34.0470014,23.4858959 34.1221535,23.4382983 C34.1330793,23.4342948 34.1409046,23.4302913 34.1530116,23.4302913 C34.1643804,23.4302913 34.1717627,23.4302913 34.1797356,23.4425984 C34.1915474,23.4735887 34.2032115,23.5088791 34.2150232,23.5401659 L34.9327333,25.5892321 C34.979242,25.7259453 35.0263413,25.8708138 35.0772794,25.9889921 C35.1240833,26.0988667 35.2058796,26.145278 35.3344797,26.145278 L35.3585461,26.145278 L35.3585461,26.2628632 C35.182699,26.2544113 35.0069996,26.2477387 34.819636,26.2477387 C34.6288766,26.2477387 34.4335402,26.2544113 34.2343649,26.2628632 L34.2343649,26.145278 L34.2776253,26.145278 C34.3668039,26.145278 34.5197658,26.1297087 34.5197658,26.0316964 C34.5197658,25.9811333 34.4847735,25.8752621 34.4412178,25.7493733 L34.2891418,25.2951951 L33.4038527,25.2951951 L33.2785008,25.7028138 Z M33.8488596,23.9673575 L33.8410343,23.9673575 L33.4773807,25.0760388 L34.2079361,25.0760388 L33.8488596,23.9673575 L33.8488596,23.9673575 Z" id="Fill-37" fill="#1A1919"></path>
                <path d="M35.3567744,26.2796187 C35.1809273,26.2726496 35.0058184,26.2639011 34.8197837,26.2639011 C34.6294672,26.2639011 34.4339831,26.2726496 34.2352508,26.2796187 L34.2179761,26.2805084 L34.2179761,26.1282259 L34.2773301,26.1282259 C34.3679851,26.1282259 34.5023435,26.1071703 34.5024911,26.0316964 C34.5035247,25.9870644 34.4682371,25.8801553 34.4243861,25.7551562 L34.2764442,25.3119506 L33.4153692,25.3119506 L33.2948895,25.7078553 C33.2556155,25.8420477 33.2095498,25.9445084 33.2099927,26.0079718 C33.2099927,26.1039082 33.3563105,26.1282259 33.485206,26.1282259 L33.5448552,26.1282259 L33.5448552,26.2805084 L33.5272853,26.2796187 C33.3715181,26.2726496 33.2117645,26.2639011 33.0564403,26.2639011 C32.9166189,26.2639011 32.77665,26.2726496 32.6359427,26.2796187 L32.6189634,26.2805084 L32.6189634,26.1282259 L32.6580897,26.1282259 C32.8035216,26.1274846 32.9251824,26.0438553 32.9823217,25.8849003 L33.6061286,24.0868703 C33.6561808,23.9418535 33.7266082,23.747015 33.7608622,23.5910256 C33.8834089,23.5483213 34.040062,23.4697335 34.1159523,23.4224325 C34.1259923,23.4185772 34.1369181,23.4138323 34.152864,23.4138323 C34.1629039,23.4129426 34.1834268,23.4154634 34.1953862,23.4368155 C34.2071979,23.4676575 34.2187144,23.5032445 34.231412,23.5348279 L34.9486792,25.5835975 C34.9956308,25.7207555 35.0421395,25.8654757 35.0927823,25.9823195 C35.1387003,26.0859665 35.2092754,26.127188 35.3340368,26.1282259 L35.3743443,26.1282259 L35.3743443,26.2805084 L35.3567744,26.2796187 Z M34.251049,26.2450697 C34.4440231,26.2379523 34.633749,26.2303901 34.8197837,26.2303901 C35.0010937,26.2303901 35.1707397,26.2379523 35.3409762,26.2447732 L35.3405333,26.1627749 L35.3340368,26.1627749 C35.2018931,26.1630715 35.1099093,26.1108773 35.0611859,25.995368 C35.0098049,25.8770415 34.9634438,25.7315799 34.9166399,25.5948667 L34.1989297,23.545504 C34.1874133,23.5142171 34.175011,23.4792233 34.1658569,23.4520883 C34.1626086,23.4474916 34.1629039,23.4474916 34.1605416,23.4474916 L34.152864,23.4474916 C34.1444481,23.4474916 34.1401664,23.4501606 34.1308646,23.4528297 C34.0545313,23.5007237 33.8984689,23.5793116 33.7833045,23.6091156 C33.7590905,23.7575428 33.6882201,23.9529744 33.6380203,24.098436 L33.0133275,25.8960212 C32.9539735,26.0662454 32.8176957,26.1630715 32.6580897,26.1627749 L32.6523315,26.1627749 L32.6523315,26.2447732 C32.7866899,26.2379523 32.920753,26.2303901 33.0564403,26.2303901 C33.2074828,26.2303901 33.3617735,26.2379523 33.5116348,26.2447732 L33.5116348,26.1627749 L33.485206,26.1627749 C33.3583776,26.1609956 33.1806111,26.1475022 33.1755911,26.0079718 C33.1766246,25.9305702 33.2246098,25.8306302 33.2628502,25.6979206 L33.2785008,25.7028138 L33.2628502,25.6974757 L33.3911551,25.2788844 L34.3003629,25.2788844 L34.457016,25.7440353 C34.4999811,25.8700724 34.535564,25.9744607 34.535564,26.0316964 C34.5299534,26.151654 34.365918,26.1605508 34.2773301,26.1627749 L34.251049,26.1627749 L34.251049,26.2450697 Z M33.4540526,25.0927944 L33.828632,23.9500088 L33.8488596,23.9500088 L33.8488596,23.9673575 L33.8444302,23.9685437 L33.8488596,23.9673575 L33.8488596,23.9500088 L33.8606713,23.9500088 L34.2294926,25.0927944 L33.4540526,25.0927944 Z M33.5011519,25.0586902 L34.1835745,25.0586902 L33.8442826,24.0096169 L33.5011519,25.0586902 Z" id="Fill-38" fill="#1A1919"></path>
                <path d="M36.3409867,25.8786726 C36.3409867,26.0361447 36.4493593,26.082556 36.5745636,26.0988667 C36.7341696,26.1105808 36.909869,26.1105808 37.0898502,26.0905631 C37.2534427,26.070842 37.3938546,25.9774263 37.4638391,25.8786726 C37.5258507,25.7926708 37.5609905,25.6829444 37.5849093,25.5969426 L37.6977113,25.5969426 C37.6547461,25.8202507 37.6002645,26.0398517 37.5534606,26.2628632 C37.2109204,26.2628632 36.8666086,26.2477387 36.5239208,26.2477387 C36.1803471,26.2477387 35.8373641,26.2628632 35.4942334,26.2628632 L35.4942334,26.1451297 L35.548272,26.1451297 C35.6889792,26.1451297 35.8416458,26.1258535 35.8416458,25.8829726 L35.8416458,23.8697899 C35.8416458,23.6656099 35.6889792,23.6460371 35.548272,23.6460371 L35.4942334,23.6460371 L35.4942334,23.5284519 C35.7006433,23.5284519 35.9038051,23.5440212 36.110215,23.5440212 C36.3095379,23.5440212 36.5041361,23.5284519 36.7036067,23.5284519 L36.7036067,23.6460371 L36.6055694,23.6460371 C36.4573322,23.6460371 36.3409867,23.6501889 36.3409867,23.8577793 L36.3409867,25.8786726" id="Fill-39" fill="#1A1919"></path>
                <path d="M37.5536082,26.2796187 C37.2095916,26.2796187 36.866018,26.2639011 36.5239208,26.2639011 C36.1807901,26.2639011 35.8375117,26.2796187 35.4934951,26.2796187 L35.4771064,26.2796187 L35.4771064,26.1282259 L35.548272,26.1282259 C35.6892745,26.1248155 35.82319,26.1148808 35.8248141,25.8829726 L35.8248141,23.8690485 C35.82319,23.6783619 35.6898651,23.6656099 35.548272,23.6630891 L35.4771064,23.6630891 L35.4771064,23.5113998 L35.4934951,23.5113998 C35.7012339,23.5113998 35.904248,23.5266726 36.1099197,23.5266726 C36.3085044,23.5266726 36.5028073,23.5113998 36.7036067,23.5113998 L36.7192573,23.5113998 L36.7192573,23.6630891 L36.6055694,23.6630891 C36.4542316,23.6669444 36.3603284,23.6601236 36.3569325,23.8577793 L36.3569325,25.8786726 C36.357966,26.0251721 36.4534934,26.0643177 36.5754495,26.0818147 C36.6441051,26.0865596 36.7167473,26.0890803 36.7917517,26.0890803 C36.8871314,26.0890803 36.9862023,26.084632 37.0870449,26.0739559 C37.2459127,26.0549762 37.3826334,25.9627467 37.4501079,25.869331 C37.5103478,25.7855534 37.5443065,25.6781995 37.5679299,25.5929391 L37.5711782,25.5800388 L37.7182342,25.5800388 L37.7148383,25.6006496 C37.670692,25.8245508 37.6169486,26.0431139 37.5697017,26.2664219 L37.5666011,26.2796187 L37.5536082,26.2796187 Z M37.5392865,26.2458111 C37.5844664,26.0330309 37.6354044,25.8249956 37.6776314,25.6136981 L37.597164,25.6136981 C37.5732452,25.6989585 37.5384006,25.8040883 37.4772749,25.8893486 C37.4043375,25.9907714 37.2599391,26.0865596 37.0907361,26.1076152 C36.9887123,26.1179947 36.8872791,26.1233327 36.7917517,26.1233327 C36.7161567,26.1233327 36.6432193,26.1199223 36.5722012,26.1148808 C36.4453728,26.1009426 36.3226785,26.0462277 36.3228261,25.8786726 L36.3228261,23.8577793 C36.3228261,23.6399576 36.4599898,23.6286884 36.6055694,23.6286884 L36.6858891,23.6286884 L36.6858891,23.5453557 C36.4938009,23.5465419 36.304075,23.5612215 36.1099197,23.5612215 C35.9083821,23.5612215 35.7106833,23.5465419 35.5110651,23.5453557 L35.5110651,23.6286884 L35.548272,23.6286884 C35.6873551,23.6286884 35.8575917,23.6531545 35.8575917,23.8690485 L35.8575917,25.8829726 C35.8575917,26.1365296 35.6880934,26.1627749 35.548272,26.1627749 L35.5110651,26.1627749 L35.5110651,26.2458111 C35.8479946,26.2450697 36.1852195,26.2303901 36.5239208,26.2303901 C36.863065,26.2303901 37.2016187,26.2450697 37.5392865,26.2458111 L37.5392865,26.2458111 Z" id="Fill-40" fill="#1A1919"></path>
                <path d="M37.7393842,23.417391 C38.0258687,23.417391 38.2395639,23.6374557 38.2395639,23.9186495 C38.2395639,24.1996636 38.0258687,24.417391 37.7393842,24.417391 C37.4536185,24.417391 37.2395639,24.1996636 37.2395639,23.9186495 C37.2395639,23.6374557 37.4536185,23.417391 37.7393842,23.417391 L37.7393842,23.417391 Z M37.7393842,24.3244388 C37.9636832,24.3244388 38.1349629,24.1336801 38.1349629,23.9186495 C38.1349629,23.7032594 37.9656602,23.5110623 37.7393842,23.5110623 C37.5143662,23.5110623 37.3432663,23.7032594 37.3432663,23.9186495 C37.3432663,24.1336801 37.5143662,24.3244388 37.7393842,24.3244388 L37.7393842,24.3244388 Z M37.490822,24.1824036 L37.490822,24.1581317 C37.5519291,24.149322 37.5634316,24.1509401 37.5634316,24.1135435 L37.5634316,23.7428135 C37.5634316,23.690674 37.5582195,23.6726948 37.492799,23.6755715 L37.492799,23.6500411 L37.74873,23.6500411 C37.8366164,23.6500411 37.9176732,23.6921123 37.9176732,23.7830868 C37.9176732,23.8573407 37.8687875,23.9125366 37.7994129,23.9339318 L37.8817278,24.0486387 C37.9200096,24.1004187 37.9636832,24.149322 37.9917206,24.1665819 L37.9917206,24.1824036 L37.8944884,24.1824036 C37.8477594,24.1824036 37.8064223,24.0842375 37.7147616,23.9524503 L37.6594057,23.9524503 L37.6594057,24.118218 C37.6594057,24.1509401 37.6709082,24.149322 37.7323748,24.1581317 L37.7323748,24.1824036 L37.490822,24.1824036 Z M37.6594057,23.9186495 L37.7183561,23.9186495 C37.7828781,23.9186495 37.8127127,23.8699261 37.8127127,23.7909976 C37.8127127,23.7115298 37.7667026,23.6833025 37.715121,23.6833025 L37.6594057,23.6833025 L37.6594057,23.9186495 L37.6594057,23.9186495 Z" id="Fill-41" fill="#1A1919"></path>
                <path d="M13.2875934,9.69892321 C13.2875934,6.03480318 16.2452502,3.06448014 19.8935978,3.06448014 C23.5420931,3.06448014 26.4997498,6.03480318 26.4997498,9.69892321 C26.4997498,13.3630432 23.5420931,16.3335146 19.8935978,16.3335146 C16.2452502,16.3335146 13.2875934,13.3630432 13.2875934,9.69892321" id="Fill-42" fill="#FFFFFE"></path>
                <path d="M23.8887673,9.5682895 C23.8861096,7.8693098 22.8286647,6.42032833 21.3386151,5.84648897 L21.3386151,13.2897935 C22.8286647,12.7152127 23.8861096,11.2675658 23.8887673,9.5682895 Z M18.4961227,13.2883107 L18.4961227,5.84723036 C17.007402,6.42284907 15.9515811,7.86975463 15.9475946,9.5682895 C15.9515811,11.2663795 17.007402,12.7131368 18.4961227,13.2883107 Z M19.9181071,3.27696381 C16.4584519,3.27829832 13.6555287,6.09381818 13.6549382,9.5682895 C13.6555287,13.042316 16.4584519,15.857391 19.9181071,15.8579841 C23.3777624,15.857391 26.1812761,13.042316 26.182162,9.5682895 C26.1812761,6.09381818 23.3777624,3.27829832 19.9181071,3.27696381 Z M19.9027519,16.4517721 C16.1169453,16.4697829 13.0010113,13.3895852 13.0010113,9.64005649 C13.0010113,5.54222065 16.1169453,2.70786937 19.9027519,2.70861062 L21.6768735,2.70861062 C25.4179432,2.70786937 28.8322709,5.54088614 28.8322709,9.64005649 C28.8322709,13.3882507 25.4179432,16.4517721 21.6768735,16.4517721 L19.9027519,16.4517721 L19.9027519,16.4517721 Z" id="Fill-43" fill="#0167AA"></path>
            </g>
            <rect id="Rectangle" fill="#A8A9AD" x="10" y="37" width="66" height="1"></rect>
            <g id="Group-27" transform="translate(0.000000, 45.757282)" fill-rule="nonzero">
                <path d="M8.82583333,3.98912621 C8.82583333,5.70407767 8.01,7.08349515 6.60083333,7.75456311 C6.0075,8.03417476 5.45125,8.18330097 4.02354167,8.18330097 L2.59583333,8.18330097 L2.59583333,12.9553398 L-1.70530257e-13,12.9553398 L-1.70530257e-13,-1.13686838e-13 L3.393125,-1.13686838e-13 C5.58104167,-1.13686838e-13 6.24854167,0.22368932 6.97166667,0.633786408 C8.176875,1.30485437 8.82583333,2.49786408 8.82583333,3.98912621 Z M5.98895833,4.04504854 C5.98895833,2.83339806 5.34,2.10640777 4.24604167,2.10640777 L2.59583333,2.10640777 L2.59583333,6.05825243 L3.949375,6.05825243 C5.00625,6.05825243 5.32145833,5.92776699 5.67375,5.38718447 C5.89625,5.03300971 5.98895833,4.66019417 5.98895833,4.04504854 Z M15.8469444,3.39262136 L15.1609028,5.59223301 C14.9198611,5.46174757 14.7159028,5.40582524 14.4377778,5.40582524 C13.8815278,5.40582524 13.3809028,5.66679612 12.9173611,6.20737864 L12.9173611,12.9553398 L10.4327778,12.9553398 L10.4327778,6.58019417 C10.4327778,5.29398058 10.2844444,4.32466019 10.0804861,3.78407767 L12.3054861,3.18757282 C12.5279861,3.57902913 12.6577778,4.00776699 12.6948611,4.54834951 C13.2325694,3.82135922 13.9927778,3.18757282 14.9198611,3.18757282 C15.2906944,3.18757282 15.4575694,3.22485437 15.8469444,3.39262136 Z M24.3699306,8.14601942 C24.3699306,9.78640777 23.9990972,10.9048544 23.1832639,11.8368932 C22.4601389,12.6570874 21.5145139,13.1603883 20.0497222,13.1603883 C17.4724306,13.1603883 15.7851389,11.2217476 15.7851389,8.22058252 C15.7851389,5.21941748 17.4909722,3.22485437 20.0497222,3.22485437 C21.4032639,3.22485437 22.4601389,3.69087379 23.2759722,4.66019417 C24.0361806,5.55495146 24.3699306,6.59883495 24.3699306,8.14601942 Z M21.6628472,8.12737864 C21.6628472,6.84116505 21.4959722,6.0023301 21.1622222,5.57359223 C20.9211806,5.25669903 20.5318056,5.07029126 20.0868056,5.07029126 C19.4934722,5.07029126 19.0113889,5.4431068 18.8074306,6.03961165 C18.6405556,6.54291262 18.5478472,7.21398058 18.5478472,8.16466019 C18.5478472,9.26446602 18.6590972,10.0846602 18.8630556,10.5693204 C19.0855556,11.0912621 19.6418056,11.352233 20.1238889,11.352233 C21.1993056,11.352233 21.6628472,10.3829126 21.6628472,8.12737864 Z M31.0016667,12.7502913 C30.2785417,13.0485437 29.6295833,13.1790291 28.980625,13.1790291 C27.7197917,13.1790291 26.7185417,12.6198058 26.421875,11.7809709 C26.2735417,11.3708738 26.255,11.184466 26.255,10.3083495 L26.255,5.12621359 L25.309375,5.12621359 L25.309375,3.41126214 L26.255,3.41126214 C26.255,2.4792233 26.255,1.86407767 26.3477083,1.15572816 L28.869375,0.521941748 C28.7766667,1.39805825 28.7210417,2.44194175 28.7210417,3.41126214 L30.9460417,3.41126214 L30.315625,5.12621359 L28.7210417,5.12621359 L28.7210417,9.9168932 C28.7210417,11.1285437 28.9435417,11.4454369 29.7964583,11.4454369 C30.0189583,11.4454369 30.2414583,11.3895146 30.6864583,11.2590291 L31.0016667,12.7502913 Z M39.7656944,8.96621359 L34.2773611,8.96621359 L34.2773611,9.0407767 C34.2773611,10.5133981 35.0004861,11.352233 36.2798611,11.352233 C37.1327778,11.352233 37.9300694,11.0353398 38.6902778,10.4015534 L39.6544444,11.8928155 C38.5604861,12.7875728 37.4109028,13.2163107 36.0759028,13.2163107 C33.3502778,13.2163107 31.5888194,11.2776699 31.5888194,8.27650485 C31.5888194,6.5615534 31.9411111,5.42446602 32.7754861,4.49242718 C33.5542361,3.61631068 34.4998611,3.20621359 35.7606944,3.20621359 C36.8546528,3.20621359 37.8929861,3.57902913 38.5048611,4.21281553 C39.3763194,5.10757282 39.7656944,6.39378641 39.7656944,8.38834951 L39.7656944,8.96621359 Z M37.1884028,7.13941748 L37.1884028,7.02757282 C37.1884028,6.3192233 37.1142361,5.94640777 36.8917361,5.59223301 C36.6506944,5.21941748 36.2984028,5.03300971 35.7977778,5.03300971 C34.8521528,5.03300971 34.3144444,5.77864078 34.3144444,7.10213592 L34.3144444,7.13941748 L37.1884028,7.13941748 Z M48.2330556,11.8741748 C47.8622222,12.2469903 47.6953472,12.3774757 47.3615972,12.5825243 C46.6940972,12.9739806 45.9524306,13.1790291 45.0438889,13.1790291 C42.4295139,13.1790291 40.9090972,11.352233 40.9090972,8.25786408 C40.9090972,6.05825243 41.7434722,4.60427184 42.8559722,3.84 C43.4863889,3.41126214 44.4134722,3.13165049 45.2107639,3.13165049 C45.8411806,3.13165049 46.5272222,3.2807767 47.0463889,3.56038835 C47.3986806,3.74679612 47.5655556,3.87728155 47.9734722,4.23145631 L46.7682639,5.87184466 C46.2676389,5.40582524 45.7299306,5.12621359 45.2663889,5.12621359 C44.1538889,5.12621359 43.6532639,6.09553398 43.6532639,8.33242718 C43.6532639,9.58135922 43.8201389,10.3269903 44.1353472,10.7370874 C44.3949306,11.0726214 44.8213889,11.2776699 45.2478472,11.2776699 C45.8226389,11.2776699 46.3418056,11.0353398 46.9536806,10.4947573 L47.1020139,10.3642718 L48.2330556,11.8741748 Z M54.5866667,12.7502913 C53.8635417,13.0485437 53.2145833,13.1790291 52.565625,13.1790291 C51.3047917,13.1790291 50.3035417,12.6198058 50.006875,11.7809709 C49.8585417,11.3708738 49.84,11.184466 49.84,10.3083495 L49.84,5.12621359 L48.894375,5.12621359 L48.894375,3.41126214 L49.84,3.41126214 C49.84,2.4792233 49.84,1.86407767 49.9327083,1.15572816 L52.454375,0.521941748 C52.3616667,1.39805825 52.3060417,2.44194175 52.3060417,3.41126214 L54.5310417,3.41126214 L53.900625,5.12621359 L52.3060417,5.12621359 L52.3060417,9.9168932 C52.3060417,11.1285437 52.5285417,11.4454369 53.3814583,11.4454369 C53.6039583,11.4454369 53.8264583,11.3895146 54.2714583,11.2590291 L54.5866667,12.7502913 Z" id="Protect" fill="#106AAC"></path>
                <path d="M65.3284722,9.33902913 C65.3284722,11.1285437 64.2159722,12.8062136 61.9538889,12.9180583 C61.5459722,12.936699 61.0082639,12.9553398 60.3036806,12.9553398 L56.2430556,12.9553398 L56.2430556,0 L60.6003472,0 C62.1763889,0 62.9922222,0.242330097 63.7709722,0.932038835 C64.4940972,1.56582524 64.8278472,2.31145631 64.8278472,3.24349515 C64.8278472,4.11961165 64.5311806,4.86524272 63.9563889,5.40582524 C63.5855556,5.76 63.3630556,5.89048544 62.7697222,6.0768932 C64.3643056,6.54291262 65.3284722,7.64271845 65.3284722,9.33902913 Z M62.3988889,9.02213592 C62.3988889,8.27650485 62.0280556,7.60543689 61.4532639,7.4376699 C61.1380556,7.34446602 60.9340972,7.32582524 60.4520139,7.32582524 L58.8388889,7.32582524 L58.8388889,10.8302913 L60.5261806,10.8302913 C61.0638889,10.8302913 61.4532639,10.7557282 61.7313889,10.5320388 C62.1207639,10.2337864 62.3988889,9.63728155 62.3988889,9.02213592 Z M62.1207639,3.69087379 C62.1207639,3.15029126 61.8426389,2.57242718 61.3790972,2.38601942 C61.1565972,2.29281553 60.8784722,2.21825243 60.3036806,2.21825243 L58.8018056,2.21825243 L58.8018056,5.18213592 L60.3407639,5.18213592 C60.9526389,5.18213592 61.2307639,5.12621359 61.4532639,5.01436893 C61.8055556,4.82796117 62.1207639,4.21281553 62.1207639,3.69087379 Z M75.1308333,12.2097087 L73.369375,13.2163107 C73.0541667,12.9926214 72.7945833,12.6757282 72.6277083,12.2842718 C72.0158333,12.8807767 71.1258333,13.1976699 70.1245833,13.1976699 C68.7895833,13.1976699 67.64,12.5638835 67.3247917,11.6504854 C67.1764583,11.2217476 67.1208333,10.7184466 67.1208333,9.74912621 L67.1208333,3.63495146 L69.5683333,3.16893204 L69.5683333,9.30174757 C69.5683333,10.1592233 69.6425,10.6066019 69.7722917,10.8675728 C69.9020833,11.1285437 70.2729167,11.3149515 70.64375,11.3149515 C71.255625,11.3149515 71.9972917,10.8675728 72.1827083,10.4015534 L72.1827083,3.69087379 L74.5560417,3.18757282 L74.5560417,10.4761165 C74.5560417,11.1099029 74.76,11.7623301 75.1308333,12.2097087 Z M85.0073611,3.41126214 L81.5586111,13.104466 C80.9096528,14.9499029 80.4275694,15.7514563 79.7415278,16.2547573 C79.1111111,16.7207767 78.2952778,17.0190291 77.4423611,17.1308738 L76.5894444,15.4904854 C77.1271528,15.3413592 77.7575694,15.1176699 78.1284028,14.856699 C78.4065278,14.6516505 78.6290278,14.3906796 78.8329861,14.0737864 C79.0740278,13.6823301 79.1481944,13.5145631 79.3706944,12.9553398 L78.7402778,12.9553398 C78.4436111,12.0605825 77.9429861,10.5693204 77.8502778,10.271068 L75.6067361,3.56038835 L78.1469444,3.26213592 L79.7971528,8.83572816 C79.9454861,9.39495146 80.2606944,10.681165 80.2977778,10.8116505 C80.2977778,10.7557282 80.4831944,9.74912621 80.5944444,9.2831068 C80.6686111,8.96621359 80.8169444,8.40699029 80.9652778,7.95961165 L82.3929861,3.41126214 L85.0073611,3.41126214 Z" id="Buy" fill="#A8A9AD"></path>
                <g id="R">
                    <use fill="#106AAC" xlink:href="#path-1"></use>
                    <use fill="#A8A9AD" xlink:href="#path-1"></use>
                </g>
                <path d="M87.1612847,6.74174757 C88.099977,6.74174757 88.8609375,5.97671957 88.8609375,5.03300971 C88.8609375,4.08929985 88.099977,3.32427184 87.1612847,3.32427184 C86.2225924,3.32427184 85.4616319,4.08929985 85.4616319,5.03300971 C85.4616319,5.97671957 86.2225924,6.74174757 87.1612847,6.74174757 Z M87.1612847,6.35339806 C86.4359316,6.35339806 85.8479167,5.76224006 85.8479167,5.03300971 C85.8479167,4.30377936 86.4359316,3.71262136 87.1612847,3.71262136 C87.8866379,3.71262136 88.4746528,4.30377936 88.4746528,5.03300971 C88.4746528,5.76224006 87.8866379,6.35339806 87.1612847,6.35339806 Z" id="Oval" fill="#A8A9AD"></path>
            </g>
        </g>
    </g>
</svg>