<?xml version="1.0" encoding="UTF-8"?>
<svg width="90px" height="80px" viewBox="0 0 90 80" version="1.1" xmlns="http://www.w3.org/2000/svg" xmlns:xlink="http://www.w3.org/1999/xlink">
    <!-- Generator: Sketch 55.2 (78181) - https://sketchapp.com -->
    <title>datatrans_security-logos-discover-protectbuy</title>
    <desc>Created with Sketch.</desc>
    <defs>
        <linearGradient x1="50%" y1="0%" x2="50%" y2="100%" id="linearGradient-1">
            <stop stop-color="#E22E1E" offset="0%"></stop>
            <stop stop-color="#F5AA14" offset="100%"></stop>
        </linearGradient>
        <radialGradient cx="50%" cy="57.1511009%" fx="50%" fy="57.1511009%" r="59.5769709%" gradientTransform="translate(0.500000,0.571511),rotate(90.000000),scale(1.000000,0.979703),translate(-0.500000,-0.571511)" id="radialGradient-2">
            <stop stop-color="#88281B" stop-opacity="0" offset="0%"></stop>
            <stop stop-color="#89281B" stop-opacity="0.0904771959" offset="76.2061867%"></stop>
            <stop stop-color="#791A10" offset="100%"></stop>
        </radialGradient>
        <path d="M87.9078958,5.96504854 L87.4489896,5.96504854 C87.3738958,5.83642718 87.3433021,5.78330097 87.2682083,5.64629126 C87.0763021,5.2967767 87.0178958,5.20170874 86.9483646,5.17095146 C86.9288958,5.16256311 86.9122083,5.15697087 86.8871771,5.15417476 L86.8871771,5.96504854 L86.5061458,5.96504854 L86.5061458,4.02174757 L87.2264896,4.02174757 C87.5685833,4.02174757 87.7938646,4.25102913 87.7938646,4.59215534 C87.7938646,4.88295146 87.6019583,5.12341748 87.3627708,5.12900971 C87.4017083,5.15976699 87.4183958,5.17654369 87.4434271,5.21009709 C87.5546771,5.34990291 87.9078958,5.96504854 87.9078958,5.96504854 Z M87.3850208,4.60054369 C87.3850208,4.48031068 87.3377396,4.39642718 87.2459583,4.36287379 C87.2014583,4.34609709 87.1208021,4.33491262 87.0262396,4.33491262 L86.8871771,4.33491262 L86.8871771,4.86058252 L87.0178958,4.86058252 C87.1847708,4.86058252 87.2570833,4.84380583 87.3099271,4.79627184 C87.3572083,4.75153398 87.3850208,4.68163107 87.3850208,4.60054369 Z" id="path-3"></path>
    </defs>
    <g id="datatrans_security-logos-discover-protectbuy" stroke="none" stroke-width="1" fill="none" fill-rule="evenodd">
        <g id="Group-31" transform="translate(0.000000, 8.000000)">
            <g id="Group-26" transform="translate(22.000000, 0.000000)">
                <g id="Group-25" transform="translate(2.600000, 6.200000)">
                    <g id="Group-24" transform="translate(20.409423, 5.223214) rotate(-45.000000) translate(-20.409423, -5.223214) translate(16.909423, 1.723214)">
                        <circle id="Oval" fill="url(#linearGradient-1)" cx="3.29464286" cy="3.29464286" r="3.29464286"></circle>
                        <circle id="Oval" fill="url(#radialGradient-2)" cx="3.29464286" cy="3.29464286" r="3.29464286"></circle>
                    </g>
                    <path d="M7.41364706,20.3571429 L39.9136471,20.3571429 L39.9136471,8.92857143 C39.9136471,8.92857143 28.4356433,16.8236693 7.41364706,20.3571429 Z" id="Fill-1" fill="#F58120"></path>
                    <path d="M1.74376471,2.105375 L0,2.105375 L0,8.11416071 L1.73458824,8.11416071 C2.65694118,8.11416071 3.32282353,7.89942857 3.90752941,7.42051786 C4.60235294,6.85316071 5.01317647,5.99817857 5.01317647,5.11394643 C5.01317647,3.34060714 3.67035294,2.105375 1.74376471,2.105375 L1.74376471,2.105375 Z M3.13152941,6.61916071 C2.75811765,6.95182143 2.27341176,7.09691071 1.50588235,7.09691071 L1.18705882,7.09691071 L1.18705882,3.12355357 L1.50588235,3.12355357 C2.27341176,3.12355357 2.73905882,3.25889286 3.13152941,3.60942857 C3.54235294,3.97041071 3.78941176,4.52964286 3.78941176,5.105125 C3.78941176,5.682 3.54235294,6.25841071 3.13152941,6.61916071 L3.13152941,6.61916071 Z" id="Fill-2" fill="#1A1919"></path>
                    <polygon id="Fill-3" fill="#1A1919" points="5.55976471 2.105375 6.74776471 2.105375 6.74776471 8.11416071 5.55976471 8.11416071"></polygon>
                    <path d="M9.65247059,4.41125 C8.93952941,4.15101786 8.73035294,3.97923214 8.73035294,3.65469643 C8.73035294,3.27607143 9.10329412,2.98867857 9.61529412,2.98867857 C9.97129412,2.98867857 10.2637647,3.13283929 10.5731765,3.47525 L11.1948235,2.67226786 C10.684,2.23142857 10.0729412,2.00601786 9.40517647,2.00601786 C8.32752941,2.00601786 7.50564706,2.74423214 7.50564706,3.72782143 C7.50564706,4.55564286 7.88847059,4.97930357 9.004,5.37557143 C9.46917647,5.537375 9.70588235,5.64508929 9.82541176,5.71775 C10.0625882,5.87073214 10.1814118,6.08708929 10.1814118,6.33942857 C10.1814118,6.82623214 9.78917647,7.18698214 9.25905882,7.18698214 C8.69247059,7.18698214 8.23623529,6.90748214 7.96258824,6.385625 L7.19505882,7.11478571 C7.74235294,7.90732143 8.39976471,8.25855357 9.30376471,8.25855357 C10.5381176,8.25855357 11.4042353,7.44883929 11.4042353,6.28557143 C11.4042353,5.331 11.0037647,4.89875 9.65247059,4.41125" id="Fill-4" fill="#1A1919"></path>
                    <path d="M11.7790588,5.11394643 C11.7790588,6.88008929 13.1847059,8.2495 14.9936471,8.2495 C15.5049412,8.2495 15.9428235,8.150375 16.4830588,7.89942857 L16.4830588,6.51980357 C16.008,6.98873214 15.5875294,7.17792857 15.0489412,7.17792857 C13.8524706,7.17792857 13.0032941,6.32201786 13.0032941,5.105125 C13.0032941,3.95160714 13.8792941,3.04160714 14.9936471,3.04160714 C15.5602353,3.04160714 15.9891765,3.24101786 16.4830588,3.71760714 L16.4830588,2.33867857 C15.9616471,2.07775 15.5327059,1.96957143 15.0216471,1.96957143 C13.2218824,1.96957143 11.7790588,3.36683929 11.7790588,5.11394643" id="Fill-5" fill="#1A1919"></path>
                    <polyline id="Fill-6" fill="#1A1919" points="25.9021176 6.14141071 24.2781176 2.105375 22.9802353 2.105375 25.5649412 8.26830357 26.204 8.26830357 28.8350588 2.105375 27.5472941 2.105375 25.9021176 6.14141071"></polyline>
                    <polyline id="Fill-7" fill="#1A1919" points="29.3722353 8.11416071 32.7414118 8.11416071 32.7414118 7.09691071 30.5592941 7.09691071 30.5592941 5.47492857 32.6609412 5.47492857 32.6609412 4.45721429 30.5592941 4.45721429 30.5592941 3.12355357 32.7414118 3.12355357 32.7414118 2.105375 29.3722353 2.105375 29.3722353 8.11416071"></polyline>
                    <path d="M37.4449412,3.87941071 C37.4449412,2.75444643 36.6595294,2.105375 35.2896471,2.105375 L33.528,2.105375 L33.528,8.11416071 L34.7145882,8.11416071 L34.7145882,5.70033929 L34.8696471,5.70033929 L36.5138824,8.11416071 L37.9748235,8.11416071 L36.0574118,5.58264286 C36.9522353,5.40319643 37.4449412,4.79939286 37.4449412,3.87941071 L37.4449412,3.87941071 Z M35.0616471,4.87182143 L34.7145882,4.87182143 L34.7145882,3.05182143 L35.0804706,3.05182143 C35.8202353,3.05182143 36.2225882,3.35778571 36.2225882,3.94232143 C36.2225882,4.54658929 35.8202353,4.87182143 35.0616471,4.87182143 L35.0616471,4.87182143 Z" id="Fill-8" fill="#1A1919"></path>
                    <path d="M38.2605734,2.33125 C38.2605734,2.22608929 38.1758829,2.16828571 38.0268601,2.16828571 L37.8287059,2.16828571 L37.8287059,2.69641071 L37.9761,2.69641071 L37.9761,2.49166071 L38.1487385,2.69641071 L38.3287059,2.69641071 L38.1256657,2.47866071 C38.2127993,2.45869643 38.2605734,2.40460714 38.2605734,2.33125 L38.2605734,2.33125 Z M38.0008014,2.40344643 L37.9761,2.40344643 L37.9761,2.26532143 L38.0024301,2.26532143 C38.0754486,2.26532143 38.1131793,2.28783929 38.1131793,2.33310714 C38.1131793,2.38 38.0749057,2.40344643 38.0008014,2.40344643 L38.0008014,2.40344643 Z" id="Fill-9" fill="#1A1919"></path>
                    <path d="M38.0261176,1.97096429 C37.7663529,1.97096429 37.56,2.17571429 37.56,2.43130357 C37.56,2.68689286 37.7687059,2.891875 38.0261176,2.891875 C38.2795294,2.891875 38.4868235,2.68480357 38.4868235,2.43130357 C38.4868235,2.17919643 38.2795294,1.97096429 38.0261176,1.97096429 L38.0261176,1.97096429 Z M38.0244706,2.80969643 C37.82,2.80969643 37.6527059,2.641625 37.6527059,2.432 C37.6527059,2.22167857 37.8178824,2.05383929 38.0244706,2.05383929 C38.228,2.05383929 38.3938824,2.225625 38.3938824,2.432 C38.3938824,2.63976786 38.228,2.80969643 38.0244706,2.80969643 L38.0244706,2.80969643 Z" id="Fill-10" fill="#1A1919"></path>
                </g>
                <path d="M0,0 L43,0 L43,27 L0,27 L0,0 Z M0.5,0.5 L0.5,26.5 L42.5,26.5 L42.5,0.5 L0.5,0.5 Z" id="Rectangle" fill="#1A1919" fill-rule="nonzero"></path>
            </g>
            <g id="Group-32" transform="translate(0.000000, 36.000000)">
                <rect id="Rectangle" fill="#A8A9AD" x="11" y="0" width="66" height="1"></rect>
                <g id="Group-27" transform="translate(0.000000, 8.757282)" fill-rule="nonzero">
                    <path d="M8.82583333,3.98912621 C8.82583333,5.70407767 8.01,7.08349515 6.60083333,7.75456311 C6.0075,8.03417476 5.45125,8.18330097 4.02354167,8.18330097 L2.59583333,8.18330097 L2.59583333,12.9553398 L-1.70530257e-13,12.9553398 L-1.70530257e-13,-1.13686838e-13 L3.393125,-1.13686838e-13 C5.58104167,-1.13686838e-13 6.24854167,0.22368932 6.97166667,0.633786408 C8.176875,1.30485437 8.82583333,2.49786408 8.82583333,3.98912621 Z M5.98895833,4.04504854 C5.98895833,2.83339806 5.34,2.10640777 4.24604167,2.10640777 L2.59583333,2.10640777 L2.59583333,6.05825243 L3.949375,6.05825243 C5.00625,6.05825243 5.32145833,5.92776699 5.67375,5.38718447 C5.89625,5.03300971 5.98895833,4.66019417 5.98895833,4.04504854 Z M15.8469444,3.39262136 L15.1609028,5.59223301 C14.9198611,5.46174757 14.7159028,5.40582524 14.4377778,5.40582524 C13.8815278,5.40582524 13.3809028,5.66679612 12.9173611,6.20737864 L12.9173611,12.9553398 L10.4327778,12.9553398 L10.4327778,6.58019417 C10.4327778,5.29398058 10.2844444,4.32466019 10.0804861,3.78407767 L12.3054861,3.18757282 C12.5279861,3.57902913 12.6577778,4.00776699 12.6948611,4.54834951 C13.2325694,3.82135922 13.9927778,3.18757282 14.9198611,3.18757282 C15.2906944,3.18757282 15.4575694,3.22485437 15.8469444,3.39262136 Z M24.3699306,8.14601942 C24.3699306,9.78640777 23.9990972,10.9048544 23.1832639,11.8368932 C22.4601389,12.6570874 21.5145139,13.1603883 20.0497222,13.1603883 C17.4724306,13.1603883 15.7851389,11.2217476 15.7851389,8.22058252 C15.7851389,5.21941748 17.4909722,3.22485437 20.0497222,3.22485437 C21.4032639,3.22485437 22.4601389,3.69087379 23.2759722,4.66019417 C24.0361806,5.55495146 24.3699306,6.59883495 24.3699306,8.14601942 Z M21.6628472,8.12737864 C21.6628472,6.84116505 21.4959722,6.0023301 21.1622222,5.57359223 C20.9211806,5.25669903 20.5318056,5.07029126 20.0868056,5.07029126 C19.4934722,5.07029126 19.0113889,5.4431068 18.8074306,6.03961165 C18.6405556,6.54291262 18.5478472,7.21398058 18.5478472,8.16466019 C18.5478472,9.26446602 18.6590972,10.0846602 18.8630556,10.5693204 C19.0855556,11.0912621 19.6418056,11.352233 20.1238889,11.352233 C21.1993056,11.352233 21.6628472,10.3829126 21.6628472,8.12737864 Z M31.0016667,12.7502913 C30.2785417,13.0485437 29.6295833,13.1790291 28.980625,13.1790291 C27.7197917,13.1790291 26.7185417,12.6198058 26.421875,11.7809709 C26.2735417,11.3708738 26.255,11.184466 26.255,10.3083495 L26.255,5.12621359 L25.309375,5.12621359 L25.309375,3.41126214 L26.255,3.41126214 C26.255,2.4792233 26.255,1.86407767 26.3477083,1.15572816 L28.869375,0.521941748 C28.7766667,1.39805825 28.7210417,2.44194175 28.7210417,3.41126214 L30.9460417,3.41126214 L30.315625,5.12621359 L28.7210417,5.12621359 L28.7210417,9.9168932 C28.7210417,11.1285437 28.9435417,11.4454369 29.7964583,11.4454369 C30.0189583,11.4454369 30.2414583,11.3895146 30.6864583,11.2590291 L31.0016667,12.7502913 Z M39.7656944,8.96621359 L34.2773611,8.96621359 L34.2773611,9.0407767 C34.2773611,10.5133981 35.0004861,11.352233 36.2798611,11.352233 C37.1327778,11.352233 37.9300694,11.0353398 38.6902778,10.4015534 L39.6544444,11.8928155 C38.5604861,12.7875728 37.4109028,13.2163107 36.0759028,13.2163107 C33.3502778,13.2163107 31.5888194,11.2776699 31.5888194,8.27650485 C31.5888194,6.5615534 31.9411111,5.42446602 32.7754861,4.49242718 C33.5542361,3.61631068 34.4998611,3.20621359 35.7606944,3.20621359 C36.8546528,3.20621359 37.8929861,3.57902913 38.5048611,4.21281553 C39.3763194,5.10757282 39.7656944,6.39378641 39.7656944,8.38834951 L39.7656944,8.96621359 Z M37.1884028,7.13941748 L37.1884028,7.02757282 C37.1884028,6.3192233 37.1142361,5.94640777 36.8917361,5.59223301 C36.6506944,5.21941748 36.2984028,5.03300971 35.7977778,5.03300971 C34.8521528,5.03300971 34.3144444,5.77864078 34.3144444,7.10213592 L34.3144444,7.13941748 L37.1884028,7.13941748 Z M48.2330556,11.8741748 C47.8622222,12.2469903 47.6953472,12.3774757 47.3615972,12.5825243 C46.6940972,12.9739806 45.9524306,13.1790291 45.0438889,13.1790291 C42.4295139,13.1790291 40.9090972,11.352233 40.9090972,8.25786408 C40.9090972,6.05825243 41.7434722,4.60427184 42.8559722,3.84 C43.4863889,3.41126214 44.4134722,3.13165049 45.2107639,3.13165049 C45.8411806,3.13165049 46.5272222,3.2807767 47.0463889,3.56038835 C47.3986806,3.74679612 47.5655556,3.87728155 47.9734722,4.23145631 L46.7682639,5.87184466 C46.2676389,5.40582524 45.7299306,5.12621359 45.2663889,5.12621359 C44.1538889,5.12621359 43.6532639,6.09553398 43.6532639,8.33242718 C43.6532639,9.58135922 43.8201389,10.3269903 44.1353472,10.7370874 C44.3949306,11.0726214 44.8213889,11.2776699 45.2478472,11.2776699 C45.8226389,11.2776699 46.3418056,11.0353398 46.9536806,10.4947573 L47.1020139,10.3642718 L48.2330556,11.8741748 Z M54.5866667,12.7502913 C53.8635417,13.0485437 53.2145833,13.1790291 52.565625,13.1790291 C51.3047917,13.1790291 50.3035417,12.6198058 50.006875,11.7809709 C49.8585417,11.3708738 49.84,11.184466 49.84,10.3083495 L49.84,5.12621359 L48.894375,5.12621359 L48.894375,3.41126214 L49.84,3.41126214 C49.84,2.4792233 49.84,1.86407767 49.9327083,1.15572816 L52.454375,0.521941748 C52.3616667,1.39805825 52.3060417,2.44194175 52.3060417,3.41126214 L54.5310417,3.41126214 L53.900625,5.12621359 L52.3060417,5.12621359 L52.3060417,9.9168932 C52.3060417,11.1285437 52.5285417,11.4454369 53.3814583,11.4454369 C53.6039583,11.4454369 53.8264583,11.3895146 54.2714583,11.2590291 L54.5866667,12.7502913 Z" id="Protect" fill="#F58120"></path>
                    <path d="M65.3284722,9.33902913 C65.3284722,11.1285437 64.2159722,12.8062136 61.9538889,12.9180583 C61.5459722,12.936699 61.0082639,12.9553398 60.3036806,12.9553398 L56.2430556,12.9553398 L56.2430556,0 L60.6003472,0 C62.1763889,0 62.9922222,0.242330097 63.7709722,0.932038835 C64.4940972,1.56582524 64.8278472,2.31145631 64.8278472,3.24349515 C64.8278472,4.11961165 64.5311806,4.86524272 63.9563889,5.40582524 C63.5855556,5.76 63.3630556,5.89048544 62.7697222,6.0768932 C64.3643056,6.54291262 65.3284722,7.64271845 65.3284722,9.33902913 Z M62.3988889,9.02213592 C62.3988889,8.27650485 62.0280556,7.60543689 61.4532639,7.4376699 C61.1380556,7.34446602 60.9340972,7.32582524 60.4520139,7.32582524 L58.8388889,7.32582524 L58.8388889,10.8302913 L60.5261806,10.8302913 C61.0638889,10.8302913 61.4532639,10.7557282 61.7313889,10.5320388 C62.1207639,10.2337864 62.3988889,9.63728155 62.3988889,9.02213592 Z M62.1207639,3.69087379 C62.1207639,3.15029126 61.8426389,2.57242718 61.3790972,2.38601942 C61.1565972,2.29281553 60.8784722,2.21825243 60.3036806,2.21825243 L58.8018056,2.21825243 L58.8018056,5.18213592 L60.3407639,5.18213592 C60.9526389,5.18213592 61.2307639,5.12621359 61.4532639,5.01436893 C61.8055556,4.82796117 62.1207639,4.21281553 62.1207639,3.69087379 Z M75.1308333,12.2097087 L73.369375,13.2163107 C73.0541667,12.9926214 72.7945833,12.6757282 72.6277083,12.2842718 C72.0158333,12.8807767 71.1258333,13.1976699 70.1245833,13.1976699 C68.7895833,13.1976699 67.64,12.5638835 67.3247917,11.6504854 C67.1764583,11.2217476 67.1208333,10.7184466 67.1208333,9.74912621 L67.1208333,3.63495146 L69.5683333,3.16893204 L69.5683333,9.30174757 C69.5683333,10.1592233 69.6425,10.6066019 69.7722917,10.8675728 C69.9020833,11.1285437 70.2729167,11.3149515 70.64375,11.3149515 C71.255625,11.3149515 71.9972917,10.8675728 72.1827083,10.4015534 L72.1827083,3.69087379 L74.5560417,3.18757282 L74.5560417,10.4761165 C74.5560417,11.1099029 74.76,11.7623301 75.1308333,12.2097087 Z M85.0073611,3.41126214 L81.5586111,13.104466 C80.9096528,14.9499029 80.4275694,15.7514563 79.7415278,16.2547573 C79.1111111,16.7207767 78.2952778,17.0190291 77.4423611,17.1308738 L76.5894444,15.4904854 C77.1271528,15.3413592 77.7575694,15.1176699 78.1284028,14.856699 C78.4065278,14.6516505 78.6290278,14.3906796 78.8329861,14.0737864 C79.0740278,13.6823301 79.1481944,13.5145631 79.3706944,12.9553398 L78.7402778,12.9553398 C78.4436111,12.0605825 77.9429861,10.5693204 77.8502778,10.271068 L75.6067361,3.56038835 L78.1469444,3.26213592 L79.7971528,8.83572816 C79.9454861,9.39495146 80.2606944,10.681165 80.2977778,10.8116505 C80.2977778,10.7557282 80.4831944,9.74912621 80.5944444,9.2831068 C80.6686111,8.96621359 80.8169444,8.40699029 80.9652778,7.95961165 L82.3929861,3.41126214 L85.0073611,3.41126214 Z" id="Buy" fill="#A8A9AD"></path>
                    <g id="R">
                        <use fill="#106AAC" xlink:href="#path-3"></use>
                        <use fill="#A8A9AD" xlink:href="#path-3"></use>
                    </g>
                    <path d="M87.1612847,6.74174757 C88.099977,6.74174757 88.8609375,5.97671957 88.8609375,5.03300971 C88.8609375,4.08929985 88.099977,3.32427184 87.1612847,3.32427184 C86.2225924,3.32427184 85.4616319,4.08929985 85.4616319,5.03300971 C85.4616319,5.97671957 86.2225924,6.74174757 87.1612847,6.74174757 Z M87.1612847,6.35339806 C86.4359316,6.35339806 85.8479167,5.76224006 85.8479167,5.03300971 C85.8479167,4.30377936 86.4359316,3.71262136 87.1612847,3.71262136 C87.8866379,3.71262136 88.4746528,4.30377936 88.4746528,5.03300971 C88.4746528,5.76224006 87.8866379,6.35339806 87.1612847,6.35339806 Z" id="Oval" fill="#A8A9AD"></path>
                </g>
            </g>
        </g>
    </g>
</svg>