<?xml version="1.0" encoding="UTF-8"?>
<svg width="66px" height="80px" viewBox="0 0 66 80" version="1.1" xmlns="http://www.w3.org/2000/svg" xmlns:xlink="http://www.w3.org/1999/xlink">
    <!-- Generator: Sketch 55.2 (78181) - https://sketchapp.com -->
    <title>datatrans_security-logos-mastercard-IDCheck</title>
    <desc>Created with Sketch.</desc>
    <g id="datatrans_security-logos-mastercard-IDCheck" stroke="none" stroke-width="1" fill="none" fill-rule="evenodd">
        <g id="mastercard_idcheck_svg" transform="translate(1.000000, 8.000000)" fill-rule="nonzero">
            <path d="M60.6846154,63.1050847 L60.5661538,63.1050847 L60.5661538,63.4250847 L60.5069231,63.4250847 L60.5069231,63.1050847 L60.3884615,63.1050847 L60.3884615,63.0454237 L60.69,63.0454237 L60.6846154,63.1050847 Z M61.1476923,63.4250847 L61.0884615,63.4250847 L61.0884615,63.1159322 L60.9807692,63.3871186 L60.9161538,63.3871186 L60.8084615,63.1159322 L60.8084615,63.4250847 L60.7492308,63.4250847 L60.7492308,63.0454237 L60.8407692,63.0454237 L60.9484615,63.3166102 L61.0561538,63.0454237 L61.1476923,63.0454237 L61.1476923,63.4250847 Z M4.43153846,63.4250847 L3.60769231,63.4250847 L3.60769231,53.9335593 L4.43153846,53.9335593 L4.43153846,63.4250847 Z M10.6938462,53.9335593 C11.4144795,53.9226739 12.1317577,54.0345312 12.8153846,54.2644068 C13.4138083,54.463545 13.9641153,54.7868893 14.4307692,55.2135593 C14.8752096,55.6310463 15.2227036,56.1421839 15.4484615,56.7105085 C15.9239087,57.9793673 15.9239087,59.3792768 15.4484615,60.6481356 C15.2228609,61.2165448 14.8753448,61.727715 14.4307692,62.1450847 C13.9641153,62.5717548 13.4138083,62.895099 12.8153846,63.0942373 C12.1317577,63.3241129 11.4144795,63.4359702 10.6938462,63.4250847 L7.25307692,63.4250847 L7.25307692,53.9335593 L10.6938462,53.9335593 Z M8.07692308,54.72 L8.07692308,62.6386441 L10.6938462,62.6386441 C11.3120325,62.6497327 11.9275554,62.554349 12.5138462,62.3566102 C13.0063229,62.1880414 13.4577682,61.9163158 13.8384615,61.559322 C14.1998277,61.2109312 14.4778558,60.7843686 14.6515385,60.3118644 C15.0163526,59.2582388 15.0163526,58.1112527 14.6515385,57.0576271 C14.4775698,56.5836901 14.1996374,56.1554203 13.8384615,55.8047458 C13.4587682,55.446413 13.0070199,55.1745049 12.5138462,55.0074576 C11.928634,54.8134926 11.3152168,54.72 10.6992308,54.7308475 L8.07692308,54.72 Z M25.8461538,53.8250847 C26.2413494,53.8239686 26.635315,53.8694763 27.02,53.960678 C27.3932615,54.0467427 27.7548493,54.1778598 28.0969231,54.3511864 C28.4196314,54.5161966 28.7200249,54.7221667 28.9907692,54.9640678 C29.2558802,55.2012041 29.4861374,55.4751369 29.6746154,55.7776271 L28.9907692,56.2386441 C28.8290893,55.9897862 28.635348,55.7636326 28.4146154,55.5661017 C28.192517,55.3661375 27.9465139,55.1948709 27.6823077,55.0562712 C27.4091488,54.9146365 27.1198229,54.8071726 26.8207692,54.7362712 C26.5086741,54.6604321 26.188741,54.6221982 25.8676923,54.6223729 C25.3315672,54.6178387 24.7995854,54.717274 24.3007692,54.9152542 C23.8295512,55.1010278 23.400837,55.3815317 23.0407692,55.739661 C22.6785882,56.1054382 22.3929509,56.5406951 22.2007692,57.019661 C21.7917936,58.0840165 21.7917936,59.2637801 22.2007692,60.3281356 C22.3928208,60.8071704 22.6784743,61.2424519 23.0407692,61.6081356 C23.400837,61.9662649 23.8295512,62.2467688 24.3007692,62.4325424 C24.7995854,62.6305226 25.3315672,62.729958 25.8676923,62.7254237 C26.1866967,62.7263989 26.5047311,62.6899961 26.8153846,62.6169492 C27.4145139,62.4845006 27.9703828,62.2008146 28.4307692,61.7925424 C28.6528189,61.5942769 28.8466928,61.3661435 29.0069231,61.1145763 L29.68,61.6081356 C29.4842502,61.9034889 29.2506998,62.171561 28.9853846,62.4054237 C28.7152419,62.6425409 28.4167828,62.8447809 28.0969231,63.0074576 C27.7654924,63.1779734 27.4147154,63.3072831 27.0523077,63.3925424 C26.0278477,63.6275805 24.9569841,63.5482408 23.9776923,63.1647458 C23.4072968,62.9375156 22.8874682,62.5982788 22.4484615,62.1667797 C22.0114517,61.729357 21.6670722,61.2071904 21.4361538,60.6318644 C20.9474748,59.3710861 20.9474748,57.9712868 21.4361538,56.7105085 C21.6670722,56.1351825 22.0114517,55.6130159 22.4484615,55.1755932 C22.8874682,54.7440941 23.4072968,54.4048573 23.9776923,54.1776271 C24.5796635,53.9399816 25.2211548,53.8203239 25.8676923,53.8250847 L25.8461538,53.8250847 Z M32.4476923,58.1640678 C32.5683018,57.9628941 32.7170029,57.7802341 32.8892308,57.6216949 C33.0506301,57.4724139 33.2318524,57.3464622 33.4276923,57.2474576 C33.6248204,57.150637 33.8326944,57.0778078 34.0469231,57.0305085 C34.2591836,56.9837917 34.4758084,56.9601536 34.6930769,56.96 C35.0596479,56.9561955 35.4240732,57.0167625 35.77,57.1389831 C36.0832282,57.2493696 36.3708647,57.422836 36.6153846,57.6488136 C36.8516399,57.8750702 37.0354873,58.1509926 37.1538462,58.4569492 C37.2885221,58.8022099 37.3543903,59.170802 37.3476923,59.5416949 L37.3476923,63.4522034 L36.5776923,63.4522034 L36.5776923,59.780339 C36.5818337,59.4854891 36.5363169,59.1920659 36.4430769,58.9125424 C36.3610011,58.6663591 36.224793,58.4420226 36.0446154,58.2562712 C35.86382,58.0729519 35.6450026,57.9321878 35.4038462,57.8440678 C35.1274493,57.7451534 34.8355772,57.6973797 34.5423077,57.7030508 C34.258892,57.7008866 33.9775977,57.7524025 33.7130769,57.8549153 C33.4619278,57.9522762 33.2329638,58.0998776 33.04,58.2888136 C32.8460934,58.4802686 32.6922896,58.7089616 32.5876923,58.9613559 C32.4749596,59.2326562 32.4181682,59.5242117 32.4207692,59.8183051 L32.4207692,63.4522034 L31.6561538,63.4522034 L31.6561538,53.6894915 L32.4207692,53.6894915 L32.4476923,58.1640678 Z M42.3769231,56.96 C42.780466,56.9560093 43.1803545,57.037307 43.5507692,57.1986441 C43.9060835,57.3548062 44.2251782,57.5838588 44.4876923,57.8711864 C44.7591417,58.1714949 44.9711455,58.5212649 45.1123077,58.9016949 C45.2691434,59.3212584 45.3494077,59.7659187 45.3492311,60.2142373 C45.3492311,60.2738983 45.3492311,60.3281356 45.3492311,60.3823729 C45.3492311,60.4366102 45.3492311,60.4854237 45.3492311,60.5342373 L40.04,60.5342373 C40.0607152,60.8759583 40.1447247,61.2107584 40.2876923,61.5213559 C40.4171543,61.8005788 40.6001508,62.0512619 40.8261538,62.2589831 C41.0471907,62.4594327 41.3051453,62.6142241 41.5853846,62.7145763 C41.877296,62.820037 42.1852678,62.8732681 42.4953846,62.8718644 C42.9049691,62.8788259 43.3111142,62.795526 43.6853846,62.6277966 C44.0374529,62.4627309 44.3581746,62.236962 44.6330769,61.960678 L45.0423077,62.5030508 C44.8561217,62.6943314 44.6503604,62.8652267 44.4284615,63.0128814 C44.227163,63.1443409 44.0123203,63.2534518 43.7876923,63.3383051 C43.5735262,63.418041 43.351487,63.4744086 43.1253846,63.5064407 C42.9006064,63.538333 42.6739195,63.5546425 42.4469231,63.5552542 C42.0101469,63.5604272 41.5765961,63.479352 41.1707692,63.3166102 C40.7929568,63.1642293 40.4502367,62.9353203 40.1638462,62.6440678 C39.8770637,62.3474654 39.6535119,61.9949362 39.5069231,61.6081356 C39.3452,61.182397 39.264815,60.7297072 39.27,60.2738983 C39.2648742,59.8216205 39.3452801,59.3724948 39.5069231,58.9505085 C39.6482834,58.5568013 39.8661146,58.1954144 40.1476923,57.8874576 C40.4300245,57.5936461 40.7690188,57.3610865 41.1438462,57.2040678 C41.540073,57.0320913 41.9670145,56.9434988 42.3984615,56.9437284 L42.3769231,56.96 Z M42.3769231,57.6433898 C42.0744747,57.6406616 41.7744384,57.6977878 41.4938462,57.8115254 C41.2317518,57.9186168 40.9923448,58.0750856 40.7884615,58.2725424 C40.582752,58.4737254 40.4149155,58.7107709 40.2930769,58.9722034 C40.1613995,59.2544538 40.0776731,59.5569585 40.0453846,59.8671186 L44.5738462,59.8671186 C44.5516842,59.5547875 44.4770335,59.248514 44.3530769,58.9613559 C44.2399387,58.70035 44.0792125,58.4630285 43.8792308,58.2616949 C43.4802742,57.8621722 42.9394857,57.6395998 42.3769231,57.6433898 L42.3769231,57.6433898 Z M50.0446154,56.96 C50.4933054,56.9559721 50.938238,57.0426542 51.3530769,57.2149153 C51.747086,57.3788857 52.0988127,57.6311491 52.3815385,57.9525424 L51.8861538,58.4949153 C51.6474116,58.251888 51.3663244,58.0551685 51.0569231,57.9145763 C50.7324365,57.7733689 50.3818965,57.7031214 50.0284615,57.7084746 C49.6973381,57.7068393 49.3693658,57.7732793 49.0646154,57.9037288 C48.772722,58.0304282 48.5090511,58.2148631 48.2892308,58.4461017 C48.0570998,58.6779272 47.8739377,58.9546661 47.7507692,59.259661 C47.5037208,59.9222657 47.5037208,60.6526495 47.7507692,61.3152542 C47.9818602,61.9208164 48.448772,62.404837 49.0430769,62.6549153 C49.3476916,62.7858061 49.6757555,62.8522647 50.0069231,62.8501695 C50.36481,62.8541632 50.7193219,62.7801555 51.0461538,62.6332203 C51.3576338,62.4929985 51.6420191,62.2983587 51.8861538,62.0583051 L52.3653846,62.600678 C52.0812922,62.9205363 51.7299392,63.1725317 51.3369231,63.3383051 C50.9239683,63.5105628 50.4807935,63.5972592 50.0338462,63.5932203 C49.5855477,63.5986754 49.1406859,63.5138511 48.7253846,63.3437288 C47.948399,63.0256532 47.3351835,62.40014 47.0292308,61.6135593 C46.7108317,60.7716553 46.7108317,59.841226 47.0292308,58.999322 C47.3334072,58.2103333 47.9469727,57.582501 48.7253846,57.2637288 C49.1422549,57.0663624 49.5949617,56.9574404 50.0553846,56.9437288 L50.0446154,56.96 Z M54.9607692,59.7532203 L55.9892308,59.7532203 L58.6815385,57.0413559 L59.6507692,57.0413559 L56.6353846,60.0515254 L59.7046154,63.419661 L58.73,63.419661 L56.0376923,60.4311864 L55.0092308,60.4311864 L55.0092308,63.419661 L54.2015385,63.419661 L54.2015385,53.6569492 L54.9661538,53.6569492 L54.9607692,59.7532203 Z M11.5769231,49.0576271 L11.5769231,45.8033898 C11.6150139,45.249733 11.4147449,44.7063372 11.0272083,44.311833 C10.6396717,43.9173287 10.1023441,43.7098662 9.55230769,43.7423729 C8.82744915,43.6945073 8.13417743,44.0478177 7.74307692,44.6644068 C7.38650549,44.0662017 6.73361141,43.7124098 6.04153846,43.7423729 C5.43895551,43.7116892 4.86530237,44.0047265 4.53384615,44.5125424 L4.53384615,43.8725424 L3.41384615,43.8725424 L3.41384615,49.0576271 L4.54461538,49.0576271 L4.54461538,46.1830508 C4.49591605,45.8240489 4.60884181,45.4618886 4.85257621,45.1954005 C5.0963106,44.9289123 5.44541265,44.7859122 5.80461538,44.8054237 C6.54769231,44.8054237 6.92461538,45.2935593 6.92461538,46.1722034 L6.92461538,49.0576271 L8.05538462,49.0576271 L8.05538462,46.1830508 C8.00868361,45.8244572 8.12229989,45.4634703 8.36558238,45.1974762 C8.60886488,44.9314821 8.95674936,44.7878849 9.31538462,44.8054237 C10.08,44.8054237 10.4461538,45.2935593 10.4461538,46.1722034 L10.4461538,49.0576271 L11.5769231,49.0576271 Z M28.3015385,43.8562712 L26.4707692,43.8562712 L26.4707692,42.2833898 L25.34,42.2833898 L25.34,43.8562712 L24.2953846,43.8562712 L24.2953846,44.8705085 L25.34,44.8705085 L25.34,47.2352542 C25.34,48.439322 25.8030769,49.1552692 27.1276923,49.1552692 C27.62257,49.1569287 28.107858,49.0178049 28.5276923,48.7538983 L28.2046154,47.7884746 C27.9115448,47.98246 27.574307,48.0981777 27.2246154,48.1247458 C26.6861538,48.1247458 26.4815385,47.7776271 26.4815385,47.2569492 L26.4815385,44.8705085 L28.3015385,44.8705085 L28.3015385,43.8562712 Z M37.8538462,43.7261017 C37.2975709,43.709623 36.7769139,44.000978 36.4969231,44.4854237 L36.4969231,43.8562712 L35.3876923,43.8562712 L35.3876923,49.0413559 L36.5076923,49.0413559 L36.5076923,46.1342373 C36.5076923,45.2772881 36.8738462,44.8 37.5846154,44.8 C37.8241684,44.7966994 38.0620235,44.8409301 38.2846154,44.9301695 L38.6292308,43.8454237 C38.3734464,43.753255 38.1039642,43.7055697 37.8323077,43.7044068 L37.8538462,43.7261017 Z M23.4123077,44.2684746 C22.7783365,43.8888011 22.0494346,43.7005455 21.3123077,43.7261017 C20.0092308,43.7261017 19.1584615,44.3552542 19.1584615,45.3857627 C19.1584615,46.2318644 19.7830769,46.7525424 20.9353846,46.9152542 L21.4738462,46.9911864 C22.0876923,47.0779661 22.3784615,47.240678 22.3784615,47.5335593 C22.3784615,47.9349153 21.9692308,48.1627119 21.2046154,48.1627119 C20.5895859,48.1806439 19.9864556,47.9896025 19.4923077,47.620339 L18.9538462,48.4989831 C19.6062536,48.9578254 20.3876732,49.1935739 21.1830769,49.1715254 C22.6692308,49.1715254 23.5307692,48.4664407 23.5307692,47.479322 C23.5307692,46.4922034 22.8523077,46.0908475 21.7323077,45.9281356 L21.1938462,45.8522034 C20.7092308,45.7871186 20.3215385,45.6894915 20.3215385,45.3423729 C20.3215385,44.9952542 20.6876923,44.7349153 21.3015385,44.7349153 C21.8689022,44.7415539 22.4250901,44.8946829 22.9169231,45.179661 L23.4123077,44.2684746 Z M53.41,43.7261017 C52.8537247,43.709623 52.3330678,44.000978 52.0530769,44.4854237 L52.0530769,43.8562712 L50.9438462,43.8562712 L50.9438462,49.0413559 L52.0638462,49.0413559 L52.0638462,46.1342373 C52.0638462,45.2772881 52.43,44.8 53.1407692,44.8 C53.3803222,44.7966994 53.6181773,44.8409301 53.8407692,44.9301695 L54.1853846,43.8454237 C53.9296003,43.753255 53.6601181,43.7055697 53.3884615,43.7044068 L53.41,43.7261017 Z M38.9792308,46.4379661 C38.9522957,47.1747444 39.2348411,47.8888475 39.7575143,48.4049945 C40.2801876,48.9211415 40.9945964,49.1915441 41.7253846,49.1498305 C42.3978577,49.1842928 43.0587414,48.9636881 43.5776923,48.5315254 L43.0392308,47.620339 C42.6520613,47.9177281 42.1799445,48.0813159 41.6930769,48.0867797 C40.8346081,48.0168153 40.1733168,47.2946492 40.1733168,46.4271186 C40.1733168,45.5595881 40.8346081,44.8374219 41.6930769,44.7674576 C42.1799445,44.7729213 42.6520613,44.9365092 43.0392308,45.2338983 L43.5776923,44.3227119 C43.0587414,43.8905492 42.3978577,43.6699445 41.7253846,43.7044068 C40.9945964,43.6626931 40.2801876,43.9330958 39.7575143,44.4492428 C39.2348411,44.9653898 38.9522957,45.6794929 38.9792308,46.4162712 L38.9792308,46.4379661 Z M49.4684615,46.4379661 L49.4684615,43.8454237 L48.3484615,43.8454237 L48.3484615,44.4745763 C47.9626018,43.9744814 47.3614488,43.6919055 46.7330769,43.7152542 C45.2461564,43.7152542 44.0407692,44.9293973 44.0407692,46.4271186 C44.0407692,47.92484 45.2461564,49.1389831 46.7330769,49.1389831 C47.3614488,49.1623318 47.9626018,48.8797559 48.3484615,48.379661 L48.3484615,49.0088136 L49.4684615,49.0088136 L49.4684615,46.4379661 Z M45.3007692,46.4379661 C45.3505742,45.5868033 46.0666995,44.9318554 46.9125949,44.963836 C47.7584903,44.9958165 48.4238581,45.7029941 48.4101778,46.5555226 C48.3964975,47.4080512 47.7087873,48.0931997 46.8623077,48.0976271 C46.4312903,48.1031204 46.0175823,47.9270389 45.721072,47.6118967 C45.4245616,47.2967545 45.2721982,46.8711943 45.3007692,46.4379661 L45.3007692,46.4379661 Z M31.7853846,43.7261017 C30.2984642,43.7470699 29.1099525,44.9782109 29.1307694,46.4759322 C29.1515863,47.9736535 30.3738488,49.1707985 31.8607692,49.1498305 C32.6291164,49.1770462 33.38051,48.9183265 33.9715385,48.4230508 L33.4330769,47.5877966 C33.0078872,47.9312698 32.4811318,48.1221265 31.9361538,48.1301695 C31.1663511,48.1968543 30.4836971,47.634262 30.3961538,46.8610169 L34.2246154,46.8610169 C34.2246154,46.72 34.2246154,46.5789831 34.2246154,46.4271186 C34.2246154,44.8 33.2230769,43.7152542 31.78,43.7152542 L31.7853846,43.7261017 Z M31.7853846,44.7349153 C32.1238632,44.7276466 32.4513377,44.8561517 32.6957287,45.0921458 C32.9401197,45.3281399 33.0813959,45.6522799 33.0884615,45.9932203 L30.3961538,45.9932203 C30.4367153,45.2690567 31.0441806,44.7101762 31.7638462,44.7349153 L31.7853846,44.7349153 Z M59.8769231,46.4488136 L59.8769231,41.7735593 L58.7569231,41.7735593 L58.7569231,44.4854237 C58.3710633,43.9853288 57.7699103,43.7027529 57.1415385,43.7261017 C55.654618,43.7261017 54.4492308,44.9402447 54.4492308,46.4379661 C54.4492308,47.9356875 55.654618,49.1498305 57.1415385,49.1498305 C57.7699103,49.1731793 58.3710633,48.8906034 58.7569231,48.3905085 L58.7569231,49.019661 L59.8769231,49.019661 L59.8769231,46.4488136 Z M55.7092308,46.4488136 C55.7590358,45.5976508 56.475161,44.9427029 57.3210564,44.9746834 C58.1669518,45.0066639 58.8323197,45.7138416 58.8186393,46.5663701 C58.804959,47.4188986 58.1172489,48.1040472 57.2707692,48.1084746 C56.8397518,48.1139679 56.4260439,47.9378863 56.1295335,47.6227441 C55.8330232,47.3076019 55.6806597,46.8820418 55.7092308,46.4488136 Z M17.8930769,46.4488136 L17.8930769,43.8562712 L16.7730769,43.8562712 L16.7730769,44.4854237 C16.3872172,43.9853288 15.7860642,43.7027529 15.1576923,43.7261017 C13.6707718,43.7261017 12.4653846,44.9402447 12.4653846,46.4379661 C12.4653846,47.9356875 13.6707718,49.1498305 15.1576923,49.1498305 C15.7860642,49.1731793 16.3872172,48.8906034 16.7730769,48.3905085 L16.7730769,49.019661 L17.8930769,49.019661 L17.8930769,46.4488136 Z M13.7253846,46.4488136 C13.7751896,45.5976508 14.4913149,44.9427029 15.3372103,44.9746834 C16.1831057,45.0066639 16.8484735,45.7138416 16.8347932,46.5663701 C16.8211129,47.4188986 16.1334027,48.1040472 15.2869231,48.1084746 C14.8559057,48.1139679 14.4421977,47.9378863 14.1456874,47.6227441 C13.849177,47.3076019 13.6968136,46.8820418 13.7253846,46.4488136 Z M61.74,48.2874576 C61.810007,48.2865937 61.8795093,48.2994898 61.9446154,48.3254237 C62.0064538,48.3508415 62.0630579,48.3876255 62.1115385,48.4338983 C62.1588526,48.4806624 62.1971876,48.5358245 62.2246154,48.5966102 C62.2797329,48.7246358 62.2797329,48.8699405 62.2246154,48.9979661 C62.1971876,49.0587518 62.1588526,49.1139138 62.1115385,49.160678 C62.0630579,49.2069507 62.0064538,49.2437348 61.9446154,49.2691525 C61.880152,49.2978035 61.81046,49.3125821 61.74,49.3125425 C61.5316421,49.3109605 61.3428915,49.1884376 61.2553846,48.9979661 C61.2009053,48.8698079 61.2009053,48.7247684 61.2553846,48.5966102 C61.2828124,48.5358245 61.3211474,48.4806624 61.3684615,48.4338983 C61.4169421,48.3876255 61.4735462,48.3508415 61.5353846,48.3254237 C61.6004907,48.2994898 61.669993,48.2865937 61.74,48.2874576 L61.74,48.2874576 Z M61.74,49.2040678 C61.7937436,49.2043967 61.8469521,49.193308 61.8961538,49.1715254 C61.9424811,49.1506915 61.9844962,49.1212514 62.02,49.0847458 C62.1596214,48.9313046 62.1596214,48.695814 62.02,48.5423729 C61.9845808,48.5057666 61.9425454,48.4763122 61.8961538,48.4555932 C61.8469035,48.4339642 61.7937276,48.4228823 61.74,48.423049 C61.6863188,48.4233366 61.6332328,48.4343997 61.5838462,48.4555932 C61.5354679,48.4755743 61.4915334,48.5050766 61.4546154,48.5423729 C61.3149939,48.695814 61.3149939,48.9313046 61.4546154,49.0847458 C61.4916241,49.1219306 61.5355351,49.1514172 61.5838462,49.1715254 C61.6327988,49.1947275 61.6859296,49.2076454 61.74,49.2094915 L61.74,49.2040678 Z M61.7723077,48.5586441 C61.8225738,48.5561887 61.8721066,48.5715403 61.9123077,48.6020339 C61.9457475,48.6299097 61.9637908,48.6723166 61.9607692,48.7159322 C61.9623323,48.7523554 61.9486595,48.7877695 61.9230769,48.8135593 C61.8918667,48.8421131 61.852052,48.8593004 61.81,48.8623729 L61.9661538,49.0413559 L61.8423077,49.0413559 L61.6969231,48.8623729 L61.6484615,48.8623729 L61.6484615,49.0413559 L61.5461538,49.0413559 L61.5461538,48.5640678 L61.7723077,48.5586441 Z M61.6538462,48.6508475 L61.6538462,48.7810169 L61.7723077,48.7810169 C61.7933877,48.7873474 61.8158431,48.7873474 61.8369231,48.7810169 C61.8446031,48.7656652 61.8446031,48.7475551 61.8369231,48.7322034 C61.8446031,48.7168517 61.8446031,48.6987416 61.8369231,48.6833898 C61.8158431,48.6770593 61.7933877,48.6770593 61.7723077,48.6833898 L61.6538462,48.6508475 Z" id="Shape" fill="#000000"></path>
            <rect id="Rectangle" fill="#FF5F00" x="23.0515385" y="4.34440678" width="16.9615385" height="30.7037288"></rect>
            <path d="M24.1284615,19.6989831 C24.1221199,13.7065721 26.8524544,8.04422739 31.5323077,4.34440678 C23.5845025,-1.94709056 12.1711355,-1.03067957 5.31321425,6.44961074 C-1.54470698,13.9299011 -1.54470698,25.4626413 5.31321425,32.9429316 C12.1711355,40.4232219 23.5845025,41.3396329 31.5323077,35.0481356 C26.8539432,31.3494895 24.1237755,25.6894907 24.1284615,19.6989831 Z" id="_Path_" fill="#EB001B"></path>
            <path d="M61.0453846,32.0329078 L61.0453846,31.2102128 L61.2984615,31.2102128 L61.2984615,31.04 L60.6576923,31.04 L60.6576923,31.2102128 L60.9107692,31.2102128 L60.9107692,32.0329078 L61.0453846,32.0329078 Z M62.2892308,32.0329078 L62.2892308,31.04 L62.0953846,31.04 L61.8692308,31.7492199 L61.6430769,31.04 L61.4438462,31.04 L61.4438462,32.0329078 L61.5838462,32.0329078 L61.5838462,31.288227 L61.7938462,31.933617 L61.9392308,31.933617 L62.1492308,31.288227 L62.1492308,32.04 L62.2892308,32.0329078 Z" id="Shape" fill="#F79E1B"></path>
            <path d="M62.8976923,19.6989831 C62.8976923,27.1747148 58.6596882,33.9941154 51.9840221,37.2609594 C45.308356,40.5278033 37.366856,39.6685531 31.5323077,35.0481356 C36.2086309,31.3463495 38.9390041,25.6871032 38.9390041,19.6962712 C38.9390041,13.7054392 36.2086309,8.04619291 31.5323077,4.34440678 C37.366856,-0.276010753 45.308356,-1.13526098 51.9840221,2.13158298 C58.6596882,5.39842693 62.8976923,12.2178276 62.8976923,19.6935593 L62.8976923,19.6989831 Z" id="Path" fill="#F79E1B"></path>
        </g>
    </g>
</svg>