<?xml version="1.0" encoding="UTF-8"?>
<svg width="80px" height="80px" viewBox="0 0 80 80" version="1.1" xmlns="http://www.w3.org/2000/svg" xmlns:xlink="http://www.w3.org/1999/xlink">
    <!-- Generator: Sketch 55.2 (78181) - https://sketchapp.com -->
    <title>datatrans_security-logos-visa-secure</title>
    <desc>Created with Sketch.</desc>
    <g id="datatrans_security-logos-visa-secure" stroke="none" stroke-width="1" fill="none" fill-rule="evenodd">
        <g id="Group-33">
            <g id="Group-4">
                <polygon id="Fill-1" fill="#FFFFFE" points="0 79.9757576 79.9991919 79.9757576 79.9991919 0.000808080808 0 0.000808080808"></polygon>
                <polygon id="Fill-3" fill="#182E66" points="0 79.9757576 79.9991919 79.9757576 79.9991919 40.000404 0 40.000404"></polygon>
            </g>
            <path d="M38.2674747,11.1850505 L34.4250505,29.1494949 L29.7773737,29.1494949 L33.620202,11.1850505 L38.2674747,11.1850505 Z M57.819798,22.7850505 L60.2658586,16.0387879 L61.6735354,22.7850505 L57.819798,22.7850505 Z M63.0068687,29.1494949 L67.3042424,29.1494949 L63.549899,11.1850505 L59.5858586,11.1850505 C58.6925253,11.1850505 57.9393939,11.7030303 57.6060606,12.5018182 L50.6323232,29.1494949 L55.5135354,29.1494949 L56.4824242,26.4662626 L62.4440404,26.4662626 L63.0068687,29.1494949 Z M50.8747475,23.2844444 C50.8949495,18.5438384 44.3208081,18.2808081 44.3648485,16.1628283 C44.3789899,15.5187879 44.9927273,14.8331313 46.3353535,14.6577778 C47.0008081,14.5721212 48.8371717,14.5030303 50.9187879,15.4618182 L51.7329293,11.6509091 C50.6149495,11.2464646 49.1761616,10.8569697 47.3858586,10.8569697 C42.7915152,10.8569697 39.559596,13.2973737 39.5337374,16.7947475 C39.5042424,19.3810101 41.8424242,20.8234343 43.600404,21.6844444 C45.4129293,22.5648485 46.020202,23.129697 46.0113131,23.9159596 C45.9987879,25.1212121 44.5660606,25.6549495 43.2319192,25.6751515 C40.8941414,25.7115152 39.5389899,25.0432323 38.4589899,24.539798 L37.6153535,28.4779798 C38.7030303,28.9757576 40.7070707,29.4088889 42.7822222,29.4311111 C47.6666667,29.4311111 50.860202,27.0193939 50.8747475,23.2844444 L50.8747475,23.2844444 Z M31.6266667,11.1850505 L24.0965657,29.1494949 L19.1846465,29.1494949 L15.4787879,14.8125253 C15.2541414,13.9309091 15.0581818,13.6068687 14.3749495,13.2343434 C13.2573737,12.6274747 11.4125253,12.059798 9.79030303,11.7066667 L9.90020202,11.1850505 L17.8080808,11.1850505 C18.8153535,11.1850505 19.7216162,11.8553535 19.9523232,13.0157576 L21.909899,23.4117172 L26.7442424,11.1850505 L31.6266667,11.1850505 L31.6266667,11.1850505 Z" id="Fill-5" fill="#182E66"></path>
            <path d="M18.6367677,62.1543434 C19.1616162,62.4642424 19.9826263,62.7333333 20.830303,62.7333333 C21.88,62.7333333 22.4723232,62.2351515 22.4723232,61.4949495 C22.4723232,60.8084848 22.0145455,60.4048485 20.8707071,59.9878788 C19.3632323,59.4626263 18.4076768,58.6553535 18.4076768,57.3632323 C18.4076768,55.8690909 19.6460606,54.7523232 21.6246465,54.7523232 C22.6068687,54.7523232 23.32,54.9676768 23.7911111,55.1963636 L23.4012121,56.5422222 C23.0646465,56.3672727 22.4319192,56.1115152 21.5842424,56.1115152 C20.5341414,56.1115152 20.090101,56.6634343 20.090101,57.2016162 C20.090101,57.9018182 20.6149495,58.2246465 21.8262626,58.6820202 C23.4012121,59.2876768 24.1547475,60.0820202 24.1547475,61.3737374 C24.1547475,62.8408081 23.0509091,64.0925253 20.7228283,64.0925253 C19.7535354,64.0925253 18.7575758,63.8234343 18.259798,63.5276768 L18.6367677,62.1543434" id="Fill-6" fill="#FFFFFE"></path>
            <polyline id="Fill-7" fill="#FFFFFE" points="30.5890909 59.9337374 27.1705051 59.9337374 27.1705051 62.5987879 30.9931313 62.5987879 30.9931313 63.9579798 25.5155556 63.9579798 25.5155556 54.8868687 30.7911111 54.8868687 30.7911111 56.2460606 27.1705051 56.2460606 27.1705051 58.5878788 30.5890909 58.5878788 30.5890909 59.9337374"></polyline>
            <path d="M38.8137374,63.6888889 C38.4234343,63.8771717 37.5620202,64.0925253 36.4585859,64.0925253 C33.5785859,64.0925253 31.8286869,62.2888889 31.8286869,59.530101 C31.8286869,56.5422222 33.9147475,54.7523232 36.6872727,54.7523232 C37.7773737,54.7523232 38.5446465,54.9676768 38.8808081,55.1426263 L38.5313131,56.4614141 C38.1006061,56.2731313 37.4949495,56.1115152 36.7547475,56.1115152 C34.9107071,56.1115152 33.5785859,57.2690909 33.5785859,59.4492929 C33.5785859,61.4412121 34.7357576,62.7062626 36.7410101,62.7062626 C37.400404,62.7062626 38.1006061,62.5717172 38.5446465,62.3830303 L38.8137374,63.6888889" id="Fill-8" fill="#FFFFFE"></path>
            <path d="M41.7357576,54.8868687 L41.7357576,60.1761616 C41.7357576,61.9527273 42.4759596,62.7733333 43.5931313,62.7733333 C44.7907071,62.7733333 45.5042424,61.9527273 45.5042424,60.1761616 L45.5042424,54.8868687 L47.159596,54.8868687 L47.159596,60.0682828 C47.159596,62.8678788 45.719596,64.1058586 43.5393939,64.1058586 C41.439596,64.1058586 40.080404,62.9353535 40.080404,60.0820202 L40.080404,54.8868687 L41.7357576,54.8868687" id="Fill-9" fill="#FFFFFE"></path>
            <path d="M50.5656566,59.0185859 L51.5482828,59.0185859 C52.6658586,59.0185859 53.3523232,58.4266667 53.3523232,57.5248485 C53.3523232,56.5422222 52.6658586,56.0711111 51.5890909,56.0711111 C51.0638384,56.0711111 50.7276768,56.1115152 50.5656566,56.1523232 L50.5656566,59.0185859 Z M48.9244444,55.0214141 C49.5563636,54.900202 50.4719192,54.819798 51.4274747,54.819798 C52.7329293,54.819798 53.6080808,55.0347475 54.2266667,55.5466667 C54.7244444,55.9636364 55.0072727,56.5959596 55.0072727,57.3769697 C55.0072727,58.5474747 54.2133333,59.3414141 53.3523232,59.6379798 L53.3523232,59.6779798 C54.0113131,59.920404 54.4020202,60.5527273 54.6173737,61.4274747 C54.9131313,62.5583838 55.1555556,63.6080808 55.3305051,63.9579798 L53.6347475,63.9579798 C53.499798,63.6888889 53.2711111,62.9486869 53.0286869,61.8181818 C52.759596,60.6335354 52.3426263,60.2569697 51.4008081,60.229899 L50.5656566,60.229899 L50.5656566,63.9579798 L48.9244444,63.9579798 L48.9244444,55.0214141 L48.9244444,55.0214141 Z" id="Fill-10" fill="#FFFFFE"></path>
            <polyline id="Fill-11" fill="#FFFFFE" points="61.5228283 59.9337374 58.1042424 59.9337374 58.1042424 62.5987879 61.9264646 62.5987879 61.9264646 63.9579798 56.4488889 63.9579798 56.4488889 54.8868687 61.7244444 54.8868687 61.7244444 56.2460606 58.1042424 56.2460606 58.1042424 58.5878788 61.5228283 58.5878788 61.5228283 59.9337374"></polyline>
        </g>
    </g>
</svg>